<?xml version="1.0" encoding="UTF-8" standalone="no"?>
<svg
   version="1.2"
   viewBox="0 0 399 568"
   width="399"
   height="568"
   id="svg35"
   sodipodi:docname="Background.svg"
   inkscape:version="1.1 (c68e22c387, 2021-05-23)"
   xmlns:inkscape="http://www.inkscape.org/namespaces/inkscape"
   xmlns:sodipodi="http://sodipodi.sourceforge.net/DTD/sodipodi-0.dtd"
   xmlns:xlink="http://www.w3.org/1999/xlink"
   xmlns="http://www.w3.org/2000/svg"
   xmlns:svg="http://www.w3.org/2000/svg"
   xmlns:rdf="http://www.w3.org/1999/02/22-rdf-syntax-ns#"
   xmlns:cc="http://creativecommons.org/ns#"
   xmlns:dc="http://purl.org/dc/elements/1.1/">
  <defs
     id="defs39">
    <linearGradient
       inkscape:collect="always"
       id="linearGradient1544">
      <stop
         style="stop-color:#e5aa97;stop-opacity:1;"
         offset="0"
         id="stop1540" />
      <stop
         style="stop-color:#e5aa97;stop-opacity:0;"
         offset="1"
         id="stop1542" />
    </linearGradient>
    <radialGradient
       inkscape:collect="always"
       xlink:href="#linearGradient1544"
       id="radialGradient1967"
       cx="137.21111"
       cy="137.99403"
       fx="137.21111"
       fy="137.99403"
       r="23.206039"
       gradientTransform="matrix(-1.9934968,0.08471628,0.05904298,1.3893668,409.83565,-57.720601)"
       gradientUnits="userSpaceOnUse" />
    <radialGradient
       inkscape:collect="always"
       xlink:href="#linearGradient1544"
       id="radialGradient1967-0"
       cx="137.21111"
       cy="137.99403"
       fx="137.21111"
       fy="137.99403"
       r="23.206039"
       gradientTransform="matrix(1.9934968,0.08471628,-0.05904298,1.3893668,-17.201483,-54.680325)"
       gradientUnits="userSpaceOnUse" />
  </defs>
  <sodipodi:namedview
     id="namedview37"
     pagecolor="#ffffff"
     bordercolor="#666666"
     borderopacity="1.0"
     inkscape:pageshadow="2"
     inkscape:pageopacity="0.0"
     inkscape:pagecheckerboard="0"
     showgrid="false"
     inkscape:zoom="1.0868023"
     inkscape:cx="137.09945"
     inkscape:cy="677.67613"
     inkscape:window-width="1920"
     inkscape:window-height="1047"
     inkscape:window-x="-9"
     inkscape:window-y="-9"
     inkscape:window-maximized="1"
     inkscape:current-layer="Background" />
  <title
     id="title2">Background</title>
  <style
     id="style4">
		tspan { white-space:pre }
		.shp0 { fill: #926147 } 
		.shp1 { fill: #daa883 } 
		.shp2 { fill: #9a664d } 
		.shp3 { fill: #ba705e } 
		.shp4 { fill: #dea88b } 
		.shp5 { fill: #e5aa97 } 
		.shp6 { opacity: 0.078;fill: #f3b7a8 } 
		.shp7 { opacity: 0.137;fill: #936145 } 
		.shp8 { fill: #f4df9d } 
		.shp9 { fill: #87011b } 
		.shp10 { fill: #314894 } 
		.shp11 { opacity: 0.855;fill: #304894 } 
		.shp12 { fill: #84041f } 
		.shp13 { fill: #512f5b } 
		.shp14 { fill: #5b3804 } 
		.shp15 { fill: #324790 } 
		.shp16 { fill: #4b3e3a } 
		.shp17 { opacity: 0.992;fill: #543a1a } 
		.shp18 { opacity: 0.494;fill: #5a3804 } 
		.shp19 { opacity: 0.247;fill: #5a3704 } 
		.shp20 { opacity: 0.098;fill: #583a00 } 
	</style>
  <g
     id="Background">
    <path
       id="Path 12"
       class="shp9"
       d="m 317.15084,343.34736 c 1.2025,-24.12385 -5.59459,-47.58556 -8.40084,-71.35736 16.92845,11.16827 20.54863,32.72464 27.412,50.38348 2.84917,9.94766 8.61268,30.04392 13.37854,18.27434 7.85675,-10.44111 33.65158,-8.33764 35.1344,-16.92386 C 371.65423,285.87659 357.97026,239.81351 325.52552,213.64608 305.04324,198.86889 281.31624,188.1158 256.56,183 241.53133,326.16231 160.92604,383.16569 317.15084,343.34736 Z M 130,184.44 c -42.422628,5.9245 -78.615965,37.98219 -92.828948,77.9345 -9.024301,19.97324 -18.551943,42.25277 -25.460188,63.0592 16.584749,-3.93821 31.794416,7.90438 43.959492,13.80101 7.459419,-14.58692 7.333314,-32.2968 16.999548,-46.28017 3.758942,-7.2824 12.989724,-25.22395 18.325046,-21.35859 -4.830237,24.03856 -5.902568,48.63857 -7.30495,73.06405 121.31185,85.86703 225.18362,-28.24603 180.99619,-143.72094 -3.60689,-10.96189 -7.84894,-22.37835 -21.35115,-16.54647 -30.9397,2.98995 -62.2027,5.47598 -93.1337,1.05259 C 143.47703,184.94555 136.74003,184.62619 130,184.44 Z"
       inkscape:label="shirt"
       sodipodi:nodetypes="cccscsccccccccccccc" />
    <path
       id="Path 13"
       class="shp10"
       d="m 142.68,184.77 c 0.9,0.55 -0.37,20.67 -5.22,82.73 -3.52,45.1 -6.41,82.11 -6.43,82.25 -15.69907,0.2628 -34.503188,-3.40797 -47.34,-5.09 -2.504793,38.75243 -5.80522,86.43305 -1.66,122.84 0.61,3.95 1.8,9.02 2.76,10 29.92056,7.14772 85.82841,13.50052 111.96,0.49 5.25966,-18.938 4.1064,-35.73864 9.06131,-56.18672 8.31006,19.11976 7.52602,50.21614 10.91869,58.45672 26.41884,10.89177 83.19517,12.23776 103.77,-8.3 1.60799,-44.22534 2.9211,-87.28235 -3.34916,-128.61264 -17.10455,2.68434 -34.46439,5.38988 -52.50472,5.79224 -0.21,-1.1 -3.06612,-39.1896 -6.17612,-82.6396 -3.12,-43.45 -5.71316,-82.43358 -5.93316,-83.12358 -10.00778,-0.71337 -18.12991,0.34868 -30.85419,2.08643 -0.15,0.16 2.75735,40.45715 5.79735,82.53715 0.81718,28.00749 5.52,55.96573 5.52,84 -13.92687,1.17523 -26.92165,1.99137 -37.5,2 -11.55129,0.058 -33.56249,-1.33249 -33.48449,-1.90324 0.29,-2.06 3.50449,-40.22676 6.52449,-80.09676 3.02,-39.88 5.59,-74.48 5.72,-76.9 l 0.24,-4.4 c -13.95,-2.69 -20.48,-4.21 -23.5,-5.1 -3.03,-0.89 -6.4,-1.61 -7.5,-1.59 -1.26,0.01 -1.56,0.29 -0.82,0.76 z"
       inkscape:label="trousers"
       sodipodi:nodetypes="ccccccccccccccccccccccccc" />
    <path
       id="Path 1"
       class="shp1"
       d="m 111.75,111.25 c -6.91183,20.84281 -3.1682,48.0303 8.69,59.06 21.29663,18.07565 55.13354,20.55487 80.35777,21.52493 C 221.76,191.5 260.34057,189.84344 273.81,167.75 c 3.7018,-6.84135 5.67194,-14.73862 6.19,-22.5 0.37589,-15.80626 -3.27084,-31.42248 -8.66,-39.75 -50.15825,-11.877599 -117.42467,-18.517004 -154.87,-4.52 -3.3476,1.72863 -3.50655,6.70319 -4.72,10.27 z"
       inkscape:label="face"
       sodipodi:nodetypes="cccccccc" />
    <path
       id="Path 0"
       class="shp0"
       d="M 177,2.0914895 C 160.29612,5.5116715 143.01553,11.162556 131.69484,24.697333 119.2903,38.267291 114.61021,56.556001 110.05,73.871489 95.14116,73.584996 80.647865,68.492064 65.732498,68.951276 50.50997,70.717635 49.828728,93.156234 65.928361,94.192192 86.2486,98.899286 107.24452,99.832756 127.60086,104.371 c 25.72136,3.5623 51.77323,2.91656 77.65198,4.16765 28.04688,-0.57534 56.18588,-1.07542 83.95359,-5.4926 11.37256,-1.7177 22.87308,-2.69051 34.22851,-4.340661 13.14984,-2.673542 14.93175,-20.978597 1.98847,-25.049243 -10.77712,-0.887124 -21.7444,1.003067 -32.55332,1.869288 -8.31973,0.511451 -20.42199,6.578739 -20.75819,-6.250191 C 267.21183,49.541716 259.6786,28.947809 242.57204,16.517621 231.92462,7.6806052 218.18893,4.4555377 205.00488,1.5480217 195.71213,1.2583706 186.30245,1.5290184 177,2.0914895 Z"
       inkscape:label="hat" />
    <path
       id="Path 9"
       class="shp3"
       d="m 190.95845,159.3029 c 9.06521,0.28164 18.13719,0.34897 27.19958,-0.15328 -0.49083,-0.42506 -2.59692,-0.14253 -3.68463,-0.27616 -8.41966,-0.14791 -16.84261,-0.151 -25.26093,0.0944 -1.86616,0.15636 0.77321,0.32835 1.42075,0.31545 l 0.32523,0.0195 z"
       inkscape:label="mouth"
       style="stroke-width:1.33488" />
    <path
       id="Path 15"
       class="shp1"
       d="m 20,322.27 c -40.180337,10.11467 -4.721132,74.76199 26.913331,46.39801 C 69.359336,349.06708 49.978345,308.94214 20,322.27 Z m 341,0.04 c -39.99555,6.86991 -11.00297,72.92987 22.6202,48.50542 C 409.15642,353.26418 393.04473,309.93368 361,322.31 Z"
       inkscape:label="hands" />
    <path
       id="Path 20"
       class="shp14"
       d="m 320.5,471.96 c -34.63299,12.39242 -90.16017,6.38628 -103.96331,8.7137 -2.71917,28.83063 -2.5186,48.81303 4.78935,83.30542 56.80661,4.26948 103.89377,4.79467 154.17396,-6.07912 5.44829,-1.17897 11.00522,-2.19878 16.06244,-4.51269 1.44911,-0.66304 3.23217,-1.23412 3.98756,-2.63731 2.56759,-4.76947 0.46667,-10.85178 0.02,-16.25 -1.22957,-18.23281 -6.31624,-34.66814 -25.07,-40.08 -8.69086,-2.42545 -17.97788,-1.80679 -27,-1.93 -6.83704,-0.0934 -20.49315,0.90331 -20.49315,0.90331 C 322.08239,486.85211 322.6459,480.28784 320.5,471.96 Z M 80.967009,498.0086 C 78.10885,498.90133 72.208303,496.46332 68.5,496.44 c -12.386736,-1.08941 -24.356972,-1.72244 -35.25,3.96 -9.125528,4.57649 -13.072409,13.09698 -15.54,22.1 -1.211638,4.42832 -2.246965,8.93439 -2.73,13.5 -0.341959,3.23217 -1.450085,6.78892 -0.11,9.75 39.800467,23.89333 144.22194,24.90017 183.29291,16.89 2.87169,-33.25185 3.24941,-57.37642 -1.41291,-84.65 -37.14873,4.50811 -83.38708,3.14414 -111.96,-0.49 -2.902552,6.64778 -2.887167,15.94203 -3.822991,20.5086 z"
       inkscape:label="boots"
       sodipodi:nodetypes="ccccaaccaccccccaccccc" />
    <path
       d="m 150.53553,123.26614 c 32.11689,3.65573 14.28722,57.76933 -14.36803,43.36142 -27.07358,-9.3208 -14.30831,-51.66237 14.36803,-43.36142 z"
       style="fill:url(#radialGradient1967);fill-opacity:1;stroke-width:1.1929"
       id="path883-0"
       inkscape:label="cheek1" />
    <path
       d="m 242.09864,126.30641 c -32.11688,3.65573 -14.28722,57.76933 14.36803,43.36142 27.07358,-9.3208 14.30831,-51.66237 -14.36803,-43.36142 z"
       style="fill:url(#radialGradient1967-0);fill-opacity:1;stroke-width:1.1929"
       id="path883-0-7"
       inkscape:label="cheek2" />
    <path
       id="Path 8"
       class="shp8"
       d="m 221.87205,155.68775 c -2.35323,0.75424 -7.46484,0.20877 -7.39865,3.18571 3.68081,1.08801 7.36047,-0.94539 11.08061,-0.48948 10.92918,-0.7305 22.2366,-2.114 32.8613,1.38911 2.58065,0.87837 5.33715,1.51753 7.71452,2.82082 2.55484,1.25091 7.91241,2.8403 4.94962,6.49386 -2.12518,3.14643 2.5584,6.1831 3.79792,2.28335 0.10053,-1.46742 2.16954,-4.7237 3.0885,-2.82742 -1.21648,1.6141 -3.42932,6.93856 0.34616,6.00281 1.52477,-1.83999 4.47607,-1.87951 4.3922,0.89999 2.11343,0.52425 4.18549,-3.15513 5.82614,-0.2967 2.79405,0.28491 6.94035,-4.30504 3.35975,-6.08548 -2.94909,-1.42231 -4.259,-5.55017 -7.87436,-5.61314 -2.58089,0.18636 -2.76734,-4.54387 -5.61016,-2.11149 -2.98015,2.99127 -6.5141,0.053 -9.4495,-1.33934 -9.74573,-4.57018 -20.7042,-5.21194 -31.30404,-5.16782 -5.27016,-0.0111 -10.54475,0.23805 -15.78001,0.85522 z"
       inkscape:label="wheat" />
  </g>
  <metadata
     id="metadata856">
    <rdf:RDF>
      <cc:Work
         rdf:about="">
        <dc:title>Background</dc:title>
      </cc:Work>
    </rdf:RDF>
  </metadata>
</svg>
