<?xml version="1.0" encoding="UTF-8" standalone="no"?>
<svg
   version="1.2"
   viewBox="0 0 284 480"
   width="284"
   height="480"
   id="svg27"
   sodipodi:docname="shade-e.svg"
   inkscape:version="1.1 (c68e22c387, 2021-05-23)"
   xmlns:inkscape="http://www.inkscape.org/namespaces/inkscape"
   xmlns:sodipodi="http://sodipodi.sourceforge.net/DTD/sodipodi-0.dtd"
   xmlns="http://www.w3.org/2000/svg"
   xmlns:svg="http://www.w3.org/2000/svg"
   xmlns:rdf="http://www.w3.org/1999/02/22-rdf-syntax-ns#"
   xmlns:cc="http://creativecommons.org/ns#"
   xmlns:dc="http://purl.org/dc/elements/1.1/">
  <defs
     id="defs31" />
  <sodipodi:namedview
     id="namedview29"
     pagecolor="#ffffff"
     bordercolor="#666666"
     borderopacity="1.0"
     inkscape:pageshadow="2"
     inkscape:pageopacity="0.0"
     inkscape:pagecheckerboard="0"
     showgrid="false"
     inkscape:zoom="2.4258038"
     inkscape:cx="200.7582"
     inkscape:cy="210.03347"
     inkscape:window-width="1920"
     inkscape:window-height="1047"
     inkscape:window-x="-9"
     inkscape:window-y="-9"
     inkscape:window-maximized="1"
     inkscape:current-layer="g2072" />
  <title
     id="title2">Background</title>
  <style
     id="style4">
		tspan { white-space:pre }
		.shp0 { fill: #000000 } 
		.shp1 { opacity: 0.184;fill: #000000 } 
		.shp2 { fill: #1c1c1c } 
		.shp3 { opacity: 0.584;fill: #000000 } 
		.shp4 { fill: #d78c56 } 
		.shp5 { opacity: 0.992;fill: #79412c } 
		.shp6 { opacity: 0.169;fill: #c88350 } 
		.shp7 { opacity: 0.675;fill: #d08753 } 
		.shp8 { fill: #43010e } 
		.shp9 { opacity: 0.608;fill: #43010e } 
		.shp10 { opacity: 0.267;fill: #42000e } 
	</style>
  <g
     id="Background">
    <g
       id="g2072">
      <path
         id="Path 12"
         class="shp8"
         d="m 51.44,244.52 c -33.699087,43.17418 -32.939195,89.43083 -36.5,139.63 -0.447214,19.09129 -4.648911,38.22393 -1.337031,57.28344 66.401488,37.25071 177.112551,45.63213 234.587031,1.21656 8.52173,-14.89109 1.35894,-34.63177 0.0631,-50.61703 C 246.26074,350.86365 236.52037,301.7922 210.22997,271.4 c -7.86348,-9.28685 -17.19043,-26.74527 -28.79,-11.22 -20.53717,12.96455 -46.03568,14.69747 -69.75,12.09 C 93.803178,267.66359 74.856428,262.21027 61.569531,248.45516 58.882817,246.73284 54.825904,240.89512 51.44,244.52 Z"
         sodipodi:nodetypes="cccccccccc" />
      <path
         id="Path 6"
         class="shp4"
         d="m 31.41,148.75 c -3.687956,19.11119 -7.55537,40.99594 -1.77,59.5 4.178975,14.05947 11.833238,25.15528 21.8,36.27 14.678428,11.57642 29.580171,23.66953 48.06,28.2 24.68744,7.54665 52.00715,5.50504 75.77875,-4.36125 18.47757,-10.48393 38.23009,-23.63868 47.13242,-43.54428 2.86752,-8.26887 18.39824,-24.73751 -0.0919,-18.14699 C 202.25179,207.50835 181.96534,207.4435 162.5,203 143.38672,201.22158 126.16461,193.68142 107.79,188.775 90.60452,182.75485 74.495479,173.6851 58.75,165 49.321466,163.15788 40.546889,144.22907 31.41,148.75 Z"
         sodipodi:nodetypes="ccccccccccc" />
      <path
         id="Path 0"
         class="shp0"
         d="M 127.43491,4.2202959 C 115.06632,5.633619 106.34898,16.609513 96.537411,25.200296 85.200752,37.341545 74.926208,50.210204 55.862411,47.741585 36.384226,49.786126 13.350479,53.869519 2.9549112,72.550296 -1.9452265,90.172754 0.90454084,109.71429 11.678661,124.5653 c 9.750666,15.83355 22.717006,28.97753 39.00625,38.025 19.180208,14.64686 41.420806,25.26879 64.499999,32.1 17.89067,6.29033 36.13114,11.13326 55.17,13.3675 26.38155,1.74116 53.77719,3.85984 79.60062,-2.90781 21.36667,-4.45223 35.0938,-25.16023 31.42938,-46.59969 -2.87478,-18.71679 -10.24779,-25.22407 -16.28292,-37.41251 -4.54582,-9.18065 -17.61124,-14.39732 -14.97711,-26.837019 5.11913,-14.896729 6.34833,-31.710429 -2.14722,-43.470752 C 222.75082,15.908714 170.23644,-0.67051122 127.43491,4.2202959 Z"
         sodipodi:nodetypes="acccccccccacaa" />
      <path
         id="Path 2"
         class="shp2"
         d="M 227.70619,49.409344 C 198.02606,21.882753 167.74881,15.072237 133.11821,13.96242 c 2.08794,41.05255 124.53915,51.627393 94.58798,35.446924 z M 111.87491,30.040296 c -17.649889,13.72797 -27.914649,34.037114 -34.579999,55.01 -20.212969,11.204943 12.530488,-36.066561 -15.8325,-24.79375 -17.681156,1.608565 -38.844993,4.579848 -47.5575,22.54375 -4.8783928,13.663282 5.349668,27.708904 12.57,38.750004 13.597805,18.73671 32.197716,33.79928 51.46,46 12.906809,6.72404 26.430939,13.89401 41.202499,17.22 20.22679,7.67029 42.00569,10.08907 63.2975,12.78 23.41537,2.11536 48.01687,1.72048 70,-7.1 19.94899,-7.01269 19.26084,-30.08956 11.37,-45.94625 -6.28239,-9.32103 -16.77114,-48.609471 -27.09,-20.95375 -1.78932,8.98706 -20.24119,30.02647 -16.865,8.63875 9.75295,-13.39261 18.66133,-28.33999 20.585,-45.176254 9.07516,-14.207217 -2.97373,-27.222486 -17.89516,-19.52875 -16.19758,-0.984565 -32.18668,-1.029865 -48.25359,-6.7075 -17.10669,-5.117049 -31.20135,-15.859414 -46.00125,-25.44625 -4.32038,-3.606922 -10.73958,-11.612296 -16.41,-5.29 z"
         sodipodi:nodetypes="cccccccccccccccccccc" />
    </g>
  </g>
  <metadata
     id="metadata848">
    <rdf:RDF>
      <cc:Work
         rdf:about="">
        <dc:title>Background</dc:title>
      </cc:Work>
    </rdf:RDF>
  </metadata>
  <metadata
     id="metadata915">
    <rdf:RDF>
      <cc:Work
         rdf:about="">
        <dc:title>Background</dc:title>
      </cc:Work>
    </rdf:RDF>
  </metadata>
  <metadata
     id="metadata2422">
    <rdf:RDF>
      <cc:Work
         rdf:about="">
        <dc:title>Background</dc:title>
      </cc:Work>
    </rdf:RDF>
  </metadata>
</svg>
