<?xml version="1.0" encoding="UTF-8" standalone="no"?>
<!-- Created with Inkscape (http://www.inkscape.org/) -->

<svg
   version="1.1"
   id="svg2"
   width="324.601"
   height="294.9"
   viewBox="0 0 324.601 294.9"
   sodipodi:docname="pumpkin.svg"
   inkscape:version="1.1 (c68e22c387, 2021-05-23)"
   xmlns:inkscape="http://www.inkscape.org/namespaces/inkscape"
   xmlns:sodipodi="http://sodipodi.sourceforge.net/DTD/sodipodi-0.dtd"
   xmlns:xlink="http://www.w3.org/1999/xlink"
   xmlns="http://www.w3.org/2000/svg"
   xmlns:svg="http://www.w3.org/2000/svg">
  <defs
     id="defs6">
    <inkscape:path-effect
       effect="bspline"
       id="path-effect121149"
       is_visible="true"
       lpeversion="1"
       weight="33.3333"
       steps="2"
       helper_size="0"
       apply_no_weight="true"
       apply_with_weight="true"
       only_selected="false" />
    <inkscape:path-effect
       effect="bspline"
       id="path-effect116276"
       is_visible="true"
       lpeversion="1"
       weight="33.3333"
       steps="2"
       helper_size="0"
       apply_no_weight="true"
       apply_with_weight="true"
       only_selected="false" />
    <inkscape:path-effect
       effect="bspline"
       id="path-effect109100"
       is_visible="true"
       lpeversion="1"
       weight="33.3333"
       steps="2"
       helper_size="0"
       apply_no_weight="true"
       apply_with_weight="true"
       only_selected="false" />
    <inkscape:path-effect
       effect="bspline"
       id="path-effect106019"
       is_visible="true"
       lpeversion="1"
       weight="33.3333"
       steps="2"
       helper_size="0"
       apply_no_weight="true"
       apply_with_weight="true"
       only_selected="false" />
    <inkscape:path-effect
       effect="bspline"
       id="path-effect102353"
       is_visible="true"
       lpeversion="1"
       weight="33.3333"
       steps="2"
       helper_size="0"
       apply_no_weight="true"
       apply_with_weight="true"
       only_selected="false" />
    <inkscape:path-effect
       effect="bspline"
       id="path-effect98024"
       is_visible="true"
       lpeversion="1"
       weight="33.3333"
       steps="2"
       helper_size="0"
       apply_no_weight="true"
       apply_with_weight="true"
       only_selected="false" />
    <inkscape:path-effect
       effect="bspline"
       id="path-effect94202"
       is_visible="true"
       lpeversion="1"
       weight="33.3333"
       steps="2"
       helper_size="0"
       apply_no_weight="true"
       apply_with_weight="true"
       only_selected="false" />
    <linearGradient
       inkscape:collect="always"
       id="linearGradient83477">
      <stop
         style="stop-color:#976a26;stop-opacity:1"
         offset="0"
         id="stop83473" />
      <stop
         style="stop-color:#936621;stop-opacity:1"
         offset="0.647364"
         id="stop83835" />
      <stop
         style="stop-color:#8f621d;stop-opacity:1"
         offset="1"
         id="stop83475" />
    </linearGradient>
    <inkscape:path-effect
       effect="bspline"
       id="path-effect83441"
       is_visible="true"
       lpeversion="1"
       weight="33.3333"
       steps="2"
       helper_size="0"
       apply_no_weight="true"
       apply_with_weight="true"
       only_selected="false" />
    <inkscape:path-effect
       effect="bspline"
       id="path-effect75769"
       is_visible="true"
       lpeversion="1"
       weight="33.3333"
       steps="2"
       helper_size="0"
       apply_no_weight="true"
       apply_with_weight="true"
       only_selected="false" />
    <linearGradient
       inkscape:collect="always"
       xlink:href="#linearGradient83477"
       id="linearGradient83479"
       x1="166.356"
       y1="56.3347"
       x2="190.783"
       y2="66.3306"
       gradientUnits="userSpaceOnUse" />
    <clipPath
       clipPathUnits="userSpaceOnUse"
       id="clipPath121151">
      <path
         style="fill:none;stroke:#efac0c;stroke-width:3;stroke-linecap:butt;stroke-linejoin:miter;stroke-miterlimit:4;stroke-dasharray:none;stroke-opacity:1"
         d="m 157.03,78.5153 c 2.746,2.2471 5.992,5.8673 11.546,7.1149 5.555,1.2476 13.419,0.1242 23.779,-0.4999 10.361,-0.624 23.218,-0.7489 37.136,1.4357 13.918,2.1846 28.897,6.6783 41.941,12.1083 13.044,5.4297 24.154,11.7967 33.079,19.5987 8.925,7.801 15.665,17.038 21.22,26.961 5.554,9.924 9.923,20.534 12.045,35.763 2.121,15.229 1.997,35.075 -2.248,50.241 -4.244,15.166 -12.607,25.651 -23.966,36.136 -11.359,10.485 -25.714,20.971 -40.63,28.71 -14.916,7.739 -30.394,12.732 -41.004,14.854 -10.61,2.122 -16.352,1.373 -21.033,0.811 -4.681,-0.561 -8.301,-0.936 -14.855,-0.187 -6.553,0.749 -16.039,2.621 -25.838,3.495 -9.799,0.874 -19.909,0.749 -31.518,-0.811 -11.609,-1.56 -24.715,-4.556 -39.0075,-11.359 -14.2927,-6.802 -29.7708,-17.412 -42.1912,-30.082 -12.4204,-12.67 -21.7821,-27.399 -25.652,-43.439 -3.8699,-16.04 -2.2472,-33.39 0.4365,-49.243 2.6837,-15.853 6.4285,-30.208 14.0427,-45 7.6143,-14.792 19.0983,-30.021 30.8322,-40.5062 11.7338,-10.4854 23.7168,-16.2273 33.2043,-19.4102 9.487,-3.183 16.477,-3.8071 22.968,-3.4949 6.49,0.3122 12.482,1.5606 16.601,2.6217 4.119,1.0611 6.366,1.9349 9.112,4.1819 z"
         id="path121153"
         inkscape:path-effect="#path-effect121149"
         inkscape:original-d="m 156.53,77.1416 c 3.246,3.6209 6.492,7.2408 9.736,10.8597 7.865,-1.1224 15.729,-2.2458 23.592,-3.3702 12.858,-0.1239 25.715,-0.2487 38.571,-0.3745 14.98,4.4948 29.959,8.9884 44.937,13.481 11.11,6.3674 22.22,12.7334 33.328,19.0984 6.742,9.238 13.482,18.475 20.222,27.711 4.369,10.611 8.738,21.221 13.106,31.83 -0.124,19.849 -0.249,39.695 -0.374,59.541 -8.363,10.487 -16.726,20.972 -25.09,31.456 -14.354,10.487 -28.709,20.972 -43.065,31.456 -15.477,4.994 -30.955,9.987 -46.434,14.979 -5.741,-0.748 -11.483,-1.497 -17.226,-2.247 -3.619,-0.373 -7.239,-0.748 -10.86,-1.123 -9.486,1.873 -18.972,3.745 -28.46,5.617 -10.11,-0.124 -20.22,-0.249 -30.332,-0.375 -13.106,-2.995 -26.212,-5.99 -39.3199,-8.987 -15.4776,-10.609 -30.9555,-21.219 -46.4348,-31.83 -9.361,-14.729 -18.7227,-29.458 -28.0855,-44.188 1.6237,-17.35 3.2464,-34.7 4.8681,-52.052 3.7459,-14.354 7.4905,-28.709 11.2343,-43.065 11.4851,-15.227 22.9687,-30.456 34.4515,-45.6853 11.9844,-5.7411 23.9674,-11.4829 35.9493,-17.2258 6.992,-0.6231 13.982,-1.2472 20.971,-1.8724 5.992,1.2493 11.984,2.4975 17.974,3.7448 2.248,0.8748 4.495,1.7485 6.741,2.6213 z" />
    </clipPath>
  </defs>
  <sodipodi:namedview
     id="namedview4"
     pagecolor="#ffffff"
     bordercolor="#666666"
     borderopacity="1.0"
     inkscape:pageshadow="2"
     inkscape:pageopacity="0.0"
     inkscape:pagecheckerboard="0"
     showgrid="false"
     inkscape:zoom="0.543483"
     inkscape:cx="74.5194"
     inkscape:cy="215.278"
     inkscape:window-width="1920"
     inkscape:window-height="1047"
     inkscape:window-x="-9"
     inkscape:window-y="-9"
     inkscape:window-maximized="1"
     inkscape:current-layer="g8"
     fit-margin-top="5"
     lock-margins="true"
     fit-margin-left="5"
     fit-margin-right="5"
     fit-margin-bottom="5" />
  <g
     inkscape:groupmode="layer"
     inkscape:label="Image"
     id="g8"
     transform="translate(-21.031,-27.1981)">
    <g
       id="g121143"
       clip-path="url(#clipPath121151)">
      <path
         style="fill:#f79401;fill-opacity:1;stroke:none;stroke-width:1px;stroke-linecap:butt;stroke-linejoin:miter;stroke-opacity:1"
         d="m 184.867,325.731 c -6.866,-8.301 -17.601,-22.281 -26.901,-40.755 -9.3,-18.475 -17.163,-41.442 -20.16,-71.4 -2.996,-29.959 -1.123,-66.906 4.931,-92.121 6.054,-25.2154 16.289,-38.6965 25.215,-37.8218 8.925,0.8747 16.539,16.1029 27.524,41.2558 10.985,25.152 25.339,60.227 29.957,92.994 4.618,32.766 -0.499,63.223 -6.741,83.07 -6.241,19.846 -13.605,29.083 -18.785,32.391 -5.18,3.309 -8.175,0.688 -15.04,-7.613 z"
         id="path106017"
         inkscape:path-effect="#path-effect106019"
         inkscape:original-d="M 188.735,331.409 C 178.001,317.43 167.266,303.45 156.53,289.468 c -7.863,-22.967 -15.727,-45.934 -23.592,-68.903 1.874,-36.948 3.746,-73.895 5.617,-110.844 10.237,-13.4805 20.473,-26.9613 30.707,-40.4434 7.616,15.2299 15.23,30.4582 22.843,45.6854 14.356,35.078 28.711,70.153 43.064,105.228 -5.116,30.458 -10.234,60.915 -15.353,91.371 -7.364,9.238 -14.728,18.475 -22.094,27.711 -2.995,-2.62 -5.99,-5.241 -8.987,-7.864 z" />
      <path
         style="fill:#e89820;fill-opacity:1;stroke:none;stroke-width:1px;stroke-linecap:butt;stroke-linejoin:miter;stroke-opacity:1"
         d="m 193.646,319.635 c 5.242,-7.739 19.264,-21.574 29.895,-32.174 10.63,-10.6 17.87,-17.965 23.487,-32.319 5.617,-14.355 9.611,-35.699 6.553,-57.419 -3.058,-21.72 -13.168,-43.813 -26.587,-60.54 -13.418,-16.726 -30.145,-28.086 -41.905,-37.1936 -11.761,-9.108 -18.556,-15.965 -14.5,-20.2721 4.057,-4.3072 18.966,-6.0628 41.399,-5.0681 22.434,0.9947 52.391,4.7394 78.105,22.1533 25.714,17.4135 47.184,48.4945 53.237,79.2635 6.054,30.77 -3.308,61.227 -20.409,85.13 -17.101,23.904 -41.941,41.254 -64.471,51.739 -22.531,10.486 -42.752,14.105 -54.631,15.094 -11.879,0.989 -15.415,-0.654 -10.173,-8.394 z"
         id="path109098"
         inkscape:path-effect="#path-effect109100"
         inkscape:original-d="m 184.867,325.731 c 14.022,-13.834 28.044,-27.669 42.064,-41.505 7.241,-7.364 14.481,-14.729 21.72,-22.094 3.995,-21.345 7.989,-42.689 11.983,-64.035 -10.11,-22.094 -20.221,-44.187 -30.333,-66.282 -16.725,-11.359 -33.452,-22.717 -50.179,-34.0774 -6.794,-6.8564 -13.589,-13.7135 -20.386,-20.5718 14.91,-1.7546 29.819,-3.5102 44.727,-5.2668 29.959,3.7458 59.916,7.4904 89.873,11.2342 21.472,31.0828 42.941,62.1638 64.41,93.2438 -9.361,30.459 -18.723,60.916 -28.086,91.372 -24.839,17.352 -49.679,34.702 -74.52,52.052 -20.221,3.621 -40.442,7.24 -60.665,10.859 -3.535,-1.642 -7.071,-3.285 -10.608,-4.929 z" />
      <path
         style="fill:#ff9900;fill-opacity:1;stroke:none;stroke-width:1px;stroke-linecap:butt;stroke-linejoin:miter;stroke-opacity:1"
         d="m 200.656,316.494 c -7.052,-5.056 -20.908,-12.67 -32.119,-24.097 -11.212,-11.427 -19.78,-26.667 -24.523,-45.64 -4.744,-18.974 -5.663,-41.681 -4.687,-63.208 0.976,-21.526 3.847,-41.872 10.65,-61.72 6.803,-19.848 17.537,-39.1951 20.034,-53.4247 C 172.508,54.1748 166.766,45.063 152.287,37.885 137.807,30.707 114.59,25.4645 84.6312,51.6782 54.6722,77.8919 17.9746,135.559 8.8007,179.748 c -9.173953,44.189 9.1747,74.895 36.6992,96.427 27.5244,21.532 64.2221,33.89 88.4591,40.391 24.237,6.501 36.012,7.145 46.31,7.832 10.298,0.686 19.119,1.415 23.404,0.531 4.284,-0.883 4.035,-3.38 -3.017,-8.435 z"
         id="path102351"
         inkscape:path-effect="#path-effect102353"
         inkscape:original-d="m 207.458,319.052 c -13.854,-7.614 -27.71,-15.228 -41.566,-22.843 -8.567,-15.239 -17.134,-30.479 -25.703,-45.72 -0.918,-22.706 -1.837,-45.413 -2.757,-68.12 2.872,-20.346 5.743,-40.692 8.613,-61.04 10.736,-19.347 21.471,-38.6941 32.204,-58.0429 C 172.508,54.1747 166.767,45.0627 161.024,35.9495 137.807,30.7077 114.59,25.4652 91.3716,20.2216 54.6734,77.8927 17.9757,135.56 -18.7237,193.228 c 18.350593,30.709 36.6994,61.415 55.0476,92.121 36.7002,12.359 73.3981,24.716 110.0951,37.073 11.777,0.646 23.552,1.291 35.326,1.934 8.822,0.73 17.643,1.458 26.462,2.185 -0.248,-2.495 -0.498,-4.992 -0.749,-7.489 z"
         sodipodi:nodetypes="cccccccccccccc" />
      <path
         style="fill:#ff9e0e;fill-opacity:1;stroke:none;stroke-width:1px;stroke-linecap:butt;stroke-linejoin:miter;stroke-opacity:1"
         d="m 181.745,324.356 c 7.739,-2.309 7.739,-2.309 -9.487,-11.983 -17.226,-9.674 -51.676,-29.02 -71.898,-48.618 C 80.1375,244.157 74.1462,224.311 75.2071,199.283 76.268,174.255 84.3811,144.049 97.7379,123.764 111.095,103.479 129.693,93.1189 148.168,85.8167 166.642,78.5145 184.991,74.2705 187.175,69.3403 189.36,64.4101 175.38,58.7931 153.161,54.1743 130.941,49.5554 100.485,45.9356 69.4652,73.772 38.4453,101.608 6.86521,160.899 6.17929,209.706 5.49337,258.513 35.7007,296.834 63.6617,316.119 c 27.961,19.285 53.6743,19.534 74.2703,17.35 20.597,-2.185 36.074,-6.803 43.813,-9.113 z"
         id="path94200"
         inkscape:path-effect="#path-effect94202"
         inkscape:original-d="m 189.484,322.047 c 0,10e-4 0,10e-4 0,0 C 155.032,302.7 120.582,283.353 86.129,264.004 80.1383,244.157 74.1468,224.311 68.1542,204.463 76.269,174.255 84.3824,144.049 92.495,113.84 c 18.6,-10.36 37.199,-20.7199 55.797,-31.0813 18.35,-4.2431 36.699,-8.4871 55.047,-12.7321 C 189.36,64.4104 175.38,58.7934 161.398,53.1753 130.941,49.5563 100.485,45.9364 70.0266,42.3155 38.4463,101.609 6.86635,160.9 -24.7153,220.191 c 30.20919,38.322 60.4161,76.643 90.6227,114.963 25.7153,0.251 51.4286,0.5 77.1416,0.749 15.48,-4.618 30.957,-9.236 46.435,-13.856 z" />
      <path
         style="fill:#e7971f;fill-opacity:1;stroke:none;stroke-width:1px;stroke-linecap:butt;stroke-linejoin:miter;stroke-opacity:1"
         d="m 196.973,315.37 c 1.124,-1.561 1.124,-1.561 8.738,-4.619 7.615,-3.059 22.844,-9.175 37.51,-17.102 14.667,-7.926 28.772,-17.662 37.822,-31.143 9.049,-13.48 13.044,-30.706 13.481,-49.243 0.437,-18.536 -2.684,-38.383 -9.549,-55.297 C 278.11,141.052 267.5,127.072 255.142,116.899 242.785,106.726 228.68,100.36 214.824,95.3665 c -13.856,-4.9933 -27.461,-8.613 -38.695,-12.857 -11.235,-4.244 -20.097,-9.1119 -20.597,-16.2272 -0.5,-7.1154 7.364,-16.4772 27.274,-20.9085 19.911,-4.4313 51.865,-3.932 75.957,-0.5614 24.091,3.3706 40.318,9.6117 58.792,28.7104 18.474,19.0988 39.194,51.0532 42.439,86.6912 3.244,35.637 -10.985,74.956 -33.828,105.475 -22.843,30.52 -54.298,52.239 -82.133,63.785 -27.836,11.547 -52.052,12.92 -60.228,10.174 -8.177,-2.747 -0.313,-9.612 4.743,-14.605 5.055,-4.993 7.302,-8.113 8.425,-9.673 z"
         id="path98022"
         inkscape:path-effect="#path-effect98024"
         inkscape:original-d="m 198.097,313.809 c 0,10e-4 0,10e-4 0,0 15.229,-6.116 30.458,-12.232 45.685,-18.349 14.107,-9.736 28.212,-19.472 42.316,-29.209 3.995,-17.225 7.99,-34.451 11.983,-51.678 -3.12,-19.846 -6.24,-39.693 -9.362,-59.541 -10.609,-13.98 -21.219,-27.96 -31.83,-41.941 -14.104,-6.365 -28.209,-12.731 -42.316,-19.0981 -13.605,-3.619 -27.21,-7.2388 -40.817,-10.8597 -8.862,-4.8673 -17.724,-9.7354 -26.588,-14.6045 7.865,-9.361 15.729,-18.7227 23.592,-28.0855 31.957,0.5003 63.911,0.9996 95.865,1.4979 16.229,6.2423 32.456,12.4834 48.682,18.7236 20.722,31.9568 41.443,63.9113 62.162,95.8653 -14.229,39.322 -28.459,78.64 -42.69,117.959 -31.455,21.721 -62.91,43.44 -94.367,65.159 -24.215,1.374 -48.431,2.747 -72.648,4.119 7.865,-6.865 15.729,-13.73 23.592,-20.596 2.248,-3.12 4.495,-6.24 6.741,-9.362 z" />
      <path
         style="fill:#ef940c;fill-opacity:1;stroke:none;stroke-width:1px;stroke-linecap:butt;stroke-linejoin:miter;stroke-opacity:1"
         d="m 159.589,327.976 c 8.676,-8.55 12.171,-9.299 18.973,-12.357 6.803,-3.059 16.914,-8.426 23.654,-25.776 6.74,-17.351 10.111,-46.684 9.299,-73.709 -0.811,-27.024 -5.804,-51.739 -15.13,-74.515 -9.327,-22.777 -22.987,-43.6142 -32.973,-57.7819 -9.986,-14.1677 -16.297,-21.665 -17.207,-26.538 -0.909,-4.8731 3.584,-7.1197 16.317,-4.1236 12.733,2.9961 33.703,11.2343 52.864,29.085 19.161,17.8505 36.511,45.3115 48.931,81.8855 12.42,36.574 19.909,82.259 11.046,115.337 -8.863,33.078 -34.077,53.549 -62.163,66.406 -28.085,12.857 -59.041,18.099 -67.592,12.545 -8.55,-5.555 5.305,-21.907 13.981,-30.458 z"
         id="path116274"
         inkscape:path-effect="#path-effect116276"
         inkscape:original-d="m 164.768,320.175 c 3.497,-0.748 6.992,-1.497 10.486,-2.247 10.112,-5.366 20.222,-10.734 30.332,-16.102 3.371,-29.334 6.742,-58.667 10.111,-88.002 -4.992,-24.714 -9.985,-49.429 -14.979,-74.145 -13.66,-20.837 -27.32,-41.6745 -40.982,-62.5132 -6.31,-7.4967 -12.621,-14.9941 -18.934,-22.4926 4.495,-2.2459 8.988,-4.4927 13.481,-6.7406 20.972,8.2396 41.942,16.4779 62.912,24.7153 17.352,27.4631 34.702,54.9241 52.052,82.3841 7.49,45.688 14.98,91.373 22.468,137.057 -25.214,20.473 -50.428,40.944 -75.644,61.414 -30.956,5.244 -61.912,10.486 -92.869,15.728 13.857,-16.351 27.712,-32.703 41.566,-49.056 z" />
    </g>
    <path
       style="fill:none;stroke:#efac0c;stroke-width:3;stroke-linecap:butt;stroke-linejoin:miter;stroke-miterlimit:4;stroke-dasharray:none;stroke-opacity:1"
       d="m 157.03,78.5153 c 2.746,2.2471 5.992,5.8673 11.546,7.1149 5.555,1.2476 13.419,0.1242 23.779,-0.4999 10.361,-0.624 23.218,-0.7489 37.136,1.4357 13.918,2.1846 28.897,6.6783 41.941,12.1083 13.044,5.4297 24.154,11.7967 33.079,19.5987 8.925,7.801 15.665,17.038 21.22,26.961 5.554,9.924 9.923,20.534 12.045,35.763 2.121,15.229 1.997,35.075 -2.248,50.241 -4.244,15.166 -12.607,25.651 -23.966,36.136 -11.359,10.485 -25.714,20.971 -40.63,28.71 -14.916,7.739 -30.394,12.732 -41.004,14.854 -10.61,2.122 -16.352,1.373 -21.033,0.811 -4.681,-0.561 -8.301,-0.936 -14.855,-0.187 -6.553,0.749 -16.039,2.621 -25.838,3.495 -9.799,0.874 -19.909,0.749 -31.518,-0.811 -11.609,-1.56 -24.715,-4.556 -39.0075,-11.359 -14.2927,-6.802 -29.7708,-17.412 -42.1912,-30.082 -12.4204,-12.67 -21.7821,-27.399 -25.652,-43.439 -3.8699,-16.04 -2.2472,-33.39 0.4365,-49.243 2.6837,-15.853 6.4285,-30.208 14.0427,-45 7.6143,-14.792 19.0983,-30.021 30.8322,-40.5062 11.7338,-10.4854 23.7168,-16.2273 33.2043,-19.4102 9.487,-3.183 16.477,-3.8071 22.968,-3.4949 6.49,0.3122 12.482,1.5606 16.601,2.6217 4.119,1.0611 6.366,1.9349 9.112,4.1819 z"
       id="path75767"
       inkscape:path-effect="#path-effect75769"
       inkscape:original-d="m 156.53,77.1416 c 3.246,3.6209 6.492,7.2408 9.736,10.8597 7.865,-1.1224 15.729,-2.2458 23.592,-3.3702 12.858,-0.1239 25.715,-0.2487 38.571,-0.3745 14.98,4.4948 29.959,8.9884 44.937,13.481 11.11,6.3674 22.22,12.7334 33.328,19.0984 6.742,9.238 13.482,18.475 20.222,27.711 4.369,10.611 8.738,21.221 13.106,31.83 -0.124,19.849 -0.249,39.695 -0.374,59.541 -8.363,10.487 -16.726,20.972 -25.09,31.456 -14.354,10.487 -28.709,20.972 -43.065,31.456 -15.477,4.994 -30.955,9.987 -46.434,14.979 -5.741,-0.748 -11.483,-1.497 -17.226,-2.247 -3.619,-0.373 -7.239,-0.748 -10.86,-1.123 -9.486,1.873 -18.972,3.745 -28.46,5.617 -10.11,-0.124 -20.22,-0.249 -30.332,-0.375 -13.106,-2.995 -26.212,-5.99 -39.3199,-8.987 -15.4776,-10.609 -30.9555,-21.219 -46.4348,-31.83 -9.361,-14.729 -18.7227,-29.458 -28.0855,-44.188 1.6237,-17.35 3.2464,-34.7 4.8681,-52.052 3.7459,-14.354 7.4905,-28.709 11.2343,-43.065 11.4851,-15.227 22.9687,-30.456 34.4515,-45.6853 11.9844,-5.7411 23.9674,-11.4829 35.9493,-17.2258 6.992,-0.6231 13.982,-1.2472 20.971,-1.8724 5.992,1.2493 11.984,2.4975 17.974,3.7448 2.248,0.8748 4.495,1.7485 6.741,2.6213 z" />
    <path
       style="opacity:1;fill:url(#linearGradient83479);fill-opacity:1;stroke:none;stroke-width:1px;stroke-linecap:butt;stroke-linejoin:miter;stroke-opacity:1"
       d="m 159.736,77.1658 c 0.861,-2.626 2.582,-7.5247 4.27,-13.1074 1.688,-5.5827 3.343,-11.8494 5.274,-16.969 1.931,-5.1196 4.137,-9.0911 5.77,-11.4966 1.633,-2.4055 2.692,-3.244 4.249,-3.3761 1.556,-0.1321 3.608,0.4415 6.51,1.6552 2.901,1.2136 6.652,3.0671 9.488,4.5897 2.835,1.5226 4.755,2.7143 5.991,3.895 1.235,1.1807 1.787,2.3504 1.488,3.6077 -0.298,1.2574 -1.445,2.603 -3.233,5.2512 -1.787,2.6482 -4.214,6.5979 -6.134,10.4818 -1.92,3.884 -3.332,7.7012 -4.579,11.1765 -1.247,3.4754 -2.328,6.6089 -2.913,8.5289 -0.584,1.92 -0.673,2.6257 -1.511,3.2319 -0.837,0.6062 -2.426,1.1139 -4.732,1.445 -2.306,0.3311 -5.329,0.4856 -7.833,0.3644 -2.505,-0.1213 -4.491,-0.5185 -6.135,-1.1912 -1.644,-0.6727 -2.946,-1.6216 -4.027,-2.4599 -1.081,-0.8384 -1.942,-1.567 -2.372,-2.1074 -0.431,-0.5405 -0.431,-0.8936 0.429,-3.5197 z"
       id="path83439"
       inkscape:path-effect="#path-effect83441"
       inkscape:original-d="m 158.876,79.4379 c 1.722,-4.8977 3.443,-9.7964 5.163,-14.696 1.656,-6.2659 3.311,-12.5326 4.965,-18.8003 2.208,-3.971 4.414,-7.9428 6.62,-11.9157 1.06,-0.8375 2.119,-1.676 3.177,-2.5155 2.054,0.5747 4.106,1.1484 6.157,1.7211 3.752,1.8546 7.503,3.7081 11.254,5.5607 1.92,1.1926 3.84,2.3841 5.759,3.5747 0.552,1.1705 1.104,2.34 1.655,3.5085 -1.147,1.347 -2.294,2.693 -3.443,4.0381 -2.426,3.9509 -4.853,7.9006 -7.281,11.8494 -1.412,3.8186 -2.824,7.6359 -4.237,11.4523 -1.08,3.1345 -2.162,6.2678 -3.244,9.4002 -0.09,0.7071 -0.175,1.4132 -0.265,2.1183 -1.587,0.5086 -3.176,1.0161 -4.766,1.5226 -3.022,0.1555 -6.045,0.3099 -9.069,0.4634 -1.985,-0.3962 -3.971,-0.7934 -5.958,-1.1916 -1.301,-0.9479 -2.603,-1.8967 -3.906,-2.8465 -0.859,-0.7272 -1.72,-1.4554 -2.581,-2.1846 0,-0.352 0,-0.7051 0,-1.0591 z" />
  </g>
</svg>
