<?xml version="1.0" encoding="UTF-8" standalone="no"?>
<!-- Created with Inkscape (http://www.inkscape.org/) -->

<svg
   width="149.534mm"
   height="165.285mm"
   viewBox="0 0 149.534 165.285"
   version="1.1"
   id="svg5"
   inkscape:version="1.1 (c68e22c387, 2021-05-23)"
   sodipodi:docname="barrel.svg"
   xmlns:inkscape="http://www.inkscape.org/namespaces/inkscape"
   xmlns:sodipodi="http://sodipodi.sourceforge.net/DTD/sodipodi-0.dtd"
   xmlns:xlink="http://www.w3.org/1999/xlink"
   xmlns="http://www.w3.org/2000/svg"
   xmlns:svg="http://www.w3.org/2000/svg">
  <sodipodi:namedview
     id="namedview7"
     pagecolor="#ffffff"
     bordercolor="#666666"
     borderopacity="1.0"
     inkscape:pageshadow="2"
     inkscape:pageopacity="0.0"
     inkscape:pagecheckerboard="0"
     inkscape:document-units="mm"
     showgrid="false"
     inkscape:zoom="1.09403"
     inkscape:cx="364.25"
     inkscape:cy="188.295"
     inkscape:window-width="1920"
     inkscape:window-height="1047"
     inkscape:window-x="-9"
     inkscape:window-y="-9"
     inkscape:window-maximized="1"
     inkscape:current-layer="layer1"
     fit-margin-top="5"
     lock-margins="true"
     fit-margin-left="5"
     fit-margin-right="5"
     fit-margin-bottom="5" />
  <defs
     id="defs2">
    <linearGradient
       inkscape:collect="always"
       id="linearGradient5261">
      <stop
         style="stop-color:#979797;stop-opacity:1"
         offset="0"
         id="stop5257" />
      <stop
         style="stop-color:#919191;stop-opacity:1"
         offset="1"
         id="stop5259" />
    </linearGradient>
    <linearGradient
       inkscape:collect="always"
       id="linearGradient4166">
      <stop
         style="stop-color:#a6a6a6;stop-opacity:1;"
         offset="0"
         id="stop4162" />
      <stop
         style="stop-color:#a0a0a0;stop-opacity:1"
         offset="1"
         id="stop4164" />
    </linearGradient>
    <inkscape:path-effect
       effect="bspline"
       id="path-effect2057"
       is_visible="true"
       lpeversion="1"
       weight="33.3333"
       steps="2"
       helper_size="0"
       apply_no_weight="true"
       apply_with_weight="true"
       only_selected="false" />
    <inkscape:path-effect
       effect="bspline"
       id="path-effect1642"
       is_visible="true"
       lpeversion="1"
       weight="33.3333"
       steps="2"
       helper_size="0"
       apply_no_weight="true"
       apply_with_weight="true"
       only_selected="false" />
    <linearGradient
       inkscape:collect="always"
       id="linearGradient1408">
      <stop
         style="stop-color:#ba8125;stop-opacity:1;"
         offset="0"
         id="stop1404" />
      <stop
         style="stop-color:#bb832a;stop-opacity:1"
         offset="1"
         id="stop1406" />
    </linearGradient>
    <linearGradient
       inkscape:collect="always"
       id="linearGradient909">
      <stop
         style="stop-color:#b67b20;stop-opacity:1;"
         offset="0"
         id="stop905" />
      <stop
         style="stop-color:#b27921;stop-opacity:1"
         offset="1"
         id="stop907" />
    </linearGradient>
    <inkscape:path-effect
       effect="bspline"
       id="path-effect1267"
       is_visible="true"
       lpeversion="1"
       weight="33.3333"
       steps="2"
       helper_size="0"
       apply_no_weight="true"
       apply_with_weight="true"
       only_selected="false" />
    <inkscape:path-effect
       effect="bspline"
       id="path-effect954"
       is_visible="true"
       lpeversion="1"
       weight="33.3333"
       steps="2"
       helper_size="0"
       apply_no_weight="true"
       apply_with_weight="true"
       only_selected="false" />
    <inkscape:path-effect
       effect="bspline"
       id="path-effect19862"
       is_visible="true"
       lpeversion="1"
       weight="33.3333"
       steps="2"
       helper_size="0"
       apply_no_weight="true"
       apply_with_weight="true"
       only_selected="false" />
    <inkscape:path-effect
       effect="bspline"
       id="path-effect19852"
       is_visible="true"
       lpeversion="1"
       weight="33.3333"
       steps="2"
       helper_size="0"
       apply_no_weight="true"
       apply_with_weight="true"
       only_selected="false" />
    <inkscape:path-effect
       effect="bspline"
       id="path-effect19842"
       is_visible="true"
       lpeversion="1"
       weight="33.3333"
       steps="2"
       helper_size="0"
       apply_no_weight="true"
       apply_with_weight="true"
       only_selected="false" />
    <inkscape:path-effect
       effect="bspline"
       id="path-effect18263"
       is_visible="true"
       lpeversion="1"
       weight="33.3333"
       steps="2"
       helper_size="0"
       apply_no_weight="true"
       apply_with_weight="true"
       only_selected="false" />
    <inkscape:path-effect
       effect="bspline"
       id="path-effect18138"
       is_visible="true"
       lpeversion="1"
       weight="33.3333"
       steps="2"
       helper_size="0"
       apply_no_weight="true"
       apply_with_weight="true"
       only_selected="false" />
    <inkscape:path-effect
       effect="bspline"
       id="path-effect12570"
       is_visible="true"
       lpeversion="1"
       weight="33.3333"
       steps="2"
       helper_size="0"
       apply_no_weight="true"
       apply_with_weight="true"
       only_selected="false" />
    <inkscape:path-effect
       effect="bspline"
       id="path-effect12566"
       is_visible="true"
       lpeversion="1"
       weight="33.3333"
       steps="2"
       helper_size="0"
       apply_no_weight="true"
       apply_with_weight="true"
       only_selected="false" />
    <inkscape:path-effect
       effect="bspline"
       id="path-effect12562"
       is_visible="true"
       lpeversion="1"
       weight="33.3333"
       steps="2"
       helper_size="0"
       apply_no_weight="true"
       apply_with_weight="true"
       only_selected="false" />
    <inkscape:path-effect
       effect="bspline"
       id="path-effect12558"
       is_visible="true"
       lpeversion="1"
       weight="33.3333"
       steps="2"
       helper_size="0"
       apply_no_weight="true"
       apply_with_weight="true"
       only_selected="false" />
    <inkscape:path-effect
       effect="bspline"
       id="path-effect12554"
       is_visible="true"
       lpeversion="1"
       weight="33.3333"
       steps="2"
       helper_size="0"
       apply_no_weight="true"
       apply_with_weight="true"
       only_selected="false" />
    <inkscape:path-effect
       effect="bspline"
       id="path-effect12550"
       is_visible="true"
       lpeversion="1"
       weight="33.3333"
       steps="2"
       helper_size="0"
       apply_no_weight="true"
       apply_with_weight="true"
       only_selected="false" />
    <inkscape:path-effect
       effect="bspline"
       id="path-effect5887"
       is_visible="true"
       lpeversion="1"
       weight="33.3333"
       steps="2"
       helper_size="0"
       apply_no_weight="true"
       apply_with_weight="true"
       only_selected="false" />
    <inkscape:path-effect
       effect="bspline"
       id="path-effect871"
       is_visible="true"
       lpeversion="1"
       weight="33.3333"
       steps="2"
       helper_size="0"
       apply_no_weight="true"
       apply_with_weight="true"
       only_selected="false" />
    <clipPath
       clipPathUnits="userSpaceOnUse"
       id="clipPath18220">
      <path
         style="opacity:1;fill:#b67b20;fill-opacity:1;stroke:none;stroke-width:0.264583px;stroke-linecap:butt;stroke-linejoin:miter;stroke-opacity:1"
         d="m 51.4154,86.9349 c -1.8122,6.7829 -5.333,18.7951 -7.4042,30.7561 -2.0712,11.961 -2.6925,23.87 -1.6569,36.918 1.0357,13.048 3.7281,27.235 5.7474,36.141 2.0192,8.905 3.3656,12.53 4.7637,14.86 1.3982,2.33 2.8477,3.365 9.372,5.384 6.5242,2.02 18.1221,5.023 30.0309,6.473 11.9087,1.449 24.1287,1.346 34.4317,0.517 10.304,-0.828 18.692,-2.382 24.698,-3.728 6.007,-1.346 9.631,-2.485 12.427,-4.66 2.796,-2.174 4.763,-5.384 7.922,-16.258 3.158,-10.873 7.508,-29.41 9.009,-42.872 1.502,-13.462 0.155,-21.85 -1.916,-32.154 -2.071,-10.304 -4.867,-22.5228 -6.834,-29.927 -1.968,-7.4043 -3.107,-9.9933 -5.644,-12.4268 -2.537,-2.4335 -6.472,-4.7116 -13.307,-6.7311 -6.835,-2.0194 -16.569,-3.7799 -25.733,-4.8154 -9.165,-1.0356 -17.76,-1.3463 -26.148,-0.9321 -8.3883,0.4142 -16.5688,1.5532 -23.7143,3.3137 -7.1455,1.7605 -13.255,4.1422 -17.0868,5.9545 -3.8317,1.8122 -5.3848,3.0547 -6.2133,4.4529 -0.8285,1.3983 -0.932,2.9514 -2.7442,9.7342 z"
         id="path18222"
         inkscape:path-effect="#path-effect18138"
         inkscape:original-d="m 53.1241,81.7052 c -3.5208,12.0126 -7.0416,24.0248 -10.5627,36.0378 -0.6212,11.909 -1.2425,23.818 -1.864,35.726 2.6927,14.188 5.3851,28.375 8.0772,42.561 1.3465,3.625 2.6927,7.25 4.0386,10.874 1.4502,1.036 2.8998,2.071 4.3495,3.106 11.5988,3.004 23.1968,6.007 34.7943,9.01 12.22,-0.103 24.44,-0.207 36.659,-0.311 8.388,-1.553 16.776,-3.106 25.164,-4.66 3.625,-1.139 7.249,-2.278 10.873,-3.417 1.968,-3.21 3.936,-6.42 5.903,-9.631 4.35,-18.536 8.699,-37.073 13.048,-55.609 -1.346,-8.388 -2.692,-16.776 -4.039,-25.164 -2.796,-12.22 -5.592,-24.4388 -8.388,-36.6588 -1.139,-2.5884 -2.278,-5.1774 -3.417,-7.7666 -3.935,-2.2778 -7.87,-4.5561 -11.806,-6.8345 -9.734,-1.7602 -19.468,-3.5208 -29.202,-5.2813 -8.595,-0.3106 -17.19,-0.6212 -25.786,-0.9321 -8.1803,1.1393 -16.3607,2.2786 -24.5419,3.4173 -6.1098,2.3821 -12.2193,4.7638 -18.3295,7.1454 -1.5531,1.243 -3.1062,2.4855 -4.6599,3.7277 -0.1034,1.5539 -0.2069,3.107 -0.3106,4.6601 z" />
    </clipPath>
    <clipPath
       clipPathUnits="userSpaceOnUse"
       id="clipPath19854">
      <path
         style="opacity:1;fill:#b67b20;fill-opacity:1;stroke:none;stroke-width:0.264583px;stroke-linecap:butt;stroke-linejoin:miter;stroke-opacity:1"
         d="m 51.4154,86.9349 c -1.8122,6.7829 -5.333,18.7951 -7.4042,30.7561 -2.0712,11.961 -2.6925,23.87 -1.6569,36.918 1.0357,13.048 3.7281,27.235 5.7474,36.141 2.0192,8.905 3.3656,12.53 4.7637,14.86 1.3982,2.33 2.8477,3.365 9.372,5.384 6.5242,2.02 18.1221,5.023 30.0309,6.473 11.9087,1.449 24.1287,1.346 34.4317,0.517 10.304,-0.828 18.692,-2.382 24.698,-3.728 6.007,-1.346 9.631,-2.485 12.427,-4.66 2.796,-2.174 4.763,-5.384 7.922,-16.258 3.158,-10.873 7.508,-29.41 9.009,-42.872 1.502,-13.462 0.155,-21.85 -1.916,-32.154 -2.071,-10.304 -4.867,-22.5228 -6.834,-29.927 -1.968,-7.4043 -3.107,-9.9933 -5.644,-12.4268 -2.537,-2.4335 -6.472,-4.7116 -13.307,-6.7311 -6.835,-2.0194 -16.569,-3.7799 -25.733,-4.8154 -9.165,-1.0356 -17.76,-1.3463 -26.148,-0.9321 -8.3883,0.4142 -16.5688,1.5532 -23.7143,3.3137 -7.1455,1.7605 -13.255,4.1422 -17.0868,5.9545 -3.8317,1.8122 -5.3848,3.0547 -6.2133,4.4529 -0.8285,1.3983 -0.932,2.9514 -2.7442,9.7342 z"
         id="path19856"
         inkscape:path-effect="#path-effect19852"
         inkscape:original-d="m 53.1241,81.7052 c -3.5208,12.0126 -7.0416,24.0248 -10.5627,36.0378 -0.6212,11.909 -1.2425,23.818 -1.864,35.726 2.6927,14.188 5.3851,28.375 8.0772,42.561 1.3465,3.625 2.6927,7.25 4.0386,10.874 1.4502,1.036 2.8998,2.071 4.3495,3.106 11.5988,3.004 23.1968,6.007 34.7943,9.01 12.22,-0.103 24.44,-0.207 36.659,-0.311 8.388,-1.553 16.776,-3.106 25.164,-4.66 3.625,-1.139 7.249,-2.278 10.873,-3.417 1.968,-3.21 3.936,-6.42 5.903,-9.631 4.35,-18.536 8.699,-37.073 13.048,-55.609 -1.346,-8.388 -2.692,-16.776 -4.039,-25.164 -2.796,-12.22 -5.592,-24.4388 -8.388,-36.6588 -1.139,-2.5884 -2.278,-5.1774 -3.417,-7.7666 -3.935,-2.2778 -7.87,-4.5561 -11.806,-6.8345 -9.734,-1.7602 -19.468,-3.5208 -29.202,-5.2813 -8.595,-0.3106 -17.19,-0.6212 -25.786,-0.9321 -8.1803,1.1393 -16.3607,2.2786 -24.5419,3.4173 -6.1098,2.3821 -12.2193,4.7638 -18.3295,7.1454 -1.5531,1.243 -3.1062,2.4855 -4.6599,3.7277 -0.1034,1.5539 -0.2069,3.107 -0.3106,4.6601 z" />
    </clipPath>
    <clipPath
       clipPathUnits="userSpaceOnUse"
       id="clipPath1406">
      <path
         style="opacity:1;fill:#ad7112;fill-opacity:1;stroke:none;stroke-width:0.204385px;stroke-linecap:butt;stroke-linejoin:miter;stroke-opacity:1"
         d="m 64.1423,77.931 c 0.9371,1.1525 3.6232,2.8427 10.4947,4.6097 6.8715,1.7671 17.9276,3.6111 28.329,4.2511 10.401,0.6403 20.147,0.077 28.673,-1.2039 8.526,-1.2804 15.835,-3.2781 20.301,-4.8915 4.466,-1.6134 6.09,-2.8426 6.09,-3.8156 0,-0.973 -1.624,-1.6899 -6.528,-3.0218 -4.904,-1.3319 -13.087,-3.2783 -20.831,-4.4051 -7.745,-1.1267 -15.056,-1.4341 -21.74,-1.4085 -6.684,0.026 -12.7432,0.3842 -17.8968,0.8708 -5.1535,0.4866 -9.4011,1.1011 -13.6178,2.2279 -4.2164,1.1268 -8.4016,2.7658 -10.9003,3.8927 -2.4987,1.1268 -3.311,1.7416 -2.3738,2.8942 z"
         id="path1408" />
    </clipPath>
    <linearGradient
       inkscape:collect="always"
       xlink:href="#linearGradient909"
       id="linearGradient911"
       x1="48.4709"
       y1="148.268"
       x2="180.275"
       y2="143.673"
       gradientUnits="userSpaceOnUse" />
    <linearGradient
       inkscape:collect="always"
       xlink:href="#linearGradient1408"
       id="linearGradient1410"
       x1="59.7776"
       y1="76.2579"
       x2="163.238"
       y2="77.455"
       gradientUnits="userSpaceOnUse" />
    <linearGradient
       inkscape:collect="always"
       xlink:href="#linearGradient4166"
       id="linearGradient4168"
       x1="41.4574"
       y1="117.554"
       x2="178.583"
       y2="117.554"
       gradientUnits="userSpaceOnUse" />
    <linearGradient
       inkscape:collect="always"
       xlink:href="#linearGradient4166"
       id="linearGradient4355"
       gradientUnits="userSpaceOnUse"
       x1="42.9085"
       y1="167.373"
       x2="177.857"
       y2="167.857" />
    <linearGradient
       inkscape:collect="always"
       xlink:href="#linearGradient5261"
       id="linearGradient4562"
       x1="45.4128"
       y1="116.274"
       x2="178.287"
       y2="118.497"
       gradientUnits="userSpaceOnUse" />
    <linearGradient
       inkscape:collect="always"
       xlink:href="#linearGradient5261"
       id="linearGradient5057"
       gradientUnits="userSpaceOnUse"
       x1="40.9666"
       y1="160.565"
       x2="180.681"
       y2="162.788" />
  </defs>
  <g
     inkscape:label="Layer 1"
     inkscape:groupmode="layer"
     id="layer1"
     transform="translate(-36.8624,-58.302)">
    <path
       style="opacity:1;fill:url(#linearGradient911);fill-opacity:1;stroke:none;stroke-width:0.264583px;stroke-linecap:butt;stroke-linejoin:miter;stroke-opacity:1"
       d="m 51.6075,86.9624 c -2.0044,6.7555 -5.5251,18.7676 -7.5963,30.7286 -2.0712,11.961 -2.6925,23.87 -1.6569,36.918 1.0357,13.048 3.7281,27.235 5.7473,36.141 2.0193,8.905 3.3656,12.53 4.7637,14.86 1.3982,2.33 2.8478,3.365 9.372,5.384 6.5242,2.02 18.1222,5.023 30.0309,6.473 11.9088,1.449 24.1288,1.346 34.4318,0.517 10.304,-0.828 18.692,-2.382 24.698,-3.728 6.007,-1.346 9.631,-2.485 12.427,-4.66 2.796,-2.174 4.763,-5.384 7.922,-16.258 3.158,-10.873 7.508,-29.41 9.009,-42.872 1.502,-13.462 0.155,-21.85 -2.006,-32.102 -2.162,-10.252 -5.14,-22.3675 -7.211,-29.7459 -2.07,-7.3784 -3.235,-10.0188 -4.108,-11.4801 -0.872,-1.4614 -1.452,-1.7426 -3.353,-2.5964 -1.901,-0.8538 -5.122,-2.2798 -11.581,-3.9739 -6.46,-1.6942 -16.157,-3.6559 -25.148,-4.5177 -8.991,-0.8617 -17.274,-0.6232 -25.589,-0.1541 -8.3158,0.4692 -16.6606,1.1688 -23.8976,2.5082 -7.237,1.3395 -13.3646,3.3184 -17.0592,4.8927 -3.6946,1.5744 -4.9548,2.7437 -5.829,4.0778 -0.8743,1.334 -1.3622,2.8324 -3.3667,9.5878 z"
       id="path869"
       inkscape:path-effect="#path-effect871"
       inkscape:original-d="m 53.124,81.7053 c -3.5208,12.0126 -7.0416,24.0247 -10.5626,36.0377 -0.6213,11.909 -1.2425,23.818 -1.864,35.726 2.6926,14.188 5.385,28.375 8.0772,42.561 1.3464,3.625 2.6926,7.25 4.0385,10.874 1.4502,1.036 2.8999,2.071 4.3495,3.106 11.5988,3.004 23.1968,6.007 34.7945,9.01 12.2199,-0.103 24.4399,-0.207 36.6589,-0.311 8.388,-1.553 16.776,-3.106 25.164,-4.66 3.625,-1.139 7.249,-2.278 10.873,-3.417 1.968,-3.21 3.936,-6.42 5.903,-9.631 4.35,-18.536 8.699,-37.073 13.048,-55.609 -1.346,-8.388 -2.692,-16.776 -4.039,-25.164 -2.977,-12.116 -5.954,-24.2316 -8.932,-36.348 -1.164,-2.6405 -2.329,-5.2807 -3.494,-7.9222 -0.58,-0.2812 -1.16,-0.5624 -1.741,-0.844 -3.221,-1.4262 -6.442,-2.852 -9.664,-4.2785 -9.697,-1.9616 -19.394,-3.9234 -29.092,-5.8855 -8.284,0.2388 -16.567,0.4773 -24.852,0.7155 -8.3458,0.7 -16.6906,1.3997 -25.0365,2.0992 -6.128,1.9794 -12.2556,3.9583 -18.3844,5.9372 -1.2602,1.1698 -2.5204,2.3391 -3.7811,3.5083 -0.4878,1.4987 -0.9757,2.9971 -1.464,4.4953 z"
       sodipodi:nodetypes="ccccccccccccccccccccccc" />
    <g
       id="g18094"
       clip-path="url(#clipPath18220)">
      <path
         style="opacity:1;fill:none;stroke:#9a6617;stroke-width:3;stroke-linecap:butt;stroke-linejoin:miter;stroke-miterlimit:4;stroke-dasharray:none;stroke-opacity:1"
         d="m 149.598,84.5745 c 5.932,12.3756 11.863,24.7505 15.305,35.7705 3.441,11.02 4.393,20.685 3.88,32.035 -0.512,11.351 -2.49,24.383 -6.188,35.697 -3.698,11.315 -9.117,20.907 -14.535,30.499"
         id="path12548"
         inkscape:path-effect="#path-effect12550"
         inkscape:original-d="m 149.598,84.5745 c 5.932,12.3754 11.863,24.7505 17.794,37.1245 0.952,9.666 1.904,19.331 2.856,28.997 -1.977,13.035 -3.954,26.067 -5.932,39.102 -5.419,9.594 -10.837,19.186 -16.256,28.778"
         sodipodi:nodetypes="ccccc" />
      <path
         style="opacity:1;fill:none;stroke:#9a6617;stroke-width:3;stroke-linecap:butt;stroke-linejoin:miter;stroke-miterlimit:4;stroke-dasharray:none;stroke-opacity:1"
         d="m 133.122,219.015 c 4.174,-13.546 8.348,-27.093 11.277,-39.395 2.929,-12.301 4.614,-23.358 3.991,-35.514 -0.622,-12.155 -3.551,-25.409 -6.554,-34.745 -3.002,-9.336 -6.077,-14.7542 -9.153,-20.1732"
         id="path12552"
         inkscape:path-effect="#path-effect12554"
         inkscape:original-d="m 133.122,219.015 c 4.175,-13.546 8.349,-27.093 12.522,-40.639 1.685,-11.057 3.369,-22.114 5.053,-33.171 -2.929,-13.254 -5.858,-26.508 -8.787,-39.761 -3.076,-5.419 -6.151,-10.8373 -9.227,-16.2562"
         sodipodi:nodetypes="ccccc" />
      <path
         style="opacity:1;fill:none;stroke:#9a6617;stroke-width:3;stroke-linecap:butt;stroke-linejoin:miter;stroke-miterlimit:4;stroke-dasharray:none;stroke-opacity:1"
         d="m 119.063,91.6042 c 2.124,17.0618 4.247,34.1228 4.906,49.8658 0.66,15.744 -0.146,30.169 -1.5,42.837 -1.355,12.668 -3.259,23.578 -5.163,34.489"
         id="path12556"
         inkscape:path-effect="#path-effect12558"
         inkscape:original-d="m 119.063,91.6042 c 2.124,17.0618 4.247,34.1228 6.371,51.1838 -0.805,14.426 -1.61,28.851 -2.416,43.276 -1.904,10.911 -3.808,21.821 -5.712,32.732"
         sodipodi:nodetypes="cccc" />
      <path
         style="opacity:1;fill:none;stroke:#9a6617;stroke-width:3;stroke-linecap:butt;stroke-linejoin:miter;stroke-miterlimit:4;stroke-dasharray:none;stroke-opacity:1"
         d="m 103.467,89.8468 c -1.611,12.9612 -3.222,25.9212 -4.101,40.0542 -0.8788,14.133 -1.0252,29.436 1e-4,44.521 1.0249,15.084 3.2219,29.949 5.4189,44.813"
         id="path12560"
         inkscape:path-effect="#path-effect12562"
         inkscape:original-d="m 103.467,89.8468 c -1.611,12.9612 -3.222,25.9212 -4.8334,38.8822 -0.1461,15.305 -0.2925,30.608 -0.4392,45.912 2.1976,14.865 4.3936,29.73 6.5906,44.594"
         sodipodi:nodetypes="cccc" />
      <path
         style="opacity:1;fill:none;stroke:#9a6617;stroke-width:3;stroke-linecap:butt;stroke-linejoin:miter;stroke-miterlimit:4;stroke-dasharray:none;stroke-opacity:1"
         d="m 89.6272,217.917 c -3.4416,-10.911 -6.883,-21.821 -9.5558,-35.404 -2.6728,-13.584 -4.5765,-29.839 -3.5149,-46.095 1.0616,-16.256 5.0891,-32.512 9.1165,-48.768"
         id="path12564"
         inkscape:path-effect="#path-effect12566"
         inkscape:original-d="M 89.6272,217.917 C 86.1858,207.006 82.7444,196.096 79.3025,185.185 77.3989,168.929 75.495,152.674 73.5909,136.417 77.6185,120.162 81.6458,103.906 85.673,87.65"
         sodipodi:nodetypes="cccc" />
      <path
         style="opacity:1;fill:none;stroke:#9a6617;stroke-width:3;stroke-linecap:butt;stroke-linejoin:miter;stroke-miterlimit:4;stroke-dasharray:none;stroke-opacity:1"
         d="m 68.758,84.1353 c -4.4666,10.9105 -8.9331,21.8207 -11.7158,34.8547 -2.7826,13.035 -3.881,28.192 -1.8306,44.155 2.0504,15.963 7.2494,32.732 12.4481,49.5"
         id="path12568"
         inkscape:path-effect="#path-effect12570"
         inkscape:original-d="m 68.758,84.1353 c -4.4663,10.9106 -8.9328,21.8207 -13.4,32.7317 -1.0981,15.158 -2.1964,30.315 -3.2951,45.472 5.1992,16.769 10.3983,33.538 15.5968,50.306"
         sodipodi:nodetypes="cccc" />
    </g>
    <path
       style="opacity:1;fill:url(#linearGradient1410);fill-opacity:1;stroke:none;stroke-width:0.264583px;stroke-linecap:butt;stroke-linejoin:miter;stroke-opacity:1"
       d="m 56.0903,78.0944 c 1.0985,1.6476 4.2471,4.0639 12.3021,6.5901 8.055,2.5263 21.0153,5.1623 33.2076,6.0776 12.192,0.9152 23.615,0.1097 33.61,-1.7209 9.995,-1.8307 18.562,-4.6863 23.797,-6.9929 5.236,-2.3065 7.14,-4.0639 7.14,-5.4552 0,-1.3912 -1.904,-2.4164 -7.652,-4.3202 -5.748,-1.9038 -15.34,-4.6863 -24.42,-6.2973 -9.08,-1.6111 -17.647,-2.0504 -25.483,-2.0137 -7.835,0.037 -14.9373,0.5492 -20.9784,1.2448 -6.0411,0.6957 -11.0203,1.5743 -15.963,3.1852 -4.9427,1.6109 -9.8487,3.954 -12.7778,5.565 -2.9291,1.611 -3.8811,2.4898 -2.7825,4.1375 z"
       id="path5885"
       inkscape:path-effect="#path-effect5887"
       inkscape:original-d="m 54.0398,77.3254 c 3.149,2.4167 6.2976,4.8329 9.4461,7.2491 12.9614,2.6366 25.9217,5.2726 38.8821,7.9084 11.424,-0.8052 22.847,-1.6108 34.269,-2.4165 8.568,-2.8556 17.135,-5.7113 25.702,-8.5672 1.904,-1.7573 3.808,-3.5147 5.712,-5.2723 -1.904,-1.0247 -3.808,-2.05 -5.712,-3.0753 -9.592,-2.7823 -19.184,-5.5649 -28.777,-8.3478 -8.567,-0.439 -17.134,-0.8784 -25.702,-1.3179 -7.103,0.5128 -14.2053,1.0253 -21.3083,1.5378 -4.9792,0.8789 -9.9584,1.7576 -14.9378,2.636 -4.9059,2.3434 -9.8118,4.6866 -14.7182,7.0294 -0.9517,0.8792 -1.9037,1.7579 -2.8559,2.6363 z" />
    <g
       id="g19846"
       clip-path="url(#clipPath19854)">
      <path
         style="fill:url(#linearGradient4562);fill-opacity:1;stroke:none;stroke-width:0.264583px;stroke-linecap:butt;stroke-linejoin:miter;stroke-opacity:1"
         d="m 33.0274,101.995 c 7.9085,3.937 22.9166,11.477 42.6142,16.127 19.6977,4.65 44.0814,6.407 64.7674,3.698 20.686,-2.71 37.674,-9.886 47.193,-14.499 9.519,-4.613 11.569,-6.664 12.924,-6.041 1.355,0.623 2.014,3.918 2.344,5.565 0.329,1.648 -1.429,4.504 -6.811,7.213 -5.382,2.709 -16.145,8.127 -30.534,12.521 -14.389,4.393 -32.402,7.762 -51.88,7.469 -19.4781,-0.293 -40.4199,-4.247 -56.4562,-9.849 -16.0363,-5.601 -27.1661,-12.85 -32.5118,-17.354 -5.3457,-4.503 -4.9063,-6.261 -4.136,-7.3776 0.7702,-1.1166 1.8714,-1.5927 2.8236,-1.6658 0.9522,-0.073 1.7543,0.2565 9.6628,4.1934 z"
         id="path1638"
         inkscape:path-effect="#path-effect1642"
         inkscape:original-d="m 25.9216,98.3879 c 15.0141,7.5441 30.0224,15.0841 45.0332,22.6261 24.3845,1.758 48.7682,3.515 73.1512,5.273 16.989,-7.176 33.977,-14.352 50.965,-21.529 2.05,-2.05 4.101,-4.1 6.151,-6.1511 0.659,3.2961 1.318,6.5911 1.977,9.8861 l -1.758,2.856 c -10.764,5.419 -21.527,10.837 -32.292,16.255 -18.013,3.369 -36.026,6.738 -54.04,10.105 -20.9421,-3.954 -41.8841,-7.907 -62.8266,-11.862 -11.13,-7.249 -22.2599,-14.498 -33.3904,-21.748 0.4396,-1.757 0.879,-3.515 1.318,-5.2721 1.1013,-0.476 2.2025,-0.952 3.3036,-1.4283 0.8031,0.3301 1.6054,0.6593 2.408,0.9893 z"
         sodipodi:nodetypes="cccccccccccccc" />
      <path
         style="fill:url(#linearGradient4168);fill-opacity:1;stroke:none;stroke-width:0.264583px;stroke-linecap:butt;stroke-linejoin:miter;stroke-opacity:1"
         d="m 33.0274,104.218 c 7.9085,3.937 22.9165,11.477 42.6142,16.127 19.6977,4.65 44.0814,6.407 64.7674,3.698 20.686,-2.71 37.674,-9.886 47.193,-14.499 9.519,-4.613 11.569,-6.663 12.924,-6.041 1.355,0.623 2.014,3.918 2.344,5.565 0.329,1.648 -1.429,4.504 -6.811,7.213 -5.382,2.709 -16.145,8.127 -30.534,12.521 -14.389,4.393 -32.402,7.762 -51.88,7.469 -19.4781,-0.293 -40.4199,-4.247 -56.4562,-9.849 -16.0363,-5.601 -27.1661,-12.85 -32.5118,-17.354 -5.3457,-4.503 -4.9062,-6.261 -4.136,-7.378 0.7702,-1.116 1.8714,-1.592 2.8236,-1.665 0.9522,-0.073 1.7543,0.256 9.6628,4.193 z"
         id="path18261"
         inkscape:path-effect="#path-effect18263"
         inkscape:original-d="m 25.9216,100.611 c 15.0141,7.544 30.0224,15.084 45.0332,22.626 24.3845,1.758 48.7682,3.515 73.1512,5.273 16.989,-7.176 33.977,-14.352 50.965,-21.529 2.05,-2.05 4.101,-4.1 6.151,-6.151 0.659,3.296 1.318,6.591 1.977,9.886 l -1.758,2.856 c -10.764,5.419 -21.527,10.837 -32.292,16.255 -18.013,3.369 -36.026,6.738 -54.04,10.105 -20.9421,-3.954 -41.8841,-7.907 -62.8266,-11.862 -11.13,-7.249 -22.2599,-14.498 -33.3904,-21.748 0.4396,-1.757 0.879,-3.515 1.318,-5.272 1.1013,-0.476 2.2025,-0.952 3.3036,-1.4283 0.8031,0.3301 1.6054,0.6593 2.408,0.9893 z"
         sodipodi:nodetypes="cccccccccccccc" />
      <path
         style="fill:url(#linearGradient5057);fill-opacity:1.0;stroke:none;stroke-width:0.264583px;stroke-linecap:butt;stroke-linejoin:miter;stroke-opacity:1"
         d="m 30.2462,151.814 c 7.9085,3.937 22.9165,11.477 42.6142,16.127 19.6977,4.65 44.0816,6.407 64.7676,3.698 20.686,-2.71 37.674,-9.886 47.193,-14.499 9.519,-4.613 11.569,-6.664 12.924,-6.041 1.355,0.623 2.014,3.918 2.344,5.565 0.329,1.648 -1.429,4.504 -6.811,7.213 -5.382,2.709 -16.145,8.127 -30.534,12.521 -14.389,4.393 -32.402,7.762 -51.88,7.469 -19.4783,-0.293 -40.4201,-4.247 -56.4564,-9.849 -16.0363,-5.601 -27.1661,-12.85 -32.5118,-17.354 -5.3457,-4.503 -4.9062,-6.261 -4.136,-7.378 0.7702,-1.116 1.8712,-1.593 2.8234,-1.666 0.9522,-0.07 1.7546,0.257 9.663,4.194 z"
         id="path2053"
         inkscape:path-effect="#path-effect2057"
         inkscape:original-d="m 23.1404,148.207 c 15.0141,7.544 30.0224,15.084 45.0332,22.626 24.3845,1.758 48.7684,3.515 73.1514,5.273 16.989,-7.176 33.977,-14.352 50.965,-21.529 2.05,-2.05 4.101,-4.1 6.151,-6.151 0.659,3.296 1.318,6.591 1.977,9.886 l -1.758,2.856 c -10.764,5.419 -21.527,10.837 -32.292,16.255 -18.013,3.369 -36.026,6.738 -54.04,10.105 -20.9423,-3.954 -41.8843,-7.907 -62.8268,-11.862 -11.13,-7.249 -22.2599,-14.498 -33.3904,-21.748 0.4396,-1.757 0.879,-3.515 1.318,-5.272 1.1013,-0.476 2.2025,-0.952 3.3036,-1.429 0.8031,0.33 1.6054,0.66 2.408,0.99 z"
         sodipodi:nodetypes="cccccccccccccc" />
      <path
         style="fill:url(#linearGradient4355);fill-opacity:1.0;stroke:none;stroke-width:0.264583px;stroke-linecap:butt;stroke-linejoin:miter;stroke-opacity:1"
         d="m 33.0274,153.925 c 7.9085,3.937 22.9165,11.477 42.6142,16.127 19.6977,4.65 44.0814,6.407 64.7674,3.698 20.686,-2.71 37.674,-9.886 47.193,-14.499 9.519,-4.613 11.569,-6.663 12.924,-6.041 1.355,0.623 2.014,3.918 2.344,5.565 0.329,1.648 -1.429,4.504 -6.811,7.213 -5.382,2.709 -16.145,8.127 -30.534,12.521 -14.389,4.393 -32.402,7.762 -51.88,7.469 -19.4781,-0.293 -40.4199,-4.247 -56.4562,-9.849 -16.0363,-5.601 -27.1661,-12.85 -32.5118,-17.354 -5.3457,-4.503 -4.9062,-6.261 -4.136,-7.378 0.7702,-1.116 1.8712,-1.593 2.8234,-1.666 0.9522,-0.07 1.7546,0.257 9.663,4.194 z"
         id="path19838"
         inkscape:path-effect="#path-effect19842"
         inkscape:original-d="m 25.9216,150.318 c 15.0141,7.544 30.0224,15.084 45.0332,22.626 24.3845,1.758 48.7682,3.515 73.1512,5.273 16.989,-7.176 33.977,-14.352 50.965,-21.529 2.05,-2.05 4.101,-4.1 6.151,-6.151 0.659,3.296 1.318,6.591 1.977,9.886 l -1.758,2.856 c -10.764,5.419 -21.527,10.837 -32.292,16.255 -18.013,3.369 -36.026,6.738 -54.04,10.105 -20.9421,-3.954 -41.8841,-7.907 -62.8266,-11.862 -11.13,-7.249 -22.2599,-14.498 -33.3904,-21.748 0.4396,-1.757 0.879,-3.515 1.318,-5.272 1.1013,-0.476 2.2025,-0.952 3.3036,-1.429 0.8031,0.33 1.6054,0.66 2.408,0.99 z"
         sodipodi:nodetypes="cccccccccccccc" />
    </g>
    <path
       style="opacity:1;fill:#ad7112;fill-opacity:1;stroke:none;stroke-width:0.204385px;stroke-linecap:butt;stroke-linejoin:miter;stroke-opacity:1"
       d="m 64.1423,77.931 c 0.9372,1.1525 3.6232,2.8427 10.4947,4.6097 6.8715,1.7671 17.9277,3.6111 28.329,4.2512 10.401,0.6402 20.147,0.077 28.673,-1.2039 8.526,-1.2805 15.835,-3.2782 20.301,-4.8916 4.466,-1.6134 6.09,-2.8426 6.09,-3.8156 0,-0.973 -1.624,-1.6899 -6.528,-3.0218 -4.904,-1.3319 -13.087,-3.2783 -20.831,-4.4051 -7.745,-1.1267 -15.056,-1.4341 -21.74,-1.4085 -6.684,0.026 -12.7432,0.3842 -17.8968,0.8708 -5.1535,0.4866 -9.4011,1.1011 -13.6177,2.2279 -4.2165,1.1268 -8.4016,2.7658 -10.9004,3.8927 -2.4988,1.1268 -3.311,1.7416 -2.3738,2.8942 z"
       id="path19858"
       inkscape:path-effect="#path-effect19862"
       inkscape:original-d="m 62.393,77.3931 c 2.6864,1.6905 5.3725,3.3805 8.0583,5.0706 11.0572,1.8443 22.1134,3.6882 33.1687,5.5319 9.747,-0.5632 19.493,-1.1267 29.235,-1.6902 7.31,-1.9976 14.619,-3.9952 21.926,-5.9928 1.625,-1.2292 3.249,-2.4586 4.873,-3.6879 -1.624,-0.7168 -3.248,-1.4339 -4.873,-2.1511 -8.183,-1.9463 -16.366,-3.8926 -24.548,-5.8392 -7.307,-0.3071 -14.618,-0.6145 -21.926,-0.9219 -6.06,0.3586 -12.1192,0.7172 -18.1786,1.0757 -4.2477,0.6147 -8.4953,1.2294 -12.7432,1.8437 -4.1851,1.6394 -8.3702,3.2783 -12.5558,4.9171 -0.8118,0.615 -1.6242,1.2296 -2.4364,1.8441 z" />
    <path
       style="opacity:1;fill:#9f670e;fill-opacity:1;stroke:none;stroke-width:0.204385px;stroke-linecap:butt;stroke-linejoin:miter;stroke-opacity:1"
       d="m 64.1423,81.9984 c 0.9372,1.1525 3.6232,2.8427 10.4947,4.6097 6.8715,1.7671 17.9277,3.6111 28.329,4.2512 10.401,0.6402 20.147,0.077 28.673,-1.2039 8.526,-1.2805 15.835,-3.2782 20.301,-4.8916 4.466,-1.6134 6.09,-2.8426 6.09,-3.8156 0,-0.973 -1.624,-1.6899 -6.528,-3.0218 -4.904,-1.3319 -13.087,-3.2783 -20.831,-4.4051 -7.745,-1.1267 -15.056,-1.4341 -21.74,-1.4085 -6.684,0.026 -12.7432,0.3842 -17.8968,0.8708 -5.1535,0.4866 -9.4011,1.1011 -13.6177,2.2279 -4.2165,1.1268 -8.4016,2.7658 -10.9004,3.8927 -2.4988,1.1268 -3.311,1.7416 -2.3738,2.8942 z"
       id="path950"
       clip-path="url(#clipPath1406)" />
  </g>
</svg>
