<svg id="Layer_1" enable-background="new 0 0 512.057 512.057" height="512" viewBox="0 0 512.057 512.057" width="512" xmlns="http://www.w3.org/2000/svg"><g><circle cx="256" cy="256.029" fill="#e48c9b" r="256"/><path d="m437.02 75.009c-54.907-54.907-128.106-79.805-201.02-74.206 130.592 10.026 236 119.037 236 255.226 0 136.26-105.473 245.205-236 255.226 72.937 5.6 146.13-19.316 201.02-74.206 100.046-100.046 100.054-261.987 0-362.04z" fill="#cc5b6f"/><circle cx="256" cy="256.029" fill="#edebfd" r="208"/><path d="m80 256.029c0-109.307 84.757-199.194 192-207.391-120.907-9.242-224 86.598-224 207.391 0 120.704 102.984 216.641 224 207.391-107.243-8.198-192-98.084-192-207.391z" fill="#d2d2fc"/><g fill="#595965"><circle cx="256" cy="256.029" r="24"/><path d="m256 248.029c-4.418 0-8-3.582-8-8v-88c0-4.418 3.582-8 8-8s8 3.582 8 8v88c0 4.418-3.582 8-8 8z"/><path d="m200 320.029c-7.062 0-10.712-8.602-5.657-13.657l40-40c3.124-3.124 8.189-3.124 11.313 0 3.125 3.124 3.125 8.189 0 11.313l-40 40c-1.561 1.562-3.609 2.344-5.656 2.344z"/><path d="m256 112.029c-4.418 0-8-3.582-8-8v-16c0-4.418 3.582-8 8-8s8 3.582 8 8v16c0 4.418-3.582 8-8 8z"/><path d="m363.48 156.548c-7.06 0-10.715-8.599-5.657-13.657l11.313-11.313c3.125-3.124 8.189-3.124 11.314 0 3.124 3.124 3.124 8.189 0 11.313l-11.313 11.313c-1.562 1.563-3.609 2.344-5.657 2.344z"/><path d="m424 264.029h-16c-4.418 0-8-3.582-8-8s3.582-8 8-8h16c4.418 0 8 3.582 8 8s-3.582 8-8 8z"/><path d="m374.794 382.823c-2.048 0-4.095-.781-5.657-2.343l-11.313-11.313c-3.124-3.124-3.124-8.189 0-11.313 3.125-3.124 8.189-3.124 11.314 0l11.313 11.313c5.056 5.054 1.405 13.656-5.657 13.656z"/><path d="m256 432.029c-4.418 0-8-3.582-8-8v-16c0-4.418 3.582-8 8-8s8 3.582 8 8v16c0 4.418-3.582 8-8 8z"/><path d="m137.206 382.823c-7.062 0-10.712-8.602-5.657-13.657l11.313-11.313c3.124-3.124 8.189-3.124 11.313 0 3.125 3.124 3.125 8.189 0 11.313l-11.313 11.313c-1.561 1.562-3.609 2.344-5.656 2.344z"/><path d="m104 264.029h-16c-4.418 0-8-3.582-8-8s3.582-8 8-8h16c4.418 0 8 3.582 8 8s-3.582 8-8 8z"/><path d="m148.52 156.548c-2.047 0-4.095-.781-5.657-2.343l-11.313-11.313c-3.125-3.124-3.125-8.189 0-11.313 3.124-3.124 8.189-3.124 11.313 0l11.313 11.313c5.055 5.053 1.406 13.656-5.656 13.656z"/></g></g></svg>