<svg height="512" viewBox="0 0 58 58" width="512" xmlns="http://www.w3.org/2000/svg"><g id="Page-1" fill="none" fill-rule="evenodd"><g id="056---Farmers-Market" fill-rule="nonzero"><path id="Shape" d="m0 8 3-4 26-2 26 2 3 4-29 2z" fill="#d1d4d1"/><path id="Rectangle-path" d="m1 41h56v6h-56z" fill="#a56a43"/><path id="Rectangle-path" d="m1 49h56v6h-56z" fill="#a56a43"/><path id="Shape" d="m33.832 22.445c-.1471733-.2206869-.3759984-.3738581-.6361213-.4258077-.2601229-.0519495-.5302285.0015795-.7508787.1488077l-1.445.964v-2.132c0-.5522847-.4477153-1-1-1s-1 .4477153-1 1v2.132l-1.445-.964c-.4595009-.306518-1.080482-.1825009-1.387.277s-.1825009 1.080482.277 1.387l3 2c.3387854.2149364.7712146.2149364 1.11 0l3-2c.2206869-.1471733.3738581-.3759984.4258077-.6361213.0519495-.2601229-.0015795-.5302285-.1488077-.7508787z" fill="#4fba6f"/><path id="Shape" d="m32.2 32c.4622155-1.3349266.7315967-2.7289744.8-4.14 0-1.6568542-1.3431458-3-3-3s-3 1.3431458-3 3c.0684033 1.4110256.3377845 2.8050734.8 4.14z" fill="#f29c1f"/><path id="Shape" d="m50 24c-.5522847 0-1-.4477153-1-1 .0436791-.828054-.2114733-1.6442578-.719-2.3-.3738849-.3996557-.3605686-1.0246324.03-1.408.3891622-.382722 1.0141325-.3800435 1.4.006.8864558 1.0242281 1.3476253 2.348704 1.289 3.702 0 .5522847-.4477153 1-1 1z" fill="#24ae5f"/><path id="Shape" d="m47.583 30.412c-3.283-3.26-.942-7.412 2.417-7.412 3.521 0 5.923 4.563 1.9 7.879z" fill="#e57e25"/><path id="Shape" d="m44 24c-.5522847 0-1-.4477153-1-1 .0436791-.828054-.2114733-1.6442578-.719-2.3-.3738849-.3996557-.3605686-1.0246324.03-1.408.3891622-.382722 1.0141325-.3800435 1.4.006.8864558 1.0242281 1.3476253 2.348704 1.289 3.702 0 .5522847-.4477153 1-1 1z" fill="#24ae5f"/><path id="Shape" d="m46.64 30c1.2508422-1.0988868 1.6901776-2.8576825 1.1030101-4.4156918-.5871674-1.5580093-2.0780301-2.5893706-3.7430101-2.5893706s-3.1558427 1.0313613-3.7430101 2.5893706c-.5871675 1.5580093-.1478321 3.316805 1.1030101 4.4156918l2.64 1z" fill="#f29c1f"/><path id="Shape" d="m9.041 26.4c-.042 0-.086 0-.129-.007-.26331735-.033882-.50235383-.1710824-.66442424-.3813612-.16207041-.2102789-.23387075-.4763749-.19957576-.7396388.08018208-1.7221589 1.02169098-3.2883336 2.505-4.167.3197527-.1596977.7004141-.1366785.9985928.0603866.2981786.1970651.4685741.5382372.447.895-.0215741.3567629-.2318401.6749157-.5515928.8346134-.8528653.6121464-1.3751205 1.5839471-1.415 2.633-.06432065.4983727-.48849393.871611-.991.872z" fill="#24ae5f"/><path id="Shape" d="m16.041 26.4c-.042 0-.086 0-.129-.007-.2633173-.033882-.5023538-.1710824-.6644242-.3813612-.1620705-.2102789-.2338708-.4763749-.1995758-.7396388.0801821-1.7221589 1.021691-3.2883336 2.505-4.167.4942949-.2468713 1.0951287-.0462949 1.342.448s.0462949 1.0951287-.448 1.342c-.8528653.6121464-1.3751205 1.5839471-1.415 2.633-.0643206.4983727-.4884939.871611-.991.872z" fill="#24ae5f"/><path id="Shape" d="m5.373 30c-1.051-2.487.277-5 2.027-5 .30354775.0017116.60212616.0772142.87.22.4570658.240048 1.0029342.240048 1.46 0 .26787384-.1427858.5664522-.2182884.87-.22 1.721 0 3.043 2.449 2.065 5l-3.665 2z" fill="#c03a2b"/><path id="Shape" d="m12.09 30c-.0651131-.5977286-.0951646-1.1987575-.09-1.8 0-1.77 1.08-3.2 2.4-3.2.3035478.0017116.6021262.0772142.87.22.4570658.240048 1.0029342.240048 1.46 0 .2678738-.1427858.5664522-.2182884.87-.22 1.32 0 2.4 1.43 2.4 3.2.0051646.6012425-.0248869 1.2022714-.09 1.8l-3.91 2z" fill="#e64c3c"/><path id="Shape" d="m21 38-17 1 1-9h15c.5522847 0 1 .4477153 1 1z" fill="#a56a43"/><path id="Shape" d="m26 32h8c.5522847 0 1 .4477153 1 1v6h-10v-6c0-.5522847.4477153-1 1-1z" fill="#a56a43"/><path id="Shape" d="m16 35h-6c-.55228475 0-1-.4477153-1-1s.44771525-1 1-1h6c.5522847 0 1 .4477153 1 1s-.4477153 1-1 1z" fill="#805333"/><path id="Shape" d="m39 39h15l-1-9h-13c-.5522847 0-1 .4477153-1 1z" fill="#a56a43"/><g fill="#805333"><path id="Shape" d="m48 35h-4c-.5522847 0-1-.4477153-1-1s.4477153-1 1-1h4c.5522847 0 1 .4477153 1 1s-.4477153 1-1 1z"/><path id="Shape" d="m5 10v29h-4v-26.315z"/><path id="Shape" d="m53 10v29h4v-26.315z"/></g><rect id="Rectangle-path" fill="#cb8252" height="4" rx="1" width="58" y="38"/><rect id="Rectangle-path" fill="#cb8252" height="4" rx="1" width="58" y="46"/><rect id="Rectangle-path" fill="#cb8252" height="4" rx="1" width="58" y="54"/><path id="Shape" d="m8 0v4h-5v-2c.0032948-1.10320187.89679813-1.9967052 2-2z" fill="#e64c3c"/><path id="Rectangle-path" d="m8 0h5v4h-5z" fill="#ecf0f1"/><path id="Rectangle-path" d="m13 0h6v4h-6z" fill="#e64c3c"/><path id="Rectangle-path" d="m19 0h5v4h-5z" fill="#ecf0f1"/><path id="Rectangle-path" d="m24 0h5v4h-5z" fill="#e64c3c"/><path id="Rectangle-path" d="m29 0h5v4h-5z" fill="#ecf0f1"/><path id="Rectangle-path" d="m34 0h5v4h-5z" fill="#e64c3c"/><path id="Rectangle-path" d="m39 0h6v4h-6z" fill="#ecf0f1"/><path id="Rectangle-path" d="m45 0h5v4h-5z" fill="#e64c3c"/><path id="Shape" d="m55 2v2h-5v-4h3c1.1032019.0032948 1.9967052.89679813 2 2z" fill="#ecf0f1"/><path id="Shape" d="m8 4-3 4h-5l3-4z" fill="#c03a2b"/><path id="Shape" d="m13 4-2 4h-6l3-4z" fill="#d1d4d1"/><path id="Shape" d="m19 4-2 4h-6l2-4z" fill="#c03a2b"/><path id="Shape" d="m24 4-1 4h-6l2-4z" fill="#d1d4d1"/><path id="Shape" d="m29 4v4h-6l1-4z" fill="#c03a2b"/><path id="Shape" d="m35 8h-6v-4h5z" fill="#d1d4d1"/><path id="Shape" d="m41 8h-6l-1-4h5z" fill="#c03a2b"/><path id="Shape" d="m58 8h-5l-3-4h5z" fill="#d1d4d1"/><path id="Shape" d="m5 8v3.5c0 1.3807119-1.11928813 2.5-2.5 2.5s-2.5-1.1192881-2.5-2.5v-3.5z" fill="#e64c3c"/><path id="Shape" d="m11 8v3c0 1.6568542-1.34314575 3-3 3s-3-1.3431458-3-3v-3z" fill="#ecf0f1"/><path id="Shape" d="m17 8v3c0 1.6568542-1.3431458 3-3 3s-3-1.3431458-3-3v-3z" fill="#e64c3c"/><path id="Shape" d="m23 8v3c0 1.6568542-1.3431458 3-3 3s-3-1.3431458-3-3v-3z" fill="#ecf0f1"/><path id="Shape" d="m29 8v3c0 1.6568542-1.3431458 3-3 3s-3-1.3431458-3-3v-3z" fill="#e64c3c"/><path id="Shape" d="m35 8v3c0 1.6568542-1.3431458 3-3 3s-3-1.3431458-3-3v-3z" fill="#ecf0f1"/><path id="Shape" d="m41 8v3c0 1.6568542-1.3431458 3-3 3s-3-1.3431458-3-3v-3z" fill="#e64c3c"/><path id="Shape" d="m47 8v3c0 1.6568542-1.3431458 3-3 3s-3-1.3431458-3-3v-3z" fill="#ecf0f1"/><path id="Shape" d="m53 8v3c0 1.6568542-1.3431458 3-3 3s-3-1.3431458-3-3v-3z" fill="#e64c3c"/><path id="Shape" d="m58 8v3.5c0 1.3807119-1.1192881 2.5-2.5 2.5s-2.5-1.1192881-2.5-2.5v-3.5z" fill="#ecf0f1"/><path id="Shape" d="m47 8h-6l-2-4h6z" fill="#d1d4d1"/><path id="Shape" d="m53 8h-6l-2-4h5z" fill="#c03a2b"/></g></g></svg>