<?xml version="1.0" encoding="UTF-8" standalone="no"?>
<!-- Created with Inkscape (http://www.inkscape.org/) -->

<svg
   width="90mm"
   height="90mm"
   viewBox="0 0 90 90"
   version="1.1"
   id="svg971"
   inkscape:version="1.1 (c68e22c387, 2021-05-23)"
   sodipodi:docname="shop.svg"
   xmlns:inkscape="http://www.inkscape.org/namespaces/inkscape"
   xmlns:sodipodi="http://sodipodi.sourceforge.net/DTD/sodipodi-0.dtd"
   xmlns="http://www.w3.org/2000/svg"
   xmlns:svg="http://www.w3.org/2000/svg">
  <sodipodi:namedview
     id="namedview973"
     pagecolor="#ffffff"
     bordercolor="#666666"
     borderopacity="1.0"
     inkscape:pageshadow="2"
     inkscape:pageopacity="0.0"
     inkscape:pagecheckerboard="0"
     inkscape:document-units="mm"
     showgrid="false"
     inkscape:zoom="1.9646021"
     inkscape:cx="140.74097"
     inkscape:cy="147.61259"
     inkscape:window-width="1920"
     inkscape:window-height="1047"
     inkscape:window-x="-9"
     inkscape:window-y="-9"
     inkscape:window-maximized="1"
     inkscape:current-layer="g869"
     fit-margin-top="5"
     lock-margins="true"
     fit-margin-left="5"
     fit-margin-right="5"
     fit-margin-bottom="5" />
  <defs
     id="defs968">
    <inkscape:path-effect
       effect="spiro"
       id="path-effect881"
       is_visible="true"
       lpeversion="1" />
    <inkscape:path-effect
       effect="spiro"
       id="path-effect875"
       is_visible="true"
       lpeversion="1" />
    <inkscape:path-effect
       effect="spiro"
       id="path-effect869"
       is_visible="true"
       lpeversion="1" />
    <inkscape:path-effect
       effect="spiro"
       id="path-effect863"
       is_visible="true"
       lpeversion="1" />
    <inkscape:path-effect
       effect="powerclip"
       id="path-effect946"
       is_visible="true"
       lpeversion="1"
       inverse="true"
       flatten="false"
       hide_clip="false"
       message="Use fill-rule evenodd on &lt;b&gt;fill and stroke&lt;/b&gt; dialog if no flatten result after convert clip to paths." />
    <inkscape:path-effect
       effect="powerclip"
       id="path-effect926"
       is_visible="true"
       lpeversion="1"
       inverse="true"
       flatten="false"
       hide_clip="false"
       message="Use fill-rule evenodd on &lt;b&gt;fill and stroke&lt;/b&gt; dialog if no flatten result after convert clip to paths." />
    <inkscape:path-effect
       effect="powerclip"
       id="path-effect906"
       is_visible="true"
       lpeversion="1"
       inverse="true"
       flatten="false"
       hide_clip="false"
       message="Use fill-rule evenodd on &lt;b&gt;fill and stroke&lt;/b&gt; dialog if no flatten result after convert clip to paths." />
    <inkscape:path-effect
       effect="spiro"
       id="path-effect1655"
       is_visible="true"
       lpeversion="1" />
    <inkscape:path-effect
       effect="spiro"
       id="path-effect1266"
       is_visible="true"
       lpeversion="1" />
    <inkscape:path-effect
       effect="spiro"
       id="path-effect1262"
       is_visible="true"
       lpeversion="1" />
    <inkscape:path-effect
       effect="spiro"
       id="path-effect1258"
       is_visible="true"
       lpeversion="1" />
    <inkscape:path-effect
       effect="spiro"
       id="path-effect1254"
       is_visible="true"
       lpeversion="1" />
    <inkscape:path-effect
       effect="spiro"
       id="path-effect1250"
       is_visible="true"
       lpeversion="1" />
    <inkscape:path-effect
       effect="spiro"
       id="path-effect1246"
       is_visible="true"
       lpeversion="1" />
    <inkscape:path-effect
       effect="spiro"
       id="path-effect1242"
       is_visible="true"
       lpeversion="1" />
    <inkscape:path-effect
       effect="spiro"
       id="path-effect1238"
       is_visible="true"
       lpeversion="1" />
    <inkscape:path-effect
       effect="spiro"
       id="path-effect1234"
       is_visible="true"
       lpeversion="1" />
    <inkscape:path-effect
       effect="spiro"
       id="path-effect7654"
       is_visible="true"
       lpeversion="1" />
    <inkscape:path-effect
       effect="spiro"
       id="path-effect7952"
       is_visible="true"
       lpeversion="1" />
    <inkscape:path-effect
       effect="spiro"
       id="path-effect7971"
       is_visible="true"
       lpeversion="1" />
    <inkscape:path-effect
       effect="spiro"
       id="path-effect8048"
       is_visible="true"
       lpeversion="1" />
    <inkscape:path-effect
       effect="spiro"
       id="path-effect8077"
       is_visible="true"
       lpeversion="1" />
    <inkscape:path-effect
       effect="spiro"
       id="path-effect8176"
       is_visible="true"
       lpeversion="1" />
    <inkscape:path-effect
       effect="spiro"
       id="path-effect8285"
       is_visible="true"
       lpeversion="1" />
    <inkscape:path-effect
       effect="spiro"
       id="path-effect8394"
       is_visible="true"
       lpeversion="1" />
    <inkscape:path-effect
       effect="spiro"
       id="path-effect8459"
       is_visible="true"
       lpeversion="1" />
    <clipPath
       clipPathUnits="userSpaceOnUse"
       id="clipPath902">
      <path
         style="color:#000000;display:block;fill:#000000;stroke-width:1;stroke-linecap:square;-inkscape-stroke:none"
         d="m 89.832032,110.77539 v 9.03906 71.42383 9.03711 H 107.9082 v -9.03711 -71.42383 -9.03906 z"
         id="path904" />
    </clipPath>
    <clipPath
       clipPathUnits="userSpaceOnUse"
       id="clipPath922">
      <path
         style="color:#000000;display:block;fill:#000000;stroke-width:1;stroke-linecap:square;-inkscape-stroke:none"
         d="m 121.32031,86.69922 v 9.037108 71.423832 9.03906 h 18.07617 V 167.16016 95.736328 86.69922 Z"
         id="path924" />
    </clipPath>
  </defs>
  <g
     inkscape:label="Layer 1"
     inkscape:groupmode="layer"
     id="layer1"
     transform="translate(-67.679687,-121.07884)">
    <g
       id="g869"
       transform="translate(-6.464583,4.230999)">
      <path
         style="color:#000000;fill:#000000;stroke-width:1.10841;stroke-linecap:round;-inkscape-stroke:none"
         d="m 83.673959,125.49624 a 4.9992845,5.7200517 0 0 0 -4.998989,5.71972 v 24.12931 a 4.9992845,5.7200517 0 0 0 4.998989,5.72202 4.9992845,5.7200517 0 0 0 5.00101,-5.72202 v -24.12931 a 4.9992845,5.7200517 0 0 0 -5.00101,-5.71972 z"
         id="path7652-0-9-5" />
      <path
         style="color:#000000;fill:#000000;stroke-width:1.10841;stroke-linecap:round;-inkscape-stroke:none"
         d="m 100.63802,125.81174 a 4.9992841,5.7200517 0 0 0 -4.998991,5.71972 v 24.12931 a 4.9992841,5.7200517 0 0 0 4.998991,5.72202 4.9992841,5.7200517 0 0 0 5.00101,-5.72202 v -24.12931 a 4.9992841,5.7200517 0 0 0 -5.00101,-5.71972 z"
         id="path859" />
      <path
         style="color:#000000;fill:#000000;stroke-width:1.10841;stroke-linecap:round;-inkscape-stroke:none"
         d="m 118.82642,125.81174 a 4.9992845,5.7200517 0 0 0 -4.99899,5.71972 v 24.12931 a 4.9992845,5.7200517 0 0 0 4.99899,5.72202 4.9992845,5.7200517 0 0 0 5.00101,-5.72202 v -24.12931 a 4.9992845,5.7200517 0 0 0 -5.00101,-5.71972 z"
         id="path865" />
      <path
         style="color:#000000;fill:#000000;stroke-width:1.10841;stroke-linecap:round;-inkscape-stroke:none"
         d="m 137.95754,125.67706 a 4.9992845,5.7200517 0 0 0 -4.99899,5.71972 v 24.12931 a 4.9992845,5.7200517 0 0 0 4.99899,5.72202 4.9992845,5.7200517 0 0 0 5.00101,-5.72202 v -24.12931 a 4.9992845,5.7200517 0 0 0 -5.00101,-5.71972 z"
         id="path871" />
      <path
         style="color:#000000;fill:#000000;stroke-width:1.10841;stroke-linecap:round;-inkscape-stroke:none"
         d="m 155.40522,125.7444 a 4.9992845,5.7200517 0 0 0 -4.99899,5.71972 v 24.12931 a 4.9992845,5.7200517 0 0 0 4.99899,5.72202 4.9992845,5.7200517 0 0 0 5.00101,-5.72202 v -24.12931 a 4.9992845,5.7200517 0 0 0 -5.00101,-5.71972 z"
         id="path877" />
      <path
         style="color:#000000;fill:#000000;stroke-width:1.07477;stroke-linecap:round;-inkscape-stroke:none"
         d="m 84.394684,125.49624 c -3.23902,-0.007 -5.864799,2.20454 -5.864799,4.92398 0,2.71944 2.625779,4.91696 5.864799,4.92398 l 70.113646,0.15201 c 3.23902,0.007 5.8648,-2.20454 5.8648,-4.92398 0,-2.71945 -2.62578,-4.91696 -5.8648,-4.92398 z"
         id="path1151"
         clip-path="none"
         sodipodi:nodetypes="sssssss" />
      <path
         style="color:#000000;fill:#000000;stroke-width:0.963307;stroke-linecap:round;-inkscape-stroke:none"
         d="m 87.184166,186.34321 a 4.6397926,4.9999984 0 0 0 -4.639792,5 4.6397926,4.9999984 0 0 0 4.639792,5 h 64.574684 a 4.6397926,4.9999984 0 0 0 4.63979,-5 4.6397926,4.9999984 0 0 0 -4.63979,-5 z"
         id="path1320"
         clip-path="none" />
      <path
         style="color:#000000;fill:#000000;stroke-width:0.640997;stroke-linecap:round;-inkscape-stroke:none"
         d="m 156.27115,166.70463 c 0,-1.13812 -2.20069,-4.71165 -4.95359,-4.71165 -2.75289,0 -5.0155,3.57353 -5.01549,4.71165 l 0.0309,26.02981 c 1e-5,1.13811 2.23167,2.06074 4.98454,2.06074 2.75288,0 4.98453,-0.92263 4.98454,-2.06074 z"
         id="path1322"
         clip-path="none"
         sodipodi:nodetypes="csccscc" />
      <path
         style="color:#000000;fill:#000000;stroke-width:0.640998;stroke-linecap:round;-inkscape-stroke:none"
         d="m 92.595934,166.83931 c 0,-1.13812 -2.200698,-4.71165 -4.953596,-4.71165 -2.752897,0 -5.015513,3.57353 -5.015503,4.71165 l 0.0309,26.02981 c 1e-5,1.13811 2.231663,2.06074 4.984549,2.06074 2.752888,0 4.98454,-0.92263 4.98455,-2.06074 z"
         id="path1537"
         clip-path="none"
         sodipodi:nodetypes="csccscc" />
    </g>
  </g>
</svg>
