<svg version="1.2" baseProfile="tiny-ps" xmlns="http://www.w3.org/2000/svg" viewBox="0 0 403 257" width="403" height="257">
	<title>Background</title>
	<style>
		tspan { white-space:pre }
		.shp0 { fill: #ffd239 } 
		.shp1 { fill: #faba36 } 
		.shp2 { fill: #ec1c24 } 
	</style>
	<g id="Background">
		<path id="Path 0" class="shp0" d="M178.91 13.41C167.69 20.67 136.9 40.49 110.5 57.45C84.1 74.42 58.9 90.63 54.5 93.48C50.1 96.33 38.17 104.01 28 110.53C17.82 117.06 7.47 123.81 5 125.53C2.52 127.26 0.59 129.08 0.7 129.58C0.81 130.09 8.91 135.61 18.7 141.86C28.49 148.1 54.27 164.35 76 177.96C97.72 191.58 124.95 208.71 136.5 216.03C148.05 223.35 167.4 235.54 179.5 243.12C191.6 250.7 201.84 256.7 202.25 256.45C202.66 256.2 202.66 242.1 202.25 225.11L201.5 194.22C216.22 193.32 261.22 192.84 311 192.59C360.77 192.33 401.83 191.75 402.24 191.31C402.64 190.86 402.87 161.7 402.74 126.5L402.5 62.5L201 63.5C201.16 13.74 200.82 0.94 200.26 0.67C199.75 0.42 190.14 6.15 178.91 13.41Z" />
		<path id="Path 1" class="shp1" d="M188.8 19.75C188.63 20.16 188.74 29.5 189.03 40.5L189.56 60.5C189.9 28.34 189.8 19 189.55 19C189.3 19 188.96 19.34 188.8 19.75Z" />
		<path id="Path 2" class="shp2" d="M142.95 49.34C119 64.83 81.54 88.97 59.69 103C37.85 117.02 19.98 128.84 19.99 129.25C20 129.66 24.16 132.63 29.25 135.83C34.34 139.04 47.5 147.31 58.5 154.21C69.5 161.11 95.6 177.54 116.5 190.73C137.4 203.91 162.49 219.71 172.25 225.85C182.01 231.98 190.45 237 191 237C191.56 237 191.79 235.57 191.52 233.75C191.25 231.96 190.91 219.7 190.77 206.5L190.5 182.5C240.87 181.55 285.76 181.21 322.75 181.14L390 181L390 74C205.28 75.26 191.38 75.16 190.6 73.93C190.11 73.14 189.49 60.91 189.23 46.75C188.89 28.51 188.43 21.03 187.63 21.09C187.01 21.14 166.9 33.85 142.95 49.34Z" />
		<path id="Path 3" class="shp1" d="M358.75 73.74L390 74L390.52 181.5L391 73L327.5 73.47L358.75 73.74ZM218 74.75C233.12 74.9 258.1 74.9 273.5 74.75C288.9 74.59 276.52 74.47 246 74.47C215.47 74.47 202.87 74.59 218 74.75ZM278.5 181.75C295.55 181.9 323 181.9 339.5 181.75C356 181.6 342.05 181.47 308.5 181.47C274.95 181.47 261.45 181.6 278.5 181.75ZM190.5 183.31C190.26 184.03 190.17 189.77 190.31 196.06L190.57 207.5L191 183L221.5 182.44C194.36 182.05 190.85 182.29 190.5 183.31Z" />
	</g>
</svg>