<?xml version="1.0" encoding="utf-8"?>
<svg version="1.2" baseProfile="tiny-ps" viewBox="0 0 563 432" width="563" height="432" xmlns="http://www.w3.org/2000/svg">
  <title>Background</title>
  <style>
		tspan { white-space:pre }
		.shp0 { fill: #880015 } 
		.shp1 { fill: #f3dc94 } 
		.shp2 { fill: #c59e56 } 
		.shp3 { fill: #71470a } 
		.shp4 { fill: #cdab63 } 
		.shp5 { fill: #ba954b } 
		.shp6 { fill: #98762a } 
		.shp7 { fill: #ebca80 } 
		.shp8 { fill: #fbeda9 } 
		.shp9 { fill: #dcba6f } 
		.shp10 { fill: #ac893e } 
	</style>
  <g id="Background">
    <path id="Path 0" class="shp0" d="M 182 10 L 217.357 2.907 L 283.254 6.334 L 344.666 19.781 L 402 37 L 461 53 L 514 128 L 521.104 175.351 L 540.287 233.94 L 552 272 L 550.003 316.517 L 528 360 L 495 376 L 404 388 L 307.792 406.115 L 271.423 411.557 L 248.343 410.547 L 216.848 406.703 L 169 389 L 136.914 371.335 L 113.555 360.518 L 78 356 L 44 331 L 15 259 L 18 190 L 29 150 L 42.024 104.156 L 63.861 81.02 L 102 70 L 121 47 L 182 10 Z"/>
    <g>
      <path id="Path 1" class="shp1" d="M 109 26 L 119.147 11.074 L 134.691 8.67 L 109 26 Z"/>
      <path id="Path 2" class="shp2" d="M 134.691 8.568 L 166 7 L 166 31 L 108.861 38.695 L 109 26 L 134.691 8.568 Z"/>
      <path id="Path 3" class="shp3" d="M 166 31 L 166 7 L 182 10 L 190 31 L 166 31 Z"/>
      <path id="Path 6" class="shp4" d="M 108.659 38.593 L 166.309 30.897 L 165.206 64 L 135 64 L 121 47 L 108.659 38.593 Z"/>
      <path id="Path 7" class="shp5" d="M 165 64 L 166 31 L 190 31 L 187 64 L 165 64 Z"/>
      <path id="Path 8" class="shp6" d="M 166 85 L 152 84 L 135 64 L 165 64 L 166 83 L 166 85 Z"/>
      <path id="Path 9" class="shp2" d="M 166 83 L 164.671 63.595 L 187 64 L 180 83 L 166 85 L 166 83 Z M 252 87 L 279 81 L 283.087 124.661 L 279.311 156.966 L 259 157 L 252 153 L 241.095 123.344 L 252 87 Z"/>
    </g>
    <g>
      <path id="Path 4" class="shp4" d="M 402 37 L 450 29 L 451 62 L 395.433 56.835 L 402 37 Z"/>
      <path id="Path 5" class="shp5" d="M 450.462 62 L 450 29 L 461 33 L 461 53 L 450.462 62 Z"/>
    </g>
    <g>
      <path id="Path 10" class="shp7" d="M 279 122 L 279 81 L 308 85 L 309.155 123.734 L 279 122 Z"/>
      <path id="Path 11" class="shp5" d="M 308 122 L 308 85 L 333 101 L 337.086 122.854 L 308 122 Z"/>
      <path id="Path 12" class="shp4" d="M 229 122 L 226 93 L 252 87 L 252 122 L 239 122 L 229 122 Z"/>
      <path id="Path 16" class="shp5" d="M 252 153 L 229 122 L 238.538 121.538 L 251.613 121.266 L 252 153 Z"/>
      <path id="Path 17" class="shp10" d="M 294.844 157.618 L 279 155 L 279 122 L 307 122 L 304 156 L 294.844 157.618 Z"/>
      <path id="Path 18" class="shp2" d="M 303.806 156.064 L 305.96 121.538 L 336.94 122.416 L 332.043 154.249 L 303.17 162.638 L 303.806 156.064 Z"/>
      <path id="Path 32" class="shp10" d="M 259 157 L 278 156 L 279 165 L 279 166 L 259 157 Z"/>
      <path id="Path 33" class="shp4" d="M 278.422 165.577 L 277.618 154.415 L 296 156 L 303.946 156.043 L 303.352 162.646 L 281 167 L 278.422 165.577 Z"/>
      <path id="Path 34" class="shp8" d="M 266.694 192.72 L 284.694 185.72 L 294.694 187.72 L 296.177 195.927 L 273.694 207.72 L 266.694 192.72 Z"/>
      <path id="Path 35" class="shp4" d="M 309.694 195.72 L 317.669 179.999 L 321.77 215.298 L 309.694 195.72 Z"/>
      <path id="Path 36" class="shp1" d="M 295.694 195.72 L 293.59 187.168 L 301.694 188.72 L 312.036 197.87 L 295.694 195.72 Z"/>
      <path id="Path 40" class="shp9" d="M 273.694 207.72 L 295.694 195.72 L 309.655 195.954 L 301.694 201.72 L 301.694 204.72 L 286.694 205.72 L 285.694 215.72 L 273.694 207.72 Z"/>
      <path id="Path 41" class="shp6" d="M 301.694 201.72 L 309.694 195.72 L 312.694 196.72 L 321.779 215.261 L 309.245 221.512 L 302.246 222.685 L 301.694 206.72 L 301.694 201.72 Z"/>
      <path id="Path 42" class="shp2" d="M 285.694 215.72 L 286.004 205.375 L 302.013 201.457 L 301.694 206.72 L 295.694 220.72 L 285.694 215.72 Z"/>
      <path id="Path 44" class="shp5" d="M 295.694 220.72 L 301.763 204.788 L 303.653 219.037 L 309.728 221.305 L 310.694 227.72 L 295.694 220.72 Z"/>
    </g>
    <g>
      <path id="Path 13" class="shp8" d="M 410 129 L 418 121 L 418.346 128.622 L 410 129 Z"/>
      <path id="Path 14" class="shp1" d="M 417.585 129.106 L 418 121 L 427 121 L 417.585 129.106 Z"/>
      <path id="Path 15" class="shp9" d="M 418 128 L 427 121 L 452 136 L 442 138 L 422 141 L 410 129 L 418 128 Z"/>
      <path id="Path 23" class="shp2" d="M 441.793 137.585 L 452 136 L 438 150 L 441.793 137.585 Z"/>
      <path id="Path 24" class="shp4" d="M 422 141 L 442.138 137.24 L 438 150 L 422 141 Z"/>
    </g>
    <g>
      <path id="Path 19" class="shp9" d="M 121 130 L 134 124 L 134 137 L 126.608 137.294 L 121 130 Z"/>
      <path id="Path 20" class="shp7" d="M 133.706 138.962 L 134 124 L 142 125 L 133.706 138.962 Z"/>
      <path id="Path 21" class="shp8" d="M 134 137 L 142 125 L 177 149 L 170 152 L 162 153.373 L 148.079 165.589 L 142 166 L 116 138 L 127 137 L 134 137 Z"/>
      <path id="Path 22" class="shp4" d="M 116 138 L 121 130 L 127.981 137.491 L 116 138 Z"/>
      <path id="Path 25" class="shp10" d="M 170 152 L 177 149 L 185 180 L 169.608 180 L 170 152 Z"/>
      <path id="Path 28" class="shp1" d="M 148 165 L 162 152 L 158.275 166.471 L 148 165 Z"/>
      <path id="Path 29" class="shp7" d="M 157 165 L 162 152 L 170 152 L 170 168.021 L 157 165 Z"/>
      <path id="Path 37" class="shp4" d="M 157 165 L 170 164 L 170 180 L 147 171 L 148 165 L 157 165 Z"/>
      <path id="Path 38" class="shp9" d="M 142 166 L 148.471 164.608 L 147 171 L 142 166 Z"/>
    </g>
    <path id="Path 27" class="shp4" d="M 1.325 170.038 L 29.089 150.172 L 57 169 L 46 187 L 28 187 L 1.325 170.038 Z"/>
    <path id="Path 30" class="shp9" d="M 293.694 181.237 L 317.698 179.953 L 309.696 195.787 L 294.578 188.413 L 284.694 185.72 L 293.694 181.237 Z"/>
    <g>
      <path id="Path 26" class="shp7" d="M 36.506 168.29 L 29 150 L 56 154 L 57 169 L 36.506 168.29 Z"/>
      <path id="Path 39" class="shp5" d="M 1.269 169.906 L 26.479 174.883 L 28 187 L 18 190 L 4.984 185.812 L 1.269 169.906 Z"/>
    </g>
    <path id="Path 43" class="shp9" d="M 309.107 221.443 L 321.837 215.205 L 310.694 227.72 L 309.107 221.443 Z"/>
    <path id="Path 45" class="shp8" d="M 348 239 L 389 217 L 423 234 L 404 254 L 378.611 271.246 L 348 288 L 343 289 L 337.27 255.024 L 348 253 L 348 239 Z"/>
    <g>
      <path id="Path 46" class="shp7" d="M 124 221 L 151 222 L 152.883 233.126 L 151 278 L 122 274 L 123 232 L 124 221 Z"/>
      <path id="Path 48" class="shp2" d="M 79 232 L 124 221 L 123 233.387 L 79 232 Z"/>
      <path id="Path 49" class="shp5" d="M 152 233 L 151 222 L 178 231 L 174 241 L 152 233 Z"/>
      <path id="Path 51" class="shp4" d="M 532.348 265.622 L 538 226 L 562 251 L 559.986 266.754 L 552 272 L 532.348 265.622 Z M 79 232 L 123.126 232 L 122 274 L 95 262 L 79 232 Z M 174 241 L 178 231 L 183 240 L 174 241 Z"/>
      <path id="Path 52" class="shp9" d="M 151 278 L 152 233 L 174 241 L 183 240 L 179 268 L 151 278 Z"/>
    </g>
    <g>
      <path id="Path 47" class="shp5" d="M 508 225 L 525 218 L 538 226 L 537 267 L 508 258 L 508 225 Z"/>
      <path id="Path 50" class="shp1" d="M 509.378 258.345 L 491 250 L 493 233 L 508 225 L 509.378 258.345 Z"/>
    </g>
    <path id="Path 55" class="shp1" d="M 337.348 255.18 L 348 239 L 348.701 253 L 337.348 255.18 Z M 379 270 L 376.429 260.061 L 386 254 L 386 262 L 386 270 L 379 270 Z"/>
    <path id="Path 64" class="shp4" d="M 234 316 L 245 302 L 261 304 L 280.537 379.803 L 244.532 371.399 L 235 371.798 L 220 372 L 211 358 L 217.33 339.926 L 234 316 Z"/>
    <path id="Path 65" class="shp10" d="M263 371L261 304L292 315L291 338L291 371L263 371Z"/>
    <g>
      <path id="Path 53" class="shp5" d="M 415 235 L 423 234 L 430 254 L 415 254 L 415 235 Z"/>
      <path id="Path 54" class="shp7" d="M 404 254 L 405.156 239.438 L 415 235 L 415 254 L 404 254 Z"/>
      <path id="Path 56" class="shp4" d="M 386 262 L 386 254 L 396 255 L 397.648 261.413 L 386 262 Z"/>
      <path id="Path 57" class="shp6" d="M 396 255 L 404 254 L 404.736 291.865 L 379.059 304.648 L 378 287 L 378.066 269.922 L 386 270 L 397 261 L 396 255 Z"/>
      <path id="Path 58" class="shp9" d="M 405 304 L 403.89 253.781 L 415.219 250.055 L 430 254 L 422 305 L 405 304 Z"/>
      <path id="Path 59" class="shp2" d="M 386 262 L 397 261 L 385.941 270.413 L 386 262 Z"/>
      <path id="Path 60" class="shp1" d="M 348 288 L 350 270 L 368 270 L 368 288 L 349 289 L 348 288 Z"/>
      <path id="Path 61" class="shp5" d="M 368 288 L 368 270 L 378.766 270 L 378 287 L 368 288 Z"/>
      <path id="Path 62" class="shp10" d="M 367.823 287.823 L 378 287 L 379.413 304.413 L 378 311 L 348 296 L 348.057 288.057 L 367.823 287.823 Z"/>
      <path id="Path 63" class="shp5" d="M 343 289 L 348 288 L 349 289 L 348 296 L 343 289 Z"/>
      <path id="Path 66" class="shp7" d="M 378 311 L 379.472 304.236 L 404.912 291.733 L 405 316 L 378 311 Z"/>
      <path id="Path 67" class="shp1" d="M 405 316 L 404.736 291.953 L 422 305 L 405 316 Z"/>
    </g>
    <path id="Path 68" class="shp2" d="M 290.612 345.761 L 283.286 312.048 L 347 334 L 290.612 345.761 Z"/>
    <path id="Path 69" class="shp7" d="M 220.789 335.138 L 233.425 316.862 L 232.962 335.069 L 220.789 335.138 Z"/>
    <path id="Path 72" class="shp9" d="M 290.806 344.403 L 347 334 L 389 354 L 384 355 L 373 371 L 355 371 L 338 371.687 L 291 371 L 290.806 344.403 Z"/>
    <g>
      <path id="Path 70" class="shp4" d="M 113.207 361.237 L 106 333 L 140 330 L 112 355 L 113.207 361.237 Z"/>
      <path id="Path 71" class="shp5" d="M 140 330 L 175 366 L 169 389 L 142 402 L 141 367 L 116 367 L 112 360 L 112 358 L 112 355 L 120.671 339.945 L 140 330 Z"/>
      <path id="Path 73" class="shp2" d="M 112 355 L 111.397 339.19 L 121 340 L 112 355 Z"/>
      <path id="Path 77" class="shp2" d="M 116 367 L 142.255 365.745 L 142 402 L 132 403 L 116 367 Z"/>
    </g>
    <path id="Path 74" class="shp1" d="M 384 355 L 389 354 L 394 364 L 381.601 371 L 384 355 Z"/>
    <path id="Path 75" class="shp7" d="M 373 371 L 371.074 357.527 L 384 355 L 382 371 L 373 371 Z"/>
    <path id="Path 76" class="shp8" d="M 381.867 369.67 L 394 364 L 404 388 L 402 405 L 384 405 L 374 406 L 346 428 L 290 412 L 309 405 L 338.569 386.42 L 355.144 387.851 L 355 371 L 373 371 L 381.867 369.67 Z"/>
    <path id="Path 78" class="shp7" d="M 291 371 L 337.902 363.25 L 339 388 L 309 405 L 290 412 L 282 410 L 281 408 L 291 371 Z M 220 372 L 235 371 L 234.687 385.841 L 220 372 Z"/>
    <path id="Path 79" class="shp10" d="M 234.532 385.702 L 235 371 L 244 371 L 234.532 385.702 Z"/>
    <path id="Path 80" class="shp6" d="M 234.39 385.727 L 244 371 L 262.868 370.563 L 261 399 L 234.39 385.727 Z"/>
    <path id="Path 81" class="shp9" d="M 260.425 370.707 L 291 371 L 289.352 403.421 L 281 408 L 261 399 L 260.425 370.707 Z"/>
    <path id="Path 82" class="shp1" d="M 339 388 L 338 371 L 373.464 370.747 L 355 389 L 339 388 Z M 309 405 L 311.73 390.149 L 339.027 387.966 L 309 405 Z M 383 422 L 374 406 L 384 405 L 383 415 L 383 422 Z"/>
    <path id="Path 83" class="shp9" d="M383 415L384 405L402 405L395 415L383 415Z"/>
    <path id="Path 84" class="shp7" d="M 383 415 L 395 415 L 388 424 L 383 422 L 383 415 Z M 346 428 L 374.025 406.033 L 366.222 430.759 L 346 428 Z"/>
    <path id="Path 85" class="shp4" d="M 366.228 430.747 L 369.429 420.25 L 373.938 406.052 L 383 422 L 388 424 L 366.228 430.747 Z"/>
  </g>
</svg>