<svg version="1.2" baseProfile="tiny-ps" xmlns="http://www.w3.org/2000/svg" viewBox="0 0 474 487" width="474" height="487">
	<title>Background</title>
	<style>
		tspan { white-space:pre }
		.shp0 { fill: #ffffff } 
		.shp1 { fill: #0ed145 } 
		.shp2 { fill: #000000 } 
	</style>
	<g id="Background">
		<path id="Path 0" class="shp0" d="M157 2C155.75 3.25 154.77 5.98 154.38 9.25C153.99 12.52 154.25 16.01 155.06 18.5C155.85 20.9 158.5 24.6 161.68 27.75L167 33C165.9 49.61 166.07 50.96 168.17 55C169.9 58.35 172.29 60.67 177.5 64.07C181.35 66.59 186.41 69.4 188.75 70.32C191.09 71.25 195.02 72 197.5 72C199.97 72 203.01 71.61 204.25 71.14C205.49 70.67 208.02 68.75 209.88 66.89C211.74 65.03 215.17 59.45 217.51 54.5C219.85 49.55 222.32 43.7 223 41.5C223.69 39.3 225.43 35.94 226.87 34.04C228.32 32.14 231.52 29.31 234 27.76C236.47 26.2 240.25 24.38 242.39 23.72C244.53 23.05 246.89 21.6 247.65 20.5C248.4 19.4 249.01 16.81 249.01 14.75C249 11.97 248.29 10.31 246.25 8.35C244.02 6.2 242.93 5.83 240.5 6.38C238.85 6.76 237.16 7.73 236.75 8.53C236.34 9.34 233.64 11.07 230.75 12.37C227.86 13.68 223.59 16.15 221.25 17.87C218.91 19.59 215.19 23.81 212.97 27.25C210.76 30.69 208.95 34.17 208.95 35C208.94 35.82 206.7 41.11 203.97 46.75C199.84 55.26 198.62 57 196.75 56.98C195.51 56.98 191.46 55.18 187.75 52.98L181 49C181.38 30.85 181.06 27.81 179.8 25.5C178.9 23.85 176.07 20.47 173.51 18C169 13.64 168.88 13.36 169.51 9C170.06 5.12 169.83 4.18 167.83 2.22C166.35 0.78 164.31 -0.04 162.25 -0.03C160.36 -0.01 158.16 0.84 157 2Z" />
		<path id="Path 1" class="shp1" d="M147 5.67C145.07 5.87 140.57 6.49 137 7.06C133.42 7.63 127.57 8.8 124 9.67C120.42 10.54 112.55 13.5 106.5 16.25C100.45 19 92.46 22.99 88.75 25.13C85.04 27.26 81.14 29 80.1 29C79.05 29 76.62 30.57 74.7 32.5C71.73 35.47 70.51 36 66.68 36C63.71 36 61.7 36.56 60.83 37.63C60.1 38.53 54.1 41.85 47.5 45.01C37.65 49.73 34.22 52 28.35 57.63C24.42 61.41 18.79 66.75 15.84 69.5C12.89 72.25 9.06 76.97 7.32 80C5.59 83.02 3.38 88.2 2.41 91.5C1.29 95.27 0.66 100.66 0.69 106C0.72 112.03 1.38 116.39 2.95 121C4.16 124.57 6.44 129.52 8 132C9.56 134.47 13.24 138.77 16.17 141.54C19.1 144.31 23.07 147.55 25 148.74C26.92 149.93 31.2 151.84 34.5 152.99C37.8 154.14 43.99 155.4 48.26 155.79C52.52 156.18 56.01 156.16 56.01 155.75C56 155.34 54.82 153.54 53.37 151.75C50.97 148.79 50.79 147.97 51.36 142.5C51.7 139.2 52.43 132.45 52.98 127.5C53.53 122.55 54.62 116.47 55.4 114C56.61 110.13 56.61 108.45 55.41 102C54.63 97.87 54.01 92.47 54.01 90C54.02 87.26 55.03 83.35 56.6 80C58.22 76.56 61.55 72.25 65.49 68.5C68.96 65.2 74.66 60.8 78.15 58.72C81.64 56.64 86.97 54.22 90 53.34C93.3 52.39 97.3 51.96 100 52.27C102.47 52.56 108.55 54.81 113.5 57.27C118.45 59.73 123.85 62.86 125.5 64.22C127.39 65.79 130.07 70.26 132.75 76.35C136.43 84.7 137 86.94 137 93C137 97.48 137.59 101.17 138.63 103.25C139.53 105.04 142.01 108.41 144.13 110.75C146.26 113.09 148.27 116.01 148.61 117.25C148.94 118.49 148.94 120.74 148.61 122.25C148.27 123.76 146.99 125.91 145.75 127.02L143.5 129.04C186.12 128.99 199.17 128.55 200 128.05C201.31 127.24 201.29 126.9 199.78 125.31C198.81 124.3 198.05 121.95 198.06 120C198.06 117.26 198.87 115.74 201.79 113C203.85 111.07 208.84 106.8 212.89 103.5C216.94 100.2 221.21 96.77 222.38 95.89C223.55 95 228.77 92.38 234 90.07C242.13 86.47 244.15 85.95 248 86.46C250.47 86.78 255.2 87.42 258.5 87.87C262.46 88.41 267.4 90.19 273 93.1C277.67 95.53 282.96 98.52 284.75 99.76C286.54 100.99 289.24 104.14 290.75 106.75C293.18 110.95 293.49 112.48 293.43 120C293.38 126.54 292.85 129.65 291.13 133.5C289.9 136.25 287.64 139.85 286.09 141.5C284.55 143.15 281.67 146.97 279.69 150C277.48 153.38 274.05 156.84 270.79 158.98C267.88 160.89 263.47 164.13 261 166.17C258.52 168.21 254.25 170.65 251.5 171.59C247.55 172.93 244.19 173.19 235.5 172.82C226.82 172.45 223.6 171.89 220.25 170.17C217.91 168.98 215.25 166.76 214.33 165.25C213.13 163.28 212.84 161.44 213.33 158.75C213.7 156.69 213.66 154.99 213.25 154.97C212.84 154.96 210.92 156.04 209 157.39C207.07 158.73 201.45 161.85 196.5 164.31C191.55 166.77 181.42 172.79 174 177.69C166.57 182.58 157.12 188.43 153 190.68C148.87 192.92 141.45 196.43 136.5 198.47C131.55 200.51 123.57 204.27 118.76 206.84C113.95 209.4 110.01 211.95 110 212.5C109.99 213.05 112.8 213.85 116.24 214.27C119.68 214.7 124.97 216.19 128 217.58C131.02 218.97 134.78 221.33 136.34 222.81C137.9 224.29 139.81 226.74 140.59 228.25C141.42 229.88 142 233.96 141.99 238.25C141.99 243.06 142.49 246.26 143.49 247.75C144.47 249.21 147.72 250.88 152.75 252.5C157.2 253.94 162.63 256.61 165.5 258.78C168.25 260.86 172.01 264.79 173.84 267.53C176.99 272.2 177.17 272.93 176.84 279.66C176.54 285.9 176.1 287.3 173.39 290.66C171.69 292.77 168.76 295.4 166.89 296.5C163.96 298.23 161.32 298.55 147.5 298.84C131.71 299.17 131.35 299.23 120 303.26C108.87 307.21 108.08 307.34 95.5 307.41C88.26 307.45 76.96 306.72 70 305.76C63.12 304.82 55.14 304.03 52.25 304.02C49.36 304.01 46.27 303.66 45.38 303.25C44.49 302.84 42.8 301.01 41.63 299.19C40.46 297.36 39.21 296.24 38.85 296.69C38.49 297.13 37.06 301.1 35.69 305.5C34.31 309.9 32.69 317.1 32.09 321.5C31.49 325.9 30.92 338.95 30.81 350.5C30.66 367.51 30.95 372.83 32.35 378.5C33.3 382.35 35.94 389.32 38.21 394C41.47 400.7 44.05 404.21 50.42 410.59C54.86 415.05 64.13 423.16 71 428.63C77.87 434.1 86.8 440.59 90.84 443.04C94.87 445.49 100.27 448.67 102.84 450.1C105.4 451.53 111.1 454.8 115.5 457.36C119.9 459.93 128.22 464.02 134 466.46C139.77 468.9 149.9 472.43 156.5 474.32C163.1 476.2 170.41 478.02 172.75 478.37C175.09 478.72 177 478.77 177 478.5C177 478.22 176.55 477.1 176 476C175.36 474.72 175.32 471.75 175.89 467.75C176.38 464.31 178.27 457.67 180.09 453C182.05 447.93 184.82 442.93 186.94 440.61C188.9 438.47 193.2 434.7 196.5 432.23C199.8 429.75 203.53 426.56 204.79 425.12C206.05 423.68 208.75 419.38 210.79 415.56C212.83 411.74 216.52 406.62 219 404.18C221.47 401.73 225.3 398.84 227.5 397.75C229.7 396.66 233.3 395.72 235.5 395.67C238.3 395.6 241 396.47 244.5 398.58C247.25 400.24 251.52 404.1 254 407.15C256.47 410.21 259.05 414.46 259.73 416.61C260.46 418.89 260.97 426.17 260.98 434.25C260.99 441.81 261.72 453.96 262.59 461.25C263.47 468.54 264.01 476.52 263.78 479C263.55 481.47 263.17 484.17 262.93 485C262.56 486.28 264.29 486.49 274.5 486.46C284.54 486.43 289.36 485.8 304 482.64C314.13 480.45 325.5 477.25 331 475.05C336.22 472.96 342.61 470.18 345.18 468.88C347.76 467.57 353.16 464.67 357.18 462.43C361.21 460.19 367.87 456.14 371.99 453.43C376.11 450.72 382.64 445.35 386.5 441.5C390.36 437.65 394.79 432.92 396.36 431C397.92 429.07 400.01 426.15 401.01 424.5C402.01 422.85 411.08 413.57 421.16 403.88C431.25 394.18 441.97 384.1 445 381.48C448.02 378.85 452.86 373.96 455.75 370.6C458.64 367.25 463.01 360.45 465.47 355.5C467.93 350.55 470.64 343.57 471.49 340C472.34 336.42 473.32 328.32 473.68 322C474.09 314.57 473.87 307.67 473.07 302.5C472.38 298.1 470.66 291.57 469.25 288C467.84 284.42 465 278.8 462.94 275.5C460.88 272.2 456 266.46 452.1 262.75C447.15 258.04 442.5 254.79 436.75 252.01C432.21 249.81 425.57 247.25 422 246.32C417.96 245.26 411.71 244.63 405.5 244.64C399.12 244.65 393.15 245.29 389 246.41C385.42 247.38 378.45 250.27 373.5 252.83C367.59 255.88 362.15 259.71 357.63 263.99C353.86 267.57 348.23 274.32 345.13 279C342.03 283.67 337.31 292.45 334.63 298.5C331.96 304.55 328.15 312.87 326.18 317C323.38 322.85 320.28 326.92 312.09 335.5C306.31 341.55 299.77 348.4 297.54 350.73L293.5 354.96C296.73 358.48 299.55 364.11 301.84 369.75C305 377.54 306.26 382.34 307.09 389.75C307.69 395.11 308.84 402.65 309.64 406.5C310.44 410.35 311.89 415.3 312.86 417.5C314.37 420.9 315.22 421.61 318.57 422.24C320.73 422.65 324.3 422.99 326.5 423.01L330.5 423.05C337.87 405.43 338.31 403.39 338.77 393.5C339.1 386.47 338.84 380.51 338.04 377C337.36 373.97 335.34 369.25 333.56 366.5C331.78 363.75 328.69 357.9 326.69 353.5C324.55 348.77 322.79 343.05 322.39 339.5C322.03 336.2 322.01 331.81 322.36 329.75C322.71 327.69 323.9 325.1 325 324C326.16 322.84 328.37 321.99 330.25 321.97C332.31 321.95 334.23 322.72 335.5 324.07C337.14 325.82 337.45 327.37 337.25 332.61C337.04 337.91 337.53 340.23 340.14 346.25C341.87 350.24 344.99 356.2 347.06 359.5C349.14 362.8 351.59 368.42 352.51 372C353.79 376.97 354.1 381.79 353.84 392.5C353.5 406.31 353.44 406.66 349 418.34C346.44 425.09 343.21 431.68 341.5 433.66C339.52 435.94 337.14 437.43 334.5 438.01C331.92 438.58 326.94 438.44 320.5 437.62C314.05 436.8 309.26 435.61 307 434.27C305 433.08 302.36 430.12 300.85 427.35C299.39 424.68 297.22 419.35 296.02 415.5C294.83 411.65 293.2 402.87 292.4 396C291.24 386.1 290.08 381.21 286.79 372.5C284.51 366.45 282.5 361.39 282.32 361.25C282.14 361.11 280.99 361.62 279.75 362.39C278.51 363.15 275.25 364.49 272.5 365.38C269.75 366.26 263.22 367.42 258 367.97C251.32 368.66 246.72 368.62 242.5 367.83C239.2 367.22 234.02 365.94 231 364.99C227.97 364.04 223.47 362.69 221 361.98C218.52 361.27 213.8 359.43 210.5 357.89C207.2 356.35 202.74 354.73 200.58 354.29C196.74 353.52 196.68 353.55 197.42 356C197.88 357.53 197.65 359.6 196.83 361.32C196.03 363.03 193.71 365 191 366.29C188.52 367.47 183.12 370.8 179 373.7C174.87 376.59 168.2 381.33 164.18 384.23C160.15 387.13 155.87 391.03 154.68 392.9C153.48 394.77 150.7 397.33 148.5 398.59C146.3 399.85 140 402.08 134.5 403.54C127.74 405.33 120.78 406.37 113 406.74C105.67 407.09 100.14 406.87 97.75 406.14C95.08 405.33 93.38 403.92 91.84 401.25C89.96 398 89.74 396.43 90.17 389.5C90.56 383.15 91.3 380.26 93.75 375.5C96.17 370.79 97.06 367.36 97.89 359.5C98.68 351.97 99.67 348.02 101.87 343.5C103.62 339.93 106.97 335.47 110.15 332.49C113.67 329.2 118.07 326.39 123 324.32C127.12 322.59 133.42 320.64 137 320C140.57 319.36 146.65 317.45 150.5 315.76C156.37 313.17 159.11 312.6 167.5 312.23C176.53 311.83 177.77 311.99 180.25 313.89C182.17 315.36 183 316.91 183 319C183 320.74 183.53 322 184.25 321.99C184.94 321.99 189.66 318.95 194.74 315.24C199.83 311.53 208.33 305.8 213.64 302.5C218.94 299.2 225.7 294.59 228.64 292.25C231.59 289.91 236.81 286.72 240.25 285.16C243.69 283.6 252.35 278.69 259.5 274.25C266.65 269.81 274.41 264.79 276.75 263.09C279.09 261.39 284.6 258.65 289 257C293.4 255.35 297 253.55 297 253C297 252.45 293.56 249.86 289.34 247.25C285.13 244.64 280.41 241.04 278.84 239.25C277.28 237.46 274.42 232.85 272.5 229C269.69 223.38 268.46 221.89 266.25 221.45C264.74 221.15 261.7 220.42 259.5 219.83C257.3 219.24 252.8 217 249.5 214.86C244.56 211.66 242.62 210.97 238.5 210.98L233.5 210.98C231.68 217.58 231.35 219.72 231.59 220C231.84 220.27 232.57 219.94 233.22 219.25C233.87 218.56 235.55 217.98 236.95 217.97C238.35 217.95 240.74 218.85 242.25 219.97C243.93 221.21 245.56 223.85 246.45 226.75C247.24 229.36 248.19 233.75 248.56 236.5C248.92 239.25 249.77 242.4 250.45 243.5C251.13 244.6 252.94 246.85 254.48 248.5C256.01 250.15 258.56 254.2 260.13 257.5C261.71 260.8 263 264.29 263 265.25C263 266.21 261.9 268.12 260.55 269.5C259.11 270.96 256.93 272.01 255.3 272.03C253.62 272.04 251.69 271.14 250.49 269.78C249.38 268.52 247.61 265.92 246.56 264C245.5 262.07 242.97 258.47 240.93 256C238.89 253.52 236.5 250.04 235.61 248.25C234.73 246.46 233.99 243.31 233.97 241.25C233.95 239.19 233.06 235.02 232 232C230.94 228.97 230.05 225.71 230.03 224.75C230.01 223.79 229.44 223.15 228.75 223.34C228.06 223.52 226.74 224.98 225.8 226.59C224.87 228.19 223.41 232.2 222.55 235.5C221.69 238.8 220.99 244.65 221 248.5C221.01 252.35 221.49 257.3 222.08 259.5C222.67 261.7 224.1 265.52 225.25 268C226.4 270.47 228.39 273.74 229.67 275.25C231.36 277.24 232 279.24 232 282.5C232 285.67 231.41 287.59 230 289C228.9 290.1 226.76 291 225.25 291.01C223.74 291.01 221.49 290.34 220.25 289.51C219.01 288.68 218 287.55 218 287C218 286.45 215.78 282.06 213.07 277.25C209.26 270.49 207.74 266.45 206.38 259.5C204.92 252 204.8 249 205.65 241.5C206.33 235.49 207.72 230.01 209.83 225C211.56 220.87 214.03 216.37 215.31 215C216.72 213.49 217.91 210.62 218.32 207.75C218.7 205.14 219.63 201.99 220.41 200.75C221.18 199.51 223.32 197.82 225.16 197C227.37 196.01 231.04 195.58 236 195.73C240.12 195.85 245.52 196.56 248 197.3C250.47 198.04 254.75 200.21 257.5 202.13C260.64 204.32 264.36 205.91 267.5 206.41C270.25 206.85 273.62 207.79 275 208.51C276.37 209.23 278.69 211.1 280.14 212.66C281.6 214.22 284.14 218.2 285.8 221.5C287.46 224.8 290.09 228.73 291.66 230.23C293.22 231.74 296.93 234.44 299.91 236.23C303.95 238.68 305.61 240.38 306.47 243L307.62 246.5C315.07 239.52 322.96 228.95 329.97 218.5C336.97 208.05 343.89 197.14 345.35 194.25C346.81 191.36 349.79 182.81 351.97 175.25C354.16 167.69 356.64 157.45 357.48 152.5C358.48 146.65 359.01 137.2 359 125.5C358.99 112.77 358.41 103.69 357.02 94.5C355.95 87.35 354.34 78.8 353.46 75.5C352.58 72.2 350.32 66.35 348.43 62.5C346.54 58.65 342.61 52.35 339.68 48.5C336.75 44.65 331.84 39.47 328.77 37C325.7 34.52 317.63 29.36 310.84 25.52C304.05 21.68 294.67 17.08 290 15.3C285.32 13.52 280.94 12.05 280.25 12.03C279.56 12.01 279 11.44 279.01 10.75C279.01 9.93 276.5 9.24 271.76 8.74C267.77 8.32 260.45 7.68 255.5 7.31C246.85 6.67 246.54 6.72 247.41 8.57C247.91 9.63 248.5 12.3 248.72 14.5C248.95 16.9 248.55 19.3 247.71 20.5C246.95 21.6 244.56 23.05 242.41 23.72C240.26 24.38 236.47 26.2 234 27.76C231.52 29.31 228.32 32.14 226.87 34.04C225.43 35.94 223.69 39.3 223 41.5C222.32 43.7 219.85 49.55 217.51 54.5C215.17 59.45 211.74 65.03 209.88 66.89C208.02 68.75 205.49 70.67 204.25 71.14C203.01 71.61 199.97 72 197.5 72C195.02 72 191.09 71.25 188.75 70.32C186.41 69.4 181.35 66.59 177.5 64.07C172.29 60.67 169.9 58.35 168.17 55C166.07 50.96 165.9 49.61 166.42 41.75L167 33C158.51 24.61 155.84 20.89 155.06 18.5C154.25 16.05 153.99 12.66 154.37 9.75C154.96 5.28 154.87 5.01 152.75 5.16C151.51 5.25 148.92 5.48 147 5.67ZM170.16 6.12C170.09 6.88 169.75 8.85 169.41 10.5C168.87 13.13 169.37 14.06 173.48 18C176.06 20.47 178.9 23.85 179.8 25.5C181.06 27.81 181.38 30.85 181.22 38.75L181 49C191.46 55.18 195.51 56.98 196.75 56.98C198.62 57 199.84 55.26 203.97 46.75C206.7 41.11 208.94 35.82 208.95 35C208.95 34.17 210.67 30.8 212.76 27.5C214.86 24.2 218.33 20.15 220.48 18.5C222.62 16.85 227.03 14.15 230.27 12.5C233.51 10.85 236.24 9.05 236.33 8.5C236.44 7.86 225.94 7.28 207.5 6.89C191.55 6.56 176.66 5.94 174.4 5.52C171.24 4.92 170.27 5.06 170.16 6.12Z" />
		<path id="Path 2" class="shp2" d="M191.51 13.25C189.57 14.92 188.63 17.05 187.87 21.5C187.3 24.8 186.63 32 186.38 37.5C185.94 46.92 186.04 47.63 188.2 49.78C189.47 51.03 191.62 52.06 193 52.07C194.37 52.08 196.62 51.21 198 50.13C200.22 48.4 200.59 47.14 201.28 38.84C201.71 33.7 202.32 26.35 202.64 22.5C203.21 15.69 203.15 15.44 200.36 13.22C198.79 11.96 196.74 10.95 195.81 10.97C194.88 10.98 192.94 12.01 191.51 13.25Z" />
		<path id="Path 3" class="shp0" d="M88.48 53.72C85.72 54.7 80.85 57.07 77.65 59C74.45 60.92 68.99 65.2 65.51 68.5C61.54 72.27 58.22 76.55 56.6 80C55.03 83.35 54.02 87.26 54.01 90C54.01 92.47 54.63 97.87 55.41 102C56.61 108.45 56.61 110.13 55.4 114C54.62 116.47 53.53 122.55 52.98 127.5C52.43 132.45 51.7 139.2 51.36 142.5C50.79 147.97 50.97 148.79 53.37 151.75C55.17 153.97 56.87 155.01 58.75 155.03C60.35 155.04 62.39 154.1 63.62 152.78C65.16 151.12 65.92 148.6 66.42 143.5C66.79 139.65 67.51 133.12 68.02 129C68.54 124.87 69.57 118.8 70.33 115.5C71.39 110.87 71.47 107.9 70.67 102.5C70.11 98.65 69.61 93.32 69.57 90.65C69.5 85.92 69.66 85.66 76.5 79.22C80.57 75.38 86.01 71.45 89.5 69.81C92.8 68.27 96.4 66.99 97.5 66.98C98.6 66.98 103.18 68.89 107.68 71.23C115.81 75.47 115.88 75.55 118.93 82.5C121.29 87.87 122 90.95 122 95.75C122 99.76 122.78 104.06 124.18 107.75C125.38 110.91 127.99 115.3 129.98 117.5C131.96 119.7 134.13 122.74 134.79 124.25C135.46 125.76 137.12 127.45 138.5 128C139.87 128.55 141.56 129.01 142.25 129.02C142.94 129.03 144.51 128.13 145.75 127.02C146.99 125.91 148.27 123.76 148.61 122.25C148.94 120.74 148.94 118.49 148.61 117.25C148.27 116.01 146.26 113.09 144.13 110.75C142.01 108.41 139.53 105.04 138.63 103.25C137.59 101.17 137 97.48 137 93C137 86.94 136.43 84.7 132.75 76.35C130.07 70.26 127.39 65.79 125.5 64.22C123.85 62.86 118.45 59.72 113.5 57.25C107.01 54 102.96 52.64 99 52.35C95.36 52.08 91.8 52.55 88.48 53.72Z" />
		<path id="Path 4" class="shp1" d="M89.5 69.81C86.01 71.45 80.57 75.38 76.5 79.22C69.66 85.66 69.5 85.92 69.57 90.65C69.61 93.32 70.11 98.65 70.67 102.5C71.47 107.9 71.39 110.87 70.33 115.5C69.57 118.8 68.54 124.87 68.02 129C67.51 133.12 66.79 139.65 66.42 143.5C65.92 148.62 65.17 151.1 63.62 152.75L61.5 154.99C67.7 154.32 72.65 152.98 76.5 151.58C81.7 149.69 85.49 149.04 91.25 149.02C95.74 149.01 99 148.58 99 148C99 147.45 100.24 146.54 101.75 145.97C103.26 145.4 105.46 144.39 106.63 143.72C107.8 143.05 110.5 141.05 112.63 139.27C114.76 137.5 118.3 135.15 120.5 134.04C122.7 132.94 127.65 131.52 131.5 130.9C135.35 130.28 138.95 129.52 139.5 129.21C140.05 128.91 139.49 128.29 138.25 127.83C137.01 127.37 135.46 125.76 134.79 124.25C134.13 122.74 131.96 119.7 129.98 117.5C127.99 115.3 125.38 110.91 124.18 107.75C122.78 104.06 122 99.76 122 95.75C122 90.95 121.29 87.87 118.93 82.5C115.88 75.55 115.81 75.47 107.68 71.23C103.18 68.89 98.6 66.98 97.5 66.98C96.4 66.99 92.8 68.27 89.5 69.81Z" />
		<path id="Path 5" class="shp2" d="M91.5 86.8C89.85 87.79 87.49 90.6 86.26 93.05C84.62 96.33 84.02 99.28 84.01 104.25C84.01 108.47 84.6 112.22 85.61 114.25C86.73 116.5 87.03 118.81 86.61 121.75C86.21 124.54 86.51 127.2 87.5 129.5C88.37 131.53 89.94 133.25 91.25 133.61C92.49 133.94 94.74 133.94 96.25 133.61C98.16 133.19 99.46 131.93 100.5 129.5C101.32 127.57 101.98 123.41 101.96 120.25C101.93 117.09 101.26 112.7 100.47 110.5C99.68 108.3 99.02 105.26 99.02 103.75C99.01 102.24 99.92 99.76 101.03 98.25C102.15 96.74 103.05 94.04 103.03 92.25C103.01 89.89 102.25 88.44 100.25 86.97C98.74 85.85 96.82 84.95 96 84.97C95.17 84.99 93.15 85.82 91.5 86.8Z" />
		<path id="Path 6" class="shp0" d="M233.39 90.31C228.38 92.61 223.37 95.17 222.26 96C221.14 96.82 216.92 100.2 212.88 103.5C208.83 106.8 203.85 111.07 201.79 113C198.86 115.75 198.06 117.25 198.07 120C198.07 121.92 198.84 124.46 199.78 125.63C200.73 126.81 202.62 128.07 204 128.44C205.97 128.97 207.35 128.38 210.5 125.66C212.7 123.76 217.87 119.3 222 115.75C226.12 112.19 232.31 107.87 235.75 106.14C241.3 103.35 242.98 102.99 250.75 102.96C257.48 102.92 259.85 103.28 261 104.5C261.82 105.37 264.71 106.85 267.41 107.79C270.11 108.73 273.6 110.74 275.16 112.25C277.81 114.81 277.98 115.47 277.75 121.95C277.51 128.6 277.32 129.1 273.39 133.2C271.12 135.57 268.5 138.85 267.56 140.5C266.62 142.15 263.97 144.81 261.68 146.41C259.38 148.01 255.25 151.02 252.5 153.09C247.68 156.73 247.17 156.88 238.35 157.18C229.47 157.49 229.12 157.42 226.6 154.75C224.69 152.73 223.01 151.99 220.25 151.96C218.19 151.93 215.93 152.49 215.24 153.21C214.55 153.92 213.69 156.3 213.32 158.5C212.84 161.41 213.11 163.25 214.33 165.25C215.25 166.76 217.91 168.98 220.25 170.17C223.6 171.89 226.82 172.45 235.5 172.82C244.19 173.19 247.55 172.93 251.5 171.59C254.25 170.65 258.52 168.21 261 166.17C263.47 164.13 267.88 160.89 270.79 158.98C274.05 156.84 277.48 153.38 279.69 150C281.67 146.97 284.55 143.15 286.09 141.5C287.64 139.85 289.9 136.25 291.13 133.5C292.85 129.65 293.38 126.54 293.43 120C293.49 112.48 293.18 110.95 290.75 106.75C289.24 104.14 286.54 100.99 284.75 99.76C282.96 98.52 277.67 95.53 273 93.1C267.09 90.03 262.52 88.42 258 87.81C254.42 87.33 249.47 86.75 247 86.52C243.31 86.19 240.86 86.87 233.39 90.31Z" />
		<path id="Path 7" class="shp1" d="M235.5 106.19C232.2 107.9 226.12 112.19 222 115.74C217.87 119.28 213.04 123.49 211.25 125.09C209.46 126.69 208.34 128.24 208.75 128.53C209.16 128.82 210.62 129.06 212 129.07C213.37 129.08 216.19 129.74 218.25 130.54C221.97 131.99 222 131.98 222 129.5C222 127.94 223.04 126.22 224.75 124.93C226.76 123.41 228.37 123 230.75 123.43C233.2 123.86 235.29 123.29 239.25 121.09C242.14 119.48 246.75 117.85 249.5 117.46C252.25 117.06 255.74 116.12 257.25 115.37C258.76 114.62 261.12 114 262.5 114C263.87 114 265.9 114.9 267 116C268.24 117.24 269 119.33 269 121.5C269 124.17 268.29 125.6 266 127.5C264.23 128.98 260.65 130.45 257.25 131.1C254.09 131.7 248.12 133.72 244 135.59C239.58 137.59 234.86 138.99 232.5 139.01C230.3 139.02 227.6 138.37 226.5 137.55C225.4 136.73 224.16 136.05 223.75 136.03C223.34 136.01 223.11 138.58 223.25 141.74C223.47 146.85 223.25 147.6 221.25 148.49C220.02 149.05 218.78 150.06 218.5 150.75C218.17 151.58 219 152 221 152C222.98 152 224.89 152.94 226.6 154.75C229.12 157.42 229.47 157.49 238.35 157.18C247.17 156.88 247.68 156.73 252.5 153.09C255.25 151.02 259.38 148.01 261.68 146.41C263.97 144.81 266.62 142.15 267.56 140.5C268.5 138.85 271.12 135.57 273.39 133.2C277.32 129.1 277.51 128.6 277.75 121.95C277.98 115.47 277.81 114.81 275.16 112.25C273.6 110.74 270.11 108.73 267.41 107.79C264.71 106.85 261.82 105.37 261 104.5C259.83 103.26 257.51 102.93 250.5 103C242.5 103.09 240.84 103.44 235.5 106.19Z" />
		<path id="Path 8" class="shp2" d="M257 115.41C255.62 116.14 252.25 117.07 249.5 117.46C246.75 117.85 242.14 119.48 239.25 121.09C235.12 123.38 233.21 123.88 230.29 123.43C227.4 122.99 226.07 123.32 224.29 124.93C222.79 126.29 222.01 128.12 222.02 130.25C222.02 132.04 222.36 133.98 222.77 134.56C223.17 135.14 224.62 136.38 226 137.32C227.37 138.25 230.3 139.01 232.5 139C234.88 138.99 239.54 137.6 244 135.59C248.12 133.72 254.09 131.7 257.25 131.1C260.65 130.45 264.23 128.98 266 127.5C268.29 125.6 269 124.17 269 121.5C269 119.33 268.24 117.24 267 116C265.9 114.9 263.76 114.02 262.25 114.04C260.74 114.06 258.37 114.68 257 115.41Z" />
		<path id="Path 9" class="shp0" d="M226.5 196.5C224.3 197.3 221.74 198.98 220.82 200.23C219.89 201.48 218.87 203.85 218.56 205.5C218.24 207.15 217.98 209.29 217.99 210.25C217.99 211.21 216.87 213.24 215.49 214.75C214.11 216.26 211.56 220.87 209.83 225C207.72 230.01 206.33 235.49 205.65 241.5C204.8 249 204.92 252 206.38 259.5C207.74 266.45 209.26 270.49 213.07 277.25C215.78 282.06 218 286.45 218 287C218 287.55 219.01 288.68 220.25 289.51C221.49 290.34 223.74 291.01 225.25 291.01C226.76 291 228.9 290.1 230 289C231.41 287.59 232 285.67 232 282.5C232 279.24 231.36 277.24 229.67 275.25C228.39 273.74 226.39 270.47 225.23 268C224.07 265.52 222.57 261.25 221.9 258.5C221.17 255.47 220.91 250.15 221.24 245C221.55 240.11 222.65 234.17 223.85 231C224.98 227.97 227.06 224.37 228.47 223C229.87 221.62 231.57 218.36 232.26 215.74L233.5 210.97C242.61 210.97 244.56 211.66 249.5 214.86C252.8 217 257.3 219.24 259.5 219.83C261.7 220.42 264.74 221.15 266.25 221.45C268.48 221.9 269.8 223.53 273.25 230.15C275.59 234.64 279.07 239.7 281 241.4C282.92 243.11 287.76 246.41 291.75 248.75C298.53 252.72 299.2 252.92 302.13 251.75C303.85 251.06 305.7 249.6 306.24 248.5C306.78 247.4 306.95 245.04 306.61 243.25C306.14 240.73 304.96 239.39 301.32 237.25C298.75 235.74 294.87 232.92 292.7 231C290.53 229.07 287.41 224.8 285.77 221.5C284.13 218.2 281.6 214.22 280.14 212.66C278.69 211.1 276.37 209.23 275 208.51C273.62 207.79 270.25 206.85 267.5 206.41C264.36 205.91 260.64 204.32 257.5 202.13C254.75 200.21 250.7 198.11 248.5 197.46C246.3 196.81 241.35 196 237.5 195.66C232.54 195.23 229.33 195.47 226.5 196.5ZM100 215C98.84 216.16 97.99 218.36 97.97 220.25C97.96 222.35 98.76 224.28 100.22 225.69C101.94 227.34 104.59 228.14 111 228.95C115.67 229.55 121.07 230.85 123 231.86C126.49 233.68 126.5 233.72 127.09 242.09C127.42 246.84 128.4 251.92 129.34 253.75C130.25 255.54 132.01 257.94 133.25 259.09C134.49 260.24 137.52 262.2 140 263.45C142.47 264.7 146.75 266.44 149.5 267.33C152.25 268.21 156.19 270.52 158.25 272.46C160.96 275.02 162 276.83 162 279C162 281.27 161.39 282.24 159.5 283C157.96 283.61 151.89 283.74 143.75 283.34L130.5 282.67C102.04 292.02 101.16 292.18 92.5 291.71C87.55 291.45 74.95 290.5 64.5 289.61C49.11 288.29 45.06 288.23 43.19 289.24C41.91 289.93 40.63 291.4 40.34 292.5C40.05 293.6 40.06 295.4 40.36 296.5C40.66 297.6 42.06 299.74 43.46 301.25C45.66 303.63 46.77 304 51.75 304.02C54.91 304.03 63.12 304.82 70 305.76C76.96 306.72 88.26 307.45 95.5 307.41C108.08 307.34 108.87 307.21 120 303.26C131.35 299.23 131.71 299.17 147.5 298.84C161.32 298.55 163.96 298.23 166.89 296.5C168.76 295.4 171.69 292.77 173.39 290.66C176.1 287.3 176.54 285.9 176.84 279.66C177.17 272.93 176.99 272.2 173.84 267.53C172.01 264.79 168.25 260.86 165.5 258.78C162.63 256.61 157.2 253.94 152.75 252.5C147.72 250.88 144.47 249.21 143.49 247.75C142.49 246.26 141.99 243.06 141.99 238.25C142 233.96 141.42 229.88 140.59 228.25C139.81 226.74 137.9 224.29 136.34 222.81C134.78 221.33 131.02 218.99 128 217.62C124.97 216.25 119.01 214.65 114.75 214.07C110.49 213.48 105.87 213 104.5 213C103.12 213 101.1 213.9 100 215Z" />
		<path id="Path 10" class="shp1" d="M84.94 224.91C79.2 228.71 71.84 234.22 68.6 237.16C65.35 240.1 60.77 245.2 58.42 248.5C56.06 251.8 52.36 258.32 50.18 263C48 267.67 44.93 275.42 43.36 280.2C41.79 284.99 40.83 289.26 41.23 289.7C41.63 290.14 42.71 289.93 43.64 289.24C45.01 288.22 48.99 288.29 64.42 289.6C74.91 290.49 87.55 291.45 92.5 291.71C101.16 292.18 102.04 292.03 116 287.44L130.5 282.67C151.89 283.74 157.96 283.61 159.5 283C161.39 282.24 162 281.27 162 279C162 276.83 160.96 275.02 158.25 272.46C156.19 270.52 152.25 268.21 149.5 267.33C146.75 266.44 142.47 264.7 140 263.45C137.52 262.2 134.49 260.24 133.25 259.09C132.01 257.94 130.25 255.54 129.34 253.75C128.4 251.92 127.42 246.84 127.09 242.09C126.5 233.72 126.49 233.68 123 231.86C121.07 230.85 115.67 229.55 111 228.95C104.59 228.14 101.94 227.34 100.22 225.69C98.92 224.43 97.96 222.33 97.97 220.75C97.99 219.14 97.46 218 96.69 218C95.97 218 90.68 221.11 84.94 224.91Z" />
		<path id="Path 11" class="shp2" d="M231.75 220.03C229.28 221.8 229.1 222.33 229.93 225.25C230.44 227.04 231.57 230.75 232.44 233.5C233.31 236.25 234.02 239.96 234.01 241.75C234.01 243.54 234.73 246.46 235.61 248.25C236.5 250.04 238.89 253.52 240.93 256C242.97 258.47 245.5 262.07 246.56 264C247.61 265.92 249.38 268.52 250.49 269.78C251.69 271.14 253.62 272.04 255.3 272.03C256.93 272.01 259.11 270.96 260.55 269.5C261.9 268.12 263 266.21 263 265.25C263 264.29 261.71 260.8 260.13 257.5C258.56 254.2 256.01 250.15 254.48 248.5C252.94 246.85 251.13 244.6 250.45 243.5C249.77 242.4 248.92 239.25 248.56 236.5C248.19 233.75 247.24 229.36 246.45 226.75C245.56 223.85 243.93 221.21 242.25 219.97C240.74 218.85 238.37 217.96 237 218C235.62 218.03 233.26 218.95 231.75 220.03ZM79.61 251.25C78.23 252.49 77.03 254.17 76.93 255C76.84 255.82 76.82 257.29 76.88 258.25C76.95 259.21 77.9 260.9 79 262C80.56 263.56 82.33 264 87 264C90.3 264 94.69 264.72 96.75 265.6C98.81 266.48 105.45 268.51 111.5 270.12C117.55 271.72 123.98 273.02 125.8 273.01C127.98 273 129.92 272.15 131.55 270.5C132.93 269.09 134.01 266.8 134.03 265.25C134.04 263.65 133.1 261.61 131.78 260.38C130.35 259.06 127.62 258.06 124.5 257.71C121.75 257.41 114.1 255.34 107.5 253.1C98.25 249.97 93.97 249.03 88.81 249.02C83.27 249 81.69 249.39 79.61 251.25ZM445.5 282.77C443.85 283.8 441.63 285.96 440.57 287.57C439.39 289.36 438.61 292.32 438.57 295.17C438.52 298.46 439.13 300.69 440.62 302.67C441.79 304.23 443.81 306.31 445.12 307.29C446.43 308.28 449.3 309.31 451.5 309.59C454.23 309.94 456.6 309.53 458.98 308.3C460.89 307.31 463.52 304.92 464.82 303C466.71 300.19 467.11 298.47 466.84 294.28C466.55 289.79 465.97 288.53 462.72 285.28C459.46 282.02 458.23 281.46 453.72 281.19C449.94 280.97 447.67 281.41 445.5 282.77ZM379 286.1C377.07 286.56 374.25 288.19 372.72 289.72C371.2 291.25 369.47 294.07 368.88 296C368.3 297.92 368.13 300.85 368.51 302.5C368.89 304.15 369.83 306.51 370.6 307.75C371.37 308.99 373.46 310.9 375.25 312C377.18 313.18 380.33 314.01 383 314.04C386.11 314.07 388.27 313.45 390 312.04L392.5 309.99C387.44 311.76 385.72 311.77 384 311.06C382.62 310.5 380.94 308.9 380.25 307.52C379.56 306.13 378.98 304.44 378.97 303.75C378.95 303.06 379.85 301.26 380.97 299.75C382.51 297.66 383.84 297 386.5 297C388.83 297 390.72 297.75 392.15 299.25C393.89 301.07 394.17 302.22 393.65 305.25C393.29 307.31 393.34 309.01 393.75 309.03C394.16 309.04 395.06 307.92 395.75 306.53C396.44 305.14 397 302.09 397 299.75C396.99 297.26 396.17 294.15 395 292.25C393.9 290.46 391.76 288.39 390.25 287.64C388.74 286.89 386.37 286.05 385 285.77C383.62 285.49 380.92 285.63 379 286.1Z" />
		<path id="Path 12" class="shp0" d="M454.35 292C453.17 292.47 451.48 293.9 450.59 295.18C449.71 296.46 448.97 298.17 448.96 299C448.94 299.82 449.85 301.74 450.97 303.25C452.51 305.34 453.84 306 456.5 306C458.67 306 460.76 305.24 462 304C463.1 302.9 464.02 300.76 464.04 299.25C464.07 297.74 463.28 295.53 462.29 294.34C461.31 293.15 459.6 291.94 458.5 291.66C457.4 291.38 455.53 291.53 454.35 292ZM380.96 299.63C379.77 301.08 378.84 302.88 378.9 303.63C378.95 304.39 379.56 306.13 380.25 307.52C380.94 308.9 382.62 310.5 384 311.06C385.72 311.77 387.36 311.76 389.25 311.04C390.76 310.47 392.45 309.1 393 308C393.55 306.9 394 304.87 394 303.5C394 302.12 393.1 300.1 392 299C390.78 297.78 388.67 297 386.57 297C384.07 297 382.54 297.72 380.96 299.63ZM157.75 313.1C155.69 313.6 152.09 314.95 149.75 316.12C147.41 317.28 141.67 319.03 137 320.01C132.32 320.99 125.57 323.09 122 324.68C118.4 326.28 113.12 329.78 110.17 332.54C106.99 335.49 103.64 339.93 101.89 343.5C99.66 348.04 98.69 351.94 97.89 359.5C97.06 367.36 96.17 370.79 93.75 375.5C91.3 380.26 90.56 383.15 90.17 389.5C89.74 396.43 89.96 398 91.84 401.25C93.38 403.92 95.08 405.33 97.75 406.14C100.14 406.87 105.67 407.09 113 406.74C120.78 406.37 127.74 405.33 134.5 403.54C140 402.08 146.3 399.85 148.5 398.59C150.7 397.33 153.48 394.77 154.68 392.9C155.87 391.03 160.15 387.13 164.18 384.23C168.2 381.33 174.87 376.59 179 373.7C183.12 370.8 188.52 367.47 191 366.29C193.7 365 196.04 363.02 196.84 361.32C197.79 359.33 197.92 357.61 197.27 355.5C196.74 353.78 195.21 351.97 193.68 351.25C191.35 350.17 190.17 350.34 184.75 352.55C181.31 353.95 176.25 356.77 173.5 358.82C170.75 360.86 166.47 363.83 164 365.41C161.52 366.98 156.39 370.57 152.58 373.39C148.78 376.2 144.69 380.07 143.49 382C141.59 385.04 140.28 385.79 133.4 387.74C129.06 388.98 121.67 390.44 117 390.99C112.32 391.55 107.71 392 106.75 392C105.55 392 105 391.21 105 389.5C105 388.12 106.4 383.96 108.12 380.25C110.26 375.61 111.62 370.53 112.47 364C113.15 358.77 114.56 352.72 115.6 350.55C116.65 348.37 118.85 345.27 120.5 343.65C122.15 342.04 125.97 339.63 129 338.3C132.02 336.97 137.65 335.28 141.5 334.56C145.35 333.83 151.76 331.83 155.75 330.12C161.8 327.51 164.28 327 170.75 327.01C176.01 327.01 179.22 326.53 180.75 325.51C182.46 324.36 183 323.03 183 320C183 316.8 182.45 315.59 180.25 313.97C177.98 312.28 176.11 311.95 169.5 312.07C165.1 312.14 159.81 312.61 157.75 313.1ZM325 324C323.9 325.1 322.71 327.69 322.36 329.75C322.01 331.81 322.03 336.2 322.39 339.5C322.79 343.05 324.55 348.77 326.69 353.5C328.69 357.9 331.78 363.75 333.56 366.5C335.34 369.25 337.36 373.97 338.04 377C338.84 380.51 339.1 386.47 338.77 393.5C338.31 403.39 337.87 405.43 334.38 413.77L330.5 423.05C324.3 422.99 320.73 422.65 318.57 422.24C315.22 421.61 314.37 420.9 312.86 417.5C311.89 415.3 310.44 410.35 309.64 406.5C308.84 402.65 307.69 395.11 307.09 389.75C306.26 382.34 305 377.54 301.84 369.75C299.55 364.11 296.73 358.48 295.59 357.22C294.3 355.83 292.34 354.95 290.5 354.95C288.7 354.95 286.61 355.86 285.27 357.22C284.05 358.48 283.03 360.29 283.02 361.25C283.01 362.21 284.8 367.61 287.01 373.25C290.19 381.39 291.25 385.76 292.13 394.5C292.75 400.55 294.35 409.32 295.7 414C297.04 418.67 299.35 424.68 300.82 427.35C302.34 430.09 305.02 433.09 307 434.27C309.26 435.61 314.05 436.8 320.5 437.62C326.94 438.44 331.92 438.58 334.5 438.01C337.14 437.43 339.52 435.94 341.5 433.66C343.21 431.68 346.44 425.09 349 418.34C353.44 406.66 353.5 406.31 353.84 392.5C354.1 381.79 353.79 376.97 352.51 372C351.59 368.42 349.14 362.8 347.06 359.5C344.99 356.2 341.87 350.24 340.14 346.25C337.53 340.23 337.04 337.91 337.25 332.61C337.45 327.37 337.14 325.82 335.5 324.07C334.23 322.72 332.31 321.95 330.25 321.97C328.37 321.99 326.16 322.84 325 324Z" />
		<path id="Path 13" class="shp2" d="M430.22 323.76C429.16 324.72 427.55 327.64 426.64 330.25C425.74 332.86 424.1 335.45 423 336C421.9 336.55 419.65 337 418 337C416.35 337 413.31 336.16 411.25 335.13C409.19 334.11 406.04 331.86 404.25 330.13C402.46 328.41 400.21 326.98 399.25 326.96C398.29 326.93 396.94 327.61 396.25 328.46C395.56 329.3 395.22 330.9 395.5 332C395.77 333.1 398.14 335.7 400.75 337.78C403.36 339.87 407.52 342.38 410 343.38C413.05 344.61 416.33 345.08 420.18 344.85C425.09 344.55 426.36 344.02 429.47 341C431.76 338.79 433.62 335.66 434.55 332.5C435.36 329.75 436.04 326.73 436.07 325.79C436.09 324.84 435.22 323.61 434.13 323.05C432.62 322.27 431.69 322.44 430.22 323.76Z" />
		<path id="Path 14" class="shp1" d="M179.92 326.04C179.14 326.55 175.01 326.98 170.75 326.98C164.31 327 161.77 327.53 155.75 330.12C151.76 331.83 145.35 333.83 141.5 334.56C137.65 335.28 132.02 336.97 129 338.3C125.97 339.63 122.15 342.04 120.5 343.65C118.85 345.27 116.65 348.37 115.6 350.55C114.56 352.72 113.15 358.77 112.47 364C111.62 370.53 110.26 375.61 108.12 380.25C106.4 383.96 105 388.12 105 389.5C105 391.21 105.55 392 106.75 392C107.71 392 112.32 391.55 117 390.99C121.67 390.44 129.06 388.98 133.4 387.74C140.28 385.79 141.59 385.04 143.49 382C144.69 380.07 148.78 376.2 152.58 373.39C156.39 370.57 161.52 366.98 164 365.39C166.47 363.81 170.97 360.7 174 358.48C177.02 356.26 181.87 353.56 184.76 352.47C187.66 351.39 190.02 350.16 190.01 349.75C190.01 349.34 189.21 348.79 188.25 348.54C187.29 348.29 185.37 346.03 184 343.52C181.54 339.04 181.48 339 180.21 341.23C179.5 342.48 176.58 345.12 173.71 347.1C170.84 349.08 164.67 352.4 160 354.47C155.32 356.55 149.02 359.14 146 360.23C142.97 361.32 138.59 363.52 136.25 365.11C133.18 367.2 131.72 369.04 130.98 371.75C130.42 373.81 129.18 376.3 128.23 377.28C127.25 378.29 125.09 379.05 123.25 379.03C121.37 379.01 119.16 378.16 118 377C116.76 375.76 116 373.67 116 371.5C116 369.57 116.7 366.31 117.55 364.25C118.4 362.19 120.54 359 122.3 357.17C124.06 355.34 128.09 352.3 131.25 350.42C134.41 348.54 138.8 346.55 141 346C143.2 345.45 146.46 344.13 148.25 343.07C150.04 342.01 153.52 340.36 156 339.41C158.47 338.46 162.52 336.23 165 334.47C167.47 332.7 170.51 330.97 171.75 330.63C173 330.28 175.33 330.67 177 331.5C178.65 332.32 180.06 333.56 180.13 334.25C180.21 334.94 180.59 333.25 180.99 330.5C181.39 327.75 181.63 325.41 181.53 325.3C181.43 325.2 180.71 325.53 179.92 326.04Z" />
		<path id="Path 15" class="shp2" d="M171 330.72C170.17 331.02 167.47 332.72 165 334.48C162.52 336.24 158.47 338.46 156 339.41C153.52 340.36 150.04 342.01 148.25 343.07C146.46 344.13 143.2 345.45 141 346C138.8 346.55 134.41 348.54 131.25 350.42C128.09 352.3 124.06 355.34 122.3 357.17C120.54 359 118.4 362.19 117.55 364.25C116.7 366.31 116 369.57 116 371.5C116 373.67 116.76 375.76 118 377C119.16 378.16 121.37 379.01 123.25 379.03C125.09 379.05 127.25 378.29 128.23 377.28C129.18 376.3 130.42 373.81 130.98 371.75C131.72 369.04 133.18 367.2 136.25 365.11C138.59 363.52 142.97 361.32 146 360.23C149.02 359.14 155.32 356.55 160 354.47C164.67 352.39 170.52 349.3 172.98 347.6C175.45 345.89 178.27 343.6 179.25 342.5C180.23 341.4 181.03 339.49 181.02 338.25C181.01 337.01 180.66 335.26 180.25 334.36C179.84 333.46 178.26 332.11 176.75 331.36C175.24 330.61 173.66 330.04 173.25 330.08C172.84 330.12 171.82 330.41 171 330.72ZM309.64 345.75C308.73 346.71 307.56 349.3 307.04 351.5C306.46 353.99 306.45 357.01 307.03 359.5C307.55 361.7 309.22 365.07 310.76 367C312.3 368.92 314.1 371.74 314.78 373.25C315.45 374.76 316.04 380.39 316.09 385.75C316.14 391.11 315.74 396.62 315.2 398C314.48 399.8 314.59 401.4 315.6 403.75C316.38 405.57 317.99 407.27 319.25 407.61C320.49 407.94 322.74 407.94 324.25 407.61C325.88 407.25 327.81 405.68 328.98 403.75C330.67 400.99 331.01 398.4 331.23 386.5C331.5 372.57 331.48 372.47 328.33 366C326.59 362.42 324.43 358.82 323.54 358C322.51 357.05 321.93 354.94 321.96 352.25C321.99 349.29 321.39 347.39 320 346C318.8 344.8 316.67 344 314.65 344C312.75 344 310.58 344.76 309.64 345.75Z" />
		<path id="Path 16" class="shp0" d="M232.5 395.96C230.85 396.35 228.15 397.36 226.5 398.2C224.85 399.05 221.47 401.74 219 404.18C216.52 406.62 212.83 411.74 210.79 415.56C208.75 419.38 206.05 423.68 204.79 425.12C203.53 426.56 199.8 429.75 196.5 432.23C193.2 434.7 188.9 438.47 186.94 440.61C184.82 442.93 182.05 447.93 180.09 453C178.27 457.67 176.34 464.2 175.8 467.5C175 472.41 175.11 474.09 176.41 476.75C177.54 479.07 178.86 480.14 181 480.5C182.65 480.77 184.9 480.55 186 480C187.1 479.45 188.45 478.1 189 477C189.55 475.9 190.23 473.31 190.51 471.25C190.8 469.19 191.92 464.8 193.02 461.5C194.11 458.2 195.9 454.04 197 452.25C198.1 450.46 202.26 446.59 206.25 443.65C210.24 440.71 214.87 436.78 216.54 434.9C218.21 433.03 221.36 428.17 223.54 424.1C225.72 420.03 228.96 415.42 230.75 413.85C232.54 412.28 234.56 410.98 235.25 410.96C235.94 410.94 238.41 412.96 240.75 415.46C243.26 418.14 245.23 421.33 245.55 423.25C245.85 425.04 245.97 432.35 245.8 439.5C245.59 448.42 246.04 455.8 247.23 463C248.18 468.77 248.97 475.86 248.98 478.75C248.99 481.64 249.45 484.22 250 484.5C250.55 484.77 250.77 485.45 250.5 486C250.19 486.61 252.42 487 256.25 487C260.43 487 262.6 486.59 262.79 485.75C262.95 485.06 263.33 482.25 263.63 479.5C263.94 476.75 263.47 468.54 262.59 461.25C261.72 453.96 260.99 441.81 260.98 434.25C260.97 426.17 260.46 418.89 259.73 416.61C259.05 414.46 256.47 410.21 254 407.15C251.52 404.1 247.47 400.38 245 398.9C242.52 397.42 239.37 395.99 238 395.73C236.62 395.47 234.15 395.57 232.5 395.96Z" />
		<path id="Path 17" class="shp1" d="M230.79 413.85C228.98 415.42 225.72 420.03 223.54 424.1C221.36 428.17 218.21 433.03 216.54 434.9C214.87 436.78 210.24 440.71 206.25 443.65C202.26 446.59 198.1 450.46 197 452.25C195.9 454.04 194.11 458.2 193.02 461.5C191.92 464.8 190.8 469.19 190.51 471.25C190.23 473.31 189.55 475.9 189 477C188.45 478.1 188.11 479.14 188.25 479.31C188.39 479.48 193.9 480.61 200.5 481.82C207.1 483.02 218.46 484.68 225.75 485.51C233.04 486.33 241.47 487 244.5 487C247.52 487 250.22 486.55 250.5 486C250.77 485.45 250.55 484.77 250 484.5C249.45 484.22 248.99 481.64 248.98 478.75C248.97 475.86 248.18 468.77 247.23 463C246.04 455.8 245.59 448.42 245.8 439.5C245.97 432.35 245.85 425.04 245.55 423.25C245.23 421.33 243.26 418.14 240.75 415.46C238.41 412.96 235.95 410.94 235.29 410.96C234.62 410.98 232.6 412.28 230.79 413.85Z" />
		<path id="Path 18" class="shp2" d="M226.86 428.75C224.91 430.81 222.18 434.75 220.79 437.5C219.4 440.25 217.75 444.86 217.13 447.75C216.51 450.64 216 454.8 216 457C216 459.93 215.33 461.67 213.5 463.5C212.12 464.87 211 467.12 211 468.5C211 469.87 212.12 472.12 213.5 473.5C214.92 474.92 217.19 476.02 218.75 476.04C220.53 476.06 223.04 474.75 225.87 472.29L230.24 468.5C231.52 453.12 232.48 448.9 234.3 445C235.71 441.97 237.81 438.6 238.97 437.5C240.32 436.21 241.07 434.25 241.07 432C241.07 429.95 240.32 427.78 239.28 426.78C238.29 425.82 235.93 425.04 233.95 425.03C231.13 425.01 229.68 425.77 226.86 428.75Z" />
	</g>
</svg>