<svg version="1.2" baseProfile="tiny-ps" xmlns="http://www.w3.org/2000/svg" viewBox="0 0 233 249" width="233" height="249">
	<title>Background</title>
	<style>
		tspan { white-space:pre }
		.shp0 { fill: #ffffff } 
		.shp1 { fill: #000000 } 
		.shp2 { fill: #fff9e6 } 
		.shp3 { fill: #ffca18 } 
		.shp4 { opacity: 0.153;fill: #ffffff } 
		.shp5 { opacity: 0.345;fill: #ffc918 } 
	</style>
	<g id="Background">
		<path id="Path 0" class="shp0" d="M184.5 0.73C183.4 1.01 180.08 2.87 177.11 4.87C173.98 6.98 169.76 11.22 167.03 15C164.44 18.57 160.6 24.65 158.48 28.5C156.36 32.35 150.6 43.6 145.67 53.5C140.74 63.4 136.66 72.06 136.6 72.75C136.53 73.61 134.53 74 130.25 74C126.81 74 120.51 74.49 116.25 75.09C111.99 75.69 106.47 76.87 104 77.71C101.52 78.55 97.47 80.17 95 81.32C92.52 82.46 87.57 85.17 84 87.33C80.42 89.5 73 94.74 67.5 98.97C62 103.21 53.22 109.53 48 113.02C42.77 116.52 34.9 121.04 30.5 123.07C26.1 125.1 18.45 127.98 13.5 129.46C8.55 130.95 3.49 132.57 2.25 133.08C0.52 133.79 0 134.81 0 137.5C0 140.62 1.18 142.18 10.75 151.75C18.13 159.13 23.23 163.33 27 165.16C30.02 166.62 34.52 168.57 37 169.49C39.47 170.41 45.32 171.6 50 172.13C57.01 172.92 61.21 172.72 74 170.96C82.52 169.79 92.65 168.18 96.5 167.37C100.35 166.56 106.87 165.47 111 164.95C115.65 164.36 119.54 163.24 121.25 162C122.76 160.9 124.34 159.99 124.75 159.98C125.16 159.98 130 157.68 135.5 154.88C141 152.08 147.52 148.15 149.99 146.14C152.46 144.14 155.83 140.98 157.49 139.13C159.15 137.28 161.99 133.45 163.8 130.63C165.62 127.81 168.49 122.57 170.19 119C171.88 115.42 175 107.55 177.12 101.5C179.33 95.18 183.5 86.24 186.93 80.5C190.2 75 195.16 65.66 197.94 59.75C200.72 53.84 202.98 48.21 202.96 47.25C202.93 46.29 203.63 44.82 204.5 44C205.37 43.17 206.07 41.94 206.04 41.25C206.01 40.33 205.46 40.27 204 41C202.9 41.55 200.2 42 198 42C195.8 42 194 42.45 194 43C194 43.55 192.09 43.98 189.75 43.96C186.54 43.93 184.95 43.32 183.25 41.46C182.01 40.11 181.04 37.99 181.1 36.75C181.15 35.51 181.52 33.37 181.92 32C182.47 30.09 182.09 28.97 180.32 27.25C179.04 26.01 178 23.87 178 22.5C178 21.12 178.9 19.1 180 18C181.1 16.9 183.12 16 184.5 16C185.89 16 188 17.1 189.25 18.47L191.5 20.95C195.53 17.41 197.46 17 203 17C209 17 210 16.75 210.01 15.25C210.01 14.29 209.41 12.6 208.67 11.5C207.93 10.4 204.56 7.36 201.16 4.75C195.9 0.7 194.38 0.02 190.75 0.12C188.41 0.18 185.6 0.46 184.5 0.73Z" />
		<path id="Path 1" class="shp1" d="M180 18C178.9 19.1 178 21.12 178 22.5C178 23.95 179.16 26.07 180.75 27.53C182.26 28.93 184.31 30.05 185.3 30.03C186.28 30.02 188.2 28.87 189.55 27.5C190.9 26.12 192.02 24.21 192.03 23.25C192.05 22.29 190.93 20.26 189.53 18.75C188.07 17.16 185.95 16 184.5 16C183.12 16 181.1 16.9 180 18Z" />
		<path id="Path 2" class="shp2" d="M198 17.73C199.92 17.94 203.3 17.94 205.5 17.73C207.7 17.51 206.12 17.34 202 17.34C197.87 17.34 196.07 17.51 198 17.73Z" />
		<path id="Path 3" class="shp3" d="M202 17.92C197.87 18.24 193.94 18.84 193.25 19.25C192.56 19.66 192 21.12 192 22.5C192 23.87 190.9 26.12 189.55 27.5C188.2 28.87 185.95 30 184.55 30C182.38 30 181.91 30.56 181.4 33.75C181.07 35.81 181.29 38.51 181.9 39.75C182.5 40.99 184.01 42.26 185.25 42.59C186.49 42.91 191.32 42.67 196 42.05C200.67 41.44 206.97 40.59 210 40.17C213.02 39.75 216.96 38.64 218.75 37.7C220.54 36.77 223.16 36 224.58 36C226.12 36 228.32 34.8 230.08 33C231.68 31.35 233 29.1 233 28C233 26.9 232.32 24.65 231.5 23C230.67 21.35 228.99 19.32 227.75 18.49C226.15 17.42 223.2 17.03 217.5 17.16C213.1 17.25 206.12 17.59 202 17.92Z" />
		<path id="Path 4" class="shp2" d="M187.43 43.72C189.05 43.95 191.3 43.94 192.43 43.7C193.57 43.47 192.25 43.28 189.5 43.29C186.74 43.29 185.82 43.49 187.43 43.72Z" />
		<path id="Path 5" class="shp4" d="M127.43 73.72C129.05 73.95 131.3 73.94 132.43 73.7C133.57 73.47 132.25 73.28 129.5 73.29C126.74 73.29 125.82 73.49 127.43 73.72Z" />
		<path id="Path 6" class="shp3" d="M117.87 163.67C116.02 164.34 113.6 164.92 112.5 164.96C111.4 165 110.01 165.36 109.41 165.77C108.66 166.27 108.56 169.16 109.09 175C109.52 179.67 110.55 187.1 111.38 191.5C112.2 195.9 113.39 201.52 114.01 204C114.64 206.47 115.34 211.54 115.57 215.25C115.93 220.86 116.38 222.26 118.25 223.52C119.84 224.59 121.24 224.78 123 224.17C124.37 223.69 125.84 222.56 126.25 221.65C126.66 220.74 127 217.75 127 215C127 212.25 127.45 209.77 128 209.5C128.55 209.22 129.79 209.43 130.75 209.95C131.71 210.48 133.17 212.38 134 214.19C134.82 215.99 136.4 217.63 137.5 217.82C138.6 218.01 140.51 217.91 141.75 217.58C142.99 217.26 144.27 215.99 144.6 214.75C144.93 213.51 144.37 210.44 143.35 207.9L141.5 203.3C147.8 202.68 150.41 201.82 151.36 201C152.31 200.17 153.07 198.26 153.04 196.75C153.01 194.86 152.14 193.47 150.25 192.31C147.94 190.89 146.02 190.73 138.25 191.31L129 192C128.01 187.74 126.94 184.92 125.99 183C125.04 181.07 124.06 176.35 123.8 172.5C123.54 168.65 122.86 164.81 122.29 163.97C121.4 162.69 120.71 162.64 117.87 163.67ZM59.75 172.67L56 173L56 203C50.73 208.27 50.11 209.67 50.45 211.75C50.7 213.26 51.38 216.97 51.96 220C52.54 223.02 53.69 226.51 54.51 227.75C55.33 228.99 56.01 230.56 56.02 231.25C56.03 231.94 57.72 235.81 59.77 239.86C61.82 243.91 64.4 247.66 65.5 248.21C66.6 248.76 68.51 248.93 69.75 248.6C70.99 248.27 72.4 246.99 72.89 245.75C73.48 244.25 73.31 242.42 72.39 240.25C71.51 238.19 71.37 236.82 72 236.5C72.55 236.22 75.59 236.9 78.75 238C83.93 239.79 84.72 239.84 86.75 238.5C88.19 237.54 88.99 236.01 88.97 234.25C88.96 232.74 88.17 230.7 87.22 229.72C85.58 228.02 85.7 227.94 89.8 227.97C93.08 227.99 94.67 227.41 96.55 225.5C97.9 224.12 99 221.87 99 220.5C99 219.08 97.81 216.84 96.25 215.34C93.79 212.95 93 212.74 88.75 213.34C85.49 213.79 82.98 213.54 80.75 212.55C78.96 211.75 76.03 209.84 74.24 208.3L70.98 205.5L71.5 172C65.3 172.26 61.81 172.49 59.75 172.67Z" />
		<path id="Path 7" class="shp5" d="M127.27 214C127.27 216.47 127.47 217.37 127.71 216C127.94 214.62 127.94 212.6 127.71 211.5C127.47 210.4 127.27 211.52 127.27 214Z" />
	</g>
</svg>