<svg version="1.2" baseProfile="tiny-ps" xmlns="http://www.w3.org/2000/svg" viewBox="0 0 276 491" width="276" height="491">
	<title>Background</title>
	<style>
		tspan { white-space:pre }
		.shp0 { fill: #0ba136 } 
		.shp1 { fill: #77024b } 
		.shp2 { opacity: 0.341;fill: #0a9f36 } 
	</style>
	<g id="Background">
		<path id="Path 0" class="shp0" d="M153.5 1.87C150.75 2.85 146.47 4.96 144 6.55C141.52 8.15 137.02 11.48 134 13.96C130.97 16.44 123.09 23.65 116.47 29.98C109.85 36.32 100.85 44.66 96.47 48.52C92.09 52.38 82.87 59.99 76 65.44C69.12 70.88 63.05 75.83 62.5 76.44C61.95 77.05 59.06 79.33 56.07 81.52C53.09 83.71 47.91 88.65 44.56 92.5C41.21 96.35 36.36 102.42 33.79 106C30.73 110.24 28.75 114.24 28.09 117.5C27.42 120.81 27.41 123.68 28.06 126C28.6 127.92 29.71 130.51 30.52 131.75C31.33 132.99 33.46 134.9 35.25 136C38.03 137.71 40.26 137.99 50.75 138C62.81 138 63.19 137.93 75.25 133.47C81.99 130.98 89.97 128.26 93 127.41C96.56 126.42 105.03 125.69 117 125.34C134.34 124.83 135.72 124.92 139 126.83C140.92 127.95 151.27 132.33 162 136.56C172.72 140.8 188.02 146.42 196 149.06C203.97 151.69 215.22 154.82 221 156.02C229.21 157.73 233.57 158.09 241 157.68C246.49 157.38 253.03 156.32 256.5 155.16C259.8 154.05 264.11 152.56 266.09 151.83C268.06 151.1 270.44 149.82 271.38 149C272.33 148.17 273.72 145.25 274.48 142.5C275.47 138.89 275.67 134.8 275.18 127.81C274.79 122.24 273.96 117.57 273.23 116.81C272.54 116.09 271.99 114.37 272.02 113C272.05 111.62 271.22 109.37 270.18 108C269.13 106.62 267.54 104.04 266.64 102.25C265.74 100.46 258.63 91.24 250.85 81.75C243.07 72.26 233.51 60.72 229.6 56.09C225.7 51.47 220.35 45.17 217.72 42.09C215.09 39.02 212.95 35.71 212.97 34.75C212.99 33.79 212.32 33 211.5 33C210.67 33 207.86 30.67 205.25 27.81C202.64 24.96 198.25 20.33 195.5 17.53C192.75 14.72 188.02 10.61 185 8.38C181.97 6.15 177.14 3.35 174.25 2.16C171.08 0.86 166.92 0.01 163.75 0.04C160.86 0.06 156.25 0.88 153.5 1.87Z" />
		<path id="Path 1" class="shp1" d="M100.5 126.06C97.2 126.5 91.8 127.75 88.5 128.84C85.2 129.93 77.32 132.67 71 134.92L59.5 139.02C55.17 151.02 47.65 173.17 40 196C32.35 218.82 24.45 243.12 22.45 250C20.45 256.87 17.56 267.22 16.04 273C14.52 278.77 12.1 288.45 10.67 294.5C9.25 300.55 6.93 311.57 5.53 319C4.13 326.42 2.26 339.25 1.38 347.5C0.3 357.68 -0.03 366.68 0.37 375.5C0.69 382.65 1.21 390.07 1.52 392C1.83 393.92 2.57 397.97 3.16 401C3.75 404.02 5.59 410.32 7.25 415C8.91 419.67 11.84 426.42 13.76 430C15.68 433.57 19.4 439.42 22.02 443C24.64 446.57 29.98 452.54 33.89 456.25C37.8 459.96 44.26 465.18 48.25 467.85C52.24 470.52 58.87 474.32 63 476.3C67.12 478.28 75 481.33 80.5 483.07C86 484.81 91.4 486.58 92.5 487.01C93.6 487.43 99.45 488.5 105.5 489.4C111.55 490.29 122.12 491.01 129 490.99C135.87 490.98 146 490.32 151.5 489.52C157 488.73 165.55 486.7 170.5 485.01C175.45 483.32 183.1 479.91 187.5 477.44C191.9 474.97 198.85 470.15 202.94 466.72C207.04 463.3 213.45 456.45 217.19 451.5C220.94 446.55 225.76 438.9 227.92 434.5C230.08 430.1 233.23 422.22 234.92 417C236.61 411.77 238.9 403 240 397.5C241.09 392 242.72 381.65 243.6 374.5C244.71 365.54 245.3 351.1 245.51 328C245.67 309.57 245.43 287.75 244.98 279.5C244.53 271.25 243.88 260.67 243.55 256C243.22 251.32 242.51 241.87 241.97 235C241.44 228.12 240.53 217.32 239.95 211C239.38 204.67 238.59 190.16 238.2 178.75L237.5 157.99C232.46 158 226.39 157.06 220.75 155.92C215.11 154.78 203.97 151.69 196 149.06C188.02 146.42 172.72 140.81 162 136.58C151.27 132.35 141.04 128.01 139.25 126.94C136.39 125.24 134.21 125.02 121.25 125.13C113.14 125.2 103.8 125.62 100.5 126.06Z" />
		<path id="Path 2" class="shp2" d="M46 138.74C48.47 138.94 52.75 138.94 55.5 138.74C58.25 138.53 56.22 138.36 51 138.36C45.77 138.36 43.52 138.53 46 138.74Z" />
	</g>
</svg>