<svg version="1.2" baseProfile="tiny-ps" xmlns="http://www.w3.org/2000/svg" viewBox="0 0 544 543" width="544" height="543">
	<title>Background</title>
	<style>
		tspan { white-space:pre }
		.shp0 { fill: #117ce8 } 
		.shp1 { fill: #ffffff } 
	</style>
	<g id="Background">
		<path id="Path 0" class="shp0" d="M246.5 0.71C244.3 0.91 236.87 1.98 230 3.07C223.12 4.16 212.32 6.37 206 7.97C199.67 9.57 189.1 12.76 182.5 15.07C175.9 17.39 164.87 21.87 158 25.04C151.12 28.22 141.67 33.02 137 35.71C132.32 38.41 125.12 42.88 121 45.66C116.87 48.43 108.77 54.43 103 58.97C97.22 63.52 86.42 73.38 79 80.89C71.57 88.4 61.9 99.26 57.5 105.02C53.11 110.78 46.12 120.9 41.99 127.5C37.85 134.1 31.92 144.67 28.82 151C25.72 157.32 21.74 166.1 19.99 170.5C18.24 174.9 15.04 184.12 12.89 191C10.73 197.87 7.66 210.02 6.06 218C4.46 225.97 2.67 237.45 2.07 243.5C1.48 249.55 0.99 262.37 1 272C1 281.62 1.68 295.35 2.52 302.5C3.36 309.65 5.21 321.12 6.63 328C8.05 334.87 11.24 346.8 13.72 354.5C16.2 362.2 20.66 374.12 23.64 381C26.62 387.87 32.02 398.67 35.65 405C39.27 411.32 45.04 420.55 48.48 425.5C51.92 430.45 57.49 437.99 60.86 442.25C64.24 446.51 71.61 454.79 77.25 460.65C82.89 466.51 92.45 475.34 98.5 480.29C104.55 485.23 113.55 492.09 118.5 495.53C123.45 498.96 132.9 504.88 139.5 508.66C146.1 512.45 157.35 517.96 164.5 520.91C171.65 523.87 181.32 527.59 186 529.18C190.67 530.78 199.67 533.4 206 535.01C212.32 536.62 223.35 538.96 230.5 540.2C241.97 542.18 246.92 542.45 272.5 542.45C298.08 542.45 303.03 542.18 314.5 540.2C321.65 538.96 332.67 536.62 339 535.01C345.32 533.4 354.32 530.78 359 529.18C363.67 527.59 373.35 523.87 380.5 520.91C387.65 517.96 398.9 512.45 405.5 508.66C412.1 504.88 421.55 498.96 426.5 495.53C431.45 492.09 440.45 485.24 446.5 480.3C452.55 475.37 462.62 465.97 468.88 459.41C475.13 452.86 483.97 442.55 488.5 436.5C493.04 430.45 498.77 422.35 501.25 418.5C503.73 414.65 508.36 406.77 511.55 401C514.73 395.22 519.46 385.55 522.05 379.5C524.64 373.45 528.79 362.2 531.28 354.5C533.76 346.8 536.95 334.87 538.37 328C539.79 321.12 541.64 309.65 542.48 302.5C543.32 295.35 544 281.4 543.99 271.5C543.98 261.6 543.35 247.87 542.57 241C541.8 234.12 540.2 223.77 539.02 218C537.85 212.22 536.2 205.02 535.37 202C534.54 198.97 532.25 191.55 530.28 185.5C528.31 179.45 524.79 170 522.45 164.5C520.12 159 515.53 149.55 512.27 143.5C509.01 137.45 503.73 128.45 500.53 123.5C497.34 118.55 491.3 110.01 487.11 104.52C482.93 99.03 473.42 88.4 466 80.89C458.57 73.38 447.77 63.52 442 58.97C436.22 54.43 428.12 48.43 424 45.66C419.87 42.88 412.9 38.54 408.5 36C404.1 33.47 395.1 28.88 388.5 25.8C381.9 22.72 372.22 18.62 367 16.68C361.77 14.73 352.77 11.78 347 10.12C341.22 8.46 332 6.2 326.5 5.09C321 3.98 310.87 2.38 304 1.54C295.83 0.53 284.39 0.06 271 0.17C259.72 0.26 248.7 0.5 246.5 0.71Z" />
		<path id="Path 1" class="shp1" d="M401.5 89.56C398.75 90.32 393.57 92.39 390 94.16C385.81 96.24 380.99 99.89 376.42 104.44C371.27 109.59 368.38 113.53 365.77 119C363.8 123.12 361.7 128.86 361.1 131.75C360.49 134.64 360.01 145.66 360.01 156.25C360.03 169.76 360.47 177.36 361.51 181.75C362.33 185.19 364.64 191.26 366.65 195.25C368.98 199.89 372.49 204.68 376.4 208.56C379.75 211.89 385.2 216.14 388.5 218C391.8 219.87 397.65 222.21 401.5 223.2C405.5 224.24 411.93 225.01 416.5 224.99C420.9 224.98 427.2 224.26 430.5 223.4C433.8 222.54 439.2 220.42 442.5 218.7C445.89 216.92 451.55 212.51 455.53 208.53C459.45 204.61 463.96 198.84 465.72 195.5C467.46 192.2 469.69 186.57 470.68 183C472.12 177.75 472.47 172.64 472.47 156.5C472.47 140.35 472.12 135.25 470.68 130C469.69 126.42 467.22 120.39 465.19 116.6C462.81 112.15 459.18 107.53 454.98 103.6C451.4 100.24 445.78 96.07 442.48 94.31C439.19 92.56 433.8 90.42 430.5 89.56C426.99 88.64 420.76 88.03 415.5 88.08C410.55 88.14 404.25 88.8 401.5 89.56Z" />
		<path id="Path 2" class="shp0" d="M407 101.36C403.97 102.02 399.25 103.64 396.5 104.97C393.75 106.29 388.77 110.11 385.43 113.44C381.91 116.95 378.28 121.81 376.79 125C375.38 128.02 373.77 132.75 373.2 135.5C372.56 138.63 372.49 143.49 373.01 148.5C373.64 154.46 374.74 158.29 377.32 163.5C379.72 168.33 382.61 172.16 386.65 175.84C389.87 178.78 394.75 182.23 397.5 183.51C400.25 184.79 405.42 186.37 409 187.01C413.51 187.82 417.49 187.89 422 187.22C425.57 186.7 431.42 184.9 435 183.22C438.91 181.38 443.63 178.04 446.83 174.83C449.76 171.9 453.49 166.8 455.11 163.5C456.73 160.2 458.59 154.35 459.24 150.5C460.13 145.15 460.13 141.97 459.24 137C458.59 133.42 456.73 127.8 455.11 124.5C453.49 121.2 449.93 116.25 447.2 113.5C444.48 110.75 440.06 107.29 437.38 105.81C434.69 104.33 429.57 102.42 426 101.57C422.42 100.72 417.92 100.06 416 100.1C414.07 100.14 410.02 100.71 407 101.36Z" />
		<path id="Path 3" class="shp1" d="M414 125.69C413.17 125.99 411.93 126.97 411.23 127.87C410.34 129.02 409.98 133.78 410 144C410.02 151.97 410.36 159 410.77 159.6C411.17 160.21 412.51 161.22 413.75 161.85C415.47 162.73 416.65 162.7 418.75 161.74L421.5 160.48C422.06 128.87 422.01 128.46 419.78 126.71C418.53 125.72 417.05 124.97 416.5 125.04C415.95 125.1 414.82 125.4 414 125.69ZM152.72 151.65C151.66 152.74 151.05 154.65 151.22 156.31C151.44 158.52 158.88 166.5 185.5 193.1L219.5 227.07C83.45 362.19 73.94 372.02 73.04 375.5C72.48 377.7 72.01 380.74 72.01 382.25C72 383.76 72.7 386.69 73.55 388.75C74.41 390.81 76.32 393.76 77.8 395.3C79.29 396.83 82.64 398.75 85.25 399.55C88 400.39 91.37 400.73 93.25 400.36C95.04 400 97.85 399.06 99.5 398.26C101.15 397.45 134.79 364.56 174.24 325.15L245.99 253.5C299.64 307.12 315.28 321.98 316.3 321.99C317.28 321.99 319.2 320.87 320.55 319.5C321.9 318.12 323 316.32 323 315.5C323 314.67 319.26 306.24 314.69 296.75C310.12 287.26 303.53 274.55 300.05 268.5C296.56 262.45 290.56 253 286.72 247.5C282.87 242 277.99 235.36 275.87 232.75L272 228C280.66 218.55 283.02 215.04 283.04 213.75C283.07 212.19 279.77 208.2 272.29 200.74C263.79 192.27 260.92 189.99 258.75 189.99C256.79 190 254.36 191.57 250.25 195.5C244.81 200.7 244.41 200.91 242.85 199.25C241.94 198.29 236.09 193.83 229.85 189.34C223.61 184.85 213.1 177.9 206.5 173.9C199.9 169.9 187.07 163.04 178 158.65C168.92 154.26 159.92 150.47 158 150.24C155.49 149.92 154 150.32 152.72 151.65Z" />
		<path id="Path 4" fill-rule="evenodd" class="shp0" d="M192.41 180.24C193.01 180.49 199.12 184.19 206 188.46C212.87 192.73 223.22 199.86 229 204.31C234.77 208.76 244.9 217.86 251.5 224.52C258.82 231.91 266.96 241.49 272.35 249.07C277.22 255.91 283.75 265.67 286.85 270.77C289.96 275.87 292.15 280.37 291.72 280.77C291.29 281.17 268.46 259 240.98 231.5C213.5 204 191.08 181.11 191.16 180.64C191.25 180.17 191.81 179.99 192.41 180.24ZM380.38 187.28C382.64 189.16 385.97 191.55 387.76 192.6C390.72 194.33 391.02 194.94 391.01 199.25C391.01 201.86 390.66 204.02 390.25 204.04C389.84 204.06 387.44 201.92 384.92 199.29C382.4 196.65 379.36 192.59 378.17 190.25C376.97 187.91 376.06 185.52 376.13 184.93C376.2 184.35 378.11 185.4 380.38 187.28ZM456.17 184C456.63 184 457 184.34 456.99 184.75C456.99 185.16 455.69 187.75 454.12 190.5C452.54 193.25 449.34 197.41 447.01 199.75C444.67 202.09 442.37 204 441.88 204C441.4 204 441.01 201.86 441.02 199.25C441.04 194.61 441.16 194.43 446.08 191.5C448.86 189.85 452.08 187.49 453.23 186.25C454.39 185.01 455.71 184 456.17 184ZM404 199.5L429 199.5L429 205.25C429 210.69 428.85 211.04 426.25 211.69C424.74 212.07 420.35 212.4 416.5 212.42C412.65 212.44 408.26 212.13 406.75 211.73C404.15 211.04 404 210.68 404 205.25L404 199.5ZM258.9 205.01C259.23 205.02 261.19 206.71 263.27 208.76C265.34 210.82 267.04 212.95 267.05 213.5C267.06 214.05 266.26 215.28 265.28 216.23C263.59 217.88 263.28 217.75 259 213.51C254.55 209.11 254.52 209.03 256.4 207.03C257.44 205.91 258.57 205.01 258.9 205.01ZM228 235.99C228.27 235.98 230.41 237.89 236.97 244.5L165.24 316.24C108.2 373.29 92.99 387.99 91 387.97C89.62 387.96 87.7 387.17 86.72 386.22C85.74 385.28 84.84 383.15 84.72 381.5C84.52 378.77 90.88 372.15 156 307.25C195.32 268.06 227.72 235.99 228 235.99Z" />
		<path id="Path 5" class="shp1" d="M380.5 245.5C378.3 246.28 374.65 248.85 372.39 251.21C370.11 253.59 367.77 257.28 367.15 259.5C366.52 261.7 366.01 264.62 366.01 266C366.01 267.37 366.51 270.3 367.12 272.5C367.8 274.97 369.99 278.27 372.86 281.14C375.73 284.01 379.03 286.2 381.5 286.88C383.7 287.49 386.62 287.99 388 287.99C389.37 287.99 392.3 287.49 394.5 286.88C396.97 286.2 400.27 284.01 403.14 281.14C406.01 278.27 408.2 274.97 408.88 272.5C409.49 270.3 409.99 267.37 409.99 266C409.99 264.62 409.49 261.7 408.88 259.5C408.2 257.03 406.01 253.73 403.14 250.86C400.27 247.99 396.97 245.8 394.5 245.12C392.3 244.51 389.15 244.03 387.5 244.05C385.85 244.07 382.7 244.72 380.5 245.5Z" />
		<path id="Path 6" class="shp0" d="M381.5 259.45C379.78 261.21 379.08 263.07 379.05 265.95C379.01 268.98 379.63 270.63 381.5 272.5C383.34 274.34 385.06 275 388.05 275C391.04 275 392.73 274.35 394.55 272.5C396.33 270.69 397 268.9 397 266C397 263.07 396.33 261.33 394.5 259.5C392.66 257.66 390.94 257 387.95 257C384.98 257 383.27 257.65 381.5 259.45Z" />
		<path id="Path 7" class="shp1" d="M337 271C335.13 272.87 335 274.33 335 294C335 313.67 335.13 315.13 337 317C338.1 318.1 340.01 319.01 341.25 319.03C342.49 319.05 344.28 318.26 345.22 317.28C346.75 315.71 346.95 312.99 346.97 294.25C347 274.31 346.88 272.88 345 271C343.9 269.9 342.1 269 341 269C339.9 269 338.1 269.9 337 271ZM432.5 278.34C429.61 279.68 425.68 282.73 423.19 285.58C420.57 288.57 418.31 292.46 417.43 295.5C416.51 298.68 415.98 305.04 415.98 313C415.98 320.9 416.51 327.34 417.42 330.5C418.31 333.6 420.53 337.4 423.26 340.5C426.09 343.72 429.6 346.35 433.08 347.88C436.74 349.49 440.45 350.27 444.5 350.31C448.94 350.34 451.93 349.68 456 347.77C459.02 346.34 463.04 343.45 464.93 341.34C466.81 339.23 469.28 335.47 470.43 333C472.24 329.06 472.5 326.57 472.5 313C472.5 298.57 472.33 297.13 470 292.1C468.62 289.13 465.7 285.11 463.5 283.16C461.3 281.22 457.7 278.82 455.5 277.84C452.9 276.67 449.05 276.04 444.5 276.03C439.26 276.02 436.24 276.6 432.5 278.34Z" />
		<path id="Path 8" class="shp0" d="M436.5 290.33C434.13 291.78 431.75 294.34 430.65 296.63C429.39 299.25 428.93 301.96 429.21 305C429.43 307.47 430.54 310.85 431.66 312.5C432.79 314.15 435.35 316.29 437.35 317.25C439.36 318.21 442.69 319.01 444.75 319.03C447.03 319.05 449.84 318.16 451.91 316.78C453.78 315.53 456.26 313.23 457.41 311.68C458.92 309.64 459.5 307.37 459.5 303.5C459.5 299.6 458.92 297.38 457.38 295.32C456.21 293.77 454.19 291.68 452.88 290.67C451.57 289.67 448.25 288.63 445.5 288.37C441.43 287.99 439.75 288.35 436.5 290.33Z" />
		<path id="Path 9" class="shp1" d="M333.43 343.01C316.97 359.52 303.05 373.02 302.5 373.01C301.95 373 298.12 370.75 294 368C289.87 365.25 285.6 363 284.5 362.99C283.4 362.97 281.78 363.54 280.89 364.23C280 364.93 264.45 383.05 246.33 404.5C228.21 425.95 212.28 444.95 210.94 446.72C208.64 449.75 208.59 450.11 210 453.05C210.82 454.76 212.4 456.36 213.5 456.6C214.6 456.85 272.6 456.92 342.39 456.77L469.28 456.5C473.02 451.51 473 451.4 466.01 427.5L459 403.5C377.55 322.05 367.99 313 365.93 313C363.89 313 357.15 319.22 333.43 343.01Z" />
		<path id="Path 10" fill-rule="evenodd" class="shp0" d="M365.5 327.97L447.97 410.5L458 444L343.75 444.04C234.23 444.09 229.56 444.02 231 442.31C231.82 441.32 244.31 426.45 258.75 409.26C273.19 392.07 285.22 378 285.5 378C285.77 378 289.37 380.25 293.5 383C297.62 385.75 302.01 388.01 303.25 388.02C304.88 388.04 313.74 379.8 335.5 358.01L365.5 327.97ZM457.76 329.32C457.98 329.97 457.12 331.57 455.83 332.88C454.55 334.19 452.04 335.87 450.25 336.63C448.46 337.38 445.76 337.99 444.25 337.99C442.74 337.98 439.7 337.09 437.5 336.01C435.3 334.94 432.88 333.1 432.13 331.93C431.38 330.76 430.93 329.66 431.13 329.48C431.33 329.31 433.97 329.82 437 330.63C440.42 331.54 444.39 331.87 447.5 331.49C450.25 331.16 453.59 330.27 454.93 329.51C456.73 328.49 457.46 328.44 457.76 329.32Z" />
		<path id="Path 11" class="shp1" d="M268 334C266.9 335.1 266 336.9 266 338C266 339.1 266.9 340.9 268 342C269.87 343.87 271.33 344 291 344C310.67 344 312.13 343.87 314 342C315.1 340.9 316 339.21 316.01 338.25C316.01 337.29 315.34 335.49 314.51 334.25C313.02 332.03 312.68 332 291.5 332C271.33 332 269.88 332.12 268 334Z" />
	</g>
</svg>