<svg version="1.2" baseProfile="tiny-ps" xmlns="http://www.w3.org/2000/svg" viewBox="0 0 318 286" width="318" height="286">
	<title>Background</title>
	<style>
		tspan { white-space:pre }
		.shp0 { fill: #946723 } 
		.shp1 { opacity: 0.078;fill: #ff9900 } 
		.shp2 { fill: #efac0c } 
		.shp3 { opacity: 0.89;fill: #efac0c } 
		.shp4 { fill: #ff9e0e } 
		.shp5 { fill: #ff9900 } 
		.shp6 { fill: #e7971f } 
		.shp7 { opacity: 0.612;fill: #f0ab0c } 
		.shp8 { fill: #f79401 } 
		.shp9 { fill: #ef940c } 
	</style>
	<g id="Background">
		<path id="Path 0" class="shp0" d="M150.98 1.56C150.17 2.53 148.95 4.27 148.28 5.41C147.62 6.56 146.11 9.52 144.95 12C143.78 14.47 142.22 18.3 141.46 20.5C140.71 22.7 139.74 26.47 139.3 28.87C138.86 31.27 138.16 33.41 137.75 33.62C137.34 33.83 137 35.01 137.01 36.25C137.01 37.49 136.17 40.07 135.14 42C133.63 44.82 133.48 45.97 134.38 47.9C135 49.23 136.77 51.25 138.32 52.4C140.67 54.14 142.38 54.46 148.32 54.27C153.63 54.1 155.96 53.58 157.28 52.27C158.26 51.3 159.05 49.94 159.03 49.25C159.01 48.56 159.45 48 160 48C160.55 48 161 46.87 161 45.5C161 44.12 161.45 43 162 43C162.55 43 163 41.65 163 40C163 38.35 163.45 37 164 37C164.55 37 165 35.87 165 34.5C165 33.12 165.34 32 165.75 32.01C166.16 32.01 167.62 29.24 169 25.85C170.37 22.47 172.51 18.64 173.75 17.35C174.99 16.06 175.89 14.02 175.75 12.83C175.61 11.63 174.15 9.83 172.5 8.84C170.85 7.84 168.37 6.48 167 5.82C165.62 5.16 163.6 3.8 162.5 2.79C161.4 1.79 158.69 0.7 156.48 0.38C153.37 -0.08 152.13 0.19 150.98 1.56Z" />
		<path id="Path 1" class="shp1" d="M86 39.96C82.97 40.32 89.27 40.41 100 40.17C110.72 39.93 119.69 39.57 119.92 39.37C120.15 39.16 113.85 39.07 105.92 39.16C97.99 39.25 89.02 39.61 86 39.96Z" />
		<path id="Path 2" class="shp2" d="M85.5 41.13C82.2 41.47 78.6 42.1 77.5 42.53C76.4 42.96 71 45.93 65.5 49.14C60 52.34 53.18 57.11 50.35 59.73C47.52 62.35 42.35 67.68 38.85 71.58C35.36 75.47 30.25 81.76 27.5 85.56C24.75 89.36 21.99 93.38 21.37 94.49C20.75 95.59 19.14 98.52 17.78 101C16.43 103.47 14.81 106.4 14.18 107.5C13.54 108.6 11.85 112.2 10.42 115.5C8.48 119.96 7.46 124.85 6.47 134.5C5.73 141.65 4.43 149.75 3.57 152.5C2.38 156.31 1.96 162.85 1.81 180L1.62 202.5C5.81 210.25 11.57 218.57 17.12 226C22.67 233.42 28.4 240.79 29.85 242.37C31.31 243.95 36.26 247.77 40.86 250.87C45.46 253.97 52.89 258.86 57.36 261.75C61.84 264.63 68.65 268.57 72.5 270.49C76.35 272.41 81.52 274.27 84 274.62C86.47 274.96 89.17 275.8 90 276.48C90.82 277.16 93.75 278.43 96.5 279.31C99.25 280.19 104.65 281.68 108.5 282.62C114.16 283.99 119.44 284.27 136 284.05C153.37 283.83 157.23 283.5 161.25 281.89C165.41 280.24 168.75 280 188 280C202 280 210 279.64 210 279C210 278.45 211.12 278 212.5 278C213.87 278 216.14 277.44 217.53 276.75C218.92 276.06 220.04 275.16 220.03 274.75C220.01 274.34 221.24 273.83 222.75 273.61C224.26 273.4 227.07 272.61 229 271.86C230.92 271.11 232.72 270.23 233 269.9C233.27 269.58 235.3 269.02 237.5 268.67C239.7 268.33 241.61 267.58 241.75 267.02C241.89 266.46 243.57 266 245.5 266C247.42 266 249 265.55 249 265C249 264.45 249.67 264 250.5 264C251.33 264 252 263.11 252 262C252 260.79 253.28 259.28 255.25 258.16C257.04 257.15 262.99 253.89 268.47 250.91C274.8 247.48 280.96 243.12 285.34 239C289.14 235.42 294.83 228.9 297.99 224.5C301.15 220.1 304.98 214.02 306.51 211C308.03 207.97 310.48 203.7 311.97 201.5C313.45 199.3 314.99 196.6 315.38 195.5C315.78 194.4 316.08 183.37 316.06 171C316.03 154.42 315.63 147.18 314.57 143.5C313.77 140.75 312.32 135.35 311.36 131.5C310.36 127.54 308.12 122.33 306.21 119.5C304.35 116.75 301.08 111.12 298.94 107C296.81 102.87 292.65 96.57 289.69 93C286.74 89.42 281.22 84.38 277.41 81.8C273.59 79.2 268.26 76.56 265.5 75.9C262.01 75.06 259.06 73.38 255.75 70.35C253.14 67.96 250.44 66.01 249.75 66.01C249.06 66.02 245.12 64.37 241 62.34C234.69 59.25 231.99 58.54 224 57.87C218.77 57.44 210.9 56.58 206.5 55.96C202.1 55.34 193.55 53.92 187.5 52.82C181.45 51.71 172.9 50.56 168.5 50.26C164.1 49.96 160.17 49.21 159.77 48.6C159.29 47.89 159.04 48.03 159.05 49C159.06 49.82 158.26 51.3 157.28 52.27C155.96 53.58 153.63 54.1 148.32 54.27C142.38 54.46 140.66 54.14 138.32 52.41C136.77 51.26 134.99 49.24 134.36 47.91C133.73 46.58 131.37 44.71 129.11 43.75C126.85 42.79 124.21 42.01 123.25 42.03C122.29 42.04 121.13 41.71 120.67 41.28C120.21 40.85 113.46 40.5 105.67 40.5C97.88 40.5 88.8 40.78 85.5 41.13Z" />
		<path id="Path 3" class="shp3" d="M99 40.74C102.02 40.94 107.2 40.94 110.5 40.74C113.8 40.54 111.32 40.38 105 40.38C98.67 40.38 95.97 40.54 99 40.74Z" />
		<path id="Path 4" class="shp4" d="M82 44.34C79.52 45 75.92 46.52 74 47.72C72.07 48.91 67.83 51.37 64.57 53.19C61.31 55.01 54.17 60.77 48.69 66C43.22 71.22 35.56 79.77 31.67 85C27.67 90.36 21.54 100.6 17.59 108.5L10.59 122.5C8.64 142.65 7.44 150.52 6.65 153C5.75 155.83 4.94 164.91 4.48 177.5L3.73 197.5C8.59 207.19 14.33 215.74 19.63 222.75C24.93 229.76 30.67 237.01 32.38 238.85C34.1 240.69 38.65 244.31 42.5 246.89C46.35 249.47 51.52 252.95 54 254.63C56.47 256.3 61.65 259.75 65.5 262.3C69.35 264.86 74.86 267.86 77.75 268.97C80.64 270.09 84.35 271 86 271C87.65 271 91.36 272.11 94.25 273.46C97.14 274.82 104.22 277.18 110 278.71C118.85 281.06 122.49 281.5 133.17 281.5C140.13 281.5 146.1 281.27 146.43 281C146.75 280.72 146.77 279.82 146.46 279C146.15 278.17 144.01 276.32 141.7 274.87C139.39 273.42 136.49 271.96 135.25 271.62C134.01 271.28 133.02 270.66 133.04 270.25C133.06 269.84 130.47 268.32 127.29 266.88C124.1 265.44 119.25 262.28 116.5 259.85C113.67 257.35 105.86 252.63 98.5 248.97C87.09 243.29 84.58 241.57 78 234.88C73.87 230.68 69.6 226.99 68.5 226.68C67.4 226.36 65.97 224.85 65.33 223.3C64.68 221.76 63.6 218.02 62.93 215C62.02 210.9 61.88 200.98 62.41 176C63.04 145.82 63.34 141.51 65.46 132.5C66.75 127 68.25 120.02 68.79 117C69.42 113.44 69.42 111.32 68.8 111C68.26 110.72 69.6 106.9 71.77 102.5C73.94 98.1 77.8 91.46 80.36 87.75C82.91 84.04 85 80.55 85 80C85 79.45 87.19 75.74 89.87 71.75C93.86 65.8 95.61 64.11 99.62 62.34C102.3 61.16 108.55 59.27 113.5 58.15C118.45 57.04 124.65 55.53 127.27 54.81C129.89 54.09 132.46 52.82 132.97 52C133.61 50.96 133.37 49.95 132.2 48.72C130.75 47.19 128.75 46.94 118.5 46.98C110.23 47.01 103.39 46.4 96.5 45C91 43.88 86.5 43.01 86.5 43.05C86.5 43.1 84.47 43.68 82 44.34Z" />
		<path id="Path 5" class="shp1" d="M198 53.72C199.37 53.95 201.85 53.95 203.5 53.72C205.15 53.49 204.02 53.3 201 53.3C197.97 53.3 196.62 53.49 198 53.72Z" />
		<path id="Path 6" class="shp5" d="M124.5 55.39C122.85 56.11 117.67 57.48 113 58.43C108.32 59.38 102.3 61.14 99.62 62.33C95.62 64.11 93.85 65.81 89.87 71.75C87.19 75.74 85 79.45 85 80C85 80.55 82.91 84.04 80.36 87.75C77.8 91.46 73.94 98.1 71.77 102.5C69.6 106.9 68.26 110.72 68.8 111C69.42 111.32 69.42 113.44 68.79 117C68.25 120.02 66.75 127 65.46 132.5C63.34 141.51 63.04 145.82 62.41 176C61.88 200.98 62.02 210.9 62.93 215C63.6 218.02 64.68 221.76 65.33 223.3C65.97 224.85 67.4 226.36 68.5 226.68C69.6 226.99 73.87 230.68 78 234.88C84.58 241.57 87.09 243.29 98.5 248.97C105.86 252.63 113.67 257.35 116.5 259.85C119.25 262.28 124.1 265.44 127.29 266.88C130.47 268.32 133.06 269.84 133.04 270.25C133.02 270.66 134.01 271.27 135.25 271.6C136.49 271.93 139.3 273.39 141.5 274.85C143.7 276.31 145.61 277.84 145.75 278.25C145.89 278.66 147.8 279 150 279C152.2 279 154.22 278.55 154.5 278C154.77 277.45 156.27 277 157.83 277C159.39 277 160.97 276.77 161.33 276.5C161.7 276.22 160.99 274.82 159.75 273.38C158.51 271.93 156.6 269.87 155.5 268.8C154.4 267.73 151.25 265.33 148.5 263.48C145.75 261.63 140.25 258.4 136.28 256.31C130.98 253.51 128.66 251.64 127.53 249.25C126.69 247.46 125.36 242.74 124.59 238.75C123.81 234.76 122.86 229.02 122.47 226C122.09 222.97 121.59 219.15 121.38 217.5C121.16 215.85 120.58 213.15 120.08 211.5C119.58 209.85 118.85 203.55 118.44 197.5C118.04 191.45 117.7 178.4 117.67 168.5C117.65 158.6 117.88 140.15 118.17 127.5C118.64 107.11 118.95 103.82 120.9 98.5C122.11 95.2 123.92 90.02 124.93 87C125.94 83.97 127.99 78.8 129.49 75.5C130.99 72.2 133.04 67.7 134.04 65.5C135.04 63.3 135.94 60.6 136.04 59.5C136.15 58.4 136.18 56.71 136.12 55.75C136.02 54.37 135.1 54.01 131.75 54.04C129.41 54.06 126.15 54.67 124.5 55.39Z" />
		<path id="Path 7" class="shp6" d="M158.13 56.5C157.51 57.87 156.32 59 155.5 59C154.67 59 153.55 59.22 153 59.5C152.45 59.77 151.66 60.01 151.25 60.03C150.84 60.05 151.29 60.5 152.25 61.03C153.21 61.56 154 62.45 154 63C154 63.55 155.69 65.88 157.75 68.17C159.81 70.47 163.82 74.63 166.64 77.42C169.47 80.22 174.2 84.6 177.14 87.16C180.09 89.72 184.92 94 187.88 96.66C190.83 99.32 194.64 101.95 196.34 102.5C198.25 103.12 201.41 105.97 204.66 110C207.54 113.57 211.44 119.42 213.32 123C215.19 126.57 217.05 130.85 217.44 132.5C217.83 134.15 218.76 136.85 219.49 138.5C220.22 140.15 221.52 145.32 222.36 150C223.52 156.42 223.89 165.73 223.87 188L223.83 217.5C215.84 234.13 213.24 237.94 208.85 242.25C205.63 245.41 202.66 248.01 202.25 248.03C201.84 248.04 199.25 250.16 196.5 252.74C193.75 255.31 190.04 259.57 188.25 262.21C186.37 264.98 185 268.26 185 270C185 272.33 185.44 273 187 273C188.1 273 188.89 273.56 188.75 274.25C188.57 275.15 190.75 275.58 196.5 275.79C202.82 276.02 205.76 275.61 210.5 273.85C213.8 272.62 217.85 270.9 219.5 270.02C221.15 269.13 225.2 267.57 228.5 266.55C231.8 265.53 236.07 264.01 238 263.18C239.92 262.36 241.95 261.13 242.5 260.47C243.05 259.8 248 256.76 253.5 253.7C259 250.65 267.27 245.98 271.87 243.32C278.14 239.71 281.73 236.75 286.19 231.5C289.46 227.65 294.25 221.3 296.82 217.38C299.39 213.47 302.85 207.87 304.5 204.94C306.15 202.02 308.52 197.8 309.77 195.56C311.92 191.73 312.04 190.43 312.02 172.25C312 156.42 311.66 151.8 310.1 146.25C309.05 142.54 307.7 137.02 307.1 134C306.5 130.97 304.46 126.02 302.58 123C300.69 119.97 297.11 113.67 294.63 109C292.14 104.32 287.44 97.57 284.18 94C280.14 89.57 276.23 86.48 271.88 84.31C268.37 82.55 263.25 80.31 260.5 79.33C257.75 78.35 253.7 75.84 251.5 73.76C249.3 71.67 247.05 69.98 246.5 69.98C245.95 69.99 242.35 68.45 238.5 66.56C231.93 63.33 230.59 63.06 216.5 62.13C208.25 61.59 198.35 60.49 194.5 59.69C190.65 58.88 184.12 57.89 180 57.47C175.87 57.06 171.04 56.11 169.25 55.36C167.46 54.61 164.48 54 162.63 54C160 54 159.01 54.55 158.13 56.5Z" />
		<path id="Path 8" class="shp7" d="M198 54.72C199.37 54.95 201.85 54.95 203.5 54.72C205.15 54.49 204.02 54.3 201 54.3C197.97 54.3 196.62 54.49 198 54.72Z" />
		<path id="Path 9" class="shp8" d="M135.99 59.75C135.98 60.71 135.13 63.3 134.1 65.5C133.06 67.7 130.99 72.2 129.49 75.5C127.99 78.8 125.94 83.97 124.93 87C123.92 90.02 122.11 95.2 120.9 98.5C118.95 103.82 118.64 107.11 118.17 127.5C117.88 140.15 117.65 158.6 117.67 168.5C117.7 178.4 118.04 191.45 118.44 197.5C118.85 203.55 119.58 209.85 120.08 211.5C120.58 213.15 121.16 215.85 121.38 217.5C121.59 219.15 122.09 222.97 122.47 226C122.86 229.02 123.81 234.76 124.59 238.75C125.36 242.74 126.7 247.46 127.55 249.25C128.67 251.61 130.93 253.45 135.8 255.97C139.48 257.87 144.07 260.62 146 262.08C147.92 263.53 150.96 265.46 152.75 266.36C154.54 267.26 156.9 269.57 158 271.5C159.91 274.84 160.28 275.01 166.06 275.25C171.04 275.46 172.47 275.14 174.01 273.5C175.04 272.4 176.59 269.81 177.44 267.75C178.53 265.13 179 260.68 179 253C179 246.62 178.49 240.85 177.8 239.25C176.85 237.08 176.88 234.16 177.96 225.5C178.71 219.42 179.4 203.55 179.49 190C179.58 176.52 179.27 161.9 178.79 157.5C178.32 153.1 177.48 146.12 176.92 142C176.36 137.87 175.51 130.45 175.05 125.5C174.58 120.55 173.43 114.7 172.49 112.5C171.56 110.3 169.15 106.51 167.15 104.08C165.14 101.64 162.72 98.49 161.76 97.08C160.8 95.66 160 93.6 159.97 92.5C159.95 91.4 158.47 88.7 156.68 86.5C154.89 84.3 152.72 81.37 151.86 80C151 78.62 149.98 75.92 149.6 74C149.22 72.07 148.7 69.04 148.45 67.25C148.2 65.46 147.55 64 147 64C146.45 64 146 62.87 146 61.5C146 59.72 145.35 58.86 143.75 58.51C142.51 58.25 140.26 58.02 138.75 58.01C136.8 58 136 58.51 135.99 59.75Z" />
		<path id="Path 10" class="shp9" d="M146 62C146 63.1 146.45 64 147 64C147.55 64 148.2 65.46 148.45 67.25C148.7 69.04 149.22 72.07 149.6 74C149.98 75.92 151 78.62 151.86 80C152.72 81.37 154.89 84.3 156.68 86.5C158.47 88.7 159.95 91.4 159.97 92.5C160 93.6 160.8 95.66 161.76 97.08C162.72 98.49 165.14 101.64 167.15 104.08C169.15 106.51 171.56 110.3 172.49 112.5C173.43 114.7 174.58 120.55 175.05 125.5C175.51 130.45 176.36 137.87 176.92 142C177.48 146.12 178.32 153.1 178.79 157.5C179.27 161.9 179.58 176.52 179.49 190C179.4 203.55 178.71 219.42 177.96 225.5C176.88 234.16 176.85 237.08 177.8 239.25C178.49 240.85 179 246.62 179 253C179 260.55 178.52 265.18 177.48 267.75C176.64 269.81 175.96 272.06 175.98 272.75C175.99 273.44 177.01 274.21 178.25 274.46C179.69 274.75 181.32 274.12 182.78 272.71C184.03 271.49 185.04 269.71 185.03 268.75C185.01 267.79 186.46 264.84 188.25 262.21C190.04 259.57 193.75 255.31 196.5 252.74C199.25 250.16 201.84 248.04 202.25 248.03C202.66 248.01 205.63 245.41 208.85 242.25C213.24 237.94 215.84 234.13 219.27 227L223.83 217.5C223.89 165.73 223.52 156.42 222.36 150C221.52 145.32 220.22 140.15 219.49 138.5C218.76 136.85 217.83 134.15 217.44 132.5C217.05 130.85 215.19 126.57 213.32 123C211.44 119.42 207.54 113.57 204.66 110C201.41 105.97 198.25 103.12 196.34 102.5C194.64 101.95 190.83 99.32 187.88 96.66C184.92 94 180.09 89.72 177.14 87.16C174.2 84.6 169.47 80.22 166.64 77.42C163.82 74.63 159.81 70.47 157.75 68.17C155.69 65.88 154 63.55 154 63C154 62.45 153.1 61.55 152 61C150.9 60.45 149.1 60 148 60C146.67 60 146 60.67 146 62Z" />
		<path id="Path 11" class="shp1" d="M5.48 134.5C5.15 140.55 5.01 145.58 5.19 145.68C5.36 145.78 5.94 141.13 6.47 135.34C7 129.55 7.14 124.52 6.77 124.16C6.4 123.8 5.82 128.45 5.48 134.5ZM317.42 171.5C317.42 182.5 317.57 187.22 317.74 182C317.92 176.77 317.92 167.77 317.75 162C317.57 156.22 317.42 160.5 317.42 171.5Z" />
		<path id="Path 12" class="shp3" d="M316.42 171.5C316.42 181.95 316.57 186 316.75 180.5C316.93 175 316.93 166.45 316.74 161.5C316.56 156.55 316.42 161.05 316.42 171.5Z" />
		<path id="Path 13" class="shp1" d="M0.7 177.32C0.26 188.97 0.13 198.72 0.4 199C0.67 199.27 1.16 189.82 1.5 178C1.84 166.17 1.97 156.42 1.81 156.32C1.64 156.23 1.14 165.68 0.7 177.32Z" />
		<path id="Path 14" class="shp3" d="M1.36 189C1.36 194.22 1.53 196.25 1.74 193.5C1.94 190.75 1.94 186.47 1.74 184C1.53 181.52 1.36 183.77 1.36 189Z" />
		<path id="Path 15" class="shp1" d="M170 280.72C171.92 280.94 174.62 280.94 176 280.71C177.37 280.49 175.8 280.3 172.5 280.31C169.2 280.32 168.07 280.5 170 280.72Z" />
		<path id="Path 16" class="shp7" d="M189.5 280.74C192.8 280.94 198.42 280.94 202 280.74C205.57 280.55 202.87 280.39 196 280.39C189.12 280.39 186.2 280.55 189.5 280.74Z" />
		<path id="Path 17" class="shp1" d="M189.5 281.74C192.8 281.94 198.42 281.94 202 281.74C205.57 281.55 202.87 281.39 196 281.39C189.12 281.39 186.2 281.55 189.5 281.74Z" />
		<path id="Path 18" class="shp7" d="M130.5 284.75C135.45 284.93 143.1 284.93 147.5 284.74C151.9 284.56 147.85 284.41 138.5 284.41C129.15 284.41 125.55 284.56 130.5 284.75Z" />
		<path id="Path 19" class="shp1" d="M130.5 285.75C135.45 285.93 143.1 285.93 147.5 285.74C151.9 285.56 147.85 285.41 138.5 285.41C129.15 285.41 125.55 285.56 130.5 285.75Z" />
	</g>
</svg>