<svg version="1.2" baseProfile="tiny-ps" xmlns="http://www.w3.org/2000/svg" viewBox="0 0 616 658" width="616" height="658">
	<title>Background</title>
	<style>
		tspan { white-space:pre }
		.shp0 { opacity: 0.992;fill: #7dc41d } 
		.shp1 { opacity: 0.992;fill: #82c41e } 
		.shp2 { opacity: 0.996;fill: #93c725 } 
		.shp3 { opacity: 0.996;fill: #9ac829 } 
		.shp4 { opacity: 0.996;fill: #9ec827 } 
		.shp5 { opacity: 0.996;fill: #7dc522 } 
		.shp6 { opacity: 0.996;fill: #9eca2d } 
		.shp7 { opacity: 0.996;fill: #a5ca2d } 
		.shp8 { opacity: 0.996;fill: #88c725 } 
		.shp9 { opacity: 0.996;fill: #a3c92b } 
		.shp10 { opacity: 0.996;fill: #82c624 } 
		.shp11 { opacity: 0.996;fill: #a4c828 } 
		.shp12 { opacity: 0.996;fill: #6fc625 } 
		.shp13 { opacity: 0.996;fill: #a3cb30 } 
		.shp14 { opacity: 0.996;fill: #a7cc31 } 
		.shp15 { opacity: 0.996;fill: #7ac625 } 
		.shp16 { opacity: 0.996;fill: #76c523 } 
		.shp17 { opacity: 0.145;fill: #7cc41e } 
		.shp18 { fill: #de6a96 } 
		.shp19 { fill: #df6094 } 
		.shp20 { opacity: 0.996;fill: #e35a96 } 
		.shp21 { fill: #e4619a } 
		.shp22 { opacity: 0.996;fill: #de4886 } 
		.shp23 { opacity: 0.11;fill: #dc438a } 
		.shp24 { opacity: 0.996;fill: #e14d8e } 
		.shp25 { opacity: 0.996;fill: #e25492 } 
		.shp26 { opacity: 0.988;fill: #dd3a82 } 
		.shp27 { opacity: 0.996;fill: #e1448c } 
		.shp28 { fill: #e34b91 } 
		.shp29 { fill: #df3786 } 
		.shp30 { opacity: 0.996;fill: #de1d84 } 
		.shp31 { opacity: 0.992;fill: #d8396e } 
		.shp32 { opacity: 0.992;fill: #d83aaf } 
		.shp33 { opacity: 0.992;fill: #cf8b6d } 
		.shp34 { opacity: 0.18;fill: #cf8b6d } 
	</style>
	<g id="Background">
		<path id="Path 0" class="shp0" d="M91 42L110 0L136 6L104 13L106 31L102 38L92 43L91 42Z" />
		<path id="Path 1" class="shp1" d="M106 31L104 13L136 6L187 71L176 75L175 67L151 31L129 13L106 31Z" />
		<path id="Path 2" class="shp2" d="M106 31L129 13L151 31L139 25L123 43L123 44L125 56L123 70L121 76L120 72L118 59L113 45L100 59L97 68L90 73L97 57L102 38L106 31Z" />
		<path id="Path 3" class="shp0" d="M309 42L331 15L365 35L327 34L309 42Z" />
		<path id="Path 4" class="shp3" d="M123 43L139 25L134 35L123 43Z" />
		<path id="Path 5" class="shp1" d="M327 34L365 35L424 108L436 116L421 123L403 105L395 98L382 75L355 42L347 53L342 52L327 34Z" />
		<path id="Path 6" class="shp4" d="M134 35L139 25L151 31L175 67L167 68L156 52L135 41L134 35Z" />
		<path id="Path 7" class="shp0" d="M424 108L477 33L511 51L499 55L474 53L464 62L451 81L440 107L439 111L437 114L436 116L424 108Z" />
		<path id="Path 8" class="shp2" d="M327 34L342 52L344 62L341 56L330 43L317 56L314 58L313 57L327 34Z" />
		<path id="Path 9" class="shp5" d="M309 42L327 34L313 57L312 57L303 52L309 42Z" />
		<path id="Path 10" class="shp6" d="M123 43L134 35L135 41L131 56L123 44L123 43Z" />
		<path id="Path 11" class="shp5" d="M92 43L102 38L97 57L90 53L92 43Z" />
		<path id="Path 12" class="shp7" d="M135 41L156 52L132 73L131 56L135 41Z" />
		<path id="Path 13" class="shp1" d="M88 52L91 42L92 43L90 53L88 52Z" />
		<path id="Path 14" class="shp2" d="M347 53L355 42L382 75L374 71L371 67L352 60L349 60L347 53Z" />
		<path id="Path 15" class="shp4" d="M317 56L330 43L341 56L317 56Z" />
		<path id="Path 16" class="shp3" d="M125 56L123 44L131 56L132 73L132 76L125 56Z" />
		<path id="Path 17" class="shp4" d="M100 59L113 45L118 59L100 59Z" />
		<path id="Path 18" class="shp8" d="M474 53L499 55L506 65L494 72L494 85L488 88L488 74L489 50L474 53Z" />
		<path id="Path 19" class="shp0" d="M225 67L262 52L248 65L247 66L225 67Z" />
		<path id="Path 20" class="shp3" d="M474 53L489 50L488 74L478 69L464 62L474 53Z" />
		<path id="Path 21" class="shp1" d="M499 55L511 51L535 88L543 104L614 205L613 212L606 228L593 227L583 180L569 163L550 143L535 125L525 99L506 65L499 55Z" />
		<path id="Path 22" class="shp0" d="M76 89L88 52L90 53L97 57L90 73L85 88L76 89Z" />
		<path id="Path 23" class="shp9" d="M132 73L156 52L167 68L166 74L151 84L139 89L133 81L132 76L132 73Z" />
		<path id="Path 24" class="shp1" d="M248 65L262 52L279 71L273 79L248 65ZM295 69L303 52L312 57L300 99L290 102L275 83L295 69Z" />
		<path id="Path 25" class="shp10" d="M344 62L342 52L347 53L349 60L353 85L347 86L344 62Z" />
		<path id="Path 26" class="shp9" d="M317 56L341 56L344 62L347 86L347 88L324 71L329 107L344 101L331 127L309 128L311 102L317 82L314 58L317 56Z" />
		<path id="Path 27" class="shp11" d="M100 59L118 59L120 72L104 73L97 68L100 59Z" />
		<path id="Path 28" class="shp12" d="M123 70L125 56L132 76L133 81L131 88L123 70Z" />
		<path id="Path 29" class="shp4" d="M352 60L371 67L354 72L352 60Z" />
		<path id="Path 30" class="shp3" d="M300 99L312 57L313 57L314 58L317 82L311 102L309 128L306 132L303 106L300 99ZM353 85L349 60L352 60L354 72L356 84L356 155L355 155L355 149L354 134L350 109L353 85Z" />
		<path id="Path 31" class="shp2" d="M494 72L506 65L525 99L518 94L498 77L494 72Z" />
		<path id="Path 32" class="shp4" d="M451 81L464 62L478 69L456 80L451 81Z" />
		<path id="Path 33" class="shp2" d="M248 65L273 79L274 83L273 84L261 78L248 92L248 107L246 110L240 113L237 90L218 101L222 93L247 66L248 65Z" />
		<path id="Path 34" class="shp1" d="M225 67L247 66L222 93L216 91L214 89L225 67Z" />
		<path id="Path 35" class="shp11" d="M167 68L175 67L176 75L179 90L168 87L167 86L166 74L167 68Z" />
		<path id="Path 36" class="shp0" d="M176 75L187 71L198 100L214 89L216 91L192 108L183 100L183 99L179 90L176 75Z" />
		<path id="Path 37" class="shp7" d="M354 72L371 67L374 71L374 84L356 84L354 72Z" />
		<path id="Path 38" class="shp4" d="M90 73L97 68L104 73L101 82L86 91L85 88L90 73Z" />
		<path id="Path 39" class="shp7" d="M344 101L329 107L324 71L347 88L347 92L344 101ZM104 73L120 72L121 76L120 85L104 89L101 82L104 73Z" />
		<path id="Path 40" class="shp0" d="M279 71L295 69L275 83L274 83L273 79L279 71Z" />
		<path id="Path 41" class="shp9" d="M456 80L478 69L488 74L488 88L488 89L485 94L467 88L459 94L456 80Z" />
		<path id="Path 42" class="shp11" d="M121 76L123 70L131 88L137 104L136 106L122 101L120 85L121 76Z" />
		<path id="Path 43" class="shp13" d="M151 84L166 74L167 86L151 84Z" />
		<path id="Path 44" class="shp11" d="M374 84L374 71L382 75L395 98L388 98L374 84Z" />
		<path id="Path 45" class="shp3" d="M494 85L494 72L498 77L497 109L493 119L493 100L494 85ZM248 92L261 78L261 88L248 92Z" />
		<path id="Path 46" class="shp4" d="M261 78L273 84L292 124L288 139L284 140L278 109L262 88L261 88L261 78Z" />
		<path id="Path 47" class="shp7" d="M497 109L498 77L518 94L518 105L500 111L497 109Z" />
		<path id="Path 48" class="shp3" d="M451 81L456 80L459 94L460 98L457 106L440 107L451 81Z" />
		<path id="Path 49" class="shp10" d="M131 88L133 81L139 89L144 105L137 104L131 88Z" />
		<path id="Path 50" class="shp9" d="M86 91L101 82L104 89L101 99L86 104L86 102L86 91Z" />
		<path id="Path 51" class="shp8" d="M273 84L274 83L275 83L290 102L294 129L292 124L273 84Z" />
		<path id="Path 52" class="shp14" d="M356 84L374 84L388 98L392 120L377 162L373 171L356 174L356 155L356 84Z" />
		<path id="Path 53" class="shp7" d="M467 88L485 94L486 103L477 103L467 88Z" />
		<path id="Path 54" class="shp14" d="M104 89L120 85L122 101L133 130L138 149L104 148L101 139L101 99L104 89Z" />
		<path id="Path 55" class="shp6" d="M139 89L151 84L167 86L168 87L168 99L155 116L144 105L139 89Z" />
		<path id="Path 56" class="shp15" d="M347 86L353 85L350 109L345 110L347 92L347 88L347 86ZM488 88L494 85L493 100L488 102L488 89L488 88Z" />
		<path id="Path 57" fill-rule="evenodd" class="shp9" d="M168 99L168 87L179 90L183 99L176 107L171 103L168 99ZM262 88L278 109L261 99L262 88Z" />
		<path id="Path 58" class="shp1" d="M76 89L85 88L86 91L86 102L83 104L69 123L69 110L76 89Z" />
		<path id="Path 59" class="shp6" d="M248 92L261 88L262 88L261 99L260 103L248 107L248 92Z" />
		<path id="Path 60" class="shp13" d="M459 94L467 88L477 103L469 111L460 98L459 94Z" />
		<path id="Path 61" class="shp3" d="M485 94L488 89L488 102L480 133L449 127L448 127L447 125L456 117L471 122L486 103L485 94Z" />
		<path id="Path 62" class="shp4" d="M218 101L237 90L240 113L240 121L239 124L214 107L218 101Z" />
		<path id="Path 63" class="shp10" d="M192 108L216 91L222 93L218 101L214 107L207 115L192 108Z" />
		<path id="Path 64" class="shp2" d="M344 101L347 92L345 110L342 140L347 153L346 168L344 163L341 143L331 127L344 101Z" />
		<path id="Path 65" class="shp11" d="M176 107L183 99L183 100L180 138L178 127L177 117L176 107ZM518 105L518 94L525 99L535 125L533 125L520 112L518 105Z" />
		<path id="Path 66" class="shp8" d="M183 100L192 108L207 115L207 116L194 143L194 144L173 166L169 172L161 152L159 147L180 138L183 100Z" />
		<path id="Path 67" class="shp9" d="M392 120L388 98L395 98L403 105L407 128L392 120Z" />
		<path id="Path 68" class="shp6" d="M457 106L460 98L469 111L471 122L456 117L457 106Z" />
		<path id="Path 69" class="shp7" d="M86 104L101 99L101 139L86 126L86 104Z" />
		<path id="Path 70" class="shp13" d="M155 116L168 99L171 103L177 117L178 127L155 117L155 116ZM260 103L261 99L278 109L284 140L282 164L271 166L263 163L248 136L247 126L260 103Z" />
		<path id="Path 71" class="shp5" d="M290 102L300 99L303 106L303 140L302 149L310 179L296 180L294 175L293 173L293 168L294 129L290 102Z" />
		<path id="Path 72" class="shp10" d="M488 102L493 100L493 119L487 142L481 141L480 133L488 102Z" />
		<path id="Path 73" class="shp7" d="M133 130L122 101L136 106L140 126L133 130Z" />
		<path id="Path 74" class="shp3" d="M83 104L86 102L86 104L86 126L83 139L75 155L72 157L51 168L52 162L70 129L83 104Z" />
		<path id="Path 75" class="shp4" d="M440 107L457 106L456 117L447 125L439 111L440 107Z" />
		<path id="Path 76" class="shp9" d="M477 103L486 103L471 122L469 111L477 103Z" />
		<path id="Path 77" class="shp5" d="M69 123L83 104L70 129L69 123Z" />
		<path id="Path 78" class="shp14" d="M177 117L171 103L176 107L177 117Z" />
		<path id="Path 79" class="shp9" d="M248 107L260 103L247 126L246 110L248 107Z" />
		<path id="Path 80" class="shp8" d="M136 106L137 104L144 105L155 116L155 117L153 127L140 119L144 132L140 126L136 106Z" />
		<path id="Path 81" class="shp9" d="M214 107L239 124L240 138L236 144L228 133L215 122L207 116L207 115L214 107Z" />
		<path id="Path 82" class="shp14" d="M500 111L518 105L520 112L534 139L536 151L520 170L518 179L505 184L500 148L500 111Z" />
		<path id="Path 83" class="shp3" d="M407 128L403 105L421 123L430 133L426 137L407 129L407 128Z" />
		<path id="Path 84" class="shp15" d="M303 140L303 106L306 132L303 140Z" />
		<path id="Path 85" class="shp10" d="M345 110L350 109L354 134L342 140L345 110Z" />
		<path id="Path 86" class="shp9" d="M493 119L497 109L500 111L500 148L490 161L487 142L493 119Z" />
		<path id="Path 87" class="shp0" d="M36 172L69 110L69 123L70 129L52 162L36 172Z" />
		<path id="Path 88" class="shp15" d="M240 113L246 110L247 126L248 136L253 168L244 168L240 121L240 113Z" />
		<path id="Path 89" class="shp1" d="M437 114L439 111L447 125L448 127L445 138L437 114Z" />
		<path id="Path 90" class="shp7" d="M534 139L520 112L533 125L534 139Z" />
		<path id="Path 91" class="shp8" d="M436 116L437 114L445 138L446 143L444 142L430 133L421 123L436 116Z" />
		<path id="Path 92" class="shp9" d="M155 117L178 127L180 138L159 147L153 127L155 117Z" />
		<path id="Path 93" class="shp4" d="M194 143L207 116L215 122L216 134L214 136L194 143Z" />
		<path id="Path 94" class="shp7" d="M215 122L228 133L216 134L215 122Z" />
		<path id="Path 95" class="shp15" d="M144 132L140 119L153 127L159 147L161 152L151 151L144 132Z" />
		<path id="Path 96" class="shp13" d="M392 120L407 128L407 129L377 162L392 120Z" />
		<path id="Path 97" class="shp2" d="M239 124L240 121L244 168L248 216L247 228L245 226L241 169L240 138L239 124ZM288 139L292 124L294 129L293 168L288 139Z" />
		<path id="Path 98" class="shp4" d="M533 125L535 125L550 143L547 152L536 152L536 151L534 139L533 125Z" />
		<path id="Path 99" class="shp6" d="M83 139L86 126L101 139L104 148L95 146L83 139Z" />
		<path id="Path 100" class="shp11" d="M133 130L140 126L144 132L151 151L149 166L139 171L135 169L138 149L133 130Z" />
		<path id="Path 101" class="shp2" d="M449 127L480 133L481 141L473 151L467 147L458 139L449 127Z" />
		<path id="Path 102" class="shp7" d="M309 128L331 127L341 143L323 163L344 163L346 168L347 180L319 186L302 149L303 140L306 132L309 128Z" />
		<path id="Path 103" class="shp5" d="M445 138L448 127L449 127L458 139L451 146L446 143L445 138Z" />
		<path id="Path 104" class="shp6" d="M377 162L407 129L426 137L414 149L363 194L373 171L377 162Z" />
		<path id="Path 105" class="shp14" d="M216 134L228 133L236 144L239 172L237 224L230 222L219 201L215 180L202 163L203 153L214 136L216 134Z" />
		<path id="Path 106" class="shp9" d="M426 137L430 133L444 142L437 153L423 152L414 149L426 137Z" />
		<path id="Path 107" class="shp3" d="M248 136L263 163L259 173L257 173L253 168L248 136Z" />
		<path id="Path 108" class="shp15" d="M342 140L354 134L355 149L347 153L342 140Z" />
		<path id="Path 109" class="shp7" d="M194 143L214 136L203 153L194 144L194 143ZM236 144L240 138L241 169L239 172L236 144Z" />
		<path id="Path 110" class="shp15" d="M451 146L458 139L467 147L457 153L451 146Z" />
		<path id="Path 111" class="shp4" d="M75 155L83 139L95 146L86 155L75 155Z" />
		<path id="Path 112" class="shp11" d="M284 140L288 139L293 168L293 173L282 164L284 140Z" />
		<path id="Path 113" class="shp15" d="M481 141L487 142L490 161L485 189L474 201L469 185L469 184L473 151L481 141Z" />
		<path id="Path 114" class="shp11" d="M437 153L444 142L446 143L451 146L457 153L469 184L469 185L464 212L456 213L452 209L452 208L455 181L437 153Z" />
		<path id="Path 115" class="shp14" d="M344 163L323 163L341 143L344 163Z" />
		<path id="Path 116" class="shp3" d="M547 152L550 143L569 163L559 166L550 169L544 167L547 152Z" />
		<path id="Path 117" class="shp9" d="M173 166L194 144L203 153L202 163L193 179L173 166Z" />
		<path id="Path 118" class="shp13" d="M86 155L95 146L104 148L138 149L135 169L116 163L117 187L89 164L86 155Z" />
		<path id="Path 119" class="shp10" d="M457 153L467 147L473 151L469 184L457 153Z" />
		<path id="Path 120" class="shp16" d="M347 153L355 149L355 155L353 181L348 184L347 180L346 168L347 153Z" />
		<path id="Path 121" class="shp13" d="M414 149L423 152L402 196L423 198L426 209L452 209L456 213L453 234L408 232L408 260L388 254L411 216L372 217L357 215L357 204L356 194L363 194L414 149Z" />
		<path id="Path 122" class="shp7" d="M490 161L500 148L505 184L502 194L485 194L485 189L490 161Z" />
		<path id="Path 123" class="shp2" d="M310 179L302 149L319 186L329 202L314 195L310 179Z" />
		<path id="Path 124" class="shp5" d="M149 166L151 151L161 152L169 172L158 178L149 166Z" />
		<path id="Path 125" class="shp14" d="M423 152L437 153L455 181L423 198L402 196L423 152Z" />
		<path id="Path 126" class="shp13" d="M520 170L536 151L536 152L534 163L520 170Z" />
		<path id="Path 127" class="shp9" d="M536 152L547 152L544 167L534 163L536 152ZM51 168L72 157L56 177L51 172L51 168Z" />
		<path id="Path 128" class="shp7" d="M72 157L75 155L86 155L89 164L68 181L81 202L87 214L72 217L56 177L72 157Z" />
		<path id="Path 129" class="shp9" d="M353 181L355 155L356 155L356 174L373 171L363 194L356 194L353 181Z" />
		<path id="Path 130" class="shp10" d="M36 172L52 162L51 168L51 172L44 199L34 177L36 172Z" />
		<path id="Path 131" class="shp6" d="M117 187L116 163L135 169L139 171L136 178L118 194L117 194L117 187Z" />
		<path id="Path 132" class="shp7" d="M193 179L202 163L215 180L203 186L194 180L193 179ZM259 173L263 163L271 166L257 191L259 173Z" />
		<path id="Path 133" class="shp14" d="M271 166L282 164L293 173L294 175L277 202L257 214L257 191L271 166Z" />
		<path id="Path 134" class="shp6" d="M520 170L534 163L544 167L550 169L500 210L505 202L518 179L520 170Z" />
		<path id="Path 135" class="shp11" d="M559 166L569 163L583 180L579 189L567 180L559 166Z" />
		<path id="Path 136" class="shp14" d="M81 202L68 181L89 164L117 187L117 194L81 202Z" />
		<path id="Path 137" class="shp12" d="M253 168L257 173L254 216L248 216L244 168L253 168Z" />
		<path id="Path 138" class="shp8" d="M139 171L149 166L158 178L158 180L147 194L133 209L132 209L135 203L134 188L136 178L139 171Z" />
		<path id="Path 139" class="shp3" d="M169 172L173 166L193 179L194 180L188 186L165 176L158 180L158 178L169 172Z" />
		<path id="Path 140" class="shp13" d="M550 169L559 166L567 180L517 229L577 229L576 233L545 237L565 242L561 258L488 268L487 257L504 249L501 233L497 212L500 210L550 169Z" />
		<path id="Path 141" class="shp11" d="M239 172L241 169L245 226L239 227L237 224L239 172Z" />
		<path id="Path 142" class="shp4" d="M44 199L51 172L56 177L72 217L70 235L67 246L66 244L54 215L44 199ZM254 216L257 173L259 173L257 191L257 214L257 219L255 221L254 216Z" />
		<path id="Path 143" class="shp7" d="M165 176L188 186L185 197L164 195L165 176ZM277 202L294 175L296 180L295 196L293 202L277 202Z" />
		<path id="Path 144" class="shp4" d="M118 194L136 178L134 188L130 193L122 201L117 206L118 194Z" />
		<path id="Path 145" class="shp9" d="M158 180L165 176L164 195L158 204L147 194L158 180Z" />
		<path id="Path 146" class="shp0" d="M26 249L34 177L44 199L54 215L49 234L36 251L26 249ZM296 180L310 179L314 195L310 205L295 196L296 180Z" />
		<path id="Path 147" class="shp9" d="M319 186L347 180L348 184L350 202L347 217L336 210L328 206L329 202L319 186Z" />
		<path id="Path 148" class="shp7" d="M455 181L452 208L426 209L423 198L455 181Z" />
		<path id="Path 149" class="shp13" d="M505 184L518 179L505 202L502 194L505 184Z" />
		<path id="Path 150" class="shp9" d="M188 186L194 180L203 186L203 191L200 202L185 198L185 197L188 186Z" />
		<path id="Path 151" class="shp13" d="M203 186L215 180L219 201L203 191L203 186Z" />
		<path id="Path 152" class="shp14" d="M577 229L517 229L567 180L579 189L581 196L583 223L577 229Z" />
		<path id="Path 153" class="shp4" d="M579 189L583 180L593 227L592 227L588 220L581 196L579 189Z" />
		<path id="Path 154" class="shp5" d="M348 184L353 181L356 194L357 204L350 202L348 184Z" />
		<path id="Path 155" class="shp10" d="M464 212L469 185L474 201L485 189L485 194L484 215L484 221L483 221L467 216L473 233L472 248L462 253L462 248L464 212Z" />
		<path id="Path 156" class="shp15" d="M134 188L135 203L130 193L134 188Z" />
		<path id="Path 157" class="shp6" d="M200 202L203 191L219 201L230 222L203 211L200 202Z" />
		<path id="Path 158" class="shp9" d="M485 194L502 194L505 202L500 210L497 212L484 215L485 194Z" />
		<path id="Path 159" class="shp13" d="M81 202L117 194L118 194L117 206L113 217L106 229L88 246L71 253L67 246L70 235L87 214L81 202Z" />
		<path id="Path 160" class="shp16" d="M122 201L130 193L135 203L132 209L128 217L122 201Z" />
		<path id="Path 161" class="shp7" d="M133 209L147 194L158 204L144 219L133 209Z" />
		<path id="Path 162" class="shp14" d="M164 195L185 197L185 198L200 218L218 247L189 251L182 250L161 234L143 232L144 219L158 204L164 195Z" />
		<path id="Path 163" class="shp15" d="M310 205L314 195L329 202L328 206L329 218L327 222L323 221L317 215L310 205Z" />
		<path id="Path 164" class="shp4" d="M293 202L295 196L310 205L317 215L305 220L293 215L293 213L293 202Z" />
		<path id="Path 165" class="shp7" d="M583 223L581 196L588 220L583 223ZM200 218L185 198L200 202L203 211L200 218Z" />
		<path id="Path 166" class="shp17" d="M614 205L616 198L616 210L613 212L614 205Z" />
		<path id="Path 167" class="shp13" d="M277 202L293 202L293 213L274 231L257 219L257 214L277 202Z" />
		<path id="Path 168" class="shp10" d="M117 206L122 201L128 217L130 224L122 235L113 217L117 206Z" />
		<path id="Path 169" class="shp0" d="M347 217L350 202L357 204L357 215L357 222L356 240L347 237L347 217Z" />
		<path id="Path 170" class="shp6" d="M426 209L452 208L452 209L426 209Z" />
		<path id="Path 171" class="shp12" d="M328 206L336 210L329 218L328 206Z" />
		<path id="Path 172" class="shp9" d="M128 217L132 209L133 209L144 219L143 232L135 232L132 230L130 224L128 217Z" />
		<path id="Path 173" class="shp5" d="M329 218L336 210L347 217L347 237L347 240L338 235L327 222L329 218Z" />
		<path id="Path 174" class="shp6" d="M372 217L411 216L388 254L387 256L385 250L371 229L372 217Z" />
		<path id="Path 175" class="shp13" d="M200 218L203 211L230 222L237 224L239 227L239 243L239 264L239 267L243 273L243 279L165 270L165 256L189 251L218 247L200 218Z" />
		<path id="Path 176" class="shp7" d="M456 213L464 212L462 248L454 243L453 234L456 213Z" />
		<path id="Path 177" class="shp6" d="M274 231L293 213L293 215L289 223L276 239L274 231Z" />
		<path id="Path 178" class="shp7" d="M484 215L497 212L501 233L484 229L484 221L484 215Z" />
		<path id="Path 179" class="shp9" d="M357 215L372 217L371 229L357 222L357 215Z" />
		<path id="Path 180" class="shp6" d="M72 217L87 214L70 235L72 217Z" />
		<path id="Path 181" class="shp10" d="M49 234L54 215L66 244L59 251L49 234Z" />
		<path id="Path 182" class="shp16" d="M248 216L254 216L255 221L253 236L248 236L247 228L248 216Z" />
		<path id="Path 183" class="shp7" d="M289 223L293 215L305 220L315 233L316 242L309 258L293 262L289 223Z" />
		<path id="Path 184" class="shp11" d="M305 220L317 215L323 221L315 233L305 220Z" />
		<path id="Path 185" class="shp5" d="M473 233L467 216L483 221L473 233Z" />
		<path id="Path 186" class="shp11" d="M106 229L113 217L122 235L127 256L118 266L96 273L101 266L118 250L106 229Z" />
		<path id="Path 187" class="shp3" d="M255 221L257 219L274 231L276 239L276 241L261 263L274 304L269 333L295 329L302 326L307 331L275 353L262 285L258 262L254 248L253 236L255 221Z" />
		<path id="Path 188" class="shp9" d="M583 223L588 220L592 227L590 245L588 251L582 245L576 233L577 229L583 223ZM315 233L323 221L327 222L338 235L330 243L316 242L315 233Z" />
		<path id="Path 189" class="shp8" d="M473 233L483 221L484 221L484 229L481 248L504 249L487 257L474 265L472 248L473 233Z" />
		<path id="Path 190" class="shp14" d="M289 223L293 262L293 273L276 241L276 239L289 223Z" />
		<path id="Path 191" class="shp15" d="M356 240L357 222L371 229L385 250L387 290L373 328L366 347L360 350L356 339L375 260L356 240Z" />
		<path id="Path 192" class="shp16" d="M122 235L130 224L132 230L143 294L127 256L122 235Z" />
		<path id="Path 193" class="shp4" d="M36 251L49 234L59 251L64 261L34 261L36 251ZM239 227L245 226L247 228L248 236L247 237L245 243L239 243L239 227Z" />
		<path id="Path 194" class="shp14" d="M408 260L408 232L453 234L454 243L412 261L408 260Z" />
		<path id="Path 195" class="shp10" d="M593 227L606 228L601 243L590 245L592 227L593 227Z" />
		<path id="Path 196" class="shp14" d="M88 246L106 229L118 250L101 266L88 246Z" />
		<path id="Path 197" class="shp9" d="M504 249L481 248L484 229L501 233L504 249Z" />
		<path id="Path 198" class="shp2" d="M143 294L132 230L135 232L146 291L146 295L144 297L143 294Z" />
		<path id="Path 199" class="shp7" d="M143 232L161 234L160 247L145 256L165 256L165 270L149 288L146 291L135 232L143 232Z" />
		<path id="Path 200" class="shp13" d="M161 234L182 250L160 247L161 234Z" />
		<path id="Path 201" class="shp8" d="M245 243L247 237L254 248L258 262L239 267L239 264L245 243Z" />
		<path id="Path 202" class="shp5" d="M248 236L253 236L254 248L247 237L248 236Z" />
		<path id="Path 203" class="shp6" d="M565 242L545 237L576 233L582 245L565 242Z" />
		<path id="Path 204" class="shp7" d="M330 243L338 235L347 240L348 241L347 252L329 249L330 243Z" />
		<path id="Path 205" class="shp2" d="M347 240L347 237L356 240L375 260L356 339L343 354L341 354L343 349L358 328L365 287L367 275L372 252L348 241L347 240Z" />
		<path id="Path 206" class="shp13" d="M316 242L330 243L329 249L321 262L311 263L309 258L316 242ZM274 304L261 263L276 241L293 273L294 280L294 292L293 323L281 324L274 304Z" />
		<path id="Path 207" class="shp11" d="M347 252L348 241L372 252L367 275L347 265L347 252Z" />
		<path id="Path 208" class="shp7" d="M565 242L582 245L588 251L585 267L580 264L561 258L565 242Z" />
		<path id="Path 209" class="shp5" d="M590 245L601 243L590 301L585 308L539 318L538 323L533 334L526 330L525 319L537 295L553 294L557 294L579 291L585 267L588 251L590 245Z" />
		<path id="Path 210" class="shp9" d="M454 243L462 248L462 253L454 264L415 269L413 268L412 261L454 243Z" />
		<path id="Path 211" class="shp11" d="M239 264L239 243L245 243L239 264Z" />
		<path id="Path 212" class="shp15" d="M59 251L66 244L67 246L71 253L71 254L65 263L64 261L59 251Z" />
		<path id="Path 213" class="shp7" d="M71 253L88 246L101 266L96 273L74 258L71 254L71 253Z" />
		<path id="Path 214" class="shp6" d="M165 256L145 256L160 247L182 250L189 251L165 256Z" />
		<path id="Path 215" class="shp5" d="M462 253L472 248L474 265L473 270L471 271L455 267L454 264L462 253ZM16 296L26 249L36 251L34 261L34 276L25 294L16 296Z" />
		<path id="Path 216" class="shp14" d="M321 262L329 249L347 252L347 265L347 290L347 295L314 299L304 285L310 279L321 262Z" />
		<path id="Path 217" class="shp2" d="M385 250L387 256L386 265L383 286L387 290L385 250Z" />
		<path id="Path 218" class="shp11" d="M34 261L64 261L65 263L70 277L43 265L39 283L36 285L34 276L34 261Z" />
		<path id="Path 219" class="shp12" d="M65 263L71 254L74 258L90 278L85 296L77 286L70 277L65 263Z" />
		<path id="Path 220" class="shp7" d="M387 256L388 254L408 260L412 261L413 268L401 275L386 265L387 256Z" />
		<path id="Path 221" class="shp0" d="M118 266L127 256L143 294L144 297L143 318L123 315L123 299L122 285L122 269L118 266Z" />
		<path id="Path 222" class="shp11" d="M474 265L487 257L488 268L485 290L475 300L472 294L473 270L474 265Z" />
		<path id="Path 223" class="shp14" d="M488 268L561 258L580 264L566 281L544 281L536 280L515 292L500 296L485 290L488 268Z" />
		<path id="Path 224" class="shp2" d="M90 278L74 258L96 273L118 266L122 269L104 274L90 278Z" />
		<path id="Path 225" class="shp9" d="M293 262L309 258L311 263L305 273L294 280L293 273L293 262Z" />
		<path id="Path 226" class="shp6" d="M311 263L321 262L310 279L305 273L311 263Z" />
		<path id="Path 227" class="shp7" d="M347 265L367 275L365 287L347 290L347 265Z" />
		<path id="Path 228" class="shp16" d="M455 267L471 271L455 282L455 267Z" />
		<path id="Path 229" class="shp15" d="M239 267L258 262L262 285L258 288L255 280L243 273L239 267Z" />
		<path id="Path 230" class="shp8" d="M415 269L454 264L455 267L441 284L428 284L428 282L415 270L415 269Z" />
		<path id="Path 231" class="shp11" d="M580 264L585 267L579 291L557 294L566 281L580 264Z" />
		<path id="Path 232" class="shp7" d="M39 283L43 265L70 277L77 286L70 299L56 277L39 283Z" />
		<path id="Path 233" class="shp9" d="M383 286L386 265L401 275L383 286Z" />
		<path id="Path 234" class="shp5" d="M441 284L455 267L455 282L453 286L441 284Z" />
		<path id="Path 235" class="shp4" d="M401 275L413 268L415 269L415 270L407 283L405 300L386 311L382 316L373 328L387 290L383 286L401 275Z" />
		<path id="Path 236" fill-rule="evenodd" class="shp15" d="M104 274L122 269L122 285L108 286L104 274ZM415 270L428 282L407 283L415 270Z" />
		<path id="Path 237" class="shp14" d="M149 288L165 270L243 279L248 295L248 310L224 309L196 294L181 294L160 297L149 288Z" />
		<path id="Path 238" class="shp15" d="M471 271L473 270L472 294L460 295L453 286L455 282L471 271Z" />
		<path id="Path 239" class="shp11" d="M243 279L243 273L255 280L248 295L243 279Z" />
		<path id="Path 240" class="shp3" d="M294 280L305 273L310 279L304 285L294 292L294 280Z" />
		<path id="Path 241" class="shp10" d="M90 278L104 274L108 286L95 300L104 328L101 328L89 304L85 296L90 278Z" />
		<path id="Path 242" class="shp4" d="M25 294L34 276L36 285L41 295L37 324L26 329L12 328L16 317L32 312L25 294Z" />
		<path id="Path 243" class="shp14" d="M39 283L56 277L70 299L73 307L63 324L41 295L36 285L39 283Z" />
		<path id="Path 244" class="shp7" d="M515 292L536 280L527 295L521 302L515 292ZM544 281L566 281L557 294L553 294L544 281Z" />
		<path id="Path 245" class="shp4" d="M248 295L255 280L258 288L248 317L248 310L248 295Z" />
		<path id="Path 246" class="shp10" d="M407 283L428 282L428 284L430 296L440 320L452 330L448 332L429 359L426 359L412 350L428 323L411 306L405 300L407 283Z" />
		<path id="Path 247" class="shp9" d="M527 295L536 280L544 281L553 294L537 295L527 295Z" />
		<path id="Path 248" class="shp4" d="M441 284L453 286L460 295L460 309L452 330L440 320L439 314L455 300L436 304L430 296L428 284L441 284Z" />
		<path id="Path 249" class="shp11" d="M108 286L122 285L123 299L120 307L95 300L108 286Z" />
		<path id="Path 250" class="shp16" d="M258 288L262 285L275 353L274 359L267 359L254 319L243 322L248 317L258 288Z" />
		<path id="Path 251" class="shp7" d="M294 292L304 285L314 299L311 318L302 326L295 329L293 323L294 292Z" />
		<path id="Path 252" class="shp9" d="M347 290L365 287L358 328L347 328L347 295L347 290Z" />
		<path id="Path 253" class="shp11" d="M70 299L77 286L85 296L89 304L85 316L73 307L70 299ZM146 291L149 288L160 297L166 306L163 307L146 295L146 291Z" />
		<path id="Path 254" class="shp5" d="M460 295L472 294L475 300L483 305L466 312L460 309L460 295Z" />
		<path id="Path 255" class="shp6" d="M475 300L485 290L500 296L520 309L525 319L526 330L515 327L501 333L500 329L487 312L483 305L475 300Z" />
		<path id="Path 256" class="shp7" d="M160 297L181 294L179 306L166 306L160 297Z" />
		<path id="Path 257" class="shp13" d="M500 296L515 292L521 302L520 309L500 296Z" />
		<path id="Path 258" class="shp9" d="M181 294L196 294L200 308L193 307L179 306L181 294Z" />
		<path id="Path 259" class="shp13" d="M196 294L224 309L243 324L248 337L248 341L216 346L209 343L216 332L230 327L203 311L200 308L196 294Z" />
		<path id="Path 260" class="shp1" d="M16 296L25 294L32 312L16 317L0 334L16 296Z" />
		<path id="Path 261" class="shp13" d="M41 295L63 324L73 307L85 316L92 333L92 339L90 359L69 371L87 372L38 392L36 384L36 377L42 372L68 344L40 331L37 324L41 295ZM314 299L347 295L347 328L344 341L325 341L308 340L309 359L293 370L278 373L276 373L274 359L275 353L307 331L329 320L311 318L314 299Z" />
		<path id="Path 262" class="shp15" d="M440 320L430 296L436 304L439 314L440 320Z" />
		<path id="Path 263" class="shp9" d="M436 304L455 300L439 314L436 304Z" />
		<path id="Path 264" class="shp10" d="M144 297L146 295L163 307L162 325L153 325L145 322L143 318L144 297ZM521 302L527 295L537 295L525 319L520 309L521 302Z" />
		<path id="Path 265" class="shp9" d="M95 300L120 307L118 353L104 328L95 300Z" />
		<path id="Path 266" class="shp13" d="M386 311L405 300L411 306L409 313L398 313L386 311Z" />
		<path id="Path 267" class="shp2" d="M120 307L123 299L123 315L140 347L160 358L154 361L140 351L127 339L122 355L121 358L118 353L120 307Z" />
		<path id="Path 268" class="shp3" d="M466 312L483 305L487 312L485 312L466 324L463 328L466 312Z" />
		<path id="Path 269" class="shp9" d="M85 316L89 304L101 328L103 336L92 333L85 316Z" />
		<path id="Path 270" class="shp7" d="M269 333L274 304L281 324L269 333Z" />
		<path id="Path 271" class="shp8" d="M163 307L166 306L179 306L193 307L192 309L180 325L162 325L163 307Z" />
		<path id="Path 272" class="shp11" d="M409 313L411 306L428 323L412 350L411 350L407 341L409 313Z" />
		<path id="Path 273" class="shp3" d="M192 309L193 307L200 308L203 311L216 332L209 343L203 346L201 345L202 342L201 327L192 309Z" />
		<path id="Path 274" class="shp6" d="M224 309L248 310L248 317L243 322L243 324L224 309Z" />
		<path id="Path 275" class="shp1" d="M123 315L143 318L145 322L150 336L154 339L140 347L123 315Z" />
		<path id="Path 276" class="shp15" d="M180 325L192 309L201 327L185 329L180 325ZM452 330L460 309L466 312L463 328L458 341L449 363L448 332L452 330Z" />
		<path id="Path 277" class="shp11" d="M466 324L485 312L483 321L473 326L466 324Z" />
		<path id="Path 278" class="shp5" d="M0 334L16 317L12 328L10 337L8 366L2 371L0 334Z" />
		<path id="Path 279" class="shp6" d="M203 311L230 327L216 332L203 311Z" />
		<path id="Path 280" class="shp7" d="M382 316L386 311L398 313L384 336L382 316Z" />
		<path id="Path 281" class="shp13" d="M487 312L500 329L486 326L483 321L485 312L487 312Z" />
		<path id="Path 282" class="shp6" d="M311 318L329 320L307 331L302 326L311 318Z" />
		<path id="Path 283" class="shp14" d="M398 313L409 313L407 341L385 340L384 336L398 313Z" />
		<path id="Path 284" class="shp11" d="M373 328L382 316L384 336L385 340L388 355L366 347L373 328Z" />
		<path id="Path 285" class="shp3" d="M254 319L267 359L270 371L267 370L259 342L254 319ZM150 336L145 322L153 325L150 336Z" />
		<path id="Path 286" class="shp4" d="M243 322L254 319L259 342L248 337L243 324L243 322Z" />
		<path id="Path 287" class="shp0" d="M538 323L549 338L537 345L533 334L538 323Z" />
		<path id="Path 288" class="shp11" d="M347 328L358 328L343 349L344 341L347 328Z" />
		<path id="Path 289" class="shp7" d="M473 326L483 321L486 326L473 341L473 326Z" />
		<path id="Path 290" class="shp9" d="M281 324L293 323L295 329L269 333L281 324Z" />
		<path id="Path 291" class="shp7" d="M26 329L37 324L40 331L42 372L36 377L29 371L18 355L19 346L26 329Z" />
		<path id="Path 292" class="shp4" d="M153 325L162 325L180 325L185 329L154 339L150 336L153 325Z" />
		<path id="Path 293" class="shp10" d="M185 329L201 327L202 342L189 346L161 358L160 358L140 347L154 339L185 329Z" />
		<path id="Path 294" class="shp9" d="M463 328L466 324L473 326L473 341L471 345L458 341L463 328Z" />
		<path id="Path 295" class="shp13" d="M501 333L515 327L519 340L501 333Z" />
		<path id="Path 296" class="shp11" d="M92 333L103 336L112 364L109 365L95 360L92 339L92 333Z" />
		<path id="Path 297" class="shp14" d="M473 341L486 326L500 329L501 333L519 340L527 364L482 358L473 356L471 345L473 341Z" />
		<path id="Path 298" class="shp11" d="M515 327L526 330L533 334L537 345L536 352L528 366L527 364L519 340L515 327Z" />
		<path id="Path 299" class="shp9" d="M10 337L12 328L26 329L19 346L10 337Z" />
		<path id="Path 300" class="shp15" d="M103 336L101 328L104 328L118 353L121 358L128 370L141 395L138 401L125 407L117 367L112 364L103 336Z" />
		<path id="Path 301" class="shp14" d="M40 331L68 344L42 372L40 331Z" />
		<path id="Path 302" class="shp4" d="M429 359L448 332L449 363L458 341L471 345L473 356L470 369L456 369L447 370L429 359ZM8 366L10 337L19 346L18 355L11 367L8 366Z" />
		<path id="Path 303" class="shp11" d="M248 341L248 337L259 342L267 370L261 381L257 372L248 341Z" />
		<path id="Path 304" class="shp14" d="M309 359L308 340L325 341L320 357L314 361L309 359Z" />
		<path id="Path 305" class="shp7" d="M90 359L92 339L95 360L90 359Z" />
		<path id="Path 306" class="shp16" d="M537 345L549 338L547 358L538 357L536 352L537 345Z" />
		<path id="Path 307" class="shp4" d="M122 355L127 339L140 351L122 355Z" />
		<path id="Path 308" class="shp14" d="M216 346L248 341L257 372L228 377L216 377L202 368L203 359L216 346Z" />
		<path id="Path 309" class="shp16" d="M343 354L356 339L360 350L357 365L355 368L349 370L343 354Z" />
		<path id="Path 310" class="shp7" d="M388 355L385 340L407 341L411 350L388 355ZM320 357L325 341L344 341L343 349L341 354L338 357L320 357Z" />
		<path id="Path 311" class="shp8" d="M189 346L202 342L201 345L193 378L213 391L213 392L213 394L188 376L184 355L189 346Z" />
		<path id="Path 312" class="shp5" d="M161 358L189 346L184 355L175 363L173 364L162 360L161 358Z" />
		<path id="Path 313" class="shp7" d="M203 346L209 343L216 346L203 359L203 346Z" />
		<path id="Path 314" class="shp11" d="M193 378L201 345L203 346L203 359L202 368L193 378Z" />
		<path id="Path 315" class="shp5" d="M360 350L366 347L388 355L411 350L412 350L426 359L419 362L406 356L406 375L402 379L399 376L394 375L392 394L389 374L383 370L382 356L372 367L357 365L360 350Z" />
		<path id="Path 316" class="shp11" d="M122 355L140 351L154 361L128 370L121 358L122 355Z" />
		<path id="Path 317" class="shp10" d="M528 366L536 352L538 357L540 379L530 387L504 382L487 376L493 375L528 366Z" />
		<path id="Path 318" class="shp9" d="M320 357L338 357L329 370L311 373L314 361L320 357Z" />
		<path id="Path 319" class="shp15" d="M341 354L343 354L349 370L342 375L329 370L338 357L341 354Z" />
		<path id="Path 320" class="shp9" d="M11 367L18 355L29 371L13 372L11 367Z" />
		<path id="Path 321" class="shp16" d="M175 363L184 355L188 376L180 383L175 363ZM372 367L382 356L383 370L373 369L372 367Z" />
		<path id="Path 322" class="shp15" d="M406 375L406 356L419 362L419 372L406 375Z" />
		<path id="Path 323" class="shp11" d="M470 369L473 356L482 358L493 375L487 376L472 371L470 369Z" />
		<path id="Path 324" class="shp7" d="M482 358L527 364L528 366L493 375L482 358ZM293 370L309 359L314 361L311 373L307 374L303 374L293 370Z" />
		<path id="Path 325" class="shp0" d="M540 379L538 357L547 358L540 379Z" />
		<path id="Path 326" class="shp4" d="M154 361L160 358L161 358L162 360L146 381L144 397L143 397L141 395L128 370L154 361Z" />
		<path id="Path 327" class="shp15" d="M267 359L274 359L276 373L270 371L267 359Z" />
		<path id="Path 328" class="shp0" d="M426 359L429 359L447 370L444 383L438 384L421 376L419 372L419 362L426 359Z" />
		<path id="Path 329" class="shp6" d="M87 372L69 371L90 359L95 360L109 365L98 372L87 372Z" />
		<path id="Path 330" class="shp11" d="M146 381L162 360L173 364L175 391L146 381Z" />
		<path id="Path 331" class="shp2" d="M173 364L175 363L180 383L199 405L176 397L175 393L175 391L173 364Z" />
		<path id="Path 332" class="shp7" d="M109 365L112 364L117 367L121 384L98 372L109 365Z" />
		<path id="Path 333" class="shp18" d="M357 365L372 367L373 369L373 375L356 374L355 368L357 365Z" />
		<path id="Path 334" class="shp15" d="M2 371L8 366L11 367L13 372L27 396L35 408L24 408L2 371Z" />
		<path id="Path 335" class="shp19" d="M349 370L355 368L356 374L356 387L342 387L339 379L342 375L349 370Z" />
		<path id="Path 336" class="shp4" d="M121 384L117 367L125 407L122 407L121 384Z" />
		<path id="Path 337" class="shp10" d="M311 373L329 370L342 375L339 379L339 385L338 388L336 407L329 391L315 391L306 389L307 375L307 374L311 373Z" />
		<path id="Path 338" class="shp12" d="M447 370L456 369L455 383L444 383L447 370Z" />
		<path id="Path 339" class="shp7" d="M193 378L202 368L216 377L213 391L193 378Z" />
		<path id="Path 340" class="shp19" d="M373 369L383 370L389 374L386 389L373 389L373 375L373 369Z" />
		<path id="Path 341" class="shp16" d="M456 369L470 369L472 371L469 384L468 383L455 383L456 369Z" />
		<path id="Path 342" class="shp2" d="M261 381L267 370L270 371L276 373L278 373L303 374L307 374L307 375L293 385L275 387L265 386L248 385L261 381Z" />
		<path id="Path 343" class="shp11" d="M278 373L293 370L303 374L278 373Z" />
		<path id="Path 344" class="shp12" d="M472 371L487 376L504 382L501 393L469 384L472 371Z" />
		<path id="Path 345" class="shp6" d="M13 372L29 371L36 377L36 384L27 396L13 372Z" />
		<path id="Path 346" class="shp20" d="M406 375L419 372L421 376L419 389L431 422L425 441L403 442L401 439L401 425L402 404L405 386L406 375Z" />
		<path id="Path 347" class="shp14" d="M38 392L87 372L98 372L121 384L122 407L106 406L79 404L56 407L41 405L38 392Z" />
		<path id="Path 348" class="shp7" d="M228 377L257 372L261 381L248 385L245 386L233 390L228 377Z" />
		<path id="Path 349" class="shp21" d="M356 374L373 375L373 389L373 399L357 405L356 387L356 374Z" />
		<path id="Path 350" class="shp22" d="M386 389L389 374L392 394L394 406L393 407L387 408L386 389ZM402 379L406 375L405 386L398 394L402 379Z" />
		<path id="Path 351" class="shp9" d="M216 377L228 377L233 390L213 392L213 391L216 377Z" />
		<path id="Path 352" class="shp16" d="M293 385L307 375L306 389L299 395L293 385Z" />
		<path id="Path 353" class="shp23" d="M392 394L394 375L399 376L402 379L398 394L394 406L392 394Z" />
		<path id="Path 354" class="shp15" d="M180 383L188 376L213 394L208 409L199 405L180 383Z" />
		<path id="Path 355" class="shp18" d="M419 389L421 376L438 384L438 387L436 394L419 389Z" />
		<path id="Path 356" class="shp16" d="M504 382L530 387L501 393L504 382Z" />
		<path id="Path 357" class="shp7" d="M146 381L175 391L175 393L164 407L144 397L146 381Z" />
		<path id="Path 358" class="shp22" d="M339 385L339 379L342 387L342 391L339 385Z" />
		<path id="Path 359" class="shp24" d="M455 383L468 383L454 408L451 408L451 406L438 387L438 384L444 383L455 383Z" />
		<path id="Path 360" class="shp22" d="M329 391L336 407L329 398L329 391Z" />
		<path id="Path 361" class="shp9" d="M27 396L36 384L38 392L41 405L38 412L35 408L27 396Z" />
		<path id="Path 362" class="shp16" d="M265 386L275 387L286 400L275 401L262 398L265 386Z" />
		<path id="Path 363" class="shp15" d="M275 387L293 385L299 395L291 401L286 400L275 387Z" />
		<path id="Path 364" class="shp12" d="M245 386L248 385L265 386L262 398L260 398L252 400L247 388L245 386Z" />
		<path id="Path 365" class="shp24" d="M338 388L339 385L342 391L345 421L347 441L347 454L347 470L347 477L329 480L329 405L329 398L336 407L338 388Z" />
		<path id="Path 366" class="shp10" d="M233 390L245 386L247 388L233 408L230 410L223 419L215 432L213 438L208 441L195 431L208 409L213 394L213 392L233 390Z" />
		<path id="Path 367" class="shp24" d="M398 394L405 386L402 404L393 407L394 406L398 394Z" />
		<path id="Path 368" class="shp20" d="M342 391L342 387L356 387L357 405L373 399L373 419L356 427L345 421L342 391Z" />
		<path id="Path 369" class="shp25" d="M373 389L386 389L387 408L384 456L383 486L369 509L363 545L348 532L347 514L356 497L372 456L373 419L373 399L373 389Z" />
		<path id="Path 370" class="shp20" d="M436 394L438 387L451 406L435 406L436 394Z" />
		<path id="Path 371" class="shp15" d="M233 408L247 388L252 400L239 407L233 408Z" />
		<path id="Path 372" class="shp18" d="M299 395L306 389L315 391L314 399L292 403L291 401L299 395Z" />
		<path id="Path 373" class="shp21" d="M431 422L419 389L436 394L435 406L431 422Z" />
		<path id="Path 374" class="shp19" d="M314 399L315 391L329 391L329 398L329 405L315 405L314 399Z" />
		<path id="Path 375" class="shp11" d="M176 397L199 405L208 409L195 431L169 446L169 444L179 422L183 421L195 410L176 404L176 403L176 397Z" />
		<path id="Path 376" class="shp6" d="M164 407L175 393L176 397L176 403L168 412L164 407Z" />
		<path id="Path 377" class="shp16" d="M138 401L141 395L143 397L151 415L147 418L139 406L138 401Z" />
		<path id="Path 378" class="shp3" d="M151 415L143 397L144 397L164 407L168 412L166 418L169 444L169 446L167 449L165 446L151 415Z" />
		<path id="Path 379" class="shp19" d="M252 400L260 398L265 423L247 430L239 407L252 400Z" />
		<path id="Path 380" class="shp24" d="M265 423L260 398L262 398L275 401L275 420L270 430L268 430L265 423Z" />
		<path id="Path 381" class="shp21" d="M292 403L314 399L315 405L302 531L294 445L292 403Z" />
		<path id="Path 382" class="shp7" d="M79 404L106 406L96 419L87 414L79 413L79 404Z" />
		<path id="Path 383" class="shp6" d="M125 407L138 401L139 406L132 423L113 424L103 431L96 419L106 406L122 407L125 407Z" />
		<path id="Path 384" class="shp20" d="M275 401L286 400L291 401L292 403L294 445L276 441L275 420L275 401Z" />
		<path id="Path 385" class="shp24" d="M387 408L393 407L401 425L401 439L391 455L384 456L387 408Z" />
		<path id="Path 386" class="shp9" d="M56 407L79 404L79 413L69 417L54 420L56 407Z" />
		<path id="Path 387" class="shp14" d="M168 412L176 403L176 404L183 421L179 422L166 418L168 412Z" />
		<path id="Path 388" class="shp11" d="M132 423L139 406L147 418L148 422L138 431L132 423Z" />
		<path id="Path 389" class="shp7" d="M183 421L176 404L195 410L183 421Z" />
		<path id="Path 390" class="shp20" d="M315 405L329 405L329 480L328 537L328 544L329 564L332 597L311 587L305 556L302 531L315 405Z" />
		<path id="Path 391" class="shp25" d="M393 407L402 404L401 425L393 407ZM435 406L451 406L451 408L432 473L420 466L425 441L431 422L435 406Z" />
		<path id="Path 392" class="shp7" d="M38 412L41 405L56 407L54 420L40 416L38 412Z" />
		<path id="Path 393" class="shp25" d="M233 408L239 407L247 430L247 434L251 451L240 457L241 480L235 493L232 492L221 470L221 468L213 438L215 432L229 432L230 410L233 408Z" />
		<path id="Path 394" class="shp16" d="M38 430L24 408L35 408L38 412L40 416L38 430Z" />
		<path id="Path 395" class="shp26" d="M432 473L451 408L454 408L432 488L431 479L432 473Z" />
		<path id="Path 396" class="shp19" d="M223 419L230 410L229 432L223 419Z" />
		<path id="Path 397" class="shp15" d="M79 413L87 414L85 428L83 428L79 427L69 417L79 413Z" />
		<path id="Path 398" class="shp10" d="M85 428L87 414L96 419L103 431L98 437L91 443L85 428Z" />
		<path id="Path 399" class="shp12" d="M147 418L151 415L165 446L155 430L148 422L147 418Z" />
		<path id="Path 400" class="shp27" d="M270 430L275 420L276 441L280 492L263 480L258 499L250 503L241 480L240 457L261 469L273 458L270 430Z" />
		<path id="Path 401" class="shp5" d="M38 430L40 416L54 420L69 417L79 427L38 430Z" />
		<path id="Path 402" class="shp14" d="M113 424L132 423L138 431L148 444L111 466L109 448L113 424Z" />
		<path id="Path 403" class="shp7" d="M169 444L166 418L179 422L169 444Z" />
		<path id="Path 404" class="shp22" d="M215 432L223 419L229 432L215 432Z" />
		<path id="Path 405" class="shp21" d="M247 430L265 423L268 430L267 441L247 434L247 430ZM356 427L373 419L372 456L356 460L356 458L356 439L356 427Z" />
		<path id="Path 406" class="shp25" d="M347 441L345 421L356 427L356 439L347 441Z" />
		<path id="Path 407" class="shp7" d="M138 431L148 422L155 430L148 444L138 431Z" />
		<path id="Path 408" class="shp13" d="M103 431L113 424L109 448L99 439L98 437L103 431Z" />
		<path id="Path 409" class="shp16" d="M114 485L85 463L83 428L85 428L91 443L116 475L114 485Z" />
		<path id="Path 410" class="shp11" d="M148 444L155 430L165 446L167 449L159 453L146 461L108 470L111 466L148 444Z" />
		<path id="Path 411" class="shp15" d="M195 431L208 441L185 457L168 464L164 463L159 453L167 449L169 446L195 431Z" />
		<path id="Path 412" class="shp25" d="M267 441L268 430L270 430L273 458L266 456L267 441Z" />
		<path id="Path 413" class="shp20" d="M251 451L247 434L267 441L266 456L261 460L251 451Z" />
		<path id="Path 414" class="shp21" d="M403 442L425 441L420 466L400 464L403 442Z" />
		<path id="Path 415" class="shp2" d="M91 443L98 437L99 439L108 470L146 461L116 475L91 443Z" />
		<path id="Path 416" class="shp19" d="M213 438L221 468L203 450L194 472L185 457L208 441L213 438Z" />
		<path id="Path 417" class="shp20" d="M347 441L356 439L356 458L347 454L347 441Z" />
		<path id="Path 418" class="shp7" d="M108 470L99 439L109 448L111 466L108 470Z" />
		<path id="Path 419" class="shp25" d="M391 455L401 439L403 442L400 464L399 464L391 455ZM276 441L294 445L302 531L305 556L298 557L288 567L285 568L285 561L285 548L284 541L280 492L276 441Z" />
		<path id="Path 420" class="shp20" d="M194 472L203 450L221 468L221 470L215 504L199 506L196 503L194 472Z" />
		<path id="Path 421" class="shp27" d="M384 456L391 455L399 464L394 486L389 488L383 486L384 456Z" />
		<path id="Path 422" class="shp28" d="M240 457L251 451L261 460L261 469L240 457Z" />
		<path id="Path 423" class="shp12" d="M146 461L159 453L164 463L160 465L114 485L116 475L146 461Z" />
		<path id="Path 424" class="shp25" d="M347 470L347 454L356 458L356 460L356 472L347 470Z" />
		<path id="Path 425" class="shp24" d="M266 456L273 458L261 469L261 460L266 456Z" />
		<path id="Path 426" class="shp20" d="M356 460L372 456L356 497L356 472L356 460Z" />
		<path id="Path 427" class="shp25" d="M168 464L185 457L194 472L196 503L168 464Z" />
		<path id="Path 428" class="shp26" d="M164 463L168 464L196 503L199 506L222 541L231 555L245 573L263 596L262 601L160 465L164 463Z" />
		<path id="Path 429" class="shp20" d="M394 486L399 464L400 464L420 466L432 473L431 479L410 496L394 486Z" />
		<path id="Path 430" class="shp28" d="M347 470L356 472L356 497L347 514L347 477L347 470Z" />
		<path id="Path 431" class="shp21" d="M215 504L221 470L232 492L222 511L215 504Z" />
		<path id="Path 432" class="shp27" d="M329 480L347 477L347 514L348 532L348 537L328 537L329 480ZM410 496L431 479L432 488L425 514L410 498L410 496Z" />
		<path id="Path 433" class="shp24" d="M235 493L241 480L250 503L248 512L235 493Z" />
		<path id="Path 434" class="shp29" d="M258 499L263 480L280 492L284 541L285 548L285 561L279 533L266 520L258 499Z" />
		<path id="Path 435" class="shp28" d="M369 509L383 486L389 488L389 491L387 496L379 540L371 530L369 509Z" />
		<path id="Path 436" class="shp25" d="M389 488L394 486L410 496L410 498L390 518L389 491L389 488Z" />
		<path id="Path 437" class="shp24" d="M387 496L389 491L390 518L410 498L425 514L422 519L400 531L386 535L387 496Z" />
		<path id="Path 438" class="shp20" d="M222 511L232 492L235 493L248 512L265 530L266 536L256 549L250 547L231 530L222 511Z" />
		<path id="Path 439" class="shp29" d="M379 540L387 496L386 535L400 531L395 548L392 562L388 567L379 588L378 589L374 586L363 587L356 596L348 537L357 562L363 545L369 509L371 530L370 566L379 540Z" />
		<path id="Path 440" class="shp28" d="M250 503L258 499L266 520L265 529L265 530L248 512L250 503Z" />
		<path id="Path 441" class="shp25" d="M199 506L215 504L222 511L231 530L222 541L199 506Z" />
		<path id="Path 442" fill-rule="evenodd" class="shp22" d="M265 529L279 533L266 520L265 529ZM395 548L392 562L388 567L396 576L402 573L422 519L400 531L395 548Z" />
		<path id="Path 443" class="shp24" d="M265 529L279 533L285 561L285 568L281 567L280 563L266 536L265 530L265 529Z" />
		<path id="Path 444" class="shp22" d="M328 537L348 537L356 596L362 623L347 616L349 645L347 653L329 652L320 645L317 643L321 629L342 628L339 596L338 568L328 544L328 537Z" />
		<path id="Path 445" class="shp28" d="M222 541L231 530L250 547L250 551L244 552L231 555L222 541Z" />
		<path id="Path 446" class="shp27" d="M379 540L370 566L371 530L379 540Z" />
		<path id="Path 447" class="shp19" d="M256 549L266 536L280 563L256 549Z" />
		<path id="Path 448" class="shp28" d="M348 537L348 532L363 545L357 562L348 537Z" />
		<path id="Path 449" class="shp27" d="M244 552L250 551L275 567L275 582L277 595L268 601L263 596L245 573L244 552Z" />
		<path id="Path 450" class="shp28" d="M329 564L328 544L338 568L329 564Z" />
		<path id="Path 451" class="shp25" d="M250 551L250 547L256 549L280 563L281 567L275 567L250 551Z" />
		<path id="Path 452" class="shp27" d="M298 557L305 556L311 587L312 598L311 610L308 602L293 585L298 557Z" />
		<path id="Path 453" class="shp24" d="M231 555L244 552L245 573L231 555Z" />
		<path id="Path 454" class="shp28" d="M288 567L298 557L293 585L292 585L288 567Z" />
		<path id="Path 455" class="shp30" d="M285 568L288 567L292 585L292 612L293 615L277 595L275 582L288 592L285 568Z" />
		<path id="Path 456" class="shp25" d="M311 587L332 597L329 564L338 568L339 596L316 611L312 598L311 587Z" />
		<path id="Path 457" class="shp26" d="M379 588L388 567L396 576L382 585L379 588Z" />
		<path id="Path 458" class="shp22" d="M275 567L281 567L285 568L288 592L275 582L275 567Z" />
		<path id="Path 459" class="shp31" d="M396 576L402 573L372 641L362 641L362 623L356 596L363 587L367 603L374 586L378 589L377 616L382 585L396 576Z" />
		<path id="Path 460" class="shp26" d="M363 587L374 586L367 603L363 587Z" />
		<path id="Path 461" class="shp29" d="M292 612L292 585L293 585L308 602L292 612Z" />
		<path id="Path 462" class="shp22" d="M379 588L382 585L377 616L378 589L379 588Z" />
		<path id="Path 463" class="shp31" d="M262 601L263 596L268 601L285 620L292 633L262 601Z" />
		<path id="Path 464" class="shp22" d="M268 601L277 595L293 615L285 620L268 601Z" />
		<path id="Path 465" class="shp28" d="M316 611L339 596L342 628L321 629L316 611Z" />
		<path id="Path 466" class="shp30" d="M311 610L312 598L316 611L321 629L317 643L311 643L311 610Z" />
		<path id="Path 467" class="shp26" d="M292 612L308 602L311 610L311 643L300 644L292 633L285 620L293 615L292 612Z" />
		<path id="Path 468" class="shp30" d="M349 645L347 616L362 623L362 641L356 645L349 645Z" />
		<path id="Path 469" class="shp31" d="M300 644L311 643L317 643L320 645L311 653L300 644Z" />
		<path id="Path 470" class="shp32" d="M362 641L372 641L355 654L356 645L362 641ZM311 653L320 645L329 652L330 657L329 658L311 653Z" />
		<path id="Path 471" class="shp31" d="M347 653L349 645L356 645L355 654L347 656L347 653Z" />
		<path id="Path 472" class="shp33" d="M330 657L329 652L347 653L347 656L345 657L330 657Z" />
		<path id="Path 473" class="shp34" d="M329 658L330 657L345 657L329 658Z" />
	</g>
</svg>