<svg version="1.2" baseProfile="tiny-ps" xmlns="http://www.w3.org/2000/svg" viewBox="0 0 250 250" width="250" height="250">
	<title>Background</title>
	<style>
		tspan { white-space:pre }
		.shp0 { fill: #ffca18 } 
		.shp1 { fill: #585858 } 
	</style>
	<g id="Background">
		<path id="Path 0" class="shp0" d="M0 125L0 250L250 250L250 0L0 0L0 125Z" />
		<path id="Path 1" class="shp1" d="M112 18.55C109.52 19.42 106.04 20.78 104.25 21.57C102.46 22.35 98.26 25.59 94.91 28.75C91.51 31.96 87.76 36.7 86.42 39.5C85.09 42.25 83.34 47.65 82.52 51.5C81.7 55.35 81.03 60.3 81.03 62.5C81.03 64.7 80.46 67.3 79.77 68.27C78.57 69.94 78 69.84 70 66.63C65.32 64.76 59.25 62.9 56.5 62.5C52.8 61.97 50.07 62.25 46 63.59C41.98 64.92 39 66.9 34.92 70.95C31.43 74.43 28.08 79.12 25.96 83.5C23.15 89.32 22.59 91.6 22.63 97C22.66 100.91 23.38 105.09 24.44 107.5C25.4 109.7 28.74 114.12 31.85 117.31C34.96 120.51 39.19 124.22 41.25 125.56L45 128C29.2 143.17 25.66 147.48 23.62 151.63C21.13 156.69 20.8 158.33 21.23 163.5C21.5 166.8 22.66 171.3 23.81 173.5C24.95 175.7 27.62 179.75 29.74 182.5C31.86 185.25 36.04 189.15 39.04 191.17C42.04 193.19 46.52 195.37 49 196.02C52.49 196.94 54.73 196.92 59 195.97C62.02 195.29 67.99 192.99 72.25 190.87C76.51 188.74 80.45 187.22 81 187.5C81.55 187.77 82.01 189.24 82.02 190.75C82.03 192.26 82.64 196.42 83.39 200C84.14 203.57 86.04 209.14 87.62 212.36C89.3 215.78 92.7 220.27 95.75 223.11C98.64 225.8 103.14 228.96 105.75 230.13C109.15 231.65 113.35 232.41 120.5 232.78C128.28 233.2 131.72 232.93 136 231.6C139.02 230.66 143.07 229.17 145 228.28C146.92 227.4 151.24 223.94 154.59 220.59C159.1 216.08 161.25 212.95 162.9 208.5C164.13 205.2 165.44 200.54 165.82 198.14C166.19 195.75 167.06 193.38 167.75 192.89C168.57 192.31 171.48 193.34 176.25 195.91C180.24 198.06 186.2 200.34 189.5 200.97C194.43 201.92 196.39 201.85 200.5 200.62C203.25 199.79 207.52 197.55 210 195.64C212.47 193.73 216.54 189.55 219.02 186.34C221.51 183.13 224.08 179.37 224.73 178C225.38 176.62 226.37 173.7 226.95 171.5C227.52 169.3 227.99 165.47 227.98 163C227.98 160.41 227 156.38 225.67 153.5C224.33 150.62 219.73 144.68 214.81 139.5L206.26 130.5C221.56 115.52 225.54 110.66 227.33 107C229.34 102.91 230.03 99.97 230.04 95.5C230.05 90.67 229.38 88.13 226.61 82.5C224.23 77.65 221.23 73.66 216.84 69.5C213.35 66.19 208.7 62.59 206.5 61.5C203.5 60 200.49 59.5 194.5 59.5C187.13 59.5 185.83 59.83 178 63.68C173.32 65.97 169.16 67.55 168.74 67.18C168.33 66.8 167.35 62.45 166.57 57.5C165.79 52.55 164.51 46.7 163.72 44.5C162.93 42.3 161.37 38.7 160.25 36.5C159.13 34.3 155.69 30.14 152.61 27.25C149.52 24.36 144.86 21.04 142.25 19.87C138.65 18.25 134.96 17.64 127 17.35C119.19 17.07 115.35 17.38 112 18.55Z" />
		<path id="Path 2" class="shp0" d="M118 33.94C115.52 34.38 111.7 35.64 109.5 36.75C107.3 37.85 104.98 39.37 104.34 40.13C103.7 40.88 102.24 43.97 101.1 47C99.96 50.02 98.58 55.87 98.04 60C97.5 64.12 96.75 71.1 96.37 75.5C95.78 82.32 95.26 83.98 92.84 86.75C91.28 88.54 89.44 89.99 88.75 89.98C88.06 89.98 82.1 87.27 75.5 83.97C68.9 80.68 61.25 77.5 58.5 76.93C54.99 76.19 52.23 76.19 49.25 76.94C46.91 77.52 44.05 79.01 42.89 80.25C41.73 81.49 39.86 84.52 38.73 87C37.49 89.73 36.67 93.66 36.64 97C36.62 100.3 37.28 103.8 38.3 105.75C39.24 107.54 43.71 111.77 48.25 115.15C52.79 118.53 57.97 122.7 59.77 124.4C61.57 126.11 63.04 128.17 63.04 129C63.04 129.82 61.8 131.65 60.27 133.06C58.75 134.46 55.7 136.77 53.5 138.18C51.3 139.59 47.14 143.06 44.25 145.87C41.36 148.69 38.05 153.14 36.88 155.75C35.35 159.18 34.93 161.54 35.38 164.25C35.72 166.31 36.85 169.69 37.89 171.75C38.94 173.81 40.62 176.23 41.64 177.13C42.66 178.03 45.07 179.54 47 180.51C49.47 181.74 51.98 182.11 55.5 181.78C58.25 181.53 63.42 179.91 67 178.18C70.57 176.46 75.52 173.95 78 172.6C80.47 171.26 83.62 169.62 85 168.98C86.85 168.1 88.09 168.08 89.75 168.9C90.99 169.5 93.12 171.46 94.49 173.25C96.47 175.83 97.19 178.4 97.99 185.75C98.55 190.84 99.52 197.14 100.15 199.75C100.78 202.36 102.13 206.19 103.15 208.25C104.49 210.97 106.31 212.61 109.75 214.2C113.54 215.95 116.32 216.39 123.5 216.38C131.15 216.37 133.36 215.96 138.25 213.68C143.2 211.37 144.29 210.34 146.12 206.25C147.29 203.64 148.87 198.24 149.62 194.25C150.38 190.26 150.99 185.31 150.98 183.25C150.97 181.19 151.6 178.15 152.39 176.5C153.18 174.85 154.59 172.82 155.52 172C156.68 170.98 158.38 170.68 160.86 171.07C162.88 171.38 166.5 173.24 169 175.23C171.47 177.21 176.42 180.38 180 182.28C183.57 184.18 188.3 186.05 190.5 186.44C192.99 186.89 196.16 186.66 198.89 185.83C201.58 185.01 204.45 183.14 206.31 181C207.98 179.07 210.16 175.7 211.15 173.5C212.14 171.3 212.97 167.36 212.98 164.75C212.99 162.14 212.26 158.54 211.35 156.75C210.44 154.96 208.3 151.78 206.6 149.68C204.89 147.58 200.01 142.96 195.75 139.43C189.86 134.55 188 132.4 188 130.5C188 128.66 189.76 126.48 194.66 122.25C198.32 119.09 203.52 114.47 206.22 112C208.92 109.52 211.99 105.7 213.05 103.5C214.11 101.3 214.97 97.7 214.98 95.5C214.98 93.3 213.94 89.25 212.66 86.5C211.39 83.75 208.92 80.26 207.17 78.75C205.43 77.24 202.31 75.5 200.25 74.88C198.19 74.27 194.47 74.05 192 74.39C189.52 74.74 184.12 76.72 180 78.8C175.87 80.88 170.7 83.8 168.5 85.28C166.3 86.76 163.49 88.66 162.25 89.49C160.13 90.91 159.77 90.78 155.95 87.25C152.42 83.98 151.91 82.96 151.95 79.25C151.98 76.91 151.54 70.84 150.99 65.75C150.43 60.66 149.07 53.35 147.96 49.5C146.86 45.65 145.29 41.49 144.48 40.25C143.67 39.01 141.09 37.13 138.75 36.07C136.41 35.01 131.8 33.92 128.5 33.64C125.2 33.36 120.47 33.5 118 33.94Z" />
		<path id="Path 3" class="shp1" d="M112 87.62C109.52 88.52 105.7 90.49 103.5 92C101.3 93.52 97.36 97.06 94.75 99.88C92.14 102.69 88.76 107.59 87.25 110.75C84.82 115.84 84.5 117.65 84.5 126.5C84.5 135.42 84.81 137.15 87.35 142.5C88.92 145.81 92.78 151.19 95.97 154.5C99.78 158.45 103.93 161.52 108.13 163.5C113.9 166.22 115.45 166.5 124.5 166.48C133.1 166.46 135.2 166.11 139.5 163.98C142.25 162.63 147.35 158.81 150.84 155.51C155.09 151.48 158.22 147.36 160.34 143.02C163.25 137.07 163.5 135.74 163.5 126.52C163.5 117.58 163.19 115.85 160.65 110.5C159.08 107.19 155.22 101.81 152.03 98.5C148.19 94.52 144.1 91.5 139.87 89.52C134.65 87.08 131.97 86.5 125 86.27C119.08 86.08 115.14 86.49 112 87.62Z" />
		<path id="Path 4" class="shp0" d="M118.75 99.09C116.69 99.59 113.31 100.84 111.25 101.87C109.19 102.9 105.96 105.49 104.07 107.62C102.19 109.75 99.75 113.52 98.65 116C97.36 118.91 96.67 122.62 96.69 126.5C96.71 130.43 97.47 134.22 98.91 137.5C100.12 140.25 102.54 144 104.3 145.84C106.06 147.68 109.75 150.32 112.5 151.72C116.18 153.6 119.09 154.28 123.5 154.3C127.73 154.32 131.1 153.61 134.9 151.91C137.87 150.58 141.89 147.7 143.84 145.5C145.79 143.3 148.27 139.47 149.36 137C150.64 134.1 151.33 130.36 151.31 126.5C151.29 122.57 150.53 118.78 149.09 115.5C147.88 112.75 145.46 109 143.7 107.16C141.94 105.32 138.47 102.8 136 101.54C133.52 100.29 129.47 99.02 127 98.72C124.52 98.42 120.81 98.59 118.75 99.09Z" />
	</g>
</svg>