<svg version="1.2" baseProfile="tiny-ps" xmlns="http://www.w3.org/2000/svg" viewBox="0 0 284 480" width="284" height="480">
	<title>Background</title>
	<style>
		tspan { white-space:pre }
		.shp0 { fill: #000000 } 
		.shp1 { opacity: 0.184;fill: #000000 } 
		.shp2 { fill: #1c1c1c } 
		.shp3 { opacity: 0.584;fill: #000000 } 
		.shp4 { fill: #d78c56 } 
		.shp5 { opacity: 0.992;fill: #79412c } 
		.shp6 { opacity: 0.169;fill: #c88350 } 
		.shp7 { opacity: 0.675;fill: #d08753 } 
		.shp8 { fill: #43010e } 
		.shp9 { opacity: 0.608;fill: #43010e } 
		.shp10 { opacity: 0.267;fill: #42000e } 
	</style>
	<g id="Background">
		<path id="Path 0" class="shp0" d="M128.5 0.67C127.4 0.92 125.03 1.88 123.24 2.81C121.45 3.74 119.99 4.84 119.99 5.25C120 5.66 119.32 6 118.5 6C117.67 6 117 6.45 117 7C117 7.55 115.87 8.22 114.5 8.5C113.12 8.77 112 9.45 112 10C112 10.55 111.32 11 110.5 11C109.67 11 108.77 11.67 108.5 12.5C108.22 13.32 107.66 13.98 107.25 13.96C106.84 13.93 104.25 15.95 101.5 18.45C98.75 20.94 95.94 22.98 95.25 22.99C94.56 23 94.02 23.34 94.03 23.75C94.05 24.16 92.11 26.52 89.71 29C87.31 31.47 85.07 34.4 84.72 35.5C84.37 36.6 83.12 38.4 81.94 39.5C80.33 40.99 77.22 41.81 69.64 42.72C64.06 43.4 55.11 44.41 49.75 44.97C44.39 45.54 38.65 46.67 37 47.5C35.35 48.32 33.1 49 32 49C30.9 49 28.76 49.51 27.25 50.14C25.74 50.77 23.15 51.91 21.5 52.67C19.85 53.43 17.61 54.61 16.53 55.28C15.44 55.95 12.96 58.27 11.03 60.44C9.09 62.61 6.71 65.08 5.74 65.94C4.77 66.8 4 68.17 4.02 69C4.04 69.82 3.71 70.88 3.28 71.34C2.85 71.8 2.43 73.6 2.35 75.34C2.28 77.08 2.13 83 2.03 88.5C1.87 97.14 2.19 99.32 4.34 104.5C5.71 107.8 7.66 112.19 8.67 114.26C9.67 116.33 10.84 118.02 11.25 118.01C11.66 118.01 12 118.56 12 119.25C12 119.94 13.14 121.85 14.53 123.5C15.92 125.15 17.05 126.84 17.03 127.25C17.01 127.66 17.79 128.93 18.75 130.08C19.71 131.22 21.62 133.4 23 134.92C24.37 136.45 27.07 139.77 29 142.31C30.92 144.85 33.17 146.92 34 146.92C34.82 146.91 36.17 147.66 37 148.57C37.82 149.48 41.31 152.2 44.75 154.61C48.19 157.03 51.34 159.02 51.75 159.04C52.16 159.06 54.07 160.43 56 162.08C57.92 163.72 59.95 165.39 60.5 165.78C61.05 166.18 62.85 167.17 64.5 167.98C66.15 168.79 68.85 170.43 70.5 171.61C72.15 172.8 74.62 174.1 76 174.52C77.37 174.93 79.62 176.04 81 177C82.37 177.96 84.62 179.08 86 179.5C87.37 179.92 89.74 181.1 91.25 182.13C92.76 183.16 94.67 184 95.5 184C96.32 184 98.24 184.62 99.75 185.38C101.26 186.14 103.62 187.23 105 187.82C106.37 188.4 109.07 189.2 111 189.58C112.92 189.97 115.29 190.67 116.25 191.14C117.21 191.61 118.79 192.4 119.75 192.88C120.71 193.36 124.2 194.1 127.5 194.51C130.8 194.93 133.72 195.55 134 195.89C134.27 196.22 135.85 197.25 137.5 198.17C139.15 199.09 144.04 200.22 148.36 200.67C152.68 201.13 156.39 201.84 156.61 202.25C156.82 202.66 159.47 203 162.5 203C165.52 203 168.18 203.34 168.39 203.75C168.61 204.16 173 204.85 178.14 205.28C183.29 205.71 196.05 206.03 206.5 206C216.95 205.97 226.62 205.79 228 205.6C229.37 205.41 233.65 204.95 237.5 204.57C241.35 204.19 246.52 203.17 249 202.32C251.47 201.46 255.07 200.11 257 199.33C258.92 198.55 261.17 197.48 262 196.95C262.82 196.42 264.51 195.55 265.75 195C266.99 194.45 269.64 192.54 271.64 190.75C273.63 188.96 275.67 186.6 276.15 185.5C276.63 184.4 277.96 181.92 279.11 180C280.47 177.72 281.51 173.53 282.1 168C282.59 163.32 282.75 157.47 282.45 155C282.16 152.52 281.2 148.02 280.33 145C279.46 141.97 278.36 138.71 277.88 137.75C277.39 136.79 277.02 135.44 277.04 134.75C277.07 134.06 276.37 132.82 275.5 132C274.63 131.17 273.93 129.49 273.96 128.25C273.98 127.01 273.66 126.01 273.25 126.02C272.84 126.03 271.72 124.34 270.77 122.27C269.81 120.2 269.03 117.94 269.02 117.25C269.01 116.56 268.62 115.89 268.15 115.75C267.69 115.61 265.89 112.46 264.15 108.75C262.42 105.04 260.55 102 260 102C259.45 102 259 101.32 259 100.5C259 99.67 258.55 99 258 99C257.45 99 257 98.32 257 97.5C257 96.67 256.32 96 255.5 96C254.5 96 254 95 254 93C254 91.35 254.69 84.94 255.53 78.75C256.36 72.56 257.6 66.48 258.28 65.24C259.25 63.44 259.24 62.72 258.23 61.74C257.54 61.06 256.97 59.49 256.98 58.25C256.99 57.01 256.21 54.64 255.25 52.99C254.29 51.33 253.16 49.98 252.75 49.99C252.34 49.99 252 49.32 252 48.5C252 47.67 250.48 45.54 248.63 43.75C246.77 41.96 243.62 39.04 241.63 37.25C239.63 35.46 237.55 34 237 34C236.45 34 235.32 32.87 234.5 31.5C233.67 30.12 232.32 29 231.5 29C230.67 29 229.77 28.32 229.5 27.5C229.22 26.67 228.1 25.77 227 25.5C225.9 25.22 223.54 23.65 221.75 21.99C219.96 20.34 217.94 18.99 217.25 18.99C216.56 19 215.77 18.32 215.5 17.5C215.22 16.67 214.21 16 213.25 16.01C212.29 16.01 210.6 15.39 209.5 14.63C208.4 13.87 205.81 12.29 203.75 11.12C201.69 9.95 199.55 9 199 9C198.45 9 196.54 8.38 194.75 7.62C192.96 6.86 190.15 5.75 188.5 5.16C186.85 4.58 182.8 3.83 179.5 3.51C176.2 3.18 170.8 2.51 167.5 2.01C164.2 1.51 154.52 0.91 146 0.67C137.47 0.43 129.6 0.43 128.5 0.67Z" />
		<path id="Path 1" class="shp1" d="M145 0.73C147.47 0.94 151.07 0.94 153 0.73C154.92 0.51 152.9 0.34 148.5 0.34C144.1 0.35 142.52 0.52 145 0.73Z" />
		<path id="Path 2" class="shp2" d="M133.25 16.6L131.07 19.5C135.28 23.73 136.84 24.97 137.25 24.98C137.66 24.99 140.14 26.69 142.75 28.75C145.36 30.82 148.4 33.07 149.5 33.76C150.6 34.44 152.51 35.45 153.75 36C154.99 36.55 156.22 37.67 156.5 38.5C156.77 39.32 157.45 40 158 40C158.55 40 160.8 40.79 163 41.75C165.21 42.71 167.01 43.84 167 44.25C167 44.66 167.45 45 168 45C168.55 45 170.46 45.62 172.25 46.38C174.04 47.14 177.19 48.49 179.25 49.38C181.31 50.27 184.12 51 185.5 51C186.87 51 188.22 51.45 188.5 52C188.77 52.55 191.02 53 193.5 53C195.97 53 198.22 53.45 198.5 54C198.8 54.6 204.73 54.99 213.25 54.98C227.43 54.96 227.51 54.95 230.21 52.23L232.93 49.5C229.88 45.24 228.44 44.01 227.75 44.02C227.06 44.03 224.92 42.44 223 40.5C221.07 38.56 219.16 36.97 218.75 36.98C218.34 36.99 215.86 35.29 213.25 33.2C210.64 31.1 207.15 28.74 205.5 27.95C203.85 27.15 202.27 26.27 202 25.98C201.72 25.69 200.26 24.68 198.75 23.73C197.24 22.78 195.1 22 194 22C192.9 22 192 21.55 192 21C192 20.45 190.15 19.66 187.88 19.25C185.62 18.84 183.59 18.16 183.38 17.75C183.17 17.34 181.54 17.01 179.75 17.02C177.96 17.03 176.05 16.56 175.5 15.98C174.91 15.36 166.52 14.68 154.96 14.32L135.42 13.71L133.25 16.6ZM112.94 26.49C111.6 27.86 107.67 31.53 104.21 34.64C100.74 37.76 97.93 40.91 97.96 41.65C97.98 42.39 97.15 43.56 96.11 44.25C95.06 44.94 91.91 50 89.09 55.5C86.27 61 83.97 65.84 83.98 66.25C83.99 66.66 83.28 68.69 82.4 70.75C81.52 72.81 80.45 75.4 80.03 76.5C79.61 77.6 78.86 79.85 78.36 81.5C77.58 84.08 76.97 84.5 73.98 84.5C70.85 84.5 70.47 84.2 70.18 81.5C70.01 79.85 70.4 77.37 71.05 76C71.7 74.62 72.63 72.71 73.12 71.75C73.6 70.79 74.34 68.15 74.75 65.88C75.16 63.62 75.84 61.59 76.25 61.38C76.66 61.17 75.76 59.64 74.25 57.98C72.25 55.79 70.61 54.96 68.25 54.98C66.46 54.99 64.77 55.45 64.5 56C64.22 56.55 61.52 57 58.5 57C55.47 57 52.82 57.34 52.61 57.75C52.39 58.16 49.24 58.84 45.61 59.25C41.97 59.66 38.21 60.41 37.25 60.92C36.29 61.42 33.81 62.54 31.75 63.42C29.69 64.29 27.78 65 27.51 65C27.24 65 24.3 67.81 20.98 71.25C17.65 74.69 14.95 78.29 14.97 79.25C14.98 80.21 14.55 81.22 14 81.5C13.45 81.77 13 83.35 13 85C13 86.65 13.34 88.17 13.75 88.38C14.16 88.6 14.84 91.3 15.25 94.38C15.66 97.47 16.34 100 16.75 100C17.16 99.99 18.29 101.79 19.25 104C20.21 106.2 21 108.45 21 109C21 109.55 21.67 110.22 22.5 110.5C23.32 110.77 24.47 112.01 25.04 113.25C25.62 114.49 26.74 116.62 27.54 118C28.34 119.37 30.34 121.85 31.98 123.5C33.62 125.15 34.99 126.95 35.01 127.5C35.03 128.05 38.3 131.51 42.27 135.2C46.25 138.88 51.75 143.93 54.5 146.41C57.25 148.9 59.84 150.95 60.25 150.97C60.66 150.98 63.36 152.91 66.25 155.25C69.14 157.59 72.4 160.08 73.5 160.78C74.6 161.48 76.29 162.27 77.25 162.53C78.21 162.79 79 163.45 79 164C79 164.55 79.45 165 80 165C80.55 165 82.8 165.79 85 166.75C87.21 167.71 89.01 168.84 89 169.25C89 169.66 89.45 170 90 170C90.55 170 92.8 170.79 95 171.75C97.21 172.71 99.01 173.84 99 174.25C99 174.66 100.46 175.25 102.25 175.56C104.04 175.87 106.62 176.59 108 177.17C109.37 177.76 111.17 178.57 112 178.98C112.82 179.39 115.07 180.03 117 180.42C118.92 180.8 121.62 181.59 123 182.17C124.37 182.76 126.17 183.58 127 183.99C127.82 184.41 131.14 185.15 134.37 185.63C137.59 186.11 140.4 186.84 140.62 187.25C140.83 187.66 142.46 187.99 144.25 187.98C146.04 187.97 147.95 188.4 148.5 188.93C149.05 189.46 153.71 190.26 158.86 190.7C164 191.14 168.39 191.84 168.61 192.25C168.82 192.66 172.15 193 176 193C179.85 193 183.22 193.45 183.5 194C183.81 194.62 191.5 195 203.5 195C215.5 195 223.19 194.62 223.5 194C223.77 193.45 226.7 193 230 193C233.3 193 236.17 192.66 236.39 192.25C236.6 191.84 239.08 191.16 241.89 190.75C244.7 190.34 247.79 189.6 248.75 189.12C249.71 188.63 251.85 187.63 253.5 186.9C255.15 186.16 258.3 184.2 260.5 182.54C262.7 180.88 264.71 179.06 264.96 178.51C265.21 177.95 266.45 176.26 267.71 174.75C269.66 172.41 270.02 170.77 270.13 163.75C270.2 159.21 269.8 154.6 269.24 153.5C268.69 152.4 267.76 150.37 267.17 149C266.59 147.62 265.87 145.04 265.56 143.25C265.25 141.46 264.55 140 264 140C263.45 140 262.99 139.21 262.99 138.25C262.98 137.29 260.84 132.28 258.24 127.12C255.63 121.96 252.92 117.24 252.21 116.62C251.49 116 250.94 115.05 250.98 114.5C251.02 113.95 249.91 112.37 248.53 111L246 108.5C242.07 112.37 239.51 116.42 237.78 120C236.05 123.57 233.36 128.19 231.81 130.25C230.27 132.31 229.01 134.34 229.03 134.75C229.05 135.16 228.26 136.31 227.28 137.29C226.28 138.29 224.4 138.95 223 138.79C220.68 138.52 220.5 138.11 220.5 133.17C220.5 129.01 220.94 127.52 222.5 126.35C223.6 125.52 225.03 123.87 225.69 122.67C226.34 121.48 227.99 118.25 229.35 115.5C230.72 112.75 232.56 109.82 233.45 109C234.33 108.17 235.33 106.15 235.67 104.5C236.01 102.85 236.67 100.71 237.14 99.75C237.61 98.79 238.45 97.1 239 96C239.55 94.9 240.34 91.25 240.75 87.89C241.16 84.53 241.84 81.61 242.25 81.39C242.66 81.18 243 78.97 243 76.5C243 74.02 243.56 71.12 244.25 70.04C245.34 68.33 245.11 67.67 242.5 65.01C239.9 62.37 238.8 61.96 234.25 61.98C231.36 61.99 228.77 62.45 228.5 63C228.22 63.55 224.74 64.01 220.75 64.02C216.76 64.03 213.05 63.54 212.5 62.94C211.78 62.15 210.88 62.22 209.28 63.17C207.48 64.24 206.81 64.26 205.78 63.23C205 62.46 201.88 61.97 197.75 61.98C194.04 61.99 190.82 61.66 190.61 61.25C190.39 60.84 187.81 60.22 184.86 59.88C181.91 59.53 178.6 58.8 177.5 58.24C176.4 57.69 174.37 56.77 173 56.19C171.62 55.62 169.15 54.85 167.5 54.48C165.85 54.12 163.37 53 162 52C160.62 51 158.2 49.81 156.62 49.34C155.03 48.88 153.41 47.82 153 47C152.59 46.17 150.97 45.12 149.38 44.65C147.8 44.18 144.7 42.33 142.5 40.55C140.3 38.77 137.82 37 137 36.62C136.17 36.23 134.53 35.38 133.35 34.71C132.17 34.04 130.37 32.72 129.35 31.78C128.33 30.83 125.92 28.71 124 27.07C122.07 25.43 119.35 24.06 117.94 24.04C116.49 24.02 114.32 25.08 112.94 26.49Z" />
		<path id="Path 3" class="shp1" d="M68 42.04C66.43 42.57 67.92 42.67 72 42.31C75.57 41.99 78.69 41.57 78.92 41.37C79.15 41.17 77.35 41.04 74.92 41.1C72.49 41.15 69.37 41.58 68 42.04ZM52 44L47.5 44.7C54.47 44.78 57.62 44.44 59 44L61.5 43.2C57.62 43.28 54.47 43.62 52 44ZM255.5 79C255.16 83.12 255.11 86.72 255.39 87C255.66 87.27 256.21 84.21 256.61 80.19C257.01 76.17 257.06 72.57 256.72 72.19C256.39 71.81 255.84 74.87 255.5 79Z" />
		<path id="Path 4" class="shp3" d="M1.71 76.46C1.32 77.31 1.06 80.59 1.14 83.75L1.28 89.5C2.42 78.65 2.67 75.37 2.58 75.21C2.49 75.05 2.1 75.61 1.71 76.46Z" />
		<path id="Path 5" class="shp1" d="M0.33 84.5C0.33 88.35 0.51 89.7 0.73 87.5C0.94 85.3 0.94 82.15 0.72 80.5C0.5 78.85 0.32 80.65 0.33 84.5Z" />
		<path id="Path 6" class="shp4" d="M31.41 148.75C30.99 149.71 30.04 153.42 29.3 157C28.56 160.57 27.63 172.61 27.23 183.75C26.66 199.68 26.77 204 27.75 204C28.45 204 29.28 205.85 29.64 208.25C29.99 210.59 30.78 213.38 31.39 214.46C32 215.54 33.06 217 33.75 217.71C34.44 218.42 35 220.12 35 221.5C35 222.87 35.45 224 36 224C36.55 224 37 224.67 37 225.5C37 226.32 37.67 227.22 38.5 227.5C39.32 227.77 40.02 228.79 40.04 229.75C40.06 230.71 40.86 232.17 41.8 233C42.75 233.82 44.84 236.3 46.45 238.5C48.05 240.7 50.3 243.41 51.44 244.52C52.57 245.63 54.85 247.19 56.5 247.98C58.15 248.77 61.64 251.57 64.25 254.21C66.86 256.84 69.34 258.98 69.75 258.96C70.16 258.93 71.17 259.63 72 260.5C72.82 261.37 74.06 262.07 74.75 262.04C75.44 262.02 78.81 263.81 82.25 266.01C85.71 268.24 89.73 270.02 91.25 270.01C92.76 270.01 94.79 270.38 95.75 270.84C96.71 271.31 98.4 272.15 99.5 272.72C100.6 273.29 103.75 274.1 106.5 274.51C109.25 274.92 111.95 275.64 112.5 276.12C113.05 276.6 121.15 277 130.5 277C139.85 277.01 147.95 276.62 148.5 276.13C149.05 275.65 151.75 275.06 154.5 274.82C157.25 274.57 161.52 273.44 164 272.3C166.47 271.15 170.07 269.92 172 269.55C173.92 269.18 176.74 267.78 178.25 266.44C179.76 265.1 181.56 264.01 182.25 264.03C182.94 264.05 184.4 263.11 185.5 261.95C186.6 260.79 189.07 259.12 191 258.24C192.92 257.37 197.99 253.24 202.26 249.08C206.52 244.91 210.01 241.05 210.01 240.5C210.02 239.95 211.51 237.92 213.34 236C215.16 234.07 217 231.15 217.43 229.5C217.85 227.85 219.16 225.37 220.35 223.99C221.53 222.61 224.07 218.24 226 214.28C227.92 210.31 230.4 206.65 231.5 206.13C233.16 205.36 232.93 205.23 230.15 205.35C228.31 205.43 226.62 205.84 226.4 206.25C226.18 206.66 215.87 207 203.5 207C189.5 207 180.81 206.62 180.5 206C180.22 205.45 177.52 205 174.5 205C171.47 205 168.77 204.55 168.5 204C168.22 203.45 165.52 203 162.5 203C159.47 203 156.82 202.66 156.61 202.25C156.39 201.84 152.68 201.13 148.36 200.67C144.04 200.22 139.15 199.09 137.5 198.17C135.85 197.25 134.27 196.22 134 195.89C133.72 195.55 130.8 194.93 127.5 194.51C124.2 194.1 120.71 193.36 119.75 192.88C118.79 192.4 117.21 191.61 116.25 191.14C115.29 190.67 112.92 189.97 111 189.58C109.07 189.2 106.37 188.4 105 187.82C103.62 187.23 101.26 186.14 99.75 185.38C98.24 184.62 96.32 184 95.5 184C94.67 184 92.76 183.16 91.25 182.13C89.74 181.1 87.37 179.92 86 179.5C84.62 179.08 82.37 177.96 81 177C79.62 176.04 77.37 174.93 76 174.52C74.62 174.1 72.15 172.77 70.5 171.55C68.85 170.34 66.04 168.7 64.25 167.92C62.46 167.14 61 166.16 61 165.75C61 165.34 59.99 165 58.75 165C57.5 165.01 54.72 163.3 52.5 161.18C50.3 159.08 45.91 155.47 42.75 153.18C39.59 150.88 36.77 148.55 36.5 148C36.22 147.45 35.14 147 34.08 147C33.03 147 31.83 147.79 31.41 148.75Z" />
		<path id="Path 7" class="shp1" d="M282.78 161.25C282.93 164.69 283.2 168.85 283.37 170.5C283.54 172.15 283.75 169.34 283.84 164.25C283.93 159.16 283.66 155 283.25 155C282.84 155 282.63 157.81 282.78 161.25Z" />
		<path id="Path 8" class="shp5" d="M53.18 161.96C55.01 163.59 57.06 164.94 57.75 164.96C58.44 164.98 57.54 163.67 55.75 162.04C53.96 160.41 51.91 159.06 51.18 159.04C50.45 159.02 51.35 160.33 53.18 161.96Z" />
		<path id="Path 9" class="shp6" d="M27 165C27 167.2 26.55 169.22 26 169.5C25.41 169.79 25 175.17 25 182.5C25 189.37 25.34 195.18 25.75 195.41C26.16 195.63 26.36 190.57 26.18 184.16C26.01 177.64 26.31 171.62 26.87 170.5C27.42 169.4 28.02 166.82 28.19 164.76C28.36 162.7 28.16 161.01 27.75 161.01C27.34 161 27 162.8 27 165Z" />
		<path id="Path 10" class="shp7" d="M26.38 182.5C26.38 189.1 26.55 191.57 26.74 188C26.94 184.42 26.93 179.02 26.74 176C26.54 172.97 26.38 175.9 26.38 182.5Z" />
		<path id="Path 11" class="shp5" d="M188.5 206.74C192.9 206.93 199.65 206.93 203.5 206.74C207.35 206.55 203.75 206.4 195.5 206.4C187.25 206.4 184.1 206.56 188.5 206.74ZM215 206.73C216.92 206.94 220.3 206.94 222.5 206.73C224.7 206.51 223.12 206.34 219 206.34C214.87 206.34 213.07 206.51 215 206.73Z" />
		<path id="Path 12" class="shp8" d="M52.25 248.37C50.91 249.04 49.99 250.41 50 251.75C50 252.99 49.52 254 48.93 254C48.34 254 47.21 254.67 46.43 255.5C45.64 256.32 45 257.45 45 258C45 258.55 43.87 260.12 42.5 261.5C41.12 262.87 40 264.67 40 265.5C40 266.32 38.87 268.12 37.5 269.5C36.12 270.87 35 273.12 35 274.5C35 275.87 34.32 277.67 33.5 278.5C32.67 279.32 32 280.9 32 282C32 283.1 31.55 284 31 284C30.45 284 29.77 286.25 29.5 289C29.22 291.75 28.55 294 28 294C27.45 294 27 295.35 27 297C27 298.65 26.66 300 26.25 299.99C25.84 299.98 25.19 302.8 24.82 306.24C24.44 309.68 23.65 312.61 23.07 312.75C22.48 312.89 22 314.8 22 317C22 319.2 21.55 321 21 321C20.39 321 19.98 325.95 19.95 333.75C19.93 340.76 19.51 346.72 19.02 347C18.53 347.27 17.77 356.61 17.32 367.75C16.87 378.89 16.16 388.01 15.75 388C15.34 388 15 393.62 15 400.5C15 408.17 14.61 413 14 413C13.36 413 13.09 418.81 13.25 428.94C13.48 443.43 13.68 445.06 15.5 446.73C16.6 447.74 19.19 449.34 21.25 450.28C23.31 451.23 25 452.45 25 453C25 453.55 26.12 454 27.5 454C28.87 454 30 454.45 30 455C30 455.55 32.02 456.22 34.5 456.5C36.97 456.77 39 457.45 39 458C39 458.55 40.12 459 41.5 459C42.87 459 44 459.45 44 460C44 460.55 46.25 461.22 49 461.5C51.75 461.77 54 462.45 54 463C54 463.55 54.67 464 55.5 464C56.32 464 57.79 464.43 58.75 464.95C59.71 465.47 62.19 466.14 64.25 466.45C66.31 466.75 68 467.45 68 468C68 468.55 69.57 469 71.5 469C73.42 469 75 469.45 75 470C75 470.55 78.37 471.22 82.5 471.5C86.62 471.77 90 472.34 89.99 472.75C89.99 473.16 95.5 474.07 102.24 474.76C108.98 475.46 117.09 476.02 120.25 476.01C125.28 476 125.93 476.22 125.42 477.75C124.9 479.32 125.35 479.42 129.67 478.77C132.33 478.37 135.96 477.8 137.75 477.52C139.6 477.22 141 477.43 141 478C141 478.55 141.67 479 142.5 479C143.32 479 144 478.66 143.99 478.25C143.99 477.84 148.94 477.16 154.99 476.75C161.16 476.33 166 475.56 166 475C166 474.45 167.8 474 170 474C172.2 474 174 473.55 174 473C174 472.45 176.92 471.77 180.5 471.5C184.07 471.22 187.22 470.55 187.5 470C187.77 469.45 189.35 469 191 469C192.65 469 194 468.55 194 468C194 467.45 196.26 466.66 199.02 466.25C201.77 465.84 204.02 465.16 204.02 464.75C204.01 464.34 205.12 464 206.5 464C207.87 464 209 463.55 209 463C209 462.45 211.14 461.71 213.75 461.36C216.36 461.01 218.72 460.45 219 460.11C219.27 459.78 220.51 458.94 221.75 458.25C222.99 457.56 225.81 456.66 228.02 456.25C230.23 455.84 232.03 455.16 232.02 454.75C232.01 454.34 232.9 454 234 454C235.1 454 235.99 453.66 235.98 453.25C235.97 452.84 237.77 452.16 239.98 451.75C242.19 451.34 244 450.55 244 450C244 449.45 244.67 449 245.5 449C246.32 449 247 448.55 247 448C247 447.45 247.9 446.77 249 446.5C250.29 446.18 251.35 444.66 251.99 442.25C252.54 440.19 252.99 434.34 252.99 429.25C253 423.75 252.59 420 252 420C251.39 420 251.1 416.67 251.25 411.5C251.43 405.23 251.17 403 250.25 403C249.31 403 249 399.63 249 389.5C249 377.94 248.78 376.07 247.5 376.5C246.22 376.93 246.01 375.32 246.06 365.75C246.1 358.61 245.73 354.41 245.06 354.25C244.48 354.11 244 352.65 244 351C244 349.35 243.66 348 243.25 348.01C242.84 348.01 242.17 344.98 241.76 341.26C241.36 337.54 240.57 334.39 240.01 334.25C239.46 334.11 239 332.65 239 331C239 329.35 238.55 328 238 328C237.45 328 236.77 325.75 236.5 323C236.22 320.25 235.55 318 235 318C234.45 318 234 317.1 234 316C234 314.9 233.21 312.31 232.25 310.25C231.29 308.19 230.16 306.39 229.75 306.25C229.34 306.11 229 305.55 229 305C229 304.45 228.21 302.2 227.25 300C226.29 297.79 225.16 295.99 224.75 296C224.34 296 223.77 294.65 223.5 293C223.22 291.35 222.1 289.44 221 288.75C219.89 288.06 219.01 286.82 219.04 286C219.06 285.17 217.93 283.6 216.53 282.5C215.14 281.4 213.99 279.94 214 279.25C214 278.56 212.67 276.76 211.04 275.25C209.41 273.74 208.04 272.05 208.01 271.5C207.97 270.95 204.82 267.35 201.01 263.5L194.07 256.5C188.98 259.08 186.6 260.79 185.5 261.95C184.4 263.11 182.94 264.05 182.25 264.03C181.56 264.01 179.76 265.1 178.25 266.44C176.74 267.78 173.92 269.18 172 269.55C170.07 269.92 166.47 271.15 164 272.3C161.52 273.44 157.25 274.57 154.5 274.82C151.75 275.06 149.05 275.65 148.5 276.13C147.95 276.62 139.85 277.01 130.5 277C121.15 277 113.05 276.6 112.5 276.12C111.95 275.64 109.25 274.92 106.5 274.51C103.75 274.1 100.71 273.36 99.75 272.88C98.79 272.4 97.1 271.55 96 271C94.9 270.45 92.76 270.01 91.25 270.01C89.73 270.02 85.71 268.24 82.25 266.01C78.81 263.81 75.44 262.02 74.75 262.04C74.06 262.07 72.82 261.37 72 260.5C71.17 259.63 70.16 258.93 69.75 258.96C69.34 258.98 66.92 256.86 64.38 254.25C61.84 251.64 58.58 248.92 57.13 248.22C55.68 247.51 54.5 247.01 54.5 247.09C54.5 247.18 53.49 247.75 52.25 248.37Z" />
		<path id="Path 13" class="shp9" d="M19.33 340.5C19.33 344.35 19.51 345.7 19.73 343.5C19.94 341.3 19.94 338.15 19.72 336.5C19.5 334.85 19.32 336.65 19.33 340.5Z" />
		<path id="Path 14" class="shp10" d="M17.15 354.75C17.23 359.56 17.44 362.37 17.62 361C17.8 359.62 18.07 355.69 18.22 352.25C18.37 348.81 18.16 346 17.75 346C17.34 346 17.07 349.94 17.15 354.75ZM15.39 375.5C15.39 382.65 15.55 385.35 15.74 381.5C15.93 377.65 15.93 371.8 15.74 368.5C15.54 365.2 15.39 368.35 15.39 375.5Z" />
		<path id="Path 15" class="shp9" d="M16.17 375.75C16.27 382.76 16.49 386.7 16.66 384.5C16.83 382.3 17.09 376.56 17.23 371.75C17.38 366.93 17.16 363 16.75 363C16.34 363 16.08 368.74 16.17 375.75ZM246.33 370.5C246.33 374.35 246.51 375.7 246.73 373.5C246.94 371.3 246.94 368.15 246.72 366.5C246.5 364.85 246.32 366.65 246.33 370.5Z" />
		<path id="Path 16" class="shp10" d="M249.78 392.25C249.93 395.69 250.2 399.62 250.38 401C250.56 402.37 250.77 399.56 250.85 394.75C250.93 389.94 250.66 386 250.25 386C249.84 386 249.63 388.81 249.78 392.25Z" />
		<path id="Path 17" class="shp9" d="M249.35 395C249.35 399.67 249.52 401.47 249.73 399C249.94 396.52 249.94 392.7 249.73 390.5C249.52 388.3 249.35 390.32 249.35 395ZM14.39 401C14.39 407.87 14.55 410.57 14.74 407C14.94 403.42 14.94 397.8 14.74 394.5C14.55 391.2 14.39 394.12 14.39 401ZM251.35 412C251.35 416.67 251.52 418.47 251.73 416C251.94 413.52 251.94 409.7 251.73 407.5C251.52 405.3 251.35 407.32 251.35 412Z" />
		<path id="Path 18" class="shp10" d="M12.29 427.5L12.37 442.5C13.25 423.9 13.21 417.15 12.85 415.5C12.5 413.85 12.24 419.25 12.29 427.5ZM252.5 430C252.5 436.05 252.84 441 253.25 441C253.66 441 254 436.05 254 430C254 423.95 253.66 419 253.25 419C252.84 419 252.5 423.95 252.5 430ZM98 475.25C98 475.66 100.48 476.11 103.5 476.25C106.53 476.39 109 476.16 109 475.75C109 475.34 106.52 474.89 103.5 474.75C100.47 474.61 98 474.84 98 475.25Z" />
		<path id="Path 19" class="shp9" d="M111 476.62C112.37 476.8 116.31 477.07 119.75 477.22C123.19 477.37 126 477.16 126 476.75C126 476.34 122.06 476.07 117.25 476.15C112.44 476.23 109.62 476.44 111 476.62Z" />
	</g>
</svg>