<svg version="1.2" baseProfile="tiny-ps" xmlns="http://www.w3.org/2000/svg" viewBox="0 0 583 574" width="583" height="574">
	<title>Background</title>
	<style>
		tspan { white-space:pre }
		.shp0 { opacity: 0.988;fill: #9dc470 } 
		.shp1 { fill: #fffcfc } 
		.shp2 { fill: #ff0101 } 
		.shp3 { fill: #030000 } 
		.shp4 { opacity: 0.169;fill: #7ec279 } 
		.shp5 { opacity: 0.439;fill: #c70000 } 
	</style>
	<g id="Background">
		<path id="Path 0" class="shp0" d="M258.12 1.55C256.5 2.61 255.77 3.98 255.86 5.81C255.93 7.29 259.3 14.35 263.35 21.5C267.41 28.65 274.82 40.8 279.83 48.5C284.84 56.2 293.19 68.8 298.4 76.5C303.6 84.2 310.02 92.68 312.68 95.35C315.33 98.02 321.77 103.3 327 107.08C332.22 110.85 337.17 114.53 338 115.24C338.82 115.95 340.4 117.6 341.5 118.91L343.5 121.28C337.3 120.17 333.7 118.82 331.5 117.56C329.3 116.3 325.65 113.07 323.39 110.38C321.13 107.7 317.08 103.85 314.39 101.83C311.7 99.82 302.97 93.27 295 87.29C287.02 81.31 278.36 75.19 275.75 73.71C273.14 72.22 269.87 71 268.5 71C267.01 71 265.41 71.91 264.54 73.25C263.73 74.49 262.38 77.64 261.54 80.25C260.32 84.01 260.26 85.17 261.25 85.83C261.94 86.28 267.22 87.89 273 89.4C278.77 90.92 287.1 93.85 291.5 95.91C295.9 97.98 303.32 102.23 308 105.35C312.67 108.48 320.77 114.16 326 117.97C331.22 121.78 338.87 126.69 343 128.88C347.12 131.07 356.57 135.49 364 138.71C371.42 141.93 380.65 146.33 384.5 148.49C388.35 150.64 395.77 155.62 401 159.56C406.22 163.49 413.65 170.1 417.5 174.25C421.35 178.4 426.18 184.65 428.24 188.15C430.29 191.64 431.98 194.84 431.99 195.25C431.99 195.66 433.18 198.36 434.63 201.25C436.08 204.14 437.6 206.72 438.01 207C438.43 207.27 441.36 212 444.53 217.5C447.71 223 451.99 229.75 454.05 232.5C456.11 235.25 460.36 239.97 463.5 243L469.2 248.5C468.05 242.26 468.18 242.05 470.25 242.6C471.49 242.92 476.1 245.21 480.5 247.67C484.9 250.13 493.22 254.18 499 256.66C504.77 259.14 510.85 262.12 512.5 263.29C514.15 264.46 518.42 267.74 522 270.58C525.57 273.42 529.96 276.48 531.75 277.37C533.54 278.27 537.36 279.01 540.25 279.02C544.02 279.04 547.06 278.27 551.05 276.27C554.1 274.75 560.34 270.8 564.91 267.5C569.48 264.2 574.97 259.59 577.11 257.25C579.25 254.91 581.45 251.31 581.99 249.25C582.54 247.19 582.99 244.37 583 243C583.01 241.62 582.34 239.49 581.51 238.25C580.68 237.01 579.21 235.59 578.25 235.08C577.29 234.57 572 233.69 566.5 233.12C559.2 232.37 552.45 230.74 541.5 227.11C532.75 224.2 519.63 220.82 510 218.99C496.48 216.43 492.1 215.15 485.75 211.93C481.49 209.77 474.51 207.05 470.25 205.88C465.99 204.72 460.81 202.92 458.75 201.88C456.69 200.85 454.32 198.99 453.49 197.75C452.66 196.51 451.99 194.94 451.99 194.25C452 193.37 453.11 193.17 455.75 193.58C457.81 193.9 464.45 195.52 470.5 197.18C481.05 200.07 482.17 200.18 498 199.84L514.5 199.48C527.67 192.26 536.9 188.48 543.5 186.43C550.1 184.37 559.55 180.65 564.5 178.14C569.45 175.64 575.63 171.55 578.23 169.05C581.08 166.31 582.96 163.61 582.98 162.25C582.99 161.01 581.99 158.94 580.75 157.65C579.51 156.36 575.35 154.31 571.5 153.09C567.65 151.87 560.67 150.61 556 150.29C550.07 149.89 544.48 150.24 537.5 151.46C532 152.42 520.97 154.72 513 156.59C501.39 159.3 496.41 159.97 488 159.97C482.2 159.97 474.59 159.3 471 158.47C467.42 157.64 460.79 155.85 456.25 154.48C451.71 153.12 448.02 151.66 448.04 151.25C448.07 150.84 452.23 148.56 457.29 146.2C462.36 143.83 468.97 140.06 472 137.81C475.02 135.56 479.42 131.42 481.76 128.61C484.11 125.8 490.03 115.85 494.91 106.5C499.8 97.15 506.61 82.75 510.05 74.5C514.62 63.56 516.44 57.87 516.77 53.5C517.13 48.86 516.81 46.75 515.37 44.19C514.22 42.14 511.78 40.07 509 38.77C506.52 37.61 501.8 36.2 498.5 35.64C494.24 34.91 489.31 34.95 481.5 35.78C475.45 36.43 466.45 38.12 461.5 39.55C456.55 40.97 449.57 43.53 446 45.23C441.85 47.21 437.32 50.53 433.46 54.42C429.58 58.33 425.83 63.54 422.96 69C420.51 73.67 417.46 80.2 416.18 83.5C414.41 88.09 413.53 93.62 412.44 107C411.65 116.62 410.66 124.84 410.25 125.26C409.84 125.68 408.89 124.1 408.16 121.76C407.32 119.1 406.5 108.66 405.99 94C405.42 77.64 404.69 68.83 403.58 65C402.71 61.97 402 57.25 402.01 54.5C402.02 51.75 402.93 46.12 404.02 42C405.12 37.87 406.27 30.45 406.58 25.5C407.05 17.99 406.84 15.92 405.32 13C404.32 11.08 402.6 9.35 401.5 9.17C400.4 8.98 398.6 9.07 397.5 9.37C396.4 9.66 393.57 11.84 391.21 14.2C388.81 16.61 385.5 21.58 383.71 25.48C381.94 29.32 378.36 36.63 375.75 41.73C373.14 46.83 370.32 53.59 369.49 56.75C368.67 59.91 368 64.97 368 68C368.01 71.02 368.72 78.22 369.57 84C370.42 89.77 370.98 95.85 370.81 97.5L370.5 100.5C362.19 92.75 358.6 88.47 357.17 86C355.06 82.36 354.48 79.87 354.15 73C353.86 66.94 354.24 62.78 355.46 58.5C356.4 55.2 360.81 46.2 365.25 38.5C369.7 30.8 375.66 21.35 378.5 17.5C381.34 13.65 384.43 9.82 385.38 9C386.32 8.17 387.07 6.49 387.04 5.25C387.02 4.01 386.21 2.7 385.25 2.34C384.29 1.97 378.32 2.45 372 3.39C365.08 4.43 358.41 6.08 355.25 7.56C351.44 9.33 349.13 11.3 346.81 14.75C345.06 17.36 342.32 23.1 340.72 27.5C339.12 31.9 337.12 36.85 336.28 38.5C335.43 40.15 332.26 44.42 329.24 48C326.22 51.57 323.27 55.62 322.69 57C322.11 58.37 321.38 62.29 321.07 65.71L320.5 71.92C309.99 59.19 304.14 52.31 300.72 48.42C297.3 44.52 292.95 38.44 291.05 34.91C289.15 31.39 283.3 22.79 278.05 15.81C272.8 8.82 267.26 2.41 265.75 1.56C264.24 0.7 262.44 0 261.75 -0.01C261.06 -0.01 259.43 0.69 258.12 1.55Z" />
		<path id="Path 1" class="shp1" d="M222.5 83.67C218.65 83.84 211.22 84.44 206 85C200.77 85.57 192.67 87.07 188 88.34C183.32 89.62 171.4 94.1 161.5 98.3C151.6 102.5 140.8 107.72 137.5 109.91C134.2 112.1 130.6 114.58 129.5 115.43C128.4 116.28 127.87 117.32 128.33 117.74C128.79 118.16 131.72 118.44 134.83 118.36C137.95 118.29 145.45 117.04 151.5 115.6C157.55 114.15 167.67 111.19 174 109.01C181.08 106.58 190.5 104.28 198.5 103.04C205.65 101.94 215.55 99.9 220.5 98.52C228.19 96.36 231.57 96 243.75 96C251.59 96 260.14 96.52 262.75 97.16C265.36 97.8 268.4 98.89 269.5 99.59C270.6 100.28 274.2 101.64 277.5 102.6C280.8 103.57 284.29 105.18 285.25 106.18C286.35 107.32 286.72 108.6 286.25 109.62C285.84 110.5 281.67 113.06 277 115.3C272.32 117.53 267.37 120.19 266 121.2C264.62 122.21 261.7 123.31 259.5 123.63C256.54 124.07 254.33 123.67 251 122.06C248.52 120.87 244.92 119.02 243 117.95C241.07 116.88 238.04 116 236.25 116C234.46 116 231.54 116.61 229.75 117.35C227.96 118.08 225.94 119.32 225.25 120.1C224.56 120.87 224.22 122.29 224.5 123.25C224.77 124.21 226.01 125.28 227.25 125.63C228.49 125.97 233.1 126.57 237.5 126.96C241.9 127.35 246.4 128.15 247.5 128.74C248.6 129.33 252.42 130.57 256 131.49C259.57 132.42 266.77 133.82 272 134.6C277.22 135.38 285.21 136.01 289.75 136.01L298 136C297.07 140.26 295.49 143.07 293.89 145C292.29 146.92 290.99 149.51 290.99 150.75C291 152.08 291.92 153.47 293.25 154.14C295.01 155.02 297.03 154.88 302.5 153.49C307.4 152.24 311.3 151.89 315.5 152.31C318.8 152.64 324.09 153.27 327.26 153.71C332.81 154.47 333.02 154.42 333.01 152.25C333 150.74 332.1 149.63 330.25 148.88C328.74 148.27 325.81 147.59 323.75 147.38C321.69 147.17 318.76 146.16 317.25 145.14C315.5 143.95 314.32 142.09 314 140.02C313.68 137.93 313.94 136.64 314.75 136.39C315.44 136.17 316 135.1 316 134C316 132.9 315.32 131.77 314.5 131.5C313.67 131.22 306.14 130.96 297.75 130.92C289.36 130.87 279.9 130.53 276.72 130.17C273.29 129.77 270.56 128.89 269.99 128C269.46 127.17 269.18 126.05 269.37 125.5C269.55 124.95 273.82 122.36 278.85 119.75C283.88 117.14 290.36 114.51 293.25 113.9C296.14 113.3 299.07 112.07 299.77 111.15C300.46 110.24 301.01 109.05 300.97 108.5C300.94 107.95 299.24 106.03 297.2 104.23C294.54 101.88 293.99 100.97 295.25 100.98C296.21 100.99 298.8 102.57 301 104.5C303.67 106.83 306 108 308 108C309.65 108 311.02 107.89 311.05 107.75C311.07 107.61 308.26 105.61 304.8 103.3C301.33 100.99 294.9 97.44 290.5 95.42C286.05 93.38 274.95 89.85 265.5 87.47C251.12 83.85 247.04 83.21 239 83.28C233.77 83.32 226.35 83.5 222.5 83.67Z" />
		<path id="Path 2" class="shp2" d="M213.14 88.34C211.3 89.53 208.32 91.96 206.52 93.75C203.56 96.7 203.46 97 205.38 96.99C206.55 96.99 212.45 95.63 218.5 93.97C224.55 92.32 230.85 90.12 232.5 89.1L235.5 87.23C225.42 86.27 221.15 86.03 219.5 86.09C217.85 86.14 214.99 87.16 213.14 88.34ZM188 91.47C184.97 92.18 179.8 93.93 176.5 95.36C173.2 96.79 169.56 97.96 168.42 97.98C167.27 97.99 166.06 98.34 165.72 98.75C165.38 99.16 165.3 100.06 165.55 100.75C165.82 101.51 167.88 102.01 170.75 102.03C174.28 102.05 176.53 101.37 179.5 99.38C181.7 97.9 185.86 95.64 188.75 94.35C191.64 93.06 194.17 91.55 194.38 91C194.59 90.45 194.47 90.04 194.13 90.08C193.78 90.13 191.02 90.75 188 91.47ZM277 96.25C280.02 97.57 284.75 98.95 287.5 99.33L292.5 100.01C284.54 95.83 280.26 94.58 277 94.32L271.5 93.87L277 96.25ZM220 98.58C215.32 99.93 205.65 101.93 198.5 103.04C190.51 104.28 181.07 106.58 174 109.01C167.67 111.19 157.55 114.15 151.5 115.6C145.45 117.04 137.9 118.29 134.71 118.36C131 118.45 128.67 118.05 128.21 117.25C127.71 116.36 126.58 116.95 124.34 119.25C122.61 121.04 113 133.97 103 148C92.99 162.02 82.96 176.65 80.71 180.5C78.45 184.35 74.65 192.45 72.26 198.5C69.87 204.55 66.35 214.45 64.44 220.5C62.54 226.55 58.75 241.4 56.03 253.5C53.31 265.6 48.83 284.72 46.07 296C43.31 307.27 40.82 317.51 40.53 318.75C40.24 319.99 40.22 321 40.5 321C40.77 321 41.79 320.52 42.75 319.92C44 319.15 45.29 319.15 47.25 319.92C49.4 320.76 50 321.65 50 324C50 326.27 49.39 327.24 47.5 328C45.83 328.67 44.33 328.67 43 328C41.9 327.45 41 326.1 41 325C41 323.9 40.66 322.8 40.25 322.56C39.84 322.32 38.66 324.68 37.63 327.81C36.61 330.94 33.59 339.12 30.92 346C28.26 352.87 23.77 362.32 20.95 367C18.14 371.67 14.35 378.42 12.53 382C10.72 385.57 8.26 391.65 7.06 395.5C5.87 399.35 3.97 407.67 2.83 414C1.29 422.57 0.64 431.48 0.25 449C-0.06 463.52 0.18 476.9 0.9 484C1.54 490.32 3.12 500.22 4.41 506C5.71 511.77 8.59 521.22 10.83 527C13.18 533.09 16.8 540.12 19.44 543.75C21.95 547.19 27.04 552.5 30.75 555.56C34.46 558.62 41.32 563.05 46 565.41C50.68 567.78 58.1 570.5 62.5 571.48C69.39 573.02 73.91 573.19 95 572.75C111.5 572.41 122.27 571.71 128 570.62C132.67 569.72 141 567.89 146.5 566.54C152 565.19 164.6 561.59 174.5 558.53C184.4 555.46 199.7 551.37 208.5 549.43C217.3 547.48 228.1 544.98 232.5 543.86C236.9 542.74 251.97 538.29 266 533.95C280.02 529.62 298.92 524.28 308 522.08C317.07 519.89 333.27 516.45 344 514.45C354.72 512.45 367.32 509.7 372 508.35C376.67 506.99 384.32 504.2 389 502.14C393.67 500.08 400.65 496.56 404.5 494.31C408.35 492.07 416.11 486.81 421.75 482.62C427.39 478.43 440.19 468.14 450.21 459.75C460.22 451.36 471.03 441.35 474.23 437.5C477.43 433.65 482.22 426.22 484.87 421C487.52 415.77 492.44 403.17 495.8 393C499.16 382.82 502.65 371.12 503.55 367C504.45 362.87 505.43 353.42 505.74 346C506.07 337.89 505.8 328.51 505.06 322.5C504.39 317 502.96 308.45 501.89 303.5C500.82 298.55 498.97 291.57 497.78 288C496.6 284.42 493.07 277.67 489.93 273C486.8 268.32 481.03 261.01 477.12 256.75C472.9 252.16 469.97 248.08 469.93 246.75C469.87 244.87 469.75 244.79 469.18 246.27C468.62 247.73 467.37 246.88 461.87 241.27C458.22 237.54 453.57 232.02 451.52 229C449.48 225.97 445.72 219.78 443.16 215.23C440.59 210.68 438.16 206.97 437.75 206.98C437.34 206.99 437.28 208.24 437.63 209.75C438 211.36 437.79 212.81 437.13 213.25C436.51 213.66 433.91 213.66 431.36 213.25C428.65 212.81 426.5 211.88 426.21 211C425.91 210.12 426.83 208.68 428.45 207.5C430.98 205.66 431.16 205.11 430.6 200.75C430.15 197.15 430.33 195.94 431.38 195.75C432.35 195.57 431.48 193.41 428.47 188.5C426.11 184.65 421.1 178.17 417.34 174.09C413.58 170.02 405.77 163.15 400 158.82C394.22 154.5 384.55 148.52 378.5 145.54C372.45 142.55 362.1 137.73 355.5 134.81C348.9 131.9 339.67 127.1 335 124.15C330.32 121.2 323.35 116.35 319.5 113.37C313.84 108.99 311.78 107.96 308.75 107.98C305.87 107.99 304.07 107.19 301 104.5C298.8 102.57 296.21 100.99 295.25 100.98C293.99 100.97 294.54 101.88 297.2 104.23C299.24 106.03 300.94 107.95 300.97 108.5C301.01 109.05 300.46 110.24 299.77 111.15C299.07 112.07 296.14 113.3 293.25 113.9C290.36 114.51 283.88 117.14 278.85 119.75C273.82 122.36 269.55 124.95 269.37 125.5C269.18 126.05 269.46 127.17 269.99 128C270.56 128.89 273.29 129.77 276.72 130.17C279.9 130.53 289.36 130.87 297.75 130.92C306.14 130.96 313.67 131.22 314.5 131.5C315.32 131.77 316 132.9 316 134C316 135.1 315.44 136.17 314.75 136.39C313.94 136.64 313.68 137.93 314 140.02C314.3 141.97 315.5 143.96 317 145C318.37 145.95 321.19 147.01 323.25 147.36C326.52 147.92 326.93 147.78 326.43 146.25C326.12 145.27 326.77 143.29 327.93 141.75C329.44 139.74 330.74 139.07 332.75 139.25C335.17 139.47 335.5 139.91 335.5 142.94C335.5 146.02 335.14 146.47 332 147.3C328.71 148.17 328.64 148.28 330.75 149.11C332.15 149.66 333 150.85 333.01 152.25C333.02 154.42 332.81 154.47 327.26 153.71C324.09 153.27 318.8 152.64 315.5 152.31C311.3 151.89 307.4 152.24 302.5 153.49C297.03 154.88 295.01 155.02 293.25 154.14C291.92 153.47 291 152.08 290.99 150.75C290.99 149.51 292.29 146.92 293.89 145C295.49 143.07 297.07 140.26 297.4 138.75L298 136C285.21 136.01 277.22 135.38 272 134.6C266.77 133.82 259.57 132.42 256 131.49C252.42 130.57 248.6 129.33 247.5 128.74C246.4 128.15 241.9 127.35 237.5 126.96C233.1 126.57 228.49 125.97 227.25 125.63C226.01 125.28 224.77 124.21 224.5 123.25C224.22 122.29 224.56 120.87 225.25 120.1C225.94 119.32 227.96 118.08 229.75 117.35C231.54 116.61 234.46 116 236.25 116C238.04 116 241.07 116.88 243 117.95C244.92 119.02 248.52 120.87 251 122.06C254.33 123.67 256.54 124.07 259.5 123.63C261.7 123.31 264.62 122.21 266 121.2C267.37 120.19 272.32 117.53 277 115.3C281.67 113.06 285.84 110.5 286.25 109.62C286.72 108.6 286.35 107.32 285.25 106.18C284.29 105.18 280.8 103.57 277.5 102.6C274.2 101.64 270.6 100.28 269.5 99.59C268.4 98.89 265.36 97.8 262.75 97.16C260.14 96.52 251.36 96.03 243.25 96.07C230.74 96.13 227.21 96.51 220 98.58Z" />
		<path id="Path 3" class="shp1" d="M207.5 103.53C205.3 104.28 201.59 105.37 199.25 105.95C196.07 106.73 195.07 107.44 195.27 108.75C195.44 109.84 196.48 110.54 198.02 110.61C199.38 110.67 201.74 110.78 203.25 110.86C205.22 110.96 205.86 111.43 205.5 112.5C205.22 113.32 205.9 114.9 207 116L209 118C214.56 112.96 216.81 110.26 217.59 108.75C218.6 106.78 218.72 105.43 218 104C217.34 102.69 216.05 102.03 214.25 102.08C212.74 102.12 209.7 102.77 207.5 103.53Z" />
		<path id="Path 4" class="shp3" d="M256.97 114.75C255.45 115.92 254.91 117.08 255.34 118.25C255.82 119.52 257.11 120 260 120C262.2 120 264.9 119.55 266 119C267.1 118.45 268 117.1 268 116C268 114.9 267.32 113.77 266.5 113.5C265.67 113.22 263.71 113 262.12 113C260.54 113 258.22 113.79 256.97 114.75ZM199.5 118.4C197.61 120.35 196.16 122.91 196.1 124.4C196.04 125.83 196.56 127.18 197.25 127.4C197.94 127.62 201.2 126.39 204.49 124.65C207.79 122.92 210.61 120.82 210.76 120C210.91 119.17 209.67 117.71 208.01 116.75C206.36 115.79 204.5 115 203.9 115C203.29 115 201.31 116.53 199.5 118.4Z" />
		<path id="Path 5" class="shp1" d="M149.1 119.92C144.99 122.12 142.57 124.44 138.94 129.65C136.31 133.42 133.63 138.3 132.98 140.5C132.33 142.7 131.17 145.74 130.4 147.25C129.63 148.76 129 150.67 129 151.5C129 152.33 129.89 153 131 153C132.1 153 133 152.55 133 152C133 151.45 134.59 149.09 136.54 146.75C138.49 144.41 140.89 141.6 141.88 140.5C142.87 139.4 145.67 137.87 148.09 137.11C150.52 136.34 153.85 134.92 155.5 133.95C157.15 132.98 159.29 131.02 160.25 129.59C161.21 128.17 162.01 125.31 162.02 123.25C162.03 121.19 161.46 118.93 160.77 118.23C160.07 117.54 158.37 116.98 157 117C155.62 117.03 152.07 118.34 149.1 119.92ZM310.11 123.88C308.79 124.27 307.55 125.36 307.36 126.29C307.06 127.72 307.7 127.96 311.25 127.75C314.74 127.54 315.5 127.14 315.5 125.51C315.5 124.42 314.82 123.45 314 123.35C313.17 123.26 311.42 123.49 310.11 123.88Z" />
		<path id="Path 6" class="shp3" d="M287.05 125.66C286.25 125.94 285.69 127.03 285.8 128.08C285.98 129.77 286.57 129.93 290.75 129.42C293.36 129.1 295.89 128.53 296.36 128.17C296.83 127.8 296.94 126.94 296.61 126.25C296.27 125.56 294.33 125.04 292.25 125.08C290.19 125.12 287.85 125.38 287.05 125.66Z" />
		<path id="Path 7" class="shp1" d="M186 134.56C182.42 135.34 178.15 136.51 176.5 137.18C174.85 137.84 171.02 139.95 168 141.87C164.97 143.78 160.74 146.51 158.59 147.92C156.45 149.34 153.54 152.3 152.14 154.5C150.24 157.47 149.6 159.79 149.64 163.5C149.67 166.25 150.22 170.19 150.85 172.25C151.48 174.31 152.79 176.24 153.75 176.53C154.71 176.81 156.17 176.82 157 176.55C157.82 176.27 159.06 174.91 159.75 173.52C160.44 172.14 161 170.32 161 169.5C161 168.67 161.84 166.31 162.88 164.25C163.91 162.19 166.05 158.98 167.63 157.11C169.21 155.25 172.19 152.89 174.25 151.86C176.31 150.84 180.81 149.54 184.25 148.98C187.96 148.38 191.72 147.03 193.5 145.66C195.15 144.4 197.62 141.64 199 139.54C201.48 135.76 201.48 135.71 199.5 134.35C198.4 133.59 196.37 133.01 195 133.06C193.62 133.12 189.57 133.79 186 134.56ZM341.2 134.25C340.64 134.94 339.86 137.07 339.48 139C339.07 141.04 339.24 143.44 339.89 144.75C340.59 146.16 341.91 147 343.43 147C344.76 147 346.56 146.32 347.43 145.5C348.29 144.67 349.01 142.54 349.02 140.75C349.03 138.88 348.19 136.55 347.02 135.25C345.91 134.01 344.38 133 343.61 133C342.85 133 341.76 133.56 341.2 134.25ZM227.34 135.75C227 136.71 227.29 139.3 227.98 141.5C228.67 143.7 229.41 146.06 229.62 146.75C229.85 147.49 231.32 147.89 233.25 147.73C235.04 147.59 237.74 146.69 239.25 145.73C241.17 144.52 242 143.17 241.98 141.25C241.98 139.74 241.64 138 241.23 137.4C240.83 136.79 239.49 135.78 238.25 135.15C237.01 134.52 234.19 134 231.98 134C229.04 134 227.78 134.47 227.34 135.75ZM118.24 136.7C117.09 137.69 113.64 142.21 110.57 146.75C107.51 151.29 105.22 155.45 105.5 156C105.77 156.55 107.01 157 108.25 157C109.49 156.99 111.96 156.09 113.75 155C115.54 153.9 118.82 150.19 121.05 146.75C123.64 142.76 124.99 139.6 124.8 138C124.6 136.36 123.79 135.4 122.42 135.2C121.28 135.04 119.4 135.71 118.24 136.7Z" />
		<path id="Path 8" class="shp3" d="M149.47 140.92C147.8 141.97 145.68 143.88 144.76 145.16C143.57 146.83 143.36 148 144.04 149.25C144.57 150.21 145.67 151 146.5 151C147.32 151 150.1 149.09 152.67 146.75C156.06 143.66 157.15 142.02 156.67 140.75C156.3 139.79 155.21 139 154.25 139C153.29 139.01 151.14 139.87 149.47 140.92ZM328.02 141.58C326.79 143.06 325.84 144.88 325.9 145.63C325.95 146.39 326.79 147.22 327.75 147.48C328.71 147.75 330.85 147.61 332.5 147.16C335.09 146.47 335.5 145.89 335.5 142.93C335.5 139.97 335.14 139.46 332.88 139.19C331.01 138.98 329.6 139.67 328.02 141.58ZM220.5 152.14C219.4 152.76 217.25 154.44 215.73 155.88C213.99 157.53 212.97 159.52 212.98 161.25C212.99 162.79 213.66 164.22 214.5 164.5C215.32 164.77 218.14 163.99 220.75 162.75C223.38 161.5 226.16 159.28 227 157.76C228.13 155.68 228.23 154.59 227.4 153.26C226.79 152.29 225.44 151.39 224.4 151.26C223.35 151.13 221.6 151.53 220.5 152.14ZM265.75 157.47C263.41 159.05 262.11 160.66 262.29 161.75C262.51 163.14 263.39 163.44 266.54 163.19C268.72 163.01 271.51 162.23 272.75 161.44C274.18 160.53 274.91 159.18 274.75 157.75C274.58 156.18 273.75 155.42 272 155.22C270.59 155.06 267.87 156.04 265.75 157.47Z" />
		<path id="Path 9" class="shp1" d="M343.47 158.43C342.17 159.38 341.84 160.19 342.5 160.83C343.05 161.37 347.44 163.42 352.25 165.4C357.06 167.38 362.35 169 364 169C365.65 169 367.22 168.55 367.5 168C367.77 167.45 367.79 166.44 367.54 165.75C367.28 165.06 365.82 163.94 364.29 163.26C362.75 162.57 359.92 160.88 358 159.49C355.47 157.67 353.24 156.97 349.97 156.98C347.49 156.99 344.56 157.64 343.47 158.43Z" />
		<path id="Path 10" class="shp3" d="M364.23 158.54C363.83 159.38 364.04 160.62 364.71 161.29C365.66 162.24 366.25 162.23 367.46 161.25C368.31 160.56 368.77 159.32 368.5 158.5C368.22 157.67 367.31 157 366.48 157C365.64 157 364.62 157.69 364.23 158.54ZM180.41 159.46C178.71 160.22 176.6 161.89 175.73 163.17C174.85 164.45 173.88 166.74 173.57 168.25C173.26 169.76 173.45 171.22 174 171.5C174.55 171.77 177.7 170.65 181 169C184.36 167.32 187.55 164.92 188.25 163.55C189.29 161.52 189.24 160.83 188 159.51C187.17 158.63 185.82 157.95 185 157.99C184.17 158.04 182.11 158.7 180.41 159.46Z" />
		<path id="Path 11" class="shp1" d="M313.5 162.75C312.4 163.03 309.79 164.45 307.71 165.88C305.62 167.32 303.94 169.06 303.96 169.75C303.98 170.44 304.56 171.29 305.25 171.64C305.94 171.99 308.3 171.73 310.5 171.07C312.7 170.4 315.58 169.55 316.9 169.18C318.21 168.81 319.79 167.69 320.4 166.69C321.28 165.24 321.1 164.59 319.5 163.42C318.4 162.62 317.05 162.03 316.5 162.1C315.95 162.17 314.6 162.47 313.5 162.75ZM129.02 168.86C125.52 170.98 121.83 174.02 120.82 175.61C119.81 177.2 118.49 181.65 117.89 185.5C117.28 189.36 117.1 194.97 117.49 198C117.88 201.02 118.71 204.08 119.35 204.79C119.98 205.51 121.29 206.07 122.25 206.04C123.27 206.02 124.62 204.55 125.5 202.5C126.32 200.57 126.99 197.54 126.98 195.75C126.97 193.96 127.66 190.47 128.52 188C129.38 185.52 131.82 181.7 133.93 179.5C136.05 177.3 138.51 174.04 139.39 172.25C140.28 170.46 140.77 168.1 140.5 167C140.18 165.72 139.17 165 137.69 165C136.43 165 132.52 166.74 129.02 168.86ZM324.49 169.79C322.34 171.88 320.67 174.02 320.78 174.54C320.89 175.07 322.44 176.34 324.24 177.37C326.41 178.61 328.34 179 330 178.54C331.37 178.16 333.3 177.09 334.28 176.17C335.26 175.25 336.06 173.15 336.05 171.5C336.04 169.85 335.46 167.93 334.77 167.23C334.07 166.54 332.35 165.97 330.95 165.98C329.37 165.99 326.92 167.44 324.49 169.79ZM267.47 168.83C266.46 169.83 265.71 171.75 265.81 173.08C265.9 174.41 267.14 177.3 268.56 179.5C269.98 181.7 272.92 184.85 275.09 186.5C277.26 188.15 279.03 190.29 279.02 191.25C279.01 192.21 276.86 195.3 274.25 198.11C271.64 200.92 267.7 204.14 265.5 205.26C263.3 206.37 259.96 208.46 258.08 209.89C256.06 211.43 253.39 212.49 251.58 212.47C249.74 212.45 246.93 211.23 244.62 209.47C242.49 207.83 240.13 205.26 239.37 203.75C238.62 202.24 237.99 199.54 237.98 197.75C237.96 195.96 238.64 192.81 239.48 190.75C240.31 188.69 241 185.2 241 183C241 179.91 240.37 178.42 238.25 176.48C236.56 174.94 233.76 173.72 231 173.34C228.52 173 222.67 172.98 218 173.3C213.32 173.63 202.97 174.83 195 175.98C187.02 177.13 177.8 178.75 174.5 179.58C171.2 180.41 166.02 181.82 163 182.71C159.39 183.78 156 185.74 153.13 188.42C150.54 190.83 147.17 195.67 144.88 200.25C141.84 206.31 140.68 210.23 139.52 218.25C138.7 223.89 138.03 231.76 138.02 235.75C138 242.01 138.48 243.99 141.5 250.25C144.36 256.16 145 258.65 145 263.75C145 267.19 144.28 273.04 143.39 276.75C142.36 281.08 140.93 284.31 139.39 285.75C137.64 287.4 135.79 288 132.5 288C128.43 288 127.84 287.69 126.34 284.75C125.11 282.34 124.74 279.3 124.9 273C125.03 268.32 125.21 262.7 125.31 260.5C125.47 257.1 125.2 256.5 123.5 256.5C121.97 256.5 120.4 258.73 116.8 266C112.9 273.89 112.1 276.48 112.05 281.25C112.01 285.92 112.78 288.73 116.17 296.25C118.46 301.34 120.55 307.52 120.8 310C121.09 312.81 120.59 316.56 119.46 320C118.47 323.02 116.38 327.86 114.83 330.75C113.27 333.64 112 337.35 112 339C112 340.73 113.06 343.27 114.5 345C116.2 347.04 118.2 348.17 120.75 348.52C122.81 348.8 128.55 348.37 133.5 347.56C138.45 346.75 149.25 344.7 157.5 343.01C165.75 341.31 177.34 339.27 183.25 338.46C189.16 337.66 195.57 336.32 197.5 335.5C199.42 334.67 202.38 332.09 204.06 329.75C206.18 326.79 207.02 324.59 206.81 322.51C206.59 320.43 205.89 319.42 204.5 319.19C203.4 319.01 197.55 321.14 191.5 323.92C185.45 326.69 179.49 328.98 178.25 328.98C177.01 328.99 174.72 327.76 173.15 326.25C171.28 324.45 169.9 321.69 169.15 318.25C168.52 315.36 168 311.42 168 309.5C168 307.57 168.61 304.76 169.36 303.25C170.11 301.74 172.47 299.07 174.61 297.33C176.75 295.58 180.3 293.4 182.5 292.48C185.16 291.36 188.68 290.88 193 291.04C196.57 291.18 200.29 291.22 201.25 291.14C202.21 291.06 204.69 289.48 206.75 287.63C208.81 285.78 212.3 283.36 214.5 282.26C216.7 281.15 222.44 279.07 227.25 277.62C232.06 276.18 237.64 273.99 239.64 272.75C241.64 271.51 243.89 269.26 244.64 267.75C245.39 266.24 246.67 262.19 247.49 258.75C248.3 255.31 248.97 250.02 248.98 247C248.98 243.97 249.49 237.67 250.11 233C250.73 228.32 251.63 223.71 252.12 222.75C252.6 221.79 254.91 220.04 257.25 218.86C259.59 217.68 264.65 215.85 268.5 214.79C272.35 213.72 276.96 211.99 278.75 210.93C280.82 209.7 282.89 207.09 284.46 203.75C285.81 200.86 287.84 195.01 288.96 190.75C290.08 186.49 291 181.42 291 179.5C291 177.57 290.32 174.42 289.5 172.5C288.67 170.57 287.1 168.55 286 168C284.9 167.45 280.69 167 276.65 167C270.86 167 268.91 167.39 267.47 168.83ZM399.73 168.69C399.45 169.14 399.06 172.61 398.86 176.41C398.6 181.33 398.86 183.41 399.75 183.66C400.44 183.85 401.4 183.21 401.89 182.25C402.38 181.29 402.94 177.81 403.14 174.52C403.44 169.61 403.21 168.49 401.87 168.22C400.97 168.04 400.01 168.25 399.73 168.69Z" />
		<path id="Path 12" class="shp3" d="M388.74 173.2C388.43 173.91 388.47 175.1 388.84 175.82C389.2 176.55 390.4 176.99 391.5 176.81C392.72 176.6 393.5 175.69 393.5 174.49C393.5 173.23 392.73 172.39 391.4 172.2C390.25 172.03 389.05 172.48 388.74 173.2ZM313.26 178.77C310.93 180.82 309.01 183.17 308.99 184C308.97 184.99 310.42 185.76 313.23 186.26C316.39 186.82 318.09 186.63 319.75 185.51C320.99 184.68 322.22 183.44 322.5 182.75C322.77 182.06 322.62 180.15 322.18 178.5C321.67 176.63 320.64 175.41 319.43 175.27C318.37 175.14 315.59 176.72 313.26 178.77Z" />
		<path id="Path 13" class="shp1" d="M98.75 182.5C96.35 184.1 94.1 186.89 92.51 190.25C91.14 193.14 89.52 198.2 88.91 201.5C88.3 204.8 88.07 209.41 88.4 211.75C88.73 214.09 89.9 217.8 91 220C92.1 222.2 93.45 224 94 224C94.55 224 95.74 223.66 96.64 223.25C97.54 222.84 98.89 221.26 99.64 219.75C100.39 218.22 101 213.88 101 210C101 203.83 101.48 202.05 105 195C107.2 190.6 109.01 185.99 109.02 184.75C109.03 183.51 108.46 181.93 107.77 181.23C107.07 180.54 105.6 179.97 104.5 179.98C103.4 179.98 100.81 181.12 98.75 182.5ZM79.42 188.66C76.75 191.94 75.67 194.18 75.8 196.16C75.92 197.86 76.8 199.4 78 200C79.1 200.55 80.45 201 81 201C81.55 201 82.89 199.54 83.97 197.75C85.05 195.96 86.29 192.8 86.72 190.72C87.3 187.89 87.12 186.55 86 185.42C85.17 184.59 84.22 183.93 83.87 183.96C83.52 183.98 81.52 186.1 79.42 188.66ZM346.5 186.19C344.3 187.35 340.92 189.44 339 190.84C337.07 192.23 333.77 194.98 331.67 196.94C329.56 198.9 326.97 202.19 325.92 204.25C324.86 206.31 324 208.9 324 210C324 211.23 324.67 212.01 325.75 212.01C326.82 212.02 327.96 210.76 328.69 208.76C329.35 206.97 332.16 203.36 334.94 200.75C337.72 198.14 341.91 195.11 344.25 194.02C346.59 192.93 349.85 192.05 351.5 192.06C353.15 192.08 355.57 191.28 356.87 190.29C358.6 188.98 359.07 187.9 358.62 186.25C358.11 184.41 357.31 184.01 354.25 184.04C352.19 184.07 348.7 185.03 346.5 186.19Z" />
		<path id="Path 14" class="shp3" d="M136.04 187.75C134.49 189.26 132.95 191.74 132.61 193.25C132.26 194.86 132.52 196.64 133.25 197.54C133.94 198.39 135.06 199.07 135.75 199.04C136.44 199.02 137.72 197.31 138.6 195.25C139.47 193.19 141.05 190.49 142.1 189.25C143.14 188.01 143.77 186.55 143.5 186C143.22 185.45 142.07 185 140.92 185C139.78 185 137.58 186.24 136.04 187.75Z" />
		<path id="Path 15" class="shp2" d="M203.25 189.02C200.91 190.11 197.38 192.69 195.41 194.75C193.43 196.81 190.97 200.3 189.93 202.5C188.89 204.7 188.03 208.64 188.02 211.25C188 215.11 188.42 216.26 190.25 217.38C191.49 218.14 194.3 219.04 196.5 219.39C199.7 219.89 201.69 219.43 206.5 217.09C209.8 215.49 213.96 212.56 215.75 210.59C218.77 207.26 219 206.49 219 200C219 194 218.64 192.57 216.5 190C214.65 187.78 213.15 187.01 210.75 187.02C208.96 187.03 205.59 187.93 203.25 189.02Z" />
		<path id="Path 16" class="shp3" d="M257.02 193.75C255.38 196.36 254.03 199.06 254.02 199.75C254.01 200.44 254.79 201.42 255.75 201.94C256.71 202.46 258.62 202.62 260 202.3C261.37 201.98 263.34 200.99 264.36 200.11C265.39 199.22 266.63 197.49 267.11 196.25C267.65 194.88 267.61 193.02 267 191.5C266.24 189.61 265.27 189 263 189C260.51 189 259.5 189.8 257.02 193.75Z" />
		<path id="Path 17" class="shp1" d="M355.31 197.44C353.13 199.33 352.73 200.25 353.5 201.51C354.05 202.4 355.7 203.89 357.17 204.82C359.55 206.32 360.02 206.34 361.46 205C362.36 204.17 363.07 202.04 363.04 200.25C363.01 198.03 362.37 196.68 361 196C359.9 195.45 358.8 195 358.56 195C358.32 195 356.86 196.1 355.31 197.44Z" />
		<path id="Path 18" class="shp3" d="M419.13 197.75C418.48 198.95 418.62 200.37 419.59 202.25C420.44 203.91 421.69 204.9 422.75 204.74C423.89 204.57 424.6 203.44 424.77 201.49C424.93 199.85 424.48 197.92 423.77 197.21C423.07 196.49 421.96 195.93 421.29 195.96C420.63 195.98 419.65 196.79 419.13 197.75Z" />
		<path id="Path 19" class="shp1" d="M430.5 200.75C431.16 205.16 431.01 205.64 428.45 207.5C426.83 208.68 425.91 210.12 426.21 211C426.5 211.88 428.65 212.81 431.36 213.25C433.91 213.66 436.5 213.66 437.12 213.25C437.83 212.77 437.98 211.23 437.52 209C437.12 207.07 435.72 203.36 434.4 200.75C433.08 198.14 431.5 196 430.89 196C430.14 196 430.01 197.51 430.5 200.75ZM390 199.2C389.23 199.86 388.69 201.66 388.8 203.2C388.91 204.74 389.79 206.71 390.75 207.58C391.71 208.46 393.38 209.02 394.47 208.83C395.55 208.65 397.12 207.32 397.97 205.87C399.36 203.47 399.34 203 397.75 200.62C396.71 199.06 395.07 198 393.7 198C392.43 198 390.77 198.54 390 199.2Z" />
		<path id="Path 20" class="shp3" d="M109.84 200.92C109.04 201.98 107.96 204.69 107.44 206.94C106.58 210.68 106.67 211.03 108.5 211C109.67 210.99 111.43 209.53 112.75 207.49C113.99 205.57 115 202.87 115 201.5C115 199.73 114.46 199 113.15 199C112.13 199 110.64 199.87 109.84 200.92ZM206.3 200.2C205.73 200.91 204.06 203.75 202.58 206.5C200.15 211.01 200.04 211.65 201.43 213C202.81 214.33 203.5 214.28 207.64 212.5C210.2 211.4 213.24 209.26 214.4 207.75L216.5 205C213.25 200.74 211.18 199.36 209.82 199.2C208.45 199.03 206.87 199.48 206.3 200.2Z" />
		<path id="Path 21" class="shp2" d="M165 202.3C163.07 203.6 159.56 207.55 157.19 211.08C153.13 217.12 152.9 217.86 153.19 223.5L153.5 229.5C161.14 230.02 161.88 229.62 165.82 225.27C168.2 222.65 171.06 218.7 172.19 216.5C173.5 213.93 174.28 210.35 174.37 206.5C174.5 200.53 174.49 200.5 171.5 200.22C169.63 200.04 167.19 200.82 165 202.3Z" />
		<path id="Path 22" class="shp4" d="M490.5 200.74C493.25 200.94 497.97 200.94 501 200.74C504.02 200.54 501.77 200.37 496 200.37C490.22 200.37 487.75 200.54 490.5 200.74Z" />
		<path id="Path 23" class="shp3" d="M341.39 207.67C338.92 210.33 337.03 213.16 337.2 213.96C337.36 214.76 339.07 215.7 341 216.05C343.68 216.54 345.2 216.19 347.5 214.55C349.15 213.37 350.95 211.18 351.5 209.67C352.19 207.77 352.16 206.39 351.4 205.21C350.79 204.27 349.3 203.35 348.09 203.17C346.5 202.93 344.62 204.19 341.39 207.67ZM166.99 206.8C165.85 206.97 163.8 208.33 162.43 209.81C161.05 211.29 159.27 214.41 158.46 216.75C157.66 219.09 157.22 221.67 157.5 222.5C157.77 223.32 159.01 224.26 160.25 224.57C161.87 224.99 163.31 224.35 165.38 222.32C166.96 220.77 169.29 217.25 170.55 214.5C171.81 211.75 172.54 208.92 172.17 208.21C171.8 207.5 170.95 206.82 170.28 206.7C169.6 206.58 168.12 206.62 166.99 206.8Z" />
		<path id="Path 24" class="shp1" d="M294.35 220.75C293.45 222.81 291.21 227.76 289.36 231.75C287.07 236.7 283.94 241.14 279.5 245.75C275.92 249.46 273 252.84 273 253.25C273 253.66 273.45 254.22 274 254.5C274.55 254.77 276.69 254.28 278.75 253.4C280.81 252.52 284.52 250.83 286.99 249.65C289.46 248.47 293.43 245.47 295.81 243C298.19 240.52 301.06 236.7 302.19 234.5C303.31 232.3 304.28 228.7 304.32 226.5C304.37 224.3 303.64 221.26 302.71 219.75C301.58 217.93 300.15 217 298.49 217C296.54 217 295.61 217.84 294.35 220.75ZM114.9 219.87C113.58 220.9 111.69 223.94 110.69 226.62C109.29 230.39 108.95 233.72 109.19 241.22C109.44 248.98 109.86 251.29 111.31 252.72C113.04 254.43 113.25 254.35 116.56 250.75C119.82 247.2 119.99 246.64 119.86 240.25C119.78 236.48 120.44 231.07 121.35 228C122.8 223.1 122.82 222.25 121.49 220.25C120.67 219.01 119.39 218 118.65 218C117.91 218 116.22 218.84 114.9 219.87ZM394.83 220.03C393.78 220.69 393.75 221.37 394.66 223.19C395.3 224.46 396.08 226.29 396.41 227.25C396.73 228.21 397.67 229 398.5 229C399.32 229 400.22 228.32 400.5 227.5C400.77 226.67 400.57 224.76 400.04 223.25C399.51 221.74 398.42 220.2 397.62 219.84C396.82 219.48 395.57 219.56 394.83 220.03Z" />
		<path id="Path 25" class="shp3" d="M383.36 223.76C382.32 224.73 381.03 227.4 380.49 229.7C379.53 233.76 379.57 233.89 382.25 234.44C384.03 234.8 385.85 234.38 387.42 233.25C388.74 232.29 390.48 230.37 391.28 229C392.08 227.62 392.5 225.82 392.22 225C391.93 224.17 391.21 223.17 390.6 222.77C390 222.36 388.54 222.02 387.37 222.02C386.2 222.01 384.4 222.79 383.36 223.76ZM127.63 231.45C126.73 232.3 125.55 234.57 125 236.5C124.33 238.83 124.33 240.67 125 242C125.55 243.1 126.45 244 127 244C127.55 244 129.12 242.2 130.5 240C131.93 237.72 132.89 234.82 132.75 233.26C132.6 231.67 131.82 230.39 130.88 230.21C129.99 230.04 128.53 230.6 127.63 231.45Z" />
		<path id="Path 26" class="shp2" d="M217.25 231.09C215.46 231.59 212.16 233.24 209.91 234.75C207.66 236.26 205.19 238.51 204.41 239.75C203.64 240.99 202.54 245.49 201.97 249.75C201.1 256.26 201.18 257.86 202.47 259.75C203.31 260.99 205.01 262.68 206.25 263.52C207.49 264.35 210.3 265.32 212.5 265.66C215.59 266.15 217.62 265.75 221.43 263.9C224.15 262.58 227.83 259.7 229.62 257.5C231.41 255.3 233.54 251.02 234.35 248C235.33 244.37 235.56 241.31 235.03 239C234.59 237.07 233.84 234.65 233.37 233.61C232.89 232.57 231.71 231.34 230.75 230.86C229.79 230.39 227.09 230.04 224.75 230.09C222.41 230.14 219.04 230.59 217.25 231.09Z" />
		<path id="Path 27" class="shp3" d="M273.17 233.89C271.7 235.48 269.94 237.5 269.25 238.39C268.56 239.27 268.13 240.79 268.28 241.75C268.49 243.04 269.49 243.49 272.03 243.46C273.94 243.43 276.74 242.65 278.25 241.71C279.76 240.77 281.56 238.88 282.25 237.52C283.33 235.38 283.23 234.77 281.5 232.99C280.4 231.86 278.68 230.95 277.67 230.97C276.67 230.99 274.64 232.3 273.17 233.89Z" />
		<path id="Path 28" class="shp1" d="M436.51 232.78C435.48 233.81 434.72 234.96 434.82 235.33C434.92 235.7 436.12 237.35 437.5 239C438.87 240.65 440.45 243.8 441 246C441.75 249 442.5 250 444 250C445.82 250 445.97 249.43 445.7 243.75C445.53 240.31 444.74 236.15 443.94 234.5C443.14 232.85 441.56 231.37 440.43 231.21C439.31 231.04 437.54 231.75 436.51 232.78ZM411.01 239C409.19 242.64 406.33 246.34 403.75 248.4C401.41 250.26 397.7 252.29 395.5 252.89C393.3 253.49 389.92 253.98 388 253.97C385.13 253.95 383.7 253.09 380.06 249.22C377.62 246.63 374.81 242.59 373.81 240.25C372.82 237.91 371.32 236 370.5 236C369.53 236 368.99 236.98 368.98 238.75C368.98 240.26 370.77 244.54 372.98 248.25C375.48 252.45 377 256.23 376.99 258.25C376.98 260.04 375.92 263.75 374.63 266.5C373.34 269.25 371.96 273.3 371.55 275.5C371 278.53 371.2 279.92 372.41 281.25C373.28 282.21 374.67 283 375.5 283C376.32 283 379.7 280.52 383 277.5C386.7 274.11 390.25 271.77 392.25 271.4C394.04 271.07 396.85 271.08 398.5 271.42C400.15 271.76 402.96 272.93 404.75 274.02C406.64 275.17 409.05 278.09 410.5 281C412.36 284.71 413.71 286.16 415.75 286.6C417.79 287.05 419.02 286.65 420.5 285.07C421.97 283.51 422.5 281.57 422.5 277.72C422.5 273.23 421.97 271.8 418.72 267.5C415.5 263.25 414.94 261.75 414.96 257.5C414.97 254.75 415.68 248.67 416.54 244C417.4 239.32 417.85 234.94 417.55 234.25C417.25 233.56 416.33 233 415.51 233C414.69 233 412.67 235.7 411.01 239ZM71.17 239.34C70.04 240.01 68.34 241.9 67.4 243.53C66.47 245.16 65.66 247.83 65.6 249.45C65.51 252.16 65.85 252.46 70 253.29C74.15 254.12 74.68 253.98 76.75 251.59C77.99 250.17 79 247.87 79 246.5C79 245.12 78.55 243.1 78 242C77.45 240.9 76.15 239.58 75.12 239.06C73.87 238.44 72.55 238.54 71.17 239.34Z" />
		<path id="Path 29" class="shp2" d="M172 243.59C170.07 244.43 167.22 246.32 165.66 247.81C164.1 249.29 162.19 251.74 161.41 253.25C160.63 254.76 160 258.02 160 260.5C160 262.97 160.72 267.14 161.6 269.75C162.49 272.36 163.95 275.3 164.85 276.28C165.89 277.4 167.24 277.83 168.5 277.44C169.6 277.1 172.65 275.4 175.27 273.66C178.57 271.48 180.82 268.95 182.53 265.5C183.9 262.75 185.02 259.15 185.01 257.5C185 255.85 184.48 252.7 183.85 250.5C183.22 248.3 181.65 245.49 180.35 244.25C179.06 243.01 177.44 242.02 176.75 242.04C176.06 242.06 173.92 242.76 172 243.59Z" />
		<path id="Path 30" class="shp1" d="M85.38 249.84C83.11 252.4 80.42 256.07 79.39 258C78 260.58 77.51 263.61 77.51 269.54C77.5 275.52 77.95 278.28 79.25 280.29C80.51 282.25 81.84 283 84 283C85.84 283 88.23 281.94 90.17 280.25C91.91 278.74 93.93 276.04 94.67 274.25C95.4 272.46 96 269.42 96 267.5C96 265.57 95.47 262.76 94.82 261.25C94.17 259.74 93.38 255.58 93.07 252.01C92.65 247.28 92.09 245.47 91 245.35C90.17 245.25 87.65 247.27 85.38 249.84Z" />
		<path id="Path 31" class="shp3" d="M424.58 246.08C423.07 246.88 422.69 248.1 422.8 251.8C422.89 255.07 423.55 257.11 424.97 258.5C426.24 259.76 427.56 260.22 428.5 259.75C429.32 259.34 430.07 257.54 430.16 255.75C430.24 253.96 430.21 251.37 430.08 250C429.95 248.62 429.31 246.92 428.67 246.21C428.03 245.49 427.27 244.94 427 244.99C426.72 245.03 425.64 245.52 424.58 246.08ZM219.5 248.01C217.85 249.11 215.95 251.02 215.29 252.25C214.62 253.49 214.04 255.17 214 256C213.97 256.82 214.85 258.29 215.97 259.25C217.91 260.92 218.17 260.9 222.01 258.75C224.22 257.51 226.75 255.15 227.64 253.5C228.92 251.13 229.02 250.03 228.13 248.25C227.46 246.91 226.09 246 224.75 246.01C223.51 246.01 221.15 246.91 219.5 248.01Z" />
		<path id="Path 32" class="shp1" d="M352.75 255.03C351.32 255.82 351.11 256.86 351.6 260.75C352.03 264.1 351.73 266.46 350.6 268.75C349.72 270.54 347.87 272.67 346.5 273.5C345.12 274.32 344 275.9 344 277C344 278.47 344.67 279 346.5 279C348.14 279 350.67 277.36 353.83 274.25C356.49 271.64 359.46 267.92 360.43 266C361.43 264 361.94 261.54 361.6 260.25C361.27 259.01 360.1 257.1 359 256C357.9 254.9 356.44 254.01 355.75 254.03C355.06 254.05 353.71 254.5 352.75 255.03Z" />
		<path id="Path 33" class="shp3" d="M171.82 258.7C170.96 259.69 169.75 261.51 169.13 262.75C168.51 263.99 168.01 266.01 168.03 267.25C168.05 268.49 168.61 270.27 169.28 271.21C169.95 272.15 171.05 272.94 171.72 272.96C172.39 272.98 174.52 271.42 176.47 269.5C178.41 267.57 180.26 264.99 180.58 263.75C180.91 262.51 181.01 260.6 180.83 259.5C180.57 258.01 179.57 257.42 176.94 257.2C174.49 257 172.9 257.46 171.82 258.7ZM104.47 259.83C103.27 261.03 102.7 262.92 102.82 265.33C102.92 267.35 103.56 269.3 104.25 269.66C104.96 270.03 106.47 269.17 107.75 267.66C108.99 266.2 110.11 263.7 110.23 262.11C110.4 260.12 109.93 259.02 108.73 258.61C107.78 258.27 106.84 258 106.65 258C106.45 258 105.47 258.82 104.47 259.83ZM335.3 260.77C334.09 261.72 332.63 263.74 332.05 265.25C331.47 266.76 331 269.12 331 270.5C331 272.33 331.53 273 333 273C334.1 273 336.82 271.31 339.05 269.25C341.93 266.57 343.08 264.71 343.05 262.75C343.02 261.23 342.33 259.78 341.5 259.5C340.67 259.22 339.44 259.01 338.75 259.02C338.06 259.03 336.51 259.82 335.3 260.77ZM137.38 264.77C136.77 265.17 135.31 267.41 134.13 269.75C132.96 272.09 131.89 275.69 131.75 277.75C131.51 281.3 131.66 281.5 134.5 281.5C137.06 281.5 137.89 280.78 140.22 276.5C141.72 273.75 142.97 270.37 142.99 269C143.02 267.62 142.46 265.93 141.77 265.23C141.07 264.54 140.05 263.98 139.5 264C138.95 264.02 138 264.36 137.38 264.77Z" />
		<path id="Path 34" class="shp1" d="M305.45 270.22C304.55 271.44 303.85 272.91 303.9 273.47C303.95 274.04 303.56 276.07 303.03 278C302.47 280.01 299.71 283.95 296.53 287.25C293.49 290.41 291 293.9 291 295C291 296.73 291.67 297 296 297C298.75 297 302.24 296.39 303.75 295.63C305.26 294.88 307.74 292.86 309.25 291.13C310.76 289.41 312.53 286.09 313.19 283.75C314.12 280.42 314.1 278.52 313.11 275C312.42 272.52 311.33 269.92 310.68 269.21C310.03 268.49 308.96 267.93 308.3 267.96C307.64 267.98 306.36 269 305.45 270.22Z" />
		<path id="Path 35" class="shp3" d="M290.72 270.71C289.8 271.69 288.16 274.75 287.07 277.5C285.52 281.42 285.35 282.77 286.29 283.77C286.96 284.46 288.29 285.03 289.25 285.02C290.21 285.01 292.35 283.42 294 281.5C295.65 279.57 297.29 276.76 297.63 275.25C297.98 273.74 297.83 271.82 297.28 271C296.74 270.17 295.42 269.37 294.34 269.21C293.26 269.04 291.64 269.72 290.72 270.71Z" />
		<path id="Path 36" class="shp1" d="M456.59 275.25C455.41 277.09 455.3 279.42 456.03 288C456.51 293.77 456.93 298.84 456.96 299.25C456.98 299.66 457.79 300.01 458.75 300.02C459.91 300.04 460.76 298.95 461.26 296.77C461.68 294.97 462.02 289.56 462.01 284.75C462.01 279.94 461.77 275.32 461.5 274.5C461.22 273.67 460.33 273 459.52 273C458.71 273 457.39 274.01 456.59 275.25ZM477.42 285.61C476.49 286.52 475.89 288.74 475.93 291.07C475.98 293.87 476.43 295 477.5 295C478.32 295 480.01 296.2 481.25 297.66C482.78 299.46 484.06 300.1 485.25 299.66C486.21 299.3 487 298.1 487 297C487 295.9 485.94 292.86 484.65 290.25C483.35 287.64 481.55 285.18 480.64 284.79C479.66 284.37 478.35 284.71 477.42 285.61ZM56.57 290.19C55.46 291.79 55.04 294.33 55.19 298.5C55.34 302.74 55.94 305.01 57.2 306.25C58.45 307.47 59.53 307.73 60.75 307.13C61.71 306.65 63.55 303.84 64.84 300.88C66.97 295.98 67.05 295.19 65.8 292C64.69 289.17 63.83 288.44 61.3 288.19C58.94 287.96 57.77 288.45 56.57 290.19Z" />
		<path id="Path 37" class="shp3" d="M385.46 295.69C384.04 297.23 382.62 299.62 382.32 301C381.9 302.87 382.35 303.93 384.13 305.23C385.43 306.18 387.06 306.97 387.75 306.98C388.44 306.99 390.35 305.42 392 303.5C394.21 300.92 394.93 299.15 394.75 296.75C394.53 293.88 394.12 293.46 391.28 293.19C388.79 292.95 387.46 293.52 385.46 295.69ZM234.33 296.25C233.23 297.49 231.36 300.07 230.19 302C229.02 303.92 228.05 306.06 228.03 306.75C228.01 307.44 228.9 308.22 230 308.5C231.23 308.81 234.12 307.65 237.5 305.5C240.52 303.57 243.22 301.1 243.5 300C243.77 298.9 243.55 297.1 243 296C242.35 294.71 241 294 239.17 294C237.49 294 235.52 294.92 234.33 296.25Z" />
		<path id="Path 38" class="shp2" d="M137.5 300.38C135.85 301.09 133.87 302.99 133.1 304.59C132.32 306.19 131.46 311.32 131.17 316C130.74 322.86 130.96 325.03 132.32 327.25C133.24 328.76 136.02 330.9 138.5 332C142.47 333.76 143.32 333.84 145.75 332.63C147.26 331.88 149.74 329.86 151.25 328.13C152.76 326.41 154.29 323.76 154.64 322.25C154.99 320.74 155.04 317.47 154.75 315C154.46 312.52 153.27 308.59 152.11 306.25C150.95 303.91 148.99 301.32 147.75 300.49C146.51 299.66 144.37 299.01 143 299.03C141.62 299.06 139.15 299.66 137.5 300.38Z" />
		<path id="Path 39" class="shp1" d="M250.52 302C249.68 303.65 247.54 306.07 245.75 307.38C243.96 308.69 240.25 310.74 237.5 311.94C234.75 313.13 231.48 315.1 230.22 316.31C228.97 317.51 227.96 319.29 227.97 320.25C227.99 321.25 228.75 321.99 229.75 321.98C230.71 321.97 234.65 321.15 238.5 320.15C242.35 319.15 246.4 317.87 247.5 317.3C248.6 316.73 251.43 314.06 253.78 311.38C256.18 308.65 258.05 305.51 258.03 304.25C258.02 303.01 257.77 301.32 257.5 300.5C257.22 299.67 255.88 299 254.52 299C252.77 299 251.59 299.88 250.52 302ZM93.55 305.42C92.7 307.39 91.1 312.71 90 317.25C88.48 323.49 88.18 326.84 88.76 331C89.43 335.86 89.81 336.54 92.01 336.81C93.43 336.99 95.28 336.35 96.32 335.31C97.94 333.71 98.02 332.93 97.01 328.5C96.09 324.44 96.19 321.99 97.51 315.5C98.41 311.1 99 306.38 98.82 305.01C98.64 303.64 97.73 302.37 96.8 302.18C95.64 301.95 94.6 302.99 93.55 305.42Z" />
		<path id="Path 40" class="shp3" d="M417.45 305.22C416.55 306.44 415.83 308.13 415.87 308.97C415.91 309.81 415.27 311.4 414.45 312.5C413.63 313.6 412.97 315.29 412.98 316.25C412.99 317.21 414.01 318.51 415.25 319.13C417.03 320.03 418.13 319.92 420.5 318.63C422.15 317.73 424.29 315.65 425.25 314C426.21 312.35 427 310.32 427 309.5C427 308.67 426.32 306.87 425.5 305.5C424.55 303.92 423.1 303 421.55 303C420.18 303 418.37 303.98 417.45 305.22ZM344.02 311.04C341.99 313.27 340.25 316.08 340.15 317.29C339.98 319.33 340.26 319.44 343.73 318.77C345.8 318.36 348.62 317.19 350 316.17C351.37 315.14 352.63 313.22 352.78 311.9C352.94 310.58 352.49 308.92 351.78 308.21C351.08 307.49 349.87 306.93 349.1 306.96C348.33 306.98 346.04 308.82 344.02 311.04ZM184.47 311.08C182.41 313.43 181.79 315.14 181.86 318.33L181.95 322.5C187.03 321.28 189.52 319.93 190.77 318.71C192.01 317.5 193.48 315.26 194.02 313.75C194.72 311.77 194.65 310.57 193.75 309.46C193.06 308.61 191.3 307.93 189.83 307.96C188.14 307.98 186.18 309.13 184.47 311.08Z" />
		<path id="Path 41" class="shp1" d="M399.5 310.71C397.3 312.13 393.7 313.92 391.5 314.67C389.3 315.42 386.04 316.03 384.25 316.02C381.88 316.01 380.33 315.19 378.5 313C376.86 311.03 375.4 310.19 374.25 310.55C372.75 311.01 372.61 311.77 373.29 315.8C373.72 318.38 375.07 322.05 376.29 323.93C377.51 325.82 379.96 327.96 381.75 328.68C383.54 329.41 386.01 330 387.25 329.99C388.49 329.99 391.19 329.54 393.25 328.99C395.31 328.45 398.63 326.54 400.63 324.75C402.62 322.96 405.1 319.81 406.13 317.75C407.16 315.69 408 312.65 408 311C408 308.54 407.6 308.01 405.75 308.06C404.51 308.09 401.7 309.28 399.5 310.71ZM358.03 310.72C357.17 310.99 356.69 312.24 356.83 313.83C356.98 315.58 355.84 318.14 353.53 321.25C351.59 323.86 350.22 326.45 350.5 327C350.77 327.55 351.67 328 352.5 328C353.32 328 355.36 326.31 357.02 324.25C358.69 322.19 360.51 318.7 361.08 316.5C361.88 313.4 361.81 312.25 360.79 311.38C360.06 310.77 358.82 310.47 358.03 310.72ZM435.77 314.75C434.59 318.97 433.72 319.97 427.97 323.72C424.41 326.04 420.49 329.08 419.25 330.47C418.01 331.86 417.22 333.67 417.5 334.5C417.77 335.32 419.01 336 420.25 335.99C421.49 335.99 424.86 334.64 427.75 332.99C430.64 331.35 434.08 328.54 435.4 326.75C436.73 324.96 438.53 321.02 439.41 318C440.3 314.97 441.02 311.94 441.01 311.25C441 310.56 440.12 310 439.05 310C437.57 310 436.77 311.16 435.77 314.75ZM66.57 316.25C65.8 318.04 64.23 321.86 63.08 324.75C61.94 327.64 61 331.35 61 333C61 334.65 61.79 337.36 62.75 339.01C63.71 340.67 65.06 342.02 65.75 342.01C66.44 342.01 68.38 340.54 70.08 338.75C71.77 336.96 73.35 334.37 73.59 333C73.83 331.63 74.47 328.59 75.02 326.25C75.56 323.91 76 320.87 76 319.5C76 318.12 75.55 316.1 75 315C74.33 313.66 73 313 70.99 313C68.54 313 67.71 313.61 66.57 316.25Z" />
		<path id="Path 42" class="shp3" d="M107.1 317.63C105.44 320.25 104.07 323.43 104.04 324.7C104.02 325.96 104.22 327.67 104.5 328.5C104.78 329.34 106.21 330.01 107.75 330.03C110.05 330.05 110.88 329.27 112.82 325.28C114.26 322.3 115.02 319.18 114.82 317C114.57 314.28 114.01 313.43 112.31 313.18C110.63 312.94 109.42 313.97 107.1 317.63ZM141.03 315.7C139.22 317.98 138.91 319.33 139.36 323C139.66 325.47 140.27 327.85 140.7 328.29C141.14 328.72 142.82 328.72 144.43 328.29C146.5 327.73 147.77 326.47 148.76 324C149.53 322.07 150.01 318.92 149.83 317C149.54 313.9 149.15 313.47 146.37 313.2C143.94 312.96 142.76 313.51 141.03 315.7Z" />
		<path id="Path 43" class="shp1" d="M42 320.2C41.23 320.86 40.69 322.66 40.8 324.2C40.92 325.86 41.81 327.41 43 328C44.33 328.67 45.83 328.67 47.5 328C49.39 327.24 50 326.27 50 324C50 321.73 49.39 320.76 47.5 320C46.12 319.45 44.64 319 44.2 319C43.76 319 42.77 319.54 42 320.2Z" />
		<path id="Path 44" class="shp3" d="M84.09 322.45C83.47 323.25 82.86 326.05 82.73 328.67C82.54 332.54 82.83 333.48 84.25 333.71C85.21 333.87 86.39 333.21 86.86 332.25C87.34 331.29 87.9 328.36 88.11 325.75C88.43 321.86 88.21 321 86.86 321C85.96 321 84.72 321.65 84.09 322.45ZM290.9 327.35C289.67 328 287.28 330.47 285.58 332.84C283.08 336.34 282.75 337.37 283.82 338.32C284.54 338.97 286.34 339.58 287.82 339.67C289.29 339.77 291.51 339.43 292.75 338.92C293.99 338.41 295.67 336.42 296.5 334.5C297.46 332.27 297.69 330.37 297.14 329.25C296.66 328.29 295.57 327.2 294.71 326.84C293.84 326.47 292.13 326.7 290.9 327.35Z" />
		<path id="Path 45" class="shp1" d="M299.33 340.45C295.57 342.33 291.37 345.02 290 346.42C288.37 348.08 287.76 349.49 288.25 350.48C288.66 351.32 290.01 352.26 291.25 352.58C292.54 352.92 296.05 352.17 299.46 350.83C303.79 349.14 306.06 347.54 307.74 345C309.01 343.07 310.07 340.95 310.09 340.29C310.1 339.62 309.23 338.61 308.14 338.05C306.58 337.25 304.72 337.76 299.33 340.45ZM471.55 339C471.25 339.55 471.56 341.13 472.25 342.52C473.37 344.78 473.06 345.87 469.12 353.27C466.72 357.8 463.45 362.96 461.87 364.75C459.72 367.19 459.25 368.38 460 369.5C460.55 370.33 461.56 370.68 462.25 370.28C462.94 369.89 464.62 368.26 466 366.66C467.37 365.07 470.41 360.21 472.75 355.88C475.09 351.55 477 346.65 477 345C477 343.35 476.55 341.1 476 340C475.45 338.9 474.35 338 473.55 338C472.75 338 471.85 338.45 471.55 339Z" />
		<path id="Path 46" class="shp3" d="M241.9 341.86C240.58 342.88 238.6 345.58 237.5 347.87C236.16 350.66 235.83 352.38 236.5 353.07C237.17 353.77 238.8 353.78 241.5 353.12C243.94 352.53 246.18 351.14 247.25 349.57C248.21 348.16 249 346.1 249 345C249 343.9 248.32 342.32 247.5 341.5C246.67 340.67 245.62 340 245.15 340C244.69 340 243.22 340.84 241.9 341.86Z" />
		<path id="Path 47" fill-rule="evenodd" class="shp1" d="M95.4 341.99C98.3 341.99 101.47 342.64 102.75 343.49C104.08 344.38 105 346.02 105 347.5C105 349.13 103.94 350.78 101.93 352.25C100.25 353.49 97.43 357.42 95.68 360.98C92.93 366.59 92.5 368.51 92.5 375.32C92.5 382.51 92.71 383.34 95 385.13C96.87 386.59 99.02 387.07 103.5 387.04C107.14 387.01 110.86 386.31 112.97 385.25C115.63 383.91 116.68 382.57 117.47 379.5C118.04 377.3 118.84 374.93 119.25 374.25C119.66 373.56 121.01 372.98 122.25 372.96C123.49 372.93 125.17 373.68 126 374.61C126.82 375.55 129.75 377.37 132.5 378.65C136.03 380.3 139.26 380.97 143.5 380.95C148.21 380.93 150.69 380.28 155 377.96C158.02 376.33 161.17 375 162 374.99C162.82 374.99 164.51 375.66 165.75 376.49C167.49 377.66 168 378.96 168.01 382.25C168.01 384.59 167.34 387.51 166.51 388.75C165.68 389.99 163.2 391.9 161 393C158.31 394.34 153.47 395.3 146.25 395.92C140.19 396.45 133.57 397.65 131.07 398.67C128.6 399.69 125.18 402.26 123.34 404.5C121.52 406.7 119.57 410.3 119 412.5C118.44 414.7 117.51 419.87 116.94 424C116.37 428.12 115.03 433.41 113.95 435.75C112.88 438.09 110.99 440.65 109.75 441.45C108.51 442.25 103.45 443.83 98.5 444.97C93.55 446.1 86.8 448.23 83.5 449.7C78.68 451.85 75.34 452.5 66.5 453.02C57.55 453.54 54.75 454.09 51.5 455.99C48.51 457.73 46.49 458.2 43.5 457.84C41.3 457.59 37.92 456.21 36 454.78C34.03 453.33 31.29 449.74 29.75 446.6C27.54 442.11 27 439.61 27 434C27 427.89 27.46 426.14 30.58 420.25C32.55 416.54 36.94 410.54 40.33 406.93C44.06 402.96 48.08 397.24 50.5 392.46C54.45 384.64 54.51 384.39 55 371.02C55.3 363 56.01 356.58 56.75 355.25C57.44 354.01 59.35 352.32 61 351.5C62.65 350.67 65.8 350 68 350C70.2 350 72.22 350.45 72.5 351C72.77 351.55 72.57 354.14 72.05 356.75C71.52 359.36 69.51 363.75 67.57 366.5C65.63 369.25 64.04 372.62 64.03 374C64.03 375.37 64.36 377.55 64.76 378.82C65.17 380.1 66.4 381.39 67.5 381.69C68.6 381.98 71.07 381.69 73 381.03C74.92 380.38 77.4 378.65 78.5 377.2C79.6 375.75 81.08 373.42 81.78 372.03C82.51 370.59 83.05 366.07 83.04 361.5C83.02 357.1 83.46 351.81 84.01 349.75C84.55 347.69 86.19 345.1 87.65 344C89.49 342.61 91.87 342 95.4 341.99ZM45.29 343.19C48.12 343.46 48.5 343.86 48.5 346.5C48.5 349.14 48.15 349.5 45.61 349.5C44.02 349.5 42.26 348.82 41.71 348C41.15 347.17 41.01 345.68 41.39 344.69C41.9 343.35 42.93 342.95 45.29 343.19Z" />
		<path id="Path 48" class="shp3" d="M457.17 347.89C456.44 348.37 455.46 350.72 454.98 353.13C454.27 356.73 454.42 357.72 455.81 358.77C456.74 359.46 458.06 360.03 458.75 360.02C459.44 360.01 460.67 358.42 461.5 356.5C462.73 353.62 462.78 352.53 461.75 350.32C461.06 348.85 460.05 347.51 459.5 347.34C458.95 347.17 457.9 347.42 457.17 347.89Z" />
		<path id="Path 49" class="shp1" d="M254.19 352.29C251.61 354.64 248.63 357.22 247.56 358.03C246.5 358.84 243.35 360.22 240.56 361.1C236.73 362.31 235.44 363.22 235.25 364.85C235.09 366.24 235.79 367.39 237.25 368.12C238.61 368.79 241.28 368.96 244 368.55C246.47 368.17 250.49 366.88 252.92 365.68C255.36 364.48 258.39 362.26 259.67 360.75C261.36 358.75 261.99 356.8 261.95 353.61C261.92 350.65 261.41 349.02 260.4 348.62C259.46 348.25 257.11 349.64 254.19 352.29Z" />
		<path id="Path 50" class="shp3" d="M418.86 353.7C417.52 355.24 415.62 358.52 414.62 361C413.19 364.52 413.04 365.99 413.9 367.75C414.6 369.19 415.9 370 417.5 370C418.87 370 421.35 368.87 423 367.5C424.65 366.12 426.56 363.2 427.25 361C428.38 357.38 428.3 356.75 426.39 354.25C425.24 352.74 423.61 351.37 422.78 351.2C421.96 351.04 420.19 352.16 418.86 353.7ZM192.51 360.52C190.23 363 188.28 366.15 188.18 367.52C188.02 369.72 188.39 370 191.5 370C194.01 370 195.78 369.21 197.75 367.21C199.26 365.67 200.85 363.15 201.27 361.61C201.78 359.77 201.61 358.31 200.77 357.36C200.07 356.56 198.86 355.93 198.08 355.96C197.3 355.98 194.8 358.03 192.51 360.52ZM377.88 360.7C376.46 362.24 374.34 365.52 373.16 368C371.99 370.47 371.02 373.06 371.01 373.75C371.01 374.44 372.24 375.26 373.75 375.57C375.55 375.94 378.17 375.33 381.31 373.82C385.15 371.97 386.43 370.69 387.63 367.5C388.47 365.3 389 362.37 388.82 361C388.55 358.86 387.92 358.46 384.48 358.2C381.14 357.96 380.01 358.39 377.88 360.7ZM338.55 362.25C336.67 364.04 334.2 367.3 333.07 369.5C331.43 372.7 331.27 373.76 332.26 374.81C333.2 375.8 334.47 375.87 337.5 375.13C340 374.52 342.72 372.8 344.75 370.57C346.74 368.38 348.01 365.94 348.02 364.25C348.03 362.74 347.46 360.93 346.77 360.23C346.07 359.54 344.71 358.97 343.73 358.98C342.76 358.99 340.43 360.46 338.55 362.25ZM148.13 362.1C146.28 362.6 143.69 364.36 142.38 366.01C141.07 367.65 140 369.9 140 371C140 372.27 141.01 373.38 142.75 374.03C144.26 374.59 146.4 374.74 147.5 374.34C148.6 373.95 150.96 372.36 152.75 370.81C154.6 369.21 156.01 367.03 156.02 365.75C156.03 364.51 155.46 362.93 154.77 362.23C154.07 361.54 153.05 361.01 152.5 361.07C151.95 361.13 149.98 361.59 148.13 362.1ZM106.3 367.5C103.95 369.75 103.73 370.59 104.09 375.75C104.49 381.3 104.61 381.51 107.5 381.81C109.44 382.02 111.07 381.49 112.11 380.31C112.99 379.32 114.23 377.04 114.86 375.25C115.69 372.9 115.7 371.24 114.92 369.25C114.33 367.74 113.32 366.17 112.67 365.77C112.03 365.36 110.92 365.02 110.2 365.02C109.49 365.01 107.73 366.13 106.3 367.5ZM74.47 369.08C72.98 370.77 71.82 372.79 71.88 373.58C71.95 374.36 72.45 375.9 73 377C73.55 378.1 74.56 379.01 75.25 379.03C75.94 379.04 77.5 378.03 78.73 376.78C80.32 375.15 80.96 373.28 80.98 370.25C81 366.72 80.68 366 79.08 366C78.03 366 75.95 367.38 74.47 369.08Z" />
		<path id="Path 51" class="shp1" d="M32 374.75C30.83 376.26 29.64 378.62 29.35 380C29.06 381.37 28.19 384.86 27.41 387.75C26.64 390.64 26.22 393.9 26.5 395C26.77 396.1 27.79 397.2 28.75 397.46C29.71 397.71 32.07 397.58 34 397.17C37.17 396.49 37.62 395.96 38.79 391.46C39.51 388.73 40.07 384.14 40.04 381.25C40.02 378.36 39.55 375.1 39 374C38.45 372.9 37.13 372 36.07 372C35 372 33.17 373.24 32 374.75Z" />
		<path id="Path 52" class="shp3" d="M289.25 372.66C288.57 372.95 287.29 374.6 286.41 376.34C285.52 378.09 285.08 380.51 285.4 381.75C285.73 382.99 286.67 384 287.5 384C288.32 384 290.46 382.69 292.25 381.1C295.17 378.49 295.4 377.9 294.47 375.35C293.91 373.78 292.78 372.42 291.97 372.32C291.16 372.22 289.94 372.37 289.25 372.66Z" />
		<path id="Path 53" class="shp1" d="M199.45 374.99C198.93 375.54 196.06 376.33 193.07 376.74C190.08 377.16 187.16 377.99 186.56 378.59C185.97 379.19 185.61 381.33 185.75 383.34C185.94 386.18 186.51 387.14 188.25 387.6C189.49 387.94 192.97 387.43 196 386.47C199.02 385.52 202.12 384.23 202.88 383.62C203.64 383 204.67 381.37 205.16 380C205.65 378.62 205.82 376.71 205.53 375.75C205.22 374.74 204.02 374 202.7 374C201.43 374 199.97 374.45 199.45 374.99ZM329.43 377.25C329.06 377.94 329 379.4 329.3 380.5C329.59 381.6 331.45 383.29 333.42 384.25C335.39 385.21 338.12 386 339.5 386C341.33 386 342 385.47 342 384C342 382.5 341.08 381.81 338.33 381.25C336.14 380.8 334.13 379.6 333.33 378.25C332.6 377.01 331.57 376 331.05 376C330.53 376 329.8 376.56 329.43 377.25ZM416.61 378.26C415.27 379.21 415.06 380.14 415.69 382.28C416.19 384 417.54 385.42 419.25 386.03C420.76 386.56 423.24 386.74 424.75 386.42C426.26 386.11 428.29 385.21 429.25 384.42C430.21 383.64 430.87 382.21 430.71 381.25C430.49 379.89 429.59 379.56 426.71 379.75C424.67 379.89 421.95 379.33 420.68 378.51C418.79 377.3 418.02 377.25 416.61 378.26ZM375.53 380.3C374.45 381.08 373.97 382.55 374.18 384.48C374.42 386.7 375.22 387.73 377.31 388.48C379.45 389.26 380.75 389.14 382.81 387.97C384.54 386.99 385.59 385.46 385.75 383.72C385.89 382.22 385.44 380.81 384.75 380.59C384.06 380.36 382.08 379.93 380.35 379.64C378.61 379.34 376.45 379.64 375.53 380.3Z" />
		<path id="Path 54" class="shp3" d="M42.29 381.7C41.01 382.82 39.81 385.77 39.11 389.5C38.49 392.8 37.99 395.84 37.99 396.25C38 396.66 38.67 397 39.5 397C40.32 397 43.25 394.75 46 392C50.19 387.81 50.96 386.47 50.75 383.75C50.53 380.92 50.1 380.46 47.42 380.2C45.53 380.01 43.56 380.59 42.29 381.7Z" />
		<path id="Path 55" class="shp1" d="M295.5 382.48C293.85 383.81 290.7 385.14 288.5 385.45C286.3 385.75 283.6 386.64 282.5 387.44C280.61 388.8 280.6 388.98 282.2 390.69C283.5 392.07 284.21 392.23 285.2 391.36C285.92 390.74 288.52 389.87 291 389.43C293.47 388.99 296.74 387.59 298.25 386.32C299.76 385.04 301 383.1 301 382C301 380.9 300.44 380.02 299.75 380.04C299.06 380.06 297.15 381.16 295.5 382.48Z" />
		<path id="Path 56" class="shp3" d="M233.25 388.49C232.01 389.32 230.51 391.69 229.91 393.75C229.32 395.81 229.09 398.06 229.41 398.75C229.74 399.44 231.35 400 233 400C235.27 400 236.74 399.08 239.01 396.25C240.66 394.19 242.02 391.82 242.02 391C242.03 390.17 241.46 388.93 240.77 388.23C240.07 387.54 238.6 386.97 237.5 386.98C236.4 386.98 234.49 387.66 233.25 388.49Z" />
		<path id="Path 57" class="shp1" d="M471.08 388.75C469.21 389.71 467.33 391.4 466.92 392.5C466.49 393.62 466.68 395.6 467.35 397C468.21 398.8 469.45 399.57 471.77 399.75C474.29 399.95 475.45 399.4 477.06 397.25C478.2 395.74 479.32 393.49 479.56 392.25C479.8 391.01 479.44 389.3 478.75 388.46C478.06 387.61 476.82 386.93 476 386.96C475.17 386.98 472.96 387.79 471.08 388.75Z" />
		<path id="Path 58" class="shp3" d="M422.28 403.28C420.51 405.6 419.04 408.06 419.03 408.75C419.01 409.44 419.67 410.67 420.5 411.5C421.32 412.32 423.12 413 424.5 413C426.06 413 427.94 411.87 429.5 410C430.87 408.35 432 406.1 432 405C432 403.9 431.55 402.1 431 401C430.43 399.87 429.02 399.01 427.75 399.03C426.3 399.05 424.35 400.57 422.28 403.28Z" />
		<path id="Path 59" class="shp1" d="M238.01 404.07C234.44 405.68 231.63 407.46 231.76 408C231.89 408.55 233.01 409.49 234.25 410.08C235.86 410.85 237.71 410.85 240.75 410.08C243.09 409.49 246.12 407.87 247.5 406.5C248.87 405.12 249.85 403.44 249.67 402.75C249.49 402.06 248.26 401.42 246.92 401.31C245.59 401.21 241.58 402.45 238.01 404.07Z" />
		<path id="Path 60" class="shp2" d="M85.35 405.03C84.16 405.52 82.25 407.41 81.1 409.22C79.95 411.02 79.01 413.96 79 415.75C79 417.54 80.01 421.27 81.25 424.04C83.24 428.49 83.85 429.08 86.5 429.05C88.15 429.04 91.93 427.78 94.91 426.26C97.88 424.74 101.15 422.26 102.16 420.75C103.17 419.24 104.01 416.31 104.03 414.25C104.05 411.9 103.4 409.89 102.28 408.87C101.3 407.97 99.04 406.51 97.25 405.62C95.46 404.73 92.54 404.03 90.75 404.06C88.96 404.1 86.53 404.53 85.35 405.03Z" />
		<path id="Path 61" class="shp3" d="M373.95 406.25C372.79 407.49 371.16 409.85 370.33 411.5C369 414.18 369 414.66 370.41 416C371.73 417.27 372.59 417.31 375.99 416.25C379.04 415.3 380.24 414.28 381 412C381.55 410.35 381.77 407.87 381.5 406.5C381.13 404.65 380.36 404 378.54 404C377.18 404 375.12 405.01 373.95 406.25ZM187.69 409.19C186.25 411.06 185.01 414.17 184.82 416.35C184.56 419.46 184.93 420.47 186.75 421.6C188.8 422.87 189.26 422.75 191.89 420.25C193.47 418.74 195.11 416.15 195.53 414.5C195.94 412.85 195.87 410.37 195.37 409C194.86 407.61 193.52 406.36 192.34 406.19C190.91 405.98 189.41 406.95 187.69 409.19ZM332.9 407.08C332.02 407.64 330.55 409.43 329.65 411.05C328.31 413.44 328.24 414.29 329.25 415.54C329.94 416.39 331.08 417.07 331.8 417.04C332.51 417.02 334.2 415.87 335.55 414.5C336.9 413.12 338.11 410.92 338.23 409.61C338.38 408.09 337.84 406.99 336.73 406.61C335.78 406.27 334.89 406.01 334.75 406.03C334.61 406.05 333.78 406.52 332.9 407.08Z" />
		<path id="Path 62" class="shp2" d="M52.28 407.99C51.06 408.47 48.98 410.35 47.65 412.18C46.32 414.01 44.2 417.52 42.93 420C41.27 423.26 40.62 426.3 40.57 431.04C40.52 435.67 41.01 438.38 42.25 440.29C43.21 441.78 44.9 443.22 46 443.5C47.1 443.77 49.91 442.94 52.25 441.63C54.59 440.33 57.29 438.08 58.25 436.63C59.21 435.19 61.35 430.29 63.01 425.75C64.67 421.21 66.03 416.15 66.04 414.5C66.05 412.68 65.15 410.62 63.78 409.27C62.27 407.8 60.31 407.06 58 407.08C56.07 407.11 53.5 407.52 52.28 407.99Z" />
		<path id="Path 63" class="shp3" d="M289.25 411C287.46 412.1 285.55 413.9 285 415C284.45 416.1 284 417.67 284 418.5C284 419.41 285.29 420.23 287.25 420.58C289.55 421 291.2 420.63 292.9 419.33C294.22 418.33 295.68 416.26 296.15 414.75C296.72 412.89 296.59 411.5 295.75 410.46C295.06 409.61 294.05 408.93 293.5 408.96C292.95 408.99 291.04 409.91 289.25 411ZM142.25 413.49C141.01 414.32 139.12 416.69 138.05 418.75C136.52 421.69 136.35 422.77 137.3 423.77C137.96 424.46 139.17 425.02 140 425C140.82 424.98 143.64 423.62 146.25 421.98C150.47 419.33 150.93 418.69 150.42 416.25C150.09 414.74 149.31 413.17 148.67 412.77C148.02 412.36 146.82 412.02 146 412.01C145.17 411.99 143.49 412.66 142.25 413.49ZM92.02 416.58C90.79 418.06 89.84 420.33 89.9 421.63C89.97 423.38 90.59 424.01 92.25 424.03C93.49 424.05 95.74 423.15 97.25 422.03C99.26 420.55 99.93 419.26 99.75 417.25C99.56 415.11 98.92 414.43 96.88 414.19C95.01 413.98 93.6 414.67 92.02 416.58Z" />
		<path id="Path 64" class="shp1" d="M14.51 420.25C14.16 422.59 13.63 425.85 13.33 427.5C12.98 429.48 13.34 431.1 14.4 432.25C15.28 433.21 16.9 434 18 434C19.1 434 20.92 432.76 22.03 431.25C23.15 429.74 24.05 427.94 24.03 427.25C24.02 426.56 22.76 423.75 21.25 421C19.65 418.09 17.8 416 16.83 416C15.62 416 14.97 417.2 14.51 420.25Z" />
		<path id="Path 65" class="shp3" d="M56.11 419.55C54.95 420.35 53.1 422.8 52 425C50.9 427.2 50 430.12 50 431.5C50 432.87 50.56 434.15 51.25 434.33C51.94 434.51 53.62 434.39 55 434.06C56.67 433.66 58.25 431.97 59.76 428.98C61 426.52 62.04 423.5 62.07 422.29C62.09 421.06 61.25 419.63 60.16 419.08C58.76 418.37 57.62 418.5 56.11 419.55Z" />
		<path id="Path 66" class="shp1" d="M295.53 421.38C293.4 423.25 291.71 425.16 291.78 425.63C291.85 426.11 292.61 427.06 293.46 427.75C294.75 428.8 295.65 428.39 298.96 425.25C301.13 423.19 302.93 420.71 302.96 419.75C302.98 418.72 302.26 418 301.2 418C300.22 418 297.66 419.52 295.53 421.38ZM424 420.9C422.07 421.9 420.16 423.57 419.75 424.61C419.29 425.74 419.49 427.02 420.25 427.79C420.94 428.51 422.51 429.07 423.75 429.04C424.99 429.02 426.9 428.55 428 428C429.1 427.45 430.45 425.76 431.01 424.25C431.75 422.24 431.68 421.15 430.76 420.21C430.07 419.49 429.05 418.95 428.5 419C427.95 419.05 425.92 419.9 424 420.9ZM198.36 423.78C197.18 424.73 194.82 426.29 193.11 427.25C191.25 428.3 190 429.8 190 431C190 432.24 190.86 433.22 192.25 433.58C193.49 433.9 196.19 433.45 198.25 432.58C200.31 431.71 202.67 429.87 203.5 428.5C204.32 427.12 204.77 425.1 204.5 424C204.22 422.9 203.21 422.01 202.25 422.03C201.29 422.05 199.54 422.84 198.36 423.78ZM156.5 425.19C155.4 425.81 152.7 427.7 150.5 429.39C148.3 431.09 144.92 433 143 433.64C141.07 434.29 139.5 435.4 139.5 436.11C139.5 436.83 140.62 437.72 142 438.11C143.37 438.49 146.75 438.84 149.5 438.9C152.88 438.96 155.55 438.35 157.75 437C159.83 435.72 161.36 433.74 162 431.5C162.67 429.17 162.67 427.33 162 426C161.45 424.9 160.44 424.01 159.75 424.03C159.06 424.05 157.6 424.57 156.5 425.19ZM325 429.2C324.23 429.86 323.69 430.98 323.8 431.7C323.91 432.41 324.45 433.22 325 433.5C325.55 433.77 327.12 433.77 328.5 433.5C329.87 433.22 331 432.32 331 431.5C331 430.67 330.1 429.55 329 429C327.9 428.45 326.86 428 326.7 428C326.53 428 325.77 428.54 325 429.2ZM365.06 429.95C365.02 431.27 365.8 432.2 367.25 432.56C368.49 432.86 370.74 432.64 372.25 432.06C373.76 431.48 374.85 430.44 374.67 429.75C374.49 429.04 372.36 428.37 369.73 428.2C365.66 427.93 365.11 428.13 365.06 429.95Z" />
		<path id="Path 67" class="shp3" d="M236.65 432C235.19 433.1 233.32 435.35 232.5 437C231.29 439.42 231.24 440.3 232.25 441.54C232.94 442.39 234.4 443.08 235.5 443.06C236.6 443.05 238.91 441.57 240.63 439.77C242.35 437.97 243.97 435.82 244.24 435C244.51 434.17 244.34 432.71 243.86 431.75C243.39 430.79 242.17 430 241.15 430C240.14 430 238.11 430.9 236.65 432ZM18.25 433.75C16.39 433.96 16 434.61 16 437.5C16 439.42 16.45 442.12 17 443.5C17.55 444.87 18.56 445.85 19.25 445.66C19.94 445.48 20.9 443.79 21.39 441.91C21.92 439.91 21.92 437.47 21.39 436C20.75 434.19 19.87 433.56 18.25 433.75Z" />
		<path id="Path 68" class="shp1" d="M242 445.72C240.07 447.21 238.18 448.9 237.79 449.46C237.39 450.03 237.7 451.17 238.47 452C239.7 453.32 240.23 453.18 242.93 450.75C244.62 449.24 246.45 448 247 448C247.55 448 247.89 447.02 247.75 445.83C247.61 444.63 247.05 443.51 246.5 443.34C245.95 443.16 243.92 444.24 242 445.72Z" />
		<path id="Path 69" class="shp3" d="M416.05 446.58C413.67 448.55 411.78 450.8 411.86 451.58C411.94 452.36 412.79 453.01 413.75 453.02C414.71 453.03 417.41 451.46 419.75 449.52C422.09 447.58 424 445.32 424 444.5C424 443.67 423.19 443 422.19 443C421.2 443 418.44 444.61 416.05 446.58ZM364.73 449.77C362.1 451.27 359.74 453.17 359.47 454C359.21 454.82 359.56 456.08 360.25 456.79C360.94 457.51 362.4 458.07 363.5 458.04C364.6 458.01 366.96 457.09 368.75 456C370.54 454.9 372.45 453.1 373 452C373.71 450.58 373.63 449.55 372.75 448.46C372.06 447.61 371.05 446.94 370.5 446.98C369.95 447.02 367.35 448.28 364.73 449.77ZM275 449.67C273.54 450.59 272.61 452.02 272.75 453.12C272.89 454.15 273.79 455.4 274.75 455.89C275.78 456.42 277.64 456.42 279.25 455.89C280.84 455.38 282.15 454.14 282.34 452.95C282.53 451.83 282.2 450.23 281.59 449.41C280.99 448.58 279.82 447.95 279 448.01C278.17 448.06 276.38 448.81 275 449.67ZM188.96 456.63C187.75 458.1 186.84 460.54 186.9 462.13C186.95 463.71 187.45 465.22 188 465.5C188.55 465.77 189.9 465.77 191 465.5C192.24 465.19 193.43 463.58 194.14 461.25C194.77 459.19 194.99 456.71 194.64 455.75C194.29 454.79 193.35 454 192.57 454C191.78 454 190.15 455.19 188.96 456.63ZM318.95 456.25C318.16 457.85 318.14 458.79 318.9 459.5C319.62 460.17 320.8 460.09 322.49 459.25C323.92 458.54 325 457.14 325 456C325 454.54 324.33 454 322.53 454C320.96 454 319.65 454.82 318.95 456.25ZM99.82 459.71C98.96 460.69 97.07 463.41 95.63 465.75C94.18 468.09 92.98 470.34 92.96 470.75C92.94 471.16 94.29 472.06 95.96 472.75C98.69 473.87 99.35 473.75 102.5 471.5C104.44 470.12 106.29 467.77 106.64 466.25C106.99 464.74 106.87 462.37 106.37 461C105.87 459.62 104.54 458.37 103.42 458.21C102.3 458.04 100.68 458.72 99.82 459.71ZM142.64 459.75C141.73 460.71 140.57 463.3 140.05 465.5C139.29 468.77 139.42 469.83 140.81 471.28C141.74 472.26 143.29 473.05 144.25 473.03C145.37 473.01 146.73 471.3 148.02 468.25C149.14 465.64 150.05 462.82 150.04 462C150.04 461.17 149.46 459.93 148.77 459.23C148.07 458.54 146.78 457.97 145.9 457.98C145.02 457.99 143.55 458.79 142.64 459.75Z" />
		<path id="Path 70" class="shp1" d="M353.23 464.51C352.83 465.34 352.72 466.24 353 466.52C353.27 466.79 354.17 467.13 355 467.28C355.82 467.43 357.17 467.93 358 468.39C358.96 468.92 360.04 468.66 361 467.66C361.89 466.73 362.2 465.47 361.75 464.55C361.28 463.59 359.67 463 357.48 463C355.32 463 353.67 463.59 353.23 464.51ZM195 465.67C193.63 466.54 192.61 467.86 192.75 468.62C192.89 469.38 194.01 470.01 195.25 470.02C196.49 470.03 198.36 469.46 199.4 468.77C200.63 467.95 201.07 466.88 200.65 465.75C200.29 464.79 199.44 464.02 198.75 464.05C198.06 464.08 196.38 464.81 195 465.67Z" />
		<path id="Path 71" class="shp3" d="M57.84 470.23C56.38 471.48 54.7 473.51 54.09 474.75C53.49 475.99 52.99 477.56 52.97 478.25C52.96 478.94 53.97 480.03 55.22 480.67C57.1 481.64 58.08 481.51 60.75 479.92C62.54 478.87 64.69 476.99 65.54 475.75C66.39 474.51 66.95 472.37 66.79 471C66.56 469.03 65.87 468.44 63.5 468.23C61.53 468.05 59.59 468.73 57.84 470.23Z" />
		<path id="Path 72" class="shp1" d="M154.35 472.6C153.86 473.48 150.89 475.73 147.73 477.6C143.77 479.95 142.09 481.54 142.29 482.75C142.5 484.05 143.33 484.41 145.54 484.16C147.17 483.97 149.85 483.13 151.5 482.29C153.15 481.45 155.52 479.81 156.78 478.63C158.1 477.4 159.04 475.35 159.03 473.75C159.01 471.73 158.5 471 157.11 471C156.07 471 154.83 471.72 154.35 472.6ZM108.36 473.14C107.89 473.84 105.25 475.43 102.49 476.69C99.63 478 96.52 480.38 95.25 482.24C94.01 484.03 92.99 486.17 92.97 487C92.95 487.82 93.85 489.4 94.97 490.5L97.01 492.5C109.83 486.08 112.43 484.13 113.5 482C114.32 480.35 114.89 477.54 114.75 475.75C114.54 473.06 114.05 472.45 111.86 472.19C110.41 472.02 108.84 472.45 108.36 473.14Z" />
		<path id="Path 73" class="shp3" d="M221.74 475.75C220.88 476.71 220.09 478.85 219.98 480.5C219.88 482.15 219.84 484.29 219.89 485.25C219.95 486.21 220.79 487.01 221.75 487.02C222.71 487.03 224.91 485.57 226.63 483.77C228.35 481.97 229.97 479.82 230.24 479C230.51 478.17 230.34 476.71 229.86 475.75C229.34 474.69 227.87 474 226.15 474C224.58 474 222.59 474.79 221.74 475.75ZM24.74 481.71C24.37 482.14 24.98 483.62 26.09 485C27.49 486.71 27.93 488.29 27.52 490C27.18 491.37 26.7 493.29 26.45 494.25C26.17 495.34 26.57 496 27.5 496C28.32 496 29.25 494.99 29.56 493.75C29.86 492.51 29.97 489.25 29.81 486.5C29.55 482.35 29.15 481.45 27.46 481.21C26.33 481.05 25.11 481.27 24.74 481.71Z" />
		<path id="Path 74" class="shp1" d="M15.5 485.64C13.21 487.82 12.75 489.07 12.83 492.89C12.9 495.87 13.56 498.12 14.72 499.27C15.99 500.53 17.76 500.96 20.92 500.77L25.34 500.5C27.76 488.42 27.74 487.18 26.47 485.25C25.43 483.65 24.02 483 21.64 483C19.37 483 17.37 483.86 15.5 485.64ZM43.58 485.08C42.39 485.71 41.72 487.03 41.83 488.55C41.92 489.9 42.63 492.24 43.4 493.75C44.18 495.26 45.87 497.47 47.15 498.66C48.57 499.97 51.49 501.09 54.5 501.49C58.9 502.07 59.77 501.87 61.78 499.83C63.05 498.52 64.04 496.29 64.03 494.75C64.01 493.24 63.32 491.32 62.5 490.5C61.67 489.67 60.1 489 59 489C57.9 489 54.86 487.86 52.25 486.48C49.64 485.09 47.05 483.98 46.5 484.01C45.95 484.04 44.64 484.52 43.58 485.08Z" />
		<path id="Path 75" class="shp3" d="M260.25 487.49C257.48 489.13 256.09 490.61 256.26 491.75C256.43 492.94 257.56 493.58 259.76 493.75C261.54 493.89 264.35 493.32 266 492.5C268.38 491.31 268.95 490.43 268.75 488.25C268.58 486.36 267.88 485.42 266.5 485.24C265.4 485.09 262.59 486.11 260.25 487.49ZM310.57 490.25C309.36 491.06 308.93 492.12 309.35 493.25C309.81 494.5 310.65 494.82 312.25 494.39C313.49 494.05 314.95 493.39 315.5 492.92C316.05 492.46 316.16 491.38 315.75 490.54C315.34 489.69 314.43 489 313.72 489C313.02 489 311.61 489.56 310.57 490.25ZM181.69 499.96C180.21 501.08 178.51 503.69 177.91 505.75C177.32 507.81 177.09 510.06 177.41 510.75C177.76 511.5 179.51 511.9 181.75 511.75C185.11 511.53 185.76 511.01 188 506.76C189.97 503.04 190.26 501.65 189.4 500.26C188.79 499.29 187.42 498.37 186.34 498.21C185.26 498.04 183.17 498.83 181.69 499.96ZM134.25 507.65C133.56 507.95 132.1 509.94 131 512.09C129.9 514.24 129.11 517.24 129.25 518.75C129.47 521.16 129.87 521.46 132.5 521.21C134.15 521.06 136.51 519.82 137.75 518.46C138.99 517.11 140.29 514.76 140.63 513.25C140.98 511.74 140.83 509.82 140.28 509C139.74 508.17 138.44 507.41 137.4 507.31C136.35 507.21 134.94 507.36 134.25 507.65ZM87.47 517.83C86.46 518.83 85.72 520.41 85.82 521.33C85.92 522.25 86.67 523.22 87.5 523.5C88.32 523.77 90.12 522.87 91.5 521.5C92.87 520.12 93.77 518.32 93.5 517.5C93.22 516.67 92.17 516 91.15 516C90.13 516 88.47 516.82 87.47 517.83ZM50.5 525.57C49.39 526.64 48.88 528.73 48.93 532.07C48.98 535.74 49.45 537.21 50.75 537.82C51.71 538.27 53.4 538.6 54.5 538.57C55.75 538.52 57.14 537.19 58.23 535C59.83 531.74 59.84 531.33 58.3 529C57.39 527.62 55.94 525.95 55.08 525.28C54.21 524.61 53.19 524.05 52.82 524.03C52.45 524.01 51.4 524.71 50.5 525.57Z" />
		<path id="Path 76" class="shp1" d="M90.25 527.54C88.46 528.34 87.16 529.56 87.36 530.25C87.57 531 89.07 531.41 91.11 531.27C92.97 531.14 95.06 530.57 95.75 530.02C96.44 529.46 96.77 528.32 96.5 527.5C96.22 526.67 95.44 526.02 94.75 526.04C94.06 526.06 92.04 526.74 90.25 527.54Z" />
		<path id="Path 77" class="shp3" d="M170.75 539.54C169.24 540.34 168.15 541.56 168.33 542.25C168.51 542.94 169.74 543.65 171.08 543.84C172.41 544.02 174.29 543.46 175.25 542.59C176.21 541.71 176.77 540.32 176.5 539.5C176.22 538.67 175.44 538.02 174.75 538.04C174.06 538.06 172.26 538.74 170.75 539.54ZM121.92 546.73C119.95 546.94 117.84 547.65 117.23 548.31C116.62 548.96 116.43 550.08 116.81 550.78C117.32 551.73 118.86 551.86 122.8 551.28C127.26 550.62 128.06 550.19 127.8 548.58C127.64 547.52 127.05 546.59 126.5 546.51C125.95 546.42 123.89 546.52 121.92 546.73Z" />
		<path id="Path 78" class="shp5" d="M80.5 573.74C83.8 573.94 89.42 573.94 93 573.74C96.57 573.55 93.87 573.39 87 573.39C80.12 573.39 77.2 573.55 80.5 573.74Z" />
	</g>
</svg>