<?xml version="1.0" encoding="UTF-8" standalone="no"?>
<svg
   viewBox="0 0 1629 803"
   version="1.1"
   id="svg464"
   sodipodi:docname="background.svg"
   inkscape:version="1.1 (c68e22c387, 2021-05-23)"
   xmlns:inkscape="http://www.inkscape.org/namespaces/inkscape"
   xmlns:sodipodi="http://sodipodi.sourceforge.net/DTD/sodipodi-0.dtd"
   xmlns:xlink="http://www.w3.org/1999/xlink"
   xmlns="http://www.w3.org/2000/svg"
   xmlns:svg="http://www.w3.org/2000/svg">
  <sodipodi:namedview
     id="namedview466"
     pagecolor="#ffffff"
     bordercolor="#666666"
     borderopacity="1.0"
     inkscape:pageshadow="2"
     inkscape:pageopacity="0.0"
     inkscape:pagecheckerboard="0"
     showgrid="false"
     inkscape:zoom="0.420922"
     inkscape:cx="675.898"
     inkscape:cy="456.142"
     inkscape:window-width="1920"
     inkscape:window-height="1047"
     inkscape:window-x="-9"
     inkscape:window-y="-9"
     inkscape:window-maximized="1"
     inkscape:current-layer="svg464" />
  <defs
     id="defs111">
    <linearGradient
       inkscape:collect="always"
       id="linearGradient1679">
      <stop
         style="stop-color:#038cd1;stop-opacity:1"
         offset="0"
         id="stop1675" />
      <stop
         style="stop-color:#0093d5;stop-opacity:1"
         offset="0.345622"
         id="stop5965" />
      <stop
         style="stop-color:#27d95a;stop-opacity:1"
         offset="0.501104"
         id="stop6095" />
      <stop
         style="stop-color:#27da5a;stop-opacity:1"
         offset="1"
         id="stop1677" />
    </linearGradient>
    <linearGradient
       id="m">
      <stop
         offset="0"
         stop-color="#d82400"
         id="stop2" />
      <stop
         offset="1"
         stop-color="#ee0001"
         id="stop4" />
    </linearGradient>
    <linearGradient
       id="l">
      <stop
         offset="0"
         stop-color="#fb2"
         id="stop7" />
      <stop
         offset=".900085"
         stop-color="#f7c500"
         id="stop9" />
      <stop
         offset="1"
         stop-color="#eebe00"
         id="stop11" />
    </linearGradient>
    <linearGradient
       id="k">
      <stop
         offset="0"
         stop-color="#933594"
         id="stop14" />
      <stop
         offset="1"
         stop-color="#a349a4"
         id="stop16" />
    </linearGradient>
    <linearGradient
       id="j">
      <stop
         offset="0"
         stop-color="#22b14c"
         id="stop19" />
      <stop
         offset="1"
         stop-color="#1a8f3d"
         id="stop21" />
    </linearGradient>
    <linearGradient
       id="h">
      <stop
         offset="0"
         stop-color="#fc0"
         id="stop24" />
      <stop
         offset=".900085"
         stop-color="#f7c500"
         id="stop26" />
      <stop
         offset="1"
         stop-color="#eebe00"
         id="stop28" />
    </linearGradient>
    <linearGradient
       id="g">
      <stop
         offset="0"
         stop-color="#ece8bf"
         id="stop31" />
      <stop
         offset=".453294"
         stop-color="#fffbce"
         id="stop33" />
      <stop
         offset="1"
         stop-color="#fffcd9"
         id="stop35" />
    </linearGradient>
    <linearGradient
       id="f">
      <stop
         offset="0"
         stop-color="#e9b529"
         id="stop38" />
      <stop
         offset="1"
         stop-color="#e9b529"
         stop-opacity="0"
         id="stop40" />
    </linearGradient>
    <linearGradient
       id="e">
      <stop
         offset="0"
         stop-color="#1468bc"
         id="stop43" />
      <stop
         offset="1"
         stop-color="#0093d5"
         id="stop45" />
    </linearGradient>
    <linearGradient
       id="d">
      <stop
         offset="0"
         stop-color="#f9f9f9"
         id="stop48" />
      <stop
         offset="1"
         stop-color="#fff"
         id="stop50" />
    </linearGradient>
    <linearGradient
       id="c">
      <stop
         offset="0"
         stop-color="#27d759"
         id="stop53" />
      <stop
         offset="1"
         stop-color="#28ea5f"
         id="stop55" />
    </linearGradient>
    <linearGradient
       id="b">
      <stop
         offset="0"
         stop-color="#14bc43"
         id="stop58" />
      <stop
         offset="1"
         stop-color="#00d53c"
         id="stop60" />
    </linearGradient>
    <linearGradient
       id="a">
      <stop
         offset="0"
         stop-color="#fff"
         id="stop63" />
      <stop
         offset=".684154"
         stop-color="#fff"
         stop-opacity=".724422"
         id="stop65" />
      <stop
         offset="1"
         stop-color="#fff"
         stop-opacity="0"
         id="stop67" />
    </linearGradient>
    <linearGradient
       xlink:href="#a"
       id="r"
       x1="1280.52"
       x2="1277.55"
       y1="220.35"
       y2="348.046"
       gradientTransform="translate(0 1.18787)"
       gradientUnits="userSpaceOnUse" />
    <linearGradient
       xlink:href="#a"
       id="v"
       x1="1280.52"
       x2="1277.55"
       y1="220.35"
       y2="348.046"
       gradientTransform="translate(160.956 -105.72)"
       gradientUnits="userSpaceOnUse" />
    <linearGradient
       xlink:href="#a"
       id="t"
       x1="1280.52"
       x2="1277.55"
       y1="220.35"
       y2="348.046"
       gradientTransform="translate(300.531 -3.5632)"
       gradientUnits="userSpaceOnUse" />
    <linearGradient
       xlink:href="#b"
       id="D"
       x1="406.251"
       x2="405.064"
       y1="688.964"
       y2="987.12"
       gradientUnits="userSpaceOnUse" />
    <linearGradient
       xlink:href="#b"
       id="C"
       x1="1290.4"
       x2="1283.44"
       y1="502.108"
       y2="776.115"
       gradientUnits="userSpaceOnUse" />
    <linearGradient
       xlink:href="#c"
       id="p"
       x1="981.063"
       x2="979.383"
       y1="396.457"
       y2="863.47"
       gradientUnits="userSpaceOnUse" />
    <linearGradient
       xlink:href="#d"
       id="w"
       x1="1611.87"
       x2="1615.23"
       y1="147.831"
       y2="45.7773"
       gradientUnits="userSpaceOnUse" />
    <linearGradient
       xlink:href="#d"
       id="y"
       x1="1611.87"
       x2="1615.23"
       y1="147.831"
       y2="45.7773"
       gradientTransform="translate(-473.915 68.876)"
       gradientUnits="userSpaceOnUse" />
    <linearGradient
       xlink:href="#d"
       id="z"
       x1="1611.87"
       x2="1615.23"
       y1="147.831"
       y2="45.7773"
       gradientTransform="translate(-943.124 -4.77193)"
       gradientUnits="userSpaceOnUse" />
    <linearGradient
       xlink:href="#d"
       id="A"
       x1="1611.87"
       x2="1615.23"
       y1="147.831"
       y2="45.7773"
       gradientTransform="translate(-1409.17 20.4347)"
       gradientUnits="userSpaceOnUse" />
    <linearGradient
       xlink:href="#d"
       id="B"
       x1="1611.87"
       x2="1615.23"
       y1="147.831"
       y2="45.7773"
       gradientTransform="translate(-975.373 83.3763) scale(.76635)"
       gradientUnits="userSpaceOnUse" />
    <linearGradient
       xlink:href="#d"
       id="x"
       x1="1611.87"
       x2="1615.23"
       y1="147.831"
       y2="45.7773"
       gradientTransform="translate(-1054.03 -28.546) scale(1.32607)"
       gradientUnits="userSpaceOnUse" />
    <linearGradient
       xlink:href="#e"
       id="n"
       x1="866.829"
       x2="890.348"
       y1="752.596"
       y2="40.3176"
       gradientUnits="userSpaceOnUse" />
    <linearGradient
       xlink:href="#f"
       id="G"
       x1="197.416"
       x2="225.044"
       y1="448.747"
       y2="448.747"
       gradientTransform="translate(13.1432 6.97395)"
       gradientUnits="userSpaceOnUse" />
    <linearGradient
       xlink:href="#g"
       id="E"
       x1="185.012"
       x2="214.448"
       y1="462.085"
       y2="462.085"
       gradientTransform="translate(-23.2018 -38.3567)"
       gradientUnits="userSpaceOnUse" />
    <linearGradient
       xlink:href="#g"
       id="F"
       x1="185.012"
       x2="214.448"
       y1="462.085"
       y2="462.085"
       gradientTransform="translate(-63.4831 -31.7122)"
       gradientUnits="userSpaceOnUse" />
    <linearGradient
       xlink:href="#g"
       id="H"
       x1="185.012"
       x2="214.448"
       y1="462.085"
       y2="462.085"
       gradientTransform="translate(-141.002 -14.8137)"
       gradientUnits="userSpaceOnUse" />
    <linearGradient
       xlink:href="#g"
       id="I"
       x1="185.012"
       x2="214.448"
       y1="462.085"
       y2="462.085"
       gradientTransform="translate(-185.527 -5.69397)"
       gradientUnits="userSpaceOnUse" />
    <linearGradient
       xlink:href="#h"
       id="J"
       x1="97.4887"
       x2="104.811"
       y1="408.829"
       y2="408.829"
       gradientUnits="userSpaceOnUse" />
    <linearGradient
       xlink:href="#e"
       id="i"
       x1="866.829"
       x2="890.348"
       y1="752.596"
       y2="40.3176"
       gradientUnits="userSpaceOnUse" />
    <linearGradient
       xlink:href="#j"
       id="K"
       x1="1200.56"
       x2="1219.9"
       y1="661.946"
       y2="661.532"
       gradientUnits="userSpaceOnUse" />
    <linearGradient
       xlink:href="#j"
       id="N"
       x1="1200.56"
       x2="1219.9"
       y1="661.946"
       y2="661.532"
       gradientTransform="matrix(-1 0 0 1 2531.34 34.8029)"
       gradientUnits="userSpaceOnUse" />
    <linearGradient
       xlink:href="#j"
       id="Q"
       x1="1200.56"
       x2="1219.9"
       y1="661.946"
       y2="661.532"
       gradientTransform="matrix(-1 0 0 1 2565.54 -64.0816)"
       gradientUnits="userSpaceOnUse" />
    <radialGradient
       xlink:href="#k"
       id="L"
       cx="1213.46"
       cy="625.714"
       r="22.9638"
       fx="1213.46"
       fy="625.714"
       gradientTransform="matrix(1 0 0 .87354 0 79.1261)"
       gradientUnits="userSpaceOnUse" />
    <radialGradient
       xlink:href="#l"
       id="M"
       cx="1212.51"
       cy="625.818"
       r="5.23764"
       fx="1212.51"
       fy="625.818"
       gradientTransform="matrix(1 0 0 .9996 0 .247785)"
       gradientUnits="userSpaceOnUse" />
    <radialGradient
       xlink:href="#l"
       id="P"
       cx="1212.51"
       cy="625.818"
       r="5.23764"
       fx="1212.51"
       fy="625.818"
       gradientTransform="matrix(-1 0 0 .9996 2531.34 35.0507)"
       gradientUnits="userSpaceOnUse" />
    <radialGradient
       xlink:href="#m"
       id="O"
       cx="1213.46"
       cy="625.714"
       r="22.9638"
       fx="1213.46"
       fy="625.714"
       gradientTransform="matrix(-1 0 0 .87354 2531.34 113.929)"
       gradientUnits="userSpaceOnUse" />
    <radialGradient
       xlink:href="#l"
       id="S"
       cx="1212.51"
       cy="625.818"
       r="5.23764"
       fx="1212.51"
       fy="625.818"
       gradientTransform="matrix(1 0 0 .9996 149.715 -63.8338)"
       gradientUnits="userSpaceOnUse" />
    <radialGradient
       xlink:href="#e"
       id="R"
       cx="1213.46"
       cy="625.714"
       r="22.9638"
       fx="1213.46"
       fy="625.714"
       gradientTransform="matrix(1 0 0 .87354 149.715 15.0445)"
       gradientUnits="userSpaceOnUse" />
    <clipPath
       id="q"
       clipPathUnits="userSpaceOnUse">
      <path
         fill="#656565"
         d="M1166.7 514.895c.1-2.13.1-4.308 11.9-37.354 11.82-33.047 35.44-96.962 51.74-139.14 16.29-42.178 25.25-62.616 32.25-76.196 7-13.579 12.04-20.298 17.92-19.878 5.88.421 12.6 7.982 21.34 26.32 8.75 18.338 19.53 47.455 30.38 80.143 10.85 32.689 21.77 68.947 29.82 95.335 8.05 26.389 13.23 42.907 16.38 54.386 3.15 11.48 4.27 17.92-13.23 22.749-17.5 4.829-53.62 8.05-86.38 9.519-32.75 1.47-62.15 1.19-80.35-.7-18.2-1.89-25.2-5.39-28.61-8.18-3.42-2.791-3.24-4.873-3.16-7.004z"
         id="path99" />
    </clipPath>
    <clipPath
       id="u"
       clipPathUnits="userSpaceOnUse">
      <path
         fill="#4d4d4d"
         stroke-width="1.32038"
         d="M1290.4 502.108c.12-2.812.12-5.688 15.72-49.322 15.6-43.634 46.79-128.022 68.31-183.715 21.51-55.692 33.34-82.674 42.58-100.604 9.24-17.93 15.9-26.804 23.66-26.251 7.76.553 16.63 10.541 28.18 34.755 11.55 24.214 25.78 62.658 40.11 105.818 14.33 43.161 28.74 91.037 39.37 125.88 10.63 34.843 17.47 56.653 21.63 71.808 4.16 15.156 5.64 23.66-17.46 30.036-23.11 6.376-70.8 10.628-114.05 12.569-43.25 1.94-82.07 1.571-106.1-.924s-33.27-7.115-37.78-10.801c-4.51-3.685-4.28-6.436-4.17-9.249z"
         id="path102" />
    </clipPath>
    <clipPath
       id="s"
       clipPathUnits="userSpaceOnUse">
      <path
         fill="#505050"
         stroke-width="1.06087"
         d="M1455.87 516.799c.1-2.26.1-4.57 12.62-39.628 12.53-35.059 37.6-102.861 54.88-147.608 17.29-44.746 26.79-66.421 34.22-80.828 7.42-14.407 12.77-21.537 19.01-21.093 6.23.443 13.36 8.47 22.64 27.923 9.28 19.453 20.71 50.344 32.22 85.022 11.51 34.678 23.1 73.142 31.64 101.136 8.54 27.995 14.03 45.519 17.38 57.696 3.34 12.178 4.52 19.011-14.04 24.133s-56.88 8.538-91.63 10.098c-34.75 1.559-65.94 1.262-85.25-.742-19.3-2.003-26.73-5.717-30.35-8.678-3.62-2.961-3.44-5.171-3.34-7.431z"
         id="path105" />
    </clipPath>
    <clipPath
       id="o"
       clipPathUnits="userSpaceOnUse">
      <path
         fill="url(#i)"
         d="M0 803V0h1629v803H0"
         id="path108" />
    </clipPath>
    <linearGradient
       inkscape:collect="always"
       xlink:href="#linearGradient1679"
       id="linearGradient1766"
       x1="788.746"
       y1="-137.791"
       x2="762.614"
       y2="1009.69"
       gradientUnits="userSpaceOnUse" />
  </defs>
  <rect
     style="fill:url(#linearGradient1766);stroke-width:0.377953;stroke-linecap:round;stroke-linejoin:round;fill-opacity:1"
     id="rect1305"
     width="2081.15"
     height="1178.37"
     x="-223.319"
     y="-161.55" />
  <path
     fill="url(#n)"
     d="M0 803V0h1629v803H0"
     id="path113" />
  <g
     clip-path="url(#o)"
     id="g349">
    <path
       fill="url(#p)"
       d="M-144.191 376.298c6.439 1.68 6.439 1.68 67.4772-1.4 61.0382-3.08 183.1088-9.239 296.7828-23.239 113.675-13.999 218.946-35.837 298.182-45.637 79.236-9.799 132.432-7.56 189.549.56 57.117 8.12 118.153 22.119 203.549 34.158 85.396 12.04 195.151 22.119 313.021 20.439 117.87-1.68 243.87-15.119 342.7-14.559 98.83.559 170.51 15.12 224.27 3.92 53.75-11.2 89.59-48.157 106.67-31.077 17.08 17.08 15.4 88.194-5.88 197.389-21.28 109.196-62.15 256.466-91.55 351.379-29.4 94.914-47.32 137.469-275.51 178.069-228.19 40.6-666.64 79.23-969.303 97.15-302.664 17.92-469.5311 15.12-593.2844-67.48C-161.271 993.38-241.905 830.992-269.624 687.919c-27.718-143.072-2.52-266.823 21.839-316.939 24.36-50.117 47.878-26.599 66.077-13.16 18.199 13.438 31.078 16.798 37.517 18.478z"
       id="path115" />
    <path
       fill="#b77c57"
       d="m782.943 478.718 18.777-13.53c18.778-13.53 56.33-40.588 93.884-67.647L646.383 323.95l-112.662 62.59 249.222 92.178z"
       id="path117" />
    <path
       fill="none"
       stroke="#e7b32b"
       stroke-linecap="round"
       stroke-linejoin="round"
       stroke-width="3"
       d="M671.386 364.097s0 0 0 0c1.496 2.082 2.991 4.161 3.943 6.618.952 2.456 1.362 5.289 1.518 7.071.157 1.782.06 2.513.275 1.836.216-.676.746-2.761 1.695-4.714.95-1.952 2.318-3.771 3.468-5.34 1.15-1.57 2.08-2.89 2.053-3.134-.03-.245-1.014.586-2.468 2.843-1.455 2.257-3.378 5.938-3.959 5.577-.58-.361.181-4.767.943-9.172"
       id="path119" />
    <path
       fill="none"
       stroke="#ab7149"
       stroke-linecap="round"
       stroke-width="4"
       d="M638.406 339.496c9.936 4.151 19.873 8.303 33.77 11.732 13.898 3.429 31.758 6.137 48.602 10.821 16.844 4.683 32.671 11.34 54.872 14.983 22.201 3.642 50.774 4.271 66.368 5.892 15.594 1.621 18.208 4.234 20.821 6.846"
       id="path121" />
    <path
       fill="none"
       stroke="#e7b32b"
       stroke-linecap="round"
       stroke-linejoin="round"
       stroke-width="3"
       d="M730.912 350.528s0 0 0 0c1.719 1.901 3.436 3.802 4.657 6.137 1.22 2.334 1.944 5.104 2.299 6.857.355 1.753.341 2.49.481 1.793.14-.696.433-2.826 1.158-4.873.725-2.046 1.881-4.006 2.849-5.695.968-1.689 1.745-3.104 1.69-3.344-.05-.239-.94.697-2.134 3.102-1.193 2.406-2.693 6.278-3.311 5.984-.617-.294-.353-4.757-.09-9.22M650.243 328.678s0 0 0 0c1.719 1.901 3.436 3.801 4.657 6.136 1.22 2.334 1.944 5.104 2.299 6.858.356 1.753.342 2.49.482 1.793.14-.696.433-2.827 1.158-4.874.726-2.046 1.882-4.006 2.849-5.694.967-1.689 1.745-3.104 1.691-3.344-.06-.24-.941.696-2.135 3.101-1.193 2.406-2.693 6.28-3.311 5.985-.617-.294-.353-4.758-.09-9.22M757.408 357.512s0 0 0 0c1.719 1.902 3.437 3.801 4.657 6.136 1.221 2.335 1.945 5.104 2.299 6.858.353 1.754.337 2.49.475 1.793.138-.696.432-2.827 1.157-4.873.725-2.045 1.882-4.007 2.849-5.695.967-1.688 1.745-3.104 1.69-3.344-.05-.24-.941.696-2.134 3.102-1.194 2.406-2.694 6.279-3.311 5.984-.617-.294-.353-4.757-.09-9.22M774.185 397.141s0 0 0 0c1.496 2.082 2.991 4.162 3.943 6.619.952 2.456 1.362 5.288 1.518 7.071.157 1.782.06 2.512.276 1.835.216-.676.745-2.76 1.694-4.713.949-1.952 2.318-3.771 3.468-5.341 1.15-1.57 2.08-2.889 2.053-3.133-.03-.245-1.013.587-2.468 2.843-1.454 2.257-3.377 5.938-3.958 5.576-.581-.361.18-4.766.942-9.172M725.026 386.092s0 0 0 0c1.496 2.082 2.99 4.161 3.943 6.618.952 2.456 1.362 5.289 1.518 7.072.156 1.782.06 2.512.275 1.835.216-.676.746-2.761 1.695-4.713.949-1.952 2.318-3.772 3.468-5.341 1.15-1.57 2.08-2.89 2.053-3.134-.03-.245-1.014.586-2.468 2.843-1.455 2.257-3.378 5.938-3.959 5.577-.58-.361.181-4.767.943-9.172M833.247 365.874s0 0 0 0c1.719 1.902 3.437 3.801 4.657 6.137 1.221 2.335 1.944 5.103 2.3 6.857.355 1.753.341 2.49.481 1.793.14-.696.434-2.826 1.159-4.872.725-2.046 1.882-4.008 2.849-5.696.968-1.688 1.745-3.103 1.691-3.343-.06-.24-.941.696-2.135 3.101-1.194 2.406-2.693 6.279-3.311 5.984-.617-.294-.353-4.756-.09-9.22M780.483 363.138s0 0 0 0c1.719 1.901 3.436 3.801 4.657 6.136 1.22 2.334 1.944 5.104 2.299 6.858.356 1.753.342 2.49.482 1.793.14-.696.434-2.827 1.159-4.873.725-2.046 1.882-4.006 2.849-5.695.967-1.688 1.744-3.104 1.69-3.344-.06-.24-.941.697-2.135 3.102-1.193 2.405-2.693 6.278-3.311 5.984-.617-.294-.353-4.758-.09-9.22M621.753 345.466s0 0 0 0c1.496 2.081 2.99 4.161 3.942 6.618.952 2.456 1.362 5.289 1.518 7.071.157 1.782.06 2.513.276 1.836.216-.676.745-2.761 1.694-4.714.95-1.952 2.318-3.771 3.468-5.34 1.15-1.57 2.08-2.89 2.053-3.135-.03-.244-1.013.587-2.468 2.844-1.454 2.257-3.378 5.939-3.959 5.577-.58-.361.181-4.767.943-9.172M747.328 394.26s0 0 0 0c1.496 2.081 2.99 4.161 3.942 6.618.952 2.456 1.363 5.289 1.519 7.071.157 1.782.06 2.513.275 1.836.216-.676.746-2.761 1.695-4.713.949-1.953 2.318-3.771 3.467-5.341 1.15-1.569 2.081-2.89 2.054-3.134-.03-.245-1.014.586-2.468 2.843-1.455 2.257-3.379 5.938-3.96 5.577-.58-.361.181-4.767.943-9.172M676.58 336.671s0 0 0 0c1.719 1.902 3.437 3.801 4.658 6.136 1.221 2.335 1.944 5.103 2.298 6.856.353 1.754.337 2.491.475 1.795.138-.696.431-2.826 1.157-4.872.725-2.047 1.882-4.008 2.849-5.697.968-1.688 1.745-3.103 1.69-3.343-.05-.239-.941.697-2.135 3.102-1.194 2.404-2.694 6.277-3.311 5.983-.618-.294-.352-4.756-.09-9.22M807.493 363.001s0 0 0 0c1.719 1.901 3.437 3.802 4.658 6.136 1.22 2.335 1.944 5.103 2.299 6.857.356 1.754.342 2.49.482 1.793.14-.696.432-2.826 1.157-4.872.725-2.047 1.882-4.007 2.85-5.695.968-1.689 1.745-3.104 1.69-3.343-.06-.24-.941.696-2.135 3.101-1.193 2.405-2.693 6.278-3.31 5.983-.618-.294-.353-4.756-.09-9.22"
       id="path123" />
    <path
       fill="none"
       stroke="#ab7149"
       stroke-linecap="round"
       stroke-width="4"
       d="M608.782 354.894c9.41 5.236 18.821 10.471 32.248 15.432 13.428 4.96 30.873 9.646 47.089 16.182 16.215 6.535 31.199 14.919 52.854 21.019 21.655 6.1 49.979 9.916 65.295 13.27 15.315 3.353 17.621 6.241 19.926 9.129"
       id="path125" />
    <path
       fill="none"
       stroke="#e7b32b"
       stroke-linecap="round"
       stroke-linejoin="round"
       stroke-width="3"
       d="M699.476 376.191s0 0 0 0c1.495 2.081 2.99 4.162 3.942 6.618.952 2.457 1.362 5.289 1.518 7.071.157 1.782.06 2.513.276 1.836.216-.676.745-2.76 1.694-4.713.949-1.952 2.318-3.771 3.468-5.341 1.15-1.57 2.081-2.89 2.053-3.134-.03-.244-1.013.587-2.468 2.844-1.454 2.257-3.377 5.938-3.958 5.576-.581-.361.18-4.766.942-9.172M647.033 356.351s0 0 0 0c1.496 2.081 2.99 4.161 3.943 6.618.952 2.457 1.362 5.289 1.518 7.071.157 1.782.06 2.513.275 1.836.216-.676.745-2.76 1.695-4.713.949-1.952 2.318-3.772 3.468-5.341 1.15-1.57 2.08-2.889 2.053-3.134-.03-.244-1.013.587-2.468 2.844-1.455 2.256-3.378 5.937-3.959 5.576-.581-.361.181-4.766.943-9.172"
       id="path127" />
    <path
       fill="none"
       stroke="#fccb19"
       stroke-linecap="round"
       stroke-width="3"
       d="m237.042 430.521 2.352.09c2.351.09 7.053.26 7.374 1.014.322.755-3.737 2.092-6.658 3.267-2.92 1.176-4.702 2.19-2.857 2.339 1.844.148 7.313-.569 10.48-1.176 3.167-.606 4.033-1.101 2.251-.396-1.782.706-6.21 2.611-9.094 4.306-2.883 1.695-4.22 3.18-4.925 3.997-.705.816-.78.966 1.163-.408 1.943-1.374 5.902-4.269 7.102-4.281 1.201-.01-.358 2.858-.903 4.083-.544 1.225-.07.804.817-.446.891-1.25 2.202-3.328 3.192-4.566.99-1.237 1.658-1.633 2.414-1.781.755-.149 1.596-.05 2.437.05"
       id="path129" />
    <path
       fill="#4d4d4d"
       d="M1290.4 502.108c.12-2.812.12-5.688 15.72-49.322 15.6-43.634 46.79-128.022 68.31-183.715 21.51-55.692 33.34-82.674 42.58-100.604 9.24-17.93 15.9-26.804 23.66-26.251 7.76.553 16.63 10.541 28.18 34.755 11.55 24.214 25.78 62.658 40.11 105.818 14.33 43.161 28.74 91.037 39.37 125.88 10.63 34.843 17.47 56.653 21.63 71.808 4.16 15.156 5.64 23.66-17.46 30.036-23.11 6.376-70.8 10.628-114.05 12.569-43.25 1.94-82.07 1.571-106.1-.924s-33.27-7.115-37.78-10.801c-4.51-3.685-4.28-6.436-4.17-9.249z"
       id="path131" />
    <path
       fill="#656565"
       d="M1166.7 514.895c.1-2.13.1-4.308 11.9-37.354 11.82-33.047 35.44-96.962 51.74-139.14 16.29-42.178 25.25-62.616 32.25-76.196 7-13.579 12.04-20.298 17.92-19.878 5.88.421 12.6 7.982 21.34 26.32 8.75 18.338 19.53 47.455 30.38 80.143 10.85 32.689 21.77 68.947 29.82 95.335 8.05 26.389 13.23 42.907 16.38 54.386 3.15 11.48 4.27 17.92-13.23 22.749-17.5 4.829-53.62 8.05-86.38 9.519-32.75 1.47-62.15 1.19-80.35-.7-18.2-1.89-25.2-5.39-28.61-8.18-3.42-2.791-3.24-4.873-3.16-7.004z"
       id="path133" />
    <path
       fill="#505050"
       d="M1455.87 516.799c.1-2.26.1-4.57 12.62-39.628 12.53-35.059 37.6-102.861 54.88-147.608 17.29-44.746 26.79-66.421 34.22-80.828 7.42-14.407 12.77-21.537 19.01-21.093 6.23.443 13.36 8.47 22.64 27.923 9.28 19.453 20.71 50.344 32.22 85.022 11.51 34.678 23.1 73.142 31.64 101.136 8.54 27.995 14.03 45.519 17.38 57.696 3.34 12.178 4.52 19.011-14.04 24.133s-56.88 8.538-91.63 10.098c-34.75 1.559-65.94 1.262-85.25-.742-19.3-2.003-26.73-5.717-30.35-8.678-3.62-2.961-3.44-5.171-3.34-7.431z"
       id="path135" />
    <path
       fill="url(#r)"
       d="M1194.7 341.513c.1 1.78 1.68 2.966 8.32 6.927 6.63 3.962 18.31 10.693 33.66 14.058 15.34 3.366 34.34 3.366 54.04 1.881 19.7-1.485 40.09-4.454 49.39-11.383 9.31-6.929 7.53-17.818 3.27-33.26-4.25-15.442-10.99-35.439-21.08-55.138-10.1-19.698-23.56-39.1-34.85-44.247-11.28-5.148-20.39 3.959-31.38 18.014-10.99 14.055-23.85 33.062-33.95 49.991-10.1 16.929-17.42 31.774-21.78 40.386-4.35 8.612-5.74 10.991-5.64 12.771z"
       clip-path="url(#q)"
       id="path137" />
    <path
       fill="url(#t)"
       d="M1495.23 336.762c.1 1.78 1.68 2.966 8.32 6.927 6.63 3.962 18.31 10.693 33.66 14.058 15.34 3.366 34.34 3.366 54.04 1.881 19.7-1.485 40.09-4.454 49.39-11.383 9.31-6.929 7.53-17.818 3.27-33.26-4.25-15.442-10.99-35.439-21.08-55.138-10.1-19.698-23.56-39.1-34.85-44.247-11.28-5.148-20.39 3.959-31.38 18.014-10.99 14.055-23.85 33.062-33.95 49.991-10.1 16.929-17.42 31.774-21.78 40.386-4.35 8.612-5.74 10.991-5.64 12.771z"
       clip-path="url(#s)"
       id="path139" />
    <path
       fill="url(#v)"
       d="M1355.66 234.605c.1 1.78 1.68 2.966 8.32 6.927 6.63 3.962 18.31 10.693 33.66 14.058 15.34 3.366 34.34 3.366 54.04 1.881 19.7-1.485 40.09-4.454 49.39-11.383 9.31-6.929 7.53-17.818 3.27-33.26-4.25-15.442-10.99-35.439-21.08-55.138-10.1-19.698-23.56-39.1-34.85-44.247-11.28-5.148-20.39 3.959-31.38 18.014-10.99 14.055-23.85 33.062-33.95 49.991-10.1 16.929-17.42 31.774-21.78 40.386-4.35 8.612-5.74 10.991-5.64 12.771z"
       clip-path="url(#u)"
       id="path141" />
    <path
       fill="none"
       stroke="#e7b32b"
       stroke-linecap="round"
       stroke-linejoin="round"
       stroke-width="3"
       d="M799.456 402.874s0 0 0 0c1.496 2.082 2.99 4.161 3.943 6.618.952 2.457 1.362 5.289 1.518 7.071.157 1.782.06 2.513.275 1.836.216-.676.745-2.76 1.695-4.713.949-1.952 2.318-3.772 3.468-5.341 1.15-1.57 2.08-2.889 2.053-3.134-.03-.244-1.013.587-2.468 2.844-1.455 2.257-3.378 5.938-3.958 5.576-.581-.361.18-4.766.942-9.172"
       id="path143" />
    <path
       fill="#333"
       d="M810.455 425.289c-5.023-.93-10.975-3.999-14.092-9.487-3.117-5.488-3.396-13.395-.512-19.256 2.883-5.861 8.929-9.674 14.883-10.604 5.955-.929 11.815 1.024 15.534 3.629 3.72 2.604 5.302 5.861 5.906 10.047.604 4.185.231 9.301-1.35 13.486-1.581 4.185-4.37 7.441-7.812 9.673-3.441 2.233-7.534 3.442-12.557 2.512z"
       id="path145" />
    <path
       fill="none"
       stroke="#e7b32b"
       stroke-linecap="round"
       stroke-linejoin="round"
       stroke-width="3"
       d="M701.646 341.648s0 0 0 0c1.719 1.901 3.437 3.8 4.658 6.135 1.22 2.335 1.944 5.104 2.299 6.858.356 1.753.342 2.49.482 1.793.14-.696.433-2.827 1.158-4.873.726-2.046 1.883-4.007 2.85-5.695.967-1.688 1.745-3.104 1.69-3.343-.06-.24-.942.696-2.135 3.101-1.193 2.404-2.693 6.279-3.311 5.984-.617-.294-.352-4.757-.09-9.22"
       id="path147" />
    <path
       fill="#4d4d4d"
       d="M818.224 428.019c-5.023-.93-10.975-3.999-14.092-9.487-3.117-5.488-3.396-13.395-.512-19.256 2.883-5.861 8.929-9.674 14.883-10.604 5.955-.929 11.815 1.024 15.534 3.629 3.72 2.604 5.302 5.861 5.906 10.047.604 4.185.231 9.301-1.35 13.486-1.581 4.185-4.37 7.441-7.812 9.673-3.441 2.233-7.534 3.442-12.557 2.512z"
       id="path149" />
    <path
       fill="#666"
       d="M819.188 420.992c-3.226-.597-7.048-2.568-9.049-6.091-2.001-3.524-2.181-8.601-.329-12.364 1.852-3.764 5.733-6.212 9.557-6.809 3.823-.597 7.586.657 9.974 2.33 2.389 1.672 3.404 3.763 3.792 6.451.388 2.687.149 5.972-.866 8.659-1.015 2.688-2.807 4.778-5.016 6.212-2.21 1.433-4.838 2.21-8.063 1.612z"
       id="path151" />
    <path
       fill="#ed1c24"
       d="m820.67 379.524-.446 35.637 41.873 12.62 107.948-44.248-3.861-72.905-43.358-2.227-40.387 7.572-15.591 48.852-46.178 14.699z"
       id="path153" />
    <path
       fill="none"
       stroke="#c10624"
       stroke-linejoin="round"
       stroke-width="2"
       d="m820.224 415.161 41.873 12.62.742-38.011-42.169-10.246-.446 35.637z"
       id="path155" />
    <path
       fill="none"
       stroke="#c10624"
       stroke-linejoin="round"
       stroke-width="2"
       d="m862.097 427.781 46.029-19.451-.89-32.518-44.397 13.958-.742 38.011z"
       id="path157" />
    <path
       fill="#333"
       d="M876.382 445.483c-5.023-.93-10.975-3.999-14.092-9.487-3.117-5.488-3.396-13.395-.512-19.256 2.883-5.861 8.929-9.674 14.883-10.604 5.955-.929 11.815 1.024 15.534 3.629 3.72 2.604 5.302 5.861 5.906 10.047.604 4.185.231 9.301-1.35 13.486-1.581 4.185-4.37 7.441-7.812 9.673-3.441 2.233-7.534 3.442-12.557 2.512z"
       id="path159" />
    <path
       fill="#4d4d4d"
       d="M884.151 448.213c-5.023-.93-10.975-3.999-14.092-9.487-3.117-5.488-3.396-13.395-.512-19.256 2.883-5.861 8.929-9.674 14.883-10.604 5.955-.929 11.815 1.024 15.534 3.629 3.72 2.604 5.302 5.861 5.906 10.047.604 4.185.231 9.301-1.35 13.486-1.581 4.185-4.37 7.441-7.812 9.673-3.441 2.233-7.534 3.442-12.557 2.512z"
       id="path161" />
    <path
       fill="#666"
       d="M885.115 441.186c-3.226-.597-7.048-2.568-9.049-6.091-2.001-3.524-2.181-8.601-.329-12.364 1.852-3.764 5.733-6.212 9.557-6.809 3.823-.597 7.586.657 9.974 2.33 2.389 1.672 3.404 3.763 3.792 6.451.388 2.687.149 5.972-.866 8.659-1.015 2.688-2.807 4.778-5.016 6.212-2.21 1.433-4.838 2.21-8.063 1.612z"
       id="path163" />
    <path
       fill="none"
       stroke="#4d4d4d"
       stroke-linejoin="round"
       stroke-width="2"
       d="M856.9 417.462c0-.817 0-1.632.06-5.171.06-3.539.185-9.801.309-16.062l-27.395-5.717-.594 20.12 27.618 6.83z"
       id="path165" />
    <path
       fill="none"
       stroke="#4d4d4d"
       stroke-linecap="round"
       stroke-width="2"
       d="M852.297 412.785v-11.73M848.065 411.374v-11.73M843.165 410.483v-11.73M839.527 409.518v-11.73M835.072 408.107v-11.73"
       id="path167" />
    <path
       fill="none"
       stroke="#c10624"
       stroke-linejoin="round"
       stroke-width="2"
       d="m907.236 375.812 15.739-52.117 43.209-13.067 3.861 72.905-61.919 24.797-.89-32.518z"
       id="path169" />
    <path
       fill="none"
       stroke="#c10624"
       stroke-linejoin="round"
       stroke-width="2"
       d="M862.839 389.77c14.8-4.653 29.598-9.305 44.397-13.958l-40.388-10.987-46.178 14.699 42.169 10.246"
       id="path171" />
    <path
       fill="none"
       stroke="#c10624"
       stroke-linejoin="round"
       stroke-width="2"
       d="m866.848 364.825 15.591-48.852 40.387-7.572 43.358 2.227-43.209 13.067-15.739 52.117-40.388-10.987z"
       id="path173" />
    <path
       fill="none"
       stroke="#c10624"
       stroke-linejoin="round"
       stroke-width="2"
       d="M882.439 315.973c13.513 2.574 27.025 5.148 40.536 7.722"
       id="path175" />
    <path
       fill="none"
       stroke="#c10624"
       stroke-width="2"
       d="M933.963 397.342c-.941-18.61-1.881-37.218-2.155-47.605-.274-10.387.125-12.579 3.169-14.51 3.045-1.931 8.737-3.613 12.375-4.306 3.638-.693 5.222-.396 6.112 2.896.89 3.292 1.088 9.577 1.459 19.279.372 9.701.916 22.815 1.461 35.931l-22.421 8.315z"
       id="path177" />
    <path
       fill="#333"
       d="M970.44 406.124c-5.023-.93-10.975-3.999-14.092-9.487-3.117-5.488-3.396-13.395-.512-19.256 2.883-5.861 8.929-9.674 14.883-10.604 5.955-.929 11.815 1.024 15.534 3.629 3.72 2.604 5.302 5.861 5.906 10.047.604 4.185.231 9.301-1.35 13.486-1.581 4.185-4.37 7.441-7.812 9.673-3.441 2.233-7.534 3.442-12.557 2.512z"
       id="path179" />
    <path
       fill="#4d4d4d"
       d="M978.209 408.854c-5.023-.93-10.975-3.999-14.092-9.487-3.117-5.488-3.396-13.395-.512-19.256 2.883-5.861 8.929-9.674 14.883-10.604 5.955-.929 11.815 1.024 15.534 3.629 3.719 2.605 5.3 5.863 5.903 10.047.605 4.185.235 9.301-1.348 13.486-1.58 4.185-4.369 7.441-7.811 9.673-3.441 2.233-7.534 3.442-12.557 2.512z"
       id="path181" />
    <path
       fill="#666"
       d="M979.173 401.827c-3.226-.597-7.048-2.568-9.049-6.091-2.001-3.524-2.181-8.601-.329-12.364 1.852-3.764 5.733-6.212 9.557-6.809 3.823-.597 7.586.657 9.974 2.33 2.389 1.672 3.404 3.763 3.792 6.451.388 2.687.149 5.972-.866 8.659-1.015 2.688-2.807 4.778-5.016 6.212-2.21 1.433-4.838 2.21-8.063 1.612z"
       id="path183" />
    <path
       fill="none"
       stroke="#c10624"
       stroke-linecap="round"
       stroke-width="2"
       d="M938.566 362.152c-.248.991-.496 1.981-.792 2.005-.297.03-.643-.915.149-1.634.792-.718 2.722-1.213 4.652-1.708"
       id="path185" />
    <path
       fill="#9ec0e6"
       d="m881.548 356.881 9.726-28.287 19.005 1.857-9.205 31.701-19.526-5.271z"
       id="path187" />
    <path
       fill="none"
       stroke="#7e9ec2"
       stroke-linecap="round"
       d="M895.208 357.549c1.956-1.114 3.91-2.227 5.866-3.341M897.733 358.737c1.064-.619 2.129-1.238 3.192-1.856"
       id="path189" />
    <path
       fill="url(#w)"
       d="M1692.71 153.431c-7.49 2.24-10.99 2.1-37.87 2.38-26.88.28-77.13.98-108.98-1.19-31.85-2.17-45.29-7.209-53.62-17.429-8.33-10.219-11.55-25.618-7.84-38.2873 3.71-12.6693 14.35-22.6087 26.32-23.6587 11.97-1.0501 25.27 6.7894 32.62 11.4093 7.35 4.6199 8.75 6.0193 10.15 7.4192 7.7-16.0991 15.4-32.1973 27.02-40.9473 11.62-8.7501 27.16-10.1503 38.99-6.6474 11.83 3.5029 19.94 11.8973 25.33 21.907 5.39 10.0097 8.05 21.6279 10.71 33.2472 10.36-9.7994 20.72-19.5983 32.9-23.0983s26.18-.7002 35.7 4.0598c9.52 4.7601 14.56 11.4796 13.65 21.6995-.91 10.22-7.77 23.938-16.94 33.107-9.17 9.17-20.65 13.789-28.14 16.029z"
       id="path191" />
    <path
       fill="url(#x)"
       d="M1190.61 174.915c-9.93 2.971-14.57 2.786-50.21 3.157-35.65.371-102.28 1.299-144.516-1.579-42.236-2.877-60.058-9.56-71.104-23.111-11.047-13.552-15.316-33.972-10.397-50.773 4.919-16.7999 19.029-29.9803 34.902-31.3724 15.874-1.392 33.507 9.002 43.253 15.1274 9.742 6.1253 11.602 7.9841 13.462 9.8401 10.21-21.3487 20.42-42.6965 35.83-54.2996 15.41-11.6031 36.01-13.4588 51.7-8.8141 15.68 4.6448 26.44 15.7751 33.59 29.0501 7.15 13.2749 10.67 28.6804 14.2 44.0885 13.74-12.9947 27.48-25.9893 43.63-30.6307 16.15-4.6414 34.72-.9275 47.34 5.386 12.63 6.3134 19.31 15.2221 18.1 28.7727-1.21 13.55-10.3 31.743-22.46 43.902-12.16 12.16-27.38 18.285-37.32 21.256z"
       id="path193" />
    <path
       fill="url(#y)"
       d="M1218.79 222.307c-7.49 2.24-10.99 2.1-37.87 2.38-26.88.28-77.13.98-108.98-1.19-31.85-2.17-45.29-7.209-53.62-17.429-8.33-10.219-11.55-25.618-7.84-38.287 3.71-12.67 14.35-22.609 26.32-23.659 11.97-1.05 25.27 6.79 32.62 11.409 7.35 4.62 8.75 6.019 10.15 7.419 7.7-16.099 15.4-32.197 27.02-40.947s27.16-10.15 38.99-6.647c11.83 3.503 19.94 11.897 25.33 21.907 5.39 10.01 8.05 21.628 10.71 33.247 10.36-9.799 20.72-19.598 32.9-23.098s26.18-.701 35.7 4.059c9.52 4.761 14.56 11.48 13.65 21.7-.91 10.22-7.77 23.938-16.94 33.107-9.17 9.17-20.65 13.789-28.14 16.029z"
       id="path195" />
    <path
       fill="url(#z)"
       d="M749.584 148.659c-7.49 2.24-10.99 2.1-37.87 2.38-26.88.28-77.13.98-108.979-1.19-31.849-2.17-45.289-7.209-53.619-17.429-8.33-10.219-11.55-25.618-7.84-38.2874 3.709-12.6693 14.35-22.609 26.32-23.6586 11.97-1.0497 25.27 6.7901 32.619 11.4097 7.35 4.6196 8.749 6.0186 10.149 7.4183 7.7-16.099 15.4-32.1972 27.02-40.9471 11.62-8.7499 27.16-10.1498 38.988-6.647 11.827 3.5028 19.943 11.8975 25.333 21.9072 5.389 10.0098 8.049 21.6276 10.709 33.2469 10.36-9.7993 20.72-19.5984 32.9-23.0983 12.18-3.5 26.18-.7003 35.7 4.0597 9.521 4.7601 14.56 11.4794 13.65 21.6993-.911 10.2203-7.77 23.9383-16.94 33.1073-9.17 9.17-20.65 13.789-28.14 16.029z"
       id="path197" />
    <path
       fill="url(#A)"
       d="M283.533 173.866c-7.49 2.24-10.99 2.1-37.87 2.38-26.88.28-77.13.98-108.978-1.19-31.849-2.17-45.2893-7.209-53.6193-17.429-8.33-10.219-11.55-25.618-7.8403-38.287 3.7096-12.67 14.35-22.6092 26.3206-23.659 11.97-1.0497 25.27 6.79 32.619 11.41 7.35 4.619 8.749 6.018 10.149 7.418 7.7-16.099 15.399-32.1971 27.019-40.947 11.62-8.75 27.16-10.1499 38.988-6.6471 11.827 3.5028 19.943 11.8975 25.333 21.9072 5.389 10.0098 8.049 21.6279 10.709 33.2469 10.36-9.799 20.72-19.598 32.9-23.0983 12.18-3.5 26.18-.7003 35.7 4.0593 9.521 4.761 14.56 11.48 13.65 21.7-.911 10.22-7.77 23.938-16.94 33.107-9.17 9.17-20.65 13.789-28.14 16.029z"
       id="path199" />
    <path
       fill="url(#B)"
       d="M321.835 200.959c-5.74 1.717-8.422 1.609-29.021 1.824-20.6.214-59.109.751-83.516-.912-24.408-1.663-34.708-5.525-41.091-13.357-6.384-7.831-8.852-19.632-6.009-29.342 2.843-9.709 10.998-17.327 20.171-18.131 9.174-.804 19.366 5.204 24.998 8.745 5.632 3.54 6.704 4.612 7.777 5.684 5.901-12.337 11.801-24.674 20.706-31.379 8.905-6.706 20.814-7.779 29.878-5.095 9.064 2.685 15.284 9.118 19.414 16.789 4.131 7.671 6.169 16.574 8.208 25.479 7.939-7.51 15.878-15.019 25.213-17.701 9.334-2.683 20.063-.537 27.359 3.111 7.296 3.647 11.158 8.796 10.46 16.629-.698 7.832-5.955 18.345-12.982 25.372-7.027 7.027-15.825 10.568-21.565 12.284z"
       id="path201" />
    <path
       fill="#623401"
       d="M295.873 511.635c1.61.84 3.22 1.68 4.672 1.768 1.452.09 2.747-.578 3.43-1.278.682-.699.752-1.434.857-8.714.105-7.279.245-21.104.385-34.928l-8.714 6.299-.63 36.853z"
       id="path203" />
    <path
       fill="none"
       stroke="#fccb19"
       stroke-width="3"
       d="M351.065 426.87c2.59-1.295 7.035-2.205 9.187-2.625 2.153-.42 2.012-.35.665.21-1.347.56-3.902 1.61-6.142 2.537-2.24.928-4.165 1.733-3.098 2.276 1.068.542 5.128.822 8.156.997 3.027.175 5.022.245 4.007.7-1.015.455-5.04 1.295-7.893 1.715-2.852.42-4.532.42-3.902 1.173.63.752 3.57 2.257 5.355 3.132 1.785.874 2.415 1.119 1.155.717s-4.41-1.452-4.498-.787c-.09.665 2.888 3.045 2.626 3.255-.263.21-3.763-1.751-5.88-3.028-2.117-1.277-2.852-1.871-3.255-2.694-.403-.822-.473-1.872-.141-3.237.333-1.366 1.068-3.046 3.658-4.341zM281.154 473.812c.124.495.248.99.321 2.364.07 1.373.1 3.625.962 3.699.866.07 2.574-2.03 3.823-1.868 1.25.161 2.042 2.586 3.391 2.277 1.348-.31 3.254-3.354 3.204-3.193-.05.16-2.054 3.527-3.65 5.444-1.595 1.918-2.783 2.388-2.994 1.163-.211-1.224.557-4.144 2.859-3.847 2.302.297 6.137 3.811 7.857 5.283 1.72 1.473 1.324.904.977-.927-.347-1.832-.644-4.925-1.424-5.272-.779-.347-2.041 2.053-1.1 1.608.94-.446 4.083-3.737 5.766-4.132 1.683-.396 1.905 2.103 2.351 2.326.445.223 1.113-1.831 2.562-1.373 1.448.458 3.675 3.427 4.652 5.11.977 1.682.705 2.078-.495 1.336-1.2-.742-3.328-2.623-3.576-4.64-.248-2.018 1.385-4.171 3.489-3.131 2.104 1.04 4.678 5.272 4.827 7.029.148 1.757-2.129 1.039-3.033-.594-.903-1.633-.433-4.182.656-4.244 1.089-.06 2.797 2.363 3.379 3.612.583 1.25.04 1.324-2.228 1.361-2.264.04-6.248.04-8.525-1.274-2.277-1.311-2.846-3.934-3.181-6.075-.334-2.141-.433-3.799-.532-5.458"
       id="path205" />
    <path
       fill="#95724a"
       d="M274.489 471.073c.175 1.819.175 1.819 1.12 2.87.946 1.05 2.836 3.15 5.6 4.165 2.765 1.014 6.405.944 10.01.664 3.605-.28 7.175-.77 11.059-.84 3.885-.07 8.085.28 12.424-.315 4.34-.595 8.82-2.135 11.619-4.76 2.8-2.624 3.92-6.333 3.815-11.163-.105-4.83-1.435-10.779-2.554-14.489-1.12-3.71-2.031-5.181-2.941-6.651 7.35.7 14.7 1.4 18.934 1.12 4.235-.28 5.355-1.54 6.194-3.465.84-1.924 1.4-4.513 1.19-7.068-.209-2.555-1.189-5.075-2.378-6.37-1.19-1.296-2.59-1.366-7.525-1.401-4.935-.04-13.404-.04-19.389.385-5.985.42-9.484 1.26-13.754 1.645s-9.309.315-13.579.04c-4.27-.28-7.77-.77-10.045-1.435-2.275-.664-3.324-1.504-5.354-1.924-2.03-.421-5.04-.421-10.08.524-5.04.945-12.109 2.835-16.065 4.2-3.955 1.365-4.795 2.205-4.549 3.08.245.875 1.575 1.786 1.714 3.676.14 1.89-.91 4.759-1.12 6.193-.209 1.435.421 1.435 2.871 1.12 2.45-.315 6.72-.945 11.549-1.925 4.829-.98 10.219-2.309 15.609-3.639-1.47 2.03-2.94 4.059-3.815 8.505-.875 4.445-1.155 11.304-1.12 16.554.04 5.25.385 8.89.56 10.709z"
       id="path207" />
    <path
       fill="#faf0ad"
       stroke="#dbdc8b"
       d="M301.81 385.298c-.148.03-.442.08-1.501.248-1.058.167-2.878.447-4.54.482-1.662.03-3.168-.175-4.367-.04-1.199.14-2.091.63-2.643 1.05-.551.42-.761.769-1.19 1.644-.428.875-1.076 2.276-1.505 3.431-.428 1.155-.638 2.065-.541 2.476.1.41.499.323 3.613.271 3.115-.05 8.942-.07 12.332.06 3.39.125 4.341.393 4.625-.256.283-.65-.102-2.214-.675-3.854-.573-1.64-1.333-3.352-1.94-4.287-.608-.936-1.062-1.094-1.291-1.173l-.228-.08-.149.02z"
       id="path209" />
    <path
       fill="none"
       stroke="#dbdc8b"
       stroke-linecap="round"
       stroke-width="2"
       d="M279.386 409.669c-.575-.261-1.149-.522-2.244-1.313-1.094-.791-2.71-2.112-2.887-3.787-.178-1.675 1.085-3.706 3.065-5.5 1.979-1.794 4.677-3.354 8.006-4.529 3.329-1.176 7.288-1.967 11.285-2.277 3.997-.309 8.031-.136 11.545.347 3.514.482 6.508 1.274 8.723 2.525 2.215 1.25 3.65 2.957 4.281 4.429.631 1.473.457 2.711-.332 3.997s-2.193 2.622-3.89 3.439c-1.696.816-3.684 1.113-5.865 1.361s-4.554.446-9.321.8c-4.766.355-11.926.865-16.052.976-4.127.111-5.22-.178-6.314-.468"
       id="path211" />
    <path
       fill="#cabe6e"
       d="M277.798 409.512c-1.348-.805-3.448-2.31-4.009-4.357-.56-2.048.42-4.637 3.57-7.035 3.15-2.398 8.47-4.603 14.14-5.653 5.67-1.05 11.689-.945 16.257-.385 4.567.56 7.681 1.575 9.886 3.046 2.205 1.47 3.5 3.395 3.849 5.18.35 1.785-.245 3.429-1.295 4.741-1.05 1.312-2.555 2.292-3.832 2.729-1.277.438-2.326.333-6.316.491-3.99.157-10.92.577-16.362.997-5.442.42-9.397.84-11.671.998-2.275.157-2.87.05-4.217-.752z"
       id="path213" />
    <path
       fill="#ea940e"
       stroke="#d38203"
       stroke-width="2"
       d="M283.072 402.96c-1.621 2.104-2.586 4.628-2.673 7.561-.09 2.933.706 6.274 1.758 8.6 1.052 2.326 2.364 3.638 4.962 4.653 2.599 1.014 6.484 1.732 10.506 1.991 4.021.26 8.178.06 11.271-.52 3.094-.582 5.123-1.547 6.496-3.427 1.373-1.88 2.091-4.677 2.24-7.177.148-2.499-.272-4.701-.965-6.953-.693-2.252-1.658-4.554-3.824-6.385-2.165-1.832-5.53-3.192-9.663-3.75-4.133-.557-9.033-.309-12.622.655-3.588.965-5.865 2.648-7.486 4.752z"
       id="path215" />
    <path
       fill="none"
       stroke="#d28102"
       stroke-linecap="round"
       stroke-width="2"
       d="M309.095 399.16c1.204 4.666 2.408 9.331 2.75 13.1.342 3.768-.177 6.638-.809 8.667-.631 2.029-1.373 3.217-2.116 4.405M303.055 425.777c1.015-1.856 2.029-3.712 2.598-6.31.57-2.598.693-5.939.36-9.007-.334-3.069-1.126-5.866-1.81-7.987-.684-2.122-1.26-3.568-1.837-5.015M295.111 425.406c-.445-1.657-.89-3.315-1.088-6.433-.198-3.119-.149-7.697.299-11.51.448-3.812 1.293-6.858 2.139-9.906M289.914 424.663c-1.336-2.721-2.672-5.443-3.266-8.326-.594-2.883-.446-5.927-.06-8.608.387-2.68 1.013-4.997 1.681-6.501.668-1.503 1.379-2.192 2.089-2.881"
       id="path217" />
    <path
       fill="none"
       stroke="#fccb19"
       stroke-linecap="round"
       stroke-linejoin="round"
       stroke-width="3"
       d="M295.119 520.062c.06-.257.111-.513.592-1.173s1.386-1.722 2.291-2.784"
       id="path219" />
    <path
       fill="none"
       stroke="#fccb19"
       stroke-linecap="round"
       stroke-linejoin="round"
       stroke-width="3"
       d="M301.59 520.062c-.19-.08-.379-.156-1.167-.894-.788-.737-2.174-2.134-3.264-3.29-1.089-1.157-1.883-2.074-2.677-2.991"
       id="path221" />
    <path
       fill="none"
       stroke="#fccb19"
       stroke-linecap="round"
       stroke-linejoin="round"
       stroke-width="3"
       d="M293.543 514.898c3.342-.469 6.684-.939 9.249-1.229 2.565-.291 4.353-.402 5.448-.07 1.095.33 1.497 1.101 1.899 1.871"
       id="path223" />
    <path
       fill="none"
       stroke="#fccb19"
       stroke-linecap="round"
       stroke-linejoin="round"
       stroke-width="3"
       d="M307.792 508.327c-.838 2.638-1.676 5.276-2.419 6.717-.742 1.441-1.391 1.687-2.04 1.933"
       id="path225" />
    <path
       fill="none"
       stroke="#fccb19"
       stroke-linecap="round"
       stroke-linejoin="round"
       stroke-width="3"
       d="M316.443 511.814c-.178 0-.357 0-2.24.06-1.883.06-5.471.185-7.511.313-2.039.129-2.531.263-3.024.397M289.251 509.769c.09 0 .18 0 1.284.311 1.103.311 3.221.933 4.607 1.476 1.386.542 2.04 1.004 2.641 1.257.6.253 1.148.297 1.694.342"
       id="path227" />
    <path
       fill="none"
       stroke="#fccb19"
       stroke-linecap="round"
       stroke-linejoin="round"
       stroke-width="3"
       d="M290.156 514.664c.749-1.442 1.498-2.883 2.722-3.783 1.225-.9 2.923-1.257 4.621-1.615"
       id="path229" />
    <path
       fill="#b77c57"
       d="m603.515 605.66 163.083-113.192-249.99-90.125-141.088 78.323L603.515 605.66zM576.692 616.926 362.109 496.223l-184.542 98.172 218.875 141.624 180.25-119.093zM-43.9895 732.801 146.989 610.488 358.89 786.446 174.885 923.78-43.9895 732.801z"
       id="path231" />
    <path
       fill="#321d01"
       stroke="#000"
       stroke-linejoin="round"
       stroke-width="5"
       d="m384.736 410.55 104.341-26.286c-.268-31.651-.537-63.301-1.922-80.468-1.386-17.166-3.889-19.848-9.143-21.699-5.254-1.85-13.255-2.867-19.238-4.274-5.983-1.406-9.938-3.2-13.425-5.558-3.487-2.358-6.504-5.28-9.241-8.433-2.737-3.154-5.193-6.538-6.422-8.233-1.229-1.694-1.229-1.694-1.007-.258.223 1.435.668 4.309-2.284 9.723-2.952 5.414-9.3 13.371-16.406 18.239-7.107 4.867-14.973 6.645-19.577 12.72-4.603 6.075-5.944 16.446-6.615 21.631-.67 5.185-.67 61.245-.402 66.521.268 5.276.805 15.825 1.341 26.375z"
       id="path233" />
    <path
       fill="none"
       stroke="#000"
       stroke-linejoin="round"
       stroke-width="5"
       d="m384.736 410.55-74.567-64.375 1.073-64.643 72.153 37.284 1.341 91.734z"
       id="path235" />
    <path
       stroke="#000"
       stroke-linejoin="round"
       stroke-width="5"
       d="M383.395 318.816c1.52-7.421 3.04-14.841 5.767-19.938 2.727-5.097 6.661-7.868 10.595-10.327 3.934-2.459 7.868-4.605 11.758-7.377 3.889-2.771 7.733-6.169 10.55-10.818 2.816-4.648 4.604-10.55 6.392-16.451l-60.351-11.534c-3.04 4.113-6.08 8.225-10.684 11.891-4.605 3.666-10.774 6.885-16.317 8.807-5.543 1.923-10.461 2.548-14.976 4.292-4.516 1.743-8.629 4.604-11.043 7.153-2.414 2.549-3.129 4.783-3.844 7.018l72.153 37.284z"
       id="path237" />
    <path
       fill="#b20325"
       stroke="#f9f9f9"
       stroke-linejoin="round"
       stroke-width="5"
       d="m380.942 402.3-.866-80.829-64.756-34.249-1.453 57.056 67.075 58.022z"
       id="path239" />
    <path
       fill="#b20325"
       stroke="#fff"
       stroke-linejoin="round"
       stroke-width="4.4633"
       d="m388.548 406.408 97.408-24.982c-.682-29.961-1.364-59.92-2.822-76.098-1.458-16.177-3.692-18.571-8.688-20.02-4.997-1.449-12.75-1.952-19.781-3.879-7.032-1.927-13.335-5.278-17.51-9.595-4.176-4.317-6.22-9.598-6.978-10.048-.758-.45-.23 3.93-3.037 9.419-2.807 5.488-8.947 12.084-15.623 16.398s-13.886 6.343-18.059 12.034c-4.173 5.692-5.307 15.045-5.574 28.046-.266 13.001.334 29.648.589 43.379.256 13.73.165 24.537.07 35.346z"
       id="path241" />
    <path
       fill="#321d01"
       d="m468.818 392.415-25.901 6.075-.189-57.928 20.457-2.564 5.633 54.417z"
       id="path243" />
    <path
       fill="#75420a"
       d="m457.267 409.083 9.673-17.439-3.755-53.646-6.107 13.427.189 57.658zM412.222 404.385l.633-57.754 29.873-6.069.189 57.928-30.251 7.981-.444-2.086z"
       id="path245" />
    <path
       fill="none"
       stroke="#623401"
       stroke-linecap="round"
       stroke-width="5"
       d="M412.222 404.385c.05-19.401.09-38.803.223-48.661.134-9.858.358-10.171 9.121-11.758 8.763-1.587 26.063-4.448 34.892-5.543 8.829-1.094 9.187-.424 9.522 8.741.335 9.165.647 26.823.96 44.48"
       id="path247" />
    <path
       fill="none"
       stroke="#623401"
       stroke-linecap="round"
       stroke-width="5"
       d="M442.917 395.707c-.06-18.38-.126-36.763-.189-55.145M457.267 409.083c-.06-19.218-.126-38.438-.189-57.658M457.078 351.425c2.036-4.476 4.071-8.95 6.107-13.427M457.267 409.083c3.225-5.814 6.448-11.625 9.673-17.439"
       id="path249" />
    <path
       fill="none"
       stroke="#623401"
       stroke-linecap="round"
       stroke-width="5"
       d="M412.222 404.385c.05-19.401.09-38.803.223-48.661.134-9.858.358-10.171 9.121-11.758 8.763-1.587 26.063-4.448 34.892-5.543 8.829-1.094 9.187-.424 9.522 8.741.335 9.165.647 26.823.96 44.48"
       id="path251" />
    <path
       fill="none"
       stroke="#ab7149"
       stroke-linecap="round"
       stroke-width="4"
       d="M414.145 474.228c8.763 6.26 17.525 12.518 30.311 18.956 12.786 6.437 29.594 13.053 44.973 21.369 15.379 8.315 29.326 18.329 50.159 26.823s48.549 15.467 63.391 20.52c14.842 5.052 16.808 8.18 18.775 11.309"
       id="path253" />
    <path
       fill="none"
       stroke="#e7b32b"
       stroke-linecap="round"
       stroke-linejoin="round"
       stroke-width="3"
       d="m428.093 466.316.626 1.118c.626 1.118 1.878 3.353 2.548 5.901.67 2.548.76 5.409.715 7.197-.05 1.789-.223 2.504.07 1.856.291-.649 1.051-2.66 2.213-4.494 1.163-1.833 2.727-3.487 4.046-4.917 1.319-1.431 2.392-2.638 2.392-2.884s-1.072.469-2.772 2.548c-1.699 2.079-4.023 5.521-4.56 5.097-.536-.424.715-4.716 1.967-9.008M451.991 479.972s0 0 0 0c1.252 2.236 2.504 4.471 3.174 7.019.67 2.548.76 5.409.715 7.197-.05 1.789-.223 2.504.07 1.856.291-.649 1.051-2.66 2.213-4.494 1.163-1.833 2.727-3.487 4.046-4.917 1.319-1.431 2.392-2.638 2.392-2.884s-1.072.469-2.772 2.548c-1.699 2.079-4.023 5.521-4.56 5.097-.536-.424.715-4.716 1.967-9.008M475.32 490.404s0 0 0 0c1.252 2.236 2.504 4.471 3.174 7.019.67 2.548.76 5.409.715 7.197-.05 1.789-.223 2.504.07 1.856.291-.649 1.051-2.66 2.213-4.494 1.163-1.833 2.727-3.487 4.046-4.917 1.319-1.431 2.392-2.638 2.392-2.884s-1.072.469-2.772 2.548c-1.699 2.079-4.023 5.521-4.56 5.097-.536-.424.715-4.716 1.967-9.008M501.873 505.577s0 0 0 0c1.252 2.236 2.504 4.471 3.174 7.019.67 2.548.76 5.409.715 7.197-.05 1.789-.223 2.504.07 1.856.291-.649 1.051-2.66 2.213-4.494 1.163-1.833 2.727-3.487 4.046-4.917 1.319-1.431 2.392-2.638 2.392-2.884s-1.072.469-2.772 2.548c-1.699 2.079-4.023 5.521-4.56 5.097-.536-.424.715-4.716 1.967-9.008M526.15 518.285s0 0 0 0c1.252 2.236 2.504 4.471 3.174 7.019.67 2.548.76 5.409.715 7.197-.04 1.789-.223 2.504.07 1.856.291-.649 1.051-2.66 2.213-4.494 1.163-1.833 2.727-3.487 4.046-4.917 1.319-1.431 2.392-2.638 2.392-2.884s-1.072.469-2.772 2.548c-1.699 2.079-4.023 5.521-4.56 5.097-.536-.424.715-4.716 1.967-9.008M547.393 528.906s0 0 0 0c1.252 2.236 2.504 4.471 3.174 7.019.67 2.548.76 5.409.715 7.197-.05 1.789-.223 2.504.07 1.856.291-.649 1.051-2.66 2.213-4.494 1.163-1.833 2.727-3.487 4.046-4.917 1.319-1.431 2.392-2.638 2.392-2.884s-1.072.469-2.772 2.548c-1.699 2.079-4.023 5.521-4.56 5.097-.536-.424.715-4.716 1.967-9.008M573.757 534.786s0 0 0 0c1.252 2.236 2.504 4.471 3.174 7.019.67 2.548.76 5.409.715 7.197-.04 1.789-.223 2.504.07 1.856.291-.649 1.051-2.66 2.213-4.494 1.163-1.833 2.727-3.487 4.046-4.917 1.319-1.431 2.392-2.638 2.392-2.884s-1.072.469-2.772 2.548c-1.699 2.079-4.023 5.521-4.56 5.097-.536-.424.715-4.716 1.967-9.008M598.224 543.321s0 0 0 0c1.252 2.236 2.504 4.471 3.174 7.019.67 2.548.76 5.409.715 7.197-.05 1.789-.223 2.504.07 1.856.291-.649 1.051-2.66 2.213-4.494 1.163-1.833 2.727-3.487 4.046-4.917 1.319-1.431 2.392-2.638 2.392-2.884s-1.072.469-2.772 2.548c-1.699 2.079-4.023 5.521-4.56 5.097-.536-.424.715-4.716 1.967-9.008"
       id="path255" />
    <path
       fill="none"
       stroke="#ab7149"
       stroke-linecap="round"
       stroke-width="4"
       d="M452.078 443.123c8.763 6.26 17.525 12.518 30.311 18.956 12.786 6.437 29.594 13.053 44.973 21.369 15.379 8.315 29.326 18.329 50.159 26.823s48.549 15.467 63.391 20.52c14.842 5.052 16.808 8.18 18.775 11.309"
       id="path257" />
    <path
       fill="none"
       stroke="#e7b32b"
       stroke-linecap="round"
       stroke-linejoin="round"
       stroke-width="3"
       d="m466.026 435.211.626 1.118c.626 1.118 1.878 3.353 2.548 5.901.67 2.548.76 5.409.715 7.197-.05 1.789-.223 2.504.07 1.856.291-.649 1.051-2.66 2.213-4.494 1.163-1.833 2.727-3.487 4.046-4.917 1.319-1.431 2.392-2.638 2.392-2.884s-1.072.469-2.772 2.548c-1.699 2.079-4.023 5.521-4.56 5.097-.536-.424.715-4.716 1.967-9.008M489.924 448.867s0 0 0 0c1.252 2.236 2.504 4.471 3.174 7.019.67 2.548.76 5.409.715 7.197-.05 1.789-.223 2.504.07 1.856.291-.649 1.051-2.66 2.213-4.494 1.163-1.833 2.727-3.487 4.046-4.917 1.319-1.431 2.392-2.638 2.392-2.884s-1.072.469-2.772 2.548c-1.699 2.079-4.023 5.521-4.56 5.097-.536-.424.715-4.716 1.967-9.008M513.253 459.299s0 0 0 0c1.252 2.236 2.504 4.471 3.174 7.019.67 2.548.76 5.409.715 7.197-.05 1.789-.223 2.504.07 1.856.291-.649 1.051-2.66 2.213-4.494 1.163-1.833 2.727-3.487 4.046-4.917 1.319-1.431 2.392-2.638 2.392-2.884s-1.072.469-2.772 2.548c-1.699 2.079-4.023 5.521-4.56 5.097-.536-.424.715-4.716 1.967-9.008M539.806 474.472s0 0 0 0c1.252 2.236 2.504 4.471 3.174 7.019.67 2.548.76 5.409.715 7.197-.05 1.789-.223 2.504.07 1.856.291-.649 1.051-2.66 2.213-4.494 1.163-1.833 2.727-3.487 4.046-4.917 1.319-1.431 2.392-2.638 2.392-2.884s-1.072.469-2.772 2.548c-1.699 2.079-4.023 5.521-4.56 5.097-.536-.424.715-4.716 1.967-9.008M564.083 487.18s0 0 0 0c1.252 2.236 2.504 4.471 3.174 7.019.67 2.548.76 5.409.715 7.197-.04 1.789-.223 2.504.07 1.856.291-.649 1.051-2.66 2.213-4.494 1.163-1.833 2.727-3.487 4.046-4.917 1.319-1.431 2.392-2.638 2.392-2.884s-1.072.469-2.772 2.548c-1.699 2.079-4.023 5.521-4.56 5.097-.536-.424.715-4.716 1.967-9.008M585.326 497.801s0 0 0 0c1.252 2.236 2.504 4.471 3.174 7.019.67 2.548.76 5.409.715 7.197-.05 1.789-.223 2.504.07 1.856.291-.649 1.051-2.66 2.213-4.494 1.163-1.833 2.727-3.487 4.046-4.917 1.319-1.431 2.392-2.638 2.392-2.884s-1.072.469-2.772 2.548c-1.699 2.079-4.023 5.521-4.56 5.097-.536-.424.715-4.716 1.967-9.008M611.69 503.681s0 0 0 0c1.252 2.236 2.504 4.471 3.174 7.019.67 2.548.76 5.409.715 7.197-.04 1.789-.223 2.504.07 1.856.291-.649 1.051-2.66 2.213-4.494 1.163-1.833 2.727-3.487 4.046-4.917 1.319-1.431 2.392-2.638 2.392-2.884s-1.072.469-2.772 2.548c-1.699 2.079-4.023 5.521-4.56 5.097-.536-.424.715-4.716 1.967-9.008M636.157 512.216s0 0 0 0c1.252 2.236 2.504 4.471 3.174 7.019.67 2.548.76 5.409.715 7.197-.05 1.789-.223 2.504.07 1.856.291-.649 1.051-2.66 2.213-4.494 1.163-1.833 2.727-3.487 4.046-4.917 1.319-1.431 2.392-2.638 2.392-2.884s-1.072.469-2.772 2.548c-1.699 2.079-4.023 5.521-4.56 5.097-.536-.424.715-4.716 1.967-9.008"
       id="path259" />
    <path
       fill="url(#C)"
       d="M466.453 724.878c6.72-7.56 21.279-7.56 60.757-16.52 39.479-8.959 103.874-26.878 152.311-50.677 48.437-23.799 80.914-53.476 136.632-78.955 55.719-25.479 134.672-46.757 224.547-64.117 89.88-17.359 190.67-30.798 264.86-43.118 74.2-12.319 121.8-23.519 188.15-14.278 66.36 9.241 151.47 38.917 211.95 99.956 60.48 61.039 96.31 153.432 95.75 243.308-.56 89.875-37.51 177.226-202.99 203.263-165.47 26.04-459.45-9.238-653.197-46.756-193.748-37.518-287.261-77.275-351.097-110.033-63.837-32.758-97.994-58.516-115.633-78.955-17.64-20.439-18.76-35.558-12.04-43.118z"
       id="path261" />
    <path
       fill="none"
       stroke="#ab7149"
       stroke-linecap="round"
       stroke-width="4"
       d="M495.701 415.811c8.763 6.26 17.525 12.518 30.311 18.956 12.786 6.437 29.594 13.053 44.973 21.369 15.379 8.315 29.326 18.329 50.159 26.823s48.549 15.467 63.391 20.52c14.842 5.052 16.808 8.18 18.775 11.309"
       id="path263" />
    <path
       fill="none"
       stroke="#e7b32b"
       stroke-linecap="round"
       stroke-linejoin="round"
       stroke-width="3"
       d="m509.649 407.899.626 1.118c.626 1.118 1.878 3.353 2.548 5.901.67 2.548.76 5.409.715 7.197-.04 1.789-.223 2.504.07 1.856.291-.649 1.051-2.66 2.213-4.494 1.163-1.833 2.727-3.487 4.046-4.917 1.319-1.431 2.392-2.638 2.392-2.884s-1.072.469-2.772 2.548c-1.699 2.079-4.023 5.521-4.56 5.097-.536-.424.715-4.716 1.967-9.008M533.547 421.555s0 0 0 0c1.252 2.236 2.504 4.471 3.174 7.019.67 2.548.76 5.409.715 7.197-.05 1.789-.223 2.504.07 1.856.291-.649 1.051-2.66 2.213-4.494 1.163-1.833 2.727-3.487 4.046-4.917 1.319-1.431 2.392-2.638 2.392-2.884s-1.072.469-2.772 2.548c-1.699 2.079-4.023 5.521-4.56 5.097-.536-.424.715-4.716 1.967-9.008M556.876 431.987s0 0 0 0c1.252 2.236 2.504 4.471 3.174 7.019.67 2.548.76 5.409.715 7.197-.04 1.789-.223 2.504.07 1.856.291-.649 1.051-2.66 2.213-4.494 1.163-1.833 2.727-3.487 4.046-4.917 1.319-1.431 2.392-2.638 2.392-2.884s-1.072.469-2.772 2.548c-1.699 2.079-4.023 5.521-4.56 5.097-.536-.424.715-4.716 1.967-9.008M583.429 447.16s0 0 0 0c1.252 2.236 2.504 4.471 3.174 7.019.67 2.548.76 5.409.715 7.197-.04 1.789-.223 2.504.07 1.856.291-.649 1.051-2.66 2.213-4.494 1.163-1.833 2.727-3.487 4.046-4.917 1.319-1.431 2.392-2.638 2.392-2.884s-1.072.469-2.772 2.548c-1.699 2.079-4.023 5.521-4.56 5.097-.536-.424.715-4.716 1.967-9.008M607.706 459.868s0 0 0 0c1.252 2.236 2.504 4.471 3.174 7.019.67 2.548.76 5.409.715 7.197-.05 1.789-.223 2.504.07 1.856.291-.649 1.051-2.66 2.213-4.494 1.163-1.833 2.727-3.487 4.046-4.917 1.319-1.431 2.392-2.638 2.392-2.884s-1.072.469-2.772 2.548c-1.699 2.079-4.023 5.521-4.56 5.097-.536-.424.715-4.716 1.967-9.008M628.949 470.489s0 0 0 0c1.252 2.236 2.504 4.471 3.174 7.019.67 2.548.76 5.409.715 7.197-.04 1.789-.223 2.504.07 1.856.291-.649 1.051-2.66 2.213-4.494 1.163-1.833 2.727-3.487 4.046-4.917 1.319-1.431 2.392-2.638 2.392-2.884s-1.072.469-2.772 2.548c-1.699 2.079-4.023 5.521-4.56 5.097-.536-.424.715-4.716 1.967-9.008M655.313 476.369s0 0 0 0c1.252 2.236 2.504 4.471 3.174 7.019.67 2.548.76 5.409.715 7.197-.04 1.789-.223 2.504.07 1.856.291-.649 1.051-2.66 2.213-4.494 1.163-1.833 2.727-3.487 4.046-4.917 1.319-1.431 2.392-2.638 2.392-2.884s-1.072.469-2.772 2.548c-1.699 2.079-4.023 5.521-4.56 5.097-.536-.424.715-4.716 1.967-9.008M679.78 484.904s0 0 0 0c1.252 2.236 2.504 4.471 3.174 7.019.67 2.548.76 5.409.715 7.197-.04 1.789-.223 2.504.07 1.856.291-.649 1.051-2.66 2.213-4.494 1.163-1.833 2.727-3.487 4.046-4.917 1.319-1.431 2.392-2.638 2.392-2.884s-1.072.469-2.772 2.548c-1.699 2.079-4.023 5.521-4.56 5.097-.536-.424.715-4.716 1.967-9.008"
       id="path265" />
    <path
       fill="none"
       stroke="#ab7149"
       stroke-linecap="round"
       stroke-width="4"
       d="M575.401 382.965c9.41 5.236 18.821 10.471 32.248 15.432 13.428 4.96 30.873 9.646 47.089 16.182 16.215 6.535 31.199 14.919 52.854 21.019 21.655 6.1 49.979 9.916 65.295 13.27 15.315 3.353 17.621 6.241 19.926 9.129"
       id="path267" />
    <path
       fill="none"
       stroke="#e7b32b"
       stroke-linecap="round"
       stroke-linejoin="round"
       stroke-width="3"
       d="M588.372 373.537s0 0 0 0c1.496 2.081 2.99 4.161 3.942 6.618.952 2.456 1.362 5.289 1.518 7.071.157 1.782.06 2.513.276 1.836.216-.676.745-2.761 1.694-4.714.95-1.952 2.318-3.771 3.468-5.34 1.15-1.57 2.08-2.89 2.053-3.135-.03-.244-1.013.587-2.468 2.844-1.454 2.257-3.378 5.939-3.959 5.577-.58-.361.181-4.767.943-9.172M613.652 384.422s0 0 0 0c1.496 2.081 2.99 4.161 3.943 6.618.952 2.457 1.362 5.289 1.518 7.071.157 1.782.06 2.513.275 1.836.216-.676.745-2.76 1.695-4.713.949-1.952 2.318-3.772 3.468-5.341 1.15-1.57 2.08-2.889 2.053-3.134-.03-.244-1.013.587-2.468 2.844-1.455 2.256-3.378 5.937-3.959 5.576-.581-.361.181-4.766.943-9.172M638.005 392.168s0 0 0 0c1.496 2.082 2.991 4.161 3.943 6.618.952 2.456 1.362 5.289 1.518 7.071.157 1.782.06 2.513.275 1.836.216-.676.746-2.761 1.695-4.714.95-1.952 2.318-3.771 3.468-5.34 1.15-1.57 2.08-2.89 2.053-3.134-.03-.245-1.014.586-2.468 2.843-1.455 2.257-3.378 5.938-3.959 5.577-.58-.361.181-4.767.943-9.172M666.095 404.262s0 0 0 0c1.495 2.081 2.99 4.162 3.942 6.618.952 2.457 1.362 5.289 1.518 7.071.157 1.782.06 2.513.276 1.836.216-.676.745-2.76 1.694-4.713.949-1.952 2.318-3.771 3.468-5.341 1.15-1.57 2.081-2.89 2.053-3.134-.03-.244-1.013.587-2.468 2.844-1.454 2.257-3.377 5.938-3.958 5.576-.581-.361.18-4.766.942-9.172M691.645 414.163s0 0 0 0c1.496 2.082 2.99 4.161 3.943 6.618.952 2.456 1.362 5.289 1.518 7.072.156 1.782.06 2.512.275 1.835.216-.676.746-2.761 1.695-4.713.949-1.952 2.318-3.772 3.468-5.341 1.15-1.57 2.08-2.89 2.053-3.134-.03-.245-1.014.586-2.468 2.843-1.455 2.257-3.378 5.938-3.959 5.577-.58-.361.181-4.767.943-9.172M713.947 422.331s0 0 0 0c1.496 2.081 2.99 4.161 3.942 6.618.952 2.456 1.363 5.289 1.519 7.071.157 1.782.06 2.513.275 1.836.216-.676.746-2.761 1.695-4.713.949-1.953 2.318-3.771 3.467-5.341 1.15-1.569 2.081-2.89 2.054-3.134-.03-.245-1.014.586-2.468 2.843-1.455 2.257-3.379 5.938-3.96 5.577-.58-.361.181-4.767.943-9.172M740.804 425.212s0 0 0 0c1.496 2.082 2.991 4.162 3.943 6.619.952 2.456 1.362 5.288 1.518 7.071.157 1.782.06 2.512.276 1.835.216-.676.745-2.76 1.694-4.713.949-1.952 2.318-3.771 3.468-5.341 1.15-1.57 2.08-2.889 2.053-3.133-.03-.245-1.013.587-2.468 2.843-1.454 2.257-3.377 5.938-3.958 5.576-.581-.361.18-4.766.942-9.172M766.075 430.945s0 0 0 0c1.496 2.082 2.99 4.161 3.943 6.618.952 2.457 1.362 5.289 1.518 7.071.157 1.782.06 2.513.275 1.836.216-.676.745-2.76 1.695-4.713.949-1.952 2.318-3.772 3.468-5.341 1.15-1.57 2.08-2.889 2.053-3.134-.03-.244-1.013.587-2.468 2.844-1.455 2.257-3.378 5.938-3.958 5.576-.581-.361.18-4.766.942-9.172"
       id="path269" />
    <path
       fill="none"
       stroke="#ab7149"
       stroke-linecap="round"
       stroke-width="4"
       d="M334.213 521.973c8.763 6.26 17.525 12.518 30.311 18.956 12.786 6.437 29.594 13.053 44.973 21.369 15.379 8.315 29.326 18.329 50.159 26.823s48.549 15.467 63.391 20.52c14.842 5.052 16.808 8.18 18.775 11.309"
       id="path271" />
    <path
       fill="none"
       stroke="#e7b32b"
       stroke-linecap="round"
       stroke-linejoin="round"
       stroke-width="3"
       d="m348.161 514.061.626 1.118c.626 1.118 1.878 3.353 2.548 5.901.67 2.548.76 5.409.715 7.197-.05 1.789-.223 2.504.07 1.856.291-.649 1.051-2.66 2.213-4.494 1.163-1.833 2.727-3.487 4.046-4.917 1.319-1.431 2.392-2.638 2.392-2.884s-1.072.469-2.772 2.548c-1.699 2.079-4.023 5.521-4.56 5.097-.536-.424.715-4.716 1.967-9.008M372.059 527.717s0 0 0 0c1.252 2.236 2.504 4.471 3.174 7.019.67 2.548.76 5.409.715 7.197-.04 1.789-.223 2.504.07 1.856.291-.649 1.051-2.66 2.213-4.494 1.163-1.833 2.727-3.487 4.046-4.917 1.319-1.431 2.392-2.638 2.392-2.884s-1.072.469-2.772 2.548c-1.699 2.079-4.023 5.521-4.56 5.097-.536-.424.715-4.716 1.967-9.008M395.388 538.149s0 0 0 0c1.252 2.236 2.504 4.471 3.174 7.019.67 2.548.76 5.409.715 7.197-.04 1.789-.223 2.504.07 1.856.291-.649 1.051-2.66 2.213-4.494 1.163-1.833 2.727-3.487 4.046-4.917 1.319-1.431 2.392-2.638 2.392-2.884s-1.072.469-2.772 2.548c-1.699 2.079-4.023 5.521-4.56 5.097-.536-.424.715-4.716 1.967-9.008M421.941 553.322s0 0 0 0c1.252 2.236 2.504 4.471 3.174 7.019.67 2.548.76 5.409.715 7.197-.04 1.789-.223 2.504.07 1.856.291-.649 1.051-2.66 2.213-4.494 1.163-1.833 2.727-3.487 4.046-4.917 1.319-1.431 2.392-2.638 2.392-2.884s-1.072.469-2.772 2.548c-1.699 2.079-4.023 5.521-4.56 5.097-.536-.424.715-4.716 1.967-9.008M446.218 566.03s0 0 0 0c1.252 2.236 2.504 4.471 3.174 7.019.67 2.548.76 5.409.715 7.197-.05 1.789-.223 2.504.07 1.856.291-.649 1.051-2.66 2.213-4.494 1.163-1.833 2.727-3.487 4.046-4.917 1.319-1.431 2.392-2.638 2.392-2.884s-1.072.469-2.772 2.548c-1.699 2.079-4.023 5.521-4.56 5.097-.536-.424.715-4.716 1.967-9.008M467.461 576.651s0 0 0 0c1.252 2.236 2.504 4.471 3.174 7.019.67 2.548.76 5.409.715 7.197-.05 1.789-.223 2.504.07 1.856.291-.649 1.051-2.66 2.213-4.494 1.163-1.833 2.727-3.487 4.046-4.917 1.319-1.431 2.392-2.638 2.392-2.884s-1.072.469-2.772 2.548c-1.699 2.079-4.023 5.521-4.56 5.097-.536-.424.715-4.716 1.967-9.008M493.825 582.531s0 0 0 0c1.252 2.236 2.504 4.471 3.174 7.019.67 2.548.76 5.409.715 7.197-.05 1.789-.223 2.504.07 1.856.291-.649 1.051-2.66 2.213-4.494 1.163-1.833 2.727-3.487 4.046-4.917 1.319-1.431 2.392-2.638 2.392-2.884s-1.072.469-2.772 2.548c-1.699 2.079-4.023 5.521-4.56 5.097-.536-.424.715-4.716 1.967-9.008M518.292 591.066s0 0 0 0c1.252 2.236 2.504 4.471 3.174 7.019.67 2.548.76 5.409.715 7.197-.05 1.789-.223 2.504.07 1.856.291-.649 1.051-2.66 2.213-4.494 1.163-1.833 2.727-3.487 4.046-4.917 1.319-1.431 2.392-2.638 2.392-2.884s-1.072.469-2.772 2.548c-1.699 2.079-4.023 5.521-4.56 5.097-.536-.424.715-4.716 1.967-9.008"
       id="path273" />
    <path
       fill="none"
       stroke="#ab7149"
       stroke-linecap="round"
       stroke-width="4"
       d="M276.276 553.088c8.763 6.26 17.525 12.518 30.311 18.956 12.786 6.437 29.594 13.053 44.973 21.369 15.379 8.315 29.326 18.329 50.159 26.823s48.549 15.467 63.391 20.52c14.842 5.052 16.808 8.18 18.775 11.309"
       id="path275" />
    <path
       fill="none"
       stroke="#e7b32b"
       stroke-linecap="round"
       stroke-linejoin="round"
       stroke-width="3"
       d="M290.224 545.176s0 0 0 0c1.252 2.236 2.504 4.471 3.174 7.019.67 2.548.76 5.409.715 7.197-.05 1.789-.223 2.504.07 1.856.291-.649 1.051-2.66 2.213-4.494 1.163-1.833 2.727-3.487 4.046-4.917 1.319-1.431 2.392-2.638 2.392-2.884s-1.072.469-2.772 2.548c-1.699 2.079-4.023 5.521-4.56 5.097-.536-.424.715-4.716 1.967-9.008M314.122 558.832s0 0 0 0c1.252 2.236 2.504 4.471 3.174 7.019.67 2.548.76 5.409.715 7.197-.05 1.789-.223 2.504.07 1.856.291-.649 1.051-2.66 2.213-4.494 1.163-1.833 2.727-3.487 4.046-4.917 1.319-1.431 2.392-2.638 2.392-2.884s-1.072.469-2.772 2.548c-1.699 2.079-4.023 5.521-4.56 5.097-.536-.424.715-4.716 1.967-9.008M337.451 569.264s0 0 0 0c1.252 2.236 2.504 4.471 3.174 7.019.67 2.548.76 5.409.715 7.197-.04 1.789-.223 2.504.07 1.856.291-.649 1.051-2.66 2.213-4.494 1.163-1.833 2.727-3.487 4.046-4.917 1.319-1.431 2.392-2.638 2.392-2.884s-1.072.469-2.772 2.548c-1.699 2.079-4.023 5.521-4.56 5.097-.536-.424.715-4.716 1.967-9.008M364.004 584.437s0 0 0 0c1.252 2.236 2.504 4.471 3.174 7.019.67 2.548.76 5.409.715 7.197-.04 1.789-.223 2.504.07 1.856.291-.649 1.051-2.66 2.213-4.494 1.163-1.833 2.727-3.487 4.046-4.917 1.319-1.431 2.392-2.638 2.392-2.884s-1.072.469-2.772 2.548c-1.699 2.079-4.023 5.521-4.56 5.097-.536-.424.715-4.716 1.967-9.008M388.281 597.145s0 0 0 0c1.252 2.236 2.504 4.471 3.174 7.019.67 2.548.76 5.409.715 7.197-.05 1.789-.223 2.504.07 1.856.291-.649 1.051-2.66 2.213-4.494 1.163-1.833 2.727-3.487 4.046-4.917 1.319-1.431 2.392-2.638 2.392-2.884s-1.072.469-2.772 2.548c-1.699 2.079-4.023 5.521-4.56 5.097-.536-.424.715-4.716 1.967-9.008M409.524 607.766s0 0 0 0c1.252 2.236 2.504 4.471 3.174 7.019.67 2.548.76 5.409.715 7.197-.05 1.789-.223 2.504.07 1.856.291-.649 1.051-2.66 2.213-4.494 1.163-1.833 2.727-3.487 4.046-4.917 1.319-1.431 2.392-2.638 2.392-2.884s-1.072.469-2.772 2.548c-1.699 2.079-4.023 5.521-4.56 5.097-.536-.424.715-4.716 1.967-9.008M435.888 613.646s0 0 0 0c1.252 2.236 2.504 4.471 3.174 7.019.67 2.548.76 5.409.715 7.197-.04 1.789-.223 2.504.07 1.856.291-.649 1.051-2.66 2.213-4.494 1.163-1.833 2.727-3.487 4.046-4.917 1.319-1.431 2.392-2.638 2.392-2.884s-1.072.469-2.772 2.548c-1.699 2.079-4.023 5.521-4.56 5.097-.536-.424.715-4.716 1.967-9.008M460.355 622.181s0 0 0 0c1.252 2.236 2.504 4.471 3.174 7.019.67 2.548.76 5.409.715 7.197-.05 1.789-.223 2.504.07 1.856.291-.649 1.051-2.66 2.213-4.494 1.163-1.833 2.727-3.487 4.046-4.917 1.319-1.431 2.392-2.638 2.392-2.884s-1.072.469-2.772 2.548c-1.699 2.079-4.023 5.521-4.56 5.097-.536-.424.715-4.716 1.967-9.008"
       id="path277" />
    <path
       fill="none"
       stroke="#ab7149"
       stroke-linecap="round"
       stroke-width="4"
       d="M226.922 582.057c8.763 6.26 17.525 12.518 30.311 18.956 12.786 6.437 29.594 13.053 44.973 21.369 15.379 8.315 29.326 18.329 50.159 26.823s48.549 15.467 63.391 20.52c14.842 5.052 16.808 8.18 18.775 11.309"
       id="path279" />
    <path
       fill="none"
       stroke="#e7b32b"
       stroke-linecap="round"
       stroke-linejoin="round"
       stroke-width="3"
       d="M240.87 574.145s0 0 0 0c1.252 2.236 2.504 4.471 3.174 7.019.67 2.548.76 5.409.715 7.197-.04 1.789-.223 2.504.07 1.856.291-.649 1.051-2.66 2.213-4.494 1.163-1.833 2.727-3.487 4.046-4.917 1.319-1.431 2.392-2.638 2.392-2.884s-1.072.469-2.772 2.548c-1.699 2.079-4.023 5.521-4.56 5.097-.536-.424.715-4.716 1.967-9.008M264.768 587.801s0 0 0 0c1.252 2.236 2.504 4.471 3.174 7.019.67 2.548.76 5.409.715 7.197-.04 1.789-.223 2.504.07 1.856.291-.649 1.051-2.66 2.213-4.494 1.163-1.833 2.727-3.487 4.046-4.917 1.319-1.431 2.392-2.638 2.392-2.884s-1.072.469-2.772 2.548c-1.699 2.079-4.023 5.521-4.56 5.097-.536-.424.715-4.716 1.967-9.008M288.097 598.233s0 0 0 0c1.252 2.236 2.504 4.471 3.174 7.019.67 2.548.76 5.409.715 7.197-.05 1.789-.223 2.504.07 1.856.291-.649 1.051-2.66 2.213-4.494 1.163-1.833 2.727-3.487 4.046-4.917 1.319-1.431 2.392-2.638 2.392-2.884s-1.072.469-2.772 2.548c-1.699 2.079-4.023 5.521-4.56 5.097-.536-.424.715-4.716 1.967-9.008M314.65 613.406s0 0 0 0c1.252 2.236 2.504 4.471 3.174 7.019.67 2.548.76 5.409.715 7.197-.04 1.789-.223 2.504.07 1.856.291-.649 1.051-2.66 2.213-4.494 1.163-1.833 2.727-3.487 4.046-4.917 1.319-1.431 2.392-2.638 2.392-2.884s-1.072.469-2.772 2.548c-1.699 2.079-4.023 5.521-4.56 5.097-.536-.424.715-4.716 1.967-9.008M338.927 626.114s0 0 0 0c1.252 2.236 2.504 4.471 3.174 7.019.67 2.548.76 5.409.715 7.197-.04 1.789-.223 2.504.07 1.856.291-.649 1.051-2.66 2.213-4.494 1.163-1.833 2.727-3.487 4.046-4.917 1.319-1.431 2.392-2.638 2.392-2.884s-1.072.469-2.772 2.548c-1.699 2.079-4.023 5.521-4.56 5.097-.536-.424.715-4.716 1.967-9.008M360.17 636.735s0 0 0 0c1.252 2.236 2.504 4.471 3.174 7.019.67 2.548.76 5.409.715 7.197-.05 1.789-.223 2.504.07 1.856.291-.649 1.051-2.66 2.213-4.494 1.163-1.833 2.727-3.487 4.046-4.917 1.319-1.431 2.392-2.638 2.392-2.884s-1.072.469-2.772 2.548c-1.699 2.079-4.023 5.521-4.56 5.097-.536-.424.715-4.716 1.967-9.008M386.534 642.615s0 0 0 0c1.252 2.236 2.504 4.471 3.174 7.019.67 2.548.76 5.409.715 7.197-.05 1.789-.223 2.504.07 1.856.291-.649 1.051-2.66 2.213-4.494 1.163-1.833 2.727-3.487 4.046-4.917 1.319-1.431 2.392-2.638 2.392-2.884s-1.072.469-2.772 2.548c-1.699 2.079-4.023 5.521-4.56 5.097-.536-.424.715-4.716 1.967-9.008M411.001 651.15s0 0 0 0c1.252 2.236 2.504 4.471 3.174 7.019.67 2.548.76 5.409.715 7.197-.04 1.789-.223 2.504.07 1.856.291-.649 1.051-2.66 2.213-4.494 1.163-1.833 2.727-3.487 4.046-4.917 1.319-1.431 2.392-2.638 2.392-2.884s-1.072.469-2.772 2.548c-1.699 2.079-4.023 5.521-4.56 5.097-.536-.424.715-4.716 1.967-9.008"
       id="path281" />
    <path
       fill="none"
       stroke="#ab7149"
       stroke-linecap="round"
       stroke-width="4"
       d="M123.937 644.982c7.525 7.703 15.051 15.405 26.505 23.991 11.454 8.586 26.836 18.055 40.513 28.946 13.676 10.891 25.644 23.202 44.659 35.227 19.014 12.026 45.071 23.766 58.793 31.35 13.723 7.585 15.108 11.01 16.493 14.436"
       id="path283" />
    <path
       fill="none"
       stroke="#e7b32b"
       stroke-linecap="round"
       stroke-linejoin="round"
       stroke-width="3"
       d="M139.059 639.646s0 0 0 0c.84 2.422 1.679 4.842 1.89 7.468.212 2.626-.204 5.459-.562 7.211-.359 1.752-.661 2.425-.261 1.838.401-.587 1.503-2.434 2.97-4.034 1.467-1.6 3.297-2.953 4.847-4.129 1.55-1.176 2.819-2.176 2.863-2.418.04-.242-1.139.273-3.177 2.021-2.039 1.748-4.932 4.727-5.386 4.215-.453-.512 1.534-4.517 3.521-8.522M160.183 657.293s0 0 0 0c.839 2.421 1.678 4.842 1.89 7.468.212 2.626-.204 5.458-.562 7.21-.359 1.753-.661 2.425-.261 1.839.4-.587 1.502-2.434 2.969-4.034 1.467-1.601 3.298-2.954 4.848-4.13 1.55-1.176 2.818-2.175 2.862-2.418.04-.242-1.138.273-3.177 2.021-2.038 1.749-4.932 4.728-5.386 4.216-.453-.513 1.534-4.517 3.521-8.522M181.313 671.665s0 0 0 0c.84 2.422 1.679 4.842 1.89 7.469.211 2.626-.204 5.458-.562 7.21-.359 1.752-.661 2.425-.261 1.838.401-.587 1.503-2.434 2.97-4.034 1.467-1.6 3.297-2.953 4.847-4.129 1.55-1.176 2.819-2.176 2.862-2.418.04-.242-1.138.273-3.177 2.021-2.038 1.748-4.931 4.727-5.385 4.215-.453-.512 1.534-4.516 3.521-8.521M204.783 691.272s0 0 0 0c.84 2.422 1.679 4.842 1.89 7.468.212 2.626-.204 5.459-.562 7.211-.358 1.752-.66 2.426-.26 1.838.4-.587 1.502-2.434 2.969-4.034 1.467-1.6 3.297-2.953 4.847-4.129 1.55-1.176 2.819-2.176 2.863-2.418.04-.242-1.138.273-3.177 2.021-2.039 1.748-4.932 4.727-5.386 4.215-.453-.512 1.533-4.516 3.521-8.522M226.447 708.052s0 0 0 0c.84 2.422 1.678 4.842 1.89 7.468.212 2.626-.204 5.459-.562 7.211-.359 1.752-.661 2.425-.261 1.838.401-.587 1.503-2.434 2.969-4.034 1.467-1.6 3.298-2.953 4.848-4.129 1.55-1.176 2.818-2.176 2.862-2.418.04-.242-1.138.273-3.177 2.021-2.038 1.748-4.932 4.727-5.386 4.215-.453-.512 1.534-4.517 3.521-8.522M245.49 722.244s0 0 0 0c.84 2.422 1.679 4.842 1.89 7.468.212 2.626-.204 5.458-.562 7.211-.359 1.752-.66 2.425-.26 1.838.4-.587 1.502-2.434 2.969-4.034 1.467-1.6 3.297-2.953 4.847-4.129 1.551-1.177 2.819-2.176 2.863-2.418.04-.243-1.139.273-3.177 2.021-2.039 1.748-4.932 4.727-5.386 4.215-.453-.513 1.534-4.517 3.521-8.522M270.409 732.67s0 0 0 0c.839 2.421 1.678 4.841 1.89 7.468.212 2.626-.204 5.458-.562 7.21-.359 1.753-.661 2.425-.261 1.838.401-.587 1.503-2.434 2.97-4.034 1.467-1.6 3.297-2.953 4.847-4.129 1.55-1.176 2.819-2.176 2.863-2.418.04-.242-1.139.273-3.178 2.021-2.038 1.748-4.931 4.727-5.384 4.215-.454-.512 1.533-4.516 3.52-8.521M292.993 745.375s0 0 0 0c.84 2.422 1.679 4.842 1.891 7.468.212 2.626-.204 5.458-.562 7.211-.359 1.753-.661 2.425-.261 1.838.4-.586 1.502-2.433 2.969-4.034 1.467-1.6 3.298-2.953 4.848-4.129 1.55-1.177 2.818-2.176 2.862-2.418.04-.242-1.138.273-3.177 2.021-2.038 1.748-4.932 4.727-5.385 4.215-.454-.513 1.533-4.517 3.52-8.522"
       id="path285" />
    <path
       fill="none"
       stroke="#ab7149"
       stroke-linecap="round"
       stroke-width="4"
       d="M72.4371 681.461c7.5253 7.703 15.0507 15.405 26.505 23.991 11.4549 8.586 26.8359 18.055 40.5129 28.946 13.676 10.891 25.644 23.202 44.659 35.227 19.014 12.026 45.071 23.766 58.793 31.35 13.723 7.585 15.108 11.01 16.493 14.436"
       id="path287" />
    <path
       fill="none"
       stroke="#e7b32b"
       stroke-linecap="round"
       stroke-linejoin="round"
       stroke-width="3"
       d="M87.5591 676.125s0 0 0 0c.8396 2.422 1.6785 4.842 1.8901 7.468.2115 2.626-.2038 5.459-.5623 7.211-.3584 1.752-.6604 2.425-.2603 1.838.4-.587 1.5022-2.434 2.9693-4.034 1.4671-1.6 3.2976-2.953 4.8475-4.129 1.5499-1.176 2.8191-2.176 2.8622-2.418.043-.242-1.1387.273-3.1769 2.021-2.0381 1.748-4.9316 4.727-5.3853 4.215-.4538-.512 1.5336-4.517 3.5207-8.522M108.683 693.772s0 0 0 0c.839 2.421 1.678 4.842 1.89 7.468.212 2.626-.204 5.458-.562 7.21-.359 1.753-.661 2.425-.261 1.839.4-.587 1.502-2.434 2.969-4.034 1.467-1.601 3.298-2.954 4.848-4.13 1.55-1.176 2.818-2.175 2.862-2.418.04-.242-1.138.273-3.177 2.021-2.038 1.749-4.932 4.728-5.386 4.216-.453-.513 1.534-4.517 3.521-8.522M129.813 708.144s0 0 0 0c.84 2.422 1.679 4.842 1.89 7.469.211 2.626-.204 5.458-.562 7.21-.359 1.752-.661 2.425-.261 1.838.401-.587 1.503-2.434 2.97-4.034 1.467-1.6 3.297-2.953 4.847-4.129 1.55-1.176 2.819-2.176 2.862-2.418.04-.242-1.138.273-3.177 2.021-2.038 1.748-4.931 4.727-5.385 4.215-.453-.512 1.534-4.516 3.521-8.521M153.283 727.751s0 0 0 0c.84 2.422 1.679 4.842 1.89 7.468.212 2.626-.204 5.459-.562 7.211-.358 1.752-.66 2.426-.26 1.838.4-.587 1.502-2.434 2.969-4.034 1.467-1.6 3.297-2.953 4.847-4.129 1.55-1.176 2.819-2.176 2.863-2.418.04-.242-1.138.273-3.177 2.021-2.039 1.748-4.932 4.727-5.386 4.215-.453-.512 1.533-4.516 3.521-8.522M174.947 744.531s0 0 0 0c.84 2.422 1.678 4.842 1.89 7.468.212 2.626-.204 5.459-.562 7.211-.359 1.752-.661 2.425-.261 1.838.401-.587 1.503-2.434 2.969-4.034 1.467-1.6 3.298-2.953 4.848-4.129 1.55-1.176 2.818-2.176 2.862-2.418.04-.242-1.138.273-3.177 2.021-2.038 1.748-4.932 4.727-5.386 4.215-.453-.512 1.534-4.517 3.521-8.522M193.99 758.723s0 0 0 0c.84 2.422 1.679 4.842 1.89 7.468.212 2.626-.204 5.458-.562 7.211-.359 1.752-.66 2.425-.26 1.838.4-.587 1.502-2.434 2.969-4.034 1.467-1.6 3.297-2.953 4.847-4.129 1.551-1.177 2.819-2.176 2.863-2.418.04-.243-1.139.273-3.177 2.021-2.039 1.748-4.932 4.727-5.386 4.215-.453-.513 1.534-4.517 3.521-8.522M218.909 769.149s0 0 0 0c.839 2.421 1.678 4.841 1.89 7.468.212 2.626-.204 5.458-.562 7.21-.359 1.753-.661 2.425-.261 1.838.401-.587 1.503-2.434 2.97-4.034 1.467-1.6 3.297-2.953 4.847-4.129 1.55-1.176 2.819-2.176 2.863-2.418.04-.242-1.139.273-3.178 2.021-2.038 1.748-4.931 4.727-5.384 4.215-.454-.512 1.533-4.516 3.52-8.521M241.493 781.854s0 0 0 0c.84 2.422 1.679 4.842 1.891 7.468.212 2.626-.204 5.458-.562 7.211-.359 1.753-.661 2.425-.261 1.838.4-.586 1.502-2.433 2.969-4.034 1.467-1.6 3.298-2.953 4.848-4.129 1.55-1.177 2.818-2.176 2.862-2.418.04-.242-1.138.273-3.177 2.021-2.038 1.748-4.932 4.727-5.385 4.215-.454-.513 1.533-4.517 3.52-8.522"
       id="path289" />
    <path
       fill="none"
       stroke="#ab7149"
       stroke-linecap="round"
       stroke-width="4"
       d="M10.208 714.721c7.5253 7.703 15.0507 15.405 26.505 23.991 11.4544 8.586 26.8364 18.055 40.5126 28.946 13.6763 10.891 25.6444 23.202 44.6594 35.227 19.014 12.026 45.071 23.766 58.793 31.35 13.723 7.585 15.108 11.01 16.493 14.436"
       id="path291" />
    <path
       fill="none"
       stroke="#e7b32b"
       stroke-linecap="round"
       stroke-linejoin="round"
       stroke-width="3"
       d="M25.33 709.385s0 0 0 0c.8396 2.422 1.6785 4.842 1.8901 7.468.2115 2.626-.2038 5.459-.5623 7.211-.3584 1.752-.6604 2.425-.2603 1.838.4-.587 1.5022-2.434 2.9693-4.034 1.4671-1.6 3.2976-2.953 4.8475-4.129 1.5499-1.176 2.8191-2.176 2.8622-2.418.043-.242-1.1387.273-3.1769 2.021-2.0381 1.748-4.9316 4.727-5.3853 4.215-.4538-.512 1.5336-4.517 3.5207-8.522M46.4539 727.032s0 0 0 0c.8393 2.421 1.6784 4.842 1.89 7.468.2116 2.626-.2037 5.458-.5624 7.21-.3586 1.753-.6602 2.425-.2604 1.839.3999-.587 1.502-2.434 2.9688-4.034 1.4667-1.601 3.2977-2.954 4.8478-4.13 1.55-1.176 2.8181-2.175 2.862-2.418.044-.242-1.1381.273-3.1767 2.021-2.0386 1.749-4.9321 4.728-5.3856 4.216-.4536-.513 1.5336-4.517 3.5205-8.522M67.5839 741.404s0 0 0 0c.8396 2.422 1.6785 4.842 1.89 7.469.2115 2.626-.2037 5.458-.5622 7.21-.3584 1.752-.6604 2.425-.2603 1.838.4-.587 1.5022-2.434 2.9693-4.034 1.4671-1.6 3.2976-2.953 4.8475-4.129 1.5498-1.176 2.8189-2.176 2.8621-2.418.043-.242-1.1387.273-3.177 2.021-2.0384 1.748-4.9314 4.727-5.3851 4.215-.4536-.512 1.5334-4.516 3.5207-8.521M91.0539 761.011s0 0 0 0c.8397 2.422 1.6785 4.842 1.8901 7.468.2115 2.626-.2038 5.459-.5621 7.211-.3584 1.752-.6601 2.426-.26 1.838.4-.587 1.5019-2.434 2.9689-4.034 1.467-1.6 3.2975-2.953 4.8475-4.129 1.5497-1.176 2.8187-2.176 2.8627-2.418.04-.242-1.138.273-3.1772 2.021-2.0389 1.748-4.9319 4.727-5.3856 4.215-.4538-.512 1.5332-4.516 3.5207-8.522M112.718 777.791s0 0 0 0c.84 2.422 1.678 4.842 1.89 7.468.212 2.626-.204 5.459-.562 7.211-.359 1.752-.661 2.425-.261 1.838.401-.587 1.503-2.434 2.969-4.034 1.467-1.6 3.298-2.953 4.848-4.129 1.55-1.176 2.818-2.176 2.862-2.418.04-.242-1.138.273-3.177 2.021-2.038 1.748-4.932 4.727-5.386 4.215-.453-.512 1.534-4.517 3.521-8.522M131.761 791.983s0 0 0 0c.84 2.422 1.679 4.842 1.89 7.468.212 2.626-.204 5.458-.562 7.211-.359 1.752-.66 2.425-.26 1.838.4-.587 1.502-2.434 2.969-4.034 1.467-1.6 3.297-2.953 4.847-4.129 1.551-1.177 2.819-2.176 2.863-2.418.04-.243-1.139.273-3.177 2.021-2.039 1.748-4.932 4.727-5.386 4.215-.453-.513 1.534-4.517 3.521-8.522M156.68 802.409s0 0 0 0c.839 2.421 1.678 4.841 1.89 7.468.212 2.626-.204 5.458-.562 7.21-.359 1.753-.661 2.425-.261 1.838.401-.587 1.503-2.434 2.97-4.034 1.467-1.6 3.297-2.953 4.847-4.129 1.55-1.176 2.819-2.176 2.863-2.418.04-.242-1.139.273-3.178 2.021-2.038 1.748-4.931 4.727-5.384 4.215-.454-.512 1.533-4.516 3.52-8.521M179.264 815.114s0 0 0 0c.84 2.422 1.679 4.842 1.891 7.468.212 2.626-.204 5.458-.562 7.211-.359 1.753-.661 2.425-.261 1.838.4-.586 1.502-2.433 2.969-4.034 1.467-1.6 3.298-2.953 4.848-4.129 1.55-1.177 2.818-2.176 2.862-2.418.04-.242-1.138.273-3.177 2.021-2.038 1.748-4.932 4.727-5.385 4.215-.454-.513 1.533-4.517 3.52-8.522"
       id="path293" />
    <path
       fill="none"
       stroke="#e7b32b"
       stroke-linecap="round"
       stroke-linejoin="round"
       stroke-width="3"
       d="M67.5839 741.404s0 0 0 0c.8396 2.422 1.6785 4.842 1.89 7.469.2115 2.626-.2037 5.458-.5622 7.21-.3584 1.752-.6604 2.425-.2603 1.838.4-.587 1.5022-2.434 2.9693-4.034 1.4671-1.6 3.2976-2.953 4.8475-4.129 1.5498-1.176 2.8189-2.176 2.8621-2.418.043-.242-1.1387.273-3.177 2.021-2.0384 1.748-4.9314 4.727-5.3851 4.215-.4536-.512 1.5334-4.516 3.5207-8.521M91.0539 761.011s0 0 0 0c.8397 2.422 1.6785 4.842 1.8901 7.468.2115 2.626-.2038 5.459-.5621 7.211-.3584 1.752-.6601 2.426-.26 1.838.4-.587 1.5019-2.434 2.9689-4.034 1.467-1.6 3.2975-2.953 4.8475-4.129 1.5497-1.176 2.8187-2.176 2.8627-2.418.04-.242-1.138.273-3.1772 2.021-2.0389 1.748-4.9319 4.727-5.3856 4.215-.4538-.512 1.5332-4.516 3.5207-8.522M112.718 777.791s0 0 0 0c.84 2.422 1.678 4.842 1.89 7.468.212 2.626-.204 5.459-.562 7.211-.359 1.752-.661 2.425-.261 1.838.401-.587 1.503-2.434 2.969-4.034 1.467-1.6 3.298-2.953 4.848-4.129 1.55-1.176 2.818-2.176 2.862-2.418.04-.242-1.138.273-3.177 2.021-2.038 1.748-4.932 4.727-5.386 4.215-.453-.512 1.534-4.517 3.521-8.522M131.761 791.983s0 0 0 0c.84 2.422 1.679 4.842 1.89 7.468.212 2.626-.204 5.458-.562 7.211-.359 1.752-.66 2.425-.26 1.838.4-.587 1.502-2.434 2.969-4.034 1.467-1.6 3.297-2.953 4.847-4.129 1.551-1.177 2.819-2.176 2.863-2.418.04-.243-1.139.273-3.177 2.021-2.039 1.748-4.932 4.727-5.386 4.215-.453-.513 1.534-4.517 3.521-8.522M156.68 802.409s0 0 0 0c.839 2.421 1.678 4.841 1.89 7.468.212 2.626-.204 5.458-.562 7.21-.359 1.753-.661 2.425-.261 1.838.401-.587 1.503-2.434 2.97-4.034 1.467-1.6 3.297-2.953 4.847-4.129 1.55-1.176 2.819-2.176 2.863-2.418.04-.242-1.139.273-3.178 2.021-2.038 1.748-4.931 4.727-5.384 4.215-.454-.512 1.533-4.516 3.52-8.521M179.264 815.114s0 0 0 0c.84 2.422 1.679 4.842 1.891 7.468.212 2.626-.204 5.458-.562 7.211-.359 1.753-.661 2.425-.261 1.838.4-.586 1.502-2.433 2.969-4.034 1.467-1.6 3.298-2.953 4.848-4.129 1.55-1.177 2.818-2.176 2.862-2.418.04-.242-1.138.273-3.177 2.021-2.038 1.748-4.932 4.727-5.385 4.215-.454-.513 1.533-4.517 3.52-8.522"
       id="path295" />
    <path
       fill="url(#D)"
       d="m-53.7566 814.473 8.3993-4.76c91.277-38.079 182.5503-76.156 268.5063-102.195 85.956-26.038 166.589-40.037 241.065-37.797 74.477 2.241 142.791 20.719 199.069 43.398 56.277 22.679 100.513 49.557 153.151 70.836 52.637 21.278 113.673 36.957 163.23 46.476 49.556 9.52 87.636 12.879 108.356 28.839 20.72 15.96 24.07 44.519-73.36 69.156-97.437 24.638-295.661 45.357-505.931 56.556-210.27 11.2-432.5725 12.879-557.7252-2.799-125.1528-15.679-153.1508-48.717-154.2718-89.875-1.12-41.159 24.638-90.434 47.038-100.793 22.399-10.359 41.438 18.199 59.3566 27.718 17.9189 9.518 34.7175-.001 43.1168-4.76z"
       id="path297" />
    <path
       fill="#ebe9b5"
       d="M141.088 325.63c1.019 53.053 2.039 106.105 3.058 159.157L11.8021 526.265l-52.77-29.719-13.2767-127.455 61.07259 8.724L141.088 325.63"
       id="path299" />
    <path
       fill="#e8e6d0"
       d="M11.8021 526.265v-18.24l174.9539-46.879v18.24L11.8021 526.265z"
       id="path301" />
    <path
       fill="none"
       stroke="#d2d1c4"
       stroke-linecap="round"
       stroke-width="8"
       d="M11.8021 526.265c58.3188-15.627 116.6369-31.253 174.9539-46.879"
       id="path303" />
    <path
       fill="#e8e6d0"
       d="m11.8021 508.025 174.9539-46.879-50.228-21.519-174.9539 46.879 50.228 21.519z"
       id="path305" />
    <path
       fill="none"
       stroke="#d2d1c4"
       stroke-linecap="round"
       stroke-width="8"
       d="M11.8021 508.025c58.3188-15.627 116.6369-31.253 174.9539-46.879"
       id="path307" />
    <path
       fill="none"
       stroke="#d2d1c4"
       stroke-width="8"
       d="M11.8021 526.265v-18.24"
       id="path309" />
    <path
       fill="none"
       stroke="#d2d1c4"
       stroke-linecap="round"
       stroke-width="8"
       d="M186.756 461.146c-16.742-7.173-33.484-14.345-50.228-21.519M186.756 479.386v-18.24"
       id="path311" />
    <path
       fill="url(#E)"
       d="M163.403 363.917v98.515s5.091 4.312 15.875 2.052c10.784-2.26 10.901-7.078 10.901-7.078v-91.213z"
       color="#000"
       style="-inkscape-stroke:none"
       id="path313" />
    <path
       fill="#743f09"
       d="m95.3553 451.094.2682-44.862-20.9218 6.572-.6706 44.794 21.3242-6.504z"
       id="path315" />
    <path
       fill="#e8e6d0"
       stroke="#d2d1c4"
       stroke-linejoin="round"
       stroke-width="8"
       d="M11.8021 526.265v-18.24l-50.228-21.519v18.24l50.228 21.519z"
       id="path317" />
    <path
       fill="none"
       stroke="#d2d1c4"
       stroke-width="8"
       d="M-38.4259 486.506c58.3186-15.627 116.6367-31.253 174.9539-46.879"
       id="path319" />
    <path
       fill="url(#F)"
       d="M121.415 372.837v100.988s3.561 3.593 16.071 2.297c12.51-1.297 13.929-6.053 13.929-6.053v-97.232z"
       color="#000"
       style="-inkscape-stroke:none"
       id="path321" />
    <path
       fill="url(#G)"
       d="M225.112 509.696V399.99"
       color="#000"
       style="-inkscape-stroke:none"
       id="path323" />
    <path
       fill="url(#H)"
       d="M43.897 389.736v103.536s3.3124 4.395 15.2863 3.299c11.974-1.095 14.7137-6.652 14.7137-6.652V389.736Z"
       color="#000"
       style="-inkscape-stroke:none"
       id="path325" />
    <path
       fill="url(#I)"
       d="M-.628947 398.856v101.928s3.539547 6.72 14.324347 7.085c10.7849.364 15.6757-5.472 15.6757-5.472V398.856Z"
       color="#000"
       style="-inkscape-stroke:none"
       id="path327" />
    <path
       fill="#f8ef97"
       stroke="#d2d1c4"
       stroke-linejoin="round"
       stroke-width="8"
       d="m-33.8654 372.509 45.668 37.929 174.9534-46.879-45.668-37.929-174.9534 46.879z"
       id="path329" />
    <path
       fill="#e4dfab"
       stroke="#d2d1c4"
       stroke-linecap="round"
       stroke-linejoin="round"
       stroke-width="8"
       d="M61.1561 392.955c4.6491-24.318 9.2986-48.639 13.9479-72.958l76.311 52.84"
       id="path331" />
    <path
       fill="#e4dfab"
       stroke="#d2d1c4"
       stroke-linecap="round"
       stroke-linejoin="round"
       stroke-width="8"
       d="m75.104 319.997-13.9479 72.958 9.6954-50.256-44.8333 13.849 49.0858-36.551"
       id="path333" />
    <path
       fill="none"
       stroke="#491c07"
       stroke-linecap="round"
       stroke-linejoin="round"
       stroke-width="2"
       d="M91.6969 431.529c.1656.136.4957.407.6644.406.1686 0 .1769-.271.013-.408-.1641-.137-.504-.137-.8423-.137 0 0-.0005 0 .1651.139z"
       id="path335" />
    <path
       fill="none"
       stroke="#491c07"
       stroke-linecap="round"
       stroke-width="2"
       d="m91.6969 431.529-.4633.172c-.4633.172-1.3904.516-2.3182.86"
       id="path337" />
    <path
       fill="none"
       stroke="#f0c000"
       d="M101.156 412.134c-.03.705-.07 1.409-.101 2.112"
       id="path339" />
    <path
       fill="url(#J)"
       d="M100.719 404.69c-.603.692-1.2065 1.386-1.7038 2.487-.4972 1.102-.8884 2.611-1.1846 3.561-.2962.949-.4973 1.34-.1838 1.636.3136.297 1.1405.498 2.3303.587 1.1899.09 2.7439.06 3.6709-.12.927-.185 1.229-.531 1.151-1.531-.08-1-.536-2.654-1.067-3.894-.531-1.241-1.134-2.068-1.648-2.454-.515-.386-.939-.331-1.365-.275"
       id="path341" />
    <path
       fill="none"
       stroke="#683501"
       stroke-linecap="round"
       stroke-width="2"
       d="M101.256 404.086c-2.6247-.938-5.2512-1.877-7.8789-2.816"
       id="path343" />
    <path
       fill="#fad300"
       stroke="#fad300"
       stroke-width="1.38733"
       d="M101.05 414.765c.149 0 .32 0 .441.145s.193.439.08.645c-.113.205-.409.325-.673.29-.263-.04-.491-.227-.527-.434-.04-.206.121-.427.263-.536.142-.11.267-.11.416-.11z"
       id="path345" />
    <path
       fill="#f8ef97"
       stroke="#d2d1c4"
       stroke-linecap="round"
       stroke-linejoin="round"
       stroke-width="8"
       d="M-38.4254 388.919c1.5198-5.469 3.04-10.94 4.56-16.41l45.668 37.929-50.228-21.519"
       id="path347" />
  </g>
  <g
     id="T">
    <path
       fill="url(#K)"
       stroke-linecap="round"
       d="M1209.29 632.871a2.5 2.5 0 0 0-3.05 1.783c-2.48 9.485-5.08 19.189-4.54 28.811.53 9.621 4.18 18.522 7.68 27.176a2.5 2.5 0 0 0 3.26 1.38 2.5 2.5 0 0 0 1.38-3.255c-3.5-8.654-6.85-17.062-7.33-25.58-.48-8.519 1.9-17.777 4.39-27.262a2.5 2.5 0 0 0-1.79-3.053z"
       color="#000"
       style="-inkscape-stroke:none"
       transform="matrix(.7292 0 0 .7292 714.193 285.107)"
       id="path351" />
    <path
       fill="url(#L)"
       stroke-width="1.21803"
       d="M1204.8 614.794c2.3-2.327 4.59-4.651 7.44-6.293 2.84-1.641 6.24-2.597 8.78-2.804 2.54-.206 4.22.324 5.35 1.711 1.14 1.386 1.72 3.629 1.59 5.718-.12 2.089-.97 4.023-1.81 5.957 2.33.113 4.67.226 6.53 1.291 1.86 1.066 3.26 3.084 3.64 5.537.38 2.453-.27 5.342-1.48 7.106-1.22 1.765-3.01 2.407-4.81 2.522-1.8.114-3.6-.307-5.39-.727-.1 2.327-.17 4.655-.98 6.405-.81 1.751-2.36 2.935-4.2 3.662-1.85.727-4.02 1.009-5.96.854-1.95-.156-3.68-.742-5.04-1.894-1.36-1.151-2.35-2.86-2.8-3.983-.45-1.124-.36-1.652-.28-2.185-2.52.729-5.04 1.457-7.68 1.039-2.63-.418-5.39-1.994-6.54-4.067-1.14-2.074-.7-4.651.51-6.305 1.2-1.654 3.17-2.386 5.14-3.115-1.71-.841-3.42-1.679-4.22-3.698-.81-2.019-.69-5.215.4-7.122 1.09-1.907 3.17-2.525 5.3-2.242 2.14.283 4.32 1.456 6.51 2.633z"
       transform="matrix(.7292 0 0 .7292 714.193 285.107)"
       id="path353" />
    <path
       fill="url(#M)"
       stroke-linecap="round"
       stroke-linejoin="round"
       stroke-width="6.09016"
       d="M1217.54 624.374a5.23373 5.23373 0 0 1-3.56 6.467 5.23373 5.23373 0 0 1-6.49-3.515 5.23373 5.23373 0 0 1 3.47-6.51 5.23373 5.23373 0 0 1 6.54 3.438"
       transform="matrix(.7292 0 0 .7292 714.193 285.107)"
       id="path355" />
  </g>
  <g
     id="U">
    <path
       fill="url(#N)"
       stroke-linecap="round"
       d="M1322.05 667.674a2.5 2.5 0 0 1 3.05 1.783c2.48 9.485 5.08 19.189 4.54 28.811-.53 9.621-4.18 18.522-7.68 27.176a2.5 2.5 0 0 1-3.26 1.38 2.5 2.5 0 0 1-1.38-3.255c3.5-8.654 6.85-17.062 7.33-25.58.48-8.519-1.9-17.777-4.39-27.262a2.5 2.5 0 0 1 1.79-3.053z"
       color="#000"
       style="-inkscape-stroke:none"
       transform="matrix(.83752 0 0 .83752 496.967 -32.5411)"
       id="path358" />
    <path
       fill="url(#O)"
       stroke-width="1.21803"
       d="M1326.54 649.597c-2.3-2.327-4.59-4.651-7.44-6.293-2.84-1.641-6.24-2.597-8.78-2.804-2.54-.206-4.22.324-5.35 1.711-1.14 1.386-1.72 3.629-1.59 5.718.12 2.089.97 4.023 1.81 5.957-2.33.113-4.67.226-6.53 1.291-1.86 1.066-3.26 3.084-3.64 5.537-.38 2.453.27 5.342 1.48 7.106 1.22 1.765 3.01 2.407 4.81 2.522 1.8.114 3.6-.307 5.39-.727.1 2.327.17 4.655.98 6.405.81 1.751 2.36 2.935 4.2 3.662 1.85.727 4.02 1.009 5.96.854 1.95-.156 3.68-.742 5.04-1.894 1.36-1.151 2.35-2.86 2.8-3.983.45-1.124.36-1.652.28-2.185 2.52.729 5.04 1.457 7.68 1.039 2.63-.418 5.39-1.994 6.54-4.067 1.14-2.074.7-4.651-.51-6.305-1.2-1.654-3.17-2.386-5.14-3.115 1.71-.841 3.42-1.679 4.22-3.698.81-2.019.69-5.215-.4-7.122-1.09-1.907-3.17-2.525-5.3-2.242-2.14.283-4.32 1.456-6.51 2.633z"
       transform="matrix(.83752 0 0 .83752 496.967 -32.5411)"
       id="path360" />
    <path
       fill="url(#P)"
       stroke-linecap="round"
       stroke-linejoin="round"
       stroke-width="6.09016"
       d="M1313.8 659.177a5.23373 5.23373 0 0 0 3.56 6.467 5.23373 5.23373 0 0 0 6.49-3.515 5.23373 5.23373 0 0 0-3.47-6.51 5.23373 5.23373 0 0 0-6.54 3.438"
       transform="matrix(.83752 0 0 .83752 496.967 -32.5411)"
       id="path362" />
  </g>
  <g
     id="V">
    <path
       fill="url(#Q)"
       stroke-linecap="round"
       d="M1356.25 568.79a2.5 2.5 0 0 1 3.05 1.783c2.48 9.485 5.08 19.189 4.54 28.811-.53 9.621-4.18 18.522-7.68 27.176a2.5 2.5 0 0 1-3.26 1.38 2.5 2.5 0 0 1-1.38-3.255c3.5-8.654 6.85-17.062 7.33-25.58.48-8.519-1.9-17.777-4.39-27.262a2.5 2.5 0 0 1 1.79-3.053z"
       color="#000"
       style="-inkscape-stroke:none"
       transform="matrix(.76187 0 0 .76187 10.841 218.823)"
       id="path365" />
    <path
       fill="url(#R)"
       stroke-width="1.21803"
       d="M1354.51 550.713c2.3-2.327 4.59-4.651 7.44-6.293 2.84-1.641 6.24-2.597 8.78-2.804 2.54-.206 4.22.324 5.35 1.711 1.14 1.386 1.72 3.629 1.59 5.718-.12 2.089-.97 4.023-1.81 5.957 2.33.113 4.67.226 6.53 1.291 1.86 1.066 3.26 3.084 3.64 5.537.38 2.453-.27 5.342-1.48 7.106-1.22 1.765-3.01 2.407-4.81 2.522-1.8.114-3.6-.307-5.39-.727-.1 2.327-.17 4.655-.98 6.405-.81 1.751-2.36 2.935-4.2 3.662-1.85.727-4.02 1.009-5.96.854-1.95-.156-3.68-.742-5.04-1.894-1.36-1.151-2.35-2.86-2.8-3.983-.45-1.124-.36-1.652-.28-2.185-2.52.729-5.04 1.457-7.68 1.039-2.63-.418-5.39-1.994-6.54-4.067-1.14-2.074-.7-4.651.51-6.305 1.2-1.654 3.17-2.386 5.14-3.115-1.71-.841-3.42-1.679-4.22-3.698-.81-2.019-.69-5.215.4-7.122 1.09-1.907 3.17-2.525 5.3-2.242 2.14.283 4.32 1.456 6.51 2.633z"
       transform="matrix(.76187 0 0 .76187 10.841 218.823)"
       id="path367" />
    <path
       fill="url(#S)"
       stroke-linecap="round"
       stroke-linejoin="round"
       stroke-width="6.09016"
       d="M1367.25 560.293a5.23373 5.23373 0 0 1-3.56 6.467 5.23373 5.23373 0 0 1-6.49-3.515 5.23373 5.23373 0 0 1 3.47-6.51 5.23373 5.23373 0 0 1 6.54 3.438"
       transform="matrix(.76187 0 0 .76187 10.841 218.823)"
       id="path369" />
  </g>
  <use
     xlink:href="#T"
     width="100%"
     height="100%"
     transform="matrix(.92531 0 0 .92531 -594.494 -12.3433)"
     id="use372" />
  <use
     xlink:href="#T"
     width="100%"
     height="100%"
     transform="translate(-679.659 -276.037) scale(1.14838)"
     id="use374" />
  <use
     xlink:href="#T"
     width="100%"
     height="100%"
     transform="matrix(.8675 0 0 .8675 -7.23386 -56.2595)"
     id="use376" />
  <use
     xlink:href="#T"
     width="100%"
     height="100%"
     transform="translate(-254.413 -206.779) scale(1.07102)"
     id="use378" />
  <use
     xlink:href="#T"
     width="100%"
     height="100%"
     transform="translate(-200.56 -234.676) scale(1.06424)"
     id="use380" />
  <use
     xlink:href="#T"
     width="100%"
     height="100%"
     transform="translate(-30.8733 -175.831) scale(.9944)"
     id="use382" />
  <use
     xlink:href="#T"
     width="100%"
     height="100%"
     transform="translate(-209.816 -200.256) scale(1.11521)"
     id="use384" />
  <use
     xlink:href="#T"
     width="100%"
     height="100%"
     transform="matrix(.9073 0 0 .9073 -8.94964 -62.007)"
     id="use386" />
  <use
     xlink:href="#T"
     width="100%"
     height="100%"
     transform="matrix(.87352 0 0 .87352 -171.973 30.8185)"
     id="use388" />
  <use
     xlink:href="#T"
     width="100%"
     height="100%"
     transform="matrix(.91314 0 0 .91314 -287.808 39.8655)"
     id="use390" />
  <use
     xlink:href="#T"
     width="100%"
     height="100%"
     transform="translate(-597.702 -80.3494) scale(.99514)"
     id="use392" />
  <use
     xlink:href="#U"
     width="100%"
     height="100%"
     transform="translate(-854.343 20.4209) scale(1.04886)"
     id="use394" />
  <use
     xlink:href="#U"
     width="100%"
     height="100%"
     transform="translate(-784.442 45.7971) scale(1.09193)"
     id="use396" />
  <use
     xlink:href="#U"
     width="100%"
     height="100%"
     transform="translate(-773.096 -28.3473) scale(1.1442)"
     id="use398" />
  <use
     xlink:href="#U"
     width="100%"
     height="100%"
     transform="translate(-398.692 -11.4802) scale(1.04157)"
     id="use400" />
  <use
     xlink:href="#U"
     width="100%"
     height="100%"
     transform="translate(-165.602 60.7126) scale(.9293)"
     id="use402" />
  <use
     xlink:href="#U"
     width="100%"
     height="100%"
     transform="translate(-524.878 35.0807) scale(1.11594)"
     id="use404" />
  <use
     xlink:href="#U"
     width="100%"
     height="100%"
     transform="translate(-261.559 218.654) scale(.88768)"
     id="use406" />
  <use
     xlink:href="#U"
     width="100%"
     height="100%"
     transform="translate(-715.487 215.196) scale(1.04749)"
     id="use408" />
  <use
     xlink:href="#U"
     width="100%"
     height="100%"
     transform="translate(-536.246 145.722) scale(1.07543)"
     id="use410" />
  <use
     xlink:href="#U"
     width="100%"
     height="100%"
     transform="matrix(.8784 0 0 .8784 10.9916 252.252)"
     id="use412" />
  <use
     xlink:href="#U"
     width="100%"
     height="100%"
     transform="matrix(.96665 0 0 .96665 -98.0686 209.447)"
     id="use414" />
  <use
     xlink:href="#U"
     width="100%"
     height="100%"
     transform="translate(-184.638 104.989) scale(1.08176)"
     id="use416" />
  <use
     xlink:href="#U"
     width="100%"
     height="100%"
     transform="translate(-282.099 137.289) scale(1.12827)"
     id="use418" />
  <use
     xlink:href="#V"
     width="100%"
     height="100%"
     transform="matrix(.98076 0 0 .98076 478.929 -109.676)"
     id="use420" />
  <use
     xlink:href="#V"
     width="100%"
     height="100%"
     transform="translate(372.193 -172.43) scale(1.04401)"
     id="use422" />
  <use
     xlink:href="#V"
     width="100%"
     height="100%"
     transform="matrix(.85232 0 0 .85232 557.855 -14.7648)"
     id="use424" />
  <use
     xlink:href="#V"
     width="100%"
     height="100%"
     transform="matrix(.85164 0 0 .85164 493.96 -47.8347)"
     id="use426" />
  <use
     xlink:href="#V"
     width="100%"
     height="100%"
     transform="matrix(.93625 0 0 .93625 433.804 -45.0587)"
     id="use428" />
  <use
     xlink:href="#V"
     width="100%"
     height="100%"
     transform="matrix(.88677 0 0 .88677 472.99 26.091)"
     id="use430" />
  <use
     xlink:href="#V"
     width="100%"
     height="100%"
     transform="matrix(.86085 0 0 .86085 -144.623 82.147)"
     id="use432" />
  <use
     xlink:href="#V"
     width="100%"
     height="100%"
     transform="matrix(.89524 0 0 .89524 -110.347 7.57967)"
     id="use434" />
  <use
     xlink:href="#V"
     width="100%"
     height="100%"
     transform="translate(-291.682 -12.8974) scale(1.14577)"
     id="use436" />
  <use
     xlink:href="#V"
     width="100%"
     height="100%"
     transform="translate(-202.907 -32.4088) scale(1.10746)"
     id="use438" />
  <use
     xlink:href="#V"
     width="100%"
     height="100%"
     transform="matrix(.96265 0 0 .96265 83.3319 111.325)"
     id="use440" />
  <use
     xlink:href="#V"
     width="100%"
     height="100%"
     transform="translate(95.309 178.462) scale(.91194)"
     id="use442" />
  <use
     xlink:href="#V"
     width="100%"
     height="100%"
     transform="translate(-7.02919 91.0098) scale(1.0694)"
     id="use444" />
  <use
     xlink:href="#V"
     width="100%"
     height="100%"
     transform="matrix(.96662 0 0 .96662 292.752 55.3436)"
     id="use446" />
  <use
     xlink:href="#V"
     width="100%"
     height="100%"
     transform="translate(111.393 -8.71033) scale(1.12494)"
     id="use448" />
  <use
     xlink:href="#V"
     width="100%"
     height="100%"
     transform="translate(224.098 81.8836) scale(1.05844)"
     id="use450" />
  <use
     xlink:href="#V"
     width="100%"
     height="100%"
     transform="translate(370.826 37.8906) scale(.96255)"
     id="use452" />
  <use
     xlink:href="#V"
     width="100%"
     height="100%"
     transform="translate(138.532 62.3121) scale(.92047)"
     id="use454" />
  <use
     xlink:href="#V"
     width="100%"
     height="100%"
     transform="matrix(.90736 0 0 .90736 263.533 10.766)"
     id="use456" />
  <use
     xlink:href="#V"
     width="100%"
     height="100%"
     transform="translate(-43.6054 -50.6692) scale(.92635)"
     id="use458" />
  <use
     xlink:href="#V"
     width="100%"
     height="100%"
     transform="translate(114.488 -186.312) scale(1.0625)"
     id="use460" />
  <use
     xlink:href="#V"
     width="100%"
     height="100%"
     transform="translate(145.172 -100.732) scale(1.00287)"
     id="use462" />
</svg>
