<?xml version="1.0" encoding="UTF-8" standalone="no"?>
<!-- Created with Inkscape (http://www.inkscape.org/) -->

<svg
   width="24.660015mm"
   height="29.801218mm"
   viewBox="0 0 24.660015 29.801218"
   version="1.1"
   id="svg521285"
   inkscape:version="1.1 (c68e22c387, 2021-05-23)"
   sodipodi:docname="5x-grow-speed.svg"
   xmlns:inkscape="http://www.inkscape.org/namespaces/inkscape"
   xmlns:sodipodi="http://sodipodi.sourceforge.net/DTD/sodipodi-0.dtd"
   xmlns="http://www.w3.org/2000/svg"
   xmlns:svg="http://www.w3.org/2000/svg">
  <sodipodi:namedview
     id="namedview521287"
     pagecolor="#ffffff"
     bordercolor="#666666"
     borderopacity="1.0"
     inkscape:pageshadow="2"
     inkscape:pageopacity="0.0"
     inkscape:pagecheckerboard="0"
     inkscape:document-units="mm"
     showgrid="false"
     inkscape:zoom="2.4801347"
     inkscape:cx="119.54996"
     inkscape:cy="20.966603"
     inkscape:window-width="1920"
     inkscape:window-height="1047"
     inkscape:window-x="-9"
     inkscape:window-y="-9"
     inkscape:window-maximized="1"
     inkscape:current-layer="layer1"
     fit-margin-top="2.5"
     lock-margins="true"
     fit-margin-left="2.5"
     fit-margin-right="2.5"
     fit-margin-bottom="2.5" />
  <defs
     id="defs521282">
    <clipPath
       clipPathUnits="userSpaceOnUse"
       id="clipPath82134">
      <path
         id="path82136"
         style="fill:#59f340;stroke-width:4.99999;stroke-linecap:round;stroke-linejoin:round"
         d="m 290.88376,142.25555 c 0.40411,0.944 -0.22237,2.04435 -1.1029,2.45315 -0.53572,0.27362 -1.18525,0.24137 -1.70896,-0.0437 -1.21833,-0.57076 -1.45778,-2.43248 -0.46664,-3.32237 0.92046,-0.81386 2.57181,-0.5699 3.14258,0.54394 0.0603,0.11675 0.10656,0.24089 0.13592,0.36897 z"
         sodipodi:nodetypes="csssc" />
    </clipPath>
    <inkscape:path-effect
       effect="bspline"
       id="path-effect82393"
       is_visible="true"
       lpeversion="1"
       weight="33.333333"
       steps="2"
       helper_size="0"
       apply_no_weight="true"
       apply_with_weight="true"
       only_selected="false" />
    <clipPath
       clipPathUnits="userSpaceOnUse"
       id="clipPath521244">
      <path
         id="path521242"
         style="fill:#59f340;stroke-width:4.99999;stroke-linecap:round;stroke-linejoin:round"
         d="m 290.88376,142.25555 c 0.40411,0.944 -0.22237,2.04435 -1.1029,2.45315 -0.53572,0.27362 -1.18525,0.24137 -1.70896,-0.0437 -1.21833,-0.57076 -1.45778,-2.43248 -0.46664,-3.32237 0.92046,-0.81386 2.57181,-0.5699 3.14258,0.54394 0.0603,0.11675 0.10656,0.24089 0.13592,0.36897 z"
         sodipodi:nodetypes="csssc" />
    </clipPath>
    <inkscape:path-effect
       effect="bspline"
       id="path-effect82401"
       is_visible="true"
       lpeversion="1"
       weight="33.333333"
       steps="2"
       helper_size="0"
       apply_no_weight="true"
       apply_with_weight="true"
       only_selected="false" />
    <clipPath
       clipPathUnits="userSpaceOnUse"
       id="clipPath521249">
      <path
         id="path521247"
         style="fill:#59f340;stroke-width:4.99999;stroke-linecap:round;stroke-linejoin:round"
         d="m 290.88376,142.25555 c 0.40411,0.944 -0.22237,2.04435 -1.1029,2.45315 -0.53572,0.27362 -1.18525,0.24137 -1.70896,-0.0437 -1.21833,-0.57076 -1.45778,-2.43248 -0.46664,-3.32237 0.92046,-0.81386 2.57181,-0.5699 3.14258,0.54394 0.0603,0.11675 0.10656,0.24089 0.13592,0.36897 z"
         sodipodi:nodetypes="csssc" />
    </clipPath>
    <inkscape:path-effect
       effect="bspline"
       id="path-effect82409"
       is_visible="true"
       lpeversion="1"
       weight="33.333333"
       steps="2"
       helper_size="0"
       apply_no_weight="true"
       apply_with_weight="true"
       only_selected="false" />
    <inkscape:path-effect
       effect="bspline"
       id="path-effect6751"
       is_visible="true"
       lpeversion="1"
       weight="33.333333"
       steps="2"
       helper_size="0"
       apply_no_weight="true"
       apply_with_weight="true"
       only_selected="false" />
    <inkscape:path-effect
       effect="bspline"
       id="path-effect60569"
       is_visible="true"
       lpeversion="1"
       weight="33.333333"
       steps="2"
       helper_size="0"
       apply_no_weight="true"
       apply_with_weight="true"
       only_selected="false" />
    <inkscape:path-effect
       effect="spiro"
       id="path-effect1170"
       is_visible="true"
       lpeversion="1" />
    <inkscape:path-effect
       effect="bspline"
       id="path-effect38479"
       is_visible="true"
       lpeversion="1"
       weight="33.333333"
       steps="2"
       helper_size="0"
       apply_no_weight="true"
       apply_with_weight="true"
       only_selected="false" />
    <inkscape:path-effect
       effect="bspline"
       id="path-effect49926"
       is_visible="true"
       lpeversion="1"
       weight="33.333333"
       steps="2"
       helper_size="0"
       apply_no_weight="true"
       apply_with_weight="true"
       only_selected="false" />
    <inkscape:path-effect
       effect="bspline"
       id="path-effect50958"
       is_visible="true"
       lpeversion="1"
       weight="33.333333"
       steps="2"
       helper_size="0"
       apply_no_weight="true"
       apply_with_weight="true"
       only_selected="false" />
  </defs>
  <g
     inkscape:label="Layer 1"
     inkscape:groupmode="layer"
     id="layer1"
     transform="translate(-127.63551,-154.73041)">
    <g
       id="g65359"
       transform="translate(-144.5109,-14.221878)">
      <path
         style="fill:#d8f0ef;fill-opacity:1;stroke:none;stroke-width:0.264583px;stroke-linecap:butt;stroke-linejoin:miter;stroke-opacity:1"
         d="m 286.80202,175.73352 c 0.13627,2.61043 -0.0588,5.24598 0.30976,7.83943 0.47252,2.12606 2.04585,4.12625 3.52898,5.54843 1.42432,1.34803 2.87883,2.29328 3.52093,4.20006 0.33969,1.03475 0.11914,2.53483 -1.0659,2.89631 -1.57506,-0.006 -11.44397,0.0837 -16.05048,-4.8e-4 -1.28027,10e-4 -2.63056,-0.94757 -2.36522,-2.35486 0.58346,-1.65651 2.79101,-3.16116 3.48354,-4.08506 2.68785,-2.23041 2.95765,-4.59125 3.43509,-6.11238 0.44946,-2.51409 0.23047,-4.02141 0.3462,-6.48142 0.1865,-0.66165 -0.81338,-2.34132 1.55286,-1.72333 0.96806,0.14444 2.33615,0.12912 3.30424,0.2733 z"
         id="path1206"
         sodipodi:nodetypes="cccccccccccc" />
      <path
         style="fill:#e4fefe;fill-opacity:1;stroke:none;stroke-width:0.264583px;stroke-linecap:butt;stroke-linejoin:miter;stroke-opacity:1"
         d="m 282.65779,175.2158 c 1.19439,0 2.38904,0 2.99868,0.21388 0.60963,0.21387 0.63476,0.64132 0.62217,1.41453 -0.0126,0.77321 -0.0629,1.89214 -0.0754,3.13055 -0.0126,1.2384 0.0126,2.59622 0.18235,3.64605 0.16979,1.04983 0.4841,1.7916 0.85503,2.45793 0.37093,0.66634 0.79839,1.25724 1.30131,1.86699 0.50293,0.60976 1.08125,1.23837 1.74133,1.86698 0.66008,0.62862 1.40184,1.25723 1.90471,1.7413 0.50288,0.48407 0.7669,0.82352 0.93654,1.2007 0.16964,0.37719 0.24507,0.79207 0.21987,1.23205 -0.0252,0.43998 -0.15092,0.90516 -0.54682,1.18164 -0.3959,0.27649 -1.06223,0.36449 -2.25661,0.39595 -1.19439,0.0315 -2.91678,0.006 -4.75239,0.0189 -1.83561,0.0126 -3.7843,0.0629 -5.22385,0.0566 -1.43954,-0.006 -2.36988,-0.0691 -3.01107,-0.13198 -0.64119,-0.0628 -0.99322,-0.12571 -1.31383,-0.28277 -0.32061,-0.15706 -0.60977,-0.40851 -0.71052,-0.71028 -0.10074,-0.30177 -0.0127,-0.6538 0.37705,-1.1568 0.38978,-0.503 1.08125,-1.15676 1.86704,-1.89226 0.78579,-0.7355 1.66585,-1.55269 2.31332,-2.33215 0.64747,-0.77946 1.06237,-1.52123 1.40813,-2.31327 0.34576,-0.79204 0.62234,-1.63438 0.80466,-2.67158 0.18232,-1.0372 0.27033,-2.26928 0.3269,-3.40081 0.0566,-1.13153 0.0817,-2.16245 0.0817,-3.06767 1e-5,-0.90521 -0.0251,-1.68497 -0.0503,-2.46446 z"
         id="path6749"
         inkscape:path-effect="#path-effect6751"
         inkscape:original-d="m 282.65779,175.2158 c 0,0 2.38904,2.6e-4 3.58316,0 0.0254,0.42774 0.0505,0.85519 0.0754,1.28239 -0.05,1.11924 -0.10031,2.23817 -0.15087,3.35685 0.0254,1.35812 0.0506,2.71593 0.0754,4.07349 0.31458,0.74205 0.62889,1.48382 0.94293,2.22533 0.42774,0.59118 0.8552,1.18208 1.2824,1.77272 0.57861,0.6289 1.15693,1.25751 1.735,1.88587 0.74206,0.6289 1.48382,1.25751 2.22533,1.88587 0.26429,0.33973 0.52831,0.67918 0.79207,1.01837 0.0757,0.41517 0.15113,0.83005 0.2263,1.24468 -0.12546,0.46545 -0.25119,0.93063 -0.37717,1.39554 -0.66609,0.0883 -1.33242,0.17628 -1.99903,0.26402 -1.7222,-0.0249 -3.44459,-0.05 -5.16729,-0.0754 -1.94851,0.0506 -3.8972,0.10085 -5.8462,0.15087 -0.93012,-0.0626 -1.86046,-0.12546 -2.79109,-0.18859 -0.35177,-0.0626 -0.7038,-0.12546 -1.05609,-0.18858 -0.28891,-0.25119 -0.57807,-0.50264 -0.8675,-0.75435 0.0883,-0.35177 0.17628,-0.7038 0.26402,-1.05609 0.69177,-0.65352 1.38324,-1.30727 2.07446,-1.96131 0.88036,-0.81696 1.76041,-1.63416 2.64022,-2.45163 0.41519,-0.74154 0.8301,-1.48331 1.24475,-2.22536 0.27686,-0.84211 0.55345,-1.68445 0.82978,-2.52707 0.0883,-1.23186 0.17628,-2.46394 0.26402,-3.69631 0.0254,-1.0307 0.0506,-2.06162 0.0754,-3.09283 -0.0249,-0.77924 -0.0754,-2.33848 -0.0754,-2.33848 z" />
      <path
         style="fill:#59f340;fill-opacity:1;stroke:none;stroke-width:0.264583px;stroke-linecap:butt;stroke-linejoin:miter;stroke-opacity:1"
         d="m 276.70173,194.65603 c 0.49362,0.11004 1.48056,0.33006 3.07098,0.44319 1.59042,0.11312 3.78428,0.11942 5.83047,0.11314 2.04619,-0.006 3.9446,-0.0252 5.17811,-0.18359 1.23352,-0.15844 1.80224,-0.4564 2.03798,-0.74853 0.23573,-0.29212 0.13847,-0.57878 0.0144,-0.88241 -0.12405,-0.30364 -0.27492,-0.62423 -0.44773,-0.87257 -0.17281,-0.24834 -0.36768,-0.42435 -0.99003,-1.03412 -0.62236,-0.60977 -1.67214,-1.65326 -2.44538,-2.52703 -0.77324,-0.87378 -1.26985,-1.57783 -1.65963,-2.26931 -0.38979,-0.69149 -0.67267,-1.37038 -0.82988,-1.98961 -0.15722,-0.61922 -0.18865,-1.17869 -0.29852,-1.49936 -0.10987,-0.32067 -0.29844,-0.40238 -0.60334,-0.45274 -0.30491,-0.0503 -0.72608,-0.0692 -1.11271,-0.0598 -0.38663,0.009 -0.73865,0.0471 -0.99484,0.12599 -0.25619,0.0789 -0.41635,0.1989 -0.51697,0.38447 -0.10062,0.18557 -0.14162,0.43643 -0.24384,0.90445 -0.10223,0.46803 -0.26567,1.15321 -0.47312,1.79752 -0.20746,0.64432 -0.4589,1.24779 -0.84236,1.9141 -0.38346,0.66631 -0.89892,1.3955 -1.30752,1.92038 -0.40859,0.52488 -0.71032,0.84547 -1.04349,1.17235 -0.33316,0.32688 -0.69776,0.66004 -1.00263,0.91777 -0.30487,0.25773 -0.55002,0.44002 -0.83293,0.70093 -0.28291,0.2609 -0.6035,0.60035 -0.77324,0.94936 -0.16973,0.34902 -0.1886,0.70733 -0.19802,0.88636 -0.009,0.17903 -0.009,0.17903 0.48422,0.28907 z"
         id="path60567"
         inkscape:path-effect="#path-effect60569"
         inkscape:original-d="m 276.20811,194.54599 c 0.9872,0.22028 1.97414,0.4403 2.96082,0.66005 2.1942,0.007 4.38806,0.0128 6.58169,0.0189 1.89875,-0.0186 3.79716,-0.0375 5.69534,-0.0566 0.56901,-0.2977 1.13774,-0.59565 1.70621,-0.89387 -0.097,-0.28641 -0.19428,-0.57306 -0.29181,-0.85999 -0.15061,-0.32034 -0.30148,-0.64093 -0.45261,-0.96179 -0.19461,-0.17576 -0.38948,-0.35177 -0.58462,-0.52805 -1.04956,-1.04327 -2.09934,-2.08676 -3.14941,-3.13054 -0.49635,-0.70381 -0.99296,-1.40786 -1.48984,-2.11218 -0.28262,-0.67866 -0.56549,-1.35756 -0.84864,-2.03674 -0.0312,-0.55922 -0.0626,-1.11869 -0.0943,-1.67843 -0.18833,-0.0815 -0.37691,-0.16318 -0.56576,-0.24516 -0.42092,-0.0186 -0.84209,-0.0375 -1.26354,-0.0566 -0.35177,0.038 -0.70379,0.0757 -1.05609,0.11316 -0.15989,0.12029 -0.32005,0.24032 -0.48047,0.36008 -0.0407,0.25113 -0.0817,0.50199 -0.123,0.75258 -0.16319,0.68548 -0.32662,1.37066 -0.49033,2.0556 -0.25119,0.60375 -0.50264,1.20722 -0.75435,1.81044 -0.51522,0.72948 -1.03068,1.45867 -1.54642,2.18761 -0.30148,0.32087 -0.60321,0.64146 -0.90521,0.96179 -0.36435,0.33344 -0.72894,0.66661 -1.09381,0.99951 -0.2449,0.18258 -0.49006,0.36487 -0.73549,0.54691 -0.32034,0.33973 -0.64093,0.67918 -0.96179,1.01837 -0.0186,0.35859 -0.0375,0.7169 -0.0566,1.07495 z" />
      <path
         style="fill:#e8fefc;fill-opacity:1;stroke:none;stroke-width:0.264583px;stroke-linecap:butt;stroke-linejoin:miter;stroke-opacity:1"
         d="m 282.37797,172.99115 c -0.31836,0.0424 -0.62418,0.17518 -0.87251,0.37885 -0.32607,0.26743 -0.54956,0.65847 -0.60852,1.07604 -0.059,0.41757 0.0486,0.8574 0.29855,1.19708 0.2209,0.30025 0.5427,0.51598 0.88841,0.65538 0.3457,0.1394 0.71616,0.20683 1.08622,0.25157 0.95175,0.11507 1.91631,0.0853 2.8701,-0.0115 0.29042,-0.0295 0.5817,-0.0654 0.86217,-0.1463 0.28047,-0.0809 0.55151,-0.20899 0.76804,-0.40476 0.20551,-0.1858 0.35676,-0.42939 0.43997,-0.69364 0.0832,-0.26426 0.099,-0.54846 0.0537,-0.82177 -0.0527,-0.31781 -0.1882,-0.62166 -0.39033,-0.87251 -0.29399,-0.36485 -0.72995,-0.61217 -1.19396,-0.67734"
         id="path1165"
         inkscape:original-d="m 282.37797,172.99115 c -0.29057,0.12655 -0.58141,0.25283 -0.87251,0.37885 -0.2911,0.12602 -0.20638,1.51568 -0.30997,2.27312 -0.10359,0.75744 1.31668,0.6049 1.97463,0.90695 0.65794,0.30205 1.91366,-0.007 2.8701,-0.0115 0.95643,-0.004 1.08707,-0.36711 1.63021,-0.55106 0.54314,-0.18395 0.32937,-1.01001 0.49365,-1.51541 0.16429,-0.5054 -0.25995,-0.58141 -0.39033,-0.87251 -0.13037,-0.2911 -0.7957,-0.4513 -1.19396,-0.67734"
         inkscape:path-effect="#path-effect1170" />
      <path
         style="fill:#a37742;fill-opacity:1;stroke:none;stroke-width:0.264583px;stroke-linecap:butt;stroke-linejoin:miter;stroke-opacity:1"
         d="m 282.22307,172.24715 c 0.0565,0.38771 0.16954,1.16256 0.28258,1.93769 0.0631,0.0848 0.12643,0.16986 0.42862,0.26626 0.3022,0.0964 0.84337,0.20462 1.45489,0.22623 0.61153,0.0216 1.29341,-0.0433 1.65154,-0.11039 0.35812,-0.067 0.38842,-0.12765 0.47502,-0.57138 0.0866,-0.44373 0.22734,-1.26654 0.36805,-2.08915 -0.67108,0.33554 -1.34205,0.67103 -2.12816,0.66328 -0.78611,-0.008 -1.68775,-0.35905 -2.58908,-0.71025 0,0 0,0 0.0565,0.38771 z"
         id="path65159" />
      <path
         style="fill:#d2b79a;fill-opacity:1;stroke:none;stroke-width:0.264583px;stroke-linecap:butt;stroke-linejoin:miter;stroke-opacity:1"
         d="m 282.16653,171.85944 c 0.35873,-0.13832 1.07607,-0.4149 1.86237,-0.40699 0.78631,0.008 1.99979,0.16172 2.85487,0.45396 -0.78337,0.42213 -1.55851,0.71432 -2.34462,0.70659 -0.78612,-0.008 -1.93826,-0.2424 -2.37262,-0.75356 z"
         id="path65161"
         sodipodi:nodetypes="ccccc" />
      <path
         style="fill:#38b524;fill-opacity:1;stroke:none;stroke-width:0.264583px;stroke-linecap:butt;stroke-linejoin:miter;stroke-opacity:1"
         d="m 277.22648,192.45267 c 0.0847,0.0788 -1.0409,1.42671 -0.34162,1.97081 0.744,0.4647 1.67214,0.41009 2.51729,0.47023 2.68549,0.0604 5.36933,-0.11457 8.05451,-0.13719 1.5289,-0.0227 3.06326,-0.0663 4.58577,-0.16216 0.81005,-0.25793 0.78239,-0.94818 0.51712,-1.46905 -0.12483,-0.31117 -0.43903,-0.94225 -0.35887,-1.00465 0.8252,0.54377 1.20228,1.29486 0.95149,2.15379 -0.14005,0.82682 -1.03895,1.05965 -1.7484,1.1466 -1.38728,0.13502 -2.78537,0.066 -4.17763,0.0908 -3.10407,10e-4 -6.21326,0.0804 -9.31309,-0.11282 -0.67398,-0.0594 -1.41285,-0.10137 -1.97259,-0.52184 -0.54791,-0.62396 0.0825,-1.44739 0.60278,-1.8601 0.221,-0.19619 -0.22957,0.18587 0,0 0,0 0.61899,-0.62425 0.68324,-0.56442 z"
         id="path16084"
         sodipodi:nodetypes="scccccccccccccs" />
      <path
         style="fill:#61d535;fill-opacity:1;stroke:none;stroke-width:0.264583px;stroke-linecap:butt;stroke-linejoin:miter;stroke-opacity:1"
         d="m 277.29826,193.80167 c 0.43561,-0.25781 0.72043,-0.42138 1.49841,-0.60806 0.77797,-0.18669 1.8981,-0.30225 3.48946,-0.37336 1.59136,-0.0711 3.65382,-0.0978 5.28517,-0.0311 1.63136,0.0667 2.8315,0.22672 3.57383,0.40906 0.74233,0.18233 1.02681,0.3868 1.18225,0.48003 0.15545,0.0932 0.18215,0.0755 0.19934,-0.0351 0.0172,-0.1105 0.025,-0.31404 -0.35713,-0.57192 -0.38212,-0.25788 -1.15447,-0.56995 -2.06074,-0.76161 -0.90628,-0.19166 -1.94639,-0.26278 -3.31549,-0.29835 -1.3691,-0.0356 -3.06707,-0.0356 -4.40062,0.0355 -1.33354,0.0711 -2.30254,0.21334 -3.02267,0.35558 -0.72013,0.14223 -1.19129,0.28447 -1.48262,0.45646 -0.29133,0.17198 -0.40489,0.35226 -0.54915,0.57036 0,0 -0.25848,0.44045 -0.22627,0.48084 0.0322,0.0404 0.18623,-0.10833 0.18623,-0.10833 z"
         id="path31077"
         sodipodi:nodetypes="cccccccccccccczc" />
      <path
         style="fill:#59cb3a;fill-opacity:1;stroke:none;stroke-width:0.264583px;stroke-linecap:butt;stroke-linejoin:miter;stroke-opacity:1"
         d="m 286.2504,183.53265 c 0.0472,0.30189 0.14146,0.90536 0.3584,1.52772 0.21694,0.62235 0.55639,1.26353 1.02161,1.95187 0.46522,0.68834 1.05612,1.42381 1.62819,2.065 0.57207,0.64119 1.12525,1.18808 1.6125,1.67966 0.48725,0.49157 0.90854,0.92779 1.14104,1.22012 0.23251,0.29233 0.27639,0.44072 0.22302,0.47399 -0.0534,0.0333 -0.20427,-0.0485 -0.57519,-0.39102 -0.37092,-0.34256 -0.96181,-0.94602 -1.71303,-1.71609 -0.75121,-0.77008 -1.6627,-1.70671 -2.31654,-2.64334 -0.65383,-0.93663 -1.04986,-1.87327 -1.2448,-2.61822 -0.19493,-0.74496 -0.18863,-1.29813 -0.18548,-1.57486 0.003,-0.27672 0.003,-0.27672 0.0503,0.0252 z"
         id="path38477"
         inkscape:path-effect="#path-effect38479"
         inkscape:original-d="m 286.20323,183.23076 c 0.0946,0.60374 0.18885,1.20722 0.28288,1.81043 0.33973,0.64148 0.67918,1.28266 1.01837,1.92359 0.59119,0.73577 1.18208,1.47125 1.77272,2.20647 0.55347,0.54718 1.10665,1.09407 1.65957,1.64071 0.42158,0.43651 0.84287,0.87273 1.26391,1.3087 0.0441,0.14865 0.088,0.29704 0.13164,0.44516 -0.15061,-0.0814 -0.30148,-0.16318 -0.45261,-0.24516 -0.59066,-0.60323 -1.18155,-1.20669 -1.77272,-1.81044 -0.91126,-0.9364 -1.82275,-1.87303 -2.73452,-2.80995 -0.39577,-0.9364 -0.7918,-1.87303 -1.1881,-2.80995 0.007,-0.55293 0.0128,-1.10611 0.0189,-1.65956 z" />
      <path
         style="fill:#59cb3a;fill-opacity:1;stroke:none;stroke-width:0.264583px;stroke-linecap:butt;stroke-linejoin:miter;stroke-opacity:1"
         d="m 282.77494,183.0989 c -0.0472,0.30189 -0.14142,0.90505 -0.27977,1.57791 -0.13835,0.67286 -0.32052,1.41409 -0.66639,2.17495 -0.34587,0.76086 -0.85505,1.54034 -1.38626,2.2035 -0.53122,0.66317 -1.0844,1.21006 -1.57165,1.70164 -0.48725,0.49157 -0.90854,0.92779 -1.14104,1.22012 -0.23251,0.29233 -0.27639,0.44072 -0.22302,0.47399 0.0534,0.0333 0.20427,-0.0485 0.57519,-0.39102 0.37092,-0.34256 0.96181,-0.94602 1.69417,-1.72238 0.73236,-0.77635 1.60613,-1.72555 2.1406,-2.73468 0.53447,-1.00913 0.72925,-2.07727 0.82357,-2.88833 0.0943,-0.81107 0.088,-1.36415 0.0849,-1.64087 -0.003,-0.27672 -0.003,-0.27672 -0.0503,0.0252 z"
         id="path49922"
         inkscape:path-effect="#path-effect49926"
         inkscape:original-d="m 282.82211,182.79701 c -0.094,0.60383 -0.18829,1.20699 -0.28288,1.81043 -0.1821,0.74231 -0.36427,1.48354 -0.5469,2.22533 -0.50912,0.78005 -1.01829,1.55953 -1.52756,2.33848 -0.55347,0.54718 -1.10665,1.09407 -1.65957,1.64071 -0.42158,0.43651 -0.84287,0.87273 -1.26391,1.3087 -0.0441,0.14865 -0.088,0.29704 -0.13164,0.44516 0.15061,-0.0814 0.30148,-0.16318 0.45261,-0.24516 0.59066,-0.60323 1.18155,-1.20669 1.77272,-1.81044 0.87382,-0.94871 1.74759,-1.89791 2.62137,-2.84767 0.19519,-1.0687 0.38997,-2.13683 0.58462,-3.20598 -0.006,-0.55304 -0.0123,-1.10612 -0.0189,-1.65956 2.8e-4,2.6e-4 2.9e-4,2.6e-4 4e-5,0 z"
         sodipodi:nodetypes="ccccccccccccc" />
      <path
         style="fill:none;stroke:#93f57b;stroke-width:0.264583px;stroke-linecap:butt;stroke-linejoin:miter;stroke-opacity:1"
         d="m 282.87509,183.13824 c 0.10015,0.0393 0.30014,0.11788 0.5268,0.17044 0.22666,0.0526 0.48002,0.0792 0.90007,0.0836 0.42005,0.004 1.00678,-0.0133 1.34673,-0.0511 0.33994,-0.0378 0.43331,-0.0956 0.4711,-0.16209 0.0378,-0.0665 0.02,-0.14206 -0.0954,-0.20885 -0.11545,-0.0668 -0.32881,-0.12457 -0.57108,-0.16682 -0.24227,-0.0423 -0.51342,-0.0689 -0.76457,-0.0823 -0.25116,-0.0134 -0.4823,-0.0134 -0.79793,0.0518 -0.31563,0.0652 -0.71563,0.19553 -0.91572,0.26074 -0.20009,0.0652 -0.20013,0.0652 -0.1,0.10451 z"
         id="path50956"
         inkscape:path-effect="#path-effect50958"
         inkscape:original-d="m 282.77494,183.0989 c 0.20025,0.0788 0.40023,0.15736 0.59995,0.23564 0.25364,0.0269 0.507,0.0536 0.76011,0.08 0.58702,-0.0175 1.17375,-0.0353 1.76023,-0.0533 0.0936,-0.0575 0.18696,-0.11531 0.28004,-0.17336 -0.0175,-0.0753 -0.0353,-0.15086 -0.0533,-0.22669 -0.2131,-0.0575 -0.42646,-0.11531 -0.64009,-0.17336 -0.27088,-0.0264 -0.54203,-0.0531 -0.81344,-0.08 -0.23088,2.6e-4 -0.46202,2.6e-4 -0.69342,0 -0.39976,0.13064 -0.79976,0.261 -1.20004,0.39111 z" />
    </g>
    <g
       id="g82417"
       transform="translate(-157.33572,18.301976)">
      <path
         id="path82387"
         style="fill:#59f340;stroke-width:2.38246;stroke-linecap:round;stroke-linejoin:round"
         d="m 297.39732,146.69205 c 0.19256,0.4498 -0.10595,0.97411 -0.52552,1.1689 -0.25526,0.13038 -0.56476,0.11501 -0.8143,-0.0208 -0.58053,-0.27196 -0.69462,-1.15906 -0.22235,-1.58308 0.43859,-0.3878 1.22544,-0.27155 1.49741,0.25918 0.0287,0.0556 0.0508,0.11478 0.0648,0.17581 z"
         sodipodi:nodetypes="csssc" />
      <path
         style="fill:#59cb3a;fill-opacity:1;stroke:none;stroke-width:0.264583px;stroke-linecap:butt;stroke-linejoin:miter;stroke-opacity:1"
         d="m 289.64495,140.63834 c 0.21687,0.37403 0.43393,0.74837 0.56743,1.16954 0.13351,0.42118 0.1838,0.88949 0.0266,1.31996 -0.15718,0.43047 -0.52177,0.82336 -0.99316,1.11406 -0.47138,0.29071 -1.0497,0.4793 -1.40017,0.59873 -0.35046,0.11944 -0.47306,0.16973 -0.31581,0.31601 0.15725,0.14627 0.59413,0.38828 1.23059,0.49977 0.63646,0.11149 1.47252,0.0926 2.09475,-0.0771 0.62223,-0.16974 1.03083,-0.49033 1.24296,-0.93024 0.21213,-0.4399 0.22783,-0.99936 0.22154,-1.51482 -0.006,-0.51546 -0.0346,-0.98692 -0.11152,-1.33894 -0.0769,-0.35202 -0.20265,-0.5846 -0.44463,-0.86123 -0.24197,-0.27664 -0.60028,-0.59723 -0.88629,-0.77491 -0.28601,-0.17769 -0.49975,-0.21226 -0.69322,-0.10854 -0.19347,0.10373 -0.3663,0.3457 -0.53917,0.58772 0,0 8e-5,2e-5 8e-5,2e-5 z"
         id="path82389"
         inkscape:path-effect="#path-effect82393"
         inkscape:original-d="m 289.64495,140.63834 c 0,0 0.43401,0.74832 0.65062,1.12209 0.0506,0.4686 0.10085,0.93691 0.15087,1.40497 -0.36434,0.39317 -0.72894,0.78605 -1.0938,1.17867 -0.57808,0.18886 -1.1564,0.37744 -1.735,0.56577 -0.12232,0.0505 -0.2449,0.10084 -0.36775,0.15087 0.43717,0.24229 0.87405,0.4843 1.31068,0.72606 0.83635,-0.0186 1.67241,-0.0375 2.50821,-0.0566 0.40888,-0.32034 0.81748,-0.64093 1.22582,-0.96179 0.016,-0.55923 0.0317,-1.11869 0.0471,-1.67843 -0.028,-0.47121 -0.0563,-0.94267 -0.0849,-1.4144 -0.12546,-0.23234 -0.25118,-0.46492 -0.37717,-0.69778 -0.35806,-0.32034 -0.71637,-0.64093 -1.07495,-0.96179 -0.21347,-0.0343 -0.4272,-0.0689 -0.6412,-0.10373 -0.17261,0.2423 -0.51861,0.72607 -0.51861,0.72607 z"
         clip-path="url(#clipPath82134)"
         transform="matrix(0.47649127,0,0,0.47649127,158.79375,78.908518)" />
      <path
         id="path82395"
         style="fill:#59f340;stroke-width:1.27609;stroke-linecap:round;stroke-linejoin:round"
         d="m 298.0732,144.87306 c 0.10314,0.24092 -0.0568,0.52175 -0.28147,0.62609 -0.13673,0.0698 -0.3025,0.0616 -0.43616,-0.0112 -0.31094,-0.14567 -0.37205,-0.62082 -0.11909,-0.84793 0.23491,-0.20771 0.65637,-0.14545 0.80203,0.13882 0.0154,0.0298 0.0272,0.0615 0.0347,0.0942 z"
         sodipodi:nodetypes="csssc" />
      <path
         style="fill:#59cb3a;fill-opacity:1;stroke:none;stroke-width:0.264583px;stroke-linecap:butt;stroke-linejoin:miter;stroke-opacity:1"
         d="m 289.64495,140.63834 c 0.21687,0.37403 0.43393,0.74837 0.56743,1.16954 0.13351,0.42118 0.1838,0.88949 0.0266,1.31996 -0.15718,0.43047 -0.52177,0.82336 -0.99316,1.11406 -0.47138,0.29071 -1.0497,0.4793 -1.40017,0.59873 -0.35046,0.11944 -0.47306,0.16973 -0.31581,0.31601 0.15725,0.14627 0.59413,0.38828 1.23059,0.49977 0.63646,0.11149 1.47252,0.0926 2.09475,-0.0771 0.62223,-0.16974 1.03083,-0.49033 1.24296,-0.93024 0.21213,-0.4399 0.22783,-0.99936 0.22154,-1.51482 -0.006,-0.51546 -0.0346,-0.98692 -0.11152,-1.33894 -0.0769,-0.35202 -0.20265,-0.5846 -0.44463,-0.86123 -0.24197,-0.27664 -0.60028,-0.59723 -0.88629,-0.77491 -0.28601,-0.17769 -0.49975,-0.21226 -0.69322,-0.10854 -0.19347,0.10373 -0.3663,0.3457 -0.53917,0.58772 0,0 8e-5,2e-5 8e-5,2e-5 z"
         id="path82397"
         inkscape:path-effect="#path-effect82401"
         inkscape:original-d="m 289.64495,140.63834 c 0,0 0.43401,0.74832 0.65062,1.12209 0.0506,0.4686 0.10085,0.93691 0.15087,1.40497 -0.36434,0.39317 -0.72894,0.78605 -1.0938,1.17867 -0.57808,0.18886 -1.1564,0.37744 -1.735,0.56577 -0.12232,0.0505 -0.2449,0.10084 -0.36775,0.15087 0.43717,0.24229 0.87405,0.4843 1.31068,0.72606 0.83635,-0.0186 1.67241,-0.0375 2.50821,-0.0566 0.40888,-0.32034 0.81748,-0.64093 1.22582,-0.96179 0.016,-0.55923 0.0317,-1.11869 0.0471,-1.67843 -0.028,-0.47121 -0.0563,-0.94267 -0.0849,-1.4144 -0.12546,-0.23234 -0.25118,-0.46492 -0.37717,-0.69778 -0.35806,-0.32034 -0.71637,-0.64093 -1.07495,-0.96179 -0.21347,-0.0343 -0.4272,-0.0689 -0.6412,-0.10373 -0.17261,0.2423 -0.51861,0.72607 -0.51861,0.72607 z"
         clip-path="url(#clipPath82134)"
         transform="matrix(0.25521722,0,0,0.25521722,223.83466,108.567)" />
      <path
         id="path82403"
         style="fill:#59f340;stroke-width:1.87669;stroke-linecap:round;stroke-linejoin:round"
         d="m 298.85875,148.50888 c 0.15168,0.35432 -0.0835,0.76733 -0.41396,0.92076 -0.20107,0.1027 -0.44487,0.0906 -0.64143,-0.0164 -0.45729,-0.21423 -0.54716,-0.913 -0.17515,-1.24701 0.34548,-0.30547 0.9653,-0.21391 1.17952,0.20416 0.0226,0.0438 0.04,0.0904 0.051,0.13849 z"
         sodipodi:nodetypes="csssc" />
      <path
         style="fill:#59cb3a;fill-opacity:1;stroke:none;stroke-width:0.264583px;stroke-linecap:butt;stroke-linejoin:miter;stroke-opacity:1"
         d="m 289.64495,140.63834 c 0.21687,0.37403 0.43393,0.74837 0.56743,1.16954 0.13351,0.42118 0.1838,0.88949 0.0266,1.31996 -0.15718,0.43047 -0.52177,0.82336 -0.99316,1.11406 -0.47138,0.29071 -1.0497,0.4793 -1.40017,0.59873 -0.35046,0.11944 -0.47306,0.16973 -0.31581,0.31601 0.15725,0.14627 0.59413,0.38828 1.23059,0.49977 0.63646,0.11149 1.47252,0.0926 2.09475,-0.0771 0.62223,-0.16974 1.03083,-0.49033 1.24296,-0.93024 0.21213,-0.4399 0.22783,-0.99936 0.22154,-1.51482 -0.006,-0.51546 -0.0346,-0.98692 -0.11152,-1.33894 -0.0769,-0.35202 -0.20265,-0.5846 -0.44463,-0.86123 -0.24197,-0.27664 -0.60028,-0.59723 -0.88629,-0.77491 -0.28601,-0.17769 -0.49975,-0.21226 -0.69322,-0.10854 -0.19347,0.10373 -0.3663,0.3457 -0.53917,0.58772 0,0 8e-5,2e-5 8e-5,2e-5 z"
         id="path82405"
         inkscape:path-effect="#path-effect82409"
         inkscape:original-d="m 289.64495,140.63834 c 0,0 0.43401,0.74832 0.65062,1.12209 0.0506,0.4686 0.10085,0.93691 0.15087,1.40497 -0.36434,0.39317 -0.72894,0.78605 -1.0938,1.17867 -0.57808,0.18886 -1.1564,0.37744 -1.735,0.56577 -0.12232,0.0505 -0.2449,0.10084 -0.36775,0.15087 0.43717,0.24229 0.87405,0.4843 1.31068,0.72606 0.83635,-0.0186 1.67241,-0.0375 2.50821,-0.0566 0.40888,-0.32034 0.81748,-0.64093 1.22582,-0.96179 0.016,-0.55923 0.0317,-1.11869 0.0471,-1.67843 -0.028,-0.47121 -0.0563,-0.94267 -0.0849,-1.4144 -0.12546,-0.23234 -0.25118,-0.46492 -0.37717,-0.69778 -0.35806,-0.32034 -0.71637,-0.64093 -1.07495,-0.96179 -0.21347,-0.0343 -0.4272,-0.0689 -0.6412,-0.10373 -0.17261,0.2423 -0.51861,0.72607 -0.51861,0.72607 z"
         clip-path="url(#clipPath82134)"
         transform="matrix(0.37533755,0,0,0.37533755,189.67915,95.115038)" />
    </g>
  </g>
</svg>
