<?xml version="1.0" encoding="UTF-8" standalone="no"?>
<!-- Created with Inkscape (http://www.inkscape.org/) -->

<svg
   width="25.323778mm"
   height="40.350849mm"
   viewBox="0 0 25.323778 40.350849"
   version="1.1"
   id="svg1934"
   inkscape:version="1.1 (c68e22c387, 2021-05-23)"
   sodipodi:docname="autogrow-iii.svg"
   xmlns:inkscape="http://www.inkscape.org/namespaces/inkscape"
   xmlns:sodipodi="http://sodipodi.sourceforge.net/DTD/sodipodi-0.dtd"
   xmlns="http://www.w3.org/2000/svg"
   xmlns:svg="http://www.w3.org/2000/svg">
  <sodipodi:namedview
     id="namedview1936"
     pagecolor="#ffffff"
     bordercolor="#666666"
     borderopacity="1.0"
     inkscape:pageshadow="2"
     inkscape:pageopacity="0.0"
     inkscape:pagecheckerboard="0"
     inkscape:document-units="mm"
     showgrid="false"
     inkscape:zoom="6.7079576"
     inkscape:cx="101.59575"
     inkscape:cy="38.163628"
     inkscape:window-width="1920"
     inkscape:window-height="1047"
     inkscape:window-x="-9"
     inkscape:window-y="-9"
     inkscape:window-maximized="1"
     inkscape:current-layer="layer1"
     fit-margin-top="2.5"
     lock-margins="true"
     fit-margin-left="2.5"
     fit-margin-right="2.5"
     fit-margin-bottom="2.5" />
  <defs
     id="defs1931">
    <inkscape:path-effect
       effect="bspline"
       id="path-effect331514"
       is_visible="true"
       lpeversion="1"
       weight="33.333333"
       steps="2"
       helper_size="0"
       apply_no_weight="true"
       apply_with_weight="true"
       only_selected="false" />
    <inkscape:path-effect
       effect="spiro"
       id="path-effect331518"
       is_visible="true"
       lpeversion="1" />
    <inkscape:path-effect
       effect="bspline"
       id="path-effect331522"
       is_visible="true"
       lpeversion="1"
       weight="33.333333"
       steps="2"
       helper_size="0"
       apply_no_weight="true"
       apply_with_weight="true"
       only_selected="false" />
    <inkscape:path-effect
       effect="bspline"
       id="path-effect331526"
       is_visible="true"
       lpeversion="1"
       weight="33.333333"
       steps="2"
       helper_size="0"
       apply_no_weight="true"
       apply_with_weight="true"
       only_selected="false" />
    <clipPath
       clipPathUnits="userSpaceOnUse"
       id="clipPath82134">
      <path
         id="path82136"
         style="fill:#59f340;stroke-width:4.99999;stroke-linecap:round;stroke-linejoin:round"
         d="m 290.88376,142.25555 c 0.40411,0.944 -0.22237,2.04435 -1.1029,2.45315 -0.53572,0.27362 -1.18525,0.24137 -1.70896,-0.0437 -1.21833,-0.57076 -1.45778,-2.43248 -0.46664,-3.32237 0.92046,-0.81386 2.57181,-0.5699 3.14258,0.54394 0.0603,0.11675 0.10656,0.24089 0.13592,0.36897 z"
         sodipodi:nodetypes="csssc" />
    </clipPath>
    <inkscape:path-effect
       effect="bspline"
       id="path-effect418487"
       is_visible="true"
       lpeversion="1"
       weight="33.333333"
       steps="2"
       helper_size="0"
       apply_no_weight="true"
       apply_with_weight="true"
       only_selected="false" />
    <clipPath
       clipPathUnits="userSpaceOnUse"
       id="clipPath1916">
      <path
         id="path1914"
         style="fill:#59f340;stroke-width:4.99999;stroke-linecap:round;stroke-linejoin:round"
         d="m 290.88376,142.25555 c 0.40411,0.944 -0.22237,2.04435 -1.1029,2.45315 -0.53572,0.27362 -1.18525,0.24137 -1.70896,-0.0437 -1.21833,-0.57076 -1.45778,-2.43248 -0.46664,-3.32237 0.92046,-0.81386 2.57181,-0.5699 3.14258,0.54394 0.0603,0.11675 0.10656,0.24089 0.13592,0.36897 z"
         sodipodi:nodetypes="csssc" />
    </clipPath>
    <inkscape:path-effect
       effect="bspline"
       id="path-effect418491"
       is_visible="true"
       lpeversion="1"
       weight="33.333333"
       steps="2"
       helper_size="0"
       apply_no_weight="true"
       apply_with_weight="true"
       only_selected="false" />
    <clipPath
       clipPathUnits="userSpaceOnUse"
       id="clipPath1921">
      <path
         id="path1919"
         style="fill:#59f340;stroke-width:4.99999;stroke-linecap:round;stroke-linejoin:round"
         d="m 290.88376,142.25555 c 0.40411,0.944 -0.22237,2.04435 -1.1029,2.45315 -0.53572,0.27362 -1.18525,0.24137 -1.70896,-0.0437 -1.21833,-0.57076 -1.45778,-2.43248 -0.46664,-3.32237 0.92046,-0.81386 2.57181,-0.5699 3.14258,0.54394 0.0603,0.11675 0.10656,0.24089 0.13592,0.36897 z"
         sodipodi:nodetypes="csssc" />
    </clipPath>
    <inkscape:path-effect
       effect="bspline"
       id="path-effect418495"
       is_visible="true"
       lpeversion="1"
       weight="33.333333"
       steps="2"
       helper_size="0"
       apply_no_weight="true"
       apply_with_weight="true"
       only_selected="false" />
    <clipPath
       clipPathUnits="userSpaceOnUse"
       id="clipPath1926">
      <path
         id="path1924"
         style="fill:#59f340;stroke-width:4.99999;stroke-linecap:round;stroke-linejoin:round"
         d="m 290.88376,142.25555 c 0.40411,0.944 -0.22237,2.04435 -1.1029,2.45315 -0.53572,0.27362 -1.18525,0.24137 -1.70896,-0.0437 -1.21833,-0.57076 -1.45778,-2.43248 -0.46664,-3.32237 0.92046,-0.81386 2.57181,-0.5699 3.14258,0.54394 0.0603,0.11675 0.10656,0.24089 0.13592,0.36897 z"
         sodipodi:nodetypes="csssc" />
    </clipPath>
    <inkscape:path-effect
       effect="bspline"
       id="path-effect418499"
       is_visible="true"
       lpeversion="1"
       weight="33.333333"
       steps="2"
       helper_size="0"
       apply_no_weight="true"
       apply_with_weight="true"
       only_selected="false" />
    <clipPath
       clipPathUnits="userSpaceOnUse"
       id="clipPath1931">
      <path
         id="path1929"
         style="fill:#59f340;stroke-width:4.99999;stroke-linecap:round;stroke-linejoin:round"
         d="m 290.88376,142.25555 c 0.40411,0.944 -0.22237,2.04435 -1.1029,2.45315 -0.53572,0.27362 -1.18525,0.24137 -1.70896,-0.0437 -1.21833,-0.57076 -1.45778,-2.43248 -0.46664,-3.32237 0.92046,-0.81386 2.57181,-0.5699 3.14258,0.54394 0.0603,0.11675 0.10656,0.24089 0.13592,0.36897 z"
         sodipodi:nodetypes="csssc" />
    </clipPath>
    <inkscape:path-effect
       effect="bspline"
       id="path-effect418503"
       is_visible="true"
       lpeversion="1"
       weight="33.333333"
       steps="2"
       helper_size="0"
       apply_no_weight="true"
       apply_with_weight="true"
       only_selected="false" />
    <clipPath
       clipPathUnits="userSpaceOnUse"
       id="clipPath1936">
      <path
         id="path1934"
         style="fill:#59f340;stroke-width:4.99999;stroke-linecap:round;stroke-linejoin:round"
         d="m 290.88376,142.25555 c 0.40411,0.944 -0.22237,2.04435 -1.1029,2.45315 -0.53572,0.27362 -1.18525,0.24137 -1.70896,-0.0437 -1.21833,-0.57076 -1.45778,-2.43248 -0.46664,-3.32237 0.92046,-0.81386 2.57181,-0.5699 3.14258,0.54394 0.0603,0.11675 0.10656,0.24089 0.13592,0.36897 z"
         sodipodi:nodetypes="csssc" />
    </clipPath>
    <inkscape:path-effect
       effect="bspline"
       id="path-effect418507"
       is_visible="true"
       lpeversion="1"
       weight="33.333333"
       steps="2"
       helper_size="0"
       apply_no_weight="true"
       apply_with_weight="true"
       only_selected="false" />
  </defs>
  <g
     inkscape:label="Layer 1"
     inkscape:groupmode="layer"
     id="layer1"
     transform="translate(-208.15878,-84.871274)">
    <g
       id="g331510"
       transform="translate(-63.269139,-115.87196)">
      <path
         style="fill:#d8f0ef;fill-opacity:1;stroke:none;stroke-width:0.264583px;stroke-linecap:butt;stroke-linejoin:miter;stroke-opacity:1"
         d="m 286.69356,207.8791 c 0.12595,3.3269 -0.0289,6.67448 0.30715,9.98712 0.73808,1.68009 2.96297,1.77231 4.06076,3.17453 2.30546,2.03112 3.56512,5.19432 3.09124,8.25415 -0.30523,3.05756 -1.44724,6.35195 -4.08986,8.14638 -2.54242,1.46695 -5.12486,1.12485 -7.94047,1.10321 -2.24206,-0.11138 -4.14227,-0.4734 -5.80545,-2.19262 -1.40528,-1.61458 -1.98298,-4.69895 -2.33648,-6.75697 -0.31905,-3.77463 0.81807,-6.01263 3.33331,-8.61099 1.08032,-1.18607 2.54449,-1.88654 3.83995,-2.76419 1.06235,-1.32189 0.77547,-3.15362 0.94948,-4.73694 0.0789,-2.04293 0.081,-4.08767 0.10193,-6.13172 1.49615,0.17601 2.99229,0.35204 4.48844,0.52804 z"
         id="path331474"
         sodipodi:nodetypes="ccccccccccccc" />
      <path
         style="fill:#e4fefe;fill-opacity:1;stroke:none;stroke-width:0.264583px;stroke-linecap:butt;stroke-linejoin:miter;stroke-opacity:1"
         d="m 286.1782,207.33802 c 0.033,3.52496 0.0661,7.05019 0.0881,8.95588 0.022,1.90569 0.0331,2.19208 0.31413,2.49496 0.28106,0.30289 0.83182,0.62233 1.42503,0.98837 0.59321,0.36604 1.21333,0.76858 1.79163,1.19821 0.57831,0.42963 1.10705,0.88126 1.57515,1.53121 0.46809,0.64996 0.87566,1.49814 1.18406,2.27474 0.30841,0.7766 0.5177,1.48158 0.59475,2.54477 0.0771,1.06319 0.022,2.48374 -0.30197,3.77018 -0.32396,1.28645 -0.89881,2.40361 -1.36146,3.26832 -0.46265,0.86471 -0.80413,1.45954 -1.37686,1.94966 -0.57273,0.49013 -1.37685,0.87566 -2.39573,1.12904 -1.01889,0.25337 -2.2526,0.37454 -3.27702,0.38008 -1.02442,0.006 -1.83955,-0.10462 -2.74283,-0.24781 -0.90328,-0.1432 -1.89465,-0.31945 -2.75387,-0.63883 -0.85921,-0.31938 -1.58622,-0.78202 -2.14258,-1.39884 -0.55636,-0.61682 -0.9419,-1.38789 -1.28049,-2.36214 -0.33858,-0.97425 -0.61984,-2.11009 -0.72453,-3.20067 -0.1047,-1.09058 -0.0276,-2.115 0.15252,-3.05742 0.1801,-0.94241 0.46977,-1.82255 0.94897,-2.68734 0.47919,-0.86479 1.15112,-1.72399 1.83963,-2.418 0.68851,-0.69401 1.39349,-1.22275 2.13705,-1.74599 0.74357,-0.52325 1.52566,-1.04098 1.97173,-1.42644 0.44606,-0.38546 0.55622,-0.63881 0.63296,-1.39065 0.0768,-0.75183 0.11933,-1.98174 0.17384,-3.32889 0.0545,-1.34715 0.1206,-2.80114 0.14264,-3.93024 0.022,-1.1291 0,-1.93349 -0.022,-2.73762 0,0 3.40717,0.0855 3.40717,0.0855 0,0 0,-4e-5 0,-4e-5 z"
         id="path331476"
         inkscape:path-effect="#path-effect331514"
         inkscape:original-d="m 286.1782,207.33802 c 0,0 0.0664,7.05019 0.0991,10.57488 0.0113,0.28668 0.0223,0.57307 0.0331,0.85921 0.55105,0.31972 1.10181,0.63917 1.65232,0.95835 0.63918,0.40785 1.25604,0.81541 1.88365,1.22272 0.52902,0.45191 1.05776,0.90354 1.58624,1.35491 0.40784,0.84847 0.81541,1.69665 1.22272,2.54458 0.20956,0.70527 0.41885,1.41025 0.62788,2.11498 -0.0658,1.42129 -0.10989,2.84226 -0.16523,4.263 -0.58357,1.15691 -1.16738,2.26946 -1.75147,3.40379 -0.34122,0.59511 -0.68269,1.18994 -1.02444,1.78451 -0.80388,0.38582 -1.608,0.77135 -2.41239,1.15663 -1.2335,0.12144 -2.46721,0.2426 -3.70121,0.36351 -0.8149,-0.10989 -1.63003,-0.22005 -2.44545,-0.33046 -0.99115,-0.17599 -1.98252,-0.35224 -2.97418,-0.52875 -0.72678,-0.46239 -1.45378,-0.92504 -2.18107,-1.38795 -0.38529,-0.77084 -0.77082,-1.54191 -1.15663,-2.31326 -0.28614,-1.17842 -0.57254,-2.31299 -0.85921,-3.46988 0.0774,-1.0242 0.15448,-2.04862 0.23133,-3.07333 0.28667,-0.85896 0.57307,-1.74018 0.85921,-2.61067 0.67222,-0.85896 1.34415,-1.71816 2.01583,-2.57763 0.70527,-0.52849 1.41025,-1.05722 2.11498,-1.58623 0.78238,-0.51748 1.56447,-1.0352 2.3463,-1.55319 0.11042,-0.2531 0.22058,-0.50645 0.33047,-0.76007 0.0436,-1.25018 0.0861,-2.48009 0.1288,-3.72058 0.0664,-1.45381 0.13245,-2.9078 0.19828,-4.36214 -0.0218,-0.80388 -0.0661,-2.41239 -0.0661,-2.41239 l 3.40717,0.0855 z"
         sodipodi:nodetypes="ccccccccccccccccccccccccccccc" />
      <path
         style="fill:#40d8f3;fill-opacity:1;stroke:none;stroke-width:0.264583px;stroke-linecap:butt;stroke-linejoin:miter;stroke-opacity:1"
         d="m 285.51625,237.30527 c 0.51133,-0.14153 1.53383,-0.42454 2.36459,-0.72582 0.83075,-0.30128 1.4698,-0.6208 2.03119,-1.25979 0.56139,-0.639 1.04524,-1.59757 1.37847,-2.70676 0.33324,-1.10918 0.51583,-2.36902 0.42458,-3.72928 -0.0912,-1.36026 -0.45641,-2.82095 -1.05434,-4.20408 -0.59793,-1.38313 -1.42869,-2.68861 -1.96727,-3.39623 -0.53858,-0.70762 -0.78507,-0.81717 -1.26438,-0.96328 -0.30586,-0.0932 -0.78623,-0.64845 -1.27501,-1.45638 -0.27717,-0.45815 0.39844,-1.31358 -0.90185,-1.40784 -0.68193,-0.0494 -0.92096,-0.0349 -1.94414,0.007 -1.09417,0.0443 -0.34221,1.12147 -1.88863,2.40556 -0.46544,0.38648 -0.74184,0.7623 -1.27595,1.16401 -0.5341,0.40172 -1.10925,0.90383 -1.72553,1.7849 -0.61629,0.88106 -1.27359,2.14091 -1.68897,3.59257 -0.41538,1.45167 -0.58883,3.09494 -0.5203,4.41877 0.0685,1.32382 0.37893,2.32804 0.872,3.1862 0.49308,0.85815 1.16865,1.57024 1.78035,1.96726 0.6117,0.39701 1.15946,0.47918 1.94461,0.65266 0.78515,0.17348 1.80763,0.43823 2.54711,0.58883 0.73948,0.15061 1.19594,0.18713 1.42403,0.20537 0.2281,0.0183 0.2281,0.0183 0.73944,-0.12324 z"
         id="path331478"
         sodipodi:nodetypes="sssssssssssssssssssssss" />
      <path
         style="fill:#3acbca;fill-opacity:1;stroke:none;stroke-width:0.264583px;stroke-linecap:butt;stroke-linejoin:miter;stroke-opacity:1"
         d="m 276.39123,233.67643 c 0.0137,-0.0456 0.0411,-0.13686 -0.10035,-0.63892 -0.14142,-0.50206 -0.45182,-1.41499 -0.59794,-2.50143 -0.14613,-1.08645 -0.12786,-2.34629 0.0821,-3.50581 0.20996,-1.15951 0.50513,-2.23787 1.14879,-3.23762 0.64366,-0.99976 1.54857,-1.94976 2.08273,-2.44734 0.26909,-0.25067 1.29004,-1.11594 1.98871,-1.73374 0.68824,-0.60859 1.08336,-0.92064 1.17321,-1.00317 0.1963,-0.1803 0.34955,-0.41132 0.34955,-0.41132 0.0912,0.0548 0.13656,0.30521 -0.0278,0.53799 -0.0715,0.10132 -0.2927,0.43976 -0.86511,1.03045 -0.74271,0.76643 -1.88479,1.82847 -2.07812,2.01664 -0.34233,0.3332 -0.74982,0.93934 -1.1333,1.50089 -0.38349,0.56155 -0.76222,1.26229 -1.09088,2.33048 -0.32866,1.06818 -0.4523,2.49401 -0.62116,3.73111 -0.16887,1.23709 -0.1506,2.31435 -0.17344,3.01729 -0.0229,0.70293 -0.0867,1.03139 -0.15062,1.36005 0,0 -8e-5,0 0.0136,-0.0455 z"
         id="path331480"
         sodipodi:nodetypes="sssssssssssssssscss" />
      <path
         style="fill:#e8fefc;fill-opacity:1;stroke:none;stroke-width:0.264583px;stroke-linecap:butt;stroke-linejoin:miter;stroke-opacity:1"
         d="m 282.37797,204.7821 c -0.31836,0.0424 -0.62418,0.17518 -0.87251,0.37885 -0.32607,0.26743 -0.54956,0.65847 -0.60852,1.07604 -0.059,0.41757 0.0486,0.8574 0.29855,1.19708 0.2209,0.30025 0.5427,0.51598 0.88841,0.65538 0.3457,0.1394 0.71616,0.20683 1.08622,0.25157 0.95175,0.11507 1.91631,0.0853 2.8701,-0.0115 0.29042,-0.0295 0.5817,-0.0654 0.86217,-0.1463 0.28047,-0.0809 0.55151,-0.20899 0.76804,-0.40476 0.20551,-0.1858 0.35676,-0.42939 0.43997,-0.69364 0.0832,-0.26426 0.099,-0.54846 0.0537,-0.82177 -0.0527,-0.31781 -0.1882,-0.62166 -0.39033,-0.87251 -0.29399,-0.36485 -0.72995,-0.61217 -1.19396,-0.67734"
         id="path331482"
         inkscape:original-d="m 282.37797,204.7821 c -0.29057,0.12655 -0.58141,0.25283 -0.87251,0.37885 -0.2911,0.12602 -0.20638,1.51568 -0.30997,2.27312 -0.10359,0.75744 1.31668,0.6049 1.97463,0.90695 0.65794,0.30205 1.91366,-0.007 2.8701,-0.0115 0.95643,-0.004 1.08707,-0.36711 1.63021,-0.55106 0.54314,-0.18395 0.32937,-1.01001 0.49365,-1.51541 0.16429,-0.5054 -0.25995,-0.58141 -0.39033,-0.87251 -0.13037,-0.2911 -0.7957,-0.4513 -1.19396,-0.67734"
         inkscape:path-effect="#path-effect331518" />
      <path
         style="fill:#d2b79a;fill-opacity:1;stroke:none;stroke-width:0.264583px;stroke-linecap:butt;stroke-linejoin:miter;stroke-opacity:1"
         d="m 282.16653,203.65039 c 0.35873,-0.13832 1.07607,-0.4149 1.86237,-0.40699 0.78631,0.008 1.99979,0.16172 2.85487,0.45396 -0.78337,0.42213 -1.55851,0.71432 -2.34462,0.70659 -0.78612,-0.008 -1.93826,-0.2424 -2.37262,-0.75356 z"
         id="path331484"
         sodipodi:nodetypes="ccccc" />
      <path
         style="fill:#a37742;fill-opacity:1;stroke:none;stroke-width:0.264583px;stroke-linecap:butt;stroke-linejoin:miter;stroke-opacity:1"
         d="m 282.22307,204.0381 c 0.0565,0.38771 0.16954,1.16256 0.28258,1.93769 0.0631,0.0848 0.12643,0.16986 0.42862,0.26626 0.3022,0.0964 0.84337,0.20462 1.45489,0.22623 0.61153,0.0216 1.29341,-0.0433 1.65154,-0.11039 0.35812,-0.067 0.38842,-0.12765 0.47502,-0.57138 0.0866,-0.44373 0.22734,-1.26654 0.36805,-2.08915 -0.67108,0.33554 -1.34205,0.67103 -2.12816,0.66328 -0.78611,-0.008 -1.68775,-0.35905 -2.58908,-0.71025 0,0 0,0 0.0565,0.38771 z"
         id="path331486" />
      <path
         style="fill:#24b5b2;fill-opacity:1;stroke:none;stroke-width:0.264583px;stroke-linecap:butt;stroke-linejoin:miter;stroke-opacity:1"
         d="m 290.85918,233.63639 c -0.23508,0.61966 -0.63455,1.21893 -1.07155,1.68843 -0.437,0.4695 -1.07605,0.78903 -1.73791,1.04922 -0.66186,0.26019 -1.34656,0.46104 -2.191,0.53867 -0.84443,0.0776 -1.84865,0.032 -2.75702,-0.0639 -0.90838,-0.0958 -1.72088,-0.24191 -2.62927,-0.56596 -0.90839,-0.32405 -1.91261,-0.82616 -2.56088,-1.38299 -0.64828,-0.55682 -0.94042,-1.16849 -1.13209,-1.53367 -0.19168,-0.36517 -0.28299,-0.48388 -0.35616,-0.49311 -0.0732,-0.009 -0.12795,0.0912 -0.15532,0.30583 -0.0274,0.21463 -0.0274,0.54329 0.16446,0.99066 0.19183,0.44736 0.57526,1.01338 1.12309,1.48348 0.54783,0.4701 1.25992,0.84441 1.97658,1.09541 0.71667,0.25101 1.43788,0.37881 2.39648,0.51118 0.9586,0.13237 2.15454,0.26931 3.13135,0.26471 0.97682,-0.005 1.73455,-0.15067 2.45119,-0.34696 0.71664,-0.1963 1.39221,-0.44279 1.93077,-0.80793 0.53855,-0.36515 0.94024,-0.849 1.19129,-1.27801 0.25105,-0.42901 0.5158,-0.78277 0.56148,-1.02009 0.0457,-0.23732 0.074,-0.99527 -0.0102,-0.9999 -0.074,-0.004 -0.28701,0.46319 -0.32528,0.56488 -0.0383,0.10169 -1e-5,5e-5 -1e-5,5e-5 z"
         id="path331488"
         sodipodi:nodetypes="cccccccccccccccccccszc" />
      <path
         style="fill:none;stroke:#35d0d5;stroke-width:0.264583px;stroke-linecap:butt;stroke-linejoin:miter;stroke-opacity:1"
         d="m 278.58698,233.90998 c -0.1279,0.23752 -0.1279,0.23752 0.20081,0.43383 0.3287,0.19631 0.98601,0.58887 1.69817,0.89928 0.71215,0.3104 1.47901,0.53863 2.45136,0.62077 0.97236,0.0821 2.15003,0.0182 3.06757,-0.10506 0.91753,-0.12329 1.57484,-0.30587 2.13631,-0.48848 0.56147,-0.18261 1.02707,-0.3652 1.36938,-0.58438 0.34232,-0.21919 0.56143,-0.47482 0.4974,-0.75768 -0.064,-0.28287 -0.41094,-0.59327 -0.95412,-0.963 -0.54317,-0.36973 -1.28264,-0.79881 -2.34159,-1.04989 -1.05894,-0.25107 -2.43746,-0.32411 -3.7384,-0.15983 -1.30093,0.16427 -2.52425,0.56596 -3.26381,1.00407 -0.73956,0.43812 -0.99519,0.91285 -1.12308,1.15037 z"
         id="path331490"
         inkscape:path-effect="#path-effect331522"
         inkscape:original-d="m 278.45908,234.1475 c 2.7e-4,-2.6e-4 2.7e-4,-2.6e-4 0,0 0.6576,0.39231 1.31491,0.78487 1.97197,1.1777 0.76715,0.22798 1.53401,0.45621 2.30062,0.68471 1.17799,-0.0642 2.35567,-0.12807 3.53311,-0.19172 0.65759,-0.18285 1.3149,-0.36544 1.97196,-0.54776 0.46588,-0.18286 0.93147,-0.36545 1.39681,-0.54777 0.21937,-0.2559 0.43848,-0.51152 0.65732,-0.76688 -0.34666,-0.31067 -0.69358,-0.62107 -1.04076,-0.9312 -0.73924,-0.42936 -1.47871,-0.85844 -2.21846,-1.28726 -1.37831,-0.0733 -2.75683,-0.14633 -4.13565,-0.21911 -1.22311,0.40145 -2.44643,0.80313 -3.67004,1.20509 -0.25537,0.47448 -0.51099,0.94921 -0.76688,1.4242 z" />
      <path
         style="fill:#3acbca;fill-opacity:1;stroke:none;stroke-width:0.264583px;stroke-linecap:butt;stroke-linejoin:miter;stroke-opacity:1"
         d="m 291.22208,234.10542 c 0.20085,-0.56603 0.40164,-1.1319 0.63444,-1.72533 0.2328,-0.59344 0.49755,-1.21423 0.64365,-1.90345 0.1461,-0.68922 0.1735,-1.44695 0.0868,-2.35988 -0.0867,-0.91293 -0.28754,-1.98106 -0.63897,-2.93509 -0.35142,-0.95404 -0.85353,-1.79393 -1.41952,-2.52432 -0.566,-0.73039 -1.19592,-1.35118 -1.76649,-1.7712 -0.17567,-0.12932 -0.47572,-0.34591 -0.89802,-0.67242 -0.41924,-0.32415 -0.91174,-0.77197 -1.24711,-1.11981 -0.42401,-0.43979 -0.47138,-0.89256 -0.55907,-0.91546 -0.10454,-0.0273 -0.0755,0.0617 0.0211,0.4942 0.0828,0.3708 0.0759,0.39021 0.29772,0.73395 0.26226,0.40639 0.77763,0.91747 1.21885,1.37293 0.59735,0.61664 1.11013,1.15215 1.34908,1.4533 0.56142,0.70756 1.1457,1.62049 1.57928,2.8256 0.43359,1.2051 0.7166,2.70231 0.79872,4.06258 0.0821,1.36026 -0.0366,2.58358 -0.0867,3.39157 -0.0502,0.80798 -0.0319,1.20026 -0.0137,1.59283 z"
         id="path331492"
         sodipodi:nodetypes="csssssssssssssssscc" />
      <path
         style="fill:none;stroke:#6eebf5;stroke-width:0.147412px;stroke-linecap:butt;stroke-linejoin:miter;stroke-opacity:1"
         d="m 282.61937,217.89997 c -0.036,-0.12054 0.16178,-0.24642 0.46575,-0.34893 0.30396,-0.1025 0.71398,-0.18163 1.151,-0.187 0.43703,-0.005 0.901,0.063 1.2301,0.14033 0.32911,0.0774 0.52332,0.16367 0.5592,0.26614 0.0359,0.10246 -0.0864,0.22115 -0.58449,0.30387 -0.49809,0.0827 -1.37207,0.12948 -1.94392,0.0953 -0.57185,-0.0341 -0.8416,-0.14922 -0.87764,-0.26976 z"
         id="path331494"
         inkscape:path-effect="#path-effect331526"
         inkscape:original-d="m 282.38548,217.90534 c 0.19797,-0.12573 0.39578,-0.25162 0.59345,-0.37765 0.41018,-0.079 0.8202,-0.1581 1.23007,-0.23738 0.46413,0.0685 0.9281,0.13682 1.39191,0.20501 0.19438,0.0865 0.3886,0.17279 0.58268,0.25896 -0.12215,0.11884 -0.24443,0.23753 -0.36687,0.35607 -0.87387,0.0469 -1.74785,0.0937 -2.62199,0.14027 -0.2696,-0.11494 -0.53935,-0.23003 -0.80925,-0.34528 z" />
    </g>
    <g
       id="g418483"
       transform="translate(-80.316441,-48.447264)">
      <path
         id="path418459"
         style="fill:#59f340;stroke-width:2.38246;stroke-linecap:round;stroke-linejoin:round"
         d="m 301.70457,145.50522 c 0.19256,0.4498 -0.10595,0.97411 -0.52552,1.1689 -0.25526,0.13038 -0.56476,0.11501 -0.8143,-0.0208 -0.58053,-0.27196 -0.69462,-1.15906 -0.22235,-1.58308 0.43859,-0.3878 1.22544,-0.27155 1.49741,0.25918 0.0287,0.0556 0.0508,0.11478 0.0648,0.17581 z"
         sodipodi:nodetypes="csssc" />
      <path
         style="fill:#008000;stroke:none;stroke-width:0.264583px;stroke-linecap:butt;stroke-linejoin:miter;stroke-opacity:1"
         d="m 289.64495,140.63834 c 0.21687,0.37403 0.43393,0.74837 0.56743,1.16954 0.13351,0.42118 0.1838,0.88949 0.0266,1.31996 -0.15718,0.43047 -0.52177,0.82336 -0.99316,1.11406 -0.47138,0.29071 -1.0497,0.4793 -1.40017,0.59873 -0.35046,0.11944 -0.47306,0.16973 -0.31581,0.31601 0.15725,0.14627 0.59413,0.38828 1.23059,0.49977 0.63646,0.11149 1.47252,0.0926 2.09475,-0.0771 0.62223,-0.16974 1.03083,-0.49033 1.24296,-0.93024 0.21213,-0.4399 0.22783,-0.99936 0.22154,-1.51482 -0.006,-0.51546 -0.0346,-0.98692 -0.11152,-1.33894 -0.0769,-0.35202 -0.20265,-0.5846 -0.44463,-0.86123 -0.24197,-0.27664 -0.60028,-0.59723 -0.88629,-0.77491 -0.28601,-0.17769 -0.49975,-0.21226 -0.69322,-0.10854 -0.19347,0.10373 -0.3663,0.3457 -0.53917,0.58772 0,0 8e-5,2e-5 8e-5,2e-5 z"
         id="path418461"
         inkscape:path-effect="#path-effect418487"
         inkscape:original-d="m 289.64495,140.63834 c 0,0 0.43401,0.74832 0.65062,1.12209 0.0506,0.4686 0.10085,0.93691 0.15087,1.40497 -0.36434,0.39317 -0.72894,0.78605 -1.0938,1.17867 -0.57808,0.18886 -1.1564,0.37744 -1.735,0.56577 -0.12232,0.0505 -0.2449,0.10084 -0.36775,0.15087 0.43717,0.24229 0.87405,0.4843 1.31068,0.72606 0.83635,-0.0186 1.67241,-0.0375 2.50821,-0.0566 0.40888,-0.32034 0.81748,-0.64093 1.22582,-0.96179 0.016,-0.55923 0.0317,-1.11869 0.0471,-1.67843 -0.028,-0.47121 -0.0563,-0.94267 -0.0849,-1.4144 -0.12546,-0.23234 -0.25118,-0.46492 -0.37717,-0.69778 -0.35806,-0.32034 -0.71637,-0.64093 -1.07495,-0.96179 -0.21347,-0.0343 -0.4272,-0.0689 -0.6412,-0.10373 -0.17261,0.2423 -0.51861,0.72607 -0.51861,0.72607 z"
         clip-path="url(#clipPath82134)"
         transform="matrix(0.47649127,0,0,0.47649127,163.101,77.721691)" />
      <path
         id="path418463"
         style="fill:#59f340;stroke-width:1.27609;stroke-linecap:round;stroke-linejoin:round"
         d="m 302.38045,143.68623 c 0.10314,0.24092 -0.0568,0.52175 -0.28147,0.62609 -0.13673,0.0698 -0.3025,0.0616 -0.43616,-0.0112 -0.31094,-0.14567 -0.37205,-0.62082 -0.11909,-0.84793 0.23491,-0.20771 0.65637,-0.14545 0.80203,0.13882 0.0154,0.0298 0.0272,0.0615 0.0347,0.0942 z"
         sodipodi:nodetypes="csssc" />
      <path
         style="fill:#008000;stroke:none;stroke-width:0.264583px;stroke-linecap:butt;stroke-linejoin:miter;stroke-opacity:1"
         d="m 289.64495,140.63834 c 0.21687,0.37403 0.43393,0.74837 0.56743,1.16954 0.13351,0.42118 0.1838,0.88949 0.0266,1.31996 -0.15718,0.43047 -0.52177,0.82336 -0.99316,1.11406 -0.47138,0.29071 -1.0497,0.4793 -1.40017,0.59873 -0.35046,0.11944 -0.47306,0.16973 -0.31581,0.31601 0.15725,0.14627 0.59413,0.38828 1.23059,0.49977 0.63646,0.11149 1.47252,0.0926 2.09475,-0.0771 0.62223,-0.16974 1.03083,-0.49033 1.24296,-0.93024 0.21213,-0.4399 0.22783,-0.99936 0.22154,-1.51482 -0.006,-0.51546 -0.0346,-0.98692 -0.11152,-1.33894 -0.0769,-0.35202 -0.20265,-0.5846 -0.44463,-0.86123 -0.24197,-0.27664 -0.60028,-0.59723 -0.88629,-0.77491 -0.28601,-0.17769 -0.49975,-0.21226 -0.69322,-0.10854 -0.19347,0.10373 -0.3663,0.3457 -0.53917,0.58772 0,0 8e-5,2e-5 8e-5,2e-5 z"
         id="path418465"
         inkscape:path-effect="#path-effect418491"
         inkscape:original-d="m 289.64495,140.63834 c 0,0 0.43401,0.74832 0.65062,1.12209 0.0506,0.4686 0.10085,0.93691 0.15087,1.40497 -0.36434,0.39317 -0.72894,0.78605 -1.0938,1.17867 -0.57808,0.18886 -1.1564,0.37744 -1.735,0.56577 -0.12232,0.0505 -0.2449,0.10084 -0.36775,0.15087 0.43717,0.24229 0.87405,0.4843 1.31068,0.72606 0.83635,-0.0186 1.67241,-0.0375 2.50821,-0.0566 0.40888,-0.32034 0.81748,-0.64093 1.22582,-0.96179 0.016,-0.55923 0.0317,-1.11869 0.0471,-1.67843 -0.028,-0.47121 -0.0563,-0.94267 -0.0849,-1.4144 -0.12546,-0.23234 -0.25118,-0.46492 -0.37717,-0.69778 -0.35806,-0.32034 -0.71637,-0.64093 -1.07495,-0.96179 -0.21347,-0.0343 -0.4272,-0.0689 -0.6412,-0.10373 -0.17261,0.2423 -0.51861,0.72607 -0.51861,0.72607 z"
         clip-path="url(#clipPath82134)"
         transform="matrix(0.25521722,0,0,0.25521722,228.14191,107.38017)" />
      <path
         id="path418467"
         style="fill:#59f340;stroke-width:1.87669;stroke-linecap:round;stroke-linejoin:round"
         d="m 303.166,147.32205 c 0.15168,0.35432 -0.0835,0.76733 -0.41396,0.92076 -0.20107,0.1027 -0.44487,0.0906 -0.64143,-0.0164 -0.45729,-0.21423 -0.54716,-0.913 -0.17515,-1.24701 0.34548,-0.30547 0.9653,-0.21391 1.17952,0.20416 0.0226,0.0438 0.04,0.0904 0.051,0.13849 z"
         sodipodi:nodetypes="csssc" />
      <path
         style="fill:#008000;stroke:none;stroke-width:0.264583px;stroke-linecap:butt;stroke-linejoin:miter;stroke-opacity:1"
         d="m 289.64495,140.63834 c 0.21687,0.37403 0.43393,0.74837 0.56743,1.16954 0.13351,0.42118 0.1838,0.88949 0.0266,1.31996 -0.15718,0.43047 -0.52177,0.82336 -0.99316,1.11406 -0.47138,0.29071 -1.0497,0.4793 -1.40017,0.59873 -0.35046,0.11944 -0.47306,0.16973 -0.31581,0.31601 0.15725,0.14627 0.59413,0.38828 1.23059,0.49977 0.63646,0.11149 1.47252,0.0926 2.09475,-0.0771 0.62223,-0.16974 1.03083,-0.49033 1.24296,-0.93024 0.21213,-0.4399 0.22783,-0.99936 0.22154,-1.51482 -0.006,-0.51546 -0.0346,-0.98692 -0.11152,-1.33894 -0.0769,-0.35202 -0.20265,-0.5846 -0.44463,-0.86123 -0.24197,-0.27664 -0.60028,-0.59723 -0.88629,-0.77491 -0.28601,-0.17769 -0.49975,-0.21226 -0.69322,-0.10854 -0.19347,0.10373 -0.3663,0.3457 -0.53917,0.58772 0,0 8e-5,2e-5 8e-5,2e-5 z"
         id="path418469"
         inkscape:path-effect="#path-effect418495"
         inkscape:original-d="m 289.64495,140.63834 c 0,0 0.43401,0.74832 0.65062,1.12209 0.0506,0.4686 0.10085,0.93691 0.15087,1.40497 -0.36434,0.39317 -0.72894,0.78605 -1.0938,1.17867 -0.57808,0.18886 -1.1564,0.37744 -1.735,0.56577 -0.12232,0.0505 -0.2449,0.10084 -0.36775,0.15087 0.43717,0.24229 0.87405,0.4843 1.31068,0.72606 0.83635,-0.0186 1.67241,-0.0375 2.50821,-0.0566 0.40888,-0.32034 0.81748,-0.64093 1.22582,-0.96179 0.016,-0.55923 0.0317,-1.11869 0.0471,-1.67843 -0.028,-0.47121 -0.0563,-0.94267 -0.0849,-1.4144 -0.12546,-0.23234 -0.25118,-0.46492 -0.37717,-0.69778 -0.35806,-0.32034 -0.71637,-0.64093 -1.07495,-0.96179 -0.21347,-0.0343 -0.4272,-0.0689 -0.6412,-0.10373 -0.17261,0.2423 -0.51861,0.72607 -0.51861,0.72607 z"
         clip-path="url(#clipPath82134)"
         transform="matrix(0.37533755,0,0,0.37533755,193.9864,93.928211)" />
      <path
         id="path418471"
         style="fill:#40d8f3;fill-opacity:1;stroke-width:2.38246;stroke-linecap:round;stroke-linejoin:round"
         d="m 301.70457,145.50522 c 0.19256,0.4498 -0.10595,0.97411 -0.52552,1.1689 -0.25526,0.13038 -0.56476,0.11501 -0.8143,-0.0208 -0.58053,-0.27196 -0.69462,-1.15906 -0.22235,-1.58308 0.43859,-0.3878 1.22544,-0.27155 1.49741,0.25918 0.0287,0.0556 0.0508,0.11478 0.0648,0.17581 z"
         sodipodi:nodetypes="csssc" />
      <path
         style="fill:#3acbca;fill-opacity:1;stroke:none;stroke-width:0.264583px;stroke-linecap:butt;stroke-linejoin:miter;stroke-opacity:1"
         d="m 289.64495,140.63834 c 0.21687,0.37403 0.43393,0.74837 0.56743,1.16954 0.13351,0.42118 0.1838,0.88949 0.0266,1.31996 -0.15718,0.43047 -0.52177,0.82336 -0.99316,1.11406 -0.47138,0.29071 -1.0497,0.4793 -1.40017,0.59873 -0.35046,0.11944 -0.47306,0.16973 -0.31581,0.31601 0.15725,0.14627 0.59413,0.38828 1.23059,0.49977 0.63646,0.11149 1.47252,0.0926 2.09475,-0.0771 0.62223,-0.16974 1.03083,-0.49033 1.24296,-0.93024 0.21213,-0.4399 0.22783,-0.99936 0.22154,-1.51482 -0.006,-0.51546 -0.0346,-0.98692 -0.11152,-1.33894 -0.0769,-0.35202 -0.20265,-0.5846 -0.44463,-0.86123 -0.24197,-0.27664 -0.60028,-0.59723 -0.88629,-0.77491 -0.28601,-0.17769 -0.49975,-0.21226 -0.69322,-0.10854 -0.19347,0.10373 -0.3663,0.3457 -0.53917,0.58772 0,0 8e-5,2e-5 8e-5,2e-5 z"
         id="path418473"
         inkscape:path-effect="#path-effect418499"
         inkscape:original-d="m 289.64495,140.63834 c 0,0 0.43401,0.74832 0.65062,1.12209 0.0506,0.4686 0.10085,0.93691 0.15087,1.40497 -0.36434,0.39317 -0.72894,0.78605 -1.0938,1.17867 -0.57808,0.18886 -1.1564,0.37744 -1.735,0.56577 -0.12232,0.0505 -0.2449,0.10084 -0.36775,0.15087 0.43717,0.24229 0.87405,0.4843 1.31068,0.72606 0.83635,-0.0186 1.67241,-0.0375 2.50821,-0.0566 0.40888,-0.32034 0.81748,-0.64093 1.22582,-0.96179 0.016,-0.55923 0.0317,-1.11869 0.0471,-1.67843 -0.028,-0.47121 -0.0563,-0.94267 -0.0849,-1.4144 -0.12546,-0.23234 -0.25118,-0.46492 -0.37717,-0.69778 -0.35806,-0.32034 -0.71637,-0.64093 -1.07495,-0.96179 -0.21347,-0.0343 -0.4272,-0.0689 -0.6412,-0.10373 -0.17261,0.2423 -0.51861,0.72607 -0.51861,0.72607 z"
         clip-path="url(#clipPath82134)"
         transform="matrix(0.47649127,0,0,0.47649127,163.101,77.721691)" />
      <path
         id="path418475"
         style="fill:#40d8f3;fill-opacity:1;stroke-width:1.27609;stroke-linecap:round;stroke-linejoin:round"
         d="m 302.38045,143.68623 c 0.10314,0.24092 -0.0568,0.52175 -0.28147,0.62609 -0.13673,0.0698 -0.3025,0.0616 -0.43616,-0.0112 -0.31094,-0.14567 -0.37205,-0.62082 -0.11909,-0.84793 0.23491,-0.20771 0.65637,-0.14545 0.80203,0.13882 0.0154,0.0298 0.0272,0.0615 0.0347,0.0942 z"
         sodipodi:nodetypes="csssc" />
      <path
         style="fill:#3acbca;fill-opacity:1;stroke:none;stroke-width:0.264583px;stroke-linecap:butt;stroke-linejoin:miter;stroke-opacity:1"
         d="m 289.64495,140.63834 c 0.21687,0.37403 0.43393,0.74837 0.56743,1.16954 0.13351,0.42118 0.1838,0.88949 0.0266,1.31996 -0.15718,0.43047 -0.52177,0.82336 -0.99316,1.11406 -0.47138,0.29071 -1.0497,0.4793 -1.40017,0.59873 -0.35046,0.11944 -0.47306,0.16973 -0.31581,0.31601 0.15725,0.14627 0.59413,0.38828 1.23059,0.49977 0.63646,0.11149 1.47252,0.0926 2.09475,-0.0771 0.62223,-0.16974 1.03083,-0.49033 1.24296,-0.93024 0.21213,-0.4399 0.22783,-0.99936 0.22154,-1.51482 -0.006,-0.51546 -0.0346,-0.98692 -0.11152,-1.33894 -0.0769,-0.35202 -0.20265,-0.5846 -0.44463,-0.86123 -0.24197,-0.27664 -0.60028,-0.59723 -0.88629,-0.77491 -0.28601,-0.17769 -0.49975,-0.21226 -0.69322,-0.10854 -0.19347,0.10373 -0.3663,0.3457 -0.53917,0.58772 0,0 8e-5,2e-5 8e-5,2e-5 z"
         id="path418477"
         inkscape:path-effect="#path-effect418503"
         inkscape:original-d="m 289.64495,140.63834 c 0,0 0.43401,0.74832 0.65062,1.12209 0.0506,0.4686 0.10085,0.93691 0.15087,1.40497 -0.36434,0.39317 -0.72894,0.78605 -1.0938,1.17867 -0.57808,0.18886 -1.1564,0.37744 -1.735,0.56577 -0.12232,0.0505 -0.2449,0.10084 -0.36775,0.15087 0.43717,0.24229 0.87405,0.4843 1.31068,0.72606 0.83635,-0.0186 1.67241,-0.0375 2.50821,-0.0566 0.40888,-0.32034 0.81748,-0.64093 1.22582,-0.96179 0.016,-0.55923 0.0317,-1.11869 0.0471,-1.67843 -0.028,-0.47121 -0.0563,-0.94267 -0.0849,-1.4144 -0.12546,-0.23234 -0.25118,-0.46492 -0.37717,-0.69778 -0.35806,-0.32034 -0.71637,-0.64093 -1.07495,-0.96179 -0.21347,-0.0343 -0.4272,-0.0689 -0.6412,-0.10373 -0.17261,0.2423 -0.51861,0.72607 -0.51861,0.72607 z"
         clip-path="url(#clipPath82134)"
         transform="matrix(0.25521722,0,0,0.25521722,228.14191,107.38017)" />
      <path
         id="path418479"
         style="fill:#40d8f3;fill-opacity:1;stroke-width:1.87669;stroke-linecap:round;stroke-linejoin:round"
         d="m 303.166,147.32205 c 0.15168,0.35432 -0.0835,0.76733 -0.41396,0.92076 -0.20107,0.1027 -0.44487,0.0906 -0.64143,-0.0164 -0.45729,-0.21423 -0.54716,-0.913 -0.17515,-1.24701 0.34548,-0.30547 0.9653,-0.21391 1.17952,0.20416 0.0226,0.0438 0.04,0.0904 0.051,0.13849 z"
         sodipodi:nodetypes="csssc" />
      <path
         style="fill:#3acbca;fill-opacity:1;stroke:none;stroke-width:0.264583px;stroke-linecap:butt;stroke-linejoin:miter;stroke-opacity:1"
         d="m 289.64495,140.63834 c 0.21687,0.37403 0.43393,0.74837 0.56743,1.16954 0.13351,0.42118 0.1838,0.88949 0.0266,1.31996 -0.15718,0.43047 -0.52177,0.82336 -0.99316,1.11406 -0.47138,0.29071 -1.0497,0.4793 -1.40017,0.59873 -0.35046,0.11944 -0.47306,0.16973 -0.31581,0.31601 0.15725,0.14627 0.59413,0.38828 1.23059,0.49977 0.63646,0.11149 1.47252,0.0926 2.09475,-0.0771 0.62223,-0.16974 1.03083,-0.49033 1.24296,-0.93024 0.21213,-0.4399 0.22783,-0.99936 0.22154,-1.51482 -0.006,-0.51546 -0.0346,-0.98692 -0.11152,-1.33894 -0.0769,-0.35202 -0.20265,-0.5846 -0.44463,-0.86123 -0.24197,-0.27664 -0.60028,-0.59723 -0.88629,-0.77491 -0.28601,-0.17769 -0.49975,-0.21226 -0.69322,-0.10854 -0.19347,0.10373 -0.3663,0.3457 -0.53917,0.58772 0,0 8e-5,2e-5 8e-5,2e-5 z"
         id="path418481"
         inkscape:path-effect="#path-effect418507"
         inkscape:original-d="m 289.64495,140.63834 c 0,0 0.43401,0.74832 0.65062,1.12209 0.0506,0.4686 0.10085,0.93691 0.15087,1.40497 -0.36434,0.39317 -0.72894,0.78605 -1.0938,1.17867 -0.57808,0.18886 -1.1564,0.37744 -1.735,0.56577 -0.12232,0.0505 -0.2449,0.10084 -0.36775,0.15087 0.43717,0.24229 0.87405,0.4843 1.31068,0.72606 0.83635,-0.0186 1.67241,-0.0375 2.50821,-0.0566 0.40888,-0.32034 0.81748,-0.64093 1.22582,-0.96179 0.016,-0.55923 0.0317,-1.11869 0.0471,-1.67843 -0.028,-0.47121 -0.0563,-0.94267 -0.0849,-1.4144 -0.12546,-0.23234 -0.25118,-0.46492 -0.37717,-0.69778 -0.35806,-0.32034 -0.71637,-0.64093 -1.07495,-0.96179 -0.21347,-0.0343 -0.4272,-0.0689 -0.6412,-0.10373 -0.17261,0.2423 -0.51861,0.72607 -0.51861,0.72607 z"
         clip-path="url(#clipPath82134)"
         transform="matrix(0.37533755,0,0,0.37533755,193.9864,93.928211)" />
    </g>
  </g>
</svg>
