<?xml version="1.0" encoding="UTF-8" standalone="no"?>
<svg
   height="480pt"
   viewBox="-13 0 480 480.00002"
   width="480pt"
   version="1.1"
   id="svg56"
   sodipodi:docname="seed-bag.svg"
   inkscape:version="1.1 (c68e22c387, 2021-05-23)"
   xmlns:inkscape="http://www.inkscape.org/namespaces/inkscape"
   xmlns:sodipodi="http://sodipodi.sourceforge.net/DTD/sodipodi-0.dtd"
   xmlns="http://www.w3.org/2000/svg"
   xmlns:svg="http://www.w3.org/2000/svg">
  <defs
     id="defs60" />
  <sodipodi:namedview
     id="namedview58"
     pagecolor="#ffffff"
     bordercolor="#666666"
     borderopacity="1.0"
     inkscape:pageshadow="2"
     inkscape:pageopacity="0.0"
     inkscape:pagecheckerboard="0"
     inkscape:document-units="pt"
     showgrid="false"
     inkscape:zoom="1.05625"
     inkscape:cx="320.473"
     inkscape:cy="527.337"
     inkscape:window-width="1920"
     inkscape:window-height="1047"
     inkscape:window-x="-9"
     inkscape:window-y="-9"
     inkscape:window-maximized="1"
     inkscape:current-layer="svg56" />
  <path
     d="m196.894531 389.308594h233.335938v90.691406h-233.335938zm0 0"
     fill="#e58d23"
     id="path2" />
  <path
     d="m274.046875 172.886719v-69.476563l-96.660156-100.367187c-3.90625-4.058594-10.238281-4.058594-14.144531 0l-159.972657 166.109375c-3.90625 4.058594-3.90625 10.632812 0 14.6875l123.320313 128.046875c3.902344 4.058593 10.234375 4.058593 14.140625 0l133.621093-138.746094zm0 0"
     fill="#eacf32"
     id="path4" />
  <path
     d="m133.65625 299.28125c-1.496094 0-2.996094-.558594-4.160156-1.675781-2.386719-2.300781-2.457032-6.097657-.160156-8.484375l43.066406-44.722656c2.300781-2.386719 6.101562-2.457032 8.484375-.160157 2.386719 2.300781 2.460937 6.097657.160156 8.484375l-43.066406 44.722656c-1.179688 1.21875-2.75 1.835938-4.324219 1.835938zm0 0"
     fill="#fcda4f"
     id="path6" />
  <path
     d="m33.269531 200.304688 159.972657-166.113282c3.90625-4.054687 10.238281-4.054687 14.144531 0l-30-31.148437c-3.90625-4.058594-10.238281-4.058594-14.144531 0l-159.972657 166.109375c-3.90625 4.058594-3.90625 10.628906 0 14.6875l30 31.148437c-3.90625-4.054687-3.90625-10.628906 0-14.683593zm0 0"
     fill="#ccc033"
     id="path8" />
  <path
     d="m102.179688 211.351562c-31.773438-31.792968-31.773438-84.546874 0-116.335937 29.941406-29.960937 77.917968-29.960937 107.859374 0 31.773438 31.789063 31.773438 84.546875 0 116.335937-29.941406 29.957032-77.917968 29.957032-107.859374 0zm0 0"
     fill="#fff4c1"
     id="path10" />
  <path
     d="m143.96875 165.054688c-8.816406-21.339844-23.769531-35.417969-33.394531-31.4375-9.625 3.976562-10.28125 24.5-1.460938 45.84375 8.820313 21.339843 23.769531 35.417968 33.394531 31.441406 9.628907-3.980469 10.28125-24.503906 1.460938-45.847656zm0 0"
     fill="#ffd551"
     id="path12" />
  <path
     d="m119.5625 146.832031s13.5625 25.449219 18.03125 47.003907c4.46875 21.550781 1.96875-37.679688-18.03125-47.003907zm0 0"
     fill="#f9bb32"
     id="path14" />
  <path
     d="m415.757812 389.308594c-3.40625 0-6.550781 1.820312-8.414062 4.78125-20.089844 31.863281-54.769531 52.917968-94.1875 52.917968-39.414062 0-74.089844-21.050781-94.183594-52.917968-1.863281-2.960938-5.007812-4.78125-8.414062-4.78125h-200.558594c-5.523438 0-10 4.648437-10 10.382812v69.925782c0 5.734374 4.476562 10.382812 10 10.382812h433.121094c5.523437 0 10-4.648438 10-10.382812v-69.925782c0-5.734375-4.476563-10.382812-10-10.382812zm0 0"
     fill="#a56021"
     id="path16" />
  <g
     fill="#ffd551"
     id="g24">
    <path
       d="m323.085938 208.058594c-5.878907-14.230469-15.847657-23.613282-22.265626-20.960938-6.417968 2.652344-6.851562 16.335938-.972656 30.5625 5.878906 14.226563 15.84375 23.609375 22.261719 20.960938 6.417969-2.652344 6.855469-16.335938.976563-30.5625zm0 0"
       id="path18" />
    <path
       d="m308.664062 266.34375c-6.507812-2.402344-16.109374 7.367188-21.449218 21.824219s-4.390625 28.121093 2.117187 30.527343c6.507813 2.402344 16.109375-7.371093 21.449219-21.824218 5.335938-14.457032 4.390625-28.125-2.117188-30.527344zm0 0"
       id="path20" />
    <path
       d="m335.082031 370.042969c-5.878906-14.230469-15.847656-23.613281-22.265625-20.960938-6.414062 2.652344-6.851562 16.335938-.972656 30.5625 5.878906 14.226563 15.847656 23.609375 22.265625 20.960938 6.417969-2.652344 6.851563-16.335938.972656-30.5625zm0 0"
       id="path22" />
  </g>
  <path
     d="m133.023438 171.460938c-.953126-.988282-.953126-2.59375 0-3.582032l39.472656-40.988281 3.453125 3.582031-39.476563 40.988282c-.953125.992187-2.5.992187-3.449218 0zm0 0"
     fill="#ccc033"
     id="path26" />
  <path
     d="m167.914062 138.761719c20.734376 17.96875 33.769532 1.140625 37.367188-4.613281.605469-.96875-.074219-2.339844-1.496094-3.023438-8.601562-4.117188-36.402344-15.792969-37.21875 4.988281-.035156.910157.460938 1.878907 1.347656 2.648438zm0 0"
     fill="#ccc033"
     id="path28" />
  <path
     d="m204.285156 135.652344c.386719-.550782.71875-1.058594.996094-1.503906.605469-.96875-.074219-2.339844-1.496094-3.023438-3.910156-1.871094-11.777344-5.300781-19.277344-6.539062-.136718-.023438-.273437-.046876-.410156-.066407-.019531-.003906-.035156-.007812-.054687-.007812-.117188-.019531-.238281-.039063-.355469-.054688-.027344-.003906-.050781-.007812-.074219-.007812-.109375-.015625-.222656-.03125-.332031-.046875-.027344-.003906-.0625-.007813-.089844-.011719-.105468-.015625-.210937-.027344-.316406-.039063-.03125-.003906-.066406-.007812-.097656-.011718-.105469-.015625-.210938-.027344-.316406-.039063-.027344-.003906-.0625-.003906-.09375-.007812-.105469-.011719-.214844-.023438-.320313-.03125-.027344-.003907-.058594-.007813-.085937-.007813-.113282-.011718-.226563-.023437-.335938-.03125-.023438-.003906-.042969-.003906-.066406-.007812-.128906-.007813-.257813-.019532-.386719-.027344h-.007813c-.40625-.03125-.8125-.046875-1.210937-.058594-.015625 0-.03125 0-.050781 0-.113282 0-.222656-.003906-.335938-.003906-.03125 0-.058594 0-.085937 0-.101563 0-.199219 0-.300781 0-.035157 0-.070313 0-.105469 0-.09375 0-.183594.003906-.277344.003906-.035156 0-.074219.003906-.113281.003906-.089844 0-.179688.003907-.269532.007813-.039062 0-.074218.003906-.117187.003906-.085937.003907-.175781.007813-.261719.011719-.039062.003906-.078125.003906-.113281.007812-.09375.007813-.179687.011719-.269531.019532-.035156 0-.074219.003906-.109375.007812-.089844.007813-.183594.015625-.277344.023438-.03125 0-.0625.003906-.089844.007812-.109375.007813-.214843.019532-.320312.035156-.015625 0-.03125.003907-.046875.003907-.246094.03125-.492188.0625-.738282.105469-.003906 0-.007812 0-.007812 0-.113281.019531-.226562.039062-.339844.0625-.027344.003906-.054687.007812-.082031.015624-.089844.015626-.179687.03125-.265625.050782-.035156.011718-.070312.019531-.105469.023437-.082031.019531-.160156.035157-.242187.054688-.039063.011719-.074219.019531-.117188.027343-.074218.019532-.148437.039063-.222656.054688-.039062.011719-.078125.023438-.121094.035156-.070312.019532-.140625.039063-.214844.058594-.039062.011719-.078124.023438-.121093.035156-.070313.023438-.140625.042969-.210938.066406-.042969.011719-.082031.027344-.121093.039063-.070313.023437-.140626.046875-.210938.070313-.039062.011718-.074219.027343-.113281.039062-.070313.027344-.144531.054688-.214844.082031-.035156.011719-.070313.027344-.101563.039063-.078124.03125-.160156.0625-.238281.097656-.027343.007812-.050781.019531-.074219.027344-.210937.089844-.414062.183594-.617187.285156-.019531.011719-.039063.019531-.054687.03125-.082032.039062-.160157.082031-.238282.125-.03125.015625-.0625.03125-.09375.046875-.066406.039063-.132812.074219-.199218.113281-.03125.019532-.066407.039063-.101563.0625-.058594.035156-.117187.070313-.179687.109375-.035157.023438-.070313.046875-.105469.070313-.058594.035156-.113281.074218-.167969.109375-.039062.023437-.074219.050781-.113281.074219-.050781.039062-.105469.078124-.160157.113281-.035156.027343-.070312.054687-.109374.082031-.050782.039062-.105469.078125-.15625.121094-.035157.027344-.070313.050781-.105469.082031-.050781.039063-.101563.082031-.15625.125-.03125.027344-.066407.058594-.097657.085937-.054687.046876-.105468.09375-.160156.140626-.027344.027343-.058594.050781-.089844.082031-.058593.050781-.113281.105469-.167968.160156-.023438.023437-.050782.046875-.070313.070313-.160156.15625-.3125.320312-.460937.492187-.019532.023437-.039063.046875-.058594.070313-.054688.0625-.105469.125-.15625.191406-.027344.03125-.054688.0625-.078125.097656-.042969.054688-.089844.113281-.132813.171875-.027343.039063-.054687.078125-.082031.113281-.039062.054688-.078125.113282-.121093.167969-.027344.042969-.054688.082031-.082032.125-.035156.054687-.074218.113281-.109375.171875-.027343.039062-.054687.085938-.082031.125-.035156.058594-.070312.121094-.105469.175781-.027343.046875-.050781.089844-.074219.132813-.035156.0625-.070312.121094-.105468.183594-.023438.046874-.046875.089843-.070313.136718-.035156.066406-.066406.128906-.097656.195313-.023437.046875-.046875.089843-.070313.136719-.03125.070312-.0625.136718-.09375.207031-.019531.046875-.042968.089843-.058593.136719-.035157.078124-.070313.15625-.101563.238281-.015625.035156-.03125.074219-.046875.113281-.046875.117188-.09375.234375-.136719.351562-.003906.003907-.003906.007813-.003906.011719-.042968.125-.089844.246094-.128906.375-.015625.039063-.027344.082031-.039062.125-.027344.089844-.058594.175781-.082032.265625-.015625.046875-.03125.101563-.042968.152344-.023438.082031-.046876.160156-.070313.246094-.011719.054687-.027344.113281-.042969.167968-.019531.082032-.039062.160157-.054687.242188-.015625.0625-.03125.121094-.042969.183594-.015625.082031-.03125.164062-.050781.246094-.011719.058593-.023438.125-.035157.1875-.015624.082031-.03125.164062-.046874.25-.011719.0625-.023438.125-.03125.191406-.015626.085937-.027344.171875-.039063.257812-.011719.0625-.023437.128906-.03125.195313-.011719.089843-.023437.179687-.03125.269531-.007813.066406-.015625.128906-.023437.195312-.011719.097657-.023438.191407-.03125.289063-.003907.0625-.011719.125-.015626.191406-.011718.105469-.015624.214844-.023437.328125-.003906.050782-.007813.105469-.011719.160156-.011718.167969-.019531.335938-.027344.503907-.003906.082031 0 .164062.003907.242187.003906.035156.007812.074219.015625.109375.003906.039063.007812.082031.015625.121094.007812.050781.015625.097656.023437.148437.003906.019532.011719.042969.015625.0625.039063.148438.082031.296876.140625.441407.390625.492187.789063.988281 1.207032 1.488281.191406.226562.386718.421875.59375.601562.066406.058594.132812.117188.203124.175782.726563.574218 1.519532.875 2.273438.824218 8.582031-.542968 12.242188-5.324218 13.1875-11.699218 7.496094 1.238281 15.363281 4.667968 19.269531 6.535156.285157.144531.542969.308594.765625.496094zm0 0"
     fill="#99af17"
     id="path30" />
  <path
     d="m163.96875 135.839844c-18.671875-27.199219 1.753906-41.75 8.660156-45.664063 1.167969-.660156 2.671875.296875 3.324219 2.117188 3.933594 10.980469 14.769531 46.324219-9.074219 45.445312-1.042968-.039062-2.109375-.734375-2.910156-1.898437zm0 0"
     fill="#eacf32"
     id="path32" />
  <path
     d="m176.726562 94.515625c-.277343-.820313-.535156-1.566406-.773437-2.226563-.652344-1.816406-2.15625-2.777343-3.324219-2.117187-6.90625 3.914063-27.332031 18.46875-8.660156 45.667969.800781 1.164062 1.867188 1.859375 2.910156 1.898437.996094.035157 1.929688.007813 2.804688-.078125-15.699219-23.898437-.996094-37.8125 7.042968-43.144531zm0 0"
     fill="#ccc033"
     id="path34" />
  <path
     d="m170.023438 135.5c-.058594 0-.117188-.003906-.175782-.007812-1.101562-.09375-1.914062-1.0625-1.820312-2.164063l1.160156-13.449219c.09375-1.101562 1.03125-1.929687 2.164062-1.820312 1.097657.09375 1.914063 1.0625 1.820313 2.164062l-1.160156 13.449219c-.085938 1.042969-.960938 1.828125-1.988281 1.828125zm0 0"
     fill="#fcda4f"
     id="path36" />
  <path
     d="m415.757812 389.308594c-3.40625 0-6.550781 1.820312-8.414062 4.78125-20.089844 31.863281-54.769531 52.917968-94.1875 52.917968-39.414062 0-74.089844-21.050781-94.183594-52.917968-1.863281-2.960938-5.007812-4.78125-8.414062-4.78125h-200.558594c-5.523438 0-10 4.648437-10 10.382812v69.925782c0 5.734374 4.476562 10.382812 10 10.382812h433.121094c5.523437 0 10-4.648438 10-10.382812v-69.925782c0-5.734375-4.476563-10.382812-10-10.382812zm0 0"
     fill="#bf6c0d"
     id="path40" />
  <path
     d="m270.871094 438.464844c-21.34375-9-39.429688-24.601563-51.898438-44.375-1.863281-2.960938-5.007812-4.78125-8.414062-4.78125h-200.558594c-5.523438 0-10 4.648437-10 10.382812v38.773438zm0 0"
     fill="#a56021"
     id="path42" />
  <path
     d="m453.125 438.464844v-38.773438c0-5.734375-4.480469-10.382812-10-10.382812h-27.367188c-3.40625 0-6.550781 1.820312-8.414062 4.78125-12.46875 19.773437-30.554688 35.375-51.898438 44.375zm0 0"
     fill="#a56021"
     id="path44" />
  <path
     d="m315.015625 218.058594c-4.5-10.675782-5.453125-21.148438-2.953125-26.902344-4.082031-3.804688-8.21875-5.441406-11.421875-3.984375-6.324219 2.871094-6.601563 16.699219-.621094 30.886719 5.976563 14.183594 15.953125 23.351562 22.277344 20.480468 1.5625-.714843 2.757813-2.09375 3.578125-3.988281-3.980469-3.710937-7.90625-9.488281-10.859375-16.492187zm0 0"
     fill="#ffc34c"
     id="path46" />
  <path
     d="m302.355469 287.796875c2.722656-7.230469 6.5-13.246094 10.398437-17.113281-.90625-2.078125-2.214844-3.574219-3.925781-4.269532-6.429687-2.613281-16.042969 6.960938-21.476563 21.382813-5.429687 14.417969-4.621093 28.226563 1.804688 30.835937 3.207031 1.304688 7.203125-.421874 11.078125-4.269531-2.488281-5.738281-1.867187-15.984375 2.121094-26.566406zm0 0"
     fill="#ffc34c"
     id="path48" />
  <path
     d="m327.015625 380.042969c-4.5-10.675781-5.453125-21.148438-2.953125-26.902344-4.082031-3.804687-8.21875-5.441406-11.421875-3.988281-6.324219 2.875-6.601563 16.703125-.621094 30.890625 5.976563 14.183593 15.953125 23.351562 22.277344 20.480469 1.5625-.714844 2.757813-2.09375 3.578125-3.988282-3.980469-3.714844-7.90625-9.488281-10.859375-16.492187zm0 0"
     fill="#ffc34c"
     id="path50" />
  <path
     d="m102.179688 95.015625c-15.964844 15.96875-23.898438 37.230469-23.820313 58.46875l77.941406-80.933594c-19.542969-.050781-39.101562 7.433594-54.121093 22.464844zm0 0"
     fill="#ffea63"
     id="path52" />
  <path
     d="m78.085938 206.753906c0 9.664063-7.835938 17.5-17.5 17.5-9.664063 0-17.5-7.835937-17.5-17.5 0-9.667968 7.835937-17.5 17.5-17.5 9.664062 0 17.5 7.832032 17.5 17.5zm0 0"
     fill="#ccc033"
     id="path54" />
</svg>
