<?xml version="1.0" encoding="iso-8859-1"?>
<!-- Generator: Adobe Illustrator 19.0.0, SVG Export Plug-In . SVG Version: 6.00 Build 0)  -->
<svg version="1.1" id="Capa_1" xmlns="http://www.w3.org/2000/svg" xmlns:xlink="http://www.w3.org/1999/xlink" x="0px" y="0px"
	 viewBox="0 0 512.202 512.202" style="enable-background:new 0 0 512.202 512.202;" xml:space="preserve">
<path style="fill:#7D8287;" d="M512.101,285.301c0.1,7.4-5.9,13.4-13.3,13.5l-72.9,0.6c-5.7,0.1-10.8,3.8-12.6,9.2
	c-3.8,11.4-8.8,22.2-14.8,32.3c-3.1,5.3-2.2,12,2.2,16.3l48.8,48c5.3,5.2,5.3,13.6,0.2,18.9l-33.2,33.7c-5.2,5.3-13.6,5.3-18.9,0.2
	l-52-51.1c-4.1-4-10.3-5-15.4-2.4c-10.4,5.2-21.5,9.4-33,12.3c-6,1.5-10.3,6.9-10.2,13.1l0.3,36.5l0.3,31.9
	c0.1,7.4-5.9,13.4-13.3,13.5l-47.3,0.4c-7.4,0.1-13.4-5.9-13.5-13.3l-0.6-72.9c-0.1-5.7-3.8-10.8-9.2-12.6
	c-11.4-3.8-22.2-8.8-32.3-14.8c-5.3-3.1-12-2.2-16.3,2.2l-48,48.8c-5.2,5.3-13.6,5.3-18.9,0.2l-33.7-33.2
	c-5.3-5.2-5.3-13.6-0.2-18.9l51.1-52c4-4.1,5-10.3,2.4-15.4c-5.2-10.4-9.4-21.5-12.3-33c-1.5-6-6.9-10.3-13.1-10.2l-68.4,0.6
	c-7.4,0.1-13.4-5.9-13.5-13.3l-0.4-47.7c-0.1-7.4,5.9-13.4,13.3-13.5l72.9-0.6c5.7-0.1,10.8-3.8,12.6-9.2
	c3.8-11.4,8.8-22.2,14.8-32.3c3.1-5.3,2.2-12-2.2-16.3l-48.8-48c-5.3-5.2-5.3-13.6-0.2-18.9l33.2-33.7c5.2-5.3,13.6-5.3,18.9-0.2
	l52,51.1c4.1,4,10.3,5,15.4,2.4c10.4-5.2,21.5-9.4,33-12.3c6-1.5,10.3-6.9,10.2-13.1l-0.6-68.4c-0.1-7.4,5.9-13.4,13.3-13.5
	l47.5-0.2c7.4-0.1,13.4,5.9,13.5,13.3l0.6,72.9c0.1,5.7,3.8,10.8,9.2,12.6c2,0.7,4.1,1.4,6.1,2.2c9.2,3.5,17.9,7.7,26.2,12.7
	c5.3,3.1,12,2.2,16.3-2.2l48-48.8c5.2-5.3,13.6-5.3,18.9-0.2l33.7,33.2c5.3,5.2,5.3,13.6,0.2,18.9l-51.1,52c-4,4.1-5,10.3-2.4,15.4
	c5.2,10.4,9.4,21.5,12.3,33c1.5,6,6.9,10.3,13.1,10.2l68.4-0.6c7.4-0.1,13.4,5.9,13.5,13.3L512.101,285.301z"/>
<path style="fill:#A0A0A5;" d="M512.101,285.301c0.1,7.4-5.9,13.4-13.3,13.5l-72.9,0.6c-5.7,0.1-10.8,3.8-12.6,9.2
	c-3.8,11.4-8.8,22.2-14.8,32.3c-3.1,5.3-2.2,12,2.2,16.3l48.8,48c5.3,5.2,5.3,13.6,0.2,18.9l-33.2,33.7c-5.2,5.3-13.6,5.3-18.9,0.2
	l-52-51.1c-4.1-4-10.3-5-15.4-2.4c-10.4,5.2-21.5,9.4-33,12.3c-6,1.5-10.3,6.9-10.2,13.1l0.3,36.5c-43.9-43.7-71-104.1-71-170.8
	c0-79.8,38.8-150.6,98.6-194.4c9.2,3.5,17.9,7.7,26.2,12.7c5.3,3.1,12,2.2,16.3-2.2l48-48.8c5.2-5.3,13.6-5.3,18.9-0.2l33.7,33.2
	c5.3,5.2,5.3,13.6,0.2,18.9l-51.1,52c-4,4.1-5,10.3-2.4,15.4c5.2,10.4,9.4,21.5,12.3,33c1.5,6,6.9,10.3,13.1,10.2l68.4-0.6
	c7.4-0.1,13.4,5.9,13.5,13.3L512.101,285.301z"/>
<path style="fill:#4B5055;" d="M376.801,299.201c-16.2,45.3-55.3,75.8-99.6,83.2c-20.9,3.5-42.9,1.9-64.3-5.8
	c-66.6-23.9-101.3-97.2-77.5-163.9c21.2-59.3,81.7-93.4,141.8-83.2c7.4,1.2,14.8,3.2,22.1,5.8
	C365.901,159.201,400.601,232.501,376.801,299.201z"/>
<path style="fill:#5A5F64;" d="M376.801,299.201c-16.2,45.3-55.3,75.8-99.6,83.2c-7.4-1.2-14.8-3.2-22.1-5.8
	c-66.6-23.9-101.3-97.2-77.5-163.9c16.2-45.3,55.3-75.8,99.6-83.2c7.4,1.2,14.8,3.2,22.1,5.8
	C365.901,159.201,400.601,232.501,376.801,299.201z"/>
<path style="fill:#B9B9BE;" d="M259.301,238.001c0,18.4-11.1,34.2-27.1,41v103c-6.5-1.2-13-3-19.4-5.3c-5.5-2-10.7-4.2-15.7-6.8
	v-90.9c-16-6.9-27.2-22.9-27.1-41.3c0.1-14.1,6.7-26.6,16.9-34.7c4.5-3.6,11.2-0.4,11.2,5.4v22.9c0,7.1,4.6,13.2,10.9,15.5
	c1.7,0.6,3.6,1,5.5,1c9.1,0,16.5-7.4,16.5-16.5v-22.9c0-5.8,6.6-9,11.2-5.5C252.701,211.101,259.301,223.801,259.301,238.001z"/>
<path style="fill:#7D8287;" d="M318.601,258.801c0-4.3-3.5-7.8-7.8-7.8s-7.8,3.5-7.8,7.8v115.6c0,0.3,0,0.7,0.1,1
	c4.9-1.6,15.4-7.3,15.5-7.3L318.601,258.801L318.601,258.801z"/>
<path style="fill:#D63030;" d="M342.101,342.401v8.7c-11.4,10.3-24.6,18.5-38.8,24.1c-7.7,3-15.6,5.3-23.8,6.8v-39.6
	c0-17.3,14-31.3,31.3-31.3c8.6,0,16.5,3.5,22.1,9.2c1.7,1.7,3.1,3.5,4.4,5.5C340.301,330.601,342.101,336.301,342.101,342.401z"/>
<path style="fill:#F44545;" d="M342.101,342.401v8.7c-11.4,10.3-24.6,18.5-38.8,24.1v-18.3c0-17.3,14-31.3,31.3-31.3
	c0.9,0,1.8,0,2.7,0.1C340.301,330.601,342.101,336.301,342.101,342.401z"/>
<path style="fill:#B9B9BE;" d="M334.501,233.401l-4.3,19.3l-1.7,7.5c-0.4,2-2.4,3.4-4.7,3.4h-26c-2.3,0-4.3-1.4-4.7-3.4l-6-26.8
	c-0.1-0.6-0.1-1.1,0-1.7l6-26.8c0.4-2,2.4-3.4,4.7-3.4h26c2.3,0,4.3,1.4,4.7,3.4l6,26.8
	C334.601,232.301,334.601,232.801,334.501,233.401z"/>
<g>
	<path style="fill:#EBEBF0;" d="M334.501,233.401l-4.3,19.3h-19.9c-2.3,0-4.3-1.4-4.7-3.4l-6-26.8c-0.1-0.6-0.1-1.1,0-1.7l4.3-19.3
		h19.9c2.3,0,4.3,1.4,4.7,3.4l6,26.8C334.601,232.301,334.601,232.801,334.501,233.401z"/>
	<path style="fill:#EBEBF0;" d="M259.301,238.001c0,18.4-11.1,34.2-27.1,41v53c-15.2-18.7-24.4-42.6-24.4-68.6
		c0-5.6,0.4-11.2,1.3-16.6c1.7,0.6,3.6,1,5.5,1c9.1,0,16.5-7.4,16.5-16.5v-22.9c0-5.8,6.6-9,11.2-5.5
		C252.701,211.101,259.301,223.801,259.301,238.001z"/>
</g>
<g>
</g>
<g>
</g>
<g>
</g>
<g>
</g>
<g>
</g>
<g>
</g>
<g>
</g>
<g>
</g>
<g>
</g>
<g>
</g>
<g>
</g>
<g>
</g>
<g>
</g>
<g>
</g>
<g>
</g>
</svg>
