<?xml version="1.0" encoding="UTF-8" standalone="no"?>
<svg
   version="1.2"
   viewBox="0 0 997 834"
   id="svg18"
   sodipodi:docname="cabbage.svg"
   inkscape:version="1.1 (c68e22c387, 2021-05-23)"
   xmlns:inkscape="http://www.inkscape.org/namespaces/inkscape"
   xmlns:sodipodi="http://sodipodi.sourceforge.net/DTD/sodipodi-0.dtd"
   xmlns="http://www.w3.org/2000/svg"
   xmlns:svg="http://www.w3.org/2000/svg">
  <defs
     id="defs22" />
  <sodipodi:namedview
     id="namedview20"
     pagecolor="#ffffff"
     bordercolor="#666666"
     borderopacity="1.0"
     inkscape:pageshadow="2"
     inkscape:pageopacity="0.0"
     inkscape:pagecheckerboard="0"
     showgrid="false"
     inkscape:zoom="0.143287"
     inkscape:cx="889.825"
     inkscape:cy="1277.16"
     inkscape:window-width="1920"
     inkscape:window-height="1047"
     inkscape:window-x="-9"
     inkscape:window-y="-9"
     inkscape:window-maximized="1"
     inkscape:current-layer="svg18" />
  <style
     id="style2">.shp1{fill:#2de461}.shp2{fill:#55ea7e}.shp3{fill:#33e666}</style>
  <g
     id="Background">
    <path
       id="Path 0"
       fill="#0ed145"
       d="M412 1.2c-3.6.4-10.3 1.9-15 3.2-4.7 1.3-10.9 2.9-13.8 3.5-3 .6-15.6 1.1-29 1-13 0-26.4.6-29.7 1.1L313 12.1c-3 .6-7.3 1.5-9.5 2.1A89 89 0 0 0 284 23c-1.4.9-4.3 2.2-6.5 3-2.2.6-7 1.2-10.5 1.2-3.6 0-9.2-.8-12.5-1.8l-13-3.2c-5.7-1.3-8-1.4-12.5-.4-3 .6-7.5 2.1-9.9 3.4a63 63 0 0 0-11.8 10.3 70 70 0 0 0-9.8 13A57.4 57.4 0 0 0 194 59l-2.3 9.5c-.6 2.2-2 5.6-3 7.5l-4.4 8.3a51 51 0 0 0-3.3 9c-.5 2.3-1 18.6-1 36.2 0 28.1-.2 33-1.9 39.5-1 4.1-2.8 9.5-3.9 12-1 2.5-3 7-4 10-1.2 3-3 9.1-4.2 13.5l-3 11.3-1 3.2c-11.2 0-16-.4-18-.8a46 46 0 0 0-11-.2c-4.1.4-9.3 1.6-11.5 2.6-2.2 1-5.6 3-7.5 4.5-2 1.5-7.1 4.6-11.5 7a137 137 0 0 0-13 7.9c-2.8 2-8.3 6.9-12.3 10.8-4.1 4.1-9.2 8.1-12 9.3l-9 4a38 38 0 0 0-7.7 4.9c-2 1.6-3.5 3.6-3.5 4.3 0 .6-.7 2-1.7 2.8-1 1-3.3 4.8-5 8.5-1.8 3.8-4 10.9-4.9 15.9a77 77 0 0 1-5.6 17.5c-2.2 4.7-4.3 9.2-4.8 10-.4.8-1.3 6-1.9 11.5L19.6 355c-.3 3-1 7.3-1.5 9.5l-3 13c-1 5-2.5 15.3-3 23-.7 7.7-1.7 16-2.2 18.5-.6 2.6-1 17-1 34.8 0 20.2-.3 31.1-1 33l-2 5-1.8 4.4a313 313 0 0 0-2.2 5.8c-.7 2-1.3 7.3-1.2 12 0 6.2.7 10.3 2.3 15 1.3 3.6 3.1 7.7 4.1 9.3 1 1.5 1.9 3 1.9 3.5 0 .4 4.3 5.5 9.7 11.3 5.4 5.8 12 13.6 14.8 17.3 2.8 3.7 8.6 10.7 12.9 15.4 4.4 4.8 9.2 10.5 10.9 12.7 1.6 2.2 5 8.5 7.8 14a94.9 94.9 0 0 1 4.9 11c0 .5 1 3.3 2.5 6 1.3 2.8 6.4 9.4 11.2 14.9 4.9 5.4 9.8 11.4 11 13.5 1.4 2.3 2.6 6.7 3.3 12.1.7 4.7 1.6 10 2.2 12 .5 2 2.3 7 3.9 11.3 1.9 4.9 2.9 9.6 2.9 13a57 57 0 0 1-2 12.2c-1 3.9-2.4 10-3 13.5-.8 5-.8 7.7 0 11.5.7 2.8 2.4 7 3.7 9.5 1.4 2.5 4.2 6.2 6.2 8.3 2 2 4 3.7 4.6 3.7a53.7 53.7 0 0 0 13 7 194.8 194.8 0 0 1 20.5 10.3 108.9 108.9 0 0 0 28 10.3c3.6.8 12.3 1.4 19.5 1.4 8.3 0 15.2.6 19 1.6l14 3.5c6.2 1.5 12.8 2.1 29 2.5 11.6.4 29.1.1 39-.4 14-.8 19.4-1.5 24.5-3.2 3.6-1.2 9.8-4.4 13.8-7.1l7.2-4.9h64c9 4.8 12.7 7 14.3 8.1a78 78 0 0 1 12.4 9.2c4.5 4 10.1 8.8 12.5 10.7 2.4 2 7.2 5 10.8 6.7 3.6 1.8 8.5 3.9 11 4.7l10.5 3.7c3.3 1.2 8.5 2.7 11.5 3.4 4.3 1 27.3 1.4 102.5 1.4 61.1.1 100-.2 105-.9a246.6 246.6 0 0 0 38-8l6.5-2.8 9.5-3.7c3.3-1.1 10.2-2 20-2.5 8.3-.5 22.4-1.6 31.5-2.4 9-1 18-2.1 20-2.8a94.8 94.8 0 0 0 15-6.9c1.4-.9 7-4 12.5-7a8050 8050 0 0 0 12.5-6.5c1.4-.7 7.5-5.8 13.5-11.4 6-5.5 11.3-10 11.8-10a23 23 0 0 0 5-3.3c2.3-1.7 6-4.8 8.2-6.7 2.2-1.9 8.4-9.3 13.8-16.5 5.3-7.1 10.4-14.5 11.2-16.3a369.2 369.2 0 0 0 6.4-15.5l4.2-11.5A173.9 173.9 0 0 0 944 682c1.1-4 3.2-10.3 4.5-13.9 1.6-4.1 4.5-8.9 8-13 3-3.6 6.7-8.8 8.1-11.5a345.2 345.2 0 0 0 14.1-42 444 444 0 0 0 2.4-12.5c.9-4.6 2.8-10.2 5-14.5l7-13.5c3-5.7 3.4-7.6 3.8-15.5a123.3 123.3 0 0 0-4-35c-1.2-4.4-3.9-13.2-6-19.5-2.3-6.3-4.3-12.4-4.7-13.5-.3-1.1-2.2-5.1-4.2-9-2-3.9-4.7-8.8-6-11a85.7 85.7 0 0 0-4.6-7.3 20.1 20.1 0 0 1-2.4-3.7 216.2 216.2 0 0 1-12.3-21.5c-3.3-6.3-8.5-15.6-11.7-20.5-3.9-6-9.4-12.4-16.2-19a774.4 774.4 0 0 0-22.3-20.6 56.4 56.4 0 0 1-14.7-16 97 97 0 0 1-4.6-11.4c-1-3.3-4.3-11.3-7-17.8a84.5 84.5 0 0 1-5.7-16.4c-.3-2.7-.1-25.3.4-50.3.7-34.2 1.3-47.6 2.5-54 .8-4.7 1.6-11.9 1.5-16 0-4.1-.7-10.9-1.5-15s-2-10-2.4-13c-.6-3.3-.8-23-.4-49 .3-24 .2-49.8-.3-57.5-.9-13.2-1.1-14.3-4-18.5a22.1 22.1 0 0 0-7.4-6.8 43 43 0 0 0-9.6-3.2c-3.6-.7-7.6-.7-12.5 0a193.2 193.2 0 0 0-27.8 6.8l-11.5 4.4c-4.4 1.6-11 3.6-14.5 4.4a148.5 148.5 0 0 0-26 9 231 231 0 0 1-19 7.6A236.7 236.7 0 0 0 693 74a95 95 0 0 1-9.3 5.2c-2 1-4 2.2-4.2 2.7-.3.5-3.8 2.2-7.8 3.7-4 1.4-10.5 4.6-14.5 7-5.2 3-8.1 4.2-10.5 4-2.8-.2-3.9-1.2-8.7-8.4a45 45 0 0 0-7.8-9.5c-1.2-.7-2.2-2-2.2-2.8 0-.8-2.1-4.7-4.7-8.5-2.5-3.9-8.7-11.6-13.7-17.1-5-5.6-10.5-12.1-12.3-14.5-1.7-2.4-7.5-8.8-12.7-14.1a83.4 83.4 0 0 0-16.9-14c-4-2.3-9.5-4.8-12.2-5.6-4.2-1.3-15.9-1.5-71-1.7-36.3 0-69 .2-72.5.7Z" />
    <path
       id="Path 1"
       d="M412.5 17.7c-1.6.2-8.4 1.8-15 3.5-11.8 3.1-12.6 3.2-43.5 3.9-26.6.6-33 1-41 2.8a86 86 0 0 0-18.5 6.6 167 167 0 0 1-13 5.8 46.9 46.9 0 0 1-23.5 1.3c-4.1-.8-9.3-2-11.5-2.6-2.2-.7-6.2-1.5-9-1.7-2.7-.3-6.6 0-8.7.6-2.8.8-5.4 3-10 8.4a35.3 35.3 0 0 0-7.5 11.8l-2.5 9.9c-.7 3-3.5 9.8-6.3 15l-5 9.5c-.1 50.4-.5 67.3-.9 70a113.5 113.5 0 0 1-7 24 138.7 138.7 0 0 0-7.7 22.3c-1 4-3.7 11.4-5.8 16.4-2.2 5.1-5 13.1-6 17.8-1.2 4.7-2.6 9.5-3.1 10.8a453.7 453.7 0 0 0-4 9.7l-2 5.5a109 109 0 0 0-1 18.5c0 8.8-.7 18.7-1.6 24l-3 18a57 57 0 0 0-1 12.8c.3 2 2.2 8.4 4.1 14.2a51.6 51.6 0 0 1 3.5 22.8c0 11.7 0 12.4 2.8 16.7a95 95 0 0 0 13.2 13.5c5.7 5 14.4 13 19.4 18 5 5 11.8 10.9 15.1 13 3.3 2.2 8 5.5 10.5 7.4 2.7 2 5.7 3.5 7.5 3.6 1.7 0 3.6.3 4.3.6 1 .3 1.2-8.6 1-45.6-.2-25.3-.2-50.3-.1-55.5 0-5.2 1-12.2 1.8-15.5 1-3.3 2.3-9.1 3-13l3-16.5c1-6.2 2.5-11.6 4.5-15.5 1.9-3.7 7-10.3 13.5-17.3L272 262c0-20.3.5-26.2 1.5-29.5.8-2.8 4.9-10 9-16a135 135 0 0 0 7.5-11.8 45 45 0 0 1 2.5-6c1.4-2.8 2.2-5.6 1.8-6-.4-.5-4.4-.2-8.8.6s-10 2.2-12.5 3a152 152 0 0 1-10.5 3l-16.5 4.2c-5.8 1.5-11 3.2-11.8 3.6-.6.5-.9 1.5-.5 2.2.4.6 1.2 7.3 1.7 14.7.5 7.4.9 16.2.8 19.5 0 4.3-1.2 9.2-4 17-2.2 6-5.8 15.3-8.2 20.5-2.3 5.2-5.5 11.4-7.1 13.8-2.4 3.4-3.4 4.1-5.6 4-1.8-.2-2.9-1-3-2-.2-1 3.4-9.3 7.9-18.6 4.5-9.2 9.2-20 10.4-24.2 2.2-7 2.3-8.5 1.6-24.3-.5-11.6-1-17.2-2-17.8-.8-.6-3.4 1.1-8.4 5.8-4 3.6-9.7 10.2-12.7 14.7-3 4.4-6.8 9.7-8.5 11.6-1.7 2-4.1 5.2-5.4 7.3-1.4 2.3-3 3.7-4.2 3.7-1.1 0-2.4-.9-3-2-.8-1.6-.4-3 1.7-6.8 1.5-2.6 4-6.3 5.8-8.2a107.6 107.6 0 0 0 10.9-15c1.6-2.5 5.9-7.4 9.5-10.9a59 59 0 0 1 11.1-8.6c2.5-1.2 8.1-3.2 12.5-4.4l16.5-4.6c4.7-1.3 10.3-2.7 12.5-3.1a54 54 0 0 0 8.5-2.4c2.5-1 7.8-2.3 11.8-2.9 5.6-.9 7.5-.8 8.7.2.9.6 1.6 2 1.5 3 0 1 .3 2 .8 2.2.4.2 2.1-1.5 3.9-3.8 1.7-2.3 6-7.4 9.5-11.3a325.5 325.5 0 0 0 16.8-20.9l6.6-9.6c2.8-4 8.2-10.2 12-13.5 3.8-3.4 9-9 11.4-12.4a1000.1 1000.1 0 0 1 25.7-34.4c3.5-4.4 7-9.4 7.7-11.1A60.4 60.4 0 0 1 403.3 58c2.3-1.7 7.1-4 10.7-5a142.6 142.6 0 0 1 57-3.6c3.6.8 9 2.4 12 3.6 3 1.2 11 5 17.8 8.6a64.3 64.3 0 0 0 13.2 5.9c.7-.3.7-1.2 0-2.5-.8-1.6-.5-2.5 1.9-4.8 1.6-1.5 6.7-4.6 11.5-7 7.6-3.7 9-4.8 12.4-10 2.9-4.4 4.4-5.8 6.5-6 1.8-.1 2.9.3 3.2 1.5.3 1-1 4.5-3.3 8.3-3.6 6.1-4.4 6.8-13.3 11.5a439 439 0 0 0-13.1 7.3c-2.7 1.5-3.5 2.6-3 3.5.6.6 2 1.5 3.3 1.8a216 216 0 0 1 24.1 8.9c1.3.5 8.1 2.8 15.3 5 7.1 2.3 17.5 6.3 23 9 5.5 2.8 12 5.6 14.5 6.3a94.8 94.8 0 0 0 24.8 0c.9-.2.6-1.2-.8-3.5-1.2-1.8-3.8-6.7-5.9-10.8a112.5 112.5 0 0 0-17-24.5 155.5 155.5 0 0 1-12.5-16 110.3 110.3 0 0 0-22.1-22 52.5 52.5 0 0 0-8.5-4.4c-2.6-1-20.6-1.3-71.5-1.5-37.4-.2-69.4-.1-71 .1Zm421 18.3a158 158 0 0 0-25.5 8c-6.3 2.5-13.3 5.1-15.5 5.8L781 53c-4.1 1.2-11.3 3.9-16 6-4.7 2.2-13.9 5.9-20.5 8a274 274 0 0 0-18.5 7l-14.5 7a90.1 90.1 0 0 0-9.5 5.4 180 180 0 0 1-19.5 10c-2.2.8-5 1.5-6.3 1.5-1.2 0-2.4.5-2.7 1-.3.5 0 1.3.8 1.6.6.3 8.2.2 16.7-.3s18.2-.5 21.5-.1c3.3.4 8 1.7 10.5 3a73.6 73.6 0 0 1 24.7 22.8l5.4 9.5c1.8 3.3 5.3 8.5 7.8 11.6 2.6 3.1 5.6 7.6 6.8 10a75.8 75.8 0 0 1 5.3 15.4 115.8 115.8 0 0 0 4.5 14l5.5 12c2.3 5 5.2 12.6 6.6 17 1.4 4.4 3 8.4 3.5 9 .5.6.7 1.2.4 1.5-.3.3.5 4.1 1.6 8.5 2 7.4 2.2 11.8 2.9 58 .6 39.9.5 51.6-.6 58-.7 4.4-2.2 11-3.4 14.8l-2 6.7c4.6 7.7 6.6 9.7 8 10 1.9.4 3.5 2.6 6.5 8.5 2.2 4.4 6 11 8.6 14.5 3.3 4.8 5.1 8.8 6.8 15 1.2 4.7 3.3 12.1 4.6 16.5a434 434 0 0 1 10 44.5c.8 5.8 2 15.6 2.5 21.8a59 59 0 0 1 0 15c-.5 2-3.2 6.6-6 10.2l-5.2 6.5c-.1 0-.5 15.5-.8 34.5l-.5 34.5-16.6 32.8a29.4 29.4 0 0 1-11.5 13.5A68.6 68.6 0 0 0 788 659c-1.4 2-3.4 5-4.2 7-1 2-4 7-7 11.4l-6.3 9.6a71 71 0 0 0-8.1 12.5c-2 3.9-5.7 9.5-8 12.5a86.8 86.8 0 0 1-20.9 18.5c-2.8 1.6-7.3 4-10 5.3-2.8 1.3-9.3 3.6-14.5 5.2a356.5 356.5 0 0 1-29.3 7.5c-3.4.8-11.2 2.4-17.2 3.5a284.2 284.2 0 0 0-32.3 8 168 168 0 0 1-17.8 3.9c-3.2.6-9.7 1.5-14.4 2a294 294 0 0 0-25 4.4 190 190 0 0 1-35.5 3.7c-8.8.5-25.7 1.6-37.5 2.5a512 512 0 0 0-39 4.5 292 292 0 0 1-20.3 3c-1.5 0-3 .5-3.2 1-.3.5.7 1.8 2 2.8 1.5 1 6.1 4.8 10.3 8.6 4.3 3.7 9.5 7.9 11.7 9.1 2.2 1.3 10 4.4 17.5 7 9.2 3 15.4 4.5 19.5 4.6 3.3.1 50.1-.1 104-.5 91.3-.7 98.7-.9 108.5-2.7a129.1 129.1 0 0 0 27.5-7.9 64.5 64.5 0 0 1 16-4.9c3.3-.5 11.4-1.2 18-1.6 6.6-.3 18.8-1.3 27-2 8.3-1 16.6-2 18.5-2.7 2-.6 6-2.5 9-4.1 3-1.7 10.5-5.6 16.5-8.6 6-3.1 12.6-6.7 14.5-8 2-1.4 8-6.7 13.5-11.8a69.2 69.2 0 0 1 11.3-9.3c.6 0 4.8-3.4 9.2-7.5 4.4-4.1 8-8 8-8.5s2.7-4.1 6-8c3.3-3.9 6.7-8.7 7.5-10.8.9-2 2.5-6.6 3.7-10.2a182 182 0 0 1 2.9-8.5 276.9 276.9 0 0 0 7-23.5c1.2-5.2 3.2-11.8 4.4-14.5a74.4 74.4 0 0 1 13.4-20.1c2.6-2.9 5.1-7 5.8-9a1392 1392 0 0 0 9.8-33.9 503 503 0 0 0 3.5-15c.7-3.3 2.5-8.7 4-12 1.6-3.3 4.8-9.4 7.2-13.5l4.3-7.4c-.2-20.9-.8-26.4-2.3-32.6a262.3 262.3 0 0 0-9.7-30.5 117.2 117.2 0 0 0-8.4-16.8l-5.5-9.4c-2-3.5-3.6-6.5-3.6-6.8 0-.3-1.8-3.2-4-6.5s-4-6.2-4-6.5c0-.3-.9-1.7-1.9-3.3l-4.6-7.7-4.8-8.5c-1-2-4.1-6.6-6.7-10.5-2.7-3.9-8.6-10.9-13.1-15.6-4.6-4.6-11.5-11-15.4-14-3.9-3-10-8.7-13.5-12.5a65.6 65.6 0 0 1-14-23.9 28 28 0 0 0-2-5c-.4-.6-1.4-3-2.3-5.3l-3.6-8.4c-1-2.4-3-7-4.2-10.3-2.3-5.9-2.4-7-2.7-47a950 950 0 0 1 .6-51.5c.5-5.8 1.8-16.6 2.8-24l1.8-13.5c-4.8-27.6-4.9-29.6-5-85l-.2-57c-4-3.1-6.3-3.5-10.7-3.5-3.3.1-7.4.5-9 1Z"
       class="shp1" />
    <path
       id="Path 2"
       d="M542.9 38.8c-.9 1-2.7 3.6-4.2 6-2.2 3.4-4.4 5-11.3 8.5-4.8 2.3-10 5.4-11.5 7-2.6 2.4-2.8 3-1.6 5.2.6 1.4 1.4 2.5 1.7 2.5a262.3 262.3 0 0 1 17-9.5c8.8-4.7 9.6-5.4 13.2-11.5 2.2-3.8 3.6-7.2 3.3-8.3-.3-1-1.5-1.7-2.9-1.7-1.3 0-3 .8-3.8 1.8Zm-203 3.4c-1 1.6-1.4 6.4-1.4 16.3 0 10.6.4 14.7 1.5 17 1.3 2.5 2.1 3 4.8 2.8 2.6-.3 3.2 0 3.2 1.7 0 1.1-.9 4.8-2 8.3-1.1 3.4-3 10.3-4 15.2-1.1 5-2 11.6-2 14.8 0 3.1-.4 6-1 6.2-.6.3-4-.4-7.8-1.6-5-1.5-8.2-1.9-12.7-1.5-3.3.3-12 .8-19.5 1.1l-13.5.6a73.8 73.8 0 0 1-11.5-13.6 78.7 78.7 0 0 1-5-11c-1.2-3.3-4-9-6.4-12.5l-7-10.8c-1.9-3.1-3.3-4.2-5.1-4.2-1.4 0-3.2.2-4 .5-.8.3-1.5 1.6-1.5 3 0 1.6.7 2.8 2.1 3.3 1.2.4 4.7 5 8 10.2 3.1 5.2 6.5 12 7.3 15 1 3 3.4 8.4 5.6 12 2 3.6 3.6 6.8 3.4 7.3-.2.4-1.4.4-2.6 0-1.3-.3-4.8 0-7.8.6l-13.5 2.6-11.8 2.5c-2 .6-4.4 2-5.2 3.3-1 1.5-1.1 2.7-.5 4 .6 1 1.9 1.7 3 1.7s2.2-.3 2.4-.8c.2-.4 3-1.3 6.2-2L253 132c3-.6 17.6-1.5 32.5-2 14.9-.4 29.5-1.1 32.5-1.4 3.7-.4 7-.2 10 .8 2.5.8 6 1.8 7.8 2.1 2.5.5 3.7.1 5.4-1.7 1.3-1.3 3-2.6 4-3 1.5-.6 1.8-2 1.8-7 0-3.4.7-9.4 1.6-13.2.9-3.8 2.6-10.4 4-14.5l2.9-10.5c.4-1.7 1.7-4.3 3-6 1.2-1.7 4-6.4 6-10.5 2.8-5.5 3.5-7.9 2.8-9-.6-.8-2-1.6-3.2-1.8-1.7-.2-3 1.2-6.2 7l-6.2 11.1c-1.2 2.1-2.6 3.8-3.2 3.8-.6 0-1.6-2-2.3-4.3a44 44 0 0 1-.9-14.3l.9-13.5c.3-3.1 0-3.5-2.3-3.8-2-.2-3 .3-4 2Z"
       class="shp2" />
    <path
       id="Path 3"
       d="M435 64.6c-2 .2-6.8 1-10.9 1.7-4 .6-9.2 2.1-11.5 3.3-3 1.5-5 3.7-7.8 8.5-2 3.5-5.5 8.8-7.5 11.8-2.1 3-6.4 8.3-9.7 12a143.3 143.3 0 0 0-17 23.6c-2.2 3.3-8 9.8-12.9 14.5-5.7 5.5-11.2 12-15.4 18.5-3.6 5.5-8.7 12.7-11.2 16-2.5 3.3-8.5 10.3-13.2 15.5a86.1 86.1 0 0 0-13.1 18 243 243 0 0 1-7.1 12.8 21 21 0 0 1-3.7 4.7 21 21 0 0 0-3.5 5.8c-1.4 2.8-2.5 7-2.5 9.2 0 2.2.3 4.3.7 4.7.4.4 4.4-2.3 8.7-6l12-10.3c2.3-2 6.1-5 8.6-6.6a185 185 0 0 0 15.5-13.4c6-5.8 12.8-11.6 15-13a130.9 130.9 0 0 1 29-13.4 90 90 0 0 0 12.5-4.7c2-1.1 4.4-2.8 5.5-3.8a61.6 61.6 0 0 1 21-9c3.4-.6 24-1.2 47.5-1.5l41.8-.4a303 303 0 0 0-12.8-15.8c-3.7-4.2-7-7-10.3-8.3-4.1-1.8-6.6-2-20-1.8-14.6.3-15.5.2-22.7-2.5-4.1-1.6-10.2-4.3-13.5-6-4-2-7.5-3-10.5-3.1-4.1 0-4.5-.3-4.5-2.6 0-1.6.9-2.9 2.5-3.7 1.5-.8 3.9-1 6-.7 2 .3 5.8 1.7 8.5 3.1 2.8 1.4 7.5 3.4 10.5 4.3l10 3.5c3.6 1.3 6.1 1.5 12.5 1 4.4-.5 9.5-.8 11.3-.7 1.7.1 3.6 0 4.2-.3.6-.3-.8-3.2-3-6.5a30 30 0 0 1-4.9-11.3c-.5-2.8-1.3-6.1-1.8-7.2-.6-1.1-3.1-3.2-5.7-4.8-3.9-2.3-4.6-3.1-4.4-5.5.2-1.8 1-2.8 2.3-3 1.1-.1 4.1 1 6.8 2.8 2.6 1.6 5.6 4.5 6.7 6.3 1 1.7 2.3 5.2 2.6 7.7a26 26 0 0 0 2.7 8 136 136 0 0 0 13.8 18.5 1180.3 1180.3 0 0 1 15.2 17.8c3.2 3.9 4.5 6.3 4.2 7.7-.3 1.1 0 2.2.5 2.5.5.3 7.9 1 16.3 1.5 8.3.6 19.5 1.8 24.7 2.6 5.2 1 11.5 2.5 14 3.6 2.5 1 5.8 3.1 7.3 4.6 1.6 1.5 3.5 4 4.3 5.7.8 1.7 1.4 3.8 1.4 4.8s.5 2 1 2.2c.5.3 2.6-.2 4.5-1 2-.8 3.5-2 3.5-2.5 0-.6-.5-1.3-1.1-1.8-.7-.4-.9-1.9-.5-3.7.4-1.7 2.1-4.4 3.9-6.2l3.2-3.2a134.8 134.8 0 0 0-12.6-13.4l-8.6-6.8a40.3 40.3 0 0 1-7.8-7.7c-1.4-2-2.9-6-3.4-8.7a15 15 0 0 1 0-6.8c.5-1 1.8-1.7 2.9-1.7 1.1 0 2.4.8 2.9 1.8s1.1 3.4 1.5 5.5c.3 2.1 2 5.3 3.9 7.3 1.7 2 5.2 5 7.7 6.7a57.6 57.6 0 0 1 15 14.5l3 4.2c4.3-3.6 6.9-5.6 8.5-6.8 2.7-1.8 3.1-3 4.5-11.4l1.5-9.3c5.9 0 6 .2 6 4.5a81 81 0 0 1-1.2 10.5c-.6 3.3-1 6.3-.7 6.8.2.4 3.2.7 6.6.7 3.5 0 8.5.7 11.3 1.5 2.8.8 6.2 1.5 7.8 1.5 1.5 0 6.5-2.2 11.2-5 6.8-4 8.6-5.6 9-7.8.3-1.5 1.7-4.5 3.3-6.7 1.6-2.2 5-5.4 7.8-7.2 2.7-1.7 6.9-3.7 9.3-4.5 4-1.2 4.4-1.2 5.6.7.8 1.1 1.1 2.7.9 3.5-.3.8-2.8 2.3-5.7 3.4-2.9 1-7.2 3.7-9.6 6-3.5 3.3-4.3 4.8-4.5 8l-.1 3.8a98 98 0 0 0 27.5 4.5c8.2.3 14 1 14.8 1.6.7.7 1.3 2 1.2 3 0 1-1 2.2-2.3 2.8-1.5.8-6.1 1-15.2.4a78.6 78.6 0 0 1-16.5-2.2c-2-.9-7.1-2.1-11.5-2.9-6.8-1.1-8.4-1.1-10.5 0l-6.5 3.5a19.4 19.4 0 0 1-9 2c-2.8 0-6.8-.6-9-1.3-2.2-.8-8.6-1.6-14.1-1.8l-10.2-.3a101.6 101.6 0 0 0-15.2 15.8c0 .6 1.9 2.5 4.2 4 2.9 1.9 5 2.6 6.5 2.3 1.3-.3 4.4 0 7 .6 2.7.6 6.2 2.1 7.8 3.2a215.2 215.2 0 0 1 28.5 25.1c7 7.2 9 8.6 9.4 7.3l1.1-3.3c.3-.8 1.6-2 3-2.5a48 48 0 0 1 11.3-1 157.8 157.8 0 0 1 31.5 4c1 .6 2.8 1 4.2 1 1.4 0 4.6-1 7.3-2.4 2.6-1.3 6-2.7 7.7-3 1.6-.4 4-.5 5.3-.2 1.7.5 2.1 1.2 2 3.3-.3 2.3-1 2.9-4.8 3.8-2.5.7-6 2-7.8 2.8-1.7 1-3.2 2.3-3.2 3a44 44 0 0 0 7.6 8.7c4.1 4.1 8.5 9.3 9.6 11.5a70 70 0 0 0 6 9c2.3 2.8 5.3 7.6 7 10.8 1.5 3.1 3.7 6.1 4.8 6.7 1.2.6 2 2 2 3.5 0 1.7-.7 2.7-2 3-1.1.3-3.2 0-4.7-.8-1.7-.7-4-3.6-6.1-7.7a76.5 76.5 0 0 0-6.7-10.5c-1.8-2.2-4.3-6-5.5-8.5-1.3-2.5-5.7-8-10-12.3-4-4.3-8-9-8.6-10.5-1-2.1-2.4-3-7-4.4a109.1 109.1 0 0 0-33.9-3.5c-4.4.4-8.4 1-8.8 1.4-.5.5 3.3 4.4 8.4 8.8a373 373 0 0 1 16.1 15c3.8 3.8 7.5 8 8.1 9.1l7.4 11 9.4 13.4a89.1 89.1 0 0 1 11.7 24 618 618 0 0 1 3.4 11.5 69.1 69.1 0 0 0 4.2 11.4 63 63 0 0 0 7.1 9c3.3 3.7 7.2 9.2 8.7 12.2a51 51 0 0 1 3.7 10.4c.6 2.8 2 8.6 3.2 13 1.8 6.6 2.3 11 2.4 24.5 0 9.8.5 16.4 1 16.1.6-.2 3.1-2.2 5.7-4.5 4.7-4 4.9-4.4 7.8-16.1 1.7-6.6 3.8-13.5 4.5-15.3a747.8 747.8 0 0 0 6-13.7 72.3 72.3 0 0 0 4.4-16c.6-2.8 1-23.3 1-46 0-22.6-.4-45-1-50-.5-5-1.9-12-3-15.8l-4.1-14c-1.2-4-5-12.8-8.4-19.7-3.4-6.9-7-15.9-8.2-20a358 358 0 0 1-3.3-13c-.6-3-2-6.7-3-8.3-1-1.5-2-3-2-3.4a28 28 0 0 0-3.9-5.3c-2-2.5-5-7-6.5-10a71.4 71.4 0 0 0-9.3-16 45.7 45.7 0 0 0-14.4-12.3 18 18 0 0 0-8.5-1.8l-57.8.7c-38.5.5-53.4.3-57.5-.5-3-.7-7-2-9-2.8a72 72 0 0 1-7.8-4.5 18.5 18.5 0 0 0-5.5-2.8 43.3 43.3 0 0 0-11.3-4c-4.3-1.1-11-3.2-14.9-4.6L523 88.3c-7.4-2.5-20.3-7.8-28.5-11.8A262.4 262.4 0 0 0 469 65.8a226.6 226.6 0 0 0-34-1.2Z"
       class="shp1" />
    <path
       id="Path 4"
       d="M836.4 84.5c-1.5 1-2 2.8-2 8.7 0 4.8-.8 9.6-2.4 14.3a78.1 78.1 0 0 1-7.2 14.5c-2.7 4.1-4.8 8-4.8 8.5 0 .6-1.3 3.7-3 7l-4.5 9.8c-.8 2-2 3.5-2.5 3.2-.6-.3-1-5-1-10.8 0-8.2-.5-11.1-2.1-14.7a48.3 48.3 0 0 1-2.9-12.5 91.2 91.2 0 0 0-2.5-14c-1-3.6-3-7.1-4.6-8.8-1.8-1.6-3.8-2.6-5.1-2.5-1.7.2-2.4 1-2.5 3-.2 2 .3 3.1 1.7 3.8 1.3.6 2.6 3.1 3.6 6.8a99 99 0 0 1 2.5 14.2c.4 4.8 1.7 10.7 3 13.5 2 4.6 2 6 1.4 16-.5 7.7-.4 12.7.5 16.5.7 3 1.4 14.3 1.6 25 .3 10.7.2 21 0 22.8-.4 1.7-2.3 5.3-4.4 8-2.1 2.6-4.1 5.4-4.5 6.2-.3.8 0 2 .6 2.8.7.7 2.4 1.2 4 1.2 1.5 0 4.4 1.1 6.5 2.5 2 1.3 5.7 4.8 8.2 7.7 2.4 3 4.7 6.9 5.1 8.8.4 2 1 7.8 1.4 13a55 55 0 0 0 4.1 18.3 88 88 0 0 1 3.4 9.7c0 .6 1.4 5.4 3 10.8a89.5 89.5 0 0 0 4.6 12 4.8 4.8 0 0 0 3.9 2.2c1.5 0 2.7-.7 3-1.8.3-1-.3-3.7-1.4-6.2-1-2.5-3.3-9.4-5-15.5-1.6-6-3.9-13.1-5-15.8-1.3-2.9-2.7-9.7-3.6-17.7-1-8.4-2.2-14.3-3.4-16.8a43 43 0 0 0-13.9-14.5L806 221c4.4-8.3 4.5-9.9 4.8-32.5.3-21.8.5-24.2 2.2-26 1-1.1 3-4.7 4.5-8l7.3-15.5c2.5-5.2 6.2-11.8 8.1-14.5a53 53 0 0 0 6.3-14.5c2-6.8 2.8-11.7 2.8-17.3 0-6.6-.3-8-2-8.7-1.2-.6-2.4-.5-3.6.5Zm-378.9 7.2c-.5.3-.8 1.7-.7 3 .1 1.6 1.6 3.1 4.8 5 2.6 1.6 5.1 3.7 5.7 4.8.5 1.1 1.3 4.4 1.8 7.3A30 30 0 0 0 474 123c2.2 3.3 3.6 6.2 3 6.5-.6.3-2.5.4-4.3.3-1.7 0-6.8.2-11.2.6-6.4.6-9 .4-12.5-.9-2.5-1-7-2.5-10-3.5s-7.8-2.9-10.5-4.3a39.6 39.6 0 0 0-8.5-3.1c-2.1-.4-4.5-.1-6 .7-1.6.8-2.5 2.1-2.5 3.7 0 2.3.4 2.5 4.5 2.6 3 0 6.6 1 10.5 3.1 3.3 1.7 9.4 4.4 13.5 6 7.2 2.7 8.1 2.8 22.8 2.6 13.3-.3 15.8 0 20 1.7 3.1 1.3 6.5 4.1 10.2 8.3 3 3.4 7 8.1 8.8 10.4a15 15 0 0 0 5.2 4.8c1.1.3 2.7 0 3.5-.8.9-.6 1.6-1.8 1.5-2.4 0-.7-2.1-3.9-4.7-7a594 594 0 0 0-15.2-17.8 188.6 188.6 0 0 1-13.8-18.5 26 26 0 0 1-2.7-8c-.4-2.5-1.5-6-2.6-7.8-1.1-1.7-4.1-4.6-6.8-6.2-2.6-1.7-5.4-3-6.3-3-.8 0-2 .3-2.4.7Zm104.7 34c-.6 1-.6 3.9 0 6.8.4 2.8 2 6.7 3.3 8.8 1.4 2 4.9 5.5 7.8 7.6l8.6 6.8c1.9 1.5 5.5 5.2 8 8l4.6 5.4c-5 5-6.7 7.8-7 9.4-.5 2.1-.2 3.4.9 4.3.9.6 2.5 1 3.6.7 1.1-.3 2-1.2 2-2a37 37 0 0 1 7.6-8.8l7.6-7.2c15.7.5 22.1 1.3 24.3 2 2.2.8 6.3 1.5 9 1.5 3.2 0 6.4-.7 9-2.1l6.5-3.5c2.2-1.2 3.8-1.2 10.5 0 4.4.8 9.6 2 11.5 2.9 2 .8 9.1 1.8 16.5 2.2 9 .5 13.7.4 15.3-.4 1.2-.6 2.2-1.9 2.2-2.8 0-1-.5-2.3-1.2-3-.8-.7-6.6-1.3-14.8-1.6-9.3-.3-15.7-1-20.5-2.5l-7-2c.3-7 1.1-8.4 4.6-11.8 2.4-2.3 6.7-5 9.6-6 2.9-1 5.4-2.6 5.7-3.4.2-.8-.1-2.4-.9-3.5-1.2-1.9-1.6-2-5.6-.7-2.4.8-6.6 2.8-9.3 4.5-2.8 1.8-6.3 5-7.8 7.2-1.6 2.2-3 5.2-3.3 6.8-.4 2.1-2.2 3.7-9 7.7-4.7 2.8-9.7 5-11.3 5-1.5 0-5-.7-7.7-1.5-2.8-.8-7.8-1.5-11.3-1.5-3.4 0-6.4-.3-6.6-.8-.2-.4 0-3.4.7-6.7a81 81 0 0 0 1.1-10.5c.1-4.3 0-4.5-2.9-4.5h-3c-2.9 17.8-3.3 18.9-6 20.8a93.1 93.1 0 0 0-5.8 4.4L599 164a75.3 75.3 0 0 0-9.7-12.1c-2-2-5.8-5-8.3-6.6-2.5-1.7-6-4.7-7.8-6.7-1.8-2-3.5-5.2-3.8-7.3-.4-2.1-1-4.6-1.5-5.6S566 124 565 124c-1 0-2.3.8-2.8 1.8Z"
       class="shp2" />
    <path
       id="Path 5"
       d="M421.5 177.7A43.4 43.4 0 0 0 404 185c-3 2.2-7.8 5-10.5 6.3-2.8 1.4-9.3 3.9-14.5 5.7-5.2 1.8-12.6 4.9-16.5 6.9a75 75 0 0 0-16 12.2c-5 4.7-12.8 11.5-17.5 15a588.6 588.6 0 0 0-32.1 26.4c-8.3 7.4-9 8.3-9 11.8 0 2-.3 4.8-.9 6.2-.6 1.4-2.2 3-3.8 3.6-1.8.7-3.4.7-4.7 0-1.7-.8-3 0-8.6 5.7-3.6 3.7-7.5 8-8.6 9.7-1 1.6-2.5 4.8-3.2 7-.6 2.2-1.8 8.7-2.6 14.5a228.8 228.8 0 0 1-4.8 24.5c-1.3 5.2-1.4 13.5-.8 59.5.8 51.8.8 53.7 3 58.5a95 95 0 0 0 7.2 14c1.5 2.8 4 8.1 5.5 12 1.5 3.9 3.9 8.2 5.3 9.7 1.7 1.8 5.2 3.5 10.1 5a51.5 51.5 0 0 1 18.5 9.6c1.6 1.2 6.1 3.3 10 4.7 3.9 1.4 9.4 3.8 12.4 5.3 3.2 1.6 8 5.6 12.2 10 3.8 4 6.9 7.7 6.9 8.2 0 .5 1.7 3.8 3.7 7.3l4.8 8.1c.6 1 2.8 2.6 5 3.4 3.3 1.1 5.6 1.2 12.5.3 4.7-.6 12.7-1 17.8-1 7-.1 10.6.4 15 2 3.1 1.2 10 5.3 15.2 9.1a63.4 63.4 0 0 0 13.5 8c2.4.6 10.1.8 19.5.5 10.6-.3 17.4 0 21.5.8 5.1 1.1 6.2 1.1 7.5-.1 1.3-1.3 1.6-9 1.8-54.7.3-38.6 0-54.8-.9-59.2-.6-3.3-3-10-5.4-15-2.4-5-6.7-12.6-9.7-17l-6.3-9.5a46.4 46.4 0 0 1-10.5-22c-.6-3-1-8-1-11s.4-8 1-11c.5-3 3.1-9.8 5.7-15a190 190 0 0 1 11-18.8 132.2 132.2 0 0 0 9.5-15c1.7-2.6 6.9-8.6 11.5-13.4a70 70 0 0 0 10.5-13.6c1.9-4.2 2.1-6.6 2.3-22.2 0-9.6.5-18.9 1-20.5a52.2 52.2 0 0 1 15.6-24.2 215.6 215.6 0 0 1 26.9-22 138.2 138.2 0 0 1 15.8-9.4l6.5-4c1.5-1 3-2 3.5-2 .4 0 1.4-.6 2.2-1.4 1.3-1.4 1.3-2-.2-5.3-1-2-2.5-4.5-3.5-5.4-1-1-5-2.4-9-3.3-4-.8-14.8-2-24-2.5-9.3-.5-37.3-1-62.3-.9-25 0-46.4.3-47.5.6Z"
       class="shp3" />
    <path
       id="Path 6"
       d="M282 186.5a49 49 0 0 0-8.8 2.4c-1.2.6-5.5 1.8-9.4 2.6-4 .9-10.2 2.4-13.8 3.5-3.6 1-10.1 2.9-14.5 4-4.4 1.3-10 3.3-12.5 4.5a59 59 0 0 0-11 8.6 84.6 84.6 0 0 0-15 18.9c-1.4 2-3.9 5-5.5 7-1.7 2-4.3 5.6-5.8 8.3-2.1 3.6-2.5 5.1-1.7 6.7.6 1.1 1.9 2 3 2 1.3 0 2.8-1.4 4.2-3.8 1.3-2 3.7-5.3 5.4-7.2 1.7-2 5.5-7.2 8.5-11.6 3-4.5 8.7-11.1 12.7-14.8 5-4.6 7.6-6.3 8.4-5.7 1 .6 1.5 6.2 2 17.8.7 15.8.6 17.3-1.6 24.3-1.2 4.1-6 15-10.4 24.3a116 116 0 0 0-8 18.4c.2 1.2 1.3 1.9 3 2 2.3.3 3.3-.5 5.7-4 1.6-2.3 4.8-8.5 7.1-13.7 2.3-5.2 6-14.4 8.2-20.5 2.8-7.8 4-12.7 4-17a315.7 315.7 0 0 0-2.5-34.3c-.4-.6-.1-1.6.6-2 .6-.5 6-2.2 11.7-3.7l16.5-4.2c3.3-.8 8-2.2 10.5-3 2.5-.8 8.4-2.3 13.3-3.2 7.5-1.4 8.7-1.9 8.7-3.6 0-1.1-.5-2.6-1.2-3.3a5 5 0 0 0-3.3-1.1c-1.1 0-5 .7-8.5 1.4Zm153.3 10.3c-.3 1-.4 5.8-.2 10.8a29 29 0 0 0 1.6 10.5c.7.8 1.5 2.8 1.7 4.4l1.2 9.5c.4 3.6.6 8.4.5 10.8 0 2.3-.8 5.9-1.7 8-.8 2-3.6 5.5-6.1 7.7-2.5 2.2-7.1 5.8-10.2 8-3.1 2.2-9 6.7-13 10s-9.9 8-13 10.3a55.4 55.4 0 0 0-21.2 25.7c-5.3 10.8-6.2 12.2-9.6 13.6l-7.6 3.3c-2 .9-4 1.6-4.4 1.6a115.5 115.5 0 0 0-14.3 7.4 819 819 0 0 0-11.4 7.5c-6 4-7.8 6-14.4 16.1a315 315 0 0 0-10.9 17.8c-3.2 6-3.3 6.2-5.3 4.4-1.6-1.3-2-2.8-2-6.2.2-2.5 0-17.3-.4-33-.6-24.8-.5-28.9.9-31.5.9-1.6 1.6-3.4 1.6-4 0-.6 1.5-3 3.3-5.5 1.9-2.5 3.7-6 4.1-8 .6-2.5 3-5.7 8.4-11 4.2-4.3 8.7-8.4 10.1-9.4 2-1.4 5-1.7 17-1.6 8.4 0 16-.4 18-1l9.5-3.5c3.3-1.3 8-2.6 10.5-3 2.5-.3 6-1.4 8-2.4s5.5-2.5 8-3.3c3.7-1.2 4.5-2 4.8-4.1.1-2.1-.2-2.7-1.8-2.7-1.1 0-3 .5-4.3 1.1-1.2.7-3.2 1.3-4.4 1.5-1.3.2-4.8 1.5-7.8 2.9a28 28 0 0 1-6.3 2.3 17 17 0 0 0-4.2.6c-2 .5-4 1.1-4.5 1.5l-4.5 1.9a58 58 0 0 1-15.5 1.2c-6.6 0-12.4-.4-12.8-.8-.5-.4.9-2 3-3.7a48 48 0 0 1 6.7-4.5c1.7-.8 5.5-3.8 8.5-6.6 3.1-2.8 7.7-6.5 10.4-8.2 3.5-2.4 4.7-3.8 4.7-5.7 0-1.7-.6-2.5-1.8-2.5-1 0-4.2 1.6-7.2 3.7-3 2-7.8 5.7-10.6 8.2a99.3 99.3 0 0 1-11 8.4c-3.2 2-8 5.2-10.4 7-2.5 1.9-5 4.2-5.5 5.3-.6 1-4.6 5.7-9 10.2-4.7 4.9-9 10.5-10.5 13.5a55.6 55.6 0 0 1-5.2 8.8 17.8 17.8 0 0 0-2.8 4.1c0 .5-.8 2.5-1.8 4.6-1.5 3.2-1.7 6.8-1.6 26.2a455.3 455.3 0 0 0 1.9 48.5c.3 2.9 1.1 4.5 3 5.8l2.5 1.7c-3.1 4.6-4 6.6-4 7.3 0 .6-.3 1.6-.7 2a111.6 111.6 0 0 1-6.7 15.4c-3.1 6.2-5.8 12.4-6.1 13.8-.3 1.4-.8 3.7-1 5.3l-1.5 5.7-2 6.5c-.8 2.6-.7 3.8.2 4.8.7.7 2 1 2.8.7.9-.3 2.5-4 4-9.3a76.2 76.2 0 0 1 9-22.8c2.3-3.9 2.3-3.9 3.9-1.8 1.2 1.7 2.9 2.3 7 2.5 3.3.3 6.8 1.3 9 2.6l7.1 4.2c2 1 6 4.6 9.1 7.8 3.1 3.2 7 8 8.8 10.6 1.7 2.6 4.1 5.2 5.4 5.7l4.2 2.3 7.5 4.4c3 1.7 6.7 3.3 8 3.5 1.5.2 3.4 1 4.4 1.8 1 .8 1.5 2.2 1.2 3-.4.8-.2 2 .4 2.8.6.6 1.7 1 2.5.7.8-.3 4.2 1.6 7.7 4.3 4.6 3.5 6.7 6 8.5 10a43 43 0 0 1 2.9 9c.3 2 1.7 5.5 3.3 7.7 1.9 2.8 3.8 4.3 6.5 5 3 .8 3.9.7 4.6-.5.4-.8.6-2 .4-2.8-.2-.6-1-1.2-1.6-1.2-.7 0-2.5-1.2-4-2.7a20.1 20.1 0 0 1-3.7-6c-.6-1.8-.9-3.3-.6-3.3a55.8 55.8 0 0 0-5.4-14 36 36 0 0 0-6.8-6.2c-3-2-5-4.3-4.8-4.8.3-.6 1.9-1.7 3.5-2.5s3.8-1.6 4.8-1.8c1-.1 2.1-.6 2.7-.9.6-.4 2.1-.8 3.5-1 1.4-.3 3.5-1 4.8-1.7a13 13 0 0 1 5-1c1.5 0 4.7.5 7.2 1.3a72 72 0 0 0 14.8 1.5l10.2.1c0-5-.2-5-7.3-5.1-4 0-8.7-.3-10.4-.5-1.8-.2-4.8-1-6.6-1.7a26 26 0 0 0-8.7-1.2c-3.6.2-8.2 1.4-13.5 3.6a30.8 30.8 0 0 1-15.5 3.4c-6.2 0-8.5-.6-13-2.9-3-1.5-7.6-4.3-10.3-6.2a41.6 41.6 0 0 1-7.8-7.6c-1.7-2.4-5.4-6.7-8.2-9.7a63.4 63.4 0 0 0-17.2-12.6 25.9 25.9 0 0 0-11-2.4c-3.9-.1-7.4-.6-8-1.1-.7-.6-.5-2.7.5-6.1 1.3-4.6 2.1-5.7 7-8.8 3-2 6.9-4 8.5-4.7a726 726 0 0 1 28-9.6c3-.9 10.2-1.6 18-1.7 7.1-.2 14.1-.5 15.5-.8 1.4-.2 3.9-1 5.5-1.8s4.6-1.7 6.5-2c2-.3 5.6-.8 8.3-1 2.6-.3 6.4-1.2 8.4-2.1 2.5-1 7.3-1.7 13.8-1.9 8.8-.2 10-.4 10.6-2.1.4-1 .5-2.2.3-2.6-.2-.5-5-.8-10.6-.7-5.9 0-12 .7-14.3 1.5a54 54 0 0 1-8.5 2 144.5 144.5 0 0 0-12 2c-2 .3-4 1-4.5 1.5a30 30 0 0 1-9 1.4l-17.5 1c-5.2.2-10.2.6-11 .8l-4.5 1.2c-1.6.4-6 1.6-9.5 2.8-3.6 1-7 2.3-7.5 2.7-.6.4-2.5 1.2-4.3 1.9-2.6.9-3.4.8-4.2-.4-.6-.8-.7-2-.3-2.8l8.8-13.7c4.9-7.4 10.4-14.5 13.6-17.4a54 54 0 0 1 8.4-6.3c1.6-.9 4.4-2.5 6-3.7a60.2 60.2 0 0 1 13.5-7.4c1.4-.6 5.9-2.6 10-4.6 4.1-2 8.4-3.8 9.5-4a217.9 217.9 0 0 1 11.5-2c1.4-.3 5.2-1.5 8.5-2.7 3.3-1.1 7.6-2.3 9.5-2.5 2-.3 5-1 7-1.6a59.4 59.4 0 0 0 17.6-10.3c2-1.8 3.1-3.8 3-5a2.6 2.6 0 0 0-2.4-2.3c-1.3-.1-4 1.3-6.4 3.3a41.6 41.6 0 0 1-19.3 9 30 30 0 0 0-6 1.2c-.6.4-2 .8-3.3 1a25 25 0 0 0-4.4 1.2c-1.3.5-2.6 1-3 1-.5 0-2.5.7-4.6 1.5-2.4.9-4.3 1-5.4.5-1.7-.8-1.5-1.4 1.4-6.6a59.2 59.2 0 0 1 16.8-18.6c3-2.2 7.1-5.4 9.1-7.1l12-9.6c4.5-3.6 10.5-8.6 13.3-11.2 3.6-3.4 5.8-4.7 7.5-4.5 1.7.1 2.8-.5 3.5-2 .6-1.1 2.3-3.4 3.8-5 1.4-1.5 4.6-5.7 7-9.2 4-6 5-6.7 15.3-12 6-3.1 13.3-6.4 16-7.3 2.8-.9 6.4-2.8 8-4.2 1.6-1.4 3.3-2.2 3.7-1.8.4.4 1-.3 1.2-1.6.4-1.2.4-2.6.1-3.2-.3-.6-2-.8-3.8-.5a11 11 0 0 0-5.2 2.5c-1.1 1-2.2 2-2.5 2-.3 0-2.8 1-5.5 2.2a45 45 0 0 1-6.8 2.5c-1 .2-4 1.6-7 3.2l-9.6 5.2a23 23 0 0 0-7 6.2c-1.4 2-3 3.8-3.4 3.7-.4 0-1-.8-1.2-1.8a186.5 186.5 0 0 1-2-14.8c-.2-2.7-.6-5.8-.8-6.9-.2-1.1-1-3.1-1.8-4.5a45 45 0 0 1-1.6-3.3c-.2-.4-.3-4.3-.3-8.7 0-7.4-.2-8-2-8-1.1 0-2.3.8-2.7 1.8Z"
       class="shp2" />
    <path
       id="Path 7"
       d="M598 202.2c-2 .5-5.3 1.2-7.5 1.5-2.2.2-4.4 0-5-.6-.5-.6-1.9-1-3-1s-4.1 1.3-6.7 2.7a1507.7 1507.7 0 0 0-31.3 18.7A222.3 222.3 0 0 0 518 247c-3 3.5-6.1 7.5-6.9 9-1 1.7-1.6 8.6-2 23-.5 13.1-1.3 21.6-2 23.5a514 514 0 0 0-2.6 6c-.7 1.6-5.2 7.3-10 12.5-5.6 6.1-12 15-18.3 25l-10.8 17.5-3 5.5c-1.1 2-2.5 5.3-3.2 7.5a50.1 50.1 0 0 0-.1 21.5c.6 2 1.7 4.9 2.4 6.5.7 1.6 4 6.6 7.3 11a156 156 0 0 1 20.5 37c2 5.7 2.1 8.2 2.5 50 .2 27 0 51.3-.8 63l-1.2 19c4.8 4.3 7.2 5.5 8.4 5.6h4.3c1.1-.2 3.5-1.7 5.4-3.4 1.8-1.8 6.6-8.2 10.6-14.2 6-9 8.2-11.6 12.6-14.2 3-1.8 7.9-4.3 10.9-5.5 5.2-2 7.7-2.2 46-3 22.3-.4 45-1.2 50.5-1.7 5.5-.6 14.3-1 19.5-1 8.6-.1 9.9-.4 13.6-2.9 2.3-1.5 8.4-7.2 13.5-12.7 5.2-5.5 12-13.1 15-17 3-3.9 6.4-9 7.5-11.5 1.3-2.5 4-7 6.3-10a143 143 0 0 0 11.5-23c4-9.6 8-19.3 8.6-21.5l2.6-8c1-3 1.4-10.3 1.4-28 0-18.2-.4-25.4-1.6-30-.9-3.3-2.3-9.8-3.3-14.5a64 64 0 0 0-3-11c-.8-1.4-4.2-5.4-7.6-9a57.7 57.7 0 0 1-8.6-11.5c-1.4-2.8-3-6.8-3.6-9-.7-2.2-2.2-8-3.4-13-1.2-5-3.1-10.8-4.3-13-1.1-2.2-3.9-6.5-6.1-9.5-2.2-3-4.5-6.2-5-7.1-.5-1-4.7-7-9.2-13.5a81.1 81.1 0 0 0-15.4-17.9 488 488 0 0 1-13.8-12c-3.6-3.3-8.2-8-10.2-10.5s-6.5-7.2-10-10.5-9.3-8.6-12.9-11.6a76 76 0 0 0-8.8-6.8c-1.2-.6-3.9-1-6-1-2 0-5.3.6-7.2 1Z"
       class="shp3" />
    <path
       id="Path 8"
       d="M722 217a51 51 0 0 0-6.8 2.8 19.5 19.5 0 0 1-6.7 2.2 11 11 0 0 1-4.3-1 157.3 157.3 0 0 0-31.8-4c-5.1 0-10 .6-11.4 1.3a4.8 4.8 0 0 0-2.8 4l-.2 2.7c13.9-1 21.6-.8 27.5 0 5.5.6 12.6 2 15.9 2.8 4.6 1.4 6 2.3 7 4.4.6 1.5 4.5 6.2 8.7 10.5 4.2 4.3 8.6 9.8 9.9 12.3 1.3 2.5 3.8 6.3 5.5 8.5 1.8 2.2 4.8 7 6.7 10.5 2.2 4.1 4.4 7 6.1 7.8 1.5.6 3.6 1 4.7.7 1.3-.3 2-1.3 2-3a4 4 0 0 0-2-3.5c-1.1-.6-3.3-3.6-4.9-6.8-1.6-3.1-4.6-8-6.8-10.7a70 70 0 0 1-6-9 68.1 68.1 0 0 0-9.7-11.5 44 44 0 0 1-7.6-8.8c0-.6 1.5-2 3.3-2.9 1.7-.9 5.2-2.1 7.7-2.8 3.6-.9 4.6-1.6 4.8-3.6.2-1.3-.3-2.7-1-3.1-.7-.4-2.2-.7-3.3-.7a22 22 0 0 0-4.5.8Z"
       class="shp2" />
    <path
       id="Path 9"
       d="M137.3 233c-9.5.5-10.4.7-14.2 3.8a27.2 27.2 0 0 1-4.7 3.2 30 30 0 0 0-5 3c-2.4 1.7-4.6 3-4.9 3-.3 0-2.4 1.2-4.8 2.7-2.3 1.5-8 6.3-12.7 10.7-4.7 4.3-10.3 9.1-12.5 10.7a60 60 0 0 1-10 5 31 31 0 0 0-8.5 5 39.5 39.5 0 0 0-5.3 7.7c-1.5 2.9-4 10.3-5.6 16.4-1.6 6.4-4.9 15.5-7.5 20.8-4.4 9.1-4.6 9.9-4.6 18.5a160.8 160.8 0 0 1-4 33.5c-.6 2.5-1.7 9-2.5 14.5s-2 14.7-2.5 20.5c-.7 5.8-1.5 13-2 16s-.9 16.8-1 30.5c0 13.8-.5 27-1.1 29.5-.6 2.5-2 6.8-3.3 9.5a70.7 70.7 0 0 0-3.7 10.5 20.7 20.7 0 0 0 0 11.5c.7 3.3 2.5 8.5 4 11.5 1.5 3.1 6.6 9.7 12.1 15.6 5.2 5.6 11.3 12.6 13.5 15.5l9.3 11.6c2.8 3.4 5.7 6 6.2 5.8.5-.3 1.2-1.7 1.5-3.3a59 59 0 0 1 6.3-11.7c3.3-5 9.5-13 14-18 4.4-5 10.2-10.5 12.9-12.3a188 188 0 0 1 10.3-6.5l5.5-3.2c1-30.5 1.1-31.2 4.2-37 2-3.7 5.8-8.5 10-12.5 5.2-4.8 7.4-7.7 8.4-10.9a14 14 0 0 1 2.7-5.2c.6-.5 2.1-.7 3.2-.4 1.1.3 2.2 1.3 2.5 2.3.3 1-.8 4.5-2.5 8-2 4-5.4 8.6-9.8 13a55.4 55.4 0 0 0-8.7 10.7c-1.4 3-2 6.6-2.2 14.3-.2 5.6 0 10.4.5 10.6.4.2 5.5-2.6 11.4-6.3 5.9-3.6 13.8-8.7 17.5-11.3 3.7-2.6 9.2-7.4 12-10.7 3-3.4 6.5-6.6 8-7.1 1.6-.6 3.6-.8 4.6-.5 1 .3 1.7 1.5 1.7 3s-.7 2.8-1.8 3.3c-1 .4-4.4 3.6-7.4 7.2a76.9 76.9 0 0 1-17.1 14.3c-10 6.6-11.5 8-10.4 9.2 1 1.4 4 1.5 22.4 1 16.9-.4 22-.8 24.6-2.1 1.7-1 5.9-2 9.2-2.5a24 24 0 0 0 8.8-2.9c1.5-1 3.7-1.9 5-1.8 1.5.2 2.3 1 2.5 2.8.1 1.4-.3 3.1-1 4-.7.7-3.1 2.1-5.3 3.1-2.2 1-6 2-8.5 2.3-2.5.3-6.3 1.3-8.5 2.3-3.5 1.6-7.2 1.8-29.6 1.8-24.3 0-25.8-.1-27.8-2-2-1.8-2.5-1.8-4.4-.6a336.1 336.1 0 0 1-21.7 15 147.6 147.6 0 0 0-30.8 32.6c-2 3.3-4.2 8-4.9 10.3-1 3.2-1 4.7-.2 6.5l4.5 7c3.2 4.3 3.6 4.6 6.2 3.8 1.5-.6 6.3-1.5 10.7-2.1 4.4-.7 10.1-2 12.8-3.1 3.5-1.4 7.3-2 14.5-2a66.1 66.1 0 0 0 31.8-6.2 439 439 0 0 0 11.9-6c3-1.7 6.6-2.8 9-2.8 2.4 0 4.5.6 5.3 1.6.6.8 1 2.4.7 3.5-.4 1.5-1.3 2-4 2-2.4 0-6.6 1.7-13.3 5.5-5.3 3-11.5 6-13.7 6.6l-5.5 1.6c-1 .3-.5 1.2 2 3 2 1.5 7 6 11 10.2 7.3 7.3 7.8 8 9.5 15.1 1 4.4 3.6 10.6 6.1 15a54 54 0 0 1 4.3 8.5c0 .5 1.4 4 3 7.8 2.2 4.6 4 7.3 6 8.5 2.3 1.2 3 2.5 3 4.5.1 2.3-.3 2.7-2.7 2.7-1.5 0-4-.9-5.7-2-2.2-1.3-4-4.1-6.8-10.4-2-4.7-3.7-9-3.7-9.4 0-.4-.6-1.3-1.5-2-1.2-1-1.6-1-2 0l-.9 3.8a28 28 0 0 1-3.5 7 20.4 20.4 0 0 0-3.7 10.5c-.3 3.3-1.3 8.3-2.1 11-1 3.4-1.4 7.7-1.2 13.2.4 7.2.8 8.6 3.5 12.5 2.2 3.1 3.6 4.2 5 3.8 1-.2 10.9-.4 21.9-.5 18.6 0 20.3.1 24 2.2 2.2 1.1 5.1 3.4 6.5 5 1.4 1.5 3.5 4.3 4.8 6 1.2 1.8 2.2 4.4 2.2 5.8 0 1.7-.7 2.7-2.3 3.1-1.7.5-2.7 0-4.4-2.2l-5-6.3c-1.6-1.8-4-4-5.3-4.6-1.6-.8-9-1.4-20.8-1.6-10.1-.2-18.6 0-18.8.4-.2.4 1.9 3.5 4.6 7 2.9 3.5 5 7 4.8 8.1a5 5 0 0 1-2.1 3c-1.6 1-2.6.2-7.3-4.9a109.4 109.4 0 0 1-16.2-23.8c-1.9-3.5-2.3-5.8-2.4-14.7 0-7.8.3-11.5 1.6-14.5.9-2.2 1.6-5.4 1.6-7a32 32 0 0 1 5.3-16c1.5-2.2 2.7-4.8 2.7-5.8s.9-2.2 2-2.7 2.4-.8 3-.5c.6.3 1.4.3 2 0 .6-.3-.2-2.7-1.9-5.8A51 51 0 0 1 156 629c-1.3-6.2-1.7-6.9-8.9-13.7-4.1-4-9.4-8.3-11.7-9.5a14 14 0 0 1-5.3-4.5c-1-2.1-1.7-2.3-9.5-2.3-6 0-10.9.7-16.8 2.4-4.5 1.3-11.1 2.7-14.7 3l-7.8 1.2c-.9.3-.5 2 1.4 6.6a806 806 0 0 0 4.9 11.3c1.3 3 5.7 8.7 10.8 14.3a67.2 67.2 0 0 1 11 14.5c1.3 2.8 2.7 6.3 3 7.7.4 1.4 1 5.8 1.7 9.8.5 4 1.7 9.3 2.6 12 .8 2.6 2.5 6.7 3.7 9.2 1.8 3.7 2.2 6.3 2.2 15 0 6-.6 12.4-1.4 15l-2.4 7.5c-.7 1.6-1.2 5.5-1.2 8.5 0 3.2.7 7 1.8 9.3 1 2.1 3.5 4.9 6 6.5a108 108 0 0 0 13.2 6.6 119.5 119.5 0 0 1 17.5 8.8c3.6 2 9.2 4.4 12.5 5.5 3.3 1.2 8.4 2.6 11.3 3.2 2.8.6 11 1.1 18 1.1 7.2 0 15.3.7 18.7 1.5l14 3.3c4.4 1.1 11.4 2.3 15.5 2.6 4.1.3 21.9.2 39.5-.2 28.1-.7 32.4-1 35.5-2.7 3.2-1.6 3.4-1.9 1.6-2.9a278.7 278.7 0 0 1-18.8-13l-12-9.6c-4.4-3.6-11.3-9.4-15.2-13a91 91 0 0 1-9.7-10c-1.4-1.9-3.3-4.2-4.3-5-1-.8-1.7-2-1.6-2.5 0-.5-.9-1.9-2-3s-2-2.3-2-2.8a109.5 109.5 0 0 1-14.8-35.3 318.7 318.7 0 0 1-5.3-28.9l-2-10.5c-.7-2.5-2.8-9-5-14.5-2-5.5-4.6-13.1-5.6-17-1.7-6.5-1.8-12.3-1.6-76.3l.3-69.2c-7.6-9-11-12.2-12.6-13-1.6-.8-5-2.8-7.4-4.4-2.5-1.7-9.3-7.6-15.3-13.3a152 152 0 0 0-14.4-12.7c-2.1-1.2-8-6.8-13.3-12.3-8-8.4-9.8-10.8-11.4-15.9-1.4-4.3-2-9.2-2-18.4a60 60 0 0 0-1.5-15.5 168.3 168.3 0 0 1-4-10c-.6-1.6-1.5-5.7-1.9-9a89 89 0 0 1 0-15c.5-5 1.2-11.3 1.8-14a217.5 217.5 0 0 0 3-35c0-5 .6-11.3 1.3-14 .8-2.8 2-6.6 3-8.5.8-2 2-4.8 2.5-6.5.6-1.7 2-6.4 3-10.5 1.2-4.1 1.9-7.8 1.6-8.3-.2-.4-2-.6-4.2-.5-2 0-8.3.4-13.8.7Z"
       class="shp1" />
    <path
       id="Path 10"
       d="M633.5 249.6c-1.6 1.2-1.8 1.8-.9 3.2.8 1.1 2.4 1.7 5.1 1.7 2.2 0 4.8.7 5.8 1.5s5 5.3 8.9 10c3.9 4.7 7.7 8.8 8.4 9.3.6.4 1.2 1.1 1.2 1.7 0 .6 1 2.5 2.2 4.3l3.8 5c.8 1.1 1.6 2.7 1.8 3.6 0 .9 1.4 3.2 2.9 5.1 1.5 2 3.3 5 4 6.8a19 19 0 0 1 1.3 6c0 1.5-1.3 4.9-2.8 7.6-1.5 2.7-3.2 5-3.7 5s-1.1-1-1.3-2.1c0-1.3-1-2.7-2-3.2s-3.7-1.2-6.2-1.6c-2.5-.4-6.3-1.2-8.5-1.8-2.2-.6-6.5-2.7-9.5-4.6l-12.5-8c-3.9-2.5-8.4-5.3-10.2-6.1-1.7-.8-7.7-5.8-13.3-11a56.7 56.7 0 0 1-12.1-13.8c-1.5-3.3-2.4-4.2-4.4-4.2-1.4 0-2.5.3-2.5.8 0 .4.6 2 1.4 3.7.8 1.6 2.2 3.7 3 4.5 1 .8 1.7 2 1.6 2.5a107.5 107.5 0 0 0 16 16c2 1.3 4.4 2.9 5.5 3.4a27 27 0 0 1 5.5 4.5c2 2 4 3.6 4.8 3.6.6 0 1.6.8 2.2 1.8.5 1 1 1.3 1 .7 0-.6 1 0 2.2 1.3a10 10 0 0 0 3.8 2.5c.8.1 3 1.5 5 3s4.2 2.8 5 3c.8.2 2.5.8 3.8 1.5 1.2.7 2.7 1 3.2.7.5-.3 1.2 0 1.5.5.3.6 1.5 1 2.8 1 1.2 0 3.5.8 5 1.8 1.6 1 2.8 2 2.8 2.4 0 .5.4 2.3 1 4A168.8 168.8 0 0 1 670 341l2 7.3 2 7a439.5 439.5 0 0 1 5.2 20.7c.6 2.5 1.8 5.3 2.7 6.3.9 1 1.3 2 .8 2.5-.4.4-.1 1.6.6 2.7s1.4 4.7 1.6 8c.1 3.3.6 6.4 1 7 .5.6 1 11.4 1 24 .2 22 .2 23-1.8 25l-2 2c-1-3.1-1-4.6-.7-5.3.3-.6-.2-1.9-1.1-2.7-1-.8-2.4-1.5-3-1.5-.7 0-2-1-2.8-2.3-1-1.6-1.4-4.8-1.2-12.2a55 55 0 0 1 1-11.3c.4-.6.3-1.4-.3-1.7-.5-.3-.8-1.6-.5-3 .3-1.6-.7-5-2.7-9.3a57.7 57.7 0 0 1-3.5-8.7 77 77 0 0 0-4.6-10.5c-3.4-7-6-10.3-14-18.3a60.5 60.5 0 0 0-11.2-9.7c-.8 0-2.2-1.1-3-2.5-.8-1.4-1.8-2.3-2.3-2a88 88 0 0 1-13-11.5c-6.7-6.6-12.8-12-13.5-12-.6 0-2.6-1.3-4.2-3s-3.5-3-4-3-1.7-.6-2.5-1.6c-.8-.9-3-2.3-5-3l-5.3-2.5c-1-.5-2.6-.9-3.7-.9s-2.2-.4-2.5-1c-.3-.6-2.6-1-5.3-1-2.6 0-5.6.7-6.7 1.5-1.3 1-1.7 2-1.3 3 .5.8 1.3 1.5 1.8 1.5s1.2-.4 1.5-1c.3-.6 1.9-1 3.5-1s3.2.4 3.5 1c.3.6 1.6 1 3 1s2.7.4 3 1c.3.6 1.3 1 2.3 1 1 0 2.6.9 3.7 2s2.5 2 3 2 2.4 1.3 4 3 3.5 3 4 3 7 5.7 14.5 12.6c7.4 6.8 14 12.4 14.5 12.4s3 1.9 5.5 4.2c2.4 2.4 4.7 4.3 5 4.3a113.7 113.7 0 0 1 16.5 19c2.1 3.3 3.8 6.4 3.7 7-.2.6.4 1.7 1.3 2.5.8.8 1.2 1.8.8 2.2-.5.4.1 1.7 1.2 2.8 1.1 1.1 1.5 2 1 2s-.3.7.5 1.6c.8 1 1.6 2.7 1.8 3.8.2 1.2.7 2.6 1.3 3.1.5.6 1 2.4.9 4 0 1.6.5 3.6 1.2 4.3 1 1 1 1.4 0 2.4-.8.9-1.3 4.4-1.3 10.3 0 5-.4 9.8-.7 10.7-.6 1.6-1.1 1.6-5.7-.8-2.8-1.4-6.6-4-8.5-5.7-2-1.7-4.5-5.1-5.8-7.6a21.6 21.6 0 0 1-2.2-6.1 56.8 56.8 0 0 0-8-20c-2.1-3-7.4-9.1-11.7-13.5-6.5-6.5-9-8.4-13.9-10.1A185.7 185.7 0 0 0 584 369l-14.5-1.8c-6-.7-7.1-1.1-8.2-3.3a1427 1427 0 0 1-10.4-22.5l-2.4-7.5c-1-3-2.5-7.2-3.4-9.2-1-2.3-2.3-3.8-3.4-3.8-1 0-2 .8-2.3 1.8-.4 1 .5 4.1 2 7.2 1.3 3 2.7 6.6 3 8a61.6 61.6 0 0 0 6.3 16.5c1.9 3.9 3.3 7.7 3 8.5-.3 1.3-4 1.4-26.8 1.1-23.3-.3-26.5-.1-27.6 1.3-.7.9-1 2.3-.8 3.1.4 1.3 4 1.5 24.5 1.5 15 0 24.2.4 24.5 1 .3.6 4.1 1 8.5 1s8.2.4 8.5 1c.3.6 4.7 1 10 1s9.7.4 10 1c.3.6 2.3 1 4.5 1s4.2.4 4.5 1c.3.6 2 1 4 1s3.7.4 4 1c.3.6 1.4 1 2.5 1s2.8.4 3.8.9l4.7 2.2c1.6.7 5.4 3.6 8.3 6.3 2.9 2.8 5.2 5.6 5.2 6.1 0 .6.6 1.7 1.5 2.5 1 .8 3.3 4.4 5.3 8 2 3.6 3.7 7.6 3.9 9a9 9 0 0 0 1.3 3.8c.5.6.8 1.6.5 2.2-.3.6.2 2.1 1 3.5s1.3 2.5 1 2.5c-.3 0 .3 1.4 1.3 3 1.5 2.7 1.5 3.2.2 4-.9.6-3.4.7-6 .3-2.5-.5-22.5-.8-44.5-.8-37.3 0-40.4.1-46 2-4 1.3-8.6 2-13.5 2-7.2 0-7.8-.2-14.5-4.7a72.1 72.1 0 0 1-9-6.7c-1.1-1.2-1.7-2.2-1.3-2.1.5 0-.4-1.7-2-3.7l-4.4-5.5c-1-1-1.8-1.5-1.8-1 0 .4-.6.1-1.5-.6-1.2-1-1.6-1-2.2 0-.4.7-.9 1.9-1 2.6-.2.6.4 1.4 1.2 1.7.8.3 1.5 1.2 1.5 2s.9 2 2 2.5c1.1.6 1.8 1.3 1.5 1.8-.3.4 2.2 3.5 5.5 7a27 27 0 0 0 7.5 6.2c.8 0 2 .8 2.5 1.8s1 1.3 1 .7c0-.6 1 0 2.2 1.3a9.9 9.9 0 0 0 6 2.5c2 0 4 .6 4.5 1 .4.4 1.8.7 3 .7 1.3 0 2.5-.4 2.8-1 .3-.6 1.3-.8 2.3-.5 1 .3 3 0 4.7-.6a37 37 0 0 1 4.5-1.5c.8-.2 2 0 2.6.4.7.4 2.1 2.5 3.3 4.7 1.6 2.8 1.9 4.3 1.1 5-.5.6-1 1.8-1 2.8 0 1-.9 3.3-2 5.2-1.5 2.6-2 5.3-2 10.5 0 3.9-.5 7.2-1 7.5-.5.3-1 2.8-1 5.5 0 4-.4 5.2-2 6-1.1.6-3.6 1-5.5 1-2.8 0-3.5.4-3.2 1.8.2 1.3 1.4 1.8 5.2 2 2.8.2 6-.3 7.3-1 1.3-.8 2.2-2.2 2.2-3.6 0-1.2.5-2.4 1-2.7.6-.3 1-5 1-11s.4-10.7 1-11c.5-.3 1-1.4 1-2.5s.5-3 1.2-4.3l2-4c.4-1 .8-2.4.8-3.2 0-.8-.5-2.4-1-3.5a208 208 0 0 0-2-3.8c-.5-1.1-.5-2.1.3-3 .8-.9 6-1.2 19.4-1.2 11.2 0 18.5.4 18.8 1 .3.6 4.3 1 9 1s8.7-.4 9-1c.3-.6 3.3-1 6.8-1 3.4 0 6.7.4 7.2.9s4.1 1.1 8 1.4c3.9.2 7.7.7 8.5 1 .8.3 3.8.8 6.5 1 3.5.1 6 1 8.5 3 2 1.4 5.2 3.3 7.3 4.1 2 .9 4 2 4.2 2.6.3.6-.3 1.6-1.2 2.3-.9.6-3 1.3-4.5 1.4-1.5.2-4.1 1-5.8 1.8-1.6.8-3.2 1.5-3.5 1.5-.3 0-1.6.7-3 1.5s-2.5 1.3-2.5 1c0-.3-1 0-2.3.7-1.2.7-3.1 1.4-4.2 1.6a9.3 9.3 0 0 0-3.9 2c-1 1-2.6 1.8-3.5 2-.9 0-3 1.5-4.6 3.2-1.6 1.6-3.6 3-4.3 3-.6 0-4.2 3.4-8 7.5a29.6 29.6 0 0 1-8.5 7.5c-1 0-2 .4-2.2 1-.3.6-3.2 1-6.5 1-5.1 0-6 .3-5.7 1.8.2 1.4 1.5 1.8 7.2 2 4.3.2 8-.2 9.5-1 1.4-.7 6.3-4.9 11-9.3a71 71 0 0 1 21-14.3 92.4 92.4 0 0 1 14.3-6.2c1 0 3.3-.9 5.2-2 2-1.1 4.9-2 6.5-2 1.6 0 3.7.2 4.5.5.9.3 1.5 1.7 1.5 3.5 0 1.6.5 3.2 1 3.5.5.3 1 1.7 1 3.3 0 1.5.6 3.3 1.5 4 1.2 1 1.8 1 3 0s1.4-2.4 1-5.8c-.6-3.5-.3-5 1.1-7l1.9-2.3a233 233 0 0 1 13.2 7.4c1.9 1.2 2.3 1.2 3.8-.1.9-.8 1.6-2 1.6-2.5 0-.6-1.4-2-3-3.3-1.7-1.2-3.2-3.2-3.4-4.4-.1-1.6-1-2.4-2.7-2.6-1.4-.2-3-.5-3.8-.8-1-.3-1-.7 0-2 1-1.2 1.3-6.2 1.3-16.5 0-8 .4-15.1.8-15.6.4-.4.8-2.2.8-3.8 0-1.6-.4-3.4-.8-3.8-.4-.5-.9-3-1-5.5-.1-2.6-.5-5.4-.9-6.2-.3-.8-.8-4-1-7-.1-3-1.1-7.5-2.2-10-1-2.5-2.4-6.5-3-9l-2.3-9.5c-.6-2.8-1.8-7-2.6-9.5s-1.9-5-2.4-5.8c-.5-.6-.7-1.6-.4-2.2.3-.6 0-2.2-.6-3.8-.7-1.5-1.3-3.8-1.5-5.2-.2-1.4-.6-3.2-1-4-.4-.8-.9-2.3-1-3.3-.2-1 .7-2.8 2.1-4.2 1.4-1.4 2.3-3 2-3.5-.3-.6.5-2.7 1.8-4.8 1.3-2 2.9-5 3.6-6.7.8-1.9 1-4.5.6-7-.4-2.2-1.6-6-2.8-8.4-1.2-2.4-3-4.7-4-5.2s-1.5-1.3-1.2-1.9c.3-.6-.2-1.6-1-2.3-.9-.6-1.6-2-1.6-2.8 0-.9-.8-2.4-2-3.4-1-1-2-2.3-1.9-3 0-.5-3.1-4.8-7-9.5a73.5 73.5 0 0 0-8.5-9.3c-.8-.4-1.5-1.1-1.5-1.7a35.6 35.6 0 0 0-9.3-9.1 13 13 0 0 0-5-.9c-1.7 0-4.1.7-5.2 1.6Zm-518.8 79.7c-.8.6-1.7 2.6-2 4.2l-2.2 9.5c-1 3.6-2.7 8.3-4 10.5-1.3 2.2-3 5.8-3.8 8-.8 2.2-3.3 7.8-5.5 12.5a64.1 64.1 0 0 0-4.4 11c-.1 1.4-.7 2.5-1.3 2.5-.5 0-1.6-1.4-2.5-3-.8-1.6-3.6-6.6-6.2-11-2.5-4.4-5.1-10-5.8-12.5-.7-2.5-2.2-6.8-3.5-9.5a47 47 0 0 1-2.8-8.8c-.4-2.2-1.6-4.3-3-5.2-1.2-.8-3.7-1.5-5.5-1.5-2 0-3.4.6-3.7 1.5a5 5 0 0 0 .3 3.2c.4.9 1.5 1.9 2.6 2.2 1.1.4 2.3 2.3 3.1 5.1.7 2.5 2.7 8.3 4.3 13 1.6 4.7 4.4 11 6.2 14 1.8 3 4.8 8.6 6.8 12.5 3.5 6.7 3.6 7.5 4.1 20 .3 7.1.5 19 .5 26.5 0 13.2 0 13.6-3 19.5-1.7 3.3-4.8 11.2-7 17.5-2 6.3-4.8 13-6 15-1.3 2-2.9 6-3.5 9l-3 14c-1.2 4.7-3.1 11.9-4.4 16a164.9 164.9 0 0 0-4.8 35.5c.1 2.2 1 4.7 1.8 5.5 1.2 1.1 2 1.2 3.3.4 1.1-.7 1.8-2.6 1.9-5.5.1-2.4.8-9.4 1.6-15.4.9-6 2.6-14.4 4-18.5s3.3-10.4 4.2-14c.9-3.6 2-9 2.6-12 .5-3 2.2-8 3.8-11 1.6-3 5-11.4 7.6-18.5 2.6-7.1 5-13.4 5.5-14a32 32 0 0 0 2.5-7 67 67 0 0 0 .9-21.5c-.6-14-.5-16.2 1.4-22a175 175 0 0 0 3.7-15 65 65 0 0 1 6-17.3c2.5-4.8 4.5-9.4 4.5-10.2 0-.8 1.3-4 2.9-7.3a85.5 85.5 0 0 0 7.2-25c0-1.1-.9-2.6-2-3.1-1.3-.7-2.3-.7-3.4.2Zm736.6 39c-.4.6-.8 17-.9 36.2 0 22.3-.5 37-1.3 40.5-.6 3-1 11.6-1 19 .2 12 0 14-1.9 18a22.8 22.8 0 0 0-2.2 7 6 6 0 0 0 1.5 4c.9.8 1.6 2.6 1.5 4 0 1.4.8 3.6 1.8 5s3.3 4.1 5.2 6.1c2.3 2.4 4.4 6.3 6.3 11.5 2.5 7.2 2.8 9.2 2.9 23.4 0 8.5-.2 16-.5 16.8-.4.6-1.3 6.3-2 12.5-.6 6.1-1.1 21.1-1.2 33.2 0 21.5 0 22.2 2.6 28.5 1.5 3.6 3.3 8.3 4 10.5 1 2.6 2.2 4.1 3.4 4.3 1.1.2 2.7-.4 3.5-1.3 1.3-1.4 1.3-2.2.2-5.8l-3.9-10.7c-2.4-6.4-2.5-6.9-2-28.5.2-12.1 1-27.6 1.8-34.5.8-6.9 1.4-19.7 1.4-28.5-.1-14.2-.3-16.5-2.2-20-1.1-2.2-2.7-6-3.4-8.5-.9-2.8-3-6-5.6-8.5-2.3-2.2-4-4.3-3.8-4.8.3-.4 5.9-.7 12.5-.7 11.7 0 12 0 15.1 2.8 1.8 1.5 4.5 5.3 6 8.4 1.6 3.2 4.6 7.7 6.8 10 2.1 2.4 5.3 7.4 7 11.3 2 4.2 5.4 9.2 8.5 12.5 2.9 3 6.4 8 7.8 11 2 4.4 4.4 7 11.5 12.8A49 49 0 0 0 941 573c.9 0 2.1-.6 2.8-1.3.7-.6 1.2-1.8 1.2-2.5 0-.6-1.7-2.7-3.7-4.5l-9.1-8.2c-3-2.8-6.5-7.3-8-10a49.3 49.3 0 0 0-7.2-10c-3-3-6.2-8-8.4-12.8-2-4.2-4.5-8.3-5.7-9-1.1-.6-3.9-4.4-6-8.2-2.3-3.9-3.7-7.3-3.2-7.6.4-.3 4-1.1 7.8-1.8 3.9-.6 9.7-2.4 13-4 3.3-1.7 9.1-3.8 13-4.7 6-1.5 7.6-1.6 11.5-.4 2.5.7 6 1.4 8 1.4 3.1 0 3.5-.2 3.8-2.6.2-2.7-.2-3-7-5a30 30 0 0 0-12.3-1.4c-2.8.3-7.7 1.4-11 2.5-3.3 1-8.7 3.2-12 4.8l-6 2.8c-38.8-.5-50.4-1-50.8-1.3-.5-.4.1-2.7 1.3-5.2 1.7-3.4 2.4-7.2 2.9-15l.6-10.5c8 .5 8.6.2 9.5-2 .5-1.4 2.3-4 3.8-5.8a157 157 0 0 0 15.7-23.2c2.1-3.9 4.7-8.2 5.7-9.8 1-1.5 1.8-3.6 1.8-4.7s-.7-2.2-1.5-2.5c-.8-.3-2-.5-2.5-.5s-2 1-3 2.3c-1.2 1.2-3.5 4.9-5.2 8.2a142 142 0 0 1-8.6 14l-9 12.5c-2 2.5-4.2 4.5-5 4.5-1.3 0-1.6-.8-1.4-3.5a1612 1612 0 0 0 .8-78.8c-.4-1.5-1.3-2.2-3-2.2-1.4 0-2.9.6-3.3 1.3Z"
       class="shp2" />
    <path
       id="Path 11"
       d="M783.7 404c-3.1 3.3-6.5 6-7.5 6s-3.6 1-6 2.3a57 57 0 0 0-7.3 4.7 56.1 56.1 0 0 0-12 15.8c0 .6-1.5 4.5-3.4 8.4a30.3 30.3 0 0 0-3.5 11.3c0 2.2-1 7.6-2 12l-3.6 13.5c-.9 3-3.8 9.8-6.6 15a170.5 170.5 0 0 1-24.5 36c-3.8 4.1-9 10.5-11.6 14.3a50.5 50.5 0 0 1-8 9.1 58.4 58.4 0 0 1-11.2 5.4c-7.4 2.7-9.1 3-21.5 3-7.4 0-16.6.6-20.5 1.3-4.8.8-19 1.3-45 1.3-34.2.1-38.5.3-43 2-2.8 1-6.3 3-7.9 4.5a49.7 49.7 0 0 0-5.6 6.6c-1.5 2.2-4 6.3-5.5 9a57.9 57.9 0 0 1-6.1 8.8c-1.9 2-3.4 4.4-3.4 5.2 0 .8-1.5 2.2-3.3 3-2.5 1.3-5.6 1.5-14.2 1.2a83 83 0 0 1-16-2c-4.3-1.4-5.2-2.1-6.6-5.4-1-2.7-2.7-4.4-5.4-5.8-3.6-1.8-6-2-25-2-20 0-21.3-.2-26.5-2.5a70.4 70.4 0 0 1-16.5-10.5c-2.8-2.2-6-4.6-7.3-5.3a26 26 0 0 0-7.4-1.8c-3-.3-10.5-.1-16.8.5a51.6 51.6 0 0 1-23.5-2 25.8 25.8 0 0 1-12.6-7.9l-4.9-8.3c-2.2-3.7-4-7.2-4-7.7s-2.9-3.6-6.4-6.8c-5-4.4-8.4-6.5-15.2-9.1a87.3 87.3 0 0 1-12.9-6l-7.3-5.1c-3.1-2.3-4-2.5-12.5-2.2-8.7.3-9.3.2-10.8-2-1-1.3-2.5-3.9-3.6-5.8-1-2-3.9-8.4-6.3-14.5-2.3-6-6.2-15-8.6-19.8-2.4-4.8-4.7-8.4-5.2-8.1-.4.3-.6 32.6-.4 71.7.3 57.8.6 72.4 1.8 77.7.8 3.6 3.2 11 5.3 16.5 2.2 5.5 4.4 12.3 5 15a314.2 314.2 0 0 1 3.6 22 162 162 0 0 0 5.1 21.3 155.3 155.3 0 0 0 21.2 38.4c2 2.4 7.3 7.8 11.8 12a242.9 242.9 0 0 0 33.9 25.6 38 38 0 0 0 9 4.4c2.4.6 22 1.2 49 1.4 36.5.3 47 .1 55.5-1.1l15-2.5a223 223 0 0 1 32-4.4l28-2c9.6-.9 24.3-2 32.5-2.5 8.3-.5 20.9-2.1 28-3.5a416 416 0 0 1 26.5-4 173.3 173.3 0 0 0 32-6.7 156.3 156.3 0 0 1 22.5-4.8c6-1 19.1-4 29-6.5l22-5.7a81.7 81.7 0 0 0 13.5-5.2c3-1.4 8.4-5.2 12-8.5a126.8 126.8 0 0 0 19-24.7c0-.3 2.9-4.9 6.4-10.3a512.6 512.6 0 0 0 16.3-26.5c1.3-2 4.4-5 7-6.5 2.5-1.5 6.6-4.4 9.2-6.4 2.5-2 4.8-3.5 5.1-3.3.3.3 4.8-7.8 10-17.8l9.5-18.2c.9-59.2 1.3-67.6 2.4-69.5.7-1.4 3.3-5 5.7-8.3 3.9-5 4.4-6.3 4.4-11a411.6 411.6 0 0 0-5.5-42.3 312 312 0 0 0-4.5-17.4 571 571 0 0 1-5-19c-1.2-4.7-3.4-12-4.8-16.4a23.7 23.7 0 0 0-7.5-12.2c-3.6-3.3-5.5-4.4-8-4.4-2.7 0-4.3 1-9 6Z"
       class="shp1" />
    <path
       id="Path 12"
       d="M137.2 459.3c-.5.6-1.5 3-2.2 5.2a29 29 0 0 1-8.3 10.5c-4.2 4-8 8.8-10 12.5-3.1 5.8-3.2 6.5-3.7 21.5l-.5 15.5c-8.5 5-13.2 7.8-15.8 9.7-2.7 1.8-8.5 7.3-13 12.3a180 180 0 0 0-13.3 17c-2.9 4.4-6 9.8-6.8 12-1.4 4-1.4 4 1.2 6.7 1.5 1.5 3 2.8 3.2 2.8.3 0 .8-1.4 1.3-3.2.4-1.8 2.5-6.2 4.6-9.8a144.7 144.7 0 0 1 31.1-33.1 336.1 336.1 0 0 0 21.7-15c2-1.2 2.4-1.2 4.4.6 2 1.9 3.5 2 27.3 2 23.5 0 25.5-.1 31.3-2.3 3.5-1.2 7.5-2.2 9-2.2a21 21 0 0 0 6.8-1.9c2.2-1 4.6-2.4 5.3-3.2.7-.8 1.1-2.5 1-3.9-.2-1.8-1-2.6-2.6-2.8-1.2 0-3.4.7-5 1.8a24 24 0 0 1-8.7 2.9c-3.3.5-7.5 1.6-9.3 2.5-2.5 1.3-7.6 1.7-24.4 2.1-18.5.5-21.5.4-22.6-1-1-1.3.4-2.6 10.5-9.3a76.9 76.9 0 0 0 17.1-14.2c3-3.6 6.3-6.8 7.3-7.3 1.2-.4 1.9-1.7 1.9-3.2 0-1.5-.7-2.7-1.8-3-1-.3-3 0-4.4.5-1.6.5-5.2 3.7-8 7a77.4 77.4 0 0 1-12.1 10.8c-3.7 2.6-11.6 7.7-17.5 11.4a46 46 0 0 1-11.5 6 39 39 0 0 1-.5-10.7c.3-7.4.8-11 2.3-14 1-2.2 5-7 8.7-10.8 3.7-3.7 7.9-8.8 9.2-11.4 1.3-2.7 2.6-5.8 3-7 .4-1.4 0-2.9-.9-3.8-.8-.8-2.1-1.5-2.9-1.5-.8 0-1.8.6-2.4 1.3Zm621.3 31.4c-.5.3-.8 9.1-.7 19.5l.2 18.8a74.8 74.8 0 0 0 8.9 15.3c1.5 1.6 3.6 2.7 5.1 2.7 1.4 0 2.8.3 3.2.7A39.5 39.5 0 0 1 763 567c-3 2.6-8 6.5-11 8.8-4.3 3.2-6.5 4.1-10.5 4.4-4.8.4-5 .3-5.6-2.6-.4-1.6-.7-7-.8-12 0-5-.5-9.6-.9-10.3-.4-.7-1.8-1.2-3.2-1-2.3.3-2.5.8-3.1 7.3-.4 4.8.1 12 1.7 23 1.3 8.8 2.7 17.8 3.2 20 .6 2.6.5 7-.3 13-.8 5.5-2.2 11-3.7 14-1.5 2.9-4.8 7-8 9.6-2.9 2.5-9.3 7.3-14.3 10.6A121 121 0 0 1 690 661c-4.1 1.7-8.9 3.8-10.5 4.7-1.6.8-3.4 1.1-3.8.7-.5-.4-.1-4.4.7-8.8 1.2-6 2.7-9.8 6-15 2.4-3.9 5.3-9 6.5-11.3a21 21 0 0 0 2.1-5.7c0-.8-.8-2-1.8-2.5a2.8 2.8 0 0 0-3.3.3c-.9.7-3.6 4.6-6.2 8.7a153 153 0 0 0-7 13 56 56 0 0 0-3.6 12c-1 6.4-1.2 6.6-10.4 15.8a96.7 96.7 0 0 1-19.7 15.7 49.2 49.2 0 0 1-16.5 7.5 127.7 127.7 0 0 1-31.8 4.6 53 53 0 0 0-33.3 9.4l-6.6 5c-1.8 1.4-1.8 1.3-1.3-1.5.4-1.6 1.5-4.5 2.6-6.3 1-1.7 6.1-8 11.4-14 8-9.2 10.7-11.4 18.2-15.7 4.8-2.7 11.8-6.3 15.4-8 3.6-1.6 9-4.5 12-6.2 3-1.8 8.5-5.6 12.4-8.5a54 54 0 0 0 11.8-12.3A168 168 0 0 0 642 628a59 59 0 0 0 6.4-23c0-2-.4-2.5-2.6-2.8-2.2-.1-3.1.4-4.2 2.5-.7 1.6-1.6 4.7-2 7-.3 2.4-2 7.1-3.8 10.5a189 189 0 0 1-8.4 14.5 38.1 38.1 0 0 1-15.1 14.7 183 183 0 0 1-19.3 10.9c-5.2 2.4-12.6 6.3-16.5 8.6a87.7 87.7 0 0 0-12.8 10 51 51 0 0 0-7.3 8.4c-.8 1.5-2.8 3.6-4.4 4.7l-3 2a41 41 0 0 1 4-9c1.5-2.5 3.2-6 3.8-8 .7-2 1.7-6 2.2-9 .6-3 1.6-11.1 2.1-18l1.5-16.5c.3-3.4 1.4-5 7.2-11 3.8-3.9 7.9-9 9-11.3 1.2-2.3 2.2-5.3 2.2-6.7 0-1.4-.7-2.7-1.5-3-.8-.3-2.4 0-3.5.5s-2.5 2.7-3.2 4.8c-.8 2.3-3.8 6.3-8.2 10.7a67.5 67.5 0 0 0-8.9 10.3c-1 1.7-2.2 3-2.7 2.7-.5-.3-1-2.2-1-4.3 0-2-1.2-7.8-2.6-12.7-1.4-5-2.8-10.8-3.1-13-.3-2.2-1-4.3-1.7-4.7-.6-.4-1.7-.8-2.4-.8-.6 0-2 1.5-2.8 3.3-1.5 3-1.5 3.5.4 8.2 1.1 2.8 2.8 7.8 3.6 11.3.9 3.4 1.6 7.7 1.6 9.5 0 1.7 1 5.7 2 8.7 1 3 2 6.4 2 7.5 0 1.1.9 2.9 2 4 1.6 1.5 2 3.2 2 7.3 0 2.8-.7 8.7-1.5 13a38.6 38.6 0 0 1-6 14.7c-2.4 3.9-4.9 8.4-5.5 10a86 86 0 0 0-2.6 11 37 37 0 0 1-2.3 9c-.6.6-1.4.1-2.2-1.5l-3.1-8a91 91 0 0 0-7.2-14 387 387 0 0 1-10-17.5c-2.7-5-6-10.3-7.5-11.8a90 90 0 0 0-13.1-9.2 51.4 51.4 0 0 1-12-9c-.8-1.4-2-2.8-2.8-3a4.1 4.1 0 0 0-4.7 2.3c-.3.6.2 2.6 1 4.2a19 19 0 0 0 4.8 5.5c1.7 1.3 7.5 5.3 12.7 8.7l9.5 6.3a417.5 417.5 0 0 0 17.3 31c2.9 4.4 5.2 8.7 5.2 9.5 0 .8 1.3 4 2.8 7.3 1.5 3.1 2.4 6 2 6.5-.5.4-3.8-.8-7.3-2.5a73.8 73.8 0 0 0-7-3.3 96 96 0 0 1-7.8-3.1c-4-1.8-11-4.2-15.7-5.5-4.7-1.2-13.4-4-19.5-6-6-2-13.5-5-16.5-6.7-3-1.7-7.5-4.7-10-6.6-2.4-2-9.9-7.2-16.5-11.7l-12-8a86 86 0 0 0-8.4-20 89.3 89.3 0 0 0-6.5-8.2c-1.7-1.9-5.8-5-9.1-7a384 384 0 0 1-11.8-7.4 24.8 24.8 0 0 0-7.6-3.8c-1 0-2.4.9-3 2-.6 1.1-1.6 2-2.1 2a15 15 0 0 1-4.5-3.3c-2-1.8-3.8-4.5-4.1-6.2a106.4 106.4 0 0 0-8.5-22c-1.5-2.8-5.7-8.4-9.2-12.5a41 41 0 0 0-16.5-12.8 40.4 40.4 0 0 0-14-5.2c-2.2 0-4.3.6-5.2 1.5-1.1 1.3-1.2 2-.4 3.3.6 1 2.6 1.9 4.5 2 1.9.3 5.4 1.7 7.9 3.3 2.5 1.6 5 2.9 5.8 2.9.6 0 4.4 3 8.3 6.8 3.9 3.7 9 9.9 11.4 13.7A94.2 94.2 0 0 1 350 614a82.9 82.9 0 0 0 6.2 15c-.1.3-4.8.5-10.5.5-10 0-10.4 0-23.2 5.3-7.1 3-18.9 8.2-26 11.7-7.1 3.4-14.2 6.5-15.8 6.9-1.5.3-3 1.3-3.2 2.1-.3.8-.3 2.2 0 3 .3 1 1.8 1.5 4.5 1.5 2.4 0 6.3-1.1 9.8-2.9a825 825 0 0 1 44.2-19.6c2.2-.8 8-1.2 15.1-1.1 7.6 0 12-.3 13-1 .8-.7 4.1-1.4 7.4-1.5 5.2-.1 6.7.3 11.5 3.1 3 1.8 6.8 4.2 8.4 5.4 1.5 1.1 5.1 5.3 8 9.1 4 5.3 5.6 8.7 6.9 14 1 4.3 2.6 7.8 4 9.1 1.2 1.1 6.5 5 11.7 8.4 5.2 3.5 12.2 8.4 15.5 11 3.3 2.5 8.3 5.8 11 7.4a143 143 0 0 0 17.5 7.3c6.9 2.5 16.3 5.4 21 6.5 4.7 1 9.3 2.4 10.3 2.9s1.6 1.1 1.4 1.4c0 .3-14.1.7-31.2.9-27.4.3-32 .1-40-1.5-6.6-1.4-13.3-2-25.5-2h-16.5c-6.4-6.5-10.2-10-12.4-11.9-3.7-3-4.2-4-4.1-7.5 0-2.5-1-6-2.7-9.4-1.6-3-4.4-6.7-6.3-8.3-2-1.5-4-2.8-4.5-2.8-.6 0-1.7-.6-2.5-1.5s-4-2.4-7-3.4c-3.6-1.2-6.1-1.6-7.3-1-1 .5-1.7 1.8-1.7 2.9 0 1.5 2 3 8.3 6 4.5 2.3 9 4.9 10 5.8 1 1 2.9 3 4 4.7 1.3 1.8 2.4 5.5 2.9 9 .4 3.4 1.5 7.1 2.6 8.5 1 1.4 3.4 3.5 5.3 4.7a183 183 0 0 1 5.4 3.6c1.6 1.1 1.7 1.8.9 2.8-.6.8-2.6 1.7-4.3 2.1-1.7.5-5.2 2.2-7.9 4-2.6 1.7-6.6 5-9 7.2-4.1 4-4.5 4.1-12.4 4.6-6 .4-8.4 1-9.2 2.2-.8 1.2-.7 2 .4 3.3 1.2 1.2 3.4 1.6 9.8 1.5a37 37 0 0 0 10.4-1.1c1.3-.6 4.3-3 6.8-5.4 2.5-2.3 6.3-5.4 8.5-6.9 2.5-1.6 5.3-2.6 7.5-2.6 2 0 4.7-.8 6.3-2 2.4-1.8 4.2-2 17.2-2 11 0 16.8.5 23.8 2 8.1 1.9 12.7 2.1 39.2 2.1 18.4 0 35.5.6 44.3 1.5 7.8.8 14.7 1.2 15.2.9.5-.3 3.3 1 6.2 2.8 4.3 2.7 6 3.2 11.2 3.2 5.6 0 6.1-.2 6.4-2.3.1-1.3 1.2-2.6 2.7-3.2 1.6-.6 2.5-1.8 2.5-3.3 0-1.3 1.8-4 4.7-6.8 2.7-2.5 6.1-5.5 7.8-6.6a53.5 53.5 0 0 1 29.3-6.3c11 0 15-.5 25-2.8 6.4-1.6 12.8-3.5 14.2-4.2 1.4-.7 6.5-3.8 11.5-6.8 5.3-3.3 12.6-9 17.7-14.1 7-7 9-8.4 10-7.3.7.7 2.4 1.2 3.8 1.3 1.4 0 5.6-1.4 9.5-3.1 3.9-1.7 10.6-5 15-7.1a206 206 0 0 0 29.4-20.1c1.3-1.3 3.7-5.2 5.3-8.8a66.7 66.7 0 0 0 4-35 45.2 45.2 0 0 1-.8-11.3c.5-1.3 1.8-1.7 5.6-1.7 4.4 0 6-.6 12.7-5.3 4.2-2.8 10.1-7.5 13-10.2 4.1-3.8 6.9-7.7 11.1-16l5.7-11c-.5-24.4-1-29.2-1.8-29.7-.7-.4-1.5-.8-1.9-.8-.3 0-1.4.8-2.4 1.8-1.5 1.5-1.6 3-1 13.2.4 6.3.4 11.8.1 12.3-.3.4-1.5 0-2.8-.8-1.2-.9-2.9-1.4-3.7-1.3-.9.2-2.7-2-4.7-5.7l-3.2-6c0-26.7-.3-35.2-.6-36-.3-.8-1.5-1.5-2.8-1.5-1.3 0-2.7.3-3.2.7Zm-597 89-12 6.1a66.1 66.1 0 0 1-31.8 6.2c-7.1 0-11 .5-14.5 1.9-2.6 1-8.3 2.4-12.7 3a135 135 0 0 0-10.5 2c-1.4.3-2.6 1.5-2.8 2.6-.2 1.1.3 2.5 1 3.1 1 .8 3.5.9 8.8.3 4.1-.5 11.4-2 16.3-3.4a59 59 0 0 1 17.2-2.5c7.8 0 8.6.2 9.5 2.3a14 14 0 0 0 5.3 4.5c2.3 1.2 7.6 5.5 11.7 9.5 7.2 6.8 7.6 7.5 9 13.7a51 51 0 0 0 4.1 11.8c1.6 2.8 2.7 5.3 2.4 5.5-.3 0 .4 1.1 1.5 2.2 1.2 1.1 2 2.3 2 2.8 0 .4 1.7 4.6 3.8 9.3 2.7 6.3 4.5 9.1 6.7 10.5 1.7 1 4.2 1.9 5.8 1.9 2.3 0 2.7-.4 2.7-2.8 0-2-.8-3.2-3-4.5-2-1.2-4-3.8-6-8.5-1.7-3.7-3-7.2-3-7.7s-2-4.4-4.4-8.5c-2.5-4.4-5-10.6-6.1-15-1.8-7.2-2.2-7.8-9.4-15a151 151 0 0 0-11.1-10.2c-2.5-2-3-2.8-2-3.1l5.5-1.6c2.2-.6 8.4-3.5 13.8-6.6 6.6-3.8 10.8-5.5 13.2-5.5 2.7 0 3.6-.5 4-2 .3-1.1 0-2.7-.8-3.5-.7-1-2.8-1.6-5.3-1.5-2.4 0-6 1-9 2.7Zm653 59.3c-.4.5-1 11.2-1.3 23.7l-.5 22.8a93.3 93.3 0 0 1-20.2 27 281 281 0 0 1-15.9 15 23.5 23.5 0 0 0-5.6 6.5 217.6 217.6 0 0 1-28.8 28.6c-3.5 2.5-6.7 6-8.8 9.6-2.7 4.6-3.2 6.2-2.4 7.8a4 4 0 0 0 3.3 2c1.6 0 3-1.4 5.2-4.9 1.6-2.7 5.5-6.9 8.5-9.3 3.1-2.3 10-8.3 15.4-13.3 5.3-5 10.7-10.6 12-12.5 1.1-1.9 9.6-10.9 18.7-20a150 150 0 0 0 19.3-21.5l5-9c1.6-2.5 3.4-4.3 5.3-4.8s3.2-.4 4 .5c.7.9.8 3.6.2 8.8-.4 4.1-.8 12.7-.8 19-.1 10.9 0 12 3.4 20.5 2 5 4.2 10 5 11.3.8 1.2 2.3 2.2 3.3 2.2a5 5 0 0 0 3.2-1.5c1.3-1.4 1.3-2 .1-4.3-.7-1.5-2.9-6.5-4.7-11.2-3-7.5-3.4-9.6-3.4-17.8 0-5.1.4-9.4 1-9.7.5-.3 1.5.4 2 1.5s1.8 2 2.8 2a5 5 0 0 0 3.2-1.5c1.3-1.5 1.2-2.2-1.3-6.6a22.6 22.6 0 0 1-2.7-6.6c0-1-1-3.8-2.3-6.2a18 18 0 0 0-4.7-6 19 19 0 0 0-6.5-2.1l-4-.5c-.5-32-1-38.4-1.8-39.3-.7-.7-2-1.3-2.9-1.2-1 0-2 .4-2.4 1Zm-658 8c-1 .6-1.8 1.9-1.7 2.8.1 1-1 3.5-2.5 5.7a32 32 0 0 0-5.3 16c0 1.6-.7 4.8-1.6 7-1.3 3-1.7 6.7-1.6 14.5.1 8.9.5 11.2 2.4 14.7l6.5 11c2.4 3.8 6.7 9.5 9.7 12.8 4.7 5.1 5.7 5.8 7.3 4.9 1-.6 2-2 2-3 .2-1-1.8-4.6-4.7-8.1a24.4 24.4 0 0 1-4.6-7c.2-.5 8.7-.6 18.8-.4 11.8.2 19.2.8 20.8 1.6 1.4.7 3.8 2.8 5.3 4.6l5 6.3c1.7 2.1 2.7 2.7 4.4 2.2 1.6-.4 2.3-1.4 2.3-3.1 0-1.4-1-4-2.2-5.8a74.3 74.3 0 0 0-4.8-6 28.7 28.7 0 0 0-6.5-5c-3.7-2-5.4-2.2-24-2.2-11 0-20.9.3-22 .5-1.3.4-2.7-.7-5-3.8-2.6-3.9-3-5.3-3.4-12.5-.2-5.5.2-9.8 1.2-13.2a66 66 0 0 0 2-11c.4-3.5 1.4-7 2.5-8.5a31 31 0 0 0 5.3-10.8c.8-2.7.6-3.4-1.1-4.2l-2.3-1-2.1 1Z"
       class="shp2" />
  </g>
</svg>
