<?xml version="1.0" encoding="UTF-8" standalone="no"?>
<!-- Created with Inkscape (http://www.inkscape.org/) -->

<svg
   width="1193.05mm"
   height="1743.67mm"
   viewBox="0 0 1193.05 1743.67"
   version="1.1"
   id="svg5"
   inkscape:version="1.1 (c68e22c387, 2021-05-23)"
   sodipodi:docname="empty.svg"
   xmlns:inkscape="http://www.inkscape.org/namespaces/inkscape"
   xmlns:sodipodi="http://sodipodi.sourceforge.net/DTD/sodipodi-0.dtd"
   xmlns:xlink="http://www.w3.org/1999/xlink"
   xmlns="http://www.w3.org/2000/svg"
   xmlns:svg="http://www.w3.org/2000/svg">
  <sodipodi:namedview
     id="namedview7"
     pagecolor="#ffffff"
     bordercolor="#666666"
     borderopacity="1.0"
     inkscape:pageshadow="2"
     inkscape:pageopacity="0.0"
     inkscape:pagecheckerboard="0"
     inkscape:document-units="mm"
     showgrid="false"
     inkscape:zoom="0.103585"
     inkscape:cx="1327.41"
     inkscape:cy="4324.95"
     inkscape:window-width="1920"
     inkscape:window-height="1047"
     inkscape:window-x="-9"
     inkscape:window-y="-9"
     inkscape:window-maximized="1"
     inkscape:current-layer="layer1"
     fit-margin-top="0"
     lock-margins="true"
     fit-margin-left="0"
     fit-margin-right="0"
     fit-margin-bottom="0">
    <inkscape:grid
       type="axonomgrid"
       id="grid952"
       spacingy="50"
       originx="-576.292"
       originy="3310.76" />
  </sodipodi:namedview>
  <defs
     id="defs2">
    <linearGradient
       inkscape:collect="always"
       id="linearGradient7136">
      <stop
         style="stop-color:#552200;stop-opacity:1;"
         offset="0"
         id="stop7132" />
      <stop
         style="stop-color:#754a2e;stop-opacity:1"
         offset="0.291601"
         id="stop7238" />
      <stop
         style="stop-color:#552200;stop-opacity:1"
         offset="1"
         id="stop7134" />
    </linearGradient>
    <linearGradient
       inkscape:collect="always"
       id="linearGradient1107">
      <stop
         style="stop-color:#214c21;stop-opacity:1;"
         offset="0"
         id="stop1103" />
      <stop
         style="stop-color:#41a241;stop-opacity:1"
         offset="1"
         id="stop1105" />
    </linearGradient>
    <inkscape:path-effect
       effect="bspline"
       id="path-effect1871"
       is_visible="true"
       lpeversion="1"
       weight="33.3333"
       steps="2"
       helper_size="0"
       apply_no_weight="true"
       apply_with_weight="true"
       only_selected="false" />
    <inkscape:path-effect
       effect="bspline"
       id="path-effect1388"
       is_visible="true"
       lpeversion="1"
       weight="33.3333"
       steps="2"
       helper_size="0"
       apply_no_weight="true"
       apply_with_weight="true"
       only_selected="false" />
    <inkscape:path-effect
       effect="bspline"
       id="path-effect1738"
       is_visible="true"
       lpeversion="1"
       weight="33.3333"
       steps="2"
       helper_size="0"
       apply_no_weight="true"
       apply_with_weight="true"
       only_selected="false" />
    <inkscape:path-effect
       effect="bspline"
       id="path-effect1424"
       is_visible="true"
       lpeversion="1"
       weight="33.3333"
       steps="2"
       helper_size="0"
       apply_no_weight="true"
       apply_with_weight="true"
       only_selected="false" />
    <inkscape:path-effect
       effect="bspline"
       id="path-effect1011"
       is_visible="true"
       lpeversion="1"
       weight="33.3333"
       steps="2"
       helper_size="0"
       apply_no_weight="true"
       apply_with_weight="true"
       only_selected="false" />
    <inkscape:path-effect
       effect="bspline"
       id="path-effect19862"
       is_visible="true"
       lpeversion="1"
       weight="33.3333"
       steps="2"
       helper_size="0"
       apply_no_weight="true"
       apply_with_weight="true"
       only_selected="false" />
    <inkscape:path-effect
       effect="bspline"
       id="path-effect19852"
       is_visible="true"
       lpeversion="1"
       weight="33.3333"
       steps="2"
       helper_size="0"
       apply_no_weight="true"
       apply_with_weight="true"
       only_selected="false" />
    <inkscape:path-effect
       effect="bspline"
       id="path-effect19842"
       is_visible="true"
       lpeversion="1"
       weight="33.3333"
       steps="2"
       helper_size="0"
       apply_no_weight="true"
       apply_with_weight="true"
       only_selected="false" />
    <inkscape:path-effect
       effect="bspline"
       id="path-effect18263"
       is_visible="true"
       lpeversion="1"
       weight="33.3333"
       steps="2"
       helper_size="0"
       apply_no_weight="true"
       apply_with_weight="true"
       only_selected="false" />
    <inkscape:path-effect
       effect="bspline"
       id="path-effect18138"
       is_visible="true"
       lpeversion="1"
       weight="33.3333"
       steps="2"
       helper_size="0"
       apply_no_weight="true"
       apply_with_weight="true"
       only_selected="false" />
    <inkscape:path-effect
       effect="bspline"
       id="path-effect12570"
       is_visible="true"
       lpeversion="1"
       weight="33.3333"
       steps="2"
       helper_size="0"
       apply_no_weight="true"
       apply_with_weight="true"
       only_selected="false" />
    <inkscape:path-effect
       effect="bspline"
       id="path-effect12566"
       is_visible="true"
       lpeversion="1"
       weight="33.3333"
       steps="2"
       helper_size="0"
       apply_no_weight="true"
       apply_with_weight="true"
       only_selected="false" />
    <inkscape:path-effect
       effect="bspline"
       id="path-effect12562"
       is_visible="true"
       lpeversion="1"
       weight="33.3333"
       steps="2"
       helper_size="0"
       apply_no_weight="true"
       apply_with_weight="true"
       only_selected="false" />
    <inkscape:path-effect
       effect="bspline"
       id="path-effect12558"
       is_visible="true"
       lpeversion="1"
       weight="33.3333"
       steps="2"
       helper_size="0"
       apply_no_weight="true"
       apply_with_weight="true"
       only_selected="false" />
    <inkscape:path-effect
       effect="bspline"
       id="path-effect12554"
       is_visible="true"
       lpeversion="1"
       weight="33.3333"
       steps="2"
       helper_size="0"
       apply_no_weight="true"
       apply_with_weight="true"
       only_selected="false" />
    <inkscape:path-effect
       effect="bspline"
       id="path-effect12550"
       is_visible="true"
       lpeversion="1"
       weight="33.3333"
       steps="2"
       helper_size="0"
       apply_no_weight="true"
       apply_with_weight="true"
       only_selected="false" />
    <inkscape:path-effect
       effect="bspline"
       id="path-effect5887"
       is_visible="true"
       lpeversion="1"
       weight="33.3333"
       steps="2"
       helper_size="0"
       apply_no_weight="true"
       apply_with_weight="true"
       only_selected="false" />
    <inkscape:path-effect
       effect="bspline"
       id="path-effect871"
       is_visible="true"
       lpeversion="1"
       weight="33.3333"
       steps="2"
       helper_size="0"
       apply_no_weight="true"
       apply_with_weight="true"
       only_selected="false" />
    <clipPath
       clipPathUnits="userSpaceOnUse"
       id="clipPath18220">
      <path
         style="opacity:1;fill:#b67b20;fill-opacity:1;stroke:none;stroke-width:0.264583px;stroke-linecap:butt;stroke-linejoin:miter;stroke-opacity:1"
         d="m 51.4154,86.9349 c -1.8122,6.7829 -5.333,18.7951 -7.4042,30.7561 -2.0712,11.961 -2.6925,23.87 -1.6569,36.918 1.0357,13.048 3.7281,27.235 5.7474,36.141 2.0192,8.905 3.3656,12.53 4.7637,14.86 1.3982,2.33 2.8477,3.365 9.372,5.384 6.5242,2.02 18.1221,5.023 30.0309,6.473 11.9087,1.449 24.1287,1.346 34.4317,0.517 10.304,-0.828 18.692,-2.382 24.698,-3.728 6.007,-1.346 9.631,-2.485 12.427,-4.66 2.796,-2.174 4.763,-5.384 7.922,-16.258 3.158,-10.873 7.508,-29.41 9.009,-42.872 1.502,-13.462 0.155,-21.85 -1.916,-32.154 -2.071,-10.304 -4.867,-22.5228 -6.834,-29.927 -1.968,-7.4043 -3.107,-9.9933 -5.644,-12.4268 -2.537,-2.4335 -6.472,-4.7116 -13.307,-6.7311 -6.835,-2.0194 -16.569,-3.7799 -25.733,-4.8154 -9.165,-1.0356 -17.76,-1.3463 -26.148,-0.9321 -8.3883,0.4142 -16.5688,1.5532 -23.7143,3.3137 -7.1455,1.7605 -13.255,4.1422 -17.0868,5.9545 -3.8317,1.8122 -5.3848,3.0547 -6.2133,4.4529 -0.8285,1.3983 -0.932,2.9514 -2.7442,9.7342 z"
         id="path18222"
         inkscape:path-effect="#path-effect18138"
         inkscape:original-d="m 53.1241,81.7052 c -3.5208,12.0126 -7.0416,24.0248 -10.5627,36.0378 -0.6212,11.909 -1.2425,23.818 -1.864,35.726 2.6927,14.188 5.3851,28.375 8.0772,42.561 1.3465,3.625 2.6927,7.25 4.0386,10.874 1.4502,1.036 2.8998,2.071 4.3495,3.106 11.5988,3.004 23.1968,6.007 34.7943,9.01 12.22,-0.103 24.44,-0.207 36.659,-0.311 8.388,-1.553 16.776,-3.106 25.164,-4.66 3.625,-1.139 7.249,-2.278 10.873,-3.417 1.968,-3.21 3.936,-6.42 5.903,-9.631 4.35,-18.536 8.699,-37.073 13.048,-55.609 -1.346,-8.388 -2.692,-16.776 -4.039,-25.164 -2.796,-12.22 -5.592,-24.4388 -8.388,-36.6588 -1.139,-2.5884 -2.278,-5.1774 -3.417,-7.7666 -3.935,-2.2778 -7.87,-4.5561 -11.806,-6.8345 -9.734,-1.7602 -19.468,-3.5208 -29.202,-5.2813 -8.595,-0.3106 -17.19,-0.6212 -25.786,-0.9321 -8.1803,1.1393 -16.3607,2.2786 -24.5419,3.4173 -6.1098,2.3821 -12.2193,4.7638 -18.3295,7.1454 -1.5531,1.243 -3.1062,2.4855 -4.6599,3.7277 -0.1034,1.5539 -0.2069,3.107 -0.3106,4.6601 z" />
    </clipPath>
    <clipPath
       clipPathUnits="userSpaceOnUse"
       id="clipPath19854">
      <path
         style="opacity:1;fill:#b67b20;fill-opacity:1;stroke:none;stroke-width:0.264583px;stroke-linecap:butt;stroke-linejoin:miter;stroke-opacity:1"
         d="m 51.4154,86.9349 c -1.8122,6.7829 -5.333,18.7951 -7.4042,30.7561 -2.0712,11.961 -2.6925,23.87 -1.6569,36.918 1.0357,13.048 3.7281,27.235 5.7474,36.141 2.0192,8.905 3.3656,12.53 4.7637,14.86 1.3982,2.33 2.8477,3.365 9.372,5.384 6.5242,2.02 18.1221,5.023 30.0309,6.473 11.9087,1.449 24.1287,1.346 34.4317,0.517 10.304,-0.828 18.692,-2.382 24.698,-3.728 6.007,-1.346 9.631,-2.485 12.427,-4.66 2.796,-2.174 4.763,-5.384 7.922,-16.258 3.158,-10.873 7.508,-29.41 9.009,-42.872 1.502,-13.462 0.155,-21.85 -1.916,-32.154 -2.071,-10.304 -4.867,-22.5228 -6.834,-29.927 -1.968,-7.4043 -3.107,-9.9933 -5.644,-12.4268 -2.537,-2.4335 -6.472,-4.7116 -13.307,-6.7311 -6.835,-2.0194 -16.569,-3.7799 -25.733,-4.8154 -9.165,-1.0356 -17.76,-1.3463 -26.148,-0.9321 -8.3883,0.4142 -16.5688,1.5532 -23.7143,3.3137 -7.1455,1.7605 -13.255,4.1422 -17.0868,5.9545 -3.8317,1.8122 -5.3848,3.0547 -6.2133,4.4529 -0.8285,1.3983 -0.932,2.9514 -2.7442,9.7342 z"
         id="path19856"
         inkscape:path-effect="#path-effect19852"
         inkscape:original-d="m 53.1241,81.7052 c -3.5208,12.0126 -7.0416,24.0248 -10.5627,36.0378 -0.6212,11.909 -1.2425,23.818 -1.864,35.726 2.6927,14.188 5.3851,28.375 8.0772,42.561 1.3465,3.625 2.6927,7.25 4.0386,10.874 1.4502,1.036 2.8998,2.071 4.3495,3.106 11.5988,3.004 23.1968,6.007 34.7943,9.01 12.22,-0.103 24.44,-0.207 36.659,-0.311 8.388,-1.553 16.776,-3.106 25.164,-4.66 3.625,-1.139 7.249,-2.278 10.873,-3.417 1.968,-3.21 3.936,-6.42 5.903,-9.631 4.35,-18.536 8.699,-37.073 13.048,-55.609 -1.346,-8.388 -2.692,-16.776 -4.039,-25.164 -2.796,-12.22 -5.592,-24.4388 -8.388,-36.6588 -1.139,-2.5884 -2.278,-5.1774 -3.417,-7.7666 -3.935,-2.2778 -7.87,-4.5561 -11.806,-6.8345 -9.734,-1.7602 -19.468,-3.5208 -29.202,-5.2813 -8.595,-0.3106 -17.19,-0.6212 -25.786,-0.9321 -8.1803,1.1393 -16.3607,2.2786 -24.5419,3.4173 -6.1098,2.3821 -12.2193,4.7638 -18.3295,7.1454 -1.5531,1.243 -3.1062,2.4855 -4.6599,3.7277 -0.1034,1.5539 -0.2069,3.107 -0.3106,4.6601 z" />
    </clipPath>
    <linearGradient
       inkscape:collect="always"
       xlink:href="#linearGradient1107"
       id="linearGradient1109"
       x1="946.189"
       y1="-1616.69"
       x2="859.586"
       y2="-3366.69"
       gradientUnits="userSpaceOnUse"
       gradientTransform="matrix(0.883409,0,0,0.883409,407.478,-205.674)" />
    <linearGradient
       inkscape:collect="always"
       xlink:href="#linearGradient7136"
       id="linearGradient7138"
       x1="1978.13"
       y1="-2531.97"
       x2="3054.92"
       y2="-1452.56"
       gradientUnits="userSpaceOnUse"
       gradientTransform="translate(-1289,-94.3172)" />
  </defs>
  <g
     inkscape:label="Layer 1"
     inkscape:groupmode="layer"
     id="layer1"
     transform="translate(-613.152,3252.45)">
    <path
       style="fill:#552200;stroke:none;stroke-width:0.264583px;stroke-linecap:butt;stroke-linejoin:miter;stroke-opacity:1"
       d="m 3374.51,-656.86 c 0,0 1249.9,-14.88 1249.9,-14.88 0,0 -8.75,1105.05 -8.75,1105.05 0,0 -1249.91,14.89 -1249.91,14.89 0,0 8.76,-1105.06 8.76,-1105.06 z"
       id="path1009"
       inkscape:path-effect="#path-effect1011"
       inkscape:original-d="m 3374.51,-656.86 1249.9,-14.88 -8.75,1105.05 -1249.91,14.89 z"
       sodipodi:nodetypes="ccccc" />
    <path
       style="fill:#552200;stroke:none;stroke-width:0.264583px;stroke-linecap:butt;stroke-linejoin:miter;stroke-opacity:1"
       d="m 3533.13,1558.31 c 0,0 1082.53,-624.99 1082.53,-624.99 0,0 1082.52,624.99 1082.52,624.99 0,0 -1082.52,625 -1082.52,625 0,0 -1082.53,-625 -1082.53,-625 z"
       id="path1420"
       inkscape:path-effect="#path-effect1424"
       inkscape:original-d="m 3533.13,1558.31 c 0,0 1082.53,-624.99 1082.53,-624.99 0,0 1082.52,624.99 1082.52,624.99 0,0 -1082.52,625 -1082.52,625 0,0 -1082.53,-625 -1082.53,-625 z" />
    <path
       style="fill:none;stroke:#214c21;stroke-width:50;stroke-linecap:butt;stroke-linejoin:miter;stroke-miterlimit:4;stroke-dasharray:none;stroke-opacity:1"
       d="m 3749.63,833.3 c 62.75,127.82 -135.93,352.89 -56.46,458.84 68.92,91.9 42.97,14.92 115.75,138.91 15.88,27.06 25.87,58.16 29.77,89.3 2.19,17.53 -12.14,61.5 3.3,52.91 55.01,-30.56 63.42,-88.35 95.92,-145.52 35.88,-63.12 80.72,-121.7 109.14,-188.51 25.39,-59.71 15.7,-129.31 33.07,-191.83 13.62,-49.05 30,-97.28 46.3,-145.52 0.86,-2.54 37.77,-111.04 43,-105.83 5.51,5.5 -2.68,15.37 -3.31,23.15 -4.89,60.59 -8.45,121.29 -13.23,181.9 -14.2,179.83 -29.25,161.34 0,307.58 9.94,49.71 35.34,104.74 39.69,155.44 7.13,83.19 0,171.1 0,254.66 0,27.59 -13.55,-57.07 -3.31,-82.68 22.26,-55.66 66.03,-100.16 95.91,-152.13 68.37,-118.92 117.59,-332.83 142.21,-469.64 6.46,-35.85 31.4,-67.81 3.31,-95.91 -18.71,-18.71 -1.35,52.94 0,79.37 4.22,82.76 13.49,165.24 16.54,248.05 4.17,113.5 2.7,227.15 6.61,340.65 0.69,19.83 -19.84,59.53 0,59.53 51.16,0 83.53,-59.31 122.37,-92.6 96.05,-82.32 180.42,-168.71 188.52,-300.96 2.59,-42.41 -16.87,-333.38 9.92,-357.19 47.06,-41.83 266.17,-68.37 287.73,-19.85 6.73,15.14 1.93,33.1 3.31,49.61 35.15,421.81 -8.33,-24.79 49.61,343.96 12.62,80.31 0.31,313.22 128.98,300.97 72.37,-6.9 74.08,-30.31 132.29,-115.76 41.42,-60.8 81.17,-123.78 109.14,-191.82 54.25,-131.94 -52.55,-351.55 -105.83,-466.33 -17.56,-37.81 -41.05,-65.78 -82.68,-33.07 -157.81,123.98 -214.68,422.48 -277.81,608.54 -6.21,18.31 -90.97,208.15 -115.76,181.9 -65.68,-69.55 -78.4,-327.27 -79.37,-340.65 -17.21,-236.96 -5.66,-350.31 46.3,-572.16 9.3,-39.72 25.67,-77.45 39.69,-115.76 2.88,-7.88 18.3,-22.59 9.92,-23.15 -71.31,-4.76 -143.65,4.31 -214.97,0 -189.4,-11.48 -33.2,-8.68 -191.83,-33.07 -15.25,-2.36 -39.17,-13.68 -46.3,0 -103.29,198.3 32.76,392.56 152.14,558.93 124.21,173.11 256.85,96.86 244.74,274.5 -5.85,85.82 -63.97,66.79 -138.91,62.84 -343.19,-18.06 -620.94,-185.13 -324.11,-562.24 68.65,-87.23 175.39,-138.53 274.5,-188.51 196.18,-98.93 368.33,299.35 396.88,357.19 28.23,57.2 51.46,127.42 33.07,188.51 -51.3,170.39 -371.69,162.06 -459.71,162.06 -136.27,0 -562.09,-34.32 -697.84,-152.14 -51.61,-44.79 -52.18,-127.63 -62.84,-195.13 -6.23,-39.45 -4.63,-83.34 13.23,-119.06 8.13,-16.27 34.74,-12.67 52.91,-13.23 123.42,-3.86 246.95,0 370.42,0 142.21,0 284.89,-11.48 426.64,0 50.74,4.1 102.73,18.73 145.52,46.3 39.18,25.25 -61.65,186.88 152.14,109.14 146.12,-53.12 234.85,-211.29 291.04,-340.65 13.2,-30.4 30.38,-76.12 6.61,-99.21 -30.29,-29.45 -83.9,-22.89 -125.68,-16.54 -112.61,17.14 -222.35,50.9 -330.72,85.99 -65.18,21.09 -477.27,144.14 -535.78,281.12 -101.23,236.97 342.02,360.8 446.48,552.31 36.23,66.42 -30.42,143.37 -89.3,158.75 -212.06,55.43 -619.23,-80.67 -697.83,-304.27 -38.41,-109.24 -9.93,-231.46 -9.93,-347.26 0,-54.11 -31.05,-126.71 9.93,-162.06 59.58,-51.41 153.06,-52.57 231.51,-46.3 253.57,20.29 450.43,35.51 572.16,257.97 31.7,57.94 32.4,128.06 49.61,191.82 1.54,5.73 8.49,10.9 6.61,16.54 -1.44,4.31 -8.8,4.35 -13.23,3.3 -56.74,-13.41 -114.71,-24.21 -168.67,-46.3 C 4480.85,1097.95 4277,1003.4 4073.5,908.5 3964.93,857.86 3856.9,805.55 3752.7,746.44 c -13.04,-7.41 -37.06,-25.77 -26.46,-36.38 45.21,-45.22 127.88,0 191.82,0 108.42,0 845.59,-37.57 942.58,102.53 29.59,42.73 191.06,381.8 205.05,433.25 13.9,51.11 1.26,106.06 6.62,158.75 1.3,12.84 24.46,30.03 13.22,36.38 -25.98,14.69 -59.69,2.77 -89.29,6.62 -114.88,14.9 -230,28.8 -343.96,49.6 -13.59,2.49 -47.83,12.11 -36.38,19.85 136.28,92.08 321.93,73.03 456.41,168.67 6.45,4.59 -15.76,-1.6 -23.64,-2.4"
       id="path1426" />
    <path
       style="fill:#552200;fill-opacity:1;stroke:none;stroke-width:0.5;stroke-linecap:butt;stroke-linejoin:miter;stroke-miterlimit:4;stroke-dasharray:none;stroke-opacity:1"
       d="m 1097.44,106.342 c 0,0 0,1249.998 0,1249.998 0,0 1299.03,0 1299.03,0 0,0 0,-1249.998 0,-1249.998 0,0 -1299.03,0 -1299.03,0 z"
       id="path1736"
       inkscape:path-effect="#path-effect1738"
       inkscape:original-d="m 1097.44,106.342 c 0,0 0,1249.998 0,1249.998 0,0 1299.03,0 1299.03,0 0,0 0,-1249.998 0,-1249.998 0,0 -1299.03,0 -1299.03,0 z" />
    <rect
       style="fill:url(#linearGradient7138);fill-opacity:1;stroke:none;stroke-width:25;stroke-linejoin:round"
       id="rect1393"
       width="1193.05"
       height="1193.05"
       x="613.152"
       y="-2701.83" />
    <path
       style="color:#000000;fill:url(#linearGradient1109);fill-opacity:1;stroke:none;stroke-width:0.883409;-inkscape-stroke:none"
       d="m 1036.11,-3252.34 c -32.27,-1.07 -63.738,5.25 -88.378,26.82 -19.7,17.25 -30.87,28.91 -38.3,38.42 -7.43,9.52 -10.83,16.81 -13.04,20.6 -2.21,3.79 -3.75,6.28 -12.22,13.8 -8.46,7.53 -23.38,19.03 -49.13,36.89 -20.02,13.88 -44.07,23.73 -68.46,28.68 0.38,-0.1 -14.64,-0.47 -26.94,-0.93 -6.15,-0.24 -11.34,-1.28 -20.96,2.12 -4.81,1.71 -13.38,6.59 -16.39,16.73 -3,10.15 0.97,17.96 3.85,22.33 18.28,27.74 43.77,43.09 68.94,53.68 25.17,10.6 50.54,17.51 74.64,28.9 v 0 c 22.86,10.79 45.69,23.21 68.9,35.58 -55.61,35.46 -100.62,91.91 -135.13,158.07 -22.21,3.11 -42.58,5.51 -65.16,7.63 -6.28,-2.55 -12.69,-4.92 -19.31,-7 v 0 c -20.03,-6.3 -37.04,-1.3 -49.66,6.52 -3.16,1.95 -6.17,4.1 -9.34,7.9 -3.16,3.82 -8.26,11.13 -5.51,22.28 2.75,11.14 12.76,16.49 18.26,17.96 5.51,1.47 9.63,1.34 14.13,0.99 16.37,-1.23 30.25,-2.39 43.55,-3.57 13.28,6.23 26.5,13.67 39.96,21.75 -5.25,13.94 -10.18,28.04 -14.65,42.31 -11.14,35.54 -19.77,71.95 -25.85,108.11 -2.95,0.17 -6.07,0.57 -9.73,1.65 -4.91,1.47 -11.24,4.76 -15.65,10.9 -4.41,6.14 -5.69,13.8 -5.25,19.66 1.51,19.93 10.18,36.26 21.36,49.98 -3.55,65.51 2.6,127.28 20.08,178.11 6.67,19.39 18.68,37.6 34.22,52.95 -3.24,18.51 -6.05,36.97 -8.87,55.23 -10.48,67.78 -21.29,132.6 -51.7,188.18 l -8.3,-0.21 c 0,-0.15 -0.91,7.55 -1.56,13.5 -0.33,2.98 -1.04,4.44 -0.3,10.82 0.19,1.6 0.19,3.61 2.27,7.85 1.04,2.12 2.75,5.04 6.46,7.9 3.7,2.87 9.82,4.92 14.9,4.62 10.15,-0.57 13.38,-5.18 15.31,-7.23 1.92,-2.06 2.68,-3.36 3.37,-4.52 v 0 0 c 40.47,-67.12 52.06,-142.14 63.2,-214.17 1.74,-11.22 3.57,-22.19 5.37,-33.23 19.71,9.75 42.51,15.02 65.18,12.06 0.64,2.94 1.24,5.89 1.87,8.83 -26.3,11.16 -49.31,24.95 -65.59,42.84 -4.64,5.09 -7.93,13.52 -7.55,20.86 0.38,7.33 3.19,12.77 6.02,16.92 5.67,8.29 12.41,13.33 20.26,18.7 15.71,10.73 36.45,20.97 58.35,30.73 5.7,2.53 11.39,4.82 17.12,7.23 1.75,8.99 1.4,21.64 1.87,36.22 0.49,14.87 2.07,32.74 13.11,49.22 v 0 0 c 2.49,3.72 6.79,7.6 11.95,9.91 -2.72,0.75 -5.51,1.4 -8.19,2.21 -30.62,9.16 -59.63,21.45 -81.45,41.84 -21.82,20.4 -34.72,51.33 -28.77,85.93 v 0 0 c 5.86,33.95 17.27,57.58 37.5,74.31 20.24,16.75 45.2,27.51 84.05,49.89 56.77,32.69 116.198,64.31 180.438,85.2 68.87,22.4 149.36,2.41 225.17,-27.54 75.81,-29.95 147.63,-71.37 196.18,-98.53 v 0 0 c 17.53,-9.82 35.21,-20.94 44.84,-41.07 3.34,-6.98 5.05,-15.25 4.89,-23.65 17.64,6.97 35.01,13.37 51.73,19.18 11.75,4.08 16.77,9.48 31.79,11.6 7.52,1.06 17.5,-1.13 24.24,-5.39 6.73,-4.26 11.42,-9.39 16.75,-15.79 16.66,-19.95 20.79,-44.8 20.34,-67.6 -0.46,-22.81 -5.33,-44.87 -9.59,-63.33 v 0 0 c -19.8,-85.88 -19.79,-171.14 -49.5,-259.4 13.2,3.96 26.81,8.42 43.68,13.18 -4.39,-1.24 2.5,1.8 8.38,5.12 2.93,1.65 5.18,4.01 13.8,5.04 4.31,0.52 12.69,0 19.32,-6.13 6.61,-6.14 7.68,-13.92 7.65,-18.28 v 0 c -0.6,-65.99 -13.43,-129.15 -14.35,-189.49 v 0 c -0.64,-41.77 -0.58,-64.54 -0.1,-76.29 0.22,-5.04 0.53,-7.08 0.69,-8.13 0.76,-1.1 1.59,-2.27 2.46,-3.88 2.21,-4.12 3.78,-8.76 5.17,-14.71 2.79,-11.91 5.26,-30.32 8.02,-66.14 v 0 c 0.25,-3.23 2.63,-12.52 3.54,-23.34 0.46,-5.42 0.71,-11.61 -1.69,-19.14 -2.4,-7.54 -9.33,-16.5 -18.26,-20.33 v 0 0 c -66.85,-28.63 -131.1,-30.05 -191.18,-14.96 -0.13,-3.93 -0.16,-7.82 -0.3,-11.76 -6.91,-186.72 -29.48,-374.47 -32.91,-419.69 v 0 c -1.74,-22.96 5.17,-55.4 8.05,-88.19 2.88,-32.8 0.85,-70.68 -28.48,-95.86 v 0 0 c -8.09,-6.95 -22.08,-8.31 -30.28,-5.24 -8.21,3.06 -12.92,7.65 -17.04,12.07 -8.25,8.84 -13.63,18.41 -17.32,26.22 v 0 0 c -19.57,41.52 -37.89,83.53 -55.45,125.8 -0.89,-0.45 -1.7,-0.97 -2.64,-1.36 v 0 c -38.86,-15.87 -81.84,-13.59 -119.2,-4.75 -56.16,13.28 -136.33,17.48 -180.34,76.68 v 0 0 c -7.27,9.78 -13.9,20.66 -20.07,32.35 -27.62,3.78 -55.008,10.1 -81.718,20.35 -32.2,-16.43 -64.6,-34.8 -98.95,-51.01 v 0 c -28.41,-13.43 -55.03,-20.69 -76.38,-29.68 -7.1,-2.99 -13.5,-6.09 -19.41,-9.52 0.85,-0.14 1.68,-0.24 2.55,-0.42 v 0 0 c 29.95,-6.07 59.34,-17.97 84.86,-35.68 26.45,-18.34 42.41,-30.48 53.3,-40.16 10.88,-9.66 17.16,-17.94 21.02,-24.55 3.86,-6.61 4.79,-9.38 9.7,-15.68 4.92,-6.3 14.12,-16.2 32.59,-32.37 v 0 0 c 15.86,-13.89 38.228,-18.06 69.038,-15.18 30.8,2.87 67.98,13.19 106.61,24.36 38.64,11.18 78.79,23.15 117.76,28.31 38.97,5.16 77.91,3.64 111.2,-15.95 l -22.4,-38.07 c -20.92,12.31 -49.07,14.72 -83.01,10.23 -33.92,-4.49 -72.48,-15.74 -111.28,-26.95 -38.79,-11.22 -77.78,-22.46 -114.78,-25.92 -4.62,-0.43 -9.25,-0.73 -13.86,-0.88 z m 435.17,61.22 c 5.9,11.36 6.66,26.84 4.83,47.74 -2.5,28.41 -10.62,62.05 -8.1,95.41 3.82,50.29 26,233.72 32.81,417.99 0.3,8.13 0.38,16.16 0.62,24.27 -2.1,0.82 -4.2,1.65 -6.29,2.5 -2.67,-2.43 -5.37,-4.82 -8.12,-7.18 2.59,-47.8 2.8,-97.83 3.02,-150.34 v 0 0 c 0.3,-71.12 -5.5,-159.58 -62.73,-216.57 v 0 c -8.33,-8.28 -17.75,-13.63 -27.67,-16.96 -0.66,-6.58 -1.27,-13.16 -1.97,-19.74 -0.22,-2.09 -0.39,-5.23 -0.58,-8.17 21.97,-54.45 44.91,-108.38 69.83,-161.25 0.96,-2.04 2.6,-4.91 4.35,-7.68 z m -163.45,146 c 15.29,0.23 29.96,2.64 42.84,7.64 0,0.3 0.23,1 0.73,3.53 0.29,1.46 0.43,3.68 0.62,5.57 -4.33,10.8 -8.67,21.61 -12.92,32.44 -27.19,4.77 -53.42,12.88 -72.47,14.32 -51.55,3.91 -107,0.81 -162.7,3.32 0.3,-0.4 0.57,-0.88 0.86,-1.27 v 0 c 28.02,-37.68 93.71,-45.54 155.05,-60.04 15.66,-3.7 32.14,-5.74 47.99,-5.5 z m 12.18,98.5 c -5.03,13.12 -10.11,26.23 -15.06,39.36 -2.72,7.19 -5.41,14.41 -8.12,21.6 -29.33,-7.33 -58.83,-14.44 -88.86,-20.38 v 0 0 c -48.53,-9.59 -95.19,-4.21 -135.43,-8.71 2.1,-5.85 4.27,-11.47 6.5,-16.88 60.65,-4.97 125.97,-1.01 190.93,-5.93 v 0 c 17.2,-1.31 34.08,-5.26 50.04,-9.05 z m 84.99,10.7 c 19.03,24.13 29.68,56.86 35.29,92.12 -0.67,-0.37 -1.36,-0.75 -1.99,-1.07 -4.05,-2.07 -7.98,-3.55 -12.73,-5.24 -4.33,-1.55 -9.33,-3.16 -14.54,-4.8 -1.84,-26.98 -3.79,-53.98 -6.03,-81.01 z m -43.87,5.42 c 1.71,20.81 3.17,41.7 4.65,62.58 -13.15,-3.57 -23.88,-6.41 -25.34,-6.78 v 0 c -0.15,0 -0.31,-0.1 -0.46,-0.11 2.11,-5.62 4.21,-11.24 6.33,-16.85 4.89,-12.98 9.91,-25.89 14.86,-38.83 z m -395.118,25.99 c 15.92,7.64 32.28,14.72 49.218,20.94 -4.46,16.44 -8.38,33.6 -11.92,51.22 -9.678,2.5 -19.208,4.97 -30.878,8.24 -47.08,13.18 -93.38,38.55 -131.87,44.8 v 0 c -0.3,0.1 -0.49,0.1 -0.79,0.12 34.85,-57.01 77.82,-102.06 126.24,-125.32 z m 92.988,33.03 c 50.48,8.45 99.43,0.66 140.4,8.76 25.27,5 50.52,10.95 75.8,17.18 -8.59,0 -17.23,0.11 -25.8,0.1 -79.01,-0.24 -114.17,-4.04 -148.25,-3.24 -15.83,0.37 -31.05,1.92 -49.1,5.18 2.21,-9.56 4.51,-18.94 6.95,-27.96 z m 358.83,65.8 c 0,0 0.33,0.12 0.36,0.14 0.12,0.1 0.1,0.11 -0.36,-0.14 z m 26.64,0.62 c 0.99,14.81 1.48,29.67 1.41,44.15 -0.17,41.57 -0.38,81.17 -1.71,118.81 -6.36,-4.17 -12.69,-8.27 -18.93,-12.14 -0.97,-10.95 -1.96,-21.89 -2.78,-32.81 v 0 c -2.86,-37.59 -5.31,-75.33 -7.78,-113.12 0.55,0.13 0.72,0.16 1.32,0.32 2.89,0.76 6.73,1.82 12.56,1.38 4.69,-0.35 10.97,-2.66 15.91,-6.59 z m -342.28,0.52 c 29.85,-0.7 66.72,3 147.07,3.25 5.31,0 10.59,-0.1 15.89,-0.1 -8.92,23.81 -17.74,47.67 -26.58,71.52 -6.68,-0.96 -13.28,-1.74 -19.76,-2.22 -66.89,-4.9 -123.17,17.01 -164.87,57.09 -11.05,10.61 -21.08,22.44 -30.28,35.23 0.83,-11.93 1.68,-23.88 2.75,-35.86 3.65,-41.12 9.15,-82.11 16.15,-120.87 24.15,-5.35 41.52,-7.67 59.63,-8.09 z m 268.12,2.87 c 2.56,39.25 5.11,78.57 8.1,117.96 0.1,0.89 0.16,1.77 0.23,2.67 -34.14,-17.92 -66.23,-30.99 -96.43,-39.48 10.02,-27 20.07,-54.01 30.19,-80.98 19.35,-0.12 38.64,-0.1 57.91,-0.17 z m -375.448,17.28 c -5.27,34.23 -9.3,69.57 -12.45,104.9 -0.92,10.25 -1.61,20.42 -2.36,30.6 -52.36,-12.81 -100.77,-27.98 -137.72,-45.65 v 0 0 c -12.1,-5.79 -24.15,-12.79 -36.34,-20.19 2.36,-5.26 4.72,-10.49 7.2,-15.64 10.91,-1.65 21.53,-3.24 34.47,-5.34 50.25,-8.17 97.51,-34.9 136.69,-45.88 4.05,-1.13 6.76,-1.78 10.51,-2.8 z m 200.378,95.84 c 6.57,-0.14 13.34,0.1 20.34,0.57 2.4,0.18 4.87,0.44 7.31,0.71 -2.68,7.31 -5.39,14.61 -8.07,21.93 -7.94,4.17 -15.65,8.87 -23.03,14.13 -14.16,10.1 -27.4,22.02 -40.09,35.1 -26.02,-3.86 -52.89,-8.42 -79.86,-13.41 4.09,-4.81 8.31,-9.36 12.7,-13.58 29.39,-28.25 64.79,-44.57 110.7,-45.45 z m -406.208,15.51 c 11,6.4 22.34,12.65 34.25,18.34 43.18,20.66 97.01,37.52 153.92,51.18 -0.72,14.09 -1.32,27.9 -1.78,41.52 -73.32,6.87 -147.15,12.44 -221.11,20.55 5.56,-33.21 13.4,-66.69 23.59,-99.22 3.43,-10.94 7.2,-21.71 11.13,-32.37 z m 506.388,31.14 c 12.95,0.39 26.7,2.99 41.6,8.06 v 0 c 14.31,4.87 31.25,16.88 48.95,34.22 1.81,18.16 3.6,36.22 5.44,54.3 -52.21,35.81 -101.34,78.03 -148.46,117.58 v 0 c -54.98,46.11 -80.54,92.74 -97.27,130.62 -3.17,0.34 -6.63,0.7 -9.68,1.03 2.82,-12.38 6.03,-24.53 9.86,-36.38 v 0 0 c 23.5,-72.65 48.32,-144.91 73.95,-216.96 15.9,-2.38 31.76,-4.6 47.61,-6.67 9.22,2.2 19.5,5.09 31.24,6.77 17.88,2.55 42.5,-1.47 58.8,-20.44 v 0 0 c 3.64,-4.24 10.49,-10.56 7.01,-24.67 -1.74,-7.05 -7.35,-12.81 -11.65,-15.26 -4.3,-2.46 -7.57,-3.02 -10.29,-3.4 -10.86,-1.52 -17.6,0.42 -26.55,2.15 -17.26,3.32 -38.35,8.7 -46.83,9.96 -3.53,-0.63 -7.09,-1.25 -10.9,-1.65 v 0 c -5.81,-0.59 -12.47,-1.43 -18.59,-2.11 3.49,-9.64 7.05,-19.26 10.57,-28.89 14.32,-5.8 29.14,-8.74 45.19,-8.25 z m 28.54,43.34 c -0.41,0.47 -0.68,0.65 -1.05,1.06 0.6,-0.71 1.09,-1.12 1.05,-1.06 z m -279.47,9.52 c 22.17,4.3 44.15,8.05 65.96,11.53 -19.89,2.88 -39.73,5.58 -59.55,7.81 v 0 0 c -5.63,0.64 -11.31,1.13 -16.97,1.73 3.33,-7.32 6.87,-14.32 10.57,-21.07 z m 568.65,3.36 c 31.75,-0.81 64.52,4.9 98.9,18.6 -0.7,4.99 -2.49,12.28 -3.21,21.56 v 0 0 c -2.68,34.86 -5.29,52.23 -6.99,59.48 -0.78,3.34 -1.15,3.87 -0.98,3.54 -0.15,0.18 -0.25,0.31 -1.07,1.42 -2.13,2.95 -4.75,8.72 -5.72,13.43 -0.96,4.71 -1.35,9.48 -1.66,16.46 -0.61,13.98 -0.6,36.85 0,78.88 v 0 0 c 0.84,54.63 9.69,107.3 13.03,158.08 -23.08,-6.86 -42.76,-13.72 -66.88,-18.98 -0.15,-0.38 -0.24,-0.6 -0.39,-0.98 4.03,-6.94 7.85,-13.98 11.13,-21.16 20.59,-45.15 23.46,-97.19 -5.34,-144.96 v 0 c -29.36,-48.68 -59.74,-100.78 -97.12,-147.41 -0.1,-8.97 -0.26,-18 -0.42,-27.03 21.89,-6.46 44.04,-10.37 66.7,-10.95 z m -127.49,35.26 c 5.84,6.17 11.55,12.53 17.12,19.11 0,4.91 -0.1,9.73 -0.1,14.6 -6.61,-10.97 -13.34,-21.68 -20.2,-32.08 1.05,-0.54 2.1,-1.11 3.15,-1.63 z m -315.37,8.6 c -22.93,64.95 -45.22,130.15 -66.44,195.75 -5.89,18.16 -10.34,36.45 -14.06,54.71 -10.59,0.99 -18.27,1.6 -21.37,1.65 v 0 c -13.87,0.2 -27.19,-0.69 -40.06,-2.5 -2.3,-20.89 -3.75,-38.24 -4.92,-53.72 31.22,-48.86 60.25,-101.44 90.73,-148.56 9.84,-15.21 19.81,-29.69 29.9,-43.38 8.74,-1.33 17.51,-2.6 26.22,-3.95 z m -86.09,12.56 c -2.38,3.59 -4.77,7.15 -7.12,10.78 -19.76,30.56 -38.99,62.53 -58.1,93.82 -0.8,-27.98 -0.96,-61.37 -0.35,-97.34 12.41,-1.26 24.81,-2.41 37.23,-3.81 9.48,-1.07 18.92,-2.23 28.34,-3.45 z m -116.158,12.28 c -16.21,59.72 -23.31,127.35 -23.3,197.68 -30.51,-15.69 -58.83,-36.76 -86.5,-61.08 -0.58,-1.25 -1.11,-2.51 -1.75,-3.76 -2.54,-5 -4.28,-9.82 -12.08,-15.79 -2.74,-2.11 -7.41,-4.54 -13.06,-5.2 -8.22,-7.86 -16.43,-15.82 -24.66,-24.08 v 0 c -18.4,-18.44 -40.28,-32.6 -56.65,-46.92 -1.31,-1.15 -2.28,-2.23 -3.5,-3.35 0.46,-5.75 1.06,-11.56 1.66,-17.37 2.57,0 5.2,-0.1 7.98,-0.39 70.14,-7.76 140.88,-13.21 211.87,-19.74 z m 428.478,22.25 c 2.62,27.28 4.9,54.49 6.71,81.63 -15.98,36.73 -38.08,70.32 -69.22,101.32 -1.32,0 -2.46,-0.1 -3.82,0 -28.8,0.35 -64.33,2.93 -100.24,6.18 -11.13,1.01 -22,2.14 -32.97,3.24 14.72,-28.63 35.73,-59.1 74.36,-91.51 41.03,-34.41 82.72,-69.88 125.18,-100.83 z m 74.79,11.96 c 9.93,16.92 19.6,34.3 28.9,51.97 -1.18,20.44 -2.79,40.02 -4.89,58.44 -5.67,49.63 -16.43,90.02 -28.56,115.92 -6.67,-0.59 -13.34,-1.18 -19.89,-1.68 2.67,-17.12 4.03,-34.36 4.12,-51.33 v 0 c 0.17,-32.37 -0.98,-64.57 -2.93,-96.63 6.6,-16.21 12.15,-32.83 16.77,-49.83 2.42,-8.84 4.52,-17.82 6.48,-26.85 z m 74.86,9.38 c 20.95,30.95 40.53,63.64 59.99,95.91 18.17,30.12 19.31,58.24 9.15,88.11 -18.31,-43.21 -42.24,-96.86 -70.4,-151.38 0.53,-10.72 0.95,-21.6 1.26,-32.64 z m -801.648,49.65 c 11.72,9.11 22.76,17.57 30.89,25.73 7.44,7.45 15.04,14.75 22.64,22.05 -13.95,27.85 -23.65,56.77 -31.05,86.06 -1.8,-3.39 -3.4,-6.74 -4.5,-9.94 v 0 c -11.79,-34.27 -17.64,-77.06 -17.98,-123.9 z m 793.148,68.48 c 20.57,43.93 37.14,83.11 49.72,113.72 -25.21,-3.71 -49.89,-7.25 -72.61,-9.94 11.32,-28.79 17.94,-64.19 22.89,-103.78 z m -710.428,22.06 c 8.39,32.63 16.05,65.51 23.46,98.49 -12.97,0.94 -26.36,-2.96 -39.9,-10.5 -2.55,-1.43 -5.05,-3.03 -7.51,-4.71 5.93,-29 13.36,-56.94 23.95,-83.28 z m 579.298,3.19 c 0.1,6.77 0.32,13.57 0.28,20.33 v 0 0 c 0,6.13 -0.31,12.3 -0.71,18.47 -2.12,-2.59 -4.32,-5.09 -6.7,-7.4 v 0 c -3.92,-3.8 -7.57,-6.16 -11.11,-7.75 6.45,-7.75 12.57,-15.62 18.24,-23.66 z m -527.448,22.06 c 13.23,9.2 26.85,17.73 41.02,25.28 -9.44,10.38 -18.99,19.71 -28.7,27.66 -4.02,-17.66 -8.03,-35.32 -12.32,-52.94 z m 471.858,40.62 c 4.47,0.2 8.7,0.45 11.93,0.84 3.75,0.45 6.57,1.7 7.81,2.19 0.71,0.89 1.33,1.53 2.16,2.75 -9.39,-0.14 -18.79,-0.17 -28.22,-0.1 2.15,-1.88 4.24,-3.79 6.32,-5.69 z m -73.87,2.28 c -3.19,2.18 -6.32,4.38 -9.63,6.54 -29.55,2.08 -60.54,5.18 -94.13,9.36 0.93,-2.22 1.9,-4.53 2.82,-6.78 18.76,-1.96 38.21,-3.93 57.79,-5.71 14.76,-1.33 29.13,-2.43 43.15,-3.41 z m -242.87,17.81 c 11.32,1.15 22.87,1.87 34.85,1.7 3.53,-0.1 7.94,-0.32 12.87,-0.69 -0.52,3.36 -1.09,6.72 -1.59,10.07 -6.09,0.91 -11.56,1.7 -19.23,2.95 -7.02,1.15 -15.76,2.79 -23.91,4.25 -1.06,-6.15 -2.07,-12.26 -2.99,-18.28 z m -44.528,1.7 c 1.21,8.14 2.64,16.54 4.1,24.96 -0.61,0.14 -1.23,0.29 -1.84,0.42 -1.44,-6.32 -2.01,-15.07 -2.26,-25.38 z m -44.86,2.07 c 0.31,11.3 1.4,22.39 4.06,33.26 -15.04,3.72 -30.05,7.81 -44.74,12.34 -0.72,-3.33 -1.42,-6.67 -2.14,-10.01 15.09,-10.07 29.31,-22.08 42.82,-35.59 z m 419.498,25.66 c 8.93,0.1 17.85,0.28 26.79,0.57 -3.36,9.24 -7.31,18.14 -11.81,26.64 -0.2,0.1 0.1,-0.1 -0.37,0.1 -2.56,0.75 -8.28,1.49 -15.35,1.78 -14.14,0.57 -33.25,-0.59 -52.87,4.69 -9.81,2.63 -20.21,7.25 -28.77,15.76 -8.57,8.51 -14.34,20.64 -16.21,34.02 -0.7,4.98 -0.83,10.23 -0.69,15.66 -38.86,22.12 -77.72,43.78 -109.61,60.88 -16.25,8.72 -30.94,16.25 -42.77,22.14 -4.36,-4.94 -8.59,-10.15 -12.62,-15.84 -20.03,-28.28 -35.29,-65.3 -46.48,-104.41 10.73,-0.88 20.59,-2.37 29.61,-4.5 2.77,2.45 6.21,4.52 10.59,5.61 v 0 0 c 12.41,3.09 21.94,-3.32 25.54,-5.96 1.75,-1.28 2.92,-1.96 3.31,-2.21 48.09,-16.56 106.85,-22.24 159.03,-52.51 28.53,-1.81 55.69,-2.62 82.67,-2.39 z m 126.72,8.04 c 20.94,2.29 43.35,5.23 66.54,8.49 -10.92,11.61 -22.72,23.01 -35.19,33.97 -20.28,17.83 -41.84,34.38 -63.11,49.54 -1.04,-11.89 -2.54,-24.06 -4.61,-36.39 -1.29,-7.65 -2.79,-15.31 -4.41,-22.92 11.35,-7.28 20.23,-13.35 26.27,-18.26 v 0 c 5.28,-4.28 10.08,-9.12 14.51,-14.43 z m 116.85,18.65 c 35.23,87.46 33.51,177.54 56.7,278.06 4.13,17.92 8.13,37.44 8.46,54.28 0.34,16.84 -2.81,29.71 -10.08,38.41 v 0 0 c -1.56,1.89 -2.68,3.01 -3.73,4.09 -3.79,-1.71 -10.85,-4.54 -20.65,-7.94 -35.99,-12.49 -74.19,-27.54 -111.31,-45.79 -31.32,-27.52 -68.54,-49.88 -109.12,-68.62 -22.16,-18.19 -42.07,-38.29 -58.52,-60.62 10.73,-1.7 8.74,-1.33 21.12,-3.32 v 0 c 8.95,-1.43 28.44,3.28 50.47,-8.57 v 0 0 c 11.61,-6.24 18.11,-16.77 22.09,-27.21 3.06,-8.02 4.86,-16.55 5.96,-25.62 30.12,-20.23 62.46,-43.94 92.29,-70.16 20.26,-17.81 39.55,-36.81 56.33,-56.99 z m -634.748,20.62 c 1.58,1.23 3.24,2.39 4.98,3.47 8.61,5.32 18.46,8.66 29.558,10.48 0.71,2.68 1.27,5.37 2.01,8.03 10.5,37.92 24.62,75.26 44.52,107.69 -23.99,-5.28 -46.81,-10.51 -67.858,-15.92 v 0 0 c -0.57,-0.14 -16.16,-5.16 -34.02,-11.81 -7.01,-2.61 -15.01,-5.75 -23.01,-8.91 -5.19,-25.18 -10.45,-50.38 -15.72,-75.61 19.03,-6.53 39.39,-12.44 59.54,-17.41 z m 147.558,8.2 c -0.1,0 0,0 -0.11,0 v 0 c 0,0 0.1,0 0.1,0 z m 289.36,10 c 0.33,1.83 0.74,3.65 1.05,5.47 3.49,20.76 5.33,41.05 5.31,58.01 -35.08,22.58 -63.53,38.71 -80.8,48.63 -0.34,0.1 -0.42,0.1 -0.75,0.12 -0.97,-2 -1.98,-3.98 -2.9,-6.01 v 0 c -9.09,-20.13 -14.78,-36.49 -18.25,-49.57 33.77,-19.45 66.78,-38.74 94.04,-55.23 0.9,-0.53 1.42,-0.88 2.3,-1.42 z m -538.158,15.56 c 2.64,12.7 5.32,25.4 7.94,38.12 -15.91,-7.48 -30.19,-15.04 -39.24,-21.17 8.13,-5.61 18.87,-11.32 31.3,-16.95 z m 402.008,63.81 c 3.89,12 9.1,25.27 15.6,39.98 -22.28,3.46 -63.6,10.02 -73.05,11.47 -5.08,0.77 -8.64,1.32 -11.14,1.72 -2.5,0.4 -1.8,-0.1 -6.59,1.28 -0.6,0.17 -1.29,0.32 -3.11,1.14 -0.91,0.42 -2.12,0.9 -4.29,2.54 -0.91,0.69 -2.29,1.77 -3.67,3.32 -5.88,-1.37 -11.75,-2.75 -17.59,-4.07 2.31,-1.23 3.83,-1.97 6.23,-3.26 28.76,-15.43 62.97,-34.49 97.61,-54.12 z m -337.338,45.63 c 0.1,0 0.23,0.1 0.34,0.13 18.54,6.9 30.77,11.23 38.45,13.2 2.42,0.62 5.01,1.21 7.46,1.82 -10.31,0.84 -20.78,1.97 -31.45,3.87 -6.01,1.08 -10.51,2.88 -14.12,4.9 -0.21,-2.32 -0.38,-4.75 -0.46,-7.44 -0.17,-4.96 -0.14,-10.68 -0.22,-16.48 z m 381.988,46.98 c 1.16,1.67 2.38,3.31 3.56,4.96 -2.76,-0.88 -5.57,-1.68 -8.36,-2.55 1.62,-0.79 3.21,-1.61 4.8,-2.41 z m -309.94,11.6 c -17.598,2.71 -36.338,5.83 -55.738,9.9 6.34,-4.72 12.21,-7.03 6.27,-5.97 v 0 0 c 15.23,-2.73 32.06,-3.33 49.468,-3.93 z m 149.77,13.98 c 3.26,0.95 6.55,1.84 9.92,2.58 v 0 c 24.91,5.48 49.82,4.56 73.95,-0.31 9.36,2.47 18.72,4.94 27.98,7.58 43.11,12.3 84.7,26.6 122.53,43.6 33.87,27.43 71.79,50.08 110.38,69.12 5.61,5.13 11.02,10.37 16.02,15.84 6.19,6.75 8.39,11.58 9,14.08 0.61,2.51 0.48,3.04 -0.54,5.18 -2.04,4.27 -11.97,13.42 -26.57,21.59 -49,27.42 -119.13,67.67 -190.83,95.99 -71.71,28.32 -144.31,43.21 -195.28,26.63 v 0 0 c -59.36,-19.31 -116.188,-49.31 -172.058,-81.48 v 0 0 c -40.31,-23.2 -65.3,-35.19 -77.94,-45.64 -12.64,-10.46 -17.06,-18.44 -22.11,-47.78 -3.73,-21.65 1.85,-33.51 15.38,-46.16 13.54,-12.65 36.77,-23.66 63.96,-31.8 54.38,-16.27 121.258,-21.26 160.468,-30.5 32.56,-7.66 56.19,-13.5 75.75,-18.51 z"
       id="path1112" />
  </g>
</svg>
