<?xml version="1.0" encoding="UTF-8" standalone="no"?>
<!-- Created with Inkscape (http://www.inkscape.org/) -->

<svg
   width="1193.05mm"
   height="1442.73mm"
   viewBox="0 0 1193.05 1442.73"
   version="1.1"
   id="svg5"
   inkscape:version="1.1 (c68e22c387, 2021-05-23)"
   sodipodi:docname="empty.svg"
   xmlns:inkscape="http://www.inkscape.org/namespaces/inkscape"
   xmlns:sodipodi="http://sodipodi.sourceforge.net/DTD/sodipodi-0.dtd"
   xmlns:xlink="http://www.w3.org/1999/xlink"
   xmlns="http://www.w3.org/2000/svg"
   xmlns:svg="http://www.w3.org/2000/svg">
  <sodipodi:namedview
     id="namedview7"
     pagecolor="#ffffff"
     bordercolor="#666666"
     borderopacity="1.0"
     inkscape:pageshadow="2"
     inkscape:pageopacity="0.0"
     inkscape:pagecheckerboard="0"
     inkscape:document-units="mm"
     showgrid="false"
     inkscape:zoom="0.113407"
     inkscape:cx="2349.95"
     inkscape:cy="1842.93"
     inkscape:window-width="1920"
     inkscape:window-height="1047"
     inkscape:window-x="-9"
     inkscape:window-y="-9"
     inkscape:window-maximized="1"
     inkscape:current-layer="layer1"
     fit-margin-top="0"
     lock-margins="true"
     fit-margin-left="0"
     fit-margin-right="0"
     fit-margin-bottom="0"
     showguides="false">
    <inkscape:grid
       type="axonomgrid"
       id="grid952"
       spacingy="50"
       originx="861.401"
       originy="3486.64" />
  </sodipodi:namedview>
  <defs
     id="defs2">
    <linearGradient
       inkscape:collect="always"
       id="linearGradient863">
      <stop
         style="stop-color:#552200;stop-opacity:1;"
         offset="0"
         id="stop857" />
      <stop
         style="stop-color:#754a2e;stop-opacity:1"
         offset="0.370632"
         id="stop920" />
      <stop
         style="stop-color:#754a2e;stop-opacity:1"
         offset="0.601015"
         id="stop859" />
      <stop
         style="stop-color:#552200;stop-opacity:1"
         offset="1"
         id="stop861" />
    </linearGradient>
    <linearGradient
       inkscape:collect="always"
       id="linearGradient7136">
      <stop
         style="stop-color:#552200;stop-opacity:1;"
         offset="0"
         id="stop7132" />
      <stop
         style="stop-color:#754a2e;stop-opacity:1"
         offset="0.291601"
         id="stop7238" />
      <stop
         style="stop-color:#552200;stop-opacity:1"
         offset="1"
         id="stop7134" />
    </linearGradient>
    <linearGradient
       inkscape:collect="always"
       id="linearGradient1107">
      <stop
         style="stop-color:#214c21;stop-opacity:1;"
         offset="0"
         id="stop1103" />
      <stop
         style="stop-color:#41a241;stop-opacity:1"
         offset="1"
         id="stop1105" />
    </linearGradient>
    <linearGradient
       inkscape:collect="always"
       xlink:href="#linearGradient7136"
       id="linearGradient7138"
       x1="1978.13"
       y1="-2531.97"
       x2="3054.92"
       y2="-1452.56"
       gradientUnits="userSpaceOnUse"
       gradientTransform="translate(-2726.68,-571.137)" />
    <linearGradient
       inkscape:collect="always"
       xlink:href="#linearGradient1107"
       id="linearGradient1207"
       gradientUnits="userSpaceOnUse"
       x1="1898.07"
       y1="-2490.91"
       x2="1902.54"
       y2="-3452.09"
       gradientTransform="matrix(0.613129,0,0,0.613129,-1388.83,-1166.32)" />
    <linearGradient
       inkscape:collect="always"
       xlink:href="#linearGradient1107"
       id="linearGradient1784"
       gradientUnits="userSpaceOnUse"
       gradientTransform="matrix(0,0.595963,-0.595963,0,-1751.52,-3051.85)"
       x1="946.189"
       y1="-1616.69"
       x2="859.586"
       y2="-3366.69" />
    <linearGradient
       inkscape:collect="always"
       xlink:href="#linearGradient863"
       id="linearGradient1327"
       gradientUnits="userSpaceOnUse"
       x1="-1249.37"
       y1="-1734.8"
       x2="-2637.51"
       y2="-1712.86"
       gradientTransform="translate(-1328.65,1262.59)" />
  </defs>
  <g
     inkscape:label="Layer 1"
     inkscape:groupmode="layer"
     id="layer1"
     transform="translate(824.531,3428.33)">
    <path
       style="color:#000000;opacity:0;fill:url(#linearGradient7138);stroke:none;stroke-width:25;stroke-linejoin:round;-inkscape-stroke:none"
       d="M -824.531,-3178.65 H 368.517 V -1985.6 H -824.531 Z"
       id="rect1393" />
    <rect
       style="opacity:1;fill:url(#linearGradient1327);fill-opacity:1;stroke-width:68.7238;stroke-linecap:round;stroke-linejoin:round"
       id="rect866"
       width="1138.68"
       height="1138.68"
       x="-3882.94"
       y="-997.126"
       ry="22.0296"
       transform="rotate(45)" />
    <g
       id="g3003"
       transform="translate(0.427951,-81.8017)">
      <path
         style="color:#000000;fill:url(#linearGradient1784);stroke-width:0.595963;-inkscape-stroke:none"
         d="m 303.822,-2627.76 c 0.717,-21.77 -3.55,-43 -18.094,-59.62 -11.641,-13.29 -19.51,-20.83 -25.92,-25.84 -6.426,-5.01 -11.339,-7.3 -13.898,-8.8 -2.558,-1.48 -4.24,-2.53 -9.312,-8.24 -5.082,-5.71 -12.836,-15.77 -24.884,-33.14 -9.366,-13.51 -16.014,-29.74 -19.351,-46.18 0.09,0.25 0.318,-9.88 0.628,-18.18 0.159,-4.15 0.868,-7.66 -1.434,-14.14 -1.151,-3.24 -4.444,-9.02 -11.278,-11.06 -6.852,-2.02 -12.119,0.65 -15.066,2.6 -18.714,12.33 -29.072,29.52 -36.215,46.5 -7.153,16.98 -11.818,34.1 -19.502,50.35 v 0 c -7.277,15.43 -15.6509,30.83 -23.9986,46.49 -23.919,-37.52 -62.0017,-67.88 -106.6351,-91.16 -2.098,-14.98 -3.718,-28.73 -5.152,-43.95 1.7262,-4.24 3.3196,-8.57 4.7271,-13.04 v 0 c 4.2491,-13.5 0.8764,-24.99 -4.3996,-33.5 -1.319,-2.13 -2.7708,-4.16 -5.3291,-6.3 -2.576,-2.13 -7.5068,-5.57 -15.0312,-3.71 -7.5157,1.85 -11.1274,8.6 -12.1189,12.31 -0.9914,3.72 -0.9029,6.5 -0.6639,9.53 0.8321,11.05 1.6111,20.41 2.4078,29.39 -4.2048,8.95 -9.2241,17.88 -14.6771,26.95 -9.4012,-3.54 -18.9174,-6.87 -28.5399,-9.88 -23.9725,-7.51 -48.5375,-13.34 -72.9345,-17.44 -0.115,-1.99 -0.38,-4.1 -1.115,-6.57 -0.992,-3.31 -3.205,-7.57 -7.348,-10.55 -4.142,-2.97 -9.312,-3.84 -13.26,-3.54 -13.447,1.02 -24.468,6.86 -33.719,14.4 -44.199,-2.39 -85.867,1.77 -120.161,13.56 -13.075,4.49 -25.362,12.59 -35.719,23.08 -12.491,-2.18 -24.937,-4.09 -37.26,-5.98 -45.722,-7.07 -89.452,-14.37 -126.951,-34.88 l 0.142,-5.6 c 0.106,0 -5.09,-0.61 -9.109,-1.06 -2.01,-0.22 -2.992,-0.7 -7.295,-0.2 -1.08,0.13 -2.434,0.13 -5.293,1.53 -1.434,0.71 -3.4,1.86 -5.329,4.37 -1.939,2.49 -3.32,6.62 -3.116,10.04 0.38,6.86 3.487,9.03 4.877,10.33 1.381,1.3 2.266,1.81 3.045,2.28 v 0 0 c 45.28,27.3 95.889,35.12 144.479,42.63 7.569,1.18 14.969,2.41 22.423,3.62 -6.577,13.3 -10.136,28.68 -8.135,43.97 -1.983,0.44 -3.975,0.84 -5.958,1.27 -7.533,-17.74 -16.837,-33.27 -28.903,-44.25 -3.434,-3.13 -9.118,-5.35 -14.075,-5.09 -4.939,0.25 -8.613,2.15 -11.411,4.06 -5.594,3.82 -8.993,8.37 -12.614,13.67 -7.241,10.59 -14.146,24.59 -20.732,39.36 -1.709,3.84 -3.249,7.69 -4.878,11.55 -6.064,1.18 -14.597,0.94 -24.432,1.26 -10.03,0.33 -22.087,1.4 -33.205,8.85 v 0 0 c -2.514,1.68 -5.126,4.57 -6.684,8.06 -0.513,-1.84 -0.947,-3.72 -1.496,-5.53 -6.179,-20.66 -14.473,-40.23 -28.221,-54.95 -13.765,-14.72 -34.63,-23.42 -57.974,-19.4 v 0 0 c -22.901,3.94 -38.844,11.65 -50.131,25.3 -11.295,13.65 -18.554,30.48 -33.656,56.7 -22.051,38.29 -43.385,78.38 -57.478,121.72 -15.111,46.46 -1.629,100.76 18.581,151.91 20.201,51.14 48.148,99.59 66.472,132.34 v 0 0 c 6.621,11.83 14.119,23.75 27.708,30.25 4.7,2.26 10.286,3.41 15.952,3.3 -4.701,11.9 -9.021,23.62 -12.943,34.9 -2.753,7.93 -6.391,11.31 -7.825,21.45 -0.717,5.07 0.761,11.8 3.638,16.35 2.877,4.54 6.339,7.7 10.65,11.3 13.464,11.24 30.221,14.02 45.607,13.72 15.385,-0.31 30.266,-3.6 42.721,-6.47 v 0 0 c 57.939,-13.36 115.452,-13.35 174.993,-33.4 -2.665,8.91 -5.675,18.1 -8.888,29.47 0.841,-2.96 -1.213,1.69 -3.452,5.66 -1.116,1.97 -2.709,3.49 -3.4,9.31 -0.354,2.9 0,8.56 4.134,13.03 4.143,4.46 9.393,5.18 12.332,5.16 v 0 c 44.518,-0.4 87.124,-9.06 127.836,-9.68 v 0 c 28.177,-0.43 43.536,-0.39 51.467,-0.1 3.4,0.14 4.772,0.35 5.48,0.46 0.744,0.51 1.531,1.07 2.62,1.66 2.78,1.49 5.905,2.55 9.924,3.49 8.029,1.88 20.449,3.55 44.615,5.41 v 0 c 2.178,0.17 8.446,1.77 15.749,2.39 3.656,0.31 7.834,0.48 12.915,-1.14 5.081,-1.62 11.128,-6.3 13.712,-12.32 v 0 0 c 19.316,-45.1 20.272,-88.45 10.092,-128.97 2.647,-0.1 5.276,-0.11 7.932,-0.21 125.9684,-4.66 252.627,-19.89 283.132,-22.2 v 0 c 15.492,-1.18 37.375,3.49 59.497,5.43 22.122,1.95 47.679,0.57 64.666,-19.21 v 0 0 c 4.692,-5.45 5.604,-14.9 3.532,-20.42 -2.062,-5.55 -5.161,-8.72 -8.135,-11.5 -5.967,-5.57 -12.42,-9.2 -17.696,-11.69 v 0 0 c -28.009,-13.2 -56.345,-25.56 -84.867,-37.41 0.31,-0.6 0.655,-1.14 0.921,-1.78 v 0 c 10.702,-26.21 9.171,-55.21 3.204,-80.41 -8.958,-37.89 -11.791,-91.97 -51.733,-121.66 v 0 0 c -6.595,-4.9 -13.933,-9.38 -21.821,-13.54 -2.549,-18.64 -6.816,-37.11 -13.73,-55.13 11.083,-21.72 23.477,-43.58 34.418,-66.75 v 0 c 9.056,-19.17 13.951,-37.13 20.015,-51.53 2.018,-4.79 4.108,-9.11 6.427,-13.09 0.1,0.57 0.159,1.13 0.283,1.71 v 0 0 c 4.09,20.21 12.119,40.03 24.07,57.25 12.375,17.85 20.564,28.61 27.097,35.96 6.515,7.34 12.101,11.58 16.553,14.18 4.462,2.6 6.33,3.23 10.579,6.54 4.258,3.32 10.933,9.53 21.839,21.99 v 0 0 c 9.374,10.7 12.189,25.79 10.242,46.57 -1.939,20.78 -8.897,45.87 -16.43,71.93 -7.542,26.06 -15.624,53.15 -19.103,79.44 -3.479,26.29 -2.453,52.56 10.764,75.01 l 25.681,-15.11 c -8.304,-14.11 -9.933,-33.1 -6.905,-56 3.036,-22.88 10.623,-48.89 18.182,-75.06 7.569,-26.17 15.156,-52.48 17.484,-77.44 0.292,-3.11 0.495,-6.24 0.602,-9.35 z m -41.305,293.57 c -7.666,3.99 -18.103,4.5 -32.205,3.26 -19.165,-1.68 -41.862,-7.16 -64.365,-5.46 -33.931,2.57 -157.67728,17.54 -281.982,22.13 -5.488,0.2 -10.906,0.25 -16.376,0.42 -0.549,-1.41 -1.116,-2.83 -1.682,-4.25 1.637,-1.79 3.248,-3.62 4.842,-5.47 32.2401,1.75 65.994,1.89 101.421,2.04 v 0 0 c 47.9795,0.2 107.653,-3.71 146.099,-42.32 v 0 c 5.585,-5.62 9.197,-11.97 11.446,-18.66 4.435,-0.46 8.879,-0.86 13.314,-1.34 1.407,-0.14 3.532,-0.26 5.515,-0.39 36.728,14.82 73.111,30.3 108.777,47.11 1.381,0.65 3.311,1.75 5.187,2.93 z m -98.491,-110.26 c -0.159,10.31 -1.788,20.21 -5.161,28.9 -0.194,0 -0.672,0.15 -2.381,0.5 -0.982,0.19 -2.479,0.28 -3.753,0.41 -7.286,-2.92 -14.58,-5.85 -21.883,-8.72 -3.222,-18.34 -8.693,-36.04 -9.667,-48.89 -2.638,-34.77 -0.54,-72.18 -2.24,-109.76 0.275,0.2 0.594,0.39 0.859,0.59 v 0 c 25.424,18.89 30.727,63.21 40.508,104.59 2.497,10.56 3.869,21.68 3.709,32.38 z m -66.4541,8.21 c -8.8523,-3.39 -17.6958,-6.81 -26.5481,-10.15 -4.851,-1.84 -9.7287,-3.66 -14.5797,-5.48 4.9484,-19.79 9.7464,-39.69 13.7565,-59.95 v 0 0 c 6.4622,-32.73 2.8327,-64.21 5.869,-91.36 3.9482,1.41 7.737,2.88 11.393,4.39 3.355,40.91 0.6816,84.97 4.0012,128.8 v 0 c 0.8853,11.6 3.5498,22.99 6.0993,33.75 z m -7.2146,57.34 c -16.2794,12.83 -38.3571,20.02 -62.1522,23.81 0.2568,-0.45 0.5135,-0.92 0.7259,-1.34 1.3987,-2.74 2.399,-5.39 3.5321,-8.59 1.0446,-2.92 2.1334,-6.3 3.24,-9.81 18.2003,-1.24 36.4184,-2.56 54.6542,-4.07 z m -3.656,-29.59 c -14.0398,1.15 -28.1327,2.14 -42.2167,3.13 2.4078,-8.87 4.3199,-16.1 4.5678,-17.09 v 0 c 0,-0.1 0.089,-0.21 0.089,-0.31 3.7888,1.42 7.5776,2.84 11.3664,4.27 8.7549,3.29 17.4656,6.68 26.194,10.02 z m -17.5365,-266.56 c -5.152,10.74 -9.9323,21.78 -14.1283,33.21 -11.0919,-3.01 -22.6619,-5.66 -34.5506,-8.05 -1.6908,-6.52 -3.355,-12.96 -5.5592,-20.83 -8.89662,-31.76 -26.0082,-62.99 -30.2219,-88.96 v 0 c -0.088,-0.2 -0.088,-0.33 -0.088,-0.54 38.4545,23.52 68.8445,52.51 84.5397,85.17 z m -22.2813,62.73 c -5.7008,34.06 -0.4426,67.08 -5.9133,94.72 -3.3727,17.05 -7.3828,34.08 -11.5877,51.13 0,-5.79 -0.088,-11.62 -0.088,-17.4 0.1682,-53.3 2.7265,-77.02 2.1865,-100.02 -0.2479,-10.67 -1.2924,-20.94 -3.4878,-33.11 6.4445,1.48 12.7739,3.03 18.8554,4.68 z m -44.39434,242.08 c 0,0 -0.0885,0.22 -0.0885,0.24 -0.0885,0.1 -0.0885,0.1 0.0885,-0.24 z m -0.41606,17.97 c -9.99427,0.67 -20.0151,1 -29.7792,0.95 -28.0442,-0.11 -54.7605,-0.25 -80.1579,-1.16 2.815,-4.28 5.586,-8.56 8.1885,-12.76 7.3917,-0.66 14.7745,-1.33 22.1397,-1.88 v 0 c 25.353,-1.93 50.8211,-3.58 76.30698,-5.25 -0.0885,0.37 -0.10623,0.49 -0.21245,0.9 -0.51344,1.94 -1.23048,4.53 -0.9295,8.47 0.23901,3.16 1.797023,7.4 4.44387,10.73 z m -0.34524,-230.91 c 0.46917,20.14 -2.027185,45.01 -2.195379,99.22 0,3.58 0.08852,7.14 0.08852,10.72 -16.058101,-6.02 -32.151601,-11.97 -48.245101,-17.94 0.6462,-4.5 1.1773,-8.95 1.496,-13.33 3.3108,-45.12 -11.4726,-83.08 -38.5076,-111.22 -7.1615,-7.45 -15.1463,-14.22 -23.7683,-20.43 8.047,0.56 16.111,1.13 24.1932,1.86 27.7343,2.46 55.389,6.17 81.53874,10.89 3.611745,16.3 5.16976,28.02 5.45303,40.23 z m -1.938662,180.88 c -26.477298,1.73 -53.007698,3.45 -79.582398,5.46 -0.6019,0.1 -1.195,0.11 -1.797,0.15 12.0834,-23.02 20.9092,-44.67 26.6366,-65.04 18.2093,6.75 36.4362,13.53 54.627718,20.36 0.08852,13.05 0.08852,26.07 0.11508,39.07 z M -11.8693,-2655.59 c -23.0957,-3.55 -46.935,-6.27 -70.7655,-8.39 -6.9136,-0.63 -13.7742,-1.09 -20.6432,-1.6 8.6395,-35.32 18.8728,-67.98 30.7968,-92.91 v 0 0 c 3.9039,-8.16 8.6222,-16.29 13.6149,-24.51 3.5498,1.59 7.0819,3.19 10.552,4.86 1.1154,7.36 2.1865,14.52 3.6029,23.25 5.515,33.9 23.5472,65.79 30.9565,92.21 0.7613,2.74 1.1951,4.57 1.8856,7.09 z m -64.6574,135.18 c 0.097,4.44 -0.088,9 -0.3806,13.73 -0.1239,1.62 -0.301,3.28 -0.478,4.93 -4.9308,-1.81 -9.8615,-3.64 -14.8011,-5.45 -2.8062,-5.35 -5.9842,-10.56 -9.5256,-15.53 -6.816,-9.56 -14.863,-18.49 -23.679,-27.05 2.602,-17.55 5.674,-35.68 9.047,-53.87 3.24,2.75 6.311,5.6 9.153,8.57 19.0589,19.82 30.0712,43.7 30.6643,74.67 z m -10.4634,-274.04 c -4.3199,7.43 -8.5336,15.08 -12.3667,23.12 -13.9422,29.12 -25.3172,65.43 -34.5332,103.83 -9.507,-0.48 -18.82,-0.89 -28.008,-1.2 -4.639,-49.47 -8.392,-99.27 -13.863,-149.17 22.405,3.75 44.987,9.05 66.932,15.92 7.383,2.32 14.6508,4.86 21.8389,7.5 z m -21.0069,341.62 c -0.265,8.74 -2.018,18.02 -5.435,28.07 v 0 c -3.284,9.65 -11.393,21.08 -23.087,33.02 -12.251,1.22 -24.432,2.43 -36.631,3.68 -24.158,-35.23 -52.644,-68.37 -79.325,-100.16 v 0 c -31.107,-37.09 -62.56,-54.33 -88.116,-65.62 -0.231,-2.14 -0.47,-4.47 -0.691,-6.53 8.348,1.9 16.545,4.07 24.539,6.65 v 0 0 c 49.015,15.86 97.756,32.6 146.364,49.89 1.602,10.72 3.107,21.43 4.497,32.12 -1.478,6.22 -3.426,13.16 -4.568,21.07 -1.717,12.07 0.992,28.67 13.792,39.67 v 0 0 c 2.859,2.46 7.126,7.08 16.642,4.73 4.754,-1.17 8.64,-4.96 10.296,-7.86 1.664,-2.9 2.036,-5.11 2.292,-6.94 1.027,-7.33 -0.283,-11.88 -1.451,-17.92 -2.24,-11.64 -5.869,-25.86 -6.719,-31.59 0.425,-2.38 0.85,-4.78 1.115,-7.35 v 0 c 0.399,-3.92 0.965,-8.42 1.425,-12.54 6.507,2.35 12.996,4.75 19.493,7.13 3.913,9.66 5.896,19.66 5.559,30.48 z m -29.239,19.26 c -0.319,-0.28 -0.434,-0.45 -0.717,-0.71 0.487,0.41 0.761,0.73 0.717,0.71 z m -6.418,-188.53 c -2.903,14.95 -5.435,29.78 -7.781,44.49 -1.939,-13.42 -3.762,-26.8 -5.267,-40.17 v 0 0 c -0.434,-3.8 -0.761,-7.63 -1.169,-11.45 4.94,2.25 9.658,4.63 14.217,7.13 z m -2.266,383.61 c 0.54,21.43 -3.311,43.53 -12.553,66.72 -3.363,-0.47 -8.285,-1.68 -14.544,-2.16 v 0 0 c -23.512,-1.81 -35.232,-3.57 -40.128,-4.71 -2.248,-0.54 -2.611,-0.78 -2.39,-0.67 -0.115,-0.1 -0.203,-0.17 -0.956,-0.72 -1.991,-1.44 -5.878,-3.2 -9.056,-3.85 -3.178,-0.65 -6.4,-0.92 -11.109,-1.13 -9.428,-0.41 -24.858,-0.41 -53.212,0 v 0 0 c -36.852,0.57 -72.385,6.54 -106.644,8.79 4.63,-15.57 9.26,-28.84 12.81,-45.12 0.257,-0.1 0.398,-0.16 0.655,-0.26 4.683,2.72 9.436,5.3 14.279,7.51 30.461,13.89 65.569,15.83 97.791,-3.6 v 0 c 32.842,-19.81 67.986,-40.31 99.447,-65.52 6.046,-0.1 12.146,-0.17 18.236,-0.28 4.355,14.76 6.993,29.71 7.383,45 z m -23.786,-86.01 c -4.17,3.94 -8.454,7.8 -12.898,11.56 -3.311,0 -6.56,-0.1 -9.844,-0.1 7.401,-4.45 14.624,-9 21.635,-13.63 0.363,0.71 0.753,1.42 1.107,2.13 z m -5.807,-212.74 c -43.819,-15.48 -87.798,-30.51 -132.059,-44.83 -12.243,-3.97 -24.583,-6.98 -36.906,-9.48 -0.663,-7.15 -1.08,-12.32 -1.115,-14.42 v 0 c -0.133,-9.36 0.469,-18.34 1.691,-27.02 14.093,-1.56 25.795,-2.53 36.241,-3.32 32.957,21.06 68.429,40.64 100.217,61.21 10.26,6.63 20.033,13.36 29.266,20.17 0.894,5.9 1.753,11.81 2.665,17.69 z m -8.472,-58.08 c -2.426,-1.61 -4.825,-3.23 -7.277,-4.81 -20.608,-13.32 -42.181,-26.3 -63.285,-39.19 18.873,-0.54 41.402,-0.65 65.667,-0.24 0.85,8.38 1.62,16.74 2.567,25.12 0.726,6.4 1.505,12.76 2.328,19.12 z m -8.286,-78.36 c -40.287,-10.95 -85.912,-15.73 -133.36,-15.73 10.587,-20.58 24.804,-39.68 41.208,-58.35 0.841,-0.39 1.69,-0.75 2.54,-1.18 3.373,-1.71 6.622,-2.89 10.65,-8.15 1.425,-1.85 3.062,-5 3.505,-8.81 5.303,-5.55 10.676,-11.08 16.244,-16.63 v 0 c 12.446,-12.42 21.998,-27.18 31.656,-38.23 0.779,-0.88 1.505,-1.53 2.257,-2.35 3.886,0.31 7.799,0.71 11.721,1.11 0,1.74 0.09,3.51 0.265,5.39 5.232,47.31 8.915,95.04 13.314,142.93 z m -15.004,289.05 c -18.404,1.77 -36.764,3.31 -55.071,4.53 -24.777,-10.78 -47.439,-25.69 -68.357,-46.7 0,-0.89 0.09,-1.66 0,-2.58 -0.231,-19.42 -1.974,-43.39 -4.17,-67.62 -0.681,-7.51 -1.443,-14.84 -2.186,-22.24 19.315,9.93 39.871,24.11 61.736,50.17 23.211,27.67 47.147,55.79 68.021,84.44 z m -8.074,50.46 c -11.41,6.7 -23.14,13.22 -35.055,19.49 -13.792,-0.79 -27,-1.87 -39.428,-3.29 -33.48,-3.83 -60.727,-11.09 -78.202,-19.27 0.399,-4.5 0.797,-9.01 1.134,-13.42 11.552,1.8 23.175,2.72 34.63,2.78 v 0 c 21.838,0.11 43.553,-0.66 65.188,-1.98 10.933,4.46 22.149,8.2 33.613,11.32 5.966,1.63 12.021,3.04 18.111,4.37 z m -6.329,50.5 c -20.874,14.13 -42.934,27.34 -64.702,40.47 -20.316,12.26 -39.286,13.03 -59.443,6.17 29.151,-12.35 65.348,-28.49 102.129,-47.49 7.232,0.36 14.571,0.64 22.016,0.85 z m -33.488,-540.8 c -6.153,7.9 -11.854,15.35 -17.36,20.83 -5.028,5.02 -9.95,10.15 -14.881,15.27 -18.784,-9.41 -38.295,-15.95 -58.053,-20.94 2.284,-1.21 4.541,-2.29 6.701,-3.04 v 0 c 23.122,-7.95 51.99,-11.89 83.593,-12.12 z m -46.201,535.07 c -29.637,13.88 -56.07,25.05 -76.723,33.54 2.505,-17.01 4.896,-33.66 6.71,-48.98 19.422,7.63 43.306,12.1 70.013,15.44 z m -14.881,-479.27 c -22.015,5.66 -44.199,10.83 -66.445,15.82 -0.637,-8.75 1.992,-17.78 7.082,-26.91 0.965,-1.73 2.045,-3.41 3.178,-5.07 19.563,4 38.41,9.02 56.185,16.16 z m -2.151,390.8 c -4.567,0.1 -9.162,0.22 -13.721,0.19 v 0 0 c -4.134,0 -8.294,-0.2 -12.455,-0.48 1.744,-1.42 3.435,-2.91 4.993,-4.52 v 0 c 2.558,-2.64 4.152,-5.1 5.223,-7.49 5.231,4.35 10.543,8.48 15.96,12.3 z m -14.889,-355.82 c -6.206,8.92 -11.96,18.11 -17.05,27.67 -7.002,-6.37 -13.296,-12.81 -18.66,-19.36 11.915,-2.72 23.83,-5.42 35.71,-8.31 z m -27.398,318.32 c -0.133,3.02 -0.301,5.87 -0.567,8.05 -0.301,2.53 -1.151,4.43 -1.478,5.27 -0.602,0.48 -1.036,0.89 -1.859,1.45 0.1,-6.33 0.115,-12.68 0.09,-19.03 1.266,1.45 2.559,2.86 3.842,4.26 z m -1.54,-49.83 c -1.47,-2.15 -2.957,-4.27 -4.409,-6.5 -1.407,-19.94 -3.497,-40.84 -6.32,-63.5 1.504,0.63 3.062,1.28 4.576,1.91 1.319,12.65 2.656,25.76 3.851,38.98 0.903,9.95 1.638,19.65 2.302,29.11 z m -12.013,-163.85 c -0.779,7.64 -1.266,15.43 -1.151,23.51 0.09,2.38 0.221,5.36 0.469,8.69 -2.266,-0.36 -4.532,-0.74 -6.798,-1.08 -0.611,-4.1 -1.142,-7.79 -1.983,-12.97 -0.779,-4.74 -1.886,-10.63 -2.868,-16.13 4.143,-0.72 8.268,-1.4 12.331,-2.02 z m -1.151,-30.04 c -5.488,0.82 -11.154,1.78 -16.837,2.77 -0.1,-0.41 -0.195,-0.83 -0.283,-1.24 4.267,-0.98 10.171,-1.36 17.12,-1.53 z m -1.39,-30.26 c -7.63,0.21 -15.111,0.94 -22.44,2.74 -2.514,-10.15 -5.267,-20.28 -8.33,-30.18 2.248,-0.49 4.505,-0.96 6.754,-1.45 6.799,10.18 14.898,19.78 24.016,28.89 z m -17.315,283 c -0.09,6.03 -0.186,12.05 -0.38,18.07 -6.241,-2.26 -12.243,-4.93 -17.98,-7.96 -0.09,-0.14 0.09,0.1 -0.09,-0.25 -0.505,-1.73 -1.009,-5.59 -1.204,-10.36 -0.381,-9.54 0.398,-22.43 -3.16,-35.66 -1.78,-6.63 -4.896,-13.64 -10.632,-19.42 -5.745,-5.78 -13.925,-9.66 -22.954,-10.93 -3.355,-0.47 -6.905,-0.56 -10.561,-0.47 -14.925,-26.21 -29.54,-52.42 -41.075,-73.94 -5.877,-10.96 -10.959,-20.88 -14.933,-28.85 3.328,-2.94 6.842,-5.8 10.684,-8.52 19.077,-13.51 44.049,-23.8 70.438,-31.35 0.593,7.24 1.594,13.89 3.037,19.97 -1.656,1.87 -3.054,4.19 -3.789,7.15 v 0 0 c -2.08,8.37 2.239,14.8 4.019,17.23 0.867,1.17 1.328,1.96 1.496,2.23 11.171,32.44 15.004,72.08 35.427,107.28 1.221,19.25 1.761,37.57 1.611,55.78 z m -5.426,85.48 c -1.541,14.13 -3.524,29.25 -5.728,44.89 -7.825,-7.36 -15.518,-15.32 -22.91,-23.73 -12.03,-13.68 -23.201,-28.23 -33.426,-42.58 8.02,-0.7 16.235,-1.72 24.548,-3.11 5.16,-0.87 10.33,-1.88 15.465,-2.97 4.913,7.66 9.002,13.64 12.322,17.72 v 0 c 2.886,3.56 6.152,6.8 9.729,9.78 z m -12.579,78.83 c -59.001,23.77 -119.772,22.61 -187.581,38.26 -12.092,2.78 -25.265,5.48 -36.622,5.7 -11.358,0.24 -20.042,-1.89 -25.911,-6.79 v 0 0 c -1.275,-1.06 -2.027,-1.81 -2.762,-2.52 1.16,-2.56 3.063,-7.32 5.356,-13.93 8.427,-24.28 18.581,-50.05 30.894,-75.1 18.564,-21.13 33.648,-46.23 46.289,-73.61 12.27,-14.94 25.831,-28.38 40.898,-39.47 1.151,7.23 0.894,5.89 2.24,14.24 v 0 c 0.964,6.04 -2.214,19.19 5.78,34.05 v 0 0 c 4.214,7.83 11.313,12.22 18.36,14.9 5.409,2.07 11.163,3.28 17.28,4.02 13.65,20.32 29.646,42.14 47.333,62.26 12.013,13.67 24.831,26.68 38.446,38 z m -13.907,-428.21 c -0.833,1.07 -1.62,2.19 -2.346,3.36 -3.585,5.81 -5.843,12.46 -7.064,19.95 -1.815,0.48 -3.63,0.85 -5.418,1.35 -25.583,7.09 -50.777,16.61 -72.651,30.04 3.559,-16.19 7.091,-31.59 10.738,-45.78 v 0 0 c 0.1,-0.39 3.479,-10.9 7.967,-22.96 1.761,-4.73 3.877,-10.12 6.011,-15.52 16.987,-3.5 33.984,-7.04 51.007,-10.6 4.408,12.83 8.392,26.57 11.747,40.16 z m -5.533,99.55 c 0,-0.1 0,0 0,-0.1 v 0 c 0,0 0,0.1 0,0.1 z m -6.746,195.21 c -1.239,0.22 -2.469,0.49 -3.691,0.7 -14.004,2.36 -27.699,3.6 -39.136,3.59 -15.235,-23.67 -26.114,-42.86 -32.807,-54.51 -0.09,-0.23 -0.09,-0.29 -0.09,-0.51 1.345,-0.65 2.682,-1.33 4.054,-1.95 v 0 c 13.579,-6.14 24.618,-9.97 33.435,-12.32 13.128,22.79 26.141,45.05 37.26,63.45 0.363,0.6 0.593,0.95 0.965,1.55 z m -10.498,-363.05 c -8.57,1.77 -17.139,3.58 -25.716,5.35 5.045,-10.73 10.144,-20.37 14.278,-26.47 3.789,5.48 7.64,12.73 11.438,21.12 z m -43.049,271.19 c -8.091,2.63 -17.05,6.15 -26.973,10.53 -2.328,-15.03 -6.755,-42.91 -7.737,-49.28 -0.523,-3.43 -0.885,-5.83 -1.16,-7.52 -0.265,-1.68 0.09,-1.21 -0.867,-4.44 -0.107,-0.41 -0.213,-0.87 -0.762,-2.1 -0.283,-0.61 -0.611,-1.42 -1.717,-2.89 -0.469,-0.61 -1.195,-1.54 -2.24,-2.48 0.921,-3.97 1.859,-7.92 2.745,-11.86 0.832,1.55 1.327,2.58 2.204,4.2 10.41,19.4 23.264,42.48 36.507,65.84 z m -30.78,-227.57 c 0,0.1 -0.09,0.16 -0.09,0.23 -4.657,12.51 -7.578,20.76 -8.906,25.95 -0.416,1.62 -0.814,3.37 -1.23,5.02 -0.567,-6.95 -1.328,-14.02 -2.612,-21.22 -0.726,-4.05 -1.938,-7.09 -3.302,-9.52 1.567,-0.14 3.205,-0.26 5.02,-0.31 3.346,-0.12 7.205,-0.1 11.118,-0.15 z m -31.7,257.7 c -1.124,0.78 -2.231,1.6 -3.346,2.4 0.593,-1.86 1.133,-3.75 1.726,-5.64 0.531,1.1 1.08,2.17 1.62,3.24 z m -7.825,-209.09 c -1.824,-11.87 -3.931,-24.51 -6.675,-37.61 3.187,4.29 4.745,8.24 4.028,4.23 v 0 0 c 1.841,10.28 2.248,21.63 2.647,33.38 z m -9.428,101.04 c -0.638,2.19 -1.239,4.42 -1.744,6.69 v 0 c -3.691,16.8 -3.072,33.61 0.212,49.88 -1.664,6.32 -3.328,12.64 -5.116,18.89 -8.295,29.08 -17.944,57.14 -29.408,82.65 -18.51,22.86 -33.789,48.43 -46.634,74.47 -3.461,3.78 -6.993,7.43 -10.684,10.8 -4.551,4.18 -7.808,5.67 -9.499,6.08 -1.691,0.41 -2.054,0.32 -3.497,-0.37 -2.877,-1.38 -9.047,-8.07 -14.562,-17.92 -18.501,-33.06 -45.651,-80.37 -64.754,-128.74 -19.104,-48.38 -29.151,-97.35 -17.971,-131.74 v 0 0 c 13.031,-40.04 33.267,-78.38 54.973,-116.07 v 0 0 c 15.651,-27.2 23.742,-44.05 30.789,-52.59 7.055,-8.52 12.437,-11.5 32.231,-14.91 14.606,-2.52 22.609,1.25 31.142,10.38 8.534,9.13 15.961,24.81 21.45,43.15 10.976,36.68 14.34,81.8 20.581,108.25 5.161,21.96 9.1,37.91 12.482,51.11 z"
         id="path1782" />
      <rect
         style="fill:#a5613a;stroke:none;stroke-width:3.96874;stroke-linecap:round;stroke-linejoin:round"
         id="rect1503"
         width="116.758"
         height="132.975"
         x="-276.418"
         y="-2634.66"
         ry="19.2332" />
      <rect
         style="fill:url(#linearGradient1207);fill-opacity:1;stroke:none;stroke-width:2.43335;stroke-linecap:round;stroke-linejoin:round"
         id="rect855"
         width="992.228"
         height="748.6"
         x="-720.536"
         y="-3346.53"
         ry="19.2332" />
    </g>
  </g>
</svg>
