<?xml version="1.0" encoding="UTF-8" standalone="no"?>
<!-- Created with Inkscape (http://www.inkscape.org/) -->

<svg
   width="215mm"
   height="215mm"
   viewBox="0 0 215 215"
   version="1.1"
   id="svg22233"
   inkscape:version="1.1 (c68e22c387, 2021-05-23)"
   sodipodi:docname="gradient-overcast.svg"
   xmlns:inkscape="http://www.inkscape.org/namespaces/inkscape"
   xmlns:sodipodi="http://sodipodi.sourceforge.net/DTD/sodipodi-0.dtd"
   xmlns:xlink="http://www.w3.org/1999/xlink"
   xmlns="http://www.w3.org/2000/svg"
   xmlns:svg="http://www.w3.org/2000/svg">
  <sodipodi:namedview
     id="namedview22235"
     pagecolor="#ffffff"
     bordercolor="#666666"
     borderopacity="1.0"
     inkscape:pageshadow="2"
     inkscape:pageopacity="0.0"
     inkscape:pagecheckerboard="0"
     inkscape:document-units="mm"
     showgrid="false"
     inkscape:zoom="0.60221661"
     inkscape:cx="382.75264"
     inkscape:cy="239.11662"
     inkscape:window-width="1920"
     inkscape:window-height="1047"
     inkscape:window-x="-9"
     inkscape:window-y="-9"
     inkscape:window-maximized="1"
     inkscape:current-layer="layer1"
     fit-margin-top="5"
     lock-margins="true"
     fit-margin-left="5"
     fit-margin-right="5"
     fit-margin-bottom="5" />
  <defs
     id="defs22230">
    <linearGradient
       inkscape:collect="always"
       xlink:href="#Sun___Lightning"
       id="linearGradient11549-9"
       gradientUnits="userSpaceOnUse"
       gradientTransform="matrix(0.79472643,0,0,0.79472643,1150.5866,-174.95428)"
       x1="823.86969"
       y1="-30.709837"
       x2="943.86969"
       y2="-30.709837" />
    <linearGradient
       inkscape:collect="always"
       id="Sun___Lightning">
      <stop
         style="stop-color:#ffff00;stop-opacity:1;"
         offset="0"
         id="stop3849" />
      <stop
         style="stop-color:#ffe300;stop-opacity:0.96470588"
         offset="1"
         id="stop3851" />
    </linearGradient>
    <linearGradient
       inkscape:collect="always"
       xlink:href="#Lightcloud"
       id="linearGradient28180"
       x1="12.850543"
       y1="211.04651"
       x2="215.40228"
       y2="211.04651"
       gradientUnits="userSpaceOnUse" />
    <linearGradient
       inkscape:collect="always"
       id="Lightcloud">
      <stop
         style="stop-color:#f9f9f9;stop-opacity:1"
         offset="0"
         id="stop25100" />
      <stop
         id="stop25102"
         offset="0.47307122"
         style="stop-color:#fcfcfc;stop-opacity:1" />
      <stop
         style="stop-color:#fdfdfd;stop-opacity:1"
         offset="1"
         id="stop25104" />
    </linearGradient>
    <clipPath
       clipPathUnits="userSpaceOnUse"
       id="clipPath1667-23-0-5">
      <path
         style="opacity:1;fill:#00f9f9;fill-opacity:1;stroke:none;stroke-width:0;stroke-linecap:round;stroke-linejoin:round;stroke-miterlimit:4;stroke-dasharray:none;stroke-opacity:1"
         d="m 87.558863,180.17146 c -0.540149,2.7481 -1.044488,6.07706 -2.50168,8.50571 -0.628433,1.04739 -1.716805,1.9326 -2.251515,3.00202 -0.399986,0.79998 -1.000672,5.01956 -1.000672,6.00404 0,2.38455 -0.267804,5.5566 -1.000673,7.75521 -0.200133,0.6004 0.200134,1.40094 0,2.00135 -0.950187,2.85056 -0.750504,6.20417 -0.750504,9.25622 0,0.56142 -0.452593,3.5501 0,4.00269 0.355349,0.35535 3.824841,1.16192 4.503026,1.50101 0.522248,0.26112 -0.02191,0.73955 0.500338,1.00067 2.728542,1.36427 4.624943,3.04266 7.505046,4.00269 1.897481,0.6325 8.246081,0 10.507061,0 0.74253,0 1.33062,0.38855 2.00135,0.50034 2.43034,0.40506 6.31929,0.4061 8.75588,0 3.16883,-0.52814 2.05794,-1.71246 3.50236,-2.00135 1.66475,-0.33295 2.94552,0.27842 4.50303,-0.50033 1.53385,-0.76693 5.70318,0.0562 7.25487,0.25016 2.07883,0.25986 5.4127,-0.60497 7.25488,0.50034 0.30337,0.18203 0.45613,0.55426 0.7505,0.75051 0.83342,0.55561 1.85788,0.0714 2.75185,0.25017 1.68805,0.3376 3.3314,1.08301 5.00337,1.501 0.58299,0.14575 0.76788,0.83969 1.25084,1.00068 2.83007,0.94335 11.02738,1.29079 12.50841,4.25285 0.26293,0.52586 0.26869,1.42225 0.50034,2.00135 0.46095,1.15239 1.21731,2.18447 1.75117,3.25219 0.43076,0.86152 0,2.9873 0,4.00269 0,2.61616 -1.67412,3.51185 -3.00202,5.5037 -1.97579,2.96369 -3.95693,4.17537 -7.0047,6.00403 -0.54153,0.32492 -0.97468,0.14945 -1.50101,0.50034 -1.06331,0.70887 -1.29599,1.38721 -2.75185,1.75118 -2.09452,0.52363 -4.83144,0.22602 -6.75455,0.7505 -0.53968,0.14719 -0.97723,0.55409 -1.501,0.75051 -0.32974,0.12365 -5.96624,0.50033 -6.50438,0.50033 -1.34626,0 -3.19544,0.30175 -4.50302,0 -2.80141,-0.64647 -0.68695,-0.80774 -3.00202,-1.00067 -3.14764,-0.2623 -6.17522,-0.237 -9.25622,-0.7505 -2.02662,-0.33777 -4.43282,0 -6.50438,0 -4.91997,0 -9.839947,0 -14.759922,0 -1.751177,0 -3.517064,0.22649 -5.253532,0 -0.942798,-0.12298 -1.809782,-0.62204 -2.751849,-0.75051 -1.982994,-0.27041 -4.002691,0 -6.004037,0 -5.003363,0 -10.006726,0 -15.01009,0 -7.903506,0 -15.729275,0.11467 -23.515809,-0.7505 -2.315043,-0.25723 -4.994494,0.52162 -7.254877,0 -5.169808,-1.19304 3.853158,-0.55659 -3.252187,-1.00068 -2.746918,-0.17168 -5.53333,0.13873 -8.25555,-0.25016 -1.122819,-0.1604 -2.126727,-0.85999 -3.252187,-1.00068 -2.433547,-0.30419 -8.114654,-0.10927 -10.0067271,-2.00134 -0.8987676,-0.89877 -1.3041294,-2.20636 -2.0013456,-3.25219 -2.0180572,-3.02708 -2.5016817,-5.40483 -2.5016817,-9.00605 0,-0.66712 -0.2477606,-1.38195 0,-2.00135 0.2233282,-0.55832 0.7951724,-0.93588 1.0006727,-1.50101 0.5884275,-1.61817 -0.3508738,-3.55111 0.5003363,-5.25353 1.2817147,-2.56343 2.1763159,-5.00287 3.0020183,-7.75521 0.7753031,-2.58435 2.6419721,-4.9239 3.5023541,-7.50505 0.431769,-1.2953 0.197172,-3.00786 0.750505,-4.25286 0.143688,-0.3233 0.56848,-0.44713 0.750505,-0.7505 0.673478,-1.12247 0.394773,-3.06709 0.750504,-4.25286 0.13972,-0.46573 0.579774,-0.79556 0.750505,-1.25084 0.321844,-0.85825 0.02329,-2.14333 0.500336,-3.00202 0.229088,-0.41236 0.739009,-0.60818 1.000673,-1.00067 0.498193,-0.74729 0.524664,-1.74007 1.000673,-2.50169 0.565988,-0.90558 1.408978,-1.61313 2.001345,-2.50168 1.125697,-1.68854 2.332906,-2.83324 3.752523,-4.25286 1.545474,-1.54547 2.707384,-3.45788 4.252858,-5.00336 2.910123,-2.91012 6.424305,-5.37503 9.75656,-7.75521 1.860053,-1.32861 3.234984,-2.92613 5.253532,-4.00269 2.392635,-1.27608 5.032291,-1.82452 7.505044,-3.00202 2.022261,-0.96298 4.038981,-2.42414 6.254205,-3.00202 0.891241,-0.2325 1.845641,-0.0854 2.751852,-0.25017 1.777079,-0.10572 3.295954,-1.15953 5.003363,-1.50101 1.519415,-0.30388 3.241509,0.33593 4.753195,0 0.280995,-0.0624 0.793289,-0.72911 1.250841,-0.50033 0.4395,0.21975 0.832112,0.79131 1.250842,1.00067 2.455405,1.2277 5.232162,1.95075 7.755212,3.00202 1.169194,0.48716 2.287699,1.26531 3.502356,1.75118 0.371946,0.14877 2.384526,4.78491 2.501681,5.25353 0.172336,0.68934 -0.317807,1.86606 0,2.50168 0.17127,0.34254 1.578337,0.45712 1.751176,0.50034 z"
         id="path1669-8-6-9"
         inkscape:connector-curvature="0"
         transform="scale(3.7795276)" />
    </clipPath>
    <linearGradient
       inkscape:collect="always"
       xlink:href="#Lightcloud"
       id="linearGradient22371"
       gradientUnits="userSpaceOnUse"
       x1="12.850543"
       y1="211.04651"
       x2="215.40228"
       y2="211.04651" />
    <linearGradient
       inkscape:collect="always"
       xlink:href="#Lightcloud"
       id="linearGradient22373"
       gradientUnits="userSpaceOnUse"
       x1="12.850543"
       y1="211.04651"
       x2="215.40228"
       y2="211.04651" />
  </defs>
  <g
     inkscape:label="Layer 1"
     inkscape:groupmode="layer"
     id="layer1"
     transform="translate(74.642757,-85.43392)">
    <g
       id="g18378"
       transform="translate(-1865.6946,373.24432)">
      <path
         id="path3130-8-8-6-6"
         style="fill:none;stroke:url(#linearGradient11549-9);stroke-width:11.9209;stroke-linecap:round;stroke-linejoin:round;stroke-miterlimit:4;stroke-dasharray:none;stroke-opacity:1"
         d="m 1838.0327,-157.94977 a 44.039551,44.039535 0 0 1 -29.0511,-41.41046 44.039551,44.039535 0 0 1 44.0396,-44.03952 44.039551,44.039535 0 0 1 44.0395,44.03952 v 0 a 44.039551,44.039535 0 0 1 -4.5087,19.41125" />
      <g
         id="g1673-1-1-3"
         transform="translate(1784.4254,-366.87746)"
         style="stroke:url(#linearGradient28180);stroke-opacity:1">
        <path
           clip-path="url(#clipPath1667-23-0-5)"
           transform="matrix(0.26458333,0,0,0.26458333,-2.0013455,4.0026909)"
           inkscape:connector-curvature="0"
           id="path884-0-5-8-2"
           d="m 307.94531,701.00391 c -6.3546,-0.0621 -12.64735,0.32382 -18.84961,1.19531 -5.87754,0.84103 -11.60245,2.1475 -17.10937,3.94726 -21.3176,7.00256 -36.83427,20.80782 -46.22656,34.72852 -14.26677,21.19126 -14.54686,37.99416 -13.06836,46.98828 -6.7538,-7.15334 -15.21677,-14.03711 -25.72461,-19.6582 -6.78349,-3.58585 -14.27085,-6.59951 -22.34571,-8.76758 -14.87051,-2.82788 -31.47507,-0.89029 -46.40234,6.98438 -6.12398,3.35194 -11.72884,7.51515 -16.77539,12.32617 -7.169454,6.83485 -12.910237,14.6867 -17.341798,22.72851 -13.011526,23.3811 -16.861068,48.34231 -16.61914,68.95899 0.04602,10.27347 1.199101,19.67269 3.851562,28.35937 3.39611,11.22187 9.317854,19.54329 15.533204,24.94336 7.037737,6.04321 13.016224,7.79744 16.777342,8.08203 19.40491,4.66352 114.1575,8.04508 228.08789,7.8125 113.73084,-0.23196 208.33779,-3.9859 227.95313,-8.71679 0.0249,0.11903 0.0624,0.22877 0.13281,0.31445 -0.10209,-0.12417 -0.11568,-0.23301 -0.0527,-0.33399 3.8e-4,-5.9e-4 -3.7e-4,-10e-4 0,-0.002 1.77432,-0.43278 2.97974,-0.8732 3.45508,-1.32031 5.63701,-1.96111 16.1693,-7.2887 16.49414,-28.98633 0.0222,-6.12325 -1.14667,-12.20755 -3.07812,-18.37695 -5.32777,-17.87407 -16.98018,-39.74285 -38.75781,-54.75196 -7.00759,-4.69572 -14.69476,-8.43932 -22.88477,-11.2246 -9.20107,-3.12915 -18.53287,-4.87922 -27.50195,-5.60157 -18.72616,-1.54439 -36.49055,0.76443 -50.82422,3.52149 -4.75989,0.88279 -9.37562,1.90782 -13.98047,3.46484 1.05031,-4.46626 2.16286,-10.15051 3.31445,-16.94336 -0.24434,-10.3429 -2.40399,-23.33187 -8.45898,-37.08008 -7.80586,-17.35864 -22.31571,-35.56913 -44.28516,-47.1914 -10.34642,-5.40659 -21.47738,-9.03327 -33.0332,-11.52735 -2.47332,-0.55055 -4.98222,-1.05483 -7.52149,-1.5039 -8.31456,-1.47044 -16.5876,-2.28929 -24.75781,-2.36914 z m -2.71093,19.85937 c 7.73291,0.0891 15.72438,0.92549 23.97265,2.36914 2.26593,0.39659 4.5203,0.83292 6.75781,1.30274 10.43971,2.27015 19.95745,5.09442 28.42578,9.27343 17.91357,8.69835 30.96863,23.03716 38.91993,36.95899 6.20224,10.57942 9.54447,21.1462 11.39648,30.05273 0.0533,8.28998 0.33141,14.96559 0.82227,19.78711 -9.01025,4.52336 -15.37691,10.81324 -19.33399,16.48828 -7.77755,11.18725 -6.81559,19.0128 -5.625,19.4375 1.75159,0.62487 5.11106,-5.67226 13.28516,-12.70898 5.14881,-4.44476 12.57373,-9.08987 22.01953,-11.20508 3.93377,-0.90637 8.08284,-1.29757 13.15039,-1.7832 13.85439,-1.23103 30.58605,-2.40548 46.52149,-0.52539 7.65762,0.92167 15.49862,2.49496 23.01757,5 6.70432,2.23362 12.86013,5.10994 18.35352,8.69531 17.22006,10.82986 28.37605,28.7266 34.99219,43.58203 2.24991,5.27463 3.85832,9.52008 4.48632,13.77149 2.06383,12.32639 -3.15027,21.39009 -5.5664,26.2246 -16.94102,-4.79528 -113.13236,-8.30287 -229.13867,-8.0664 -111.56761,0.22755 -204.77345,3.84372 -226.79688,8.44726 -2.72567,-2.17434 -6.913959,-5.48524 -10.996092,-10.96289 -3.975701,-5.25052 -7.198013,-12.26822 -8.933594,-21.61133 -1.336876,-7.30027 -1.392642,-15.11824 -0.763672,-24.46093 1.399215,-18.55064 5.81995,-40.42974 17.164058,-59.5625 3.91193,-6.52131 8.57223,-12.83791 14.01368,-18.12891 3.83675,-3.73066 7.95993,-6.8555 12.38086,-9.22266 10.30202,-5.8083 22.33656,-7.69139 33.02148,-6.1582 6.53088,1.44031 12.69348,3.55268 18.37891,6.13281 21.36025,9.55699 35.26917,25.62764 43.22265,37.24024 8.12765,11.86685 11.3979,20.04726 13.23047,19.57422 1.47384,-0.38045 2.14641,-9.63941 -4.11914,-24.49024 -3.00085,-7.11273 -7.84593,-15.71022 -14.99219,-24.19726 2.28565,-6.79898 5.92607,-24.46833 21.15235,-42.30274 9.06185,-10.63999 22.69777,-20.86091 39.84765,-25.60351 4.46218,-1.24392 9.16935,-2.11466 14.09375,-2.66992 4.45146,-0.51561 8.99892,-0.7312 13.63868,-0.67774 z"
           style="opacity:1;fill:none;fill-opacity:1;stroke:url(#linearGradient22371);stroke-width:22.6772;stroke-linecap:round;stroke-linejoin:round;stroke-miterlimit:4;stroke-dasharray:none;stroke-opacity:1" />
        <path
           inkscape:connector-curvature="0"
           id="path884-2-8-6-4"
           d="m 140.49641,169.47786 c -1.68132,-0.0164 -3.34628,0.0852 -4.98729,0.31574 -1.5551,0.22252 -3.06982,0.56871 -4.52686,1.0449 -5.64028,1.85276 -9.74625,5.5054 -12.23129,9.18858 -3.77473,5.60683 -3.84885,10.05262 -3.45767,12.43232 -1.78699,-1.89275 -4.02597,-3.71391 -6.8063,-5.20123 -1.7948,-0.94875 -3.77531,-1.74612 -5.91179,-2.31976 -3.934486,-0.74821 -8.328289,-0.23555 -12.277798,1.84795 -1.620303,0.88687 -3.102737,1.98839 -4.43797,3.2613 -1.89692,1.80839 -3.41635,3.88534 -4.588867,6.01307 -3.442634,6.18626 -4.460642,12.79108 -4.396632,18.24592 0.01217,2.71819 0.316744,5.20507 1.018543,7.50341 0.898554,2.96913 2.465864,5.17084 4.110342,6.5996 1.860775,1.59782 3.441678,2.06207 4.436938,2.13785 5.130088,1.23411 30.202654,2.12908 60.350314,2.06758 30.09097,-0.0614 55.12182,-1.05514 60.31208,-2.30684 0.007,0.0316 0.017,0.0605 0.0357,0.0832 -0.0272,-0.033 -0.0309,-0.0615 -0.0139,-0.0884 0.46973,-0.11458 0.78859,-0.23146 0.91415,-0.34984 1.49154,-0.51896 4.27814,-1.92833 4.36408,-7.66879 0.006,-1.6201 -0.30339,-3.23043 -0.81442,-4.86275 -1.40964,-4.72918 -4.49266,-10.51477 -10.25467,-14.48593 -1.85409,-1.24241 -3.8885,-2.23342 -6.05545,-2.97037 -2.43444,-0.82792 -4.90296,-1.29044 -7.27604,-1.48156 -4.95462,-0.40862 -9.65479,0.20226 -13.44724,0.93173 -1.25939,0.23357 -2.48063,0.50477 -3.699,0.91674 0.27789,-1.1817 0.57226,-2.68566 0.87695,-4.48294 -0.0646,-2.73655 -0.63606,-6.17322 -2.2381,-9.81076 -2.0653,-4.59281 -5.90437,-9.41101 -11.71712,-12.48606 -2.73749,-1.4305 -5.68307,-2.39057 -8.74055,-3.05046 -0.6544,-0.14567 -1.31821,-0.27858 -1.99006,-0.3974 -2.19989,-0.38905 -4.38829,-0.6057 -6.54999,-0.62683 z m -0.71778,5.25446 c 2.046,0.0236 4.16092,0.24487 6.34328,0.62683 0.59952,0.10494 1.19599,0.22038 1.788,0.34469 2.76217,0.60064 5.27989,1.3479 7.52047,2.45359 4.73963,2.30144 8.19379,6.09525 10.29757,9.77873 1.64101,2.79914 2.52582,5.59442 3.01583,7.95094 0.0141,2.19338 0.0872,3.96016 0.21704,5.23585 -2.38396,1.19681 -4.06795,2.86101 -5.11493,4.36253 -2.05781,2.95996 -1.80329,5.03046 -1.48828,5.14284 0.46344,0.16533 1.3523,-1.50078 3.51503,-3.36259 1.36229,-1.17601 3.32628,-2.40502 5.82548,-2.96468 1.04081,-0.23981 2.13859,-0.34331 3.47938,-0.4718 3.66563,-0.32571 8.09256,-0.63645 12.30881,-0.13901 2.02608,0.24386 4.10119,0.65961 6.09058,1.3224 1.77385,0.59098 3.40206,1.35252 4.85552,2.30115 4.55613,2.8654 7.50782,7.60058 9.25835,11.53108 0.59529,1.39558 1.02137,2.51833 1.18752,3.64319 0.54606,3.26136 -0.83351,5.65998 -1.47278,6.93911 -4.48229,-1.26876 -29.93291,-2.19684 -60.62627,-2.13424 -29.51816,0.0602 -54.1788,1.01704 -60.006666,2.23501 -0.721162,-0.57529 -1.829755,-1.4512 -2.909901,-2.9006 -1.051904,-1.38919 -1.903957,-3.24597 -2.363163,-5.718 -0.353716,-1.93153 -0.368469,-4.00003 -0.202054,-6.47195 0.370207,-4.90819 1.539346,-10.69704 4.540808,-15.75925 1.035029,-1.72543 2.268067,-3.39669 3.707784,-4.7966 1.01514,-0.98708 2.106583,-1.81385 3.276285,-2.44016 2.725742,-1.53678 5.909365,-2.03502 8.736417,-1.62936 1.72796,0.38108 3.359,0.93946 4.86326,1.62212 5.65157,2.52862 9.33112,6.78117 11.43548,9.85366 2.15045,3.13978 3.0157,5.30366 3.50056,5.1785 0.38996,-0.10066 0.56791,-2.54991 -1.08985,-6.47919 -0.79398,-1.88191 -2.07539,-4.15667 -3.96617,-6.4022 0.60475,-1.79889 1.56794,-6.47391 5.59656,-11.19259 2.39762,-2.81517 6.00545,-5.51945 10.54303,-6.77427 1.18061,-0.32912 2.42605,-0.5595 3.72897,-0.70641 1.17778,-0.13643 2.38045,-0.19347 3.60805,-0.17932 z"
           style="opacity:1;fill:none;fill-opacity:1;stroke:url(#linearGradient22373);stroke-width:6.00001;stroke-linecap:round;stroke-linejoin:round;stroke-miterlimit:4;stroke-dasharray:none;stroke-opacity:1" />
      </g>
    </g>
  </g>
</svg>
