<?xml version="1.0" encoding="UTF-8" standalone="no"?>
<!-- Created with Inkscape (http://www.inkscape.org/) -->

<svg
   width="123.475mm"
   height="213.477mm"
   viewBox="0 0 123.475 213.477"
   version="1.1"
   id="svg5"
   sodipodi:docname="fertilizer.svg"
   inkscape:version="1.1 (c68e22c387, 2021-05-23)"
   xmlns:inkscape="http://www.inkscape.org/namespaces/inkscape"
   xmlns:sodipodi="http://sodipodi.sourceforge.net/DTD/sodipodi-0.dtd"
   xmlns:xlink="http://www.w3.org/1999/xlink"
   xmlns="http://www.w3.org/2000/svg"
   xmlns:svg="http://www.w3.org/2000/svg">
  <sodipodi:namedview
     id="namedview7"
     pagecolor="#ffffff"
     bordercolor="#666666"
     borderopacity="1.0"
     inkscape:pageshadow="2"
     inkscape:pageopacity="0.0"
     inkscape:pagecheckerboard="0"
     inkscape:document-units="mm"
     showgrid="false"
     inkscape:zoom="0.425832"
     inkscape:cx="360.471"
     inkscape:cy="589.435"
     inkscape:window-width="1920"
     inkscape:window-height="1047"
     inkscape:window-x="-9"
     inkscape:window-y="-9"
     inkscape:window-maximized="1"
     inkscape:current-layer="layer1"
     fit-margin-top="0"
     lock-margins="true"
     fit-margin-left="0"
     fit-margin-right="0"
     fit-margin-bottom="0" />
  <defs
     id="defs2">
    <inkscape:path-effect
       effect="bspline"
       id="path-effect138927"
       is_visible="true"
       lpeversion="1"
       weight="33.3333"
       steps="2"
       helper_size="0"
       apply_no_weight="true"
       apply_with_weight="true"
       only_selected="false" />
    <linearGradient
       inkscape:collect="always"
       id="linearGradient138219">
      <stop
         style="stop-color:#442900;stop-opacity:1"
         offset="0"
         id="stop138215" />
      <stop
         style="stop-color:#402600;stop-opacity:1"
         offset="0.504464"
         id="stop138655" />
      <stop
         style="stop-color:#452900;stop-opacity:0;"
         offset="1"
         id="stop138217" />
    </linearGradient>
    <inkscape:path-effect
       effect="bspline"
       id="path-effect138183"
       is_visible="true"
       lpeversion="1"
       weight="33.3333"
       steps="2"
       helper_size="0"
       apply_no_weight="true"
       apply_with_weight="true"
       only_selected="false" />
    <inkscape:path-effect
       effect="bspline"
       id="path-effect131747"
       is_visible="true"
       lpeversion="1"
       weight="33.3333"
       steps="2"
       helper_size="0"
       apply_no_weight="true"
       apply_with_weight="true"
       only_selected="false" />
    <inkscape:path-effect
       effect="powerclip"
       id="path-effect107461"
       is_visible="true"
       lpeversion="1"
       inverse="true"
       flatten="false"
       hide_clip="false"
       message="Use fill-rule evenodd on &lt;b&gt;fill and stroke&lt;/b&gt; dialog if no flatten result after convert clip to paths." />
    <inkscape:path-effect
       effect="bspline"
       id="path-effect106736"
       is_visible="true"
       lpeversion="1"
       weight="33.3333"
       steps="2"
       helper_size="0"
       apply_no_weight="true"
       apply_with_weight="true"
       only_selected="false" />
    <inkscape:path-effect
       effect="bspline"
       id="path-effect106205"
       is_visible="true"
       lpeversion="1"
       weight="33.3333"
       steps="2"
       helper_size="0"
       apply_no_weight="true"
       apply_with_weight="true"
       only_selected="false" />
    <inkscape:path-effect
       effect="bspline"
       id="path-effect106201"
       is_visible="true"
       lpeversion="1"
       weight="33.3333"
       steps="2"
       helper_size="0"
       apply_no_weight="true"
       apply_with_weight="true"
       only_selected="false" />
    <inkscape:path-effect
       effect="bspline"
       id="path-effect106197"
       is_visible="true"
       lpeversion="1"
       weight="33.3333"
       steps="2"
       helper_size="0"
       apply_no_weight="true"
       apply_with_weight="true"
       only_selected="false" />
    <inkscape:path-effect
       effect="bspline"
       id="path-effect106193"
       is_visible="true"
       lpeversion="1"
       weight="33.3333"
       steps="2"
       helper_size="0"
       apply_no_weight="true"
       apply_with_weight="true"
       only_selected="false" />
    <inkscape:path-effect
       effect="bspline"
       id="path-effect99887"
       is_visible="true"
       lpeversion="1"
       weight="33.3333"
       steps="2"
       helper_size="0"
       apply_no_weight="true"
       apply_with_weight="true"
       only_selected="false" />
    <inkscape:path-effect
       effect="bspline"
       id="path-effect74781"
       is_visible="true"
       lpeversion="1"
       weight="33.3333"
       steps="2"
       helper_size="0"
       apply_no_weight="true"
       apply_with_weight="true"
       only_selected="false" />
    <inkscape:path-effect
       effect="bspline"
       id="path-effect71881"
       is_visible="true"
       lpeversion="1"
       weight="33.3333"
       steps="2"
       helper_size="0"
       apply_no_weight="true"
       apply_with_weight="true"
       only_selected="false" />
    <inkscape:path-effect
       effect="bspline"
       id="path-effect57168"
       is_visible="true"
       lpeversion="1"
       weight="33.3333"
       steps="2"
       helper_size="0"
       apply_no_weight="true"
       apply_with_weight="true"
       only_selected="false" />
    <inkscape:path-effect
       effect="bspline"
       id="path-effect38837"
       is_visible="true"
       lpeversion="1"
       weight="33.3333"
       steps="2"
       helper_size="0"
       apply_no_weight="true"
       apply_with_weight="true"
       only_selected="false" />
    <inkscape:path-effect
       effect="bspline"
       id="path-effect22537"
       is_visible="true"
       lpeversion="1"
       weight="33.3333"
       steps="2"
       helper_size="0"
       apply_no_weight="true"
       apply_with_weight="true"
       only_selected="false" />
    <inkscape:path-effect
       effect="bspline"
       id="path-effect22533"
       is_visible="true"
       lpeversion="1"
       weight="33.3333"
       steps="2"
       helper_size="0"
       apply_no_weight="true"
       apply_with_weight="true"
       only_selected="false" />
    <inkscape:path-effect
       effect="bspline"
       id="path-effect22529"
       is_visible="true"
       lpeversion="1"
       weight="33.3333"
       steps="2"
       helper_size="0"
       apply_no_weight="true"
       apply_with_weight="true"
       only_selected="false" />
    <inkscape:path-effect
       effect="bspline"
       id="path-effect22525"
       is_visible="true"
       lpeversion="1"
       weight="33.3333"
       steps="2"
       helper_size="0"
       apply_no_weight="true"
       apply_with_weight="true"
       only_selected="false" />
    <inkscape:path-effect
       effect="bspline"
       id="path-effect18564"
       is_visible="true"
       lpeversion="1"
       weight="33.3333"
       steps="2"
       helper_size="0"
       apply_no_weight="true"
       apply_with_weight="true"
       only_selected="false" />
    <inkscape:path-effect
       effect="bspline"
       id="path-effect871"
       is_visible="true"
       lpeversion="1"
       weight="33.3333"
       steps="2"
       helper_size="0"
       apply_no_weight="true"
       apply_with_weight="true"
       only_selected="false" />
    <clipPath
       clipPathUnits="userSpaceOnUse"
       id="clipPath107453">
      <path
         style="fill:none;stroke:#000000;stroke-width:0.264583px;stroke-linecap:butt;stroke-linejoin:miter;stroke-opacity:1"
         d="m 118.992,33.4034 c -0.628,-0.4985 -1.133,-1.4174 -1.023,-2.6083 0.11,-1.1909 0.835,-2.6535 1.825,-3.3398 0.991,-0.6861 2.246,-0.5956 2.991,0.071 0.744,0.6667 0.977,1.9095 0.614,3.094 -0.362,1.1843 -1.32,2.3104 -2.175,2.8345 -0.854,0.5244 -1.604,0.4466 -2.232,-0.052 z"
         id="path107455" />
    </clipPath>
    <clipPath
       clipPathUnits="userSpaceOnUse"
       id="clipPath107457">
      <path
         style="display:none;fill:none;stroke:#000000;stroke-width:0.264583px;stroke-linecap:butt;stroke-linejoin:miter;stroke-opacity:1"
         d="m 118.992,33.4034 c -0.628,-0.4985 -1.133,-1.4174 -1.023,-2.6083 0.11,-1.1909 0.835,-2.6535 1.825,-3.3398 0.991,-0.6861 2.246,-0.5956 2.991,0.071 0.744,0.6667 0.977,1.9095 0.614,3.094 -0.362,1.1843 -1.32,2.3104 -2.175,2.8345 -0.854,0.5244 -1.604,0.4466 -2.232,-0.052 z"
         id="path107459" />
      <path
         id="lpe_path-effect107461"
         style="fill:none;stroke:#000000;stroke-width:0.264583px;stroke-linecap:butt;stroke-linejoin:miter;stroke-opacity:1"
         class="powerclip"
         d="m 101.942,19.6479 h 30.331 v 51.9135 h -30.331 z m 17.05,13.7555 v -6e-4 c 0.628,0.4986 1.378,0.5764 2.232,0.052 0.855,-0.5241 1.813,-1.6502 2.175,-2.8345 0.363,-1.1845 0.13,-2.4273 -0.614,-3.094 -0.745,-0.6666 -2,-0.7571 -2.991,-0.071 -0.99,0.6863 -1.715,2.1489 -1.825,3.3398 -0.11,1.1909 0.395,2.1098 1.023,2.6083 z" />
    </clipPath>
    <linearGradient
       inkscape:collect="always"
       xlink:href="#linearGradient138219"
       id="linearGradient138221"
       x1="100.062"
       y1="91.7141"
       x2="99.3423"
       y2="103.868"
       gradientUnits="userSpaceOnUse"
       gradientTransform="translate(-0.1165)" />
  </defs>
  <g
     inkscape:label="Layer 1"
     inkscape:groupmode="layer"
     id="layer1"
     transform="translate(-33.0732,-24.6479)">
    <path
       style="color:#000000;fill:#a75809;stroke-width:4.9816;stroke-linecap:round;stroke-linejoin:round;-inkscape-stroke:none"
       d="m 59.096,99.2197 c -1.9918,1.9873 0.1228,4.8443 2.5056,5.0493 5.8566,1.993 11.6888,4.215 17.8064,5.222 -0.7368,0.972 -2.868,0.04 -4.0941,-0.03 -5.4499,-0.908 -10.3378,-3.849 -15.7117,-4.885 -2.9036,0.512 -2.9009,4.345 -3.3309,6.65 -1.2536,3.317 2.8543,3.416 4.9692,4.179 10.0366,2.768 20.203,5.414 30.5696,6.55 7.3591,0.278 14.8009,0.292 22.1169,-0.171 6.776,-2.503 13.948,-4.215 20.347,-7.604 1.395,-1.773 -0.513,-4.202 -1.677,-5.627 -2.466,-0.545 -4.637,1.95 -6.962,2.661 -6.097,2.849 -12.825,4.129 -19.411,5.25 8.134,-3.198 17.812,-3.385 24.691,-9.325 1.384,-1.426 3.062,-3.992 1.9,-5.896 -2.559,-1.195 -5.543,0.614 -8.204,0.736 -15.807,3.22 -32.2035,4.308 -48.0634,1.153 -5.6724,-0.868 -11.3633,-2.434 -16.8769,-3.9603 l -0.4376,0.04 z"
       id="path35824" />
    <g
       id="path18560">
      <path
         style="color:#000000;fill:#8c4906;stroke-width:5;-inkscape-stroke:none"
         d="m 37.0928,220.137 c 0.3492,1.184 0.3492,1.184 0.3492,1.184 4.6349,3.379 9.2692,6.758 17.5146,9.275 8.2454,2.518 20.1024,4.175 31.0021,4.77 10.8997,0.596 20.8393,0.129 29.5893,-0.958 8.751,-1.088 16.311,-2.796 21.799,-4.971 5.489,-2.175 8.906,-4.815 11.391,-8.543 2.485,-3.728 4.039,-8.543 4.789,-16.828 0.751,-8.284 0.7,-20.037 -0.232,-32.697 -0.932,-12.66 -2.745,-26.226 -5.049,-35.054 -2.304,-8.828 -5.1,-12.918 -7.119,-15.766 -2.019,-2.848 -3.262,-4.453 -4.557,-4.867 -1.294,-0.414 -2.64,0.362 -3.313,0.751 -0.673,0.388 -17.605,6.601 -20.893,6.86 -3.287,0.259 -9.863,0.777 -16.1278,0.466 -6.2648,-0.31 -12.2197,-1.45 -17.7598,-2.615 -5.5402,-1.165 -10.6662,-2.356 -14.6011,-3.495 -3.9349,-1.139 -6.6792,-2.226 -8.2847,-2.434 -1.6056,-0.207 -2.0714,0.466 -4.2202,3.289 -2.1488,2.822 -5.98,7.792 -8.5431,14.265 -2.563,6.472 -3.8577,14.446 -4.8415,25.811 -0.9838,11.365 -1.6568,26.122 -2.045,35.959 -0.3881,9.838 -0.4915,14.757 -0.1937,18.401 0.2977,3.644 0.9965,6.013 1.3457,7.197 z"
         id="path870" />
      <path
         style="color:#000000;fill:#582d02;-inkscape-stroke:none"
         d="m 55.9102,112.736 c -1.174,-0.151 -2.847,0.239 -3.8399,1.078 -0.9929,0.84 -1.6203,1.772 -2.6894,3.176 -2.1382,2.808 -6.1632,7.999 -8.8789,14.858 -2.7158,6.857 -4.0165,15.065 -5.0079,26.517 -0.9913,11.453 -1.6619,26.222 -2.0507,36.074 v 0 c -0.3887,9.854 -0.504,14.831 -0.1875,18.704 0.3164,3.872 1.0903,6.515 1.4394,7.699 l 0.5879,1.998 0.6856,0.5 c 4.6348,3.379 9.665,7.021 18.2578,9.644 8.5926,2.624 20.5423,4.272 31.5957,4.875 11.0535,0.605 21.1407,0.132 30.0327,-0.972 v 0 c 8.894,-1.106 16.608,-2.828 22.411,-5.127 5.802,-2.3 9.781,-5.326 12.55,-9.481 2.77,-4.154 4.429,-9.483 5.2,-17.99 0.771,-8.506 0.711,-20.339 -0.229,-33.105 -0.94,-12.767 -2.744,-26.379 -5.125,-35.502 -2.381,-9.124 -5.456,-13.7 -7.498,-16.58 -2.043,-2.882 -3.196,-4.96 -5.834,-5.803 -2.636,-0.843 -4.647,0.575 -5.324,0.967 0.315,-0.182 0.119,-0.06 -0.02,0 -0.134,0.05 -0.341,0.136 -0.597,0.236 -0.514,0.2 -1.233,0.472 -2.09,0.789 -1.715,0.634 -3.986,1.451 -6.33,2.262 -2.345,0.81 -4.77,1.615 -6.78,2.224 -2.01,0.61 -3.818,1.011 -4.027,1.028 -3.287,0.259 -9.768,0.761 -15.8086,0.461 -6.0408,-0.299 -11.8607,-1.406 -17.3692,-2.565 -5.5083,-1.158 -10.5949,-2.342 -14.4199,-3.449 -3.825,-1.107 -6.3121,-2.208 -8.6582,-2.512 z m -0.6504,4.944 c 0.018,0 -0.015,0.01 0.01,0.01 0.8649,0.112 3.8654,1.187 7.9102,2.358 4.0448,1.171 9.2111,2.367 14.7832,3.539 5.5717,1.171 11.6615,2.345 18.1504,2.666 6.4874,0.322 13.1604,-0.212 16.4474,-0.471 1.434,-0.113 2.975,-0.586 5.085,-1.226 2.111,-0.641 4.578,-1.462 6.961,-2.286 2.384,-0.823 4.68,-1.649 6.432,-2.296 0.876,-0.324 1.614,-0.603 2.168,-0.819 0.277,-0.108 0.506,-0.199 0.695,-0.277 0.189,-0.08 0.205,-0.05 0.604,-0.281 v 0 c 0.67,-0.387 1.349,-0.52 1.301,-0.535 -0.05,-0.02 1.284,1.117 3.279,3.931 1.996,2.815 4.511,6.421 6.738,14.953 2.227,8.533 4.051,22.052 4.975,34.606 0.924,12.553 0.967,24.225 0.236,32.287 -0.73,8.063 -2.178,12.366 -4.379,15.668 -2.2,3.301 -5.057,5.555 -10.232,7.605 -5.174,2.051 -12.578,3.745 -21.186,4.815 -8.607,1.069 -18.3981,1.529 -29.144,0.941 -10.746,-0.586 -22.5101,-2.252 -30.4082,-4.664 v 0 c -7.5276,-2.298 -11.7088,-5.257 -16.0996,-8.453 l -0.096,-0.322 c -0.3492,-1.184 -0.9729,-3.278 -1.2519,-6.694 -0.2791,-3.415 -0.1863,-8.277 0.2012,-18.099 0.3875,-9.822 1.0609,-24.565 2.0371,-35.842 0.9762,-11.277 2.2655,-19.019 4.6757,-25.106 2.4105,-6.087 6.0477,-10.836 8.2071,-13.671 1.0582,-1.391 1.7058,-2.164 1.9004,-2.338 z"
         id="path872" />
    </g>
    <path
       style="color:#000000;fill:#582d02;stroke-linecap:round;-inkscape-stroke:none"
       d="m 58.3633,102.639 c -0.8537,0.243 -1.435,0.884 -1.7656,1.351 -0.6608,0.935 -1.2521,2.198 -1.8829,4.09 -0.6308,1.893 -1.2904,4.394 -1.9492,6.883 a 1.5,1.5 0 0 0 1.0664,1.834 1.5,1.5 0 0 0 1.834,-1.067 c 0.6588,-2.489 1.3172,-4.968 1.8945,-6.701 0.577,-1.73 1.0854,-2.737 1.4864,-3.304 v 0 c 0.1956,-0.277 0.1408,-0.198 0.1386,-0.198 0,0 0.3274,-0.05 1.129,0.174 1.6035,0.445 4.8508,1.844 7.664,2.875 2.8129,1.031 5.1862,1.672 6.9922,2.037 v 0 c 1.8052,0.364 3.0555,0.447 4.1914,0.52 a 1.5,1.5 0 0 0 1.5938,-1.401 1.5,1.5 0 0 0 -1.4024,-1.593 c -1.1341,-0.07 -2.1535,-0.137 -3.789,-0.467 -1.6349,-0.331 -3.8758,-0.935 -6.5547,-1.916 -2.6786,-0.982 -5.7997,-2.366 -7.8946,-2.947 -1.0475,-0.291 -1.8982,-0.413 -2.7519,-0.17 z"
       id="path22523" />
    <path
       style="color:#000000;fill:#582d02;stroke-linecap:round;-inkscape-stroke:none"
       d="m 56.5137,92.9902 c -0.6981,-0.065 -1.5792,0.2386 -2.0782,0.6797 -0.9979,0.8823 -0.9671,1.5994 -1.0253,2.1231 -0.1166,1.0472 0.031,1.8816 0.2988,2.7773 v 0 c 0.3527,1.1811 0.9197,3.6347 0.8985,4.2007 -0.011,0.286 -0.016,0.283 -0.2266,0.678 -0.2109,0.395 -0.6716,1.118 -1.0332,2.164 -0.7231,2.094 -0.8906,4.577 -1.1289,7.051 a 2.5,2.5 0 0 0 2.25,2.727 2.5,2.5 0 0 0 2.7285,-2.248 c 0.2383,-2.474 0.5467,-4.941 0.877,-5.897 0.165,-0.478 0.3754,-0.802 0.7168,-1.441 0.3413,-0.64 0.7703,-1.663 0.8144,-2.846 0.042,-1.113 -0.1432,-2.187 -0.3652,-3.1543 0.8671,0.3833 1.5547,0.7513 2.7578,1.1483 4.1071,1.356 10.348,2.788 16.8184,3.795 v 0 c 6.4703,1.006 13.0997,1.567 19.1367,1.549 6.0358,-0.02 11.4188,-0.624 17.1348,-1.494 5.717,-0.869 11.802,-2.002 15.429,-2.858 3.628,-0.854 5.06,-1.589 5.975,-2.1012 a 2.5,2.5 0 0 0 0.961,-3.4024 2.5,2.5 0 0 0 -3.404,-0.959 c -0.915,0.5125 -1.311,0.8025 -4.678,1.5957 -3.365,0.7934 -9.436,1.9304 -15.033,2.7813 v 0 c -5.595,0.8516 -10.683,1.4176 -16.3984,1.4376 -5.7143,0.02 -12.1184,-0.521 -18.3535,-1.4904 C 73.3529,98.836 67.2213,97.4119 63.5664,96.2051 59.9116,94.9983 58.7896,94.1342 58.002,93.5664 57.6709,93.3278 57.2117,93.0556 56.5137,92.9902 Z"
       id="path22527" />
    <path
       style="color:#000000;fill:#582d02;stroke-linecap:round;-inkscape-stroke:none"
       d="m 135.359,96.166 a 1.5,1.5 0 0 0 -1.582,1.4121 c -0.146,2.5999 -0.32,4.8759 -1.498,6.6799 -1.177,1.804 -3.733,3.589 -6.258,4.887 -2.522,1.296 -4.94,2.137 -7.285,2.777 -2.346,0.64 -4.622,1.076 -6.754,1.539 -2.132,0.464 -4.055,0.944 -5.959,1.42 a 1.5,1.5 0 0 0 -1.089,1.818 1.5,1.5 0 0 0 1.818,1.092 c 1.904,-0.476 3.79,-0.946 5.867,-1.398 2.078,-0.452 4.419,-0.898 6.906,-1.577 2.487,-0.678 5.121,-1.591 7.87,-3.003 2.747,-1.413 5.684,-3.288 7.398,-5.915 1.714,-2.626 1.834,-5.551 1.98,-8.1519 a 1.5,1.5 0 0 0 -1.414,-1.5801 z"
       id="path22531" />
    <path
       style="color:#000000;fill:#582d02;stroke-linecap:round;-inkscape-stroke:none"
       d="m 135.334,95.1641 a 2.5,2.5 0 0 0 -2.559,2.4394 c -0.04,1.6931 -0.12,3.2415 -0.392,4.2305 -0.272,0.982 -1.213,2.133 -1.242,4.336 v 0 0 c -0.02,2.191 1.039,3.508 1.783,4.925 0.742,1.415 1.613,3.341 2.344,4.813 v 0 0 c 0.731,1.472 1.299,2.425 1.812,3.287 a 2.5,2.5 0 0 0 3.426,0.867 2.5,2.5 0 0 0 0.869,-3.428 c -0.512,-0.859 -0.97,-1.625 -1.629,-2.951 v 0 c -0.659,-1.329 -1.543,-3.285 -2.394,-4.91 -0.849,-1.619 -1.208,-2.49 -1.209,-2.555 0,-0.05 0.544,-1.2 1.06,-3.07 v 0 c 0.512,-1.864 0.53,-3.7246 0.57,-5.4373 a 2.5,2.5 0 0 0 -2.439,-2.5566 z"
       id="path22535" />
    <g
       id="path38835">
      <path
         style="color:#000000;fill:#582d02;stroke-width:5;-inkscape-stroke:none"
         d="m 57.9266,93.6141 c 2.1876,-1.0098 6.8475,-2.7702 11.2616,-4.3106 4.4142,-1.5404 8.5822,-2.8606 11.6889,-3.2747 3.1066,-0.4142 5.1518,0.078 7.7537,0.3883 2.6019,0.3107 5.7602,0.4401 9.7342,0.3884 3.974,-0.052 8.763,-0.2848 12.789,-0.1683 4.026,0.1165 7.288,0.5825 10.149,1.7087 2.86,1.1262 5.32,2.9127 7.792,4.1165 2.473,1.2037 4.958,1.825 5.99,2.5947 1.032,0.7697 0.611,1.6877 -2.03,2.749 -2.64,1.0612 -7.5,2.2659 -13.115,3.2699 -5.615,1.004 -11.983,1.806 -18.947,2.052 -6.9644,0.246 -14.5238,-0.06 -20.5688,-0.841 -6.045,-0.777 -10.5756,-2.019 -14.0318,-3.0548 -3.4562,-1.0355 -5.8379,-1.8639 -7.3395,-2.5111 -1.5016,-0.6472 -2.123,-1.1132 -2.576,-1.4756 -0.4531,-0.3625 -0.7379,-0.6215 1.4497,-1.6314 z"
         id="path908" />
      <path
         style="color:#000000;fill:#582d02;-inkscape-stroke:none"
         d="m 85.1348,83.457 c -1.351,-0.1179 -2.8348,-0.14 -4.5879,0.094 -3.5062,0.4673 -7.7248,1.8373 -12.1817,3.3926 -4.4567,1.5552 -9.076,3.2877 -11.4863,4.4004 -1.2051,0.5563 -1.8978,0.5617 -2.7949,2.0175 -0.4486,0.7279 -0.4157,2.2683 -0.01,2.9317 0.4098,0.6634 0.711,0.8027 0.8379,0.9043 0.5075,0.406 1.4746,1.0997 3.1465,1.8203 1.6715,0.7204 4.1078,1.5592 7.6113,2.6092 3.5049,1.05 8.2083,2.339 14.4297,3.139 6.2254,0.804 13.8773,1.112 20.9786,0.861 7.102,-0.251 13.589,-1.069 19.299,-2.09 5.709,-1.021 10.588,-2.199 13.605,-3.412 1.51,-0.6063 2.626,-1.0471 3.539,-2.4139 0.457,-0.6834 0.727,-1.8382 0.44,-2.7793 -0.287,-0.941 -0.871,-1.4954 -1.385,-1.8789 -1.028,-0.767 -1.985,-1.0579 -3.062,-1.4668 -1.078,-0.4088 -2.236,-0.8393 -3.329,-1.3711 -2.183,-1.0633 -4.726,-2.9179 -7.97,-4.1953 -3.245,-1.2773 -6.813,-1.7599 -10.992,-1.8808 -4.18,-0.121 -8.992,0.1169 -12.8951,0.1679 -3.9025,0.051 -6.9577,-0.079 -9.4043,-0.3711 -1.2231,-0.1458 -2.442,-0.3605 -3.7929,-0.4785 z m -0.3828,4.9883 c 1.0987,0.1022 2.2032,0.2907 3.582,0.4551 2.7572,0.3292 6.019,0.4569 10.0644,0.4043 4.0456,-0.053 8.8116,-0.28 12.6836,-0.168 3.872,0.1121 6.828,0.5601 9.305,1.5352 2.476,0.975 4.853,2.6948 7.613,4.039 1.041,0.5066 1.944,0.8331 2.822,1.168 -2.521,0.8571 -6.507,1.8755 -11.322,2.7363 -5.52,0.987 -11.77,1.7728 -18.596,2.0138 -6.8272,0.241 -14.2952,-0.07 -20.1599,-0.8224 v 0 C 74.8747,99.0525 70.5165,97.859 67.1094,96.8379 c -2.7077,-0.8112 -4.2291,-1.3819 -5.6153,-1.916 2.3572,-0.9643 5.144,-2.0805 8.5176,-3.2578 4.3715,-1.5255 8.4881,-2.7954 11.1953,-3.1563 1.3535,-0.1804 2.4462,-0.1647 3.545,-0.062 z"
         id="path910" />
    </g>
    <path
       style="color:#000000;fill:#452900;stroke-width:0.264583px;-inkscape-stroke:none"
       d="m 59.2479,95.7145 c -0.01,-0.082 -0.028,-0.2467 1.2562,-1.042 1.2836,-0.7953 3.8646,-2.218 6.8212,-3.3104 2.9566,-1.0924 6.2862,-1.8531 8.9396,-2.444 2.6533,-0.5908 4.6303,-1.0119 6.397,-0.9569 1.7667,0.055 3.3226,0.5859 6.0686,1.0802 2.746,0.4943 6.6817,0.9519 10.9656,0.8878 4.2839,-0.064 8.9149,-0.6499 12.0269,-0.8329 3.112,-0.1831 4.705,0.037 6.447,0.5008 1.742,0.4641 3.634,1.1726 5.194,2.1403 1.559,0.9677 2.784,2.1929 3.618,2.9441 0.834,0.7513 1.273,1.0257 1.749,1.3278 0.476,0.302 0.988,0.6311 1.217,0.8975 0.229,0.2663 0.174,0.4663 -1.034,0.8688 -1.208,0.4026 -3.569,1.0066 -8.763,1.9156 -5.194,0.9088 -13.218,2.1228 -19.875,2.4358 -6.6579,0.314 -11.9483,-0.271 -16.9916,-0.83 -5.0434,-0.558 -9.8395,-1.089 -13.2096,-1.6078 -3.37,-0.5188 -5.314,-1.0257 -6.8519,-1.2728 -1.5378,-0.2471 -1.6084,-0.2463 -2.7579,-1.0083 -1.1495,-0.762 -1.1495,-0.762 -1.1788,-1.1867 -0.029,-0.4248 -0.029,-0.4247 -0.038,-0.5069 z"
       id="path131745" />
    <path
       style="fill:#585858;fill-opacity:1;stroke:none;stroke-width:0.264583px;stroke-linecap:butt;stroke-linejoin:miter;stroke-opacity:1"
       d="m 91.7242,88.32 c 0.7248,-3.249 2.2265,-9.1259 3.8834,-13.061 1.6568,-3.935 3.4691,-5.9286 5.3724,-7.262 1.903,-1.3334 3.896,-2.0064 6.226,-1.838 2.33,0.1684 4.997,1.1782 7.029,2.382 2.032,1.2038 3.43,2.6018 4.349,4.2069 0.919,1.6052 1.359,3.4173 1.255,5.5791 -0.103,2.1618 -0.75,4.673 -2.459,7.4559 -1.708,2.7829 -4.479,5.8375 -6.433,7.87 -1.955,2.0325 -3.094,3.0422 -4.22,3.3917 -1.126,0.3495 -2.239,0.039 -4.142,-0.5955 -1.903,-0.6343 -4.5955,-1.5924 -6.6406,-2.2525 C 93.8993,93.5364 92.5012,93.174 91.7761,92.6821 91.051,92.1902 90.9993,91.569 91.7242,88.32 Z"
       id="path99885"
       inkscape:path-effect="#path-effect99887"
       inkscape:original-d="m 90.9475,90.9475 c 1.5018,-5.8764 3.0035,-11.7533 4.5048,-17.6302 1.8124,-1.9931 3.6245,-3.9868 5.4367,-5.9804 1.994,-0.6728 3.987,-1.3459 5.98,-2.0193 2.667,1.0099 5.334,2.0196 8,3.029 1.398,1.3983 2.796,2.7963 4.194,4.1941 0.44,1.8124 0.88,3.6245 1.32,5.4367 -0.647,2.5114 -1.294,5.0226 -1.941,7.5334 -2.77,3.0554 -5.54,6.1101 -8.311,9.1647 -1.139,1.0101 -2.278,2.0198 -3.417,3.0292 -1.113,-0.3106 -2.226,-0.6213 -3.34,-0.9321 -2.692,-0.9578 -5.3846,-1.9156 -8.077,-2.8739 -1.3978,-0.362 -2.7959,-0.7245 -4.1942,-1.0872 -0.052,-0.6213 -0.1032,-1.2425 -0.1553,-1.864 z" />
    <g
       id="g107589">
      <path
         style="fill:#784421;stroke:none;stroke-width:0.264583px;stroke-linecap:butt;stroke-linejoin:miter;stroke-opacity:1"
         d="m 125.132,25.7293 c 0.562,0.2288 1.122,0.4568 1.543,0.8204 0.422,0.3637 0.704,0.8622 0.894,1.6633 0.191,0.8011 0.291,1.9048 0.117,3.7427 -0.174,1.8378 -0.623,4.4098 -1.231,6.9041 -0.609,2.4943 -1.378,4.9107 -2.486,8.1416 -1.107,3.231 -2.553,7.2767 -3.812,10.6909 -1.258,3.4142 -2.329,6.1966 -2.924,7.6106 -0.595,1.4141 -0.714,1.4599 -0.943,1.414 -0.229,-0.046 -0.567,-0.1828 -0.906,-0.3203"
         id="path106195"
         inkscape:path-effect="#path-effect106197"
         inkscape:original-d="m 125.132,25.7293 c 0.562,0.2288 1.122,0.457 1.683,0.6851 0.282,0.4989 0.564,0.9973 0.845,1.4956 0.1,1.1041 0.2,2.2078 0.3,3.3113 -0.448,2.5723 -0.896,5.1443 -1.345,7.7161 -0.769,2.4167 -1.538,4.8331 -2.307,7.249 -1.446,4.046 -2.892,8.0917 -4.338,12.1372 -1.071,2.7829 -2.142,5.5653 -3.213,8.3476 -0.119,0.046 -0.238,0.092 -0.357,0.1373 -0.339,-0.1373 -0.677,-0.2743 -1.016,-0.4119"
         sodipodi:nodetypes="cccccccccc" />
      <path
         style="fill:#a05a2c;stroke:none;stroke-width:0.264583px;stroke-linecap:butt;stroke-linejoin:miter;stroke-opacity:1"
         d="m 106.942,63.889 c 1.533,-6.5962 3.065,-13.1927 4.491,-19.3833 1.425,-6.1906 2.743,-11.9752 3.805,-15.3072 1.062,-3.332 1.867,-4.2106 3.386,-4.4668 1.52,-0.2562 3.753,0.1099 5.447,0.6226 1.693,0.5127 2.846,1.1715 3.13,2.636 0.283,1.4645 -0.302,3.7344 -1.09,6.7641 -0.787,3.0297 -1.775,6.8192 -3.112,11.3043 -1.336,4.4851 -3.02,9.6657 -4.272,13.1986 -1.251,3.5329 -2.071,5.4186 -2.89,7.3041"
         id="path106191"
         inkscape:path-effect="#path-effect106193;#path-effect107461"
         inkscape:original-d="m 106.942,63.889 c 1.533,-6.5961 3.066,-13.1925 4.598,-19.7894 1.318,-5.7845 2.636,-11.5691 3.954,-17.3542 0.806,-0.8785 1.611,-1.7572 2.416,-2.6361 2.234,0.3663 4.467,0.7325 6.7,1.0983 1.154,0.6593 2.307,1.3184 3.46,1.977 -0.585,2.2704 -1.171,4.5402 -1.757,6.8101 -0.988,3.7896 -1.977,7.579 -2.966,11.3681 -1.684,5.181 -3.368,10.3616 -5.052,15.5418 -0.819,1.8857 -1.638,3.7716 -2.458,5.6568"
         sodipodi:nodetypes="cccccccccc"
         clip-path="url(#clipPath107457)" />
      <path
         style="fill:#784421;stroke:none;stroke-width:0.264583px;stroke-linecap:butt;stroke-linejoin:miter;stroke-opacity:1"
         d="m 119.781,33.4033 c -0.174,-0.2264 -0.524,-0.6797 -0.692,-1.3139 -0.168,-0.6341 -0.154,-1.4497 0.157,-2.1359 0.311,-0.6862 0.92,-1.243 1.418,-1.6311 0.498,-0.3882 0.886,-0.6081 1.236,-0.7183 0.349,-0.1102 0.66,-0.1102 0.874,-0.2913 0.213,-0.181 0.33,-0.5435 0.11,-1.1453 -0.22,-0.6018 -0.777,-1.4433 -1.742,-1.9224 -0.964,-0.4791 -2.336,-0.5956 -3.462,0.4335 -1.126,1.0291 -2.007,3.2037 -2.207,4.9319 -0.201,1.7283 0.278,3.0097 1.249,3.9546 0.971,0.9449 2.434,1.5534 3.055,1.5081 0.621,-0.045 0.401,-0.7443 0.291,-1.094 -0.11,-0.3496 -0.112,-0.3496 -0.287,-0.5759 z"
         id="path106203"
         clip-path="url(#clipPath107453)"
         transform="matrix(1.00402,0,0,1.00402,-0.484211,-0.122172)" />
    </g>
    <path
       style="fill:none;stroke:#535353;stroke-width:3;stroke-linecap:butt;stroke-linejoin:miter;stroke-miterlimit:4;stroke-dasharray:none;stroke-opacity:1"
       d="m 91.1028,92.8115 c -0.052,-0.2584 -0.1035,-0.5174 0.4272,-3.4041 0.5307,-2.8867 1.644,-8.4008 2.9384,-12.4914 1.2945,-4.0905 2.7701,-6.757 4.7638,-8.5823 1.9938,-1.8253 4.5048,-2.809 6.8218,-2.9772 2.317,-0.1682 4.44,0.479 6.123,1.657 1.683,1.1781 2.925,2.8864 3.469,4.9318 0.544,2.0453 0.388,4.4271 -0.104,6.7183 -0.492,2.2912 -1.32,4.4915 -2.912,7.0544 -1.593,2.5629 -3.948,5.4885 -5.618,7.3914 -1.67,1.9028 -2.654,2.7831 -3.638,3.6632"
       id="path57166"
       inkscape:path-effect="#path-effect57168"
       inkscape:original-d="m 91.1028,92.8115 c -0.051,-0.2585 -0.1032,-0.5175 -0.1553,-0.7766 1.1136,-5.5141 2.2267,-11.0283 3.3398,-16.543 1.4759,-2.6662 2.9515,-5.3327 4.427,-7.9997 2.5117,-0.9834 5.0227,-1.9672 7.5337,-2.9511 2.123,0.6474 4.246,1.2946 6.369,1.9415 1.243,1.7089 2.485,3.4176 3.728,5.126 -0.155,2.382 -0.311,4.7638 -0.466,7.1453 -0.829,2.2008 -1.657,4.4014 -2.486,6.6016 -2.355,2.9258 -4.711,5.8513 -7.067,8.7765 -0.984,0.8803 -1.968,1.7606 -2.952,2.6406" />
    <path
       style="fill:none;stroke:#535353;stroke-width:3;stroke-linecap:butt;stroke-linejoin:miter;stroke-miterlimit:4;stroke-dasharray:none;stroke-opacity:1"
       d="m 106.714,97.7047 c 2.485,-2.4592 4.971,-4.9191 7.132,-7.2489 2.162,-2.3299 4,-4.5304 5.035,-6.8346 1.035,-2.3041 1.268,-4.7111 1.164,-6.7827 -0.104,-2.0715 -0.544,-3.8059 -1.217,-5.165 -0.673,-1.3591 -1.579,-2.343 -2.381,-3.0032 -0.803,-0.6601 -1.502,-0.9965 -2.24,-1.2814 -0.738,-0.2849 -1.515,-0.5181 -2.291,-0.751"
       id="path71879"
       inkscape:path-effect="#path-effect71881"
       inkscape:original-d="m 106.714,97.7047 c 2.485,-2.4593 4.971,-4.9189 7.456,-7.3784 1.838,-2.2003 3.676,-4.4008 5.514,-6.6017 0.233,-2.4074 0.465,-4.8145 0.697,-7.223 -0.44,-1.7346 -0.88,-3.469 -1.32,-5.2036 -0.906,-0.9835 -1.812,-1.9675 -2.718,-2.9514 -0.699,-0.3363 -1.398,-0.6729 -2.098,-1.0097 -0.776,-0.2328 -1.553,-0.4657 -2.329,-0.699"
       sodipodi:nodetypes="cccccccc" />
    <path
       style="color:#000000;fill:#535353;-inkscape-stroke:none"
       d="m 110.336,72.1621 c -1.752,-0.5002 -3.885,0 -6.035,1.7363 -2.149,1.7364 -4.3602,4.6812 -6.008,8.2149 -1.6474,3.5337 -2.6873,7.5851 -3.7227,11.5976 l 1.4531,0.375 c 1.0353,-4.0118 2.0662,-7.9851 3.6289,-11.3379 v 0 c 1.5637,-3.3526 3.7037,-6.1539 5.5917,-7.6797 1.89,-1.5261 3.484,-1.8027 4.682,-1.4609 1.199,0.3419 2.165,1.4023 2.705,2.4922 0.538,1.0891 0.655,2.1141 0.441,3.6054 -0.213,1.4927 -0.786,3.418 -1.369,5.3594 l 1.438,0.4316 c 0.583,-1.9418 1.175,-3.8994 1.416,-5.5781 0.24,-1.6793 0.09,-3.1146 -0.582,-4.4844 -0.679,-1.3697 -1.886,-2.7696 -3.639,-3.2695 z"
       id="path74779" />
    <path
       style="color:#000000;fill:url(#linearGradient138221);stroke-width:0.264583px;-inkscape-stroke:none"
       d="m 77.1156,99.5473 c 1.7044,-2.0384 3.4094,-4.0774 5.1462,-5.2187 1.7368,-1.1413 3.5044,-1.3837 5.2485,-1.7063 1.7441,-0.3225 3.4651,-0.7253 5.5063,-0.9174 2.0411,-0.1922 4.4025,-0.1738 6.645,0.1375 2.2424,0.3113 4.3654,0.9154 6.7734,1.6203 2.407,0.7049 5.098,1.5103 7.066,1.9587 1.967,0.4483 3.212,0.5399 4.311,0.5582 1.098,0.018 2.05,-0.037 2.511,0.4927 0.461,0.5293 0.431,1.6422 -1.6,2.5371 -2.03,0.8949 -6.059,1.5716 -10.093,2.2496"
       id="path138181" />
  </g>
</svg>
