<?xml version="1.0" encoding="UTF-8" standalone="no"?>
<!-- Created with Inkscape (http://www.inkscape.org/) -->

<svg
   version="1.1"
   id="svg2"
   width="250"
   height="250"
   viewBox="0 0 250 250"
   sodipodi:docname="golden-sickle.svg"
   inkscape:version="1.1 (c68e22c387, 2021-05-23)"
   xmlns:inkscape="http://www.inkscape.org/namespaces/inkscape"
   xmlns:sodipodi="http://sodipodi.sourceforge.net/DTD/sodipodi-0.dtd"
   xmlns="http://www.w3.org/2000/svg"
   xmlns:svg="http://www.w3.org/2000/svg">
  <defs
     id="defs6">
    <inkscape:path-effect
       effect="bspline"
       id="path-effect8418"
       is_visible="true"
       lpeversion="1"
       weight="33.3333"
       steps="2"
       helper_size="0"
       apply_no_weight="true"
       apply_with_weight="true"
       only_selected="false" />
    <inkscape:path-effect
       effect="bspline"
       id="path-effect862"
       is_visible="true"
       lpeversion="1"
       weight="33.3333"
       steps="2"
       helper_size="0"
       apply_no_weight="true"
       apply_with_weight="true"
       only_selected="false" />
  </defs>
  <sodipodi:namedview
     id="namedview4"
     pagecolor="#ffffff"
     bordercolor="#666666"
     borderopacity="1.0"
     inkscape:pageshadow="2"
     inkscape:pageopacity="0.0"
     inkscape:pagecheckerboard="0"
     showgrid="false"
     inkscape:zoom="1.91202"
     inkscape:cx="42.6251"
     inkscape:cy="134.936"
     inkscape:window-width="1920"
     inkscape:window-height="1047"
     inkscape:window-x="-9"
     inkscape:window-y="-9"
     inkscape:window-maximized="1"
     inkscape:current-layer="g8" />
  <g
     inkscape:groupmode="layer"
     inkscape:label="Image"
     id="g8">
    <path
       style="fill:#fff200;fill-opacity:1;stroke:none;stroke-width:1px;stroke-linecap:butt;stroke-linejoin:miter;stroke-opacity:1"
       d="m 122.908,162.83 c -1.57,-0.698 -1.57,-0.698 -1.57,-0.698 -11.07,-9.5 -22.1397,-19.001 -28.8082,-25.016 -6.6684,-6.014 -8.9348,-8.542 -9.7633,-10.199 -0.8285,-1.657 -0.2187,-2.441 1.1324,-3.792 1.3511,-1.351 3.4433,-3.269 6.2328,-6.756 2.7894,-3.487 6.2758,-8.542 9.3268,-14.295 3.0515,-5.7531 5.6665,-12.2033 7.2785,-17.6512 1.613,-5.4479 2.223,-9.8934 1.046,-16.1258 -1.176,-6.2324 -4.14,-14.2515 -9.0209,-20.0486 C 93.881,42.4514 87.082,38.8775 78.9317,36.2187 70.7813,33.5598 61.2802,31.8165 50.3841,31.1191 39.4879,30.4216 27.1974,30.7703 20.5289,31.0318 c -6.6684,0.2614 -7.7144,0.4357 -9.414,0.044 C 9.4153,30.6836 7.06183,29.7248 7.01766,28.199 6.97349,26.6733 9.23982,24.5813 15.2112,21.9226 21.1826,19.2639 30.8581,16.0387 41.7107,13.2929 52.5633,10.5471 64.5923,8.28081 73.6579,7.1477 82.7235,6.01459 88.8252,6.01459 95.1016,8.06359 c 6.2764,2.04901 12.7264,6.14571 18.6974,11.28881 5.971,5.1431 11.462,11.3316 14.949,20.7024 3.486,9.3708 4.968,21.9227 4.968,32.6008 0,10.678 -1.482,19.4818 -4.228,27.5444 -2.746,8.063 -6.755,15.385 -10.765,22.707 2.441,2.092 4.882,4.185 7.018,5.928 2.136,1.743 3.966,3.138 5.405,4.14 1.438,1.003 2.484,1.613 3.66,2.398 1.177,0.784 2.485,1.743 1.83,6.929 -0.654,5.187 -3.269,14.601 -6.145,18.611 -2.876,4.01 -6.014,2.615 -7.583,1.917 z"
       id="path8416"
       inkscape:path-effect="#path-effect8418"
       inkscape:original-d="m 121.338,162.132 c 0,0 0,0 0,0 -11.07,-9.5 -22.1398,-19.001 -33.2112,-28.503 -2.2654,-2.527 -4.5317,-5.055 -6.7991,-7.584 0.6112,-0.784 1.2214,-1.568 1.8306,-2.354 2.093,-1.916 4.185,-3.834 6.2761,-5.753 3.4878,-5.055 6.9744,-10.11 10.4601,-15.167 2.6165,-6.4495 5.2315,-12.8998 7.8455,-19.3512 0.611,-4.4447 1.221,-8.8902 1.83,-13.3367 -2.963,-8.0186 -5.926,-16.0379 -8.891,-24.0584 -6.7982,-3.573 -13.5972,-7.1468 -20.3973,-10.7217 -9.5005,-1.7424 -19.0016,-3.4857 -28.5039,-5.23 -12.2899,0.3496 -24.5804,0.6983 -36.8721,1.046 -1.045,0.1753 -2.091,0.3496 -3.138,0.523 -2.3526,-0.9579 -4.70609,-1.9167 -7.06063,-2.8766 2.26741,-2.091 4.53374,-4.183 6.79913,-6.2761 9.6768,-3.2242 19.3523,-6.4494 29.0269,-9.6756 12.0304,-2.2654 24.0594,-4.53174 36.0876,-6.79911 6.1028,0.001 12.2045,0.001 18.3052,0 6.4521,4.09801 12.9021,8.19481 19.3511,12.29071 5.493,6.19 10.984,12.3788 16.475,18.5668 1.483,12.5534 2.965,25.1053 4.446,37.6565 -1.481,8.8052 -2.963,17.609 -4.446,26.4124 -4.009,7.323 -12.029,21.966 -12.029,21.966 0,0 4.882,4.185 7.322,6.276 1.831,1.396 3.662,2.79 5.492,4.184 1.047,0.611 2.093,1.221 3.138,1.831 1.308,0.959 2.616,1.918 3.922,2.876 -2.614,9.415 -5.229,18.829 -7.845,28.243 -3.137,-1.394 -6.275,-2.789 -9.414,-4.185 z" />
    <path
       style="fill:#b97a56;fill-opacity:1;stroke:none;stroke-width:1px;stroke-linecap:butt;stroke-linejoin:miter;stroke-opacity:1"
       d="m 116.587,156.518 c 1.942,-0.422 5.64,-0.761 8.46,-2.394 2.819,-1.634 4.761,-4.562 6.117,-7.212 1.356,-2.649 2.126,-5.022 2.512,-6.209 0.385,-1.187 0.385,-8.122 0.555,-8.168 0.169,-0.05 0.509,-0.139 3.553,1.017 3.044,1.155 8.794,3.558 14.72,6.699 5.925,3.141 12.027,7.02 22.901,14.19 10.874,7.169 26.521,17.63 37.003,24.887 10.482,7.256 15.799,11.309 19.612,15.428 3.814,4.119 6.124,8.303 7.562,12.269 1.438,3.966 2.004,7.714 1.372,11.048 -0.632,3.334 -2.462,6.254 -5.077,8.281 -2.615,2.026 -6.014,3.159 -11.288,3.247 -5.273,0.09 -12.421,-0.872 -22.751,-6.145 -10.329,-5.274 -23.84,-14.862 -38.724,-25.671 -14.884,-10.809 -31.141,-22.838 -39.509,-29.681 -8.368,-6.842 -8.848,-8.498 -8.996,-9.579 -0.148,-1.08 0.04,-1.586 1.978,-2.007 z"
       id="path860"
       inkscape:path-effect="#path-effect862"
       inkscape:original-d="m 114.83,156.435 c 3.699,-0.338 7.397,-0.677 11.095,-1.017 1.942,-2.927 3.884,-5.855 5.824,-8.783 0.772,-2.372 1.542,-4.745 2.312,-7.119 v -6.935 c 0.34,-0.09 0.679,-0.184 1.017,-0.277 5.75,2.404 11.5,4.807 17.248,7.208 6.103,3.88 12.205,7.759 18.305,11.637 15.648,10.462 31.295,20.922 46.94,31.381 5.319,4.054 10.636,8.107 15.952,12.16 2.311,4.185 4.621,8.369 6.93,12.552 0.568,3.749 1.134,7.497 1.7,11.245 -1.83,2.921 -3.66,5.841 -5.492,8.76 -3.399,1.134 -6.798,2.267 -10.199,3.4 -7.146,-0.958 -14.294,-1.917 -21.443,-2.877 -13.51,-9.588 -27.021,-19.176 -40.533,-28.765 -16.256,-12.029 -32.513,-24.058 -48.77,-36.088 -0.479,-1.655 -0.958,-3.311 -1.439,-4.969 0.185,-0.503 0.37,-1.008 0.553,-1.513 z"
       sodipodi:nodetypes="ccccccccccccccccccc" />
  </g>
</svg>
