<svg version="1.2" baseProfile="tiny-ps" xmlns="http://www.w3.org/2000/svg" viewBox="0 0 259 260" width="259" height="260">
	<title>Background</title>
	<style>
		tspan { white-space:pre }
		.shp0 { fill: #07862c } 
		.shp1 { fill: #15ba44 } 
		.shp2 { fill: #ffffff } 
	</style>
	<g id="Background">
		<path id="Path 0" class="shp0" d="M0.25 9.21C0.48 17.75 0.66 18.5 2.5 18.5C4.29 18.5 4.53 17.75 4.75 11.25L5 4C17.92 3.55 19.5 3.17 19.5 2C19.5 0.79 17.62 0.44 9.75 0.21L0 -0.07L0.25 9.21ZM57 59.1C8.88 106.23 5.86 109.39 5.93 112.6C5.99 115.74 11.34 121.32 77.13 186.75C116.25 225.66 149.1 258.06 150.13 258.75C151.64 259.76 152.63 259.73 155.25 258.61C157.11 257.82 179.97 236.03 208.75 207.61C254.81 162.13 259 157.73 258.97 154.75C258.94 152.15 257.88 150.5 253.67 146.5C250.77 143.75 218.94 112.19 182.95 76.38C146.95 40.56 116.49 10.75 115.25 10.13C114.01 9.51 111.91 9 110.57 9C108.72 9 96.13 20.77 57 59.1Z" />
		<path id="Path 1" class="shp1" d="M74.49 56.89C55.24 75.53 34.67 95.67 28.77 101.64L18.04 112.5L152 245C172.54 225.82 193.35 205.57 211.5 187.63L244.5 155.01C208.07 119.81 177.92 90.11 154 66.3C130.07 42.49 110.27 23.01 109.99 23.01C109.7 23 93.73 38.25 74.49 56.89Z" />
		<path id="Path 2" class="shp2" d="M137 97.59C134.3 98.69 133.05 100.11 131.54 103.76C130.02 107.45 129.56 111.05 129.47 120C129.41 126.32 128.94 132.38 128.43 133.46C127.92 134.53 125.02 137.72 122 140.54C118.97 143.36 114.36 147.54 111.75 149.83L107 154C96.63 146.82 93.09 145.1 91.75 145.25C90.18 145.42 89.41 146.26 89.21 148C89.05 149.37 89.87 151.85 91.03 153.5C92.2 155.15 94.69 157.51 96.58 158.75L100 161C95.35 166.42 93.99 169.01 93.97 170.25C93.95 171.49 94.74 173.28 95.72 174.22C96.7 175.17 98.17 175.97 99 176.01C99.82 176.04 102.52 174.54 105 172.67L109.5 169.28C120.06 175.75 123.07 176.8 128 177.34C133.95 177.99 134.69 177.86 136.73 175.78C137.95 174.52 139.43 171.92 140 170C140.58 168.07 141.08 161.55 141.1 155.5C141.13 149.45 141.06 144.05 140.95 143.5C140.85 142.95 140.82 141.26 140.88 139.75C140.97 137.58 143.17 135.08 151.25 127.94C156.89 122.96 162.06 119.14 162.75 119.44C163.44 119.75 166.59 122.04 169.75 124.53C173.75 127.68 176.57 129.13 179 129.28C182.22 129.48 182.52 129.26 182.78 126.5C183.03 123.91 182.09 122.6 176.01 117L168.95 110.5C173.67 105.85 175.03 103.49 175.02 102.25C175.01 101.01 174.1 99.1 173 98C171.63 96.63 170.29 96.2 168.75 96.63C167.51 96.98 164.81 98.78 162.75 100.63L159 104C154.74 101.01 151.7 99.51 149.5 98.72C147.3 97.94 144.37 97.05 143 96.73C141.62 96.41 138.92 96.8 137 97.59Z" />
		<path id="Path 3" class="shp1" d="M141.51 109.25C140.48 110.76 140.06 113.31 140.23 117L140.5 122.5C149.46 113.97 151.71 111.19 151.28 110.8C150.85 110.42 148.82 109.4 146.78 108.55C143.18 107.05 143 107.07 141.51 109.25ZM123.18 154.82C119.75 157.95 116.96 161.06 116.98 161.75C116.99 162.44 119.14 164.11 121.75 165.46C125.92 167.62 126.74 167.75 128.5 166.54C130.09 165.44 130.6 163.68 130.99 157.99C131.28 153.66 131.06 150.5 130.44 149.99C129.81 149.48 126.97 151.36 123.18 154.82Z" />
	</g>
</svg>