<?xml version="1.0" encoding="UTF-8" standalone="no"?>
<!-- Created with Inkscape (http://www.inkscape.org/) -->

<svg
   version="1.1"
   id="svg2"
   width="80.8974"
   height="80.8974"
   viewBox="0 0 80.8974 80.8974"
   sodipodi:docname="more-info.svg"
   inkscape:version="1.1 (c68e22c387, 2021-05-23)"
   xmlns:inkscape="http://www.inkscape.org/namespaces/inkscape"
   xmlns:sodipodi="http://sodipodi.sourceforge.net/DTD/sodipodi-0.dtd"
   xmlns="http://www.w3.org/2000/svg"
   xmlns:svg="http://www.w3.org/2000/svg">
  <defs
     id="defs6" />
  <sodipodi:namedview
     id="namedview4"
     pagecolor="#ffffff"
     bordercolor="#666666"
     borderopacity="1.0"
     inkscape:pageshadow="2"
     inkscape:pageopacity="0.0"
     inkscape:pagecheckerboard="0"
     showgrid="false"
     inkscape:zoom="3.24813"
     inkscape:cx="5.38771"
     inkscape:cy="87.7427"
     inkscape:window-width="1920"
     inkscape:window-height="1047"
     inkscape:window-x="-9"
     inkscape:window-y="-9"
     inkscape:window-maximized="1"
     inkscape:current-layer="g8"
     fit-margin-top="5"
     lock-margins="true"
     fit-margin-left="5"
     fit-margin-right="5"
     fit-margin-bottom="5" />
  <g
     inkscape:groupmode="layer"
     inkscape:label="Image"
     id="g8"
     transform="translate(-7.5513,-7.5513)">
    <g
       aria-label="?"
       id="text5592"
       style="font-size:60.4295px;line-height:1.25;-inkscape-font-specification:sans-serif;stroke-width:1.59886">
      <path
         d="m 60.4665,36.8023 c 0,1.9277 -0.3442,3.6489 -1.0327,5.1636 -0.6885,1.495 -1.5933,2.8228 -2.7146,3.9834 -1.1016,1.1213 -2.3704,2.1737 -3.8064,3.1572 -1.4359,0.9836 -3.7669,2.4 -4.5735,2.8622 -0.8065,0.4623 0,6.3759 0,6.3759 0,0 0.1383,2.034 -0.4129,2.6875 -0.5513,0.6534 -3.9046,0.6534 -4.4559,0 -0.5512,-0.6535 -0.4129,-2.6875 -0.4129,-2.6875 0,0 -0.6393,-8.3724 0,-8.7364 0.6394,-0.3639 2.6557,-1.5246 4.131,-2.3901 1.495,-0.8655 2.7146,-1.7409 3.6588,-2.6261 1.1409,-1.0229 2.0261,-2.0753 2.6556,-3.1572 0.6295,-1.1015 0.9442,-2.4982 0.9442,-4.1899 0,-2.2229 -0.7573,-3.8752 -2.272,-4.9571 -1.495,-1.1016 -3.4326,-1.6524 -5.8128,-1.6524 -2.1245,0 -4.1408,0.3344 -6.0489,1.0032 -1.9913,0.7512 -3.8767,1.8354 -4.485,2.036 -0.6083,0.2006 -2.1483,1.5548 -3.1912,0.055 -0.6744,-0.9698 -0.6531,-2.0102 -0.2118,-2.8063 0.3459,-0.624 0.9593,-1.0832 1.237,-1.3336 0.4941,-0.4456 3.6751,-2.5351 7.0936,-3.3508 2.1245,-0.4327 4.1309,-0.6491 6.0194,-0.6491 4.2293,0 7.5635,1.0327 10.0027,3.0982 2.4589,2.0458 3.6883,4.7506 3.6883,8.1143 z M 48.0803,69.6541 c -1.0742,1.0741 -3.4829,1.0741 -4.5571,0 -1.111,-1.111 -1.111,-3.6025 0,-4.7135 1.0742,-1.0741 3.4829,-1.0741 4.5571,0 1.111,1.111 1.111,3.6025 0,4.7135 z"
         id="path24597"
         sodipodi:nodetypes="sccszczzczcccscsczssscscssssss" />
    </g>
    <rect
       style="fill:none;stroke:#000000;stroke-width:7.5;stroke-linecap:round;stroke-linejoin:round;stroke-miterlimit:4;stroke-dasharray:none;stroke-opacity:1"
       id="rect887"
       width="63.3974"
       height="63.3974"
       x="16.3013"
       y="16.3013" />
  </g>
</svg>
