<?xml version="1.0" encoding="UTF-8" standalone="no"?>
<!-- Created with Inkscape (http://www.inkscape.org/) -->

<svg
   version="1.1"
   id="svg2"
   width="455.515"
   height="447.943"
   viewBox="0 0 455.515 447.943"
   sodipodi:docname="sickle-black.svg"
   inkscape:version="1.1 (c68e22c387, 2021-05-23)"
   xmlns:inkscape="http://www.inkscape.org/namespaces/inkscape"
   xmlns:sodipodi="http://sodipodi.sourceforge.net/DTD/sodipodi-0.dtd"
   xmlns:xlink="http://www.w3.org/1999/xlink"
   xmlns="http://www.w3.org/2000/svg"
   xmlns:svg="http://www.w3.org/2000/svg">
  <defs
     id="defs6">
    <linearGradient
       inkscape:collect="always"
       id="linearGradient49060">
      <stop
         style="stop-color:#b1875b;stop-opacity:1"
         offset="0"
         id="stop49056" />
      <stop
         style="stop-color:#886541;stop-opacity:1"
         offset="1"
         id="stop49058" />
    </linearGradient>
    <inkscape:path-effect
       effect="bspline"
       id="path-effect49005"
       is_visible="true"
       lpeversion="1"
       weight="33.3333"
       steps="2"
       helper_size="0"
       apply_no_weight="true"
       apply_with_weight="true"
       only_selected="false" />
    <linearGradient
       inkscape:collect="always"
       id="linearGradient47124">
      <stop
         style="stop-color:#cecece;stop-opacity:1"
         offset="0"
         id="stop47120" />
      <stop
         style="stop-color:#b6b6b6;stop-opacity:1"
         offset="1"
         id="stop47122" />
    </linearGradient>
    <inkscape:path-effect
       effect="bspline"
       id="path-effect47088"
       is_visible="true"
       lpeversion="1"
       weight="33.3333"
       steps="2"
       helper_size="0"
       apply_no_weight="true"
       apply_with_weight="true"
       only_selected="false" />
    <inkscape:path-effect
       effect="bspline"
       id="path-effect44824"
       is_visible="true"
       lpeversion="1"
       weight="33.3333"
       steps="2"
       helper_size="0"
       apply_no_weight="true"
       apply_with_weight="true"
       only_selected="false" />
    <linearGradient
       inkscape:collect="always"
       xlink:href="#linearGradient47124"
       id="linearGradient47126"
       x1="381.58"
       y1="333.007"
       x2="409.454"
       y2="315.606"
       gradientUnits="userSpaceOnUse"
       gradientTransform="translate(459.686)" />
    <linearGradient
       inkscape:collect="always"
       xlink:href="#linearGradient49060"
       id="linearGradient49062"
       x1="421.673"
       y1="411.587"
       x2="451.449"
       y2="391.416"
       gradientUnits="userSpaceOnUse"
       gradientTransform="translate(459.686)" />
    <clipPath
       clipPathUnits="userSpaceOnUse"
       id="clipPath50585">
      <path
         style="opacity:1;fill:#4e4e4e;fill-opacity:1"
         d="m 952.768,310.318 -9.366,-8.953 0.609,-19.763 c 0.335,-10.87 3.038,-36.658 3.374,-57.833 0.589,-37.163 -1.62,-39.22 -3.689,-47.258 -8.032,-31.207 -24.63,-55.696 -51.561,-76.075 -23.578,-17.8429 -37.447,-23.1857 -68,-26.1955 -41.564,-4.0945 -85.599,8.7623 -127.5,37.2255 -21.353,14.505 -46.625,41.539 -65.972,70.571 -4.838,7.26 -9.073,12.922 -9.412,12.583 -0.964,-0.963 -0.723,-12.346 0.444,-20.96 1.511,-11.16 8.28,-31.256 14.05,-41.715 20.876,-37.84 58.983,-67.5319 106.89,-83.2843 30.039,-9.8773 48.477,-12.9348 72.5,-12.0223 17.901,0.68 25.678,2.0194 47.5,8.1811 33.093,9.3442 56.938,24.2516 79.764,49.8671 10.711,12.0204 18.623,24.0704 26.252,39.9864 12.159,25.365 15.893,44.215 15.954,80.541 0.03,18.737 -2.659,48.719 -3.239,53.124 -0.611,4.643 -1.41,12.169 -2.413,23.278 l -1.818,20.12 -6.5,3.781 c -3.575,2.08 -6.95,3.776 -7.5,3.768 -0.55,0 -5.215,-4.043 -10.367,-8.967 z m 9.419,7.103 c 0.326,0.529 -0.324,-0.523 0,0 z"
         id="path50587"
         sodipodi:nodetypes="scsssssssssssssssssscsssss" />
    </clipPath>
  </defs>
  <sodipodi:namedview
     id="namedview4"
     pagecolor="#ffffff"
     bordercolor="#666666"
     borderopacity="1.0"
     inkscape:pageshadow="2"
     inkscape:pageopacity="0.0"
     inkscape:pagecheckerboard="0"
     showgrid="false"
     inkscape:zoom="0.958216"
     inkscape:cx="239.508"
     inkscape:cy="54.2675"
     inkscape:window-width="1920"
     inkscape:window-height="1047"
     inkscape:window-x="-9"
     inkscape:window-y="-9"
     inkscape:window-maximized="1"
     inkscape:current-layer="g8"
     fit-margin-top="5"
     lock-margins="true"
     fit-margin-left="5"
     fit-margin-right="5"
     fit-margin-bottom="5" />
  <g
     inkscape:groupmode="layer"
     inkscape:label="Image"
     id="g8"
     transform="translate(-496.422,-31.4852)">
    <g
       id="g51373">
      <path
         style="fill:url(#linearGradient49062);fill-opacity:1;stroke:none;stroke-width:1px;stroke-linecap:butt;stroke-linejoin:miter;stroke-opacity:1"
         d="m 855.626,359.853 c 12.51,22.866 37.196,68.133 50.026,91.046 12.829,22.914 13.664,23.226 15.128,23.408 1.464,0.181 3.556,0.232 6.125,-0.375 2.57,-0.606 5.614,-1.868 8.442,-3.549 2.828,-1.681 5.439,-3.777 7.375,-6.056 1.937,-2.28 3.189,-4.732 3.815,-6.584 0.627,-1.853 0.627,-3.099 -0.797,-6.037 -1.424,-2.937 -4.242,-7.503 -16.614,-29.456 -12.372,-21.954 -34.284,-61.272 -45.289,-81.051 -11.004,-19.778 -11.103,-20.022 -11.771,-20.826 -0.667,-0.804 -1.904,-2.169 -3.707,-1.397 -1.803,0.772 -4.172,3.682 -8.687,6.654 -4.515,2.973 -11.194,6.016 -14.4,7.806 -3.206,1.79 -2.949,2.331 -2.686,2.772 0.262,0.44 0.529,0.78 13.04,23.645 z"
         id="path49003"
         inkscape:path-effect="#path-effect49005"
         inkscape:original-d="m 843.382,337.327 c 24.754,45.392 49.44,90.659 74.259,136.171 0.84,0.316 1.675,0.628 2.51,0.94 2.093,0.05 4.185,0.102 6.278,0.151 3.046,-1.262 6.09,-2.524 9.13,-3.786 2.617,-2.1 5.228,-4.196 7.845,-6.299 1.256,-2.456 2.508,-4.908 3.76,-7.362 10e-4,-1.252 10e-4,-2.498 0,-3.759 -2.848,-4.614 -5.666,-9.18 -8.5,-13.771 -21.91,-39.316 -43.822,-78.634 -65.732,-117.949 -0.1,-0.242 -0.198,-0.486 -0.298,-0.73 -1.235,-1.364 -2.472,-2.729 -3.709,-4.095 -2.368,2.911 -4.737,5.821 -7.107,8.73 -6.67,3.014 -13.339,6.079 -20.01,9.117 0.258,0.541 0.516,1.082 0.772,1.622 0.268,0.341 0.535,0.681 0.802,1.02 z"
         sodipodi:nodetypes="cccccccccccccccc" />
      <path
         style="fill:url(#linearGradient47126);fill-opacity:1;stroke:none;stroke-width:1px;stroke-linecap:butt;stroke-linejoin:miter;stroke-opacity:1"
         d="m 866.997,311.788 c 1.284,2.033 3.694,5.606 4.884,7.572 1.191,1.965 1.165,2.322 0.876,3.133 -0.288,0.81 -0.838,2.075 -2.57,3.957 -1.732,1.883 -4.646,4.385 -7.628,6.364 -2.982,1.979 -6.034,3.436 -8.837,4.412 -2.804,0.976 -5.36,1.471 -7.051,1.567 -1.691,0.1 -2.515,-0.206 -3.051,-0.549 -0.536,-0.343 -0.784,-0.728 -1.746,-2.913 -0.962,-2.186 -2.639,-6.172 -3.475,-8.472 -0.835,-2.3 -0.829,-2.914 -0.365,-3.733 0.463,-0.819 1.383,-1.842 5.614,-4.27 4.23,-2.429 11.77,-6.262 15.747,-8.137 3.976,-1.875 4.389,-1.793 4.795,-1.792 0.406,0 0.807,-0.08 1.085,0.127 0.279,0.207 0.438,0.701 1.722,2.734 z"
         id="path47086"
         inkscape:path-effect="#path-effect47088"
         inkscape:original-d="m 865.872,310.248 c 2.41,3.573 4.819,7.146 7.227,10.718 -0.03,0.359 -0.05,0.716 -0.08,1.072 -0.549,1.266 -1.099,2.53 -1.65,3.794 -2.913,2.502 -5.827,5.004 -8.741,7.504 -3.051,1.458 -6.102,2.915 -9.154,4.371 -2.556,0.496 -5.112,0.991 -7.67,1.485 -0.824,-0.302 -1.648,-0.604 -2.474,-0.908 -0.246,-0.383 -0.494,-0.768 -0.742,-1.154 -1.676,-3.985 -3.353,-7.971 -5.031,-11.958 0,-0.613 0.01,-1.227 0.02,-1.842 0.921,-1.022 1.841,-2.045 2.76,-3.069 7.542,-3.832 15.082,-7.666 22.621,-11.5 0.414,0.08 0.826,0.166 1.237,0.247 0.401,-0.08 0.802,-0.159 1.2,-0.241 0.159,0.494 0.319,0.988 0.477,1.481 z"
         sodipodi:nodetypes="scccccccccccccss" />
      <path
         style="fill:#d5d5d5;fill-opacity:1;stroke:none;stroke-width:1px;stroke-linecap:butt;stroke-linejoin:miter;stroke-opacity:1"
         d="m 837.574,323.33 c -0.05,-0.776 0.159,-2.147 1.061,-3.643 0.902,-1.496 2.501,-3.118 4.888,-4.831 2.386,-1.713 5.56,-3.517 8.529,-4.624 2.969,-1.107 5.731,-1.518 7.82,-1.735 2.09,-0.216 3.507,-0.24 4.489,0.07 0.983,0.308 1.531,0.948 1.496,1.712 -0.03,0.765 -0.651,1.655 -1.758,2.866 -1.108,1.21 -2.707,2.74 -4.876,4.259 -2.17,1.518 -4.91,3.025 -7.468,4.202 -2.557,1.176 -4.932,2.021 -7.159,2.443 -2.226,0.423 -4.304,0.423 -5.491,0.332 -1.188,-0.09 -1.485,-0.274 -1.531,-1.05 z"
         id="path44822"
         inkscape:path-effect="#path-effect44824"
         inkscape:original-d="m 837.322,323.923 c 0.207,-1.369 0.412,-2.74 0.617,-4.111 1.599,-1.62 3.198,-3.242 4.795,-4.864 3.176,-1.803 6.35,-3.607 9.524,-5.413 2.763,-0.409 5.525,-0.82 8.286,-1.231 1.418,-0.02 2.835,-0.05 4.251,-0.07 0.549,0.64 1.097,1.28 1.644,1.918 -0.615,0.892 -1.232,1.782 -1.849,2.672 -1.598,1.531 -3.197,3.061 -4.796,4.59 -2.74,1.509 -5.48,3.016 -8.222,4.522 -2.374,0.846 -4.749,1.691 -7.125,2.535 -2.077,10e-4 -4.155,10e-4 -6.234,0 -0.296,-0.182 -0.593,-0.364 -0.891,-0.548 z" />
      <path
         style="opacity:1;fill:#4e4e4e;fill-opacity:1"
         d="m 833.537,310.318 -9.366,-8.953 0.609,-19.763 c 0.335,-10.87 3.038,-36.658 3.374,-57.833 0.589,-37.163 -1.62,-39.22 -3.689,-47.258 -8.032,-31.207 -24.63,-55.696 -51.561,-76.075 -23.578,-17.8429 -37.447,-23.1857 -68,-26.1955 -41.564,-4.0945 -85.599,8.7623 -127.5,37.2255 -21.353,14.505 -46.625,41.539 -65.972,70.571 -4.838,7.26 -9.073,12.922 -9.412,12.583 -0.964,-0.963 -0.723,-12.346 0.444,-20.96 1.511,-11.16 8.28,-31.256 14.05,-41.715 20.876,-37.84 58.983,-67.5319 106.89,-83.2843 30.039,-9.8773 48.477,-12.9348 72.5,-12.0223 17.901,0.68 25.678,2.0194 47.5,8.1811 33.093,9.3442 56.938,24.2516 79.764,49.8671 10.711,12.0204 18.623,24.0704 26.252,39.9864 12.159,25.365 15.893,44.215 15.954,80.541 0.03,18.737 -2.322,49.063 -4.124,53.124 -0.611,1.375 -1.613,11.702 -2.228,22.949 l -1.118,20.449 -6.5,3.781 c -3.575,2.08 -6.95,3.776 -7.5,3.768 -0.55,0 -5.215,-4.043 -10.367,-8.967 z m 9.419,7.103 c 0.326,0.529 -0.324,-0.523 0,0 z"
         id="path849"
         sodipodi:nodetypes="scsssssssssssssssssscsssss" />
      <path
         style="opacity:1;fill:#333333;fill-opacity:1"
         d="m 962.676,319.166 c -0.324,-0.523 -0.176,-28.307 0.925,-59.608 2.696,-76.589 2.034,-85.655 -7.787,-106.72 -9.011,-19.327 -18.785,-34.331 -33.225,-51.003 C 912.165,89.801 908.167,86.1078 898.507,79.5895 887.985,72.4896 878.934,68.2107 864.635,63.5771 848.338,58.2959 839.071,56.5261 822.76,55.5791 782.351,53.233 739.7,64.3895 706.38,86.0215 c -20.689,13.4318 -46.596,36.6145 -55.823,49.9525 -4.749,6.866 -21.358,37.381 -24.419,44.864 -2.24,5.478 -4.438,13.876 -5.022,13.866 -0.346,0 -0.319,-6.904 -0.319,-8.547 0,-21.185 -33.802,-76.531 -18.161,-98.14 22.147,-30.5966 87.573,-57.471 129.705,-69.8103 29.772,-8.71938 43.294,-28.07084 64.923,-27.17174 18.437,0.7665 48.28,1.95984 68.255,7.77034 21.706,6.3141 56.148,2.80856 69.459,12.6639 14.928,11.0529 22.641,45.7545 32.003,59.8693 6.258,9.435 53.069,21.5651 57.049,33.8035 4.78,14.725 9.61,82.393 9.61,107.772 0,18.261 -2.52,49.724 -2.91,56.137 -0.43,6.97 -0.97,10.615 -1.94,21.356 l -1.65,18.321 -57.135,7.393 c -4.237,0.548 -7.003,3.574 -7.329,3.045 z"
         id="path847"
         sodipodi:nodetypes="sssssssssssssssssssssscss"
         clip-path="url(#clipPath50585)"
         transform="translate(-119.231)" />
    </g>
  </g>
</svg>
