<?xml version="1.0" encoding="UTF-8" standalone="no"?>
<!-- Created with Inkscape (http://www.inkscape.org/) -->

<svg
   width="15.463654mm"
   height="30.251701mm"
   viewBox="0 0 15.463654 30.251701"
   version="1.1"
   id="svg519733"
   inkscape:version="1.1 (c68e22c387, 2021-05-23)"
   sodipodi:docname="essence.svg"
   xmlns:inkscape="http://www.inkscape.org/namespaces/inkscape"
   xmlns:sodipodi="http://sodipodi.sourceforge.net/DTD/sodipodi-0.dtd"
   xmlns="http://www.w3.org/2000/svg"
   xmlns:svg="http://www.w3.org/2000/svg">
  <sodipodi:namedview
     id="namedview519735"
     pagecolor="#ffffff"
     bordercolor="#666666"
     borderopacity="1.0"
     inkscape:pageshadow="2"
     inkscape:pageopacity="0.0"
     inkscape:pagecheckerboard="0"
     inkscape:document-units="mm"
     showgrid="false"
     inkscape:zoom="2.4801347"
     inkscape:cx="-79.632772"
     inkscape:cy="48.384469"
     inkscape:window-width="1920"
     inkscape:window-height="1047"
     inkscape:window-x="-9"
     inkscape:window-y="-9"
     inkscape:window-maximized="1"
     inkscape:current-layer="layer1"
     fit-margin-top="2.5"
     lock-margins="true"
     fit-margin-left="2.5"
     fit-margin-right="2.5"
     fit-margin-bottom="2.5" />
  <defs
     id="defs519730">
    <inkscape:path-effect
       effect="bspline"
       id="path-effect422047"
       is_visible="true"
       lpeversion="1"
       weight="33.333333"
       steps="2"
       helper_size="0"
       apply_no_weight="true"
       apply_with_weight="true"
       only_selected="false" />
    <inkscape:path-effect
       effect="spiro"
       id="path-effect422051"
       is_visible="true"
       lpeversion="1" />
    <clipPath
       clipPathUnits="userSpaceOnUse"
       id="clipPath82134">
      <path
         id="path82136"
         style="fill:#59f340;stroke-width:4.99999;stroke-linecap:round;stroke-linejoin:round"
         d="m 290.88376,142.25555 c 0.40411,0.944 -0.22237,2.04435 -1.1029,2.45315 -0.53572,0.27362 -1.18525,0.24137 -1.70896,-0.0437 -1.21833,-0.57076 -1.45778,-2.43248 -0.46664,-3.32237 0.92046,-0.81386 2.57181,-0.5699 3.14258,0.54394 0.0603,0.11675 0.10656,0.24089 0.13592,0.36897 z"
         sodipodi:nodetypes="csssc" />
    </clipPath>
    <inkscape:path-effect
       effect="bspline"
       id="path-effect422055"
       is_visible="true"
       lpeversion="1"
       weight="33.333333"
       steps="2"
       helper_size="0"
       apply_no_weight="true"
       apply_with_weight="true"
       only_selected="false" />
    <clipPath
       clipPathUnits="userSpaceOnUse"
       id="clipPath519678">
      <path
         id="path519676"
         style="fill:#59f340;stroke-width:4.99999;stroke-linecap:round;stroke-linejoin:round"
         d="m 290.88376,142.25555 c 0.40411,0.944 -0.22237,2.04435 -1.1029,2.45315 -0.53572,0.27362 -1.18525,0.24137 -1.70896,-0.0437 -1.21833,-0.57076 -1.45778,-2.43248 -0.46664,-3.32237 0.92046,-0.81386 2.57181,-0.5699 3.14258,0.54394 0.0603,0.11675 0.10656,0.24089 0.13592,0.36897 z"
         sodipodi:nodetypes="csssc" />
    </clipPath>
    <inkscape:path-effect
       effect="bspline"
       id="path-effect422059"
       is_visible="true"
       lpeversion="1"
       weight="33.333333"
       steps="2"
       helper_size="0"
       apply_no_weight="true"
       apply_with_weight="true"
       only_selected="false" />
    <clipPath
       clipPathUnits="userSpaceOnUse"
       id="clipPath519683">
      <path
         id="path519681"
         style="fill:#59f340;stroke-width:4.99999;stroke-linecap:round;stroke-linejoin:round"
         d="m 290.88376,142.25555 c 0.40411,0.944 -0.22237,2.04435 -1.1029,2.45315 -0.53572,0.27362 -1.18525,0.24137 -1.70896,-0.0437 -1.21833,-0.57076 -1.45778,-2.43248 -0.46664,-3.32237 0.92046,-0.81386 2.57181,-0.5699 3.14258,0.54394 0.0603,0.11675 0.10656,0.24089 0.13592,0.36897 z"
         sodipodi:nodetypes="csssc" />
    </clipPath>
    <inkscape:path-effect
       effect="bspline"
       id="path-effect422063"
       is_visible="true"
       lpeversion="1"
       weight="33.333333"
       steps="2"
       helper_size="0"
       apply_no_weight="true"
       apply_with_weight="true"
       only_selected="false" />
    <clipPath
       clipPathUnits="userSpaceOnUse"
       id="clipPath519688">
      <path
         id="path519686"
         style="fill:#59f340;stroke-width:4.99999;stroke-linecap:round;stroke-linejoin:round"
         d="m 290.88376,142.25555 c 0.40411,0.944 -0.22237,2.04435 -1.1029,2.45315 -0.53572,0.27362 -1.18525,0.24137 -1.70896,-0.0437 -1.21833,-0.57076 -1.45778,-2.43248 -0.46664,-3.32237 0.92046,-0.81386 2.57181,-0.5699 3.14258,0.54394 0.0603,0.11675 0.10656,0.24089 0.13592,0.36897 z"
         sodipodi:nodetypes="csssc" />
    </clipPath>
    <inkscape:path-effect
       effect="bspline"
       id="path-effect422067"
       is_visible="true"
       lpeversion="1"
       weight="33.333333"
       steps="2"
       helper_size="0"
       apply_no_weight="true"
       apply_with_weight="true"
       only_selected="false" />
    <clipPath
       clipPathUnits="userSpaceOnUse"
       id="clipPath519693">
      <path
         id="path519691"
         style="fill:#59f340;stroke-width:4.99999;stroke-linecap:round;stroke-linejoin:round"
         d="m 290.88376,142.25555 c 0.40411,0.944 -0.22237,2.04435 -1.1029,2.45315 -0.53572,0.27362 -1.18525,0.24137 -1.70896,-0.0437 -1.21833,-0.57076 -1.45778,-2.43248 -0.46664,-3.32237 0.92046,-0.81386 2.57181,-0.5699 3.14258,0.54394 0.0603,0.11675 0.10656,0.24089 0.13592,0.36897 z"
         sodipodi:nodetypes="csssc" />
    </clipPath>
    <inkscape:path-effect
       effect="bspline"
       id="path-effect422071"
       is_visible="true"
       lpeversion="1"
       weight="33.333333"
       steps="2"
       helper_size="0"
       apply_no_weight="true"
       apply_with_weight="true"
       only_selected="false" />
    <clipPath
       clipPathUnits="userSpaceOnUse"
       id="clipPath519698">
      <path
         id="path519696"
         style="fill:#59f340;stroke-width:4.99999;stroke-linecap:round;stroke-linejoin:round"
         d="m 290.88376,142.25555 c 0.40411,0.944 -0.22237,2.04435 -1.1029,2.45315 -0.53572,0.27362 -1.18525,0.24137 -1.70896,-0.0437 -1.21833,-0.57076 -1.45778,-2.43248 -0.46664,-3.32237 0.92046,-0.81386 2.57181,-0.5699 3.14258,0.54394 0.0603,0.11675 0.10656,0.24089 0.13592,0.36897 z"
         sodipodi:nodetypes="csssc" />
    </clipPath>
    <inkscape:path-effect
       effect="bspline"
       id="path-effect422075"
       is_visible="true"
       lpeversion="1"
       weight="33.333333"
       steps="2"
       helper_size="0"
       apply_no_weight="true"
       apply_with_weight="true"
       only_selected="false" />
  </defs>
  <g
     inkscape:label="Layer 1"
     inkscape:groupmode="layer"
     id="layer1"
     transform="translate(-186.77455,-150.01305)">
    <g
       id="g422043"
       transform="translate(-89.300746,15.785449)">
      <path
         style="fill:#d8f0ef;fill-opacity:1;stroke:none;stroke-width:0.264583px;stroke-linecap:butt;stroke-linejoin:miter;stroke-opacity:1"
         d="m 287.19334,141.68844 c -0.28358,2.79243 -0.10975,5.65599 0.78482,8.33032 0.72892,2.56497 1.83593,5.14504 1.58208,7.866 -0.32668,2.26231 -2.45278,3.94442 -4.68119,4.07293 -1.90221,0.15866 -4.00539,-0.555 -5.10637,-2.17817 -0.98703,-1.69317 -0.62053,-3.74224 -0.28587,-5.56884 0.49526,-2.42302 1.6555,-4.68254 1.85498,-7.16906 0.20928,-1.82212 0.21338,-3.65928 0.20324,-5.49089 1.88277,0.0459 3.76554,0.0919 5.64831,0.13771 z"
         id="path421995"
         sodipodi:nodetypes="ccccccccccc"
         transform="translate(-0.55835417)" />
      <path
         style="fill:#e4fefe;fill-opacity:1;stroke:none;stroke-width:0.264583px;stroke-linecap:butt;stroke-linejoin:miter;stroke-opacity:1"
         d="m 281.85819,141.67769 c 0.31321,0.12698 0.9393,0.38082 1.54998,0.49685 0.61068,0.11604 1.20598,0.0944 1.70925,0.0349 0.50327,-0.0595 0.91458,-0.15696 1.1147,-0.18934 0.20012,-0.0324 0.18928,1e-4 0.17847,0.16792 -0.0108,0.16782 -0.0217,0.47087 -0.0433,1.20149 -0.0217,0.73062 -0.0541,1.88875 3e-5,2.86833 0.0541,0.97959 0.19486,1.78054 0.40053,2.68434 0.20567,0.90381 0.47626,1.9104 0.75769,2.85749 0.28143,0.94709 0.57367,1.83463 0.79553,2.73842 0.22186,0.90379 0.3734,1.8238 0.35711,2.5814 -0.0163,0.7576 -0.20029,1.3529 -0.51416,1.86695 -0.31387,0.51405 -0.75763,0.94699 -1.40697,1.25004 -0.64934,0.30305 -1.5044,0.47623 -2.38109,0.47087 -0.87669,-0.005 -1.77504,-0.18936 -2.46237,-0.49775 -0.68734,-0.30839 -1.16358,-0.74133 -1.46135,-1.3258 -0.29776,-0.58447 -0.41682,-1.32048 -0.40062,-2.22431 0.0162,-0.90384 0.16772,-1.97537 0.47619,-3.07946 0.30848,-1.10408 0.77389,-2.24056 1.06074,-3.3229 0.28684,-1.08234 0.39508,-2.11058 0.48708,-3.15508 0.092,-1.04451 0.16778,-2.10522 0.17862,-2.94405 0.0109,-0.83883 -0.0433,-1.45578 -0.0325,-1.90502 0.0108,-0.44924 0.0865,-0.73065 -0.0153,-0.81981 -0.10189,-0.0892 -0.38162,0.0142 -0.52156,0.0659 -0.13994,0.0517 -0.1399,0.0517 0.17331,0.17867 z"
         id="path421997"
         inkscape:original-d="m 281.54498,141.5507 c 0.62637,0.2541 1.25246,0.50794 1.87829,0.76152 0.59559,-0.0214 1.19089,-0.043 1.78593,-0.0649 0.41158,-0.0971 0.82287,-0.19457 1.23392,-0.29225 -0.0106,0.0327 -0.0214,0.0652 -0.0325,0.0974 -0.0106,0.30334 -0.0214,0.60639 -0.0325,0.9092 -0.0322,1.15843 -0.0647,2.31656 -0.0974,3.47444 0.14097,0.80124 0.28168,1.60219 0.42212,2.40289 0.27087,1.0069 0.54146,2.01349 0.81179,3.01984 0.29251,0.88783 0.58475,1.77537 0.87673,2.66266 0.1518,0.9203 0.30333,1.84031 0.4546,2.76007 -0.18375,0.59558 -0.36775,1.19088 -0.55201,1.78592 -0.44353,0.43323 -0.88729,0.86617 -1.33133,1.29886 -0.85484,0.17345 -1.7099,0.34663 -2.56525,0.51954 -0.89813,-0.18374 -1.79648,-0.36774 -2.69512,-0.55201 -0.476,-0.4327 -0.95224,-0.86564 -1.42875,-1.29885 -0.1188,-0.73577 -0.23786,-1.47178 -0.35718,-2.20806 0.1518,-1.07132 0.30333,-2.14285 0.4546,-3.21468 0.46569,-1.13625 0.93111,-2.27273 1.39627,-3.40949 0.1085,-1.02802 0.21674,-2.05626 0.32471,-3.08479 0.076,-1.06049 0.1518,-2.1212 0.2273,-3.1822 -0.0539,-0.6167 -0.10797,-1.23365 -0.16235,-1.85087 0.076,-0.28116 0.15179,-0.56257 0.2273,-0.84426 -0.27948,0.10361 -0.55921,0.20696 -0.83921,0.31004 z"
         inkscape:path-effect="#path-effect422047"
         transform="translate(-0.55835417)" />
      <path
         style="fill:#e8fefc;fill-opacity:1;stroke:none;stroke-width:0.264583px;stroke-linecap:butt;stroke-linejoin:miter;stroke-opacity:1"
         d="m 282.17641,138.91019 c -0.31836,0.0424 -0.62418,0.17518 -0.87251,0.37885 -0.32607,0.26743 -0.54956,0.65847 -0.60852,1.07604 -0.059,0.41757 0.0486,0.8574 0.29855,1.19708 0.2209,0.30025 0.5427,0.51598 0.88841,0.65538 0.3457,0.1394 0.71616,0.20683 1.08622,0.25157 0.95175,0.11507 1.91631,0.0853 2.8701,-0.0115 0.29042,-0.0295 0.5817,-0.0654 0.86217,-0.1463 0.28047,-0.0809 0.55151,-0.20899 0.76804,-0.40476 0.20551,-0.1858 0.35676,-0.42939 0.43997,-0.69364 0.0832,-0.26426 0.099,-0.54846 0.0537,-0.82177 -0.0527,-0.31781 -0.1882,-0.62166 -0.39033,-0.87251 -0.29399,-0.36485 -0.72995,-0.61217 -1.19396,-0.67734"
         id="path421999"
         inkscape:original-d="m 282.17641,138.91019 c -0.29057,0.12655 -0.58141,0.25283 -0.87251,0.37885 -0.2911,0.12602 -0.20638,1.51568 -0.30997,2.27312 -0.10359,0.75744 1.31668,0.6049 1.97463,0.90695 0.65794,0.30205 1.91366,-0.007 2.8701,-0.0115 0.95643,-0.004 1.08707,-0.36711 1.63021,-0.55106 0.54314,-0.18395 0.32937,-1.01001 0.49365,-1.51541 0.16429,-0.5054 -0.25995,-0.58141 -0.39033,-0.87251 -0.13037,-0.2911 -0.7957,-0.4513 -1.19396,-0.67734"
         inkscape:path-effect="#path-effect422051"
         transform="translate(-0.55835417)" />
      <path
         style="fill:#ffffff;fill-opacity:1;stroke:none;stroke-width:0.264583px;stroke-linecap:butt;stroke-linejoin:miter;stroke-opacity:1"
         d="m 280.53019,157.81012 c -0.009,-0.12323 -0.0454,-0.61646 -0.0258,-1.18454 0.0195,-0.56809 0.11428,-1.23035 0.23,-1.78025 0.11573,-0.54991 0.23973,-0.99336 0.37613,-1.41516 0.1364,-0.4218 0.28487,-0.82509 0.49237,-1.48027 0.2075,-0.65517 0.26794,-0.88174 0.56722,-1.70998 0.29928,-0.82823 -0.002,-0.86157 0.21064,-0.99722 0.21264,-0.13566 1.09672,-0.3215 1.56103,-0.36247 0.46431,-0.041 0.8932,-0.0283 1.26044,0.0488 0.36723,0.0771 0.76854,0.0769 0.95934,0.27204 0.19081,0.19514 0.25756,0.69155 0.44078,1.22692 0.18321,0.53538 0.38806,1.24767 0.61282,2.09078 0.22476,0.8431 0.4644,1.81814 0.59077,2.75752 0.12636,0.93938 0.4896,1.94018 0.3555,2.50236 -0.13415,0.56218 -0.59557,1.02372 -0.89826,1.29388 -0.30269,0.27017 -0.82888,0.50202 -1.46115,0.66237 -0.63228,0.16035 -1.46983,0.0101 -2.17314,-0.0542 -0.70331,-0.0643 -1.37078,-0.24617 -1.84571,-0.50989 -0.47494,-0.26372 -0.85378,-0.61295 -1.00005,-0.81584 -0.14627,-0.20289 -0.14626,-0.20288 -0.19501,-0.31224 -0.0487,-0.10936 -0.0488,-0.10933 -0.0578,-0.23256 z"
         id="path422001"
         sodipodi:nodetypes="cccccccccccccccccccccc"
         transform="translate(-0.55835417)" />
      <path
         style="fill:#a37742;fill-opacity:1;stroke:none;stroke-width:0.264583px;stroke-linecap:butt;stroke-linejoin:miter;stroke-opacity:1"
         d="m 282.00971,137.52247 c 0.0565,0.38771 0.16954,1.16256 0.28258,1.93769 0.0631,0.0848 0.12643,0.16986 0.42862,0.26626 0.3022,0.0964 0.84337,0.20462 1.45489,0.22623 0.61153,0.0216 1.29341,-0.0433 1.65154,-0.11039 0.35812,-0.067 0.38842,-0.12765 0.47502,-0.57138 0.0866,-0.44373 0.22734,-1.26654 0.36805,-2.08915 -0.67108,0.33554 -1.34205,0.67103 -2.12816,0.66328 -0.78611,-0.008 -1.68775,-0.35905 -2.58908,-0.71025 0,0 0,0 0.0565,0.38771 z"
         id="path422003"
         transform="translate(-0.55835417)" />
      <path
         style="fill:#d2b79a;fill-opacity:1;stroke:none;stroke-width:0.264583px;stroke-linecap:butt;stroke-linejoin:miter;stroke-opacity:1"
         d="m 281.95317,137.13476 c 0.35873,-0.13832 1.07607,-0.4149 1.86237,-0.40699 0.78631,0.008 1.99979,0.16172 2.85487,0.45396 -0.78337,0.42213 -1.55851,0.71432 -2.34462,0.70659 -0.78612,-0.008 -1.93826,-0.2424 -2.37262,-0.75356 z"
         id="path422005"
         sodipodi:nodetypes="ccccc"
         transform="translate(-0.55835417)" />
      <path
         style="fill:#e6e6e6;fill-opacity:1;stroke:none;stroke-width:0.264583px;stroke-linecap:butt;stroke-linejoin:miter;stroke-opacity:1"
         d="m 282.42331,159.19248 c 0.94614,0.27956 1.94253,0.40112 2.92825,0.36047 0.7485,-0.0377 1.39973,-0.20011 1.96819,-0.79345 0.56845,-0.59335 0.71256,-1.12781 0.98076,-1.8371 0.2682,-0.70929 0.12341,0.38651 0.12961,0.51163 -0.0989,0.68595 -0.34971,1.45398 -0.91859,1.91584 -0.68986,0.63017 -1.5785,1.06319 -2.5206,1.10532 -1.12944,0.0567 -2.30258,-0.12961 -3.2947,-0.69379 -0.89775,-0.51212 -1.41273,-1.38634 -1.46775,-2.40432 -0.0132,-0.3866 -0.029,-0.76936 0.0375,-0.78305 0.0588,-0.009 0.16751,0.61045 0.54437,1.24578 0.37686,0.63533 0.71049,1.08715 1.61296,1.37267 z"
         id="path422007"
         sodipodi:nodetypes="cczzcccccccc"
         transform="translate(-0.55835417)" />
      <path
         style="fill:#f2f2f2;fill-opacity:1;stroke:none;stroke-width:0.264583px;stroke-linecap:butt;stroke-linejoin:miter;stroke-opacity:1"
         d="m 280.27427,156.11528 c 0.11081,-0.90773 0.32513,-1.80065 0.63194,-2.66204 0.37168,-1.10783 0.76752,-2.20962 1.03804,-3.34806 0.0992,-0.33948 0.16448,-0.70109 0.34925,-1.00589 0.0996,0.19292 0.0166,0.52512 0.0125,0.76571 -0.10939,0.77783 -0.37622,1.52198 -0.60102,2.27162 -0.27191,0.8283 -0.67037,1.61401 -0.85586,2.47049 -0.10426,0.49729 -0.23145,0.99481 -0.23908,1.50565 -0.0225,0.34905 -0.0479,0.69911 -0.0889,1.04594 -0.20406,-0.06 -0.27482,-0.48753 -0.26667,-0.71849 0.002,-0.10856 0.009,-0.21707 0.0198,-0.32493 z"
         id="path422009"
         sodipodi:nodetypes="ssssssssssssssssssssss"
         transform="translate(-0.55835417)" />
      <path
         style="fill:#f2f2f2;fill-opacity:1;stroke:none;stroke-width:0.264583px;stroke-linecap:butt;stroke-linejoin:miter;stroke-opacity:1"
         d="m 288.39201,156.51504 c -0.15741,-1.17203 -0.5802,-2.46181 -0.86008,-3.60706 -0.27249,-0.99302 -0.55499,-1.81636 -0.85674,-2.80073 -0.12417,-0.33807 -0.35961,-1.07179 -0.40767,-0.98845 -0.0481,0.0833 -0.0594,0.59456 0.0294,0.86428 0.63875,2.25107 1.12152,3.59467 1.58094,6.09194 0.0664,0.38074 0.2439,1.04738 0.22861,1.43444 0.17121,-0.25711 0.27195,-0.58418 0.30023,-0.89082 -0.0272,-0.008 0.0205,-0.10388 -0.0147,-0.1036 z"
         id="path422011"
         sodipodi:nodetypes="scczcccccs"
         transform="translate(-0.55835417)" />
      <path
         style="fill:#f2f2f2;fill-opacity:1;stroke:none;stroke-width:0.264583px;stroke-linecap:butt;stroke-linejoin:miter;stroke-opacity:1"
         d="m 282.66313,158.47685 c -0.056,-0.17701 -0.11706,-0.40045 0.0338,-0.55013 0.2927,-0.36187 0.72875,-0.57418 1.1776,-0.66766 0.44414,-0.10731 0.90416,-0.052 1.34907,0.0189 0.29535,0.0583 0.59884,0.14185 0.84414,0.3224 0.18208,0.14735 0.13706,0.41968 0.01,0.58695 -0.24581,0.44386 -0.75448,0.64666 -1.22919,0.73632 -0.13877,-0.0434 -0.25903,0.18059 -0.0574,0.1559 0.58004,0.0298 1.20272,-0.0774 1.65787,-0.46308 0.25975,-0.22621 0.50673,-0.56901 0.41588,-0.93137 -0.0959,-0.32677 -0.41847,-0.50897 -0.70061,-0.65782 -0.50091,-0.23787 -1.06827,-0.23252 -1.60958,-0.27096 -0.76731,-0.008 -1.58117,0.13581 -2.19132,0.6325 -0.20764,0.15929 -0.41995,0.40689 -0.34109,0.68789 0.082,0.27623 0.31154,0.47527 0.52342,0.65581 0.0824,0.0736 0.31755,0.18623 0.35763,0.10206 -0.086,-0.1146 -0.20166,-0.21428 -0.23982,-0.35773 z"
         id="path422013"
         sodipodi:nodetypes="sssssssssssssss"
         transform="translate(-0.55835417)" />
      <path
         style="color:#000000;fill:#f9f9f9;fill-opacity:1;-inkscape-stroke:none"
         d="m 284.03125,148.66602 c -0.39448,0.0193 -0.76704,0.0829 -1.04102,0.14257 -0.27398,0.0597 -0.45298,0.11519 -0.53906,0.14258 -0.043,0.0137 -0.0569,0.0159 -0.0937,0.0352 -0.005,0.002 -0.009,0.005 -0.0156,0.01 -0.006,0.004 -0.023,0.019 -0.0234,0.0195 -4.8e-4,5.3e-4 -0.0252,0.0425 -0.0254,0.043 -1.9e-4,5.2e-4 -0.008,0.0581 -0.008,0.0586 6e-5,5.2e-4 0.0134,0.0424 0.0137,0.043 2.7e-4,5.4e-4 0.01,0.0167 0.0137,0.0215 0.007,0.01 0.0103,0.0142 0.0117,0.0156 0.0112,0.0118 0.0377,0.0393 0.0723,0.0664 0.0172,0.0135 0.0539,0.036 0.0977,0.0508 0.0438,0.0148 0.10325,0.0286 0.20508,0.0508 0.20362,0.0444 0.58357,0.11748 1.08203,0.13868 0.49845,0.0212 1.10707,-0.008 1.52539,-0.0527 0.41831,-0.0444 0.64634,-0.10448 0.77734,-0.14258 0.0655,-0.019 0.10708,-0.0264 0.15821,-0.0586 0.0256,-0.0161 0.0695,-0.0525 0.0742,-0.11719 0.005,-0.0647 -0.0302,-0.10325 -0.0508,-0.12304 -0.0411,-0.0396 -0.0828,-0.0595 -0.14257,-0.0859 -0.0598,-0.0265 -0.13491,-0.054 -0.22461,-0.0801 -0.17943,-0.0521 -0.41908,-0.10027 -0.74219,-0.13672 -0.32312,-0.0365 -0.73053,-0.0603 -1.125,-0.041 z m 0.0117,0.25 c 0.37524,-0.0184 0.77351,0.006 1.08594,0.041 0.31243,0.0352 0.53745,0.08 0.69921,0.12695 0.0146,0.004 0.0216,0.007 0.0352,0.0117 -0.12928,0.0338 -0.26216,0.0733 -0.58398,0.10742 -0.40467,0.0429 -1.00682,0.0712 -1.48633,0.0508 -0.46965,-0.02 -0.82064,-0.0879 -1.01953,-0.13086 0.0869,-0.0245 0.13167,-0.0403 0.26953,-0.0703 0.26401,-0.0575 0.62476,-0.11834 1,-0.13671 z"
         id="path422015"
         transform="translate(-0.55835417)" />
      <g
         id="g422041"
         transform="translate(-17.903187,-0.16773071)">
        <path
           id="path422017"
           style="fill:#59f340;stroke-width:2.38246;stroke-linecap:round;stroke-linejoin:round"
           d="m 301.70457,145.50522 c 0.19256,0.4498 -0.10595,0.97411 -0.52552,1.1689 -0.25526,0.13038 -0.56476,0.11501 -0.8143,-0.0208 -0.58053,-0.27196 -0.69462,-1.15906 -0.22235,-1.58308 0.43859,-0.3878 1.22544,-0.27155 1.49741,0.25918 0.0287,0.0556 0.0508,0.11478 0.0648,0.17581 z"
           sodipodi:nodetypes="csssc" />
        <path
           style="fill:#008000;stroke:none;stroke-width:0.264583px;stroke-linecap:butt;stroke-linejoin:miter;stroke-opacity:1"
           d="m 289.64495,140.63834 c 0.21687,0.37403 0.43393,0.74837 0.56743,1.16954 0.13351,0.42118 0.1838,0.88949 0.0266,1.31996 -0.15718,0.43047 -0.52177,0.82336 -0.99316,1.11406 -0.47138,0.29071 -1.0497,0.4793 -1.40017,0.59873 -0.35046,0.11944 -0.47306,0.16973 -0.31581,0.31601 0.15725,0.14627 0.59413,0.38828 1.23059,0.49977 0.63646,0.11149 1.47252,0.0926 2.09475,-0.0771 0.62223,-0.16974 1.03083,-0.49033 1.24296,-0.93024 0.21213,-0.4399 0.22783,-0.99936 0.22154,-1.51482 -0.006,-0.51546 -0.0346,-0.98692 -0.11152,-1.33894 -0.0769,-0.35202 -0.20265,-0.5846 -0.44463,-0.86123 -0.24197,-0.27664 -0.60028,-0.59723 -0.88629,-0.77491 -0.28601,-0.17769 -0.49975,-0.21226 -0.69322,-0.10854 -0.19347,0.10373 -0.3663,0.3457 -0.53917,0.58772 0,0 8e-5,2e-5 8e-5,2e-5 z"
           id="path422019"
           inkscape:path-effect="#path-effect422055"
           inkscape:original-d="m 289.64495,140.63834 c 0,0 0.43401,0.74832 0.65062,1.12209 0.0506,0.4686 0.10085,0.93691 0.15087,1.40497 -0.36434,0.39317 -0.72894,0.78605 -1.0938,1.17867 -0.57808,0.18886 -1.1564,0.37744 -1.735,0.56577 -0.12232,0.0505 -0.2449,0.10084 -0.36775,0.15087 0.43717,0.24229 0.87405,0.4843 1.31068,0.72606 0.83635,-0.0186 1.67241,-0.0375 2.50821,-0.0566 0.40888,-0.32034 0.81748,-0.64093 1.22582,-0.96179 0.016,-0.55923 0.0317,-1.11869 0.0471,-1.67843 -0.028,-0.47121 -0.0563,-0.94267 -0.0849,-1.4144 -0.12546,-0.23234 -0.25118,-0.46492 -0.37717,-0.69778 -0.35806,-0.32034 -0.71637,-0.64093 -1.07495,-0.96179 -0.21347,-0.0343 -0.4272,-0.0689 -0.6412,-0.10373 -0.17261,0.2423 -0.51861,0.72607 -0.51861,0.72607 z"
           clip-path="url(#clipPath82134)"
           transform="matrix(0.47649127,0,0,0.47649127,163.101,77.721691)" />
        <path
           id="path422021"
           style="fill:#59f340;stroke-width:1.27609;stroke-linecap:round;stroke-linejoin:round"
           d="m 302.38045,143.68623 c 0.10314,0.24092 -0.0568,0.52175 -0.28147,0.62609 -0.13673,0.0698 -0.3025,0.0616 -0.43616,-0.0112 -0.31094,-0.14567 -0.37205,-0.62082 -0.11909,-0.84793 0.23491,-0.20771 0.65637,-0.14545 0.80203,0.13882 0.0154,0.0298 0.0272,0.0615 0.0347,0.0942 z"
           sodipodi:nodetypes="csssc" />
        <path
           style="fill:#008000;stroke:none;stroke-width:0.264583px;stroke-linecap:butt;stroke-linejoin:miter;stroke-opacity:1"
           d="m 289.64495,140.63834 c 0.21687,0.37403 0.43393,0.74837 0.56743,1.16954 0.13351,0.42118 0.1838,0.88949 0.0266,1.31996 -0.15718,0.43047 -0.52177,0.82336 -0.99316,1.11406 -0.47138,0.29071 -1.0497,0.4793 -1.40017,0.59873 -0.35046,0.11944 -0.47306,0.16973 -0.31581,0.31601 0.15725,0.14627 0.59413,0.38828 1.23059,0.49977 0.63646,0.11149 1.47252,0.0926 2.09475,-0.0771 0.62223,-0.16974 1.03083,-0.49033 1.24296,-0.93024 0.21213,-0.4399 0.22783,-0.99936 0.22154,-1.51482 -0.006,-0.51546 -0.0346,-0.98692 -0.11152,-1.33894 -0.0769,-0.35202 -0.20265,-0.5846 -0.44463,-0.86123 -0.24197,-0.27664 -0.60028,-0.59723 -0.88629,-0.77491 -0.28601,-0.17769 -0.49975,-0.21226 -0.69322,-0.10854 -0.19347,0.10373 -0.3663,0.3457 -0.53917,0.58772 0,0 8e-5,2e-5 8e-5,2e-5 z"
           id="path422023"
           inkscape:path-effect="#path-effect422059"
           inkscape:original-d="m 289.64495,140.63834 c 0,0 0.43401,0.74832 0.65062,1.12209 0.0506,0.4686 0.10085,0.93691 0.15087,1.40497 -0.36434,0.39317 -0.72894,0.78605 -1.0938,1.17867 -0.57808,0.18886 -1.1564,0.37744 -1.735,0.56577 -0.12232,0.0505 -0.2449,0.10084 -0.36775,0.15087 0.43717,0.24229 0.87405,0.4843 1.31068,0.72606 0.83635,-0.0186 1.67241,-0.0375 2.50821,-0.0566 0.40888,-0.32034 0.81748,-0.64093 1.22582,-0.96179 0.016,-0.55923 0.0317,-1.11869 0.0471,-1.67843 -0.028,-0.47121 -0.0563,-0.94267 -0.0849,-1.4144 -0.12546,-0.23234 -0.25118,-0.46492 -0.37717,-0.69778 -0.35806,-0.32034 -0.71637,-0.64093 -1.07495,-0.96179 -0.21347,-0.0343 -0.4272,-0.0689 -0.6412,-0.10373 -0.17261,0.2423 -0.51861,0.72607 -0.51861,0.72607 z"
           clip-path="url(#clipPath82134)"
           transform="matrix(0.25521722,0,0,0.25521722,228.14191,107.38017)" />
        <path
           id="path422025"
           style="fill:#59f340;stroke-width:1.87669;stroke-linecap:round;stroke-linejoin:round"
           d="m 303.166,147.32205 c 0.15168,0.35432 -0.0835,0.76733 -0.41396,0.92076 -0.20107,0.1027 -0.44487,0.0906 -0.64143,-0.0164 -0.45729,-0.21423 -0.54716,-0.913 -0.17515,-1.24701 0.34548,-0.30547 0.9653,-0.21391 1.17952,0.20416 0.0226,0.0438 0.04,0.0904 0.051,0.13849 z"
           sodipodi:nodetypes="csssc" />
        <path
           style="fill:#008000;stroke:none;stroke-width:0.264583px;stroke-linecap:butt;stroke-linejoin:miter;stroke-opacity:1"
           d="m 289.64495,140.63834 c 0.21687,0.37403 0.43393,0.74837 0.56743,1.16954 0.13351,0.42118 0.1838,0.88949 0.0266,1.31996 -0.15718,0.43047 -0.52177,0.82336 -0.99316,1.11406 -0.47138,0.29071 -1.0497,0.4793 -1.40017,0.59873 -0.35046,0.11944 -0.47306,0.16973 -0.31581,0.31601 0.15725,0.14627 0.59413,0.38828 1.23059,0.49977 0.63646,0.11149 1.47252,0.0926 2.09475,-0.0771 0.62223,-0.16974 1.03083,-0.49033 1.24296,-0.93024 0.21213,-0.4399 0.22783,-0.99936 0.22154,-1.51482 -0.006,-0.51546 -0.0346,-0.98692 -0.11152,-1.33894 -0.0769,-0.35202 -0.20265,-0.5846 -0.44463,-0.86123 -0.24197,-0.27664 -0.60028,-0.59723 -0.88629,-0.77491 -0.28601,-0.17769 -0.49975,-0.21226 -0.69322,-0.10854 -0.19347,0.10373 -0.3663,0.3457 -0.53917,0.58772 0,0 8e-5,2e-5 8e-5,2e-5 z"
           id="path422027"
           inkscape:path-effect="#path-effect422063"
           inkscape:original-d="m 289.64495,140.63834 c 0,0 0.43401,0.74832 0.65062,1.12209 0.0506,0.4686 0.10085,0.93691 0.15087,1.40497 -0.36434,0.39317 -0.72894,0.78605 -1.0938,1.17867 -0.57808,0.18886 -1.1564,0.37744 -1.735,0.56577 -0.12232,0.0505 -0.2449,0.10084 -0.36775,0.15087 0.43717,0.24229 0.87405,0.4843 1.31068,0.72606 0.83635,-0.0186 1.67241,-0.0375 2.50821,-0.0566 0.40888,-0.32034 0.81748,-0.64093 1.22582,-0.96179 0.016,-0.55923 0.0317,-1.11869 0.0471,-1.67843 -0.028,-0.47121 -0.0563,-0.94267 -0.0849,-1.4144 -0.12546,-0.23234 -0.25118,-0.46492 -0.37717,-0.69778 -0.35806,-0.32034 -0.71637,-0.64093 -1.07495,-0.96179 -0.21347,-0.0343 -0.4272,-0.0689 -0.6412,-0.10373 -0.17261,0.2423 -0.51861,0.72607 -0.51861,0.72607 z"
           clip-path="url(#clipPath82134)"
           transform="matrix(0.37533755,0,0,0.37533755,193.9864,93.928211)" />
        <path
           id="path422029"
           style="fill:#ffffff;fill-opacity:1;stroke-width:2.38246;stroke-linecap:round;stroke-linejoin:round"
           d="m 301.70457,145.50522 c 0.19256,0.4498 -0.10595,0.97411 -0.52552,1.1689 -0.25526,0.13038 -0.56476,0.11501 -0.8143,-0.0208 -0.58053,-0.27196 -0.69462,-1.15906 -0.22235,-1.58308 0.43859,-0.3878 1.22544,-0.27155 1.49741,0.25918 0.0287,0.0556 0.0508,0.11478 0.0648,0.17581 z"
           sodipodi:nodetypes="csssc" />
        <path
           style="fill:#f2f2f2;fill-opacity:1;stroke:none;stroke-width:0.264583px;stroke-linecap:butt;stroke-linejoin:miter;stroke-opacity:1"
           d="m 289.64495,140.63834 c 0.21687,0.37403 0.43393,0.74837 0.56743,1.16954 0.13351,0.42118 0.1838,0.88949 0.0266,1.31996 -0.15718,0.43047 -0.52177,0.82336 -0.99316,1.11406 -0.47138,0.29071 -1.0497,0.4793 -1.40017,0.59873 -0.35046,0.11944 -0.47306,0.16973 -0.31581,0.31601 0.15725,0.14627 0.59413,0.38828 1.23059,0.49977 0.63646,0.11149 1.47252,0.0926 2.09475,-0.0771 0.62223,-0.16974 1.03083,-0.49033 1.24296,-0.93024 0.21213,-0.4399 0.22783,-0.99936 0.22154,-1.51482 -0.006,-0.51546 -0.0346,-0.98692 -0.11152,-1.33894 -0.0769,-0.35202 -0.20265,-0.5846 -0.44463,-0.86123 -0.24197,-0.27664 -0.60028,-0.59723 -0.88629,-0.77491 -0.28601,-0.17769 -0.49975,-0.21226 -0.69322,-0.10854 -0.19347,0.10373 -0.3663,0.3457 -0.53917,0.58772 0,0 8e-5,2e-5 8e-5,2e-5 z"
           id="path422031"
           inkscape:path-effect="#path-effect422067"
           inkscape:original-d="m 289.64495,140.63834 c 0,0 0.43401,0.74832 0.65062,1.12209 0.0506,0.4686 0.10085,0.93691 0.15087,1.40497 -0.36434,0.39317 -0.72894,0.78605 -1.0938,1.17867 -0.57808,0.18886 -1.1564,0.37744 -1.735,0.56577 -0.12232,0.0505 -0.2449,0.10084 -0.36775,0.15087 0.43717,0.24229 0.87405,0.4843 1.31068,0.72606 0.83635,-0.0186 1.67241,-0.0375 2.50821,-0.0566 0.40888,-0.32034 0.81748,-0.64093 1.22582,-0.96179 0.016,-0.55923 0.0317,-1.11869 0.0471,-1.67843 -0.028,-0.47121 -0.0563,-0.94267 -0.0849,-1.4144 -0.12546,-0.23234 -0.25118,-0.46492 -0.37717,-0.69778 -0.35806,-0.32034 -0.71637,-0.64093 -1.07495,-0.96179 -0.21347,-0.0343 -0.4272,-0.0689 -0.6412,-0.10373 -0.17261,0.2423 -0.51861,0.72607 -0.51861,0.72607 z"
           clip-path="url(#clipPath82134)"
           transform="matrix(0.47649127,0,0,0.47649127,163.101,77.721691)" />
        <path
           id="path422033"
           style="fill:#ffffff;fill-opacity:1;stroke-width:1.27609;stroke-linecap:round;stroke-linejoin:round"
           d="m 302.38045,143.68623 c 0.10314,0.24092 -0.0568,0.52175 -0.28147,0.62609 -0.13673,0.0698 -0.3025,0.0616 -0.43616,-0.0112 -0.31094,-0.14567 -0.37205,-0.62082 -0.11909,-0.84793 0.23491,-0.20771 0.65637,-0.14545 0.80203,0.13882 0.0154,0.0298 0.0272,0.0615 0.0347,0.0942 z"
           sodipodi:nodetypes="csssc" />
        <path
           style="fill:#f2f2f2;fill-opacity:1;stroke:none;stroke-width:0.264583px;stroke-linecap:butt;stroke-linejoin:miter;stroke-opacity:1"
           d="m 289.64495,140.63834 c 0.21687,0.37403 0.43393,0.74837 0.56743,1.16954 0.13351,0.42118 0.1838,0.88949 0.0266,1.31996 -0.15718,0.43047 -0.52177,0.82336 -0.99316,1.11406 -0.47138,0.29071 -1.0497,0.4793 -1.40017,0.59873 -0.35046,0.11944 -0.47306,0.16973 -0.31581,0.31601 0.15725,0.14627 0.59413,0.38828 1.23059,0.49977 0.63646,0.11149 1.47252,0.0926 2.09475,-0.0771 0.62223,-0.16974 1.03083,-0.49033 1.24296,-0.93024 0.21213,-0.4399 0.22783,-0.99936 0.22154,-1.51482 -0.006,-0.51546 -0.0346,-0.98692 -0.11152,-1.33894 -0.0769,-0.35202 -0.20265,-0.5846 -0.44463,-0.86123 -0.24197,-0.27664 -0.60028,-0.59723 -0.88629,-0.77491 -0.28601,-0.17769 -0.49975,-0.21226 -0.69322,-0.10854 -0.19347,0.10373 -0.3663,0.3457 -0.53917,0.58772 0,0 8e-5,2e-5 8e-5,2e-5 z"
           id="path422035"
           inkscape:path-effect="#path-effect422071"
           inkscape:original-d="m 289.64495,140.63834 c 0,0 0.43401,0.74832 0.65062,1.12209 0.0506,0.4686 0.10085,0.93691 0.15087,1.40497 -0.36434,0.39317 -0.72894,0.78605 -1.0938,1.17867 -0.57808,0.18886 -1.1564,0.37744 -1.735,0.56577 -0.12232,0.0505 -0.2449,0.10084 -0.36775,0.15087 0.43717,0.24229 0.87405,0.4843 1.31068,0.72606 0.83635,-0.0186 1.67241,-0.0375 2.50821,-0.0566 0.40888,-0.32034 0.81748,-0.64093 1.22582,-0.96179 0.016,-0.55923 0.0317,-1.11869 0.0471,-1.67843 -0.028,-0.47121 -0.0563,-0.94267 -0.0849,-1.4144 -0.12546,-0.23234 -0.25118,-0.46492 -0.37717,-0.69778 -0.35806,-0.32034 -0.71637,-0.64093 -1.07495,-0.96179 -0.21347,-0.0343 -0.4272,-0.0689 -0.6412,-0.10373 -0.17261,0.2423 -0.51861,0.72607 -0.51861,0.72607 z"
           clip-path="url(#clipPath82134)"
           transform="matrix(0.25521722,0,0,0.25521722,228.14191,107.38017)" />
        <path
           id="path422037"
           style="fill:#ffffff;fill-opacity:1;stroke-width:1.87669;stroke-linecap:round;stroke-linejoin:round"
           d="m 303.166,147.32205 c 0.15168,0.35432 -0.0835,0.76733 -0.41396,0.92076 -0.20107,0.1027 -0.44487,0.0906 -0.64143,-0.0164 -0.45729,-0.21423 -0.54716,-0.913 -0.17515,-1.24701 0.34548,-0.30547 0.9653,-0.21391 1.17952,0.20416 0.0226,0.0438 0.04,0.0904 0.051,0.13849 z"
           sodipodi:nodetypes="csssc" />
        <path
           style="fill:#f2f2f2;fill-opacity:1;stroke:none;stroke-width:0.264583px;stroke-linecap:butt;stroke-linejoin:miter;stroke-opacity:1"
           d="m 289.64495,140.63834 c 0.21687,0.37403 0.43393,0.74837 0.56743,1.16954 0.13351,0.42118 0.1838,0.88949 0.0266,1.31996 -0.15718,0.43047 -0.52177,0.82336 -0.99316,1.11406 -0.47138,0.29071 -1.0497,0.4793 -1.40017,0.59873 -0.35046,0.11944 -0.47306,0.16973 -0.31581,0.31601 0.15725,0.14627 0.59413,0.38828 1.23059,0.49977 0.63646,0.11149 1.47252,0.0926 2.09475,-0.0771 0.62223,-0.16974 1.03083,-0.49033 1.24296,-0.93024 0.21213,-0.4399 0.22783,-0.99936 0.22154,-1.51482 -0.006,-0.51546 -0.0346,-0.98692 -0.11152,-1.33894 -0.0769,-0.35202 -0.20265,-0.5846 -0.44463,-0.86123 -0.24197,-0.27664 -0.60028,-0.59723 -0.88629,-0.77491 -0.28601,-0.17769 -0.49975,-0.21226 -0.69322,-0.10854 -0.19347,0.10373 -0.3663,0.3457 -0.53917,0.58772 0,0 8e-5,2e-5 8e-5,2e-5 z"
           id="path422039"
           inkscape:path-effect="#path-effect422075"
           inkscape:original-d="m 289.64495,140.63834 c 0,0 0.43401,0.74832 0.65062,1.12209 0.0506,0.4686 0.10085,0.93691 0.15087,1.40497 -0.36434,0.39317 -0.72894,0.78605 -1.0938,1.17867 -0.57808,0.18886 -1.1564,0.37744 -1.735,0.56577 -0.12232,0.0505 -0.2449,0.10084 -0.36775,0.15087 0.43717,0.24229 0.87405,0.4843 1.31068,0.72606 0.83635,-0.0186 1.67241,-0.0375 2.50821,-0.0566 0.40888,-0.32034 0.81748,-0.64093 1.22582,-0.96179 0.016,-0.55923 0.0317,-1.11869 0.0471,-1.67843 -0.028,-0.47121 -0.0563,-0.94267 -0.0849,-1.4144 -0.12546,-0.23234 -0.25118,-0.46492 -0.37717,-0.69778 -0.35806,-0.32034 -0.71637,-0.64093 -1.07495,-0.96179 -0.21347,-0.0343 -0.4272,-0.0689 -0.6412,-0.10373 -0.17261,0.2423 -0.51861,0.72607 -0.51861,0.72607 z"
           clip-path="url(#clipPath82134)"
           transform="matrix(0.37533755,0,0,0.37533755,193.9864,93.928211)" />
      </g>
    </g>
  </g>
</svg>
