<svg version="1.2" baseProfile="tiny-ps" xmlns="http://www.w3.org/2000/svg" viewBox="0 0 169 244" width="169" height="244">
	<title>Background</title>
	<style>
		tspan { white-space:pre }
		.shp0 { opacity: 0.11;fill: #c4c1b6 } 
		.shp1 { opacity: 0.463;fill: #c4c3be } 
		.shp2 { opacity: 0.976;fill: #c3c3c2 } 
		.shp3 { opacity: 0.996;fill: #ffca18 } 
		.shp4 { opacity: 0.341;fill: #ffca18 } 
	</style>
	<g id="Background">
		<path id="Path 0" class="shp0" d="M77 0.74C80.57 0.94 85.97 0.93 89 0.74C92.02 0.54 89.1 0.38 82.5 0.38C75.9 0.38 73.42 0.55 77 0.74Z" />
		<path id="Path 1" class="shp1" d="M72 1.72C73.37 1.95 75.85 1.95 77.5 1.72C79.15 1.49 78.02 1.3 75 1.3C71.97 1.3 70.62 1.49 72 1.72Z" />
		<path id="Path 2" class="shp2" d="M73 2.03C68.87 2.44 63.25 3.34 60.5 4.03C57.75 4.71 52.35 6.72 48.5 8.48C44.65 10.24 39.14 13.56 36.25 15.84C32.74 18.62 30.18 21.74 28.51 25.25C26.03 30.48 26.02 30.63 26.01 60.25C26 89.67 26.02 89.99 28 89C29.1 88.45 31.12 88 32.5 88L35 88C34.99 36.64 35.19 33.14 36.75 30.35C37.71 28.62 39.96 25.58 41.75 23.6C43.54 21.62 45.45 20 46 20C46.55 20 46.99 19.66 46.97 19.25C46.95 18.84 48.86 17.67 51.22 16.65C53.57 15.63 56.29 14.39 57.25 13.9C58.21 13.4 60.03 13 61.3 13C62.56 13 64.24 12.47 65.02 11.83C65.85 11.14 71.85 10.42 79.57 10.08C88.7 9.68 93.14 9.85 94.11 10.64C94.87 11.26 97.97 12.11 101 12.52C104.02 12.94 107.17 13.62 108 14.03C108.82 14.45 111.35 15.58 113.62 16.55C115.89 17.51 117.8 18.69 117.87 19.15C117.94 19.62 118.45 20 119 20C119.55 20 121.74 21.69 123.86 23.75C126.09 25.91 128.21 29.2 128.86 31.5C129.57 34.02 129.99 45.4 129.99 62.25L130 89C134.26 89.87 136.29 90.32 137.25 90.56C138.89 90.97 139 89.12 139 62C139 41.94 138.61 31.57 137.75 28.36C136.83 24.96 135.03 22.25 131 18.25C127.33 14.6 122.84 11.52 117.5 8.98C113.06 6.87 105.94 4.49 101.5 3.65C97.1 2.81 90.57 1.94 87 1.7C83.42 1.47 77.12 1.62 73 2.03Z" />
		<path id="Path 3" class="shp1" d="M87 1.72C88.37 1.95 90.85 1.95 92.5 1.72C94.15 1.49 93.02 1.3 90 1.3C86.97 1.3 85.62 1.49 87 1.72ZM77 10.74C80.57 10.94 85.97 10.93 89 10.74C92.02 10.54 89.1 10.38 82.5 10.38C75.9 10.38 73.42 10.55 77 10.74Z" />
		<path id="Path 4" class="shp0" d="M71.81 11.71C73.09 11.95 74.89 11.94 75.81 11.69C76.74 11.44 75.7 11.24 73.5 11.25C71.3 11.26 70.54 11.47 71.81 11.71ZM88.5 11.71C89.6 11.94 91.62 11.94 93 11.71C94.37 11.47 93.47 11.27 91 11.27C88.52 11.27 87.4 11.47 88.5 11.71Z" />
		<path id="Path 5" class="shp1" d="M25.44 60.5C25.44 77 25.58 83.97 25.75 76C25.92 68.02 25.92 54.52 25.75 46C25.58 37.47 25.44 44 25.44 60.5Z" />
		<path id="Path 6" class="shp0" d="M24.44 61.5C24.44 78 24.58 84.97 24.75 77C24.92 69.02 24.92 55.52 24.75 47C24.58 38.47 24.44 45 24.44 61.5ZM128.44 60C128.44 75.67 128.58 81.97 128.75 74C128.92 66.02 128.92 53.2 128.75 45.5C128.58 37.8 128.44 44.32 128.44 60Z" />
		<path id="Path 7" class="shp1" d="M139.44 61C139.44 77.22 139.58 83.75 139.75 75.5C139.92 67.25 139.92 53.97 139.75 46C139.58 38.02 139.44 44.77 139.44 61ZM35.44 60C35.44 75.13 35.58 81.2 35.75 73.5C35.92 65.8 35.92 53.42 35.75 46C35.58 38.57 35.44 44.87 35.44 60Z" />
		<path id="Path 8" class="shp0" d="M140.44 61.5C140.44 77.45 140.58 83.75 140.75 75.5C140.92 67.25 140.92 54.2 140.75 46.5C140.58 38.8 140.44 45.55 140.44 61.5Z" />
		<path id="Path 9" class="shp1" d="M129.44 61C129.44 76.12 129.58 82.2 129.75 74.5C129.92 66.8 129.92 54.42 129.75 47C129.58 39.57 129.44 45.87 129.44 61Z" />
		<path id="Path 10" class="shp3" d="M31.43 88.05C28.66 88.52 26.82 89.77 24.35 92.85C22.51 95.13 20.32 97 19.5 97C18.61 97 16.54 100.14 14.38 104.75C12.39 109.01 9.51 116.32 7.97 121C6.43 125.67 4.45 133.77 3.56 139C2.67 144.22 1.67 153.22 1.34 159C0.98 165.07 1.23 173.93 1.93 180C2.59 185.77 4.06 194.77 5.19 200C6.32 205.22 8.77 213.1 10.63 217.5C12.49 221.9 14.01 226.06 14.01 226.75C14 227.44 16.36 230.25 19.25 233C22.14 235.75 26.52 239.01 29 240.25C33.5 242.5 33.55 242.5 86 242.5L138.5 242.5C145.47 237.42 148.85 234.15 150.5 231.95C152.15 229.76 153.84 227.97 154.25 227.98C154.66 227.99 154.99 227.44 154.98 226.75C154.96 226.06 156.36 222.35 158.08 218.5C159.8 214.65 162.26 206.77 163.54 201C164.82 195.22 166.4 184.87 167.04 178C167.92 168.57 167.92 162.68 167.06 154C166.43 147.67 164.98 138 163.83 132.5C162.69 127 160.9 120.59 159.87 118.25C158.84 115.91 158 112.99 157.99 111.75C157.98 110.51 156.52 107.72 154.74 105.55C152.96 103.37 149.02 99.08 146 96C141.37 91.29 139.87 90.37 136.5 90.13C134.3 89.98 131.82 89.47 131 88.99C130.17 88.51 128.6 88.29 127.5 88.5C126.4 88.7 124.04 89.13 122.25 89.44C120.02 89.82 119 89.61 119 88.75C119 87.79 116.94 87.66 110.25 88.16C105.44 88.53 87.66 88.87 70.75 88.91C53.84 88.96 38.91 88.64 37.58 88.2C36.26 87.76 33.49 87.69 31.43 88.05Z" />
		<path id="Path 11" class="shp4" d="M37.81 88.18C38.74 88.55 53.45 88.85 70.5 88.83C87.55 88.81 105.32 88.51 110 88.15C114.67 87.79 99.96 87.5 77.31 87.5C54.65 87.5 36.87 87.81 37.81 88.18Z" />
		<path id="Path 12" class="shp1" d="M121.43 87.72C123.05 87.95 125.3 87.94 126.43 87.7C127.57 87.47 126.25 87.28 123.5 87.29C120.74 87.29 119.82 87.49 121.43 87.72Z" />
		<path id="Path 13" class="shp2" d="M119 89C119 89.61 120.66 89.75 123.25 89.36C125.59 89.01 127.69 88.56 127.92 88.36C128.15 88.16 126.23 88 123.67 88C121.1 88 119 88.45 119 89Z" />
		<path id="Path 14" class="shp4" d="M22.42 93C20.81 94.64 19.72 96.2 20 96.48C20.27 96.75 21.85 95.64 23.5 94C25.15 92.36 26.24 90.8 25.92 90.52C25.6 90.25 24.02 91.36 22.42 93ZM145 94.79C147.47 96.9 150.51 100.3 151.75 102.32C152.99 104.34 154.22 105.77 154.5 105.5C154.77 105.22 154.15 103.54 153.1 101.75C152.06 99.96 149.36 96.81 147.1 94.75C144.85 92.69 142.44 90.98 141.75 90.97C141.06 90.95 142.52 92.67 145 94.79ZM11.84 107.22C11.01 108.47 9.09 113.1 7.58 117.5C6.08 121.9 4.24 128.2 3.5 131.5C2.76 134.8 1.91 141.55 1.61 146.5L1.07 155.5C3.21 140.77 4.56 133.35 5.45 129.5C6.33 125.65 8.6 118.67 10.48 114C12.36 109.32 13.77 105.37 13.62 105.22C13.47 105.06 12.67 105.96 11.84 107.22ZM158.08 112.75C158.04 113.44 158.84 115.91 159.87 118.25C160.9 120.59 162.69 127 163.83 132.5C164.98 138 166.43 147.67 167.06 154C167.92 162.68 167.92 168.57 167.04 178C166.4 184.87 164.82 195.22 163.54 201C162.26 206.77 159.81 214.65 158.1 218.5C156.4 222.35 155.22 225.61 155.5 225.75C155.77 225.89 157.06 223.86 158.36 221.25C159.66 218.64 161.65 213.57 162.78 210C163.91 206.42 165.31 201.25 165.89 198.5C166.46 195.75 167.44 187.42 168.07 180C168.93 169.69 168.91 162.95 167.98 151.5C167.31 143.25 165.95 133.35 164.98 129.5C164 125.65 162.06 120.02 160.68 117C159.3 113.97 158.13 112.06 158.08 112.75ZM0.35 165.5C0.35 170.45 0.52 172.7 0.73 170.5C0.94 168.3 0.94 164.25 0.74 161.5C0.53 158.75 0.36 160.55 0.35 165.5ZM1.12 178.5C1.07 180.15 1.49 185.77 2.04 191C2.69 197.13 4.34 204.23 6.68 211C8.67 216.77 11.02 222.52 11.9 223.78C12.78 225.03 13.6 225.93 13.73 225.78C13.85 225.62 12.45 221.9 10.62 217.5C8.78 213.1 6.5 206.12 5.55 202C4.61 197.87 3.24 190.22 2.52 185C1.8 179.77 1.17 176.85 1.12 178.5ZM150.42 231.99C148.81 234.17 145.47 237.42 143 239.22L138.5 242.5C40.48 242.5 33.03 242.29 30 240.93C28.07 240.07 24.57 237.59 22.2 235.43C19.84 233.27 17.93 232.06 17.95 232.75C17.98 233.44 19.91 235.6 22.25 237.54C24.59 239.49 28.75 241.75 31.5 242.55C35.6 243.76 45.54 244.02 86.75 244.01C131.71 244 137.39 243.82 140.75 242.31C142.81 241.39 146 239.02 147.83 237.06C149.66 235.1 151.91 232.48 152.83 231.22C153.75 229.97 154.24 228.74 153.92 228.49C153.6 228.24 152.03 229.81 150.42 231.99Z" />
	</g>
</svg>