<svg version="1.2" baseProfile="tiny-ps" xmlns="http://www.w3.org/2000/svg" viewBox="0 0 169 273" width="169" height="273">
	<title>Background</title>
	<style>
		tspan { white-space:pre }
		.shp0 { opacity: 0.247;fill: #c2c2c2 } 
		.shp1 { opacity: 0.557;fill: #c2c2c2 } 
		.shp2 { opacity: 0.973;fill: #c2c2c1 } 
		.shp3 { opacity: 0.996;fill: #ffca18 } 
		.shp4 { opacity: 0.592;fill: #f8c51d } 
		.shp5 { opacity: 0.925;fill: #fec918 } 
		.shp6 { opacity: 0.184;fill: #feca18 } 
	</style>
	<g id="Background">
		<path id="Path 0" class="shp0" d="M73 0.72C74.92 0.94 77.62 0.94 79 0.71C80.37 0.49 78.8 0.3 75.5 0.31C72.2 0.32 71.07 0.5 73 0.72Z" />
		<path id="Path 1" class="shp1" d="M69.5 1.71C70.6 1.94 72.62 1.94 74 1.71C75.37 1.47 74.47 1.27 72 1.27C69.52 1.27 68.4 1.47 69.5 1.71Z" />
		<path id="Path 2" class="shp2" d="M69.5 1.99C65.65 2.39 60.02 3.51 57 4.48C53.97 5.46 47.67 8.21 43 10.6C38.32 12.99 30.71 17.99 26.07 21.72C21.43 25.45 16.01 30.75 14.02 33.5C12.03 36.25 9.22 40.52 7.78 43C6.33 45.47 4.44 50.2 3.58 53.5C2.51 57.58 2.23 61.26 2.68 65C3.05 68.02 3.75 70.95 4.23 71.5C4.72 72.05 11.5 82.37 19.31 94.43C27.11 106.5 33.52 116.85 33.55 117.43C33.57 118.02 34.25 118.32 35.05 118.1C35.85 117.88 37.62 117.61 39 117.5C40.37 117.4 42.06 117.24 42.75 117.16C43.44 117.07 44 116.1 44 115C44 113.9 43.41 112.66 42.68 112.25C41.96 111.84 38.36 107.11 34.68 101.75C31.01 96.39 27.98 91.66 27.96 91.25C27.94 90.84 25.53 87.12 22.6 83C19.67 78.87 16.15 73.47 14.78 71C13.41 68.52 11.97 65.15 11.59 63.5C11.21 61.85 11.37 58.25 11.95 55.5C12.52 52.75 14.74 47.8 16.88 44.5C19.01 41.2 23.4 36.01 26.63 32.96C29.86 29.91 34.3 25.99 36.5 24.24C38.7 22.49 43.65 19.43 47.5 17.43C51.35 15.44 56.52 13.18 59 12.42C61.47 11.65 66.87 10.72 71 10.35C75.79 9.92 80.13 10.11 83 10.88C85.47 11.54 88.9 13.3 90.62 14.79C92.33 16.28 95.37 19.97 97.37 23C99.37 26.02 101.01 29.06 101 29.75C101 30.44 101.45 31 102 31C102.55 31 103 31.45 103 32C103 32.55 103.56 33.58 104.25 34.29C104.94 35 109.1 41.1 113.5 47.84C118.79 55.94 122.09 60.07 123.25 60.04C124.21 60.02 125.9 59.55 127 59C128.95 58.02 128.96 57.9 127.25 53.49C126.29 51.01 125.16 48.98 124.75 48.99C124.34 49 124 48.32 124 47.5C124 46.67 123.55 46 123 46C122.45 46 122 45.55 122 45C122 44.45 121.21 43.15 120.25 42.11C119.29 41.07 117.6 38.38 116.5 36.12C115.4 33.87 114.16 32.02 113.75 32.01C113.34 32.01 113 31.32 113 30.5C113 29.67 112.55 29 112 29C111.45 29 111 28.32 111 27.5C111 26.67 110.55 26 110 26C109.45 26 109 25.32 109 24.5C109 23.67 108.55 23 108 23C107.45 23 107 22.32 107 21.5C107 20.67 106.66 20.01 106.25 20.02C105.84 20.04 104.38 18.12 103.02 15.77C101.65 13.42 99.4 10.37 98.02 8.98C96.63 7.59 93.7 5.62 91.5 4.6C89.3 3.58 85.08 2.35 82.13 1.87C79.18 1.39 76.7 1.06 76.63 1.14C76.56 1.21 73.35 1.6 69.5 1.99Z" />
		<path id="Path 3" class="shp1" d="M71.5 10.72C73.15 10.94 76.3 10.94 78.5 10.73C80.7 10.51 79.35 10.33 75.5 10.33C71.65 10.32 69.85 10.5 71.5 10.72Z" />
		<path id="Path 4" class="shp0" d="M1.3 62C1.3 65.02 1.49 66.15 1.72 64.5C1.95 62.85 1.95 60.37 1.72 59C1.49 57.62 1.3 58.97 1.3 62Z" />
		<path id="Path 5" class="shp3" d="M31.97 115.75C31.99 116.52 30.65 117 28.5 117C26.06 117 25 117.45 25 118.5C25 119.32 22.86 122.42 20.25 125.38C17.64 128.34 13.56 134.53 11.19 139.13C8.82 143.73 6.44 149.52 5.9 152C5.35 154.47 4.28 160.1 3.5 164.5C2.65 169.33 2.02 180.81 1.9 193.5C1.79 205.05 2.02 216.3 2.41 218.5C2.8 220.7 3.51 224.52 3.99 227C4.47 229.47 5.45 234.32 6.18 237.76C6.91 241.2 7.72 244.01 8 243.99C8.27 243.98 10.3 247.42 12.5 251.64C14.7 255.86 18.53 261.38 21.01 263.91C23.5 266.43 26.76 269.06 28.26 269.75C30.33 270.7 44.07 271.03 84.75 271.11C130.35 271.2 138.95 270.99 141.5 269.74C143.15 268.92 146.52 266.02 149 263.27C151.47 260.53 154.96 255.41 156.75 251.89C158.54 248.38 160 244.49 160 243.25C160 242.01 160.34 241.01 160.75 241.03C161.16 241.05 162.04 239.13 162.71 236.78C163.37 234.43 164.59 229.57 165.43 226C166.26 222.42 166.9 217.7 166.86 215.5C166.82 213.3 166.94 203.53 167.14 193.78C167.34 184.04 167.21 176.84 166.84 177.78C166.48 178.73 166.21 176.35 166.24 172.5C166.27 168.65 165.74 163.47 165.07 161C164.4 158.52 163.43 154.81 162.93 152.75C162.42 150.69 161.55 149 161 149C160.45 149 160 147.87 160 146.5C160 145.12 158.93 141.86 157.62 139.25C156.31 136.64 153.89 132.47 152.25 130C150.6 127.52 147.79 124.37 146 123C144.21 121.62 141.9 119.71 140.87 118.75C139.84 117.79 139 117.45 139 118C139 118.55 137.42 119 135.5 119C133.57 119 131.66 118.48 131.25 117.84C130.69 116.97 118.69 116.82 83.5 117.25C57.65 117.57 35.85 117.98 35.05 118.17C34.25 118.35 33.57 117.97 33.55 117.33C33.52 116.69 33.15 115.79 32.72 115.33C32.29 114.87 31.96 115.06 31.97 115.75Z" />
		<path id="Path 6" class="shp4" d="M46.5 117.73C48.7 117.94 52.52 117.94 55 117.73C57.47 117.52 55.67 117.35 51 117.35C46.32 117.35 44.3 117.52 46.5 117.73Z" />
		<path id="Path 7" class="shp5" d="M61.43 117.72C63.05 117.95 65.3 117.94 66.43 117.7C67.57 117.47 66.25 117.28 63.5 117.29C60.74 117.29 59.82 117.49 61.43 117.72Z" />
		<path id="Path 8" class="shp2" d="M131.4 118C131.73 118.55 133.57 119 135.5 119C137.42 119 139 118.55 139 118C139 117.45 137.15 117 134.9 117C132.43 117 131.04 117.4 131.4 118Z" />
		<path id="Path 9" class="shp4" d="M166.25 175.5C166.26 177.89 166.45 178.49 166.7 177C166.94 175.62 166.93 173.82 166.68 173C166.43 172.17 166.24 173.3 166.25 175.5ZM1.27 182C1.27 184.47 1.47 185.37 1.71 184C1.94 182.62 1.94 180.6 1.71 179.5C1.47 178.4 1.27 179.52 1.27 182ZM167.4 195C167.4 202.97 167.55 206.35 167.74 202.5C167.93 198.65 167.93 192.12 167.74 188C167.55 183.87 167.4 187.02 167.4 195Z" />
		<path id="Path 10" class="shp5" d="M1.36 195C1.36 200.22 1.53 202.25 1.74 199.5C1.94 196.75 1.94 192.47 1.74 190C1.53 187.52 1.36 189.77 1.36 195Z" />
		<path id="Path 11" class="shp6" d="M0.34 194C0.34 198.12 0.51 199.92 0.73 198C0.94 196.07 0.94 192.7 0.73 190.5C0.51 188.3 0.34 189.87 0.34 194ZM168.34 194.5C168.35 198.9 168.52 200.47 168.73 198C168.94 195.52 168.94 191.92 168.73 190C168.51 188.07 168.34 190.1 168.34 194.5Z" />
		<path id="Path 12" class="shp4" d="M61 271.75C74.47 271.91 96.07 271.91 109 271.75C121.92 271.59 110.9 271.46 84.5 271.46C58.1 271.46 47.52 271.59 61 271.75Z" />
		<path id="Path 13" class="shp6" d="M68 272.75C78.17 272.91 94.37 272.91 104 272.75C113.62 272.58 105.3 272.45 85.5 272.45C65.7 272.45 57.82 272.59 68 272.75Z" />
	</g>
</svg>