<?xml version="1.0" encoding="UTF-8" standalone="no"?>
<!-- Created with Inkscape (http://www.inkscape.org/) -->

<svg
   width="180mm"
   height="180mm"
   viewBox="0 0 180 180"
   version="1.1"
   id="svg4127"
   inkscape:version="1.1 (c68e22c387, 2021-05-23)"
   sodipodi:docname="gradient-partly-cloudy.svg"
   xmlns:inkscape="http://www.inkscape.org/namespaces/inkscape"
   xmlns:sodipodi="http://sodipodi.sourceforge.net/DTD/sodipodi-0.dtd"
   xmlns:xlink="http://www.w3.org/1999/xlink"
   xmlns="http://www.w3.org/2000/svg"
   xmlns:svg="http://www.w3.org/2000/svg">
  <sodipodi:namedview
     id="namedview4129"
     pagecolor="#ffffff"
     bordercolor="#666666"
     borderopacity="1.0"
     inkscape:pageshadow="2"
     inkscape:pageopacity="0.0"
     inkscape:pagecheckerboard="true"
     inkscape:document-units="mm"
     showgrid="false"
     fit-margin-top="5"
     lock-margins="true"
     fit-margin-left="5"
     fit-margin-right="5"
     fit-margin-bottom="5"
     inkscape:zoom="1.2044332"
     inkscape:cx="362.41113"
     inkscape:cy="386.07371"
     inkscape:window-width="1920"
     inkscape:window-height="1047"
     inkscape:window-x="-9"
     inkscape:window-y="-9"
     inkscape:window-maximized="1"
     inkscape:current-layer="layer1" />
  <defs
     id="defs4124">
    <linearGradient
       inkscape:collect="always"
       xlink:href="#Sun___Lightning"
       id="linearGradient5258"
       gradientUnits="userSpaceOnUse"
       gradientTransform="matrix(3.0036905,0,0,3.0036905,3956.1877,194.35884)"
       x1="823.86969"
       y1="-30.709837"
       x2="943.86969"
       y2="-30.709837" />
    <linearGradient
       inkscape:collect="always"
       id="Sun___Lightning">
      <stop
         style="stop-color:#ffff00;stop-opacity:1;"
         offset="0"
         id="stop3849" />
      <stop
         style="stop-color:#ffe300;stop-opacity:0.96470588"
         offset="1"
         id="stop3851" />
    </linearGradient>
    <linearGradient
       inkscape:collect="always"
       xlink:href="#Darkercloud"
       id="linearGradient5199"
       gradientUnits="userSpaceOnUse"
       x1="20.263622"
       y1="112.12571"
       x2="59.116428"
       y2="121.51217"
       gradientTransform="translate(1351.3932,-328.76063)" />
    <linearGradient
       id="Darkercloud"
       inkscape:collect="always">
      <stop
         id="stop938"
         offset="0"
         style="stop-color:#f9f9f9;stop-opacity:1" />
      <stop
         style="stop-color:#ececec;stop-opacity:1"
         offset="1"
         id="stop940" />
    </linearGradient>
    <linearGradient
       inkscape:collect="always"
       xlink:href="#Lightcloud"
       id="linearGradient28206"
       x1="1377.4834"
       y1="-216.45973"
       x2="1519.0146"
       y2="-216.45973"
       gradientUnits="userSpaceOnUse" />
    <linearGradient
       inkscape:collect="always"
       id="Lightcloud">
      <stop
         style="stop-color:#f9f9f9;stop-opacity:1"
         offset="0"
         id="stop25100" />
      <stop
         id="stop25102"
         offset="0.47307122"
         style="stop-color:#fcfcfc;stop-opacity:1" />
      <stop
         style="stop-color:#fdfdfd;stop-opacity:1"
         offset="1"
         id="stop25104" />
    </linearGradient>
    <clipPath
       clipPathUnits="userSpaceOnUse"
       id="clipPath18364">
      <path
         style="fill:#000001;fill-opacity:1;stroke:#000000;stroke-width:0.264583px;stroke-linecap:butt;stroke-linejoin:miter;stroke-opacity:1"
         d="m 38.006362,197.52602 c 1.847109,-0.51495 3.757401,1.34802 5.306907,2.12275 2.663481,1.33176 5.063702,4.79097 7.429579,6.36824 7.411906,4.9413 10.85432,4.35164 20.166119,6.01445 1.663885,0.29712 7.176188,2.01181 9.552384,1.06137 10.640404,-4.25619 23.699419,-10.96074 30.779799,-21.58126 0.60312,-0.90461 1.34781,-13.40697 2.4765,-15.21302 5.20801,-8.33274 11.21902,-15.14786 21.58132,-16.62819 17.5804,-2.51149 27.83009,5.71338 44.57769,10.96753 8.28601,2.59953 17.05311,4.74093 25.1192,7.42961 2.5183,0.83944 3.34801,5.18297 5.3069,6.72204 3.9778,3.12548 9.12731,5.14144 13.09021,7.7834 0.89839,0.59893 0.018,2.07462 0.3538,2.83033 2.23639,5.03191 3.48038,8.18731 4.24548,13.79786 0.74811,5.48619 6.32762,11.18031 3.5379,17.68957 -2.5232,5.88737 -6.40188,7.40521 -11.32128,10.96753 -3.32671,2.40895 -6.0974,5.56233 -9.55241,7.7834 -2.87449,1.84793 -6.83001,3.26123 -9.90611,4.95308 -7.3379,4.03579 -13.46848,9.64184 -21.22749,13.09026 -4.5701,2.03115 -9.05981,0.38452 -13.79789,1.06137 -4.48961,1.28276 -4.79912,1.57282 -9.1985,2.12276 -17.0619,2.13272 -34.9667,-2.27209 -52.0073,0 -7.158908,0.95451 -14.424419,2.46843 -21.581319,3.18412 -13.67409,1.3674 -28.082399,-0.26678 -41.747387,-0.7076 -9.193715,-0.29657 -19.387503,-2.53529 -26.534295,-8.49098 -0.859817,-0.71652 0.17899,2.30312 -1.415204,-0.3538 -3.9375023,-6.56251 -5.2880944,-15.11438 -6.7220038,-22.64261 -0.6960129,-3.65389 -3.6229925,-18.58076 -1.7690041,-22.28887 1.7933987,-3.58672 5.1431031,-4.72591 8.1372079,-6.72202 2.224484,-1.483 3.528086,-4.30835 5.660707,-6.01445 2.861998,-2.28961 8.192876,-3.91957 11.675084,-5.66066 2.880915,-1.44044 4.860792,0.79986 7.783406,-2.12275"
         id="path18366" />
    </clipPath>
    <clipPath
       clipPathUnits="userSpaceOnUse"
       id="clipPath1667-23-0">
      <path
         style="opacity:1;fill:#00f9f9;fill-opacity:1;stroke:none;stroke-width:0;stroke-linecap:round;stroke-linejoin:round;stroke-miterlimit:4;stroke-dasharray:none;stroke-opacity:1"
         d="m 87.558863,180.17146 c -0.540149,2.7481 -1.044488,6.07706 -2.50168,8.50571 -0.628433,1.04739 -1.716805,1.9326 -2.251515,3.00202 -0.399986,0.79998 -1.000672,5.01956 -1.000672,6.00404 0,2.38455 -0.267804,5.5566 -1.000673,7.75521 -0.200133,0.6004 0.200134,1.40094 0,2.00135 -0.950187,2.85056 -0.750504,6.20417 -0.750504,9.25622 0,0.56142 -0.452593,3.5501 0,4.00269 0.355349,0.35535 3.824841,1.16192 4.503026,1.50101 0.522248,0.26112 -0.02191,0.73955 0.500338,1.00067 2.728542,1.36427 4.624943,3.04266 7.505046,4.00269 1.897481,0.6325 8.246081,0 10.507061,0 0.74253,0 1.33062,0.38855 2.00135,0.50034 2.43034,0.40506 6.31929,0.4061 8.75588,0 3.16883,-0.52814 2.05794,-1.71246 3.50236,-2.00135 1.66475,-0.33295 2.94552,0.27842 4.50303,-0.50033 1.53385,-0.76693 5.70318,0.0562 7.25487,0.25016 2.07883,0.25986 5.4127,-0.60497 7.25488,0.50034 0.30337,0.18203 0.45613,0.55426 0.7505,0.75051 0.83342,0.55561 1.85788,0.0714 2.75185,0.25017 1.68805,0.3376 3.3314,1.08301 5.00337,1.501 0.58299,0.14575 0.76788,0.83969 1.25084,1.00068 2.83007,0.94335 11.02738,1.29079 12.50841,4.25285 0.26293,0.52586 0.26869,1.42225 0.50034,2.00135 0.46095,1.15239 1.21731,2.18447 1.75117,3.25219 0.43076,0.86152 0,2.9873 0,4.00269 0,2.61616 -1.67412,3.51185 -3.00202,5.5037 -1.97579,2.96369 -3.95693,4.17537 -7.0047,6.00403 -0.54153,0.32492 -0.97468,0.14945 -1.50101,0.50034 -1.06331,0.70887 -1.29599,1.38721 -2.75185,1.75118 -2.09452,0.52363 -4.83144,0.22602 -6.75455,0.7505 -0.53968,0.14719 -0.97723,0.55409 -1.501,0.75051 -0.32974,0.12365 -5.96624,0.50033 -6.50438,0.50033 -1.34626,0 -3.19544,0.30175 -4.50302,0 -2.80141,-0.64647 -0.68695,-0.80774 -3.00202,-1.00067 -3.14764,-0.2623 -6.17522,-0.237 -9.25622,-0.7505 -2.02662,-0.33777 -4.43282,0 -6.50438,0 -4.91997,0 -9.839947,0 -14.759922,0 -1.751177,0 -3.517064,0.22649 -5.253532,0 -0.942798,-0.12298 -1.809782,-0.62204 -2.751849,-0.75051 -1.982994,-0.27041 -4.002691,0 -6.004037,0 -5.003363,0 -10.006726,0 -15.01009,0 -7.903506,0 -15.729275,0.11467 -23.515809,-0.7505 -2.315043,-0.25723 -4.994494,0.52162 -7.254877,0 -5.169808,-1.19304 3.853158,-0.55659 -3.252187,-1.00068 -2.746918,-0.17168 -5.53333,0.13873 -8.25555,-0.25016 -1.122819,-0.1604 -2.126727,-0.85999 -3.252187,-1.00068 -2.433547,-0.30419 -8.114654,-0.10927 -10.0067271,-2.00134 -0.8987676,-0.89877 -1.3041294,-2.20636 -2.0013456,-3.25219 -2.0180572,-3.02708 -2.5016817,-5.40483 -2.5016817,-9.00605 0,-0.66712 -0.2477606,-1.38195 0,-2.00135 0.2233282,-0.55832 0.7951724,-0.93588 1.0006727,-1.50101 0.5884275,-1.61817 -0.3508738,-3.55111 0.5003363,-5.25353 1.2817147,-2.56343 2.1763159,-5.00287 3.0020183,-7.75521 0.7753031,-2.58435 2.6419721,-4.9239 3.5023541,-7.50505 0.431769,-1.2953 0.197172,-3.00786 0.750505,-4.25286 0.143688,-0.3233 0.56848,-0.44713 0.750505,-0.7505 0.673478,-1.12247 0.394773,-3.06709 0.750504,-4.25286 0.13972,-0.46573 0.579774,-0.79556 0.750505,-1.25084 0.321844,-0.85825 0.02329,-2.14333 0.500336,-3.00202 0.229088,-0.41236 0.739009,-0.60818 1.000673,-1.00067 0.498193,-0.74729 0.524664,-1.74007 1.000673,-2.50169 0.565988,-0.90558 1.408978,-1.61313 2.001345,-2.50168 1.125697,-1.68854 2.332906,-2.83324 3.752523,-4.25286 1.545474,-1.54547 2.707384,-3.45788 4.252858,-5.00336 2.910123,-2.91012 6.424305,-5.37503 9.75656,-7.75521 1.860053,-1.32861 3.234984,-2.92613 5.253532,-4.00269 2.392635,-1.27608 5.032291,-1.82452 7.505044,-3.00202 2.022261,-0.96298 4.038981,-2.42414 6.254205,-3.00202 0.891241,-0.2325 1.845641,-0.0854 2.751852,-0.25017 1.777079,-0.10572 3.295954,-1.15953 5.003363,-1.50101 1.519415,-0.30388 3.241509,0.33593 4.753195,0 0.280995,-0.0624 0.793289,-0.72911 1.250841,-0.50033 0.4395,0.21975 0.832112,0.79131 1.250842,1.00067 2.455405,1.2277 5.232162,1.95075 7.755212,3.00202 1.169194,0.48716 2.287699,1.26531 3.502356,1.75118 0.371946,0.14877 2.384526,4.78491 2.501681,5.25353 0.172336,0.68934 -0.317807,1.86606 0,2.50168 0.17127,0.34254 1.578337,0.45712 1.751176,0.50034 z"
         id="path1669-8-6"
         inkscape:connector-curvature="0"
         transform="scale(3.7795276)" />
    </clipPath>
    <clipPath
       clipPathUnits="userSpaceOnUse"
       id="clipPath1667-23-0-5">
      <path
         style="opacity:1;fill:#00f9f9;fill-opacity:1;stroke:none;stroke-width:0;stroke-linecap:round;stroke-linejoin:round;stroke-miterlimit:4;stroke-dasharray:none;stroke-opacity:1"
         d="m 87.558863,180.17146 c -0.540149,2.7481 -1.044488,6.07706 -2.50168,8.50571 -0.628433,1.04739 -1.716805,1.9326 -2.251515,3.00202 -0.399986,0.79998 -1.000672,5.01956 -1.000672,6.00404 0,2.38455 -0.267804,5.5566 -1.000673,7.75521 -0.200133,0.6004 0.200134,1.40094 0,2.00135 -0.950187,2.85056 -0.750504,6.20417 -0.750504,9.25622 0,0.56142 -0.452593,3.5501 0,4.00269 0.355349,0.35535 3.824841,1.16192 4.503026,1.50101 0.522248,0.26112 -0.02191,0.73955 0.500338,1.00067 2.728542,1.36427 4.624943,3.04266 7.505046,4.00269 1.897481,0.6325 8.246081,0 10.507061,0 0.74253,0 1.33062,0.38855 2.00135,0.50034 2.43034,0.40506 6.31929,0.4061 8.75588,0 3.16883,-0.52814 2.05794,-1.71246 3.50236,-2.00135 1.66475,-0.33295 2.94552,0.27842 4.50303,-0.50033 1.53385,-0.76693 5.70318,0.0562 7.25487,0.25016 2.07883,0.25986 5.4127,-0.60497 7.25488,0.50034 0.30337,0.18203 0.45613,0.55426 0.7505,0.75051 0.83342,0.55561 1.85788,0.0714 2.75185,0.25017 1.68805,0.3376 3.3314,1.08301 5.00337,1.501 0.58299,0.14575 0.76788,0.83969 1.25084,1.00068 2.83007,0.94335 11.02738,1.29079 12.50841,4.25285 0.26293,0.52586 0.26869,1.42225 0.50034,2.00135 0.46095,1.15239 1.21731,2.18447 1.75117,3.25219 0.43076,0.86152 0,2.9873 0,4.00269 0,2.61616 -1.67412,3.51185 -3.00202,5.5037 -1.97579,2.96369 -3.95693,4.17537 -7.0047,6.00403 -0.54153,0.32492 -0.97468,0.14945 -1.50101,0.50034 -1.06331,0.70887 -1.29599,1.38721 -2.75185,1.75118 -2.09452,0.52363 -4.83144,0.22602 -6.75455,0.7505 -0.53968,0.14719 -0.97723,0.55409 -1.501,0.75051 -0.32974,0.12365 -5.96624,0.50033 -6.50438,0.50033 -1.34626,0 -3.19544,0.30175 -4.50302,0 -2.80141,-0.64647 -0.68695,-0.80774 -3.00202,-1.00067 -3.14764,-0.2623 -6.17522,-0.237 -9.25622,-0.7505 -2.02662,-0.33777 -4.43282,0 -6.50438,0 -4.91997,0 -9.839947,0 -14.759922,0 -1.751177,0 -3.517064,0.22649 -5.253532,0 -0.942798,-0.12298 -1.809782,-0.62204 -2.751849,-0.75051 -1.982994,-0.27041 -4.002691,0 -6.004037,0 -5.003363,0 -10.006726,0 -15.01009,0 -7.903506,0 -15.729275,0.11467 -23.515809,-0.7505 -2.315043,-0.25723 -4.994494,0.52162 -7.254877,0 -5.169808,-1.19304 3.853158,-0.55659 -3.252187,-1.00068 -2.746918,-0.17168 -5.53333,0.13873 -8.25555,-0.25016 -1.122819,-0.1604 -2.126727,-0.85999 -3.252187,-1.00068 -2.433547,-0.30419 -8.114654,-0.10927 -10.0067271,-2.00134 -0.8987676,-0.89877 -1.3041294,-2.20636 -2.0013456,-3.25219 -2.0180572,-3.02708 -2.5016817,-5.40483 -2.5016817,-9.00605 0,-0.66712 -0.2477606,-1.38195 0,-2.00135 0.2233282,-0.55832 0.7951724,-0.93588 1.0006727,-1.50101 0.5884275,-1.61817 -0.3508738,-3.55111 0.5003363,-5.25353 1.2817147,-2.56343 2.1763159,-5.00287 3.0020183,-7.75521 0.7753031,-2.58435 2.6419721,-4.9239 3.5023541,-7.50505 0.431769,-1.2953 0.197172,-3.00786 0.750505,-4.25286 0.143688,-0.3233 0.56848,-0.44713 0.750505,-0.7505 0.673478,-1.12247 0.394773,-3.06709 0.750504,-4.25286 0.13972,-0.46573 0.579774,-0.79556 0.750505,-1.25084 0.321844,-0.85825 0.02329,-2.14333 0.500336,-3.00202 0.229088,-0.41236 0.739009,-0.60818 1.000673,-1.00067 0.498193,-0.74729 0.524664,-1.74007 1.000673,-2.50169 0.565988,-0.90558 1.408978,-1.61313 2.001345,-2.50168 1.125697,-1.68854 2.332906,-2.83324 3.752523,-4.25286 1.545474,-1.54547 2.707384,-3.45788 4.252858,-5.00336 2.910123,-2.91012 6.424305,-5.37503 9.75656,-7.75521 1.860053,-1.32861 3.234984,-2.92613 5.253532,-4.00269 2.392635,-1.27608 5.032291,-1.82452 7.505044,-3.00202 2.022261,-0.96298 4.038981,-2.42414 6.254205,-3.00202 0.891241,-0.2325 1.845641,-0.0854 2.751852,-0.25017 1.777079,-0.10572 3.295954,-1.15953 5.003363,-1.50101 1.519415,-0.30388 3.241509,0.33593 4.753195,0 0.280995,-0.0624 0.793289,-0.72911 1.250841,-0.50033 0.4395,0.21975 0.832112,0.79131 1.250842,1.00067 2.455405,1.2277 5.232162,1.95075 7.755212,3.00202 1.169194,0.48716 2.287699,1.26531 3.502356,1.75118 0.371946,0.14877 2.384526,4.78491 2.501681,5.25353 0.172336,0.68934 -0.317807,1.86606 0,2.50168 0.17127,0.34254 1.578337,0.45712 1.751176,0.50034 z"
         id="path1669-8-6-9"
         inkscape:connector-curvature="0"
         transform="scale(3.7795276)" />
    </clipPath>
  </defs>
  <g
     inkscape:label="Layer 1"
     inkscape:groupmode="layer"
     id="layer1"
     transform="translate(-358.42645,91.971145)">
    <g
       id="g18630"
       transform="translate(-1015.7075,239.15205)">
      <path
         id="path3130-8-8-8"
         style="fill:none;stroke:url(#linearGradient5258);stroke-width:45.0554;stroke-linecap:round;stroke-linejoin:round;stroke-miterlimit:4;stroke-dasharray:none;stroke-opacity:1"
         d="m 6445.4865,119.17624 a 166.4487,166.44864 0 0 1 -0.8766,-17.06035 166.4487,166.44864 0 0 1 166.4487,-166.448641 166.4487,166.44864 0 0 1 166.4487,166.448641 v 0 a 166.4487,166.44864 0 0 1 -125.5442,161.34427"
         transform="matrix(0.26458333,0,0,0.26458333,-248.3915,-277.37566)" />
      <path
         id="path884-4-8"
         style="fill:url(#linearGradient5199);fill-opacity:1;stroke:url(#linearGradient28206);stroke-width:6.00001;stroke-linecap:round;stroke-linejoin:round;stroke-miterlimit:4;stroke-dasharray:none;stroke-opacity:1"
         d="m 1443.3894,-248.02861 c -1.4369,0.015 -2.8613,0.1181 -4.2679,0.31574 -1.5551,0.22252 -3.0693,0.56819 -4.5264,1.04438 -5.6402,1.85276 -9.7462,5.5054 -12.2312,9.18859 -3.4374,5.10575 -3.9724,9.61813 -3.712,12.16101 -1.7434,-1.79521 -3.9044,-3.51312 -6.552,-4.92941 -1.7948,-0.94876 -3.7758,-1.74612 -5.9123,-2.31976 -3.9345,-0.74821 -8.3278,-0.23607 -12.2773,1.84743 -1.6203,0.88687 -3.1027,1.98839 -4.438,3.2613 -1.8969,1.80839 -3.4163,3.88586 -4.5888,6.01359 -3.4408,6.18282 -4.4617,12.7475 -4.3972,18.2454 0.012,2.71819 0.3173,5.20558 1.0191,7.50393 0.8985,2.96912 2.4653,5.17031 4.1098,6.59908 2.1069,1.80919 3.927,2.27217 4.871,2.23346 5.9957,1.18455 30.5504,2.03192 59.9163,1.97197 30.0908,-0.0614 55.1222,-1.05463 60.3126,-2.30632 0.01,0.0316 0.016,0.0605 0.035,0.0832 0.4298,0.52274 5.1631,-1.34903 5.2643,-8.10752 0.01,-1.62011 -0.3034,-3.22991 -0.8144,-4.86223 -1.4097,-4.72918 -4.4927,-10.5153 -10.2547,-14.48646 -1.8541,-1.24241 -3.888,-2.2329 -6.0549,-2.96984 -2.4345,-0.82792 -4.9035,-1.29044 -7.2766,-1.48156 -4.9546,-0.40862 -9.6548,0.20173 -13.4472,0.93121 -1.2593,0.23354 -2.4797,0.50536 -3.698,0.91725 0.2778,-1.18148 0.5713,-2.68639 0.8759,-4.48293 -0.065,-2.73656 -0.6361,-6.17322 -2.2381,-9.81077 -2.0653,-4.59281 -5.9044,-9.41151 -11.7171,-12.48657 -2.7375,-1.4305 -5.6826,-2.39006 -8.74,-3.04995 -0.6545,-0.14566 -1.3183,-0.27909 -1.9901,-0.39791 -2.4443,-0.43228 -4.8749,-0.65138 -7.2699,-0.62631 z m -0.6097,5.2529 c 2.2354,-0.018 4.554,0.20771 6.9546,0.62787 0.5995,0.10493 1.1965,0.2209 1.7885,0.3452 2.7622,0.60065 5.2799,1.3479 7.5205,2.4536 4.7396,2.30144 8.1938,6.09525 10.2975,9.77873 1.641,2.79914 2.5254,5.59442 3.0154,7.95094 0.014,2.1894 0.086,3.96267 0.2149,5.23689 -2.3826,1.19671 -4.0657,2.85998 -5.1123,4.36097 -2.0004,2.87732 -1.9522,4.97803 -1.4888,5.14336 0.4634,0.16532 1.3523,-1.50131 3.515,-3.36311 1.3623,-1.17601 3.3268,-2.40502 5.826,-2.96467 1.0408,-0.23981 2.1386,-0.34332 3.4794,-0.47181 3.6656,-0.32571 8.0926,-0.63593 12.3088,-0.13849 2.0261,0.24386 4.1012,0.65961 6.0906,1.3224 1.7738,0.59098 3.402,1.352 4.8555,2.30063 4.5561,2.8654 7.5078,7.6011 9.2584,11.5316 0.5952,1.39558 1.0208,2.51834 1.187,3.64318 0.546,3.26136 -0.8335,5.65999 -1.4728,6.93912 -4.4823,-1.26875 -29.9329,-2.19732 -60.6263,-2.13476 -29.5189,0.0602 -54.1796,1.01699 -60.0067,2.23501 -0.7211,-0.5753 -1.8293,-1.4513 -2.9093,-2.9006 -1.0519,-1.3892 -1.904,-3.24597 -2.3632,-5.718 -0.3537,-1.93153 -0.369,-3.99952 -0.2026,-6.47144 0.3702,-4.90819 1.5399,-10.69755 4.5413,-15.75976 1.0351,-1.72543 2.2681,-3.39618 3.7078,-4.79609 1.0152,-0.98707 2.1066,-1.81385 3.2763,-2.44016 2.7258,-1.53678 5.9094,-2.03553 8.7364,-1.62987 1.728,0.38108 3.3585,0.93998 4.8628,1.62264 5.6516,2.52862 9.3316,6.78116 11.436,9.85366 2.1504,3.13977 3.0157,5.30365 3.5005,5.1785 0.4849,-0.12517 0.5473,-2.59892 -1.0898,-6.47919 -0.7941,-1.88223 -2.0749,-4.15734 -3.9662,-6.40323 0.6048,-1.79944 1.5685,-6.47404 5.5966,-11.19208 2.3976,-2.81517 6.0054,-5.51894 10.543,-6.77375 1.1806,-0.32912 2.4255,-0.56002 3.7285,-0.70694 0.9814,-0.11368 1.9806,-0.17215 2.9967,-0.18035 z" />
    </g>
  </g>
</svg>
